<svg xmlns="http://www.w3.org/2000/svg" width="233" height="107" viewBox="0 0 233 107" fill="none"><rect y="49.881" width="225" height="58.5165" transform="rotate(-12.8085 0 49.881)" fill="url(#paint0_linear_10_639)"></rect><path d="M23.9859 83.1044L20.7408 68.8307L26.3945 67.5453C26.9185 67.4262 27.5008 67.3293 28.1416 67.2548C28.7992 67.1763 29.4507 67.1882 30.0961 67.2903C30.7415 67.3925 31.3077 67.6548 31.7949 68.0773C32.2989 68.496 32.6527 69.1532 32.8564 70.049C32.9794 70.5899 32.9828 71.1135 32.8669 71.6198C32.7678 72.1223 32.4655 72.591 31.96 73.0258C31.4676 73.44 30.7032 73.7915 29.6668 74.0805L29.6841 74.1565C30.9087 73.9137 31.8871 73.8779 32.6193 74.0491C33.3476 74.2035 33.8962 74.5054 34.265 74.9548C34.6338 75.4043 34.8893 75.9417 35.0315 76.567C35.239 77.4797 35.1995 78.2442 34.913 78.8604C34.6226 79.4597 34.1851 79.9591 33.6005 80.3586C33.012 80.7413 32.3705 81.0471 31.676 81.2761C30.9945 81.4844 30.358 81.6557 29.7664 81.7902L23.9859 83.1044ZM24.6249 74.1869L27.4391 73.5471C28.0306 73.4126 28.5723 73.2539 29.064 73.071C29.5726 72.8843 29.9502 72.6296 30.1967 72.3069C30.4395 71.9673 30.4936 71.5017 30.3591 70.9101C30.217 70.2847 29.9546 69.8733 29.5719 69.6759C29.2062 69.4746 28.7621 69.3978 28.2397 69.4455C27.7173 69.4932 27.1603 69.5843 26.5687 69.7188L23.7545 70.3586L24.6249 74.1869ZM26.074 80.4433L29.091 79.7574C29.7501 79.6075 30.349 79.4269 30.8876 79.2156C31.4261 79.0043 31.8318 78.7165 32.1045 78.3524C32.3733 77.9713 32.4348 77.4596 32.2887 76.8173C32.1389 76.1581 31.8519 75.7168 31.4278 75.4932C30.9998 75.2528 30.4889 75.1556 29.895 75.2018C29.3011 75.2479 28.6577 75.3498 27.9647 75.5073L25.0998 76.1586L26.074 80.4433ZM44.4142 78.8333C42.386 79.2945 40.7126 79.0883 39.3942 78.2148C38.0888 77.3207 37.2036 75.851 36.7387 73.8059L34.8769 65.6168L37.6404 64.9885L39.4964 73.1522C39.7346 74.2001 40.0881 74.973 40.5568 75.4708C41.0255 75.9686 41.5487 76.2763 42.1265 76.3938C42.7042 76.5113 43.2805 76.5047 43.8551 76.3741C44.4974 76.2281 45.0555 75.9856 45.5295 75.6468C45.9997 75.291 46.3216 74.7912 46.4952 74.1474C46.6857 73.4997 46.6599 72.6435 46.4178 71.5786L44.5618 63.415L47.2999 62.7924L49.1617 70.9815C49.6343 73.0604 49.4735 74.7768 48.6792 76.1306C47.8979 77.4636 46.4763 78.3645 44.4142 78.8333ZM58.9173 75.4561C58.1398 75.6328 57.3496 75.7147 56.5468 75.7017C55.7608 75.6849 55.0194 75.5512 54.3225 75.3008C53.6257 75.0504 53.0287 74.6529 52.5316 74.1082C52.0306 73.5466 51.6699 72.8198 51.4493 71.9279L54.0606 71.3342C54.0799 71.4187 54.1559 71.5969 54.2889 71.8689C54.418 72.124 54.6373 72.3852 54.947 72.6525C55.2735 72.916 55.7257 73.1065 56.3034 73.224C56.8981 73.3377 57.6518 73.2907 58.5645 73.0832C59.5617 72.8565 60.2547 72.5034 60.6434 72.024C61.049 71.5407 61.2038 71.0878 61.1077 70.6653C61.0001 70.192 60.7466 69.8586 60.347 69.665C59.9606 69.4507 59.4692 69.3224 58.873 69.2802C58.2899 69.2172 57.6515 69.1846 56.9577 69.1824C56.2808 69.1763 55.5917 69.1552 54.8902 69.1192C54.2018 69.0623 53.5507 68.9349 52.9368 68.7367C52.336 68.5178 51.8239 68.1809 51.4006 67.7261C50.9772 67.2713 50.6902 66.6344 50.5396 65.8155C50.3512 64.5962 50.7126 63.5275 51.6238 62.6093C52.5349 61.6911 53.8694 61.0322 55.6272 60.6326C56.6413 60.402 57.6216 60.3747 58.5682 60.5506C59.5278 60.7057 60.3522 61.0871 61.0414 61.6947C61.7436 62.2817 62.2215 63.1329 62.4752 64.2484L59.9652 64.8191C59.8461 64.2951 59.6317 63.8994 59.3221 63.6321C59.0086 63.3479 58.6467 63.1635 58.2364 63.079C57.8392 62.9738 57.432 62.9419 57.0149 62.9835C56.5938 63.0081 56.2228 63.0569 55.9016 63.1299C55.0565 63.322 54.3878 63.6252 53.8953 64.0393C53.4198 64.4496 53.2454 64.9336 53.3722 65.4914C53.4629 65.9685 53.7099 66.3123 54.1133 66.5228C54.5167 66.7333 55.0164 66.8596 55.6126 66.9018C56.2088 66.944 56.8519 66.9578 57.5418 66.9432C58.2317 66.9285 58.9293 66.9477 59.6346 67.0006C60.3361 67.0367 60.9937 67.1538 61.6076 67.352C62.2176 67.5332 62.7363 67.8597 63.1635 68.3314C63.5868 68.7862 63.8692 69.4419 64.0107 70.2986C64.2159 71.514 63.846 72.5846 62.9011 73.5105C61.9523 74.4194 60.6244 75.068 58.9173 75.4561ZM73.6084 72.0894C72.2731 72.3929 71.0031 72.3973 69.7984 72.1023C68.5899 71.7905 67.5415 71.1667 66.6533 70.231C65.782 69.2915 65.1619 68.0104 64.793 66.3878C64.4487 64.7952 64.4624 63.37 64.8342 62.1123C65.2059 60.8546 65.8674 59.8154 66.8184 58.9948C67.7695 58.1742 68.938 57.6064 70.324 57.2913C71.6424 56.9915 72.8201 56.9726 73.8573 57.2345C74.8945 57.4964 75.7843 57.9696 76.5265 58.6541C77.2856 59.3348 77.8649 60.163 78.2645 61.1386L75.6025 61.7439C75.3151 61.0271 74.9036 60.5074 74.3681 60.1847C73.8456 59.8413 73.2778 59.6505 72.6648 59.6121C72.0478 59.5568 71.452 59.5945 70.8773 59.7252C69.3731 60.0672 68.3113 60.7529 67.6922 61.7825C67.0899 62.8082 66.9636 64.0901 67.3133 65.6282C67.6861 67.2677 68.3611 68.4385 69.3384 69.1406C70.3326 69.8389 71.5819 70.0171 73.0861 69.6751C73.7115 69.5329 74.2988 69.3016 74.8481 68.9812C75.3936 68.6439 75.8277 68.2074 76.1503 67.6719C76.4691 67.1195 76.6012 66.4495 76.5466 65.6621L79.234 65.0511C79.2863 66.1413 79.1193 67.1658 78.7329 68.1246C78.3596 69.0627 77.747 69.8864 76.895 70.5956C76.0561 71.284 74.9605 71.782 73.6084 72.0894ZM81.6526 69.9939L82.971 54.6826L87.205 53.72L95.1404 66.9274L92.3769 67.5557L90.2435 63.8012L84.6912 65.0636L84.3907 69.3714L81.6526 69.9939ZM85.3739 55.2828L84.8443 62.9223L89.1797 61.9367L85.3739 55.2828ZM103.517 50.0114L106.205 49.4004L109.45 63.6742L104.531 64.7924L96.6524 52.772L96.6017 52.7835L99.5875 65.9164L96.9254 66.5216L93.6803 52.2478L98.2438 51.2103L106.452 63.1558L106.503 63.1443L103.517 50.0114ZM123.732 52.908C124.159 54.7841 124.119 56.3307 123.614 57.5477C123.121 58.744 122.254 59.6967 121.011 60.4059C119.767 61.1151 118.242 61.6753 116.433 62.0865L112.503 62.9799L109.258 48.7062L113.188 47.8127C114.997 47.4016 116.63 47.3146 118.088 47.5519C119.543 47.7723 120.752 48.3239 121.717 49.2065C122.699 50.0854 123.371 51.3192 123.732 52.908ZM114.58 60.2681L116.684 59.7897C117.8 59.5361 118.734 59.1903 119.488 58.7523C120.238 58.2974 120.75 57.6566 121.024 56.8299C121.298 56.0032 121.278 54.8969 120.963 53.5109C120.59 51.8714 119.823 50.7659 118.662 50.1944C117.514 49.6021 116.104 49.4962 114.431 49.8766L112.326 50.3551L114.58 60.2681ZM134.041 58.4566C131.742 58.9792 129.833 58.7112 128.312 57.6526C126.788 56.5771 125.766 54.8985 125.248 52.6167C124.906 51.1125 124.872 49.7514 125.146 48.5337C125.416 47.299 126.006 46.2583 126.916 45.4116C127.839 44.5442 129.086 43.9317 130.658 43.5744C132.99 43.0441 134.91 43.3186 136.418 44.3979C137.921 45.4604 138.93 47.124 139.445 49.3889C139.78 50.8594 139.805 52.2223 139.522 53.4777C139.234 54.7162 138.638 55.7673 137.732 56.6309C136.826 57.4945 135.596 58.1031 134.041 58.4566ZM133.451 55.9778C134.972 55.6319 136.005 54.8993 136.551 53.7799C137.113 52.6566 137.233 51.3851 136.91 49.9653C136.691 49.0019 136.328 48.1867 135.821 47.5199C135.31 46.8362 134.668 46.3599 133.896 46.091C133.12 45.8053 132.217 45.7796 131.186 46.014C129.698 46.3522 128.67 47.066 128.1 48.1555C127.53 49.2449 127.416 50.5418 127.758 52.0461C127.969 52.9757 128.322 53.7843 128.816 54.4719C129.323 55.1387 129.964 55.615 130.74 55.9008C131.516 56.1865 132.42 56.2122 133.451 55.9778ZM154.834 51.0364L155.335 53.2421L148.971 54.6889L148.47 52.4832L150.397 52.0451L148.16 42.2082L146.234 42.6462L145.726 40.4152L152.09 38.9684L152.597 41.1994L150.721 41.626L152.957 51.463L154.834 51.0364ZM169.858 42.4213C170.284 44.2974 170.245 45.844 169.739 47.061C169.247 48.2573 168.379 49.21 167.136 49.9192C165.893 50.6284 164.367 51.1886 162.559 51.5998L158.629 52.4932L155.384 38.2195L159.314 37.326C161.122 36.9149 162.756 36.8279 164.214 37.0652C165.668 37.2856 166.878 37.8372 167.843 38.7198C168.825 39.5987 169.496 40.8325 169.858 42.4213ZM160.706 49.7814L162.81 49.303C163.925 49.0494 164.86 48.7036 165.614 48.2656C166.364 47.8107 166.876 47.1699 167.15 46.3432C167.424 45.5165 167.404 44.4102 167.088 43.0242C166.716 41.3847 165.949 40.2792 164.788 39.7077C163.64 39.1154 162.229 39.0095 160.556 39.39L158.452 39.8684L160.706 49.7814ZM175.839 46.3942L183.724 44.6016L184.196 46.6805L173.751 49.0553L170.506 34.7815L180.698 32.4644L181.205 34.6955L173.574 36.4304L174.427 40.1827L180.283 38.8512L180.767 40.9809L174.911 42.3123L175.839 46.3942ZM185.59 46.3636L186.909 31.0523L191.142 30.0898L199.078 43.2972L196.314 43.9254L194.181 40.171L188.629 41.4333L188.328 45.7411L185.59 46.3636ZM189.311 31.6526L188.782 39.2921L193.117 38.3064L189.311 31.6526ZM206.529 41.8964C205.752 42.0731 204.962 42.155 204.159 42.142C203.373 42.1252 202.631 41.9915 201.935 41.7411C201.238 41.4907 200.641 41.0932 200.144 40.5485C199.643 39.9869 199.282 39.2602 199.061 38.3682L201.673 37.7745C201.692 37.859 201.768 38.0372 201.901 38.3092C202.03 38.5643 202.249 38.8255 202.559 39.0928C202.886 39.3563 203.338 39.5468 203.915 39.6643C204.51 39.778 205.264 39.7311 206.177 39.5236C207.174 39.2968 207.867 38.9438 208.255 38.4643C208.661 37.981 208.816 37.5281 208.72 37.1056C208.612 36.6323 208.359 36.2989 207.959 36.1053C207.573 35.891 207.081 35.7627 206.485 35.7205C205.902 35.6576 205.264 35.6249 204.57 35.6227C203.893 35.6166 203.204 35.5955 202.502 35.5595C201.814 35.5027 201.163 35.3752 200.549 35.177C199.948 34.9581 199.436 34.6212 199.013 34.1664C198.589 33.7116 198.302 33.0748 198.152 32.2558C197.963 31.0365 198.325 29.9678 199.236 29.0496C200.147 28.1315 201.481 27.4726 203.239 27.0729C204.253 26.8424 205.234 26.815 206.18 26.9909C207.14 27.146 207.964 27.5274 208.653 28.1351C209.356 28.722 209.834 29.5732 210.087 30.6887L207.577 31.2594C207.458 30.7354 207.244 30.3398 206.934 30.0724C206.621 29.7882 206.259 29.6038 205.849 29.5193C205.451 29.4141 205.044 29.3823 204.627 29.4238C204.206 29.4484 203.835 29.4972 203.514 29.5702C202.669 29.7623 202 30.0655 201.507 30.4796C201.032 30.8899 200.857 31.374 200.984 31.9317C201.075 32.4088 201.322 32.7526 201.725 32.9631C202.129 33.1736 202.629 33.2999 203.225 33.3421C203.821 33.3843 204.464 33.3981 205.154 33.3835C205.844 33.3688 206.541 33.388 207.247 33.4409C207.948 33.477 208.606 33.5941 209.22 33.7923C209.83 33.9736 210.348 34.3 210.776 34.7717C211.199 35.2265 211.481 35.8822 211.623 36.7389C211.828 37.9543 211.458 39.0249 210.513 39.9508C209.564 40.8597 208.236 41.5083 206.529 41.8964Z" fill="black"></path><defs><linearGradient id="paint0_linear_10_639" x1="0" y1="79.1392" x2="225" y2="79.1392" gradientUnits="userSpaceOnUse"><stop offset="0.16" stop-color="#6D7AE1"></stop><stop offset="0.5" stop-color="#B7C2FB"></stop><stop offset="0.87" stop-color="#EFA6F5"></stop></linearGradient></defs></svg>