<?xml version="1.0" encoding="UTF-8"?>
<svg id="Capa_1" xmlns="http://www.w3.org/2000/svg" version="1.1" viewBox="0 0 24 24">
  <!-- Generator: Adobe Illustrator 29.0.0, SVG Export Plug-In . SVG Version: 2.1.0 Build 186)  -->
  <defs>
    <style>
      .st0 {
        fill: none;
      }

      .st1 {
        fill: #00a656;
      }
    </style>
  </defs>
  <path class="st0" d="M0,0h24v24H0V0Z"/>
  <path class="st1" d="M17,3.3c4.8,2.8,6.4,8.9,3.7,13.7-2.8,4.8-8.9,6.4-13.7,3.7-3-1.7-4.9-4.9-5-8.3v-.3s0-.3,0-.3C2.2,6.2,6.8,1.8,12.3,2c1.6,0,3.3.5,4.7,1.3ZM15.7,9.3c-.4-.4-.9-.4-1.3,0h0c0,0-3.3,3.4-3.3,3.4l-1.3-1.3h0c-.4-.4-1.1-.3-1.4,0-.3.4-.3.9,0,1.2h0c0,0,2,2.1,2,2.1h0c.4.4.9.4,1.2,0h0c0,0,4-4.1,4-4.1h0c.3-.5.3-1.1,0-1.4Z"/>
</svg>