<svg xmlns="http://www.w3.org/2000/svg" id="Capa_2" data-name="Capa 2" viewBox="0 0 72.53 59.01"><defs><style>      .cls-1, .cls-2, .cls-3 {        stroke-width: 0px;      }      .cls-2 {        fill: #7582e2;      }      .cls-3 {        fill: #efa6f5;      }    </style></defs><g id="Capa_1-2" data-name="Capa 1"><g><polygon class="cls-3" points="47.92 44.79 48.59 55.91 50.76 56.13 56.15 51.17 55.26 40.47 47.92 44.79"></polygon><polygon class="cls-3" points="55.17 24.45 56.23 38.46 62.68 34.17 63.05 33.09 61.89 20.3 55.17 24.45"></polygon><polygon class="cls-3" points="63.82 34.62 64.54 44.16 71.51 37.66 70.56 30.28 63.82 34.62"></polygon><polygon class="cls-3" points="61.89 11.16 62.9 18.56 68.94 14.21 68.28 5.53 61.89 11.16"></polygon><polygon class="cls-3" points="47.78 22.08 47.61 28.91 54.09 24.53 54 17.6 47.94 21.19 47.78 22.08"></polygon><polygon class="cls-3" points="3.52 47.32 3.88 57.19 17.71 57.08 16.57 47.13 3.52 47.32"></polygon><polygon class="cls-3" points="33.28 45.44 33.64 56.92 47.47 56.79 46.33 45.21 33.28 45.44"></polygon><polygon class="cls-3" points="1.76 20.78 2.74 32.88 15.97 31.54 15.17 20.3 1.76 20.78"></polygon><polygon class="cls-3" points="16.81 32.11 17.95 46.51 33.38 44.91 32.45 31.54 16.81 32.11"></polygon><polygon class="cls-3" points="33.87 31.12 45.74 29.48 46.35 22.08 32.58 20.89 33.87 31.12"></polygon><polygon class="cls-3" points="11.67 13.7 5.47 17.48 3.52 19.35 13.81 19.59 20.63 14.98 20.03 14.21 11.67 13.7"></polygon><polygon class="cls-3" points="25.71 11.66 23.2 13.47 36.47 13.7 45.25 9.24 44.49 8.49 25.71 11.66"></polygon><polyline class="cls-3" points="31.8 8 25.51 11.69 44.2 8.67 36.24 13.67 39.3 13.7 41.58 11.47 42.84 10.46 43.8 8.32"></polyline><polygon class="cls-3" points="38.96 15.03 33.27 19.21 47.22 20.67 54.32 15.45 38.96 15.03"></polygon><path class="cls-2" d="M2.67,45.55c.88.68,1.85,1.53,2.89,1.93.48.19.79-.49.48-.82-.38-.39-.88-.66-1.33-.96-.48-.31-.96-.62-1.46-.9-.45-.26-1.01.4-.57.74h0Z"></path><path class="cls-2" d="M2.35,42.09c.78,1.08,1.89,1.91,2.88,2.79s1.95,1.94,3.09,2.6c.41.24,1.02-.27.7-.7-.8-1.06-1.94-1.88-2.94-2.76s-1.96-1.9-3.13-2.54c-.36-.2-.88.23-.61.61h0Z"></path><path class="cls-2" d="M2.62,38.89c1.68,1.69,3.51,3.22,5.3,4.79,1.31,1.15,2.85,3.21,4.63,3.49.16.03.32-.1.27-.27-.54-1.8-2.93-3.13-4.32-4.33-1.74-1.51-3.45-3.05-5.29-4.44-.45-.34-.96.38-.59.76h0Z"></path><path class="cls-2" d="M2.93,36c1.83,2.18,4.24,3.99,6.38,5.88,1.96,1.73,3.85,3.6,6,5.1.53.37,1.07-.42.66-.86-1.94-2.11-4.3-3.91-6.47-5.79-1.96-1.69-3.86-3.6-6.06-4.99-.43-.27-.8.31-.51.66h0Z"></path><path class="cls-2" d="M5.18,34.76c1.51,1.91,3.46,3.49,5.24,5.15,1.43,1.33,2.83,3.06,4.64,3.82.33.14.57-.3.43-.56-.99-1.88-3.15-3.31-4.72-4.71-1.65-1.48-3.25-3.1-5.11-4.33-.41-.27-.74.3-.48.63h0Z"></path><path class="cls-2" d="M8.71,34.73l-.22-.75-.91.38c1.33,1.45,2.82,2.76,4.24,4.12,1.31,1.24,2.58,2.57,4.02,3.66.55.42,1.1-.44.7-.91-1.21-1.4-2.68-2.62-4.05-3.87s-2.71-2.59-4.16-3.75c-.52-.42-1.27.28-.75.75l.56.71c.21.38.75.05.57-.34h0Z"></path><path class="cls-2" d="M11.14,33.87c-.06-.25-.06-.51,0-.76l-.95.39c.9.98,1.92,1.86,2.9,2.77.75.7,1.65,1.81,2.69,2.02.2.04.38-.12.33-.33-.28-1.05-1.41-1.83-2.17-2.54-.97-.91-1.92-1.87-2.96-2.7-.47-.37-1.21.09-.87.67l.25.59c.12.41.84.35.78-.11h0Z"></path><path class="cls-2" d="M12.51,33.64c.42.35.85.7,1.28,1.04.38.3.76.7,1.24.82.31.08.56-.25.41-.53-.23-.42-.73-.7-1.1-.99-.44-.34-.88-.66-1.32-.99-.37-.27-.86.35-.5.65h0Z"></path><path class="cls-2" d="M17.35,28.44c-.18-.1-.33-.23-.46-.38-.31-.4-.97.12-.7.54.53.81,1.26,1.5,1.9,2.21s1.25,1.45,2.13,1.95c.3.17.58-.16.44-.44-.23-.5-.35-.73-.73-1.15-.35-.38-.71-.75-1.07-1.13-.67-.7-1.3-1.46-2.07-2.05l-.22.83c.16.03.32.08.47.16.36.16.65-.31.31-.53h0Z"></path><path class="cls-2" d="M16.52,24.37c-.17-.29-.33-.6-.47-.91l-.79.61c1.13,1.44,2.57,2.67,3.87,3.95,1.18,1.17,2.32,2.54,3.71,3.46.39.26.92-.26.65-.65-.99-1.46-2.47-2.63-3.72-3.86s-2.49-2.61-3.91-3.69c-.49-.38-.93.38-.61.79l.53.73c.31.44,1,.06.73-.43h0Z"></path><path class="cls-2" d="M15.91,21.98c1.69,1.93,3.6,3.67,5.44,5.46,1.57,1.53,3.24,3.7,5.24,4.63.3.14.61-.15.46-.46-1-1.97-3.23-3.54-4.82-5.05-1.86-1.77-3.67-3.61-5.67-5.23-.46-.37-1.05.2-.65.65h0Z"></path><path class="cls-2" d="M18.21,20.97c3.56,3.92,7.84,7.7,12,10.98.57.45,1.36-.27.82-.82-3.73-3.81-7.99-7.69-12.3-10.83-.41-.3-.84.33-.52.68h0Z"></path><path class="cls-2" d="M22.08,20.58c2.82,3.68,6.17,7.21,9.46,10.47.64.64,1.47-.63.55-.95l-.61-.27c-.14-.07-.34.05-.28.22.1.24.17.49.19.76l.95-.55c-2.97-3.5-6.2-7.1-9.62-10.17-.33-.29-.95.11-.65.5h0Z"></path><path class="cls-2" d="M26.46,21.86c-.27-.44-.59-.89-.75-1.38l-.64.27c.77,1.34,1.89,2.5,2.89,3.66s1.93,2.53,3.17,3.42c.4.29.84-.26.63-.63-.72-1.35-1.99-2.47-2.99-3.6s-2.01-2.38-3.23-3.32c-.31-.24-.72.29-.42.55.4.35.7.8,1.01,1.23.14.19.45.02.32-.19h0Z"></path><path class="cls-2" d="M27.83,21.17c.74.84,1.49,1.67,2.24,2.49.62.68,1.24,1.54,2.13,1.86.21.08.43-.16.36-.36-.28-.9-1.13-1.56-1.78-2.21-.79-.79-1.59-1.57-2.39-2.34-.37-.36-.9.18-.56.56h0Z"></path><path class="cls-2" d="M17.81,17.73c.59.45,1.25.79,1.89,1.16.52.29,1.04.68,1.65.67.15,0,.25-.17.17-.3-.33-.56-1-.82-1.54-1.13-.63-.36-1.25-.73-1.93-.99-.37-.15-.51.39-.25.59h0Z"></path><path class="cls-2" d="M19.75,16.6c.53.53,1.13.99,1.7,1.47.5.42.98.93,1.59,1.17.3.12.57-.28.41-.54-.36-.58-1.02-.99-1.54-1.43s-1.08-.92-1.66-1.32c-.38-.27-.82.32-.49.64h0Z"></path><path class="cls-2" d="M21.25,15.33c.98,1.02,2.09,1.93,3.16,2.86.97.85,1.91,1.78,3.06,2.39.22.12.55-.14.38-.38-.82-1.1-1.92-1.94-2.96-2.82s-2.07-1.82-3.19-2.62c-.34-.24-.71.28-.44.57h0Z"></path><path class="cls-2" d="M23.73,15.69c.88.94,1.94,1.73,2.93,2.55.81.67,1.63,1.52,2.62,1.9.22.09.43-.21.31-.4-.61-.97-1.73-1.68-2.61-2.4s-1.82-1.56-2.83-2.2c-.34-.22-.69.26-.42.54h0Z"></path><path class="cls-2" d="M27.28,16.04c.77.77,1.55,1.54,2.32,2.31.7.69,1.36,1.52,2.25,1.96.18.09.36-.09.27-.27-.45-.89-1.27-1.55-1.97-2.25-.77-.77-1.54-1.54-2.32-2.31-.36-.36-.92.2-.56.56h0Z"></path><path class="cls-2" d="M30.08,16.33c.51.56,1.01,1.11,1.52,1.67.37.4.74,1.03,1.33,1.06.09,0,.16-.08.16-.16.02-.59-.59-1.04-.96-1.44-.51-.56-1.01-1.11-1.52-1.67-.33-.37-.88.18-.54.54h0Z"></path><path class="cls-2" d="M30.69,15.2c.66.64,1.3,1.29,1.98,1.91.56.51,1.1,1.12,1.83,1.39.18.07.3-.16.23-.3-.34-.71-1.04-1.22-1.61-1.74-.65-.58-1.32-1.14-1.98-1.71-.3-.26-.74.16-.44.44h0Z"></path><path class="cls-2" d="M47.13,41.09c.4.41.81.82,1.21,1.24.38.39.75.82,1.19,1.15.33.24.8-.24.56-.56-.32-.44-.75-.82-1.14-1.2-.41-.41-.81-.82-1.22-1.23s-1,.21-.61.61h0Z"></path><path class="cls-2" d="M46.9,37.98c.86.85,1.71,1.69,2.59,2.52.73.69,1.46,1.54,2.4,1.92.29.12.48-.25.37-.48-.44-.92-1.42-1.62-2.16-2.3-.85-.78-1.71-1.53-2.57-2.29-.43-.37-1.04.22-.63.63h0Z"></path><path class="cls-2" d="M47.2,33.92c.9,1.27,2.03,2.36,3.1,3.49s2.06,2.42,3.3,3.34c.34.25.75-.09.77-.44.02-.38-.19-.64-.57-.63-.1,0-.16.09-.14.18l.06-.05.58.24c-.87-1.28-2.13-2.33-3.22-3.42s-2.14-2.27-3.37-3.22c-.3-.23-.72.22-.51.51h0Z"></path><path class="cls-2" d="M47.2,30.59c1.12,1.55,2.46,2.95,3.73,4.37s2.41,3.19,3.99,4.12c.31.19.61-.17.47-.47-.75-1.57-2.36-2.85-3.54-4.11-1.36-1.45-2.68-2.98-4.18-4.28-.24-.21-.68.07-.47.36h0Z"></path><path class="cls-2" d="M49.14,29.95c.62,1.2,1.88,2.17,2.81,3.14.79.81,1.77,2.31,2.94,2.47.2.03.34-.11.31-.31-.19-1.17-1.7-2.13-2.52-2.89-.98-.92-1.98-2.16-3.19-2.76-.23-.11-.47.12-.35.35h0Z"></path><path class="cls-2" d="M50.74,28.71c.69.84,1.46,1.58,2.24,2.33.49.47,1.17,1.48,1.92,1.28.07-.02.15-.09.17-.17.14-.8-.97-1.44-1.49-1.92-.79-.72-1.58-1.42-2.45-2.03-.32-.23-.61.25-.39.51h0Z"></path><path class="cls-2" d="M52.29,27.16c.52.53,1.06,1.03,1.6,1.54.48.45,1,1.02,1.61,1.29.25.11.54-.12.39-.39-.32-.59-.92-1.04-1.41-1.49-.55-.5-1.1-1-1.68-1.47-.36-.29-.85.17-.52.52h0Z"></path><path class="cls-2" d="M54.87,21.48l.95.96c.3.3.59.66.95.9.33.22.77-.22.55-.55-.24-.36-.59-.65-.9-.95l-.96-.95c-.39-.38-.98.21-.6.6h0Z"></path><path class="cls-2" d="M54.8,19.49c.56.54,1.11,1.09,1.68,1.62.45.43.95,1.13,1.6,1.23.21.03.38-.12.33-.33-.14-.65-.85-1.09-1.31-1.52-.57-.53-1.15-1.05-1.73-1.57-.38-.34-.94.2-.57.57h0Z"></path><path class="cls-2" d="M54.34,17.37c.99.85,1.98,1.7,2.99,2.53.69.56,1.49,1.53,2.43,1.54.13,0,.21-.12.18-.24-.23-.99-1.52-1.62-2.28-2.21-.95-.74-1.92-1.46-2.89-2.17-.32-.24-.74.3-.43.56h0Z"></path><path class="cls-2" d="M56.07,16.15c.9.82,1.81,1.63,2.71,2.45.64.58,1.36,1.54,2.28,1.54.1,0,.23-.1.21-.21-.12-.93-1.09-1.49-1.75-2.07-.92-.8-1.83-1.61-2.75-2.41-.48-.42-1.18.27-.7.7h0Z"></path><path class="cls-2" d="M57.38,15.35c.67.58,1.34,1.16,2.01,1.74.56.48,1.12,1.14,1.83,1.37.3.09.51-.25.39-.5-.33-.67-1.11-1.14-1.67-1.62-.64-.54-1.28-1.09-1.92-1.63-.45-.38-1.1.26-.65.65h0Z"></path><path class="cls-2" d="M58.81,13.41c.82.83,1.6,1.8,2.65,2.34.2.11.48-.12.33-.33-.66-.99-1.69-1.66-2.6-2.39-.26-.21-.63.13-.38.38h0Z"></path><path class="cls-2" d="M63.97,30.58c-.16-.25-.32-.49-.46-.74l-.68.52c.42.52,1.01.94,1.54,1.34.45.34.98.92,1.57.91.18,0,.28-.16.25-.33-.11-.58-.8-1-1.22-1.36-.5-.43-1.04-.93-1.62-1.23-.44-.23-.84.31-.52.68.19.22.37.45.55.68.27.34.83-.1.6-.46h0Z"></path><path class="cls-2" d="M62.48,27.54c.76.77,1.51,1.55,2.27,2.32.64.64,1.24,1.45,2.12,1.75.2.07.43-.15.36-.36-.31-.88-1.12-1.47-1.77-2.1-.78-.75-1.56-1.49-2.35-2.24-.41-.4-1.03.22-.63.63h0Z"></path><path class="cls-2" d="M62.45,25c1.12,1.11,2.24,2.23,3.36,3.34,1.02,1.01,1.98,2.17,3.23,2.91.31.18.7-.19.51-.51-.76-1.24-1.93-2.16-2.97-3.16-1.14-1.1-2.28-2.19-3.42-3.29-.46-.45-1.17.25-.71.71h0Z"></path><path class="cls-2" d="M62.64,22.1c1.03,1.54,2.45,2.84,3.7,4.19,1.09,1.17,2.17,2.85,3.67,3.48.21.09.44-.17.37-.37-.53-1.53-2.17-2.74-3.27-3.89-1.28-1.34-2.49-2.81-3.96-3.94-.3-.23-.72.22-.52.52h0Z"></path><path class="cls-2" d="M64.26,20.09c-.11-.27-.21-.53-.32-.8l-.74.43c1.05,1.28,2.24,2.45,3.37,3.65.98,1.04,1.97,2.49,3.3,3.09.19.09.51-.06.41-.31-.53-1.33-1.81-2.31-2.78-3.32-1.21-1.25-2.38-2.56-3.67-3.72-.36-.33-.95.09-.69.53.15.25.29.5.44.75.21.36.85.12.69-.29h0Z"></path><path class="cls-2" d="M64.65,18.41c.8.87,1.59,1.75,2.39,2.62.64.69,1.29,1.67,2.19,2.02.19.07.39-.15.33-.33-.29-.92-1.24-1.63-1.9-2.31-.82-.86-1.65-1.7-2.47-2.55-.35-.36-.89.18-.55.55h0Z"></path><path class="cls-2" d="M66.43,17.41c.9,1.15,1.79,2.7,3.04,3.5.18.11.43-.08.36-.28-.23-.69-.71-1.28-1.15-1.85-.53-.68-1.07-1.35-1.6-2.03-.37-.47-1.02.19-.66.66h0Z"></path><path class="cls-2" d="M57.47,47.96c.41.24.83.44,1.26.63.38.18.69.29,1.09.11.1-.04.14-.19.11-.28-.14-.43-.47-.57-.86-.74-.42-.18-.84-.36-1.28-.5-.46-.15-.73.53-.33.77h0Z"></path><path class="cls-2" d="M56.41,44.45c.84.73,1.68,1.45,2.54,2.16.58.48,1.35,1.46,2.16,1.38.12-.01.26-.1.24-.24-.1-.88-1.21-1.4-1.85-1.92-.86-.69-1.73-1.35-2.6-2.02-.37-.28-.84.34-.49.64h0Z"></path><path class="cls-2" d="M56.9,42.62c1.14.8,2.29,1.6,3.43,2.41.89.62,1.84,1.61,2.95,1.67.23.01.32-.24.24-.42-.45-1-1.78-1.56-2.66-2.16-1.16-.78-2.31-1.56-3.47-2.34-.52-.35-.99.48-.49.83h0Z"></path><path class="cls-2" d="M56.09,39.1c1.26,1,2.52,2,3.8,2.97,1.19.91,2.47,2.3,3.93,2.69.27.07.51-.23.37-.48-.7-1.19-2.19-1.97-3.28-2.79-1.41-1.06-2.83-2.09-4.25-3.13-.42-.31-.98.4-.56.73h0Z"></path><path class="cls-2" d="M58.1,37.86c.75.67,1.5,1.33,2.25,2,.58.52,1.16,1.29,1.97,1.36.24.02.39-.24.34-.45-.19-.77-1.11-1.26-1.69-1.75-.73-.61-1.47-1.23-2.2-1.84-.47-.39-1.14.26-.68.68h0Z"></path><path class="cls-2" d="M59.98,36.75c.78.68,1.56,1.37,2.37,2.03.58.47,1.27,1.22,2.06,1.23.14,0,.23-.14.2-.27-.18-.82-1.17-1.38-1.79-1.88-.76-.61-1.55-1.2-2.33-1.79-.38-.29-.88.35-.52.67h0Z"></path><path class="cls-2" d="M19.2,54.84c.51.58,1.13,1.02,1.73,1.49.48.37.96.88,1.61.84.17,0,.28-.15.24-.32-.14-.63-.75-.96-1.24-1.32-.61-.46-1.21-.94-1.9-1.27-.38-.18-.73.26-.45.58h0Z"></path><path class="cls-2" d="M17.91,50.05c2.2,3.39,5.15,6.71,8.85,8.48.36.17.83-.31.47-.6-3.19-2.55-6.21-4.94-8.62-8.29-.3-.41-.98-.04-.7.41h0Z"></path><path class="cls-2" d="M17.6,47.4c3.69,3.85,7.41,8.25,11.66,11.48.46.35.88-.36.57-.74-3.3-4.13-7.79-7.71-11.69-11.27-.36-.33-.88.18-.54.54h0Z"></path><path class="cls-2" d="M21.03,47.06c3.57,3.82,6.99,8.38,11.1,11.61.35.28,1-.08.68-.53-3.03-4.32-7.4-8.01-11.05-11.81-.46-.48-1.18.24-.73.73h0Z"></path><path class="cls-2" d="M23.78,46.63c2.71,3.27,5.28,6.78,8.23,9.83.42.43,1.23-.15.85-.66-2.54-3.46-5.58-6.62-8.38-9.88-.42-.49-1.11.22-.7.7h0Z"></path><path class="cls-2" d="M27.69,47.36c.84,1.07,1.68,2.14,2.55,3.19.75.92,1.46,2.1,2.51,2.68.2.11.48-.07.4-.31-.37-1.12-1.33-2-2.07-2.9-.91-1.1-1.85-2.19-2.78-3.27-.36-.42-.94.18-.6.6h0Z"></path><path class="cls-2" d="M29.89,46.86c.55.75,1.09,1.5,1.65,2.24.48.62.93,1.29,1.59,1.73.2.13.5-.09.42-.32-.26-.75-.79-1.35-1.27-1.97-.57-.73-1.16-1.44-1.75-2.16-.29-.36-.92.12-.64.49h0Z"></path><path class="cls-2" d="M43.07,12.51c.67.48,1.35.94,2.04,1.4.62.41,1.24.88,1.94,1.13.28.1.44-.27.27-.46-.5-.55-1.19-.95-1.81-1.36-.69-.46-1.37-.91-2.07-1.34-.41-.26-.76.37-.37.64h0Z"></path><path class="cls-2" d="M44.3,11.14c.91.87,1.96,1.62,2.97,2.38s1.97,1.58,3.14,1.99c.17.06.34-.16.24-.31-.66-.93-1.61-1.59-2.51-2.27-1.09-.83-2.19-1.71-3.37-2.4-.37-.22-.79.3-.47.6h0Z"></path><path class="cls-2" d="M46.08,9.1c2.09,1.99,4.11,4.38,6.53,5.96.24.15.58-.16.4-.4-1.72-2.32-4.22-4.2-6.33-6.16-.4-.37-1,.22-.6.6h0Z"></path><path class="cls-2" d="M47.83,8.37c1.12,1.2,2.32,2.33,3.53,3.44,1.08.98,2.14,2.21,3.45,2.86.28.14.64-.15.45-.45-.83-1.31-2.24-2.3-3.39-3.31s-2.39-2.08-3.66-3.04c-.3-.23-.63.25-.39.51h0Z"></path><path class="cls-2" d="M51.21,9.4c.85.92,1.78,1.77,2.68,2.63.8.77,1.62,1.75,2.6,2.29.31.17.71-.18.51-.51-.61-.94-1.62-1.69-2.45-2.44-.93-.84-1.84-1.71-2.81-2.5-.36-.29-.85.17-.52.52h0Z"></path><path class="cls-2" d="M55.8,10.74l1.05,1.02c.1.1.26-.05.16-.16l-1.02-1.05c-.12-.13-.32.07-.19.19h0Z"></path><path class="cls-2" d="M57.18,10.39c.36.37.71.74,1.08,1.1.32.32.69.75,1.11.95.27.13.53-.13.4-.4-.2-.41-.63-.78-.95-1.11-.36-.37-.73-.72-1.1-1.08-.35-.34-.87.18-.53.53h0Z"></path><path class="cls-2" d="M35.8,4.42c.61.49,1.22.98,1.85,1.44.67.49,1.36,1.08,2.11,1.42.3.14.59-.2.36-.46-.51-.57-1.21-1.01-1.82-1.46-.68-.51-1.38-.98-2.09-1.45-.31-.2-.69.28-.4.52h0Z"></path><path class="cls-2" d="M37.54,2.44c.94,1.1,2.16,1.97,3.28,2.87,1.04.85,2.08,1.65,3.24,2.33.29.17.57-.22.35-.46-.99-1.08-2.11-1.98-3.25-2.9-1.03-.82-2.06-1.73-3.23-2.36-.33-.18-.63.23-.39.51h0Z"></path><path class="cls-2" d="M39.24.71c1.3,1.47,2.77,2.78,4.19,4.12,1.29,1.21,2.55,2.56,4.03,3.53.38.25.68-.27.44-.57-1.18-1.53-2.78-2.8-4.2-4.11-1.32-1.21-2.61-2.44-4.04-3.53-.34-.26-.68.27-.43.56h0Z"></path><path class="cls-2" d="M43.24,1.5c.66.88,1.42,1.67,2.17,2.48s1.44,1.73,2.35,2.3c.31.19.64-.18.48-.48-.48-.89-1.35-1.62-2.04-2.35-.78-.81-1.54-1.64-2.4-2.37-.28-.24-.81.09-.55.43h0Z"></path><path class="cls-2" d="M49.19,2.12c.45.55.91,1.1,1.36,1.64.41.49.78,1.1,1.34,1.43.19.11.48-.08.39-.3-.22-.6-.73-1.07-1.14-1.55-.48-.58-.96-1.15-1.45-1.73-.3-.36-.8.16-.51.51h0Z"></path><path class="cls-2" d="M13.94,11.17c.74.55,1.51,1.05,2.29,1.55.61.39,1.25.99,2,1,.19,0,.28-.2.2-.35-.33-.66-1.17-.99-1.78-1.36-.79-.48-1.57-.95-2.39-1.37-.36-.19-.63.3-.31.53h0Z"></path><path class="cls-2" d="M15.9,10.13c1.28,1.28,2.51,2.55,3.96,3.62.26.19.48-.2.31-.4-1.1-1.39-2.42-2.56-3.72-3.76-.37-.34-.91.19-.55.55h0Z"></path><path class="cls-2" d="M17.68,8.86c.82.82,1.63,1.64,2.45,2.45.72.73,1.43,1.65,2.33,2.16.25.14.53-.14.39-.39-.52-.89-1.44-1.6-2.16-2.33-.82-.82-1.63-1.63-2.45-2.45-.35-.35-.9.2-.55.55h0Z"></path><path class="cls-2" d="M19.47,7.33c.75.79,1.51,1.58,2.26,2.37.71.74,1.34,1.49,2.26,1.96.19.1.38-.1.29-.29-.45-.94-1.18-1.58-1.91-2.31-.77-.77-1.55-1.54-2.32-2.31-.37-.37-.94.2-.58.58h0Z"></path><path class="cls-2" d="M21.63,6.21c.81.91,1.81,1.67,2.76,2.43.79.63,1.56,1.43,2.55,1.72.2.06.37-.17.27-.35-.54-.96-1.6-1.61-2.46-2.28s-1.78-1.44-2.77-1.98c-.29-.16-.57.21-.35.46h0Z"></path><path class="cls-2" d="M25.72,7.26c.93.78,1.89,1.84,3.04,2.27.18.07.34-.17.24-.32-.62-1.03-1.81-1.76-2.73-2.51-.39-.32-.95.23-.56.56h0Z"></path><path class="cls-2" d="M33.95,42.67c.46.55.92,1.1,1.38,1.66.32.38.72,1.06,1.29,1,.07,0,.13-.04.15-.11.17-.55-.41-1.06-.73-1.44-.48-.58-.97-1.16-1.45-1.74-.37-.44-1.01.19-.64.64h0Z"></path><path class="cls-2" d="M33.01,38.69c1.21,1.34,2.42,2.66,3.65,3.98,1.11,1.19,2.12,2.58,3.59,3.33.24.12.45-.12.35-.35-.66-1.52-1.98-2.62-3.11-3.81-1.24-1.31-2.48-2.6-3.73-3.89-.47-.49-1.19.24-.74.74h0Z"></path><path class="cls-2" d="M32.32,33.7c1.81,2.09,3.74,4.06,5.69,6.03,1.74,1.76,3.41,3.77,5.43,5.21.35.25.84-.25.6-.6-1.44-2.02-3.44-3.69-5.19-5.44-1.95-1.95-3.93-3.89-6.01-5.71-.35-.31-.82.16-.51.51h0Z"></path><path class="cls-2" d="M34.15,32.03c1.6,2.15,3.45,4.1,5.27,6.06s3.46,4.33,5.65,5.71c.33.2.68-.19.51-.51-1.16-2.16-3.35-3.93-5.04-5.7-1.92-2.02-3.81-4.1-5.94-5.91-.23-.19-.66.07-.45.35h0Z"></path><path class="cls-2" d="M36.81,31.28c1.43,1.79,2.93,3.52,4.47,5.23,1.3,1.45,2.61,3.48,4.37,4.35.2.1.52-.07.42-.32-.69-1.8-2.43-3.18-3.71-4.58-1.63-1.78-3.29-3.53-5.02-5.22-.35-.34-.83.16-.53.53h0Z"></path><path class="cls-2" d="M40.94,31.91c-.15-.32-.29-.65-.44-.97l-.57.44c.93,1.14,1.89,2.24,2.87,3.33.87.96,1.71,2.2,2.84,2.86.36.21.71-.2.55-.55-.57-1.17-1.76-2.11-2.64-3.05-1.01-1.06-2.03-2.1-3.09-3.11-.3-.28-.78.08-.57.44.18.31.36.61.53.92.2.35.7.04.53-.31h0Z"></path><path class="cls-2" d="M43.21,32.11c.48.47.96.95,1.44,1.42.42.4.82.87,1.38,1.06.15.05.32-.11.27-.27-.19-.56-.66-.96-1.06-1.38-.47-.49-.95-.96-1.42-1.44-.39-.39-.99.22-.6.6h0Z"></path><path class="cls-1" d="M.44,21.03c5.59-2.36,10.73-6.64,15.79-9.98,4.67-3.08,9.66-5.92,13.97-9.48.52-.43-.14-1.18-.69-.89-5.47,2.86-10.52,6.79-15.64,10.23C9.3,13.96,4.02,16.72.09,20.58c-.25.25.07.57.35.45H.44Z"></path><path class="cls-1" d="M.9,20.89c15.73-.41,31.03-.86,46.71,1.09,1,.12,1-1.45,0-1.58-15.32-1.86-31.51-2.8-46.84-.47-.54.08-.41.96.13.95h0Z"></path><path class="cls-1" d="M48.6,21.04c4.15-2.29,7.95-5.33,11.58-8.36s7.61-6.09,10.22-9.93c.31-.46-.32-1.12-.78-.78-3.59,2.66-6.56,6.22-9.96,9.14-3.76,3.23-7.82,6.03-11.66,9.15-.45.37.12,1.04.6.78h0Z"></path><path class="cls-1" d="M30.5,1.09c5.99,1.06,12.31.82,18.37,1.01,6.73.21,13.46.46,20.19.62,1.1.03,1.1-1.67,0-1.71-6.41-.23-12.82-.37-19.23-.55s-12.94-.85-19.23-.12c-.39.05-.57.67-.1.76h0Z"></path><path class="cls-1" d="M46.52,21.48c-1.02,11.24-1.21,23.38,1.06,34.48.14.68,1.25.53,1.22-.16-.64-11.53-1.57-22.73-1.07-34.32.03-.78-1.13-.76-1.2,0h0Z"></path><path class="cls-1" d="M3.53,57.62c.09-12.37-.94-24.8-1.55-37.16-.05-1.08-1.73-1.08-1.68,0,.64,12.36.88,24.85,2.21,37.16.07.63,1.01.67,1.01,0h0Z"></path><path class="cls-1" d="M3.52,58.12c15.28,1.57,30.93.95,46.15-.99,1.04-.13,1.07-1.77,0-1.66-15.41,1.65-30.67,1.85-46.15,1.5-.76-.02-.72,1.08,0,1.15h0Z"></path><path class="cls-1" d="M50.77,57.15c3.96-2.7,7.68-5.77,11.31-8.89s7.58-6.16,10.35-9.96c.36-.49-.35-1.18-.83-.83-3.66,2.59-6.74,6.12-10.1,9.09-3.73,3.32-7.64,6.42-11.42,9.69-.49.42.16,1.26.69.9h0Z"></path><path class="cls-1" d="M72.31,38.22c-.21-6.32-.74-12.62-1.25-18.91-.46-5.65-.5-11.53-1.67-17.08-.14-.68-1.15-.49-1.18.16-.25,6.23.83,12.7,1.37,18.91.5,5.69,1.01,11.39,1.77,17.05.07.55.98.41.96-.13h0Z"></path><path class="cls-1" d="M15.05,19.2c8.62-5.14,17.1-11.09,25.1-17.15.58-.44.06-1.43-.59-1.01-8.48,5.45-17,11.38-24.83,17.74-.24.19.07.57.32.42h0Z"></path><path class="cls-1" d="M32.45,19.77c8.54-5.08,16.42-11.79,24.35-17.79.68-.52.02-1.69-.68-1.17-8.02,5.97-16.69,11.68-24,18.51-.23.22.07.6.34.44h0Z"></path><path class="cls-1" d="M15.06,21.23c.66,12.24.65,24.91,2.45,37.04.09.63,1.08.46,1.09-.15.18-12.2-1.52-24.73-2.48-36.89-.05-.67-1.09-.68-1.05,0h0Z"></path><path class="cls-1" d="M55.38,16.59s0-.01,0-.01,0,.01,0,.01h0Z"></path><path class="cls-1" d="M55.64,16.92c.77,0,.77-1.19,0-1.19s-.77,1.19,0,1.19h0Z"></path><path class="cls-1" d="M53.91,16.63c-.09,11.77,1.15,23.75,1.98,35.49.06.9,1.49.88,1.39,0l-.14-1.22c-.06-.49-.75-.66-.9-.12l-.32,1.15,1.36.18c-.67-11.81-.96-23.88-2.55-35.6-.06-.48-.82-.35-.82.11h0Z"></path><path class="cls-1" d="M61.45,10.89c-.46,5.67.46,11.62.85,17.29s.82,11.53,1.28,17.29c.07.86,1.42.88,1.36,0-.43-6.09-.89-12.17-1.39-18.25-.44-5.41-.42-11.1-1.66-16.39-.06-.26-.42-.18-.44.06h0Z"></path><path class="cls-1" d="M10.48,14c14.53,1.42,29.54,1.36,44.14,1.41.87,0,.86-1.3,0-1.34-14.58-.65-29.56-1.45-44.14-.74-.43.02-.42.62,0,.67h0Z"></path><path class="cls-1" d="M22.61,8.33s0-.01,0-.01,0,.01,0,.01h0Z"></path><path class="cls-1" d="M20.82,7.18c13.89,1.65,28.1,1.9,42.08,2.47.77.03.77-1.15,0-1.2-13.95-.82-28.1-1.99-42.08-1.73-.3,0-.29.43,0,.46h0Z"></path><path class="cls-1" d="M2.23,33.25c14.18.44,28.69-1.27,42.85-2.07.89-.05.89-1.44,0-1.39-14.2.81-28.85.76-42.94,2.8-.38.06-.27.64.09.65h0Z"></path><path class="cls-1" d="M3.28,47.29c7.47.51,15.18-.32,22.66-.69,6.91-.34,13.99-.29,20.85-1.23.69-.09.49-1.16-.16-1.18-7.5-.25-15.17.62-22.66,1.04-6.88.39-13.96.38-20.75,1.56-.3.05-.2.48.07.5h0Z"></path><path class="cls-1" d="M46.52,45.77c8.21-4.79,16.4-9.97,24.19-15.42.65-.45.07-1.5-.63-1.08-8.14,4.93-16.19,10.34-23.89,15.93-.33.24-.04.78.33.57h0Z"></path><path class="cls-1" d="M48.42,3.42s0-.01,0-.01,0,.01,0,.01h0Z"></path><polygon class="cls-3" points="30.44 1.16 23.02 6.95 31.37 6.95 38.63 1.87 30.44 1.16"></polygon><polygon class="cls-3" points="49.11 8 63.13 8.8 69.06 2.38 56.42 1.86 49.11 8"></polygon><path class="cls-1" d="M33.38,31.25c3.99-.13,8.72.47,12.6-.4,2.76-.62,5.72-3.52,8.09-5.13,5.23-3.54,10.45-7.08,15.68-10.63.64-.43.04-1.47-.61-1.04-4.4,2.98-8.8,5.97-13.2,8.95-3.12,2.12-7.04,5.96-10.67,6.66s-8.07.26-11.89.38c-.77.02-.77,1.22,0,1.2h0Z"></path><path class="cls-1" d="M46.38,21.06c-4.54-.4-9.08-.8-13.63-1.21-.32-.03-.61.3-.6.6.23,12.56.45,25.12.68,37.67.01.77,1.21.77,1.2,0-.12-6.61-.24-13.22-.36-19.83-.05-2.97-.11-5.95-.16-8.92-.01-.65-.55-8.3-.54-8.3.83-.67,6.02.53,7.08.63l6.33.56c.77.07.76-1.13,0-1.2h0Z"></path></g></g></svg>