<svg xmlns="http://www.w3.org/2000/svg" xmlns:xlink="http://www.w3.org/1999/xlink" id="Capa_1" data-name="Capa 1" viewBox="0 0 247 246"><defs><style>      .cls-1 {        fill: #6976df;      }      .cls-1, .cls-2, .cls-3, .cls-4, .cls-5, .cls-6 {        stroke-width: 0px;      }      .cls-2 {        fill: url(#Degradado_sin_nombre_4);      }      .cls-3 {        fill: url(#Degradado_sin_nombre_3);      }      .cls-4 {        fill: url(#Degradado_sin_nombre_2);      }      .cls-5 {        fill: url(#Degradado_sin_nombre);      }      .cls-7 {        fill: none;        stroke: #fff;        stroke-dasharray: 0 0 6 6;      }      .cls-6 {        fill: #fff;      }    </style><linearGradient id="Degradado_sin_nombre" data-name="Degradado sin nombre" x1="183.95" y1="248" x2="183.95" y2="2.73" gradientTransform="translate(0 248) scale(1 -1)" gradientUnits="userSpaceOnUse"><stop offset=".64" stop-color="#6976df"></stop><stop offset="1" stop-color="#5a65dc"></stop></linearGradient><linearGradient id="Degradado_sin_nombre_2" data-name="Degradado sin nombre 2" x1="1" y1="186.68" x2="246.27" y2="186.68" gradientTransform="translate(0 248) scale(1 -1)" gradientUnits="userSpaceOnUse"><stop offset=".64" stop-color="#6976df"></stop><stop offset="1" stop-color="#5a65dc"></stop></linearGradient><linearGradient id="Degradado_sin_nombre_3" data-name="Degradado sin nombre 3" x1="246.27" y1="64.05" x2="1" y2="64.05" gradientTransform="translate(0 248) scale(1 -1)" gradientUnits="userSpaceOnUse"><stop offset=".64" stop-color="#6976df"></stop><stop offset="1" stop-color="#5a65dc"></stop></linearGradient><linearGradient id="Degradado_sin_nombre_4" data-name="Degradado sin nombre 4" x1="62.32" y1="2.73" x2="62.32" y2="248" gradientTransform="translate(0 248) scale(1 -1)" gradientUnits="userSpaceOnUse"><stop offset=".58" stop-color="#5a65dc"></stop><stop offset=".77" stop-color="#6976df"></stop><stop offset=".83" stop-color="#6976df"></stop></linearGradient></defs><circle class="cls-1" cx="123.63" cy="122.63" r="122.63"></circle><path class="cls-5" d="M245.27,122.63c0,16.1-3.17,32.05-9.34,46.93-6.16,14.88-15.2,28.4-26.58,39.79-11.39,11.39-24.91,20.42-39.79,26.58-14.88,6.16-30.82,9.34-46.93,9.34v-122.63h122.63Z"></path><path class="cls-4" d="M123.63,0c16.1,0,32.05,3.17,46.93,9.33,14.88,6.16,28.4,15.2,39.79,26.58,11.39,11.39,20.42,24.91,26.58,39.78s9.34,30.83,9.34,46.93h-122.63V0Z"></path><path class="cls-3" d="M123.63,245.27c-16.11,0-32.05-3.17-46.93-9.34s-28.4-15.2-39.78-26.58c-11.39-11.39-20.42-24.91-26.58-39.79-6.16-14.88-9.33-30.82-9.33-46.93h122.63v122.63Z"></path><path class="cls-2" d="M1,122.63c0-16.1,3.17-32.05,9.33-46.93,6.16-14.88,15.2-28.4,26.58-39.78,11.39-11.39,24.91-20.42,39.78-26.58C91.58,3.17,107.53,0,123.63,0v122.63H1Z"></path><g><path class="cls-6" d="M25.43,123.09l5.25.11.19-9.2,3.69.08-.19,9.19,7.24.15-.09,4.6-19.86-.4.3-15.01,3.69.07-.21,10.42Z"></path><path class="cls-6" d="M42.19,95.06l3.59.86-3.57,14.97-19.32-4.62,3.48-14.61,3.59.86-2.43,10.16,4.2,1,2.14-8.97,3.48.83-2.14,8.97,4.47,1.07,2.51-10.52Z"></path><path class="cls-6" d="M28.93,84.28l4.18-8c3.01-5.76,8.54-7.9,13.88-5.12,5.33,2.78,6.74,8.55,3.74,14.31l-4.18,8-17.61-9.19ZM47.27,83.92c1.83-3.5.93-6.88-2.44-8.64-3.37-1.76-6.66-.56-8.48,2.94l-1.94,3.72,10.92,5.7,1.94-3.72Z"></path><path class="cls-6" d="M64.92,60.08l2.76,2.45-10.2,11.52-14.88-13.17,9.95-11.24,2.76,2.45-6.92,7.82,3.23,2.86,6.11-6.91,2.68,2.37-6.11,6.91,3.44,3.05,7.17-8.1Z"></path><path class="cls-6" d="M79.98,53.45l-6.33-2.3-.19.13-3.27,2.31,3.2,4.52-3.75,2.66-11.48-16.21,7.02-4.98c4.33-3.07,8.63-2.74,11.21.89,1.72,2.43,1.76,5.08.29,7.48l7.33,2.63-4.03,2.86ZM67.14,42.79l-3.06,2.17,4,5.65,3.06-2.17c2.29-1.63,2.7-3.51,1.45-5.27-1.26-1.78-3.16-2.01-5.45-.38Z"></path><path class="cls-6" d="M77.96,31.94l4.16-1.96,8.49,17.96-4.16,1.96-8.49-17.96Z"></path><path class="cls-6" d="M90.26,36.88c-1.58-5.77,1.72-11.12,7.69-12.76,3.31-.91,6.41-.46,8.82,1.23l-2.13,3.41c-1.69-1.12-3.52-1.45-5.43-.92-3.59.98-5.44,4.2-4.45,7.81s4.23,5.43,7.81,4.45c1.92-.53,3.32-1.73,4.2-3.59l3.57,1.85c-1.2,2.71-3.64,4.67-6.98,5.59-5.94,1.63-11.51-1.29-13.09-7.06Z"></path><path class="cls-6" d="M111.31,31.32c-.09-5.9,4.44-10.35,10.72-10.44,6.25-.1,10.94,4.17,11.03,10.1s-4.47,10.35-10.72,10.44c-6.27.1-10.94-4.2-11.03-10.1ZM128.4,31.05c-.06-3.77-2.76-6.31-6.31-6.26s-6.18,2.68-6.12,6.45c.06,3.77,2.77,6.31,6.31,6.26s6.18-2.68,6.12-6.45Z"></path><path class="cls-6" d="M142.13,40.76l2.57-2.79c1.21,1.68,3.31,3.28,5.57,4.03,2.59.86,3.92.34,4.31-.81,1.17-3.53-10.6-4.74-8.28-11.74,1.06-3.21,4.53-5.02,9.89-3.24,2.37.79,4.61,2.16,6,3.84l-2.44,2.87c-1.42-1.58-3.07-2.66-4.74-3.21-2.59-.86-3.91-.22-4.3.97-1.15,3.48,10.61,4.71,8.32,11.63-1.04,3.15-4.55,4.98-9.94,3.19-2.99-.99-5.71-2.88-6.96-4.73Z"></path><path class="cls-6" d="M172.5,51.91l-7.86-4.83-3.73,2.7-4.01-2.47,17.95-12.28,3.87,2.38-2.84,21.58-4.11-2.53.73-4.55ZM173.09,48.18l1.3-8.13-6.67,4.83,5.37,3.3Z"></path><path class="cls-6" d="M203.43,59.23l-14.35,13.74-2.61-2.73,1.86-15.5-8.71,8.34-3.14-3.28,14.35-13.74,2.63,2.75-1.88,15.48,8.71-8.34,3.14,3.28Z"></path><path class="cls-6" d="M199.17,69.98c5.23-2.92,11.21-1,14.24,4.4,1.68,3,1.99,6.11.92,8.85l-3.82-1.25c.69-1.91.56-3.76-.41-5.5-1.82-3.25-5.38-4.28-8.65-2.45-3.27,1.83-4.26,5.41-2.44,8.65.97,1.73,2.48,2.81,4.5,3.21l-.94,3.91c-2.92-.51-5.41-2.41-7.1-5.43-3.01-5.38-1.51-11.48,3.71-14.41Z"></path><path class="cls-6" d="M224.29,105.8l-19.22,5.06-1.17-4.45,7.88-2.07-2.3-8.73-7.88,2.07-1.17-4.45,19.22-5.06,1.17,4.45-7.58,1.99,2.3,8.73,7.58-1.99,1.17,4.45Z"></path><path class="cls-6" d="M209.27,129.79l-3.69.06-.25-15.39,19.86-.33.25,15.02-3.69.06-.17-10.45-4.31.07.15,9.23-3.58.06-.15-9.23-4.6.08.18,10.82Z"></path><path class="cls-6" d="M205.66,149.03l-3.67-.75,3.49-17.02,2.92.6,10.68,13.33,2.14-10.46,3.67.75-3.36,16.38-2.92-.6-10.69-13.3-2.27,11.07Z"></path></g><g><path class="cls-6" d="M186.87,202.83l-3.77,2.64-9.25-13.21-8.17,5.71-2.15-3.07,11.94-8.35,11.4,16.28Z"></path><path class="cls-6" d="M149.3,205l-1.44-3.4,14.17-6.01,7.76,18.29-13.83,5.86-1.44-3.4,9.62-4.08-1.68-3.97-8.5,3.6-1.4-3.29,8.5-3.6-1.79-4.23-9.96,4.22Z"></path><path class="cls-6" d="M144.22,218.81l6.25-1.19.7,3.68-17.01,3.25-.7-3.68,6.25-1.19-3.03-15.83,4.52-.86,3.03,15.83Z"></path><path class="cls-6" d="M124.7,223.48c-.03-.74.06-1.28.61-2.87l1.46-4.16,2.81-.12-1.02,4.53c.92.36,1.56,1.18,1.61,2.37.07,1.65-1.07,2.78-2.63,2.84-1.59.07-2.77-.99-2.84-2.6Z"></path><path class="cls-6" d="M122.25,207.24l-1.94,3.27c-1.53-1.4-3.92-2.52-6.29-2.79-2.71-.3-3.91.48-4.05,1.69-.41,3.69,11.36,2.44,10.54,9.77-.37,3.36-3.4,5.85-9.01,5.22-2.48-.28-4.96-1.15-6.66-2.51l1.8-3.31c1.72,1.25,3.55,1.97,5.3,2.16,2.71.3,3.87-.6,4.01-1.84.41-3.64-11.36-2.41-10.55-9.66.37-3.3,3.42-5.81,9.06-5.18,3.13.35,6.19,1.63,7.79,3.18Z"></path><path class="cls-6" d="M80.15,204.49l-3.81-1.78,3.41-7.3c2.68-.57,5.78-.09,8.35,1.11,5.66,2.64,8.02,8.47,5.49,13.89-2.53,5.43-8.51,7.37-14.25,4.69-3.17-1.48-5.29-3.78-6.09-6.63l3.83-1.22c.67,2,1.88,3.35,3.71,4.2,3.5,1.63,6.99.41,8.58-3.01,1.57-3.37.29-6.88-3.16-8.48-1.13-.53-2.28-.81-3.6-.74l-2.46,5.27Z"></path><path class="cls-6" d="M72.6,200.24c-3.8,4.52-10.13,4.9-14.93.86-4.78-4.02-5.52-10.33-1.7-14.87s10.15-4.88,14.93-.86c4.8,4.04,5.5,10.35,1.7,14.87ZM59.53,189.23c-2.43,2.89-2.05,6.58.66,8.87,2.71,2.29,6.42,2.03,8.85-.86,2.43-2.89,2.05-6.58-.66-8.87-2.71-2.29-6.42-2.03-8.85.86Z"></path></g><circle class="cls-7" cx="123.5" cy="123" r="73.52"></circle><circle class="cls-7" cx="123.5" cy="123" r="114.49"></circle><rect class="cls-6" x="31.3" y="147.6" width="8.27" height="8.27"></rect><rect class="cls-6" x="197.02" y="170.94" width="8.27" height="8.27"></rect><g><path class="cls-6" d="M117.06,80.55c-8.22-4.78-18.58-2.81-25.55,3.41-7.65,6.82-10.33,17.92-9.16,27.8,2.8,23.53,23.57,45.73,43.48,56.92.77.43,1.42-.7.69-1.18-17.34-11.35-34.14-26.84-40.88-47.09-3.24-9.72-3.36-21.08,2.22-30.02,6.08-9.74,18.28-14.19,28.97-9.44.27.12.5-.25.24-.4h0Z"></path><path class="cls-6" d="M126.74,168.35c3.14,1.45,7.52,1.64,10.18-.95.42-.4-.11-1-.59-.77-3.13,1.5-5.92,2.49-9.4,1.25-.27-.1-.46.34-.2.46h0Z"></path><path class="cls-6" d="M137.64,167.58c15-17.46,31.75-39.62,26.46-64.19-1.92-8.92-7.13-17.48-14.91-22.43-9.53-6.06-21.94-5.68-32.21-1.76-.81.31-.5,1.59.37,1.33,10.58-3.19,22.03-4.45,31.69,2.09,8.65,5.85,13.59,16.09,14.36,26.33,1.71,22.63-13.44,41.31-26.32,58.2-.24.32.3.74.56.43h0Z"></path><path class="cls-6" d="M94.78,111.19c2.5,9.66,8.18,20.41,16.25,26.62,2.26,1.74,5.58,3.02,8.19,1.16,2.88-2.04,2.58-6.04,1.91-9.08-2.12-9.47-8.76-18.35-16.96-23.44-2.31-1.43-6.16-3.54-8.59-1.07s-.28,6.2,1.73,8.1c.25.24.65-.06.48-.37-1.58-2.83-2.1-1.93,1.53-4.41,3.32-2.27,2.89-2.2,5.53-.36,2.48,1.72,4.75,3.75,6.74,6.01,4.15,4.71,7.67,10.85,8.62,17.13.48,3.18,1.04,9.96-7.49,6.25-1.32-.57-2.57-2.09-3.55-3.1-2.18-2.26-4.16-4.7-5.95-7.29-3.47-5.02-6.01-10.52-8.1-16.24-.08-.21-.39-.13-.33.09h0Z"></path><path class="cls-6" d="M143.1,104.52c-3.43,3.85-6.02,8.51-8.08,13.22-1.87,4.27-4.24,9.68-4.12,14.44.06,2.5,1.2,4.74,3.84,5.21,3.63.64,6.81-2.6,9.05-4.99,5.29-5.65,10.41-15.03,9.11-23.06-.88-5.45-8.48-9.03-11.68-3.29-.14.25.17.46.38.29,4.81-3.92,9.7-1.43,10.39,4.51.28,2.44-.61,5.47-1.37,7.82-1.76,5.47-4.9,10.79-9.17,14.67-2.79,2.53-2.55,2.64-6.39.61-4.08-2.15-3.54-2.28-2.63-6.23.58-2.5,1.39-4.98,2.31-7.36,2.21-5.69,5.37-10.54,8.61-15.66.09-.15-.13-.32-.24-.19h0Z"></path><path class="cls-6" d="M119.19,152.01c5.27,4.12,13.7,2.67,15.72-4.33.19-.64-.79-1.08-1.1-.46-2.77,5.51-8.72,8.17-14.27,4.34-.27-.19-.61.25-.35.46h0Z"></path><path class="cls-6" d="M106.54,133.61c2.79,1.1,5.61,2.43,8.5,3.24.22.06.37-.27.16-.38-2.72-1.32-5.72-2.21-8.55-3.25-.25-.09-.35.3-.11.39h0Z"></path><path class="cls-6" d="M106.63,131.24c3.48,1.95,6.97,4.28,10.64,5.85.33.14.6-.28.29-.49-3.27-2.29-7.09-4.03-10.58-5.96-.39-.22-.74.38-.35.6h0Z"></path><path class="cls-6" d="M104.04,127.98c4.37,2.34,8.78,5.13,13.42,6.88.26.1.4-.3.18-.44-4.12-2.71-8.97-4.64-13.41-6.78-.23-.11-.42.22-.2.34h0Z"></path><path class="cls-6" d="M102.55,125.61c4.93,2.9,9.86,6.38,15.07,8.73.38.17.66-.31.33-.56-4.61-3.39-10.06-5.97-15.01-8.85-.43-.25-.82.42-.39.67h0Z"></path><path class="cls-6" d="M101.9,121.26c5.52,4.24,10.94,9.5,17.06,12.84.23.13.47-.17.28-.37-4.85-5.03-11.4-8.9-16.97-13.11-.38-.29-.75.35-.37.64h0Z"></path><path class="cls-6" d="M98.23,117.28c6.39,4.16,12.7,8.94,19.44,12.51.28.15.63-.25.36-.46-6.05-4.72-12.99-8.52-19.44-12.67-.39-.25-.75.37-.36.62h0Z"></path><path class="cls-6" d="M99.87,120.86c4.53,3.39,9.05,6.99,13.89,9.92.21.13.46-.18.27-.35-4.34-3.68-9.2-6.83-13.88-10.06-.3-.21-.57.27-.28.49h0Z"></path><path class="cls-6" d="M96.64,114.66c7.2,5.78,14.5,11.68,22.14,16.87.29.2.65-.26.38-.49-7.05-5.96-14.7-11.41-22.2-16.79-.24-.17-.55.23-.32.41h0Z"></path><path class="cls-6" d="M96.29,111.36c6.61,5.51,13.24,12.28,20.69,16.61.2.11.39-.15.24-.31-5.81-6.35-13.8-11.35-20.6-16.63-.23-.18-.57.14-.33.33h0Z"></path><path class="cls-6" d="M98.84,112.08c5.51,4.43,10.87,9.38,16.73,13.33.32.22.7-.27.41-.54-5.12-4.83-11.09-8.96-16.59-13.34-.39-.31-.94.24-.55.55h0Z"></path><path class="cls-6" d="M96.72,108.89c6,4.67,11.91,9.64,18.24,13.86.34.22.75-.3.44-.57-5.79-4.93-12.2-9.24-18.34-13.73-.25-.18-.58.24-.34.43h0Z"></path><path class="cls-6" d="M99.94,108.9c4.82,4.06,9.5,8.55,14.66,12.17.31.22.66-.26.4-.52-4.46-4.41-9.7-8.18-14.54-12.17-.36-.3-.88.21-.52.52h0Z"></path><path class="cls-6" d="M101.11,108.31c3.02,1.84,6.13,3.71,9.35,5.19.3.14.54-.26.26-.45-2.92-2-6.13-3.69-9.27-5.32-.38-.2-.71.36-.34.58h0Z"></path><path class="cls-6" d="M132.58,132.73c.93.59,1.86,1.18,2.78,1.76.82.52,1.63,1.15,2.56,1.44.23.07.38-.23.23-.39-.67-.71-1.6-1.17-2.43-1.68-.93-.58-1.87-1.15-2.8-1.73-.38-.23-.72.36-.35.59h0Z"></path><path class="cls-6" d="M133.85,130.86c1.6,1.34,3.17,2.93,4.98,3.99.17.1.33-.12.2-.27-1.35-1.57-3.18-2.81-4.78-4.13-.28-.23-.69.17-.4.4h0Z"></path><path class="cls-6" d="M132.23,128.98c2.57,1.88,5.19,4.32,8.07,5.69.26.13.55-.19.32-.42-2.26-2.3-5.43-3.98-8.08-5.81-.34-.23-.64.31-.32.54h0Z"></path><path class="cls-6" d="M133.31,126.96c1.49,1.22,2.98,2.45,4.47,3.67,1.33,1.09,2.63,2.37,4.14,3.21.31.17.59-.22.37-.48-1.17-1.35-2.77-2.4-4.17-3.52s-2.85-2.28-4.27-3.42c-.38-.3-.93.23-.54.54h0Z"></path><path class="cls-6" d="M133.07,123.94c1.84,1.51,3.69,3.03,5.53,4.54,1.64,1.35,3.23,2.9,5.08,3.96.24.14.47-.18.29-.38-1.48-1.65-3.45-2.95-5.18-4.33s-3.53-2.81-5.29-4.22c-.3-.24-.72.18-.42.42h0Z"></path><path class="cls-6" d="M136.2,124.46c1.28,1,2.56,2,3.84,2.99,1.01.79,2.02,1.78,3.22,2.25.17.07.36-.17.25-.32-.78-1.09-2.06-1.85-3.11-2.67-1.21-.94-2.42-1.88-3.64-2.82-.4-.31-.97.25-.56.56h0Z"></path><path class="cls-6" d="M135.83,121.59c1.58,1.22,3.15,2.44,4.73,3.66,1.37,1.06,2.77,2.4,4.37,3.09.17.07.31-.1.19-.25-1.07-1.38-2.72-2.39-4.09-3.45-1.58-1.22-3.16-2.43-4.73-3.65-.34-.26-.81.34-.47.6h0Z"></path><path class="cls-6" d="M136.26,120.75c1.84,1.47,3.67,2.93,5.51,4.4,1.61,1.28,3.2,2.85,5.05,3.75.18.09.33-.12.2-.27-1.36-1.68-3.36-2.94-5.04-4.28s-3.46-2.75-5.2-4.13c-.37-.29-.9.23-.52.52h0Z"></path><path class="cls-6" d="M135.56,117.39c1.87,1.46,3.74,2.93,5.61,4.38s3.69,3.11,5.75,4.19c.21.11.42-.15.26-.33-1.51-1.61-3.49-2.86-5.25-4.19-2-1.51-4.02-2.99-6.03-4.49-.25-.19-.59.25-.34.44h0Z"></path><path class="cls-6" d="M137.49,117.25c1.71,1.31,3.42,2.61,5.12,3.92,1.48,1.13,2.95,2.59,4.68,3.29.15.06.32-.16.22-.29-1.09-1.41-2.78-2.4-4.19-3.47-1.81-1.38-3.63-2.75-5.44-4.13-.4-.3-.78.37-.39.67h0Z"></path><path class="cls-6" d="M136.78,114.14c1.69,1.32,3.39,2.64,5.08,3.95,1.5,1.17,2.98,2.53,4.67,3.4.28.14.55-.2.34-.43-1.3-1.39-3.02-2.44-4.55-3.56-1.73-1.27-3.47-2.53-5.2-3.8-.26-.19-.59.25-.34.44h0Z"></path><path class="cls-6" d="M138.67,113.1c1.63,1.31,3.26,2.62,4.88,3.93,1.43,1.15,2.86,2.53,4.51,3.36.27.14.51-.18.32-.41-1.2-1.39-2.9-2.46-4.35-3.57-1.66-1.26-3.33-2.53-4.99-3.79-.27-.21-.64.26-.37.48h0Z"></path><path class="cls-6" d="M141.52,111.84c2.38,2.25,4.7,5,7.47,6.76.15.1.37-.1.26-.26-1.91-2.66-4.79-4.82-7.17-7.06-.37-.35-.93.21-.56.56h0Z"></path><path class="cls-6" d="M140.76,109.36c1.42,1.22,2.84,2.45,4.26,3.67,1.26,1.09,2.49,2.37,3.94,3.21.3.17.55-.21.35-.46-1.1-1.34-2.65-2.4-3.98-3.51s-2.72-2.27-4.08-3.41c-.34-.28-.83.2-.49.49h0Z"></path><path class="cls-6" d="M141.54,107.37c1.35,1.15,2.7,2.3,4.05,3.44,1.18,1,2.38,2.31,3.8,2.93.15.06.35-.08.24-.24-.84-1.29-2.32-2.25-3.5-3.23-1.36-1.14-2.72-2.27-4.09-3.41-.36-.3-.88.21-.52.52h0Z"></path><path class="cls-6" d="M144.31,107.45c.83.68,1.66,1.35,2.49,2.03.66.54,1.35,1.28,2.17,1.54.18.06.33-.16.24-.31-.44-.77-1.34-1.31-2.02-1.86-.79-.64-1.57-1.28-2.36-1.92-.37-.3-.89.22-.52.52h0Z"></path><path class="cls-6" d="M143.72,105.59c1.94,1.64,3.88,3.66,6.09,4.92.24.14.46-.17.28-.37-1.7-1.88-4.1-3.36-6.11-4.9-.2-.15-.46.18-.27.35h0Z"></path><path class="cls-6" d="M147.44,107.14l.41.4s.07-.01.04-.04l-.4-.41s-.08.02-.05.05h0Z"></path><path class="cls-6" d="M147.3,110.05c.68,1.07,1.33,2.18,2.1,3.19.09.11.26.02.19-.11-.57-1.13-1.28-2.2-1.95-3.28-.13-.22-.48-.02-.34.2h0Z"></path></g></svg>