<?xml version="1.0" encoding="UTF-8"?>
<svg id="Capa_2" data-name="Capa 2" xmlns="http://www.w3.org/2000/svg" viewBox="0 0 202.25 202.24">
  <defs>
    <style>
      .cls-1, .cls-2 {
        fill: none;
      }

      .cls-3 {
        fill: #231f20;
      }

      .cls-2 {
        stroke: #212121;
        stroke-miterlimit: 10;
      }
    </style>
  </defs>
  <g id="Capa_1-2" data-name="Capa 1">
    <g>
      <g>
        <circle class="cls-1" cx="101.13" cy="101.12" r="81.58"/>
        <path d="M34.39,48.74c1.93,1.37,2.67,1.69,2.67,1.69l-2.06,2.91s-.36-.05-1.31-.73l-3.36-2.38c-1.52-1.08-2.07-.93-2.5-.33l-.16.23,6.4,4.53-1.99,2.82-13.14-9.3,1.99-2.82,5.12,3.63.13-.19-4.46-4.57,2.18-3.08,4.61,5.43-.64,1.18.19.13c1.38-1.95,2.62-1.78,4.85-.2l1.48,1.05Z"/>
        <path d="M37.4,44.27c-.59-.52-1.11-.76-1.11-.76l2.04-2.34s.47.2,1.08.73l.26.23c1.87,1.64,1.97,3.44.31,5.34-1.83,2.09-3.82,2.06-5.99.17l-2.73-2.39c-2.16-1.89-2.53-3.78-.7-5.87s3.75-1.98,5.91-.08l1.56,1.36-3.17,3.62.66.58c1.23,1.08,1.71,1.13,2.11.66.35-.4.26-.82-.23-1.24ZM33.62,43.2l1.14-1.27c-1.09-.95-1.56-.94-1.9-.56s-.3.83.76,1.82Z"/>
        <path d="M43.23,38.33c-.54-.57-1.03-.86-1.03-.86l2.26-2.13s.45.24,1,.83l.24.25c1.7,1.81,1.63,3.61-.21,5.35-2.03,1.91-4.01,1.68-5.98-.41l-2.49-2.65c-1.97-2.09-2.16-4-.13-5.91s3.92-1.61,5.89.49l1.42,1.51-3.5,3.29.6.64c1.12,1.19,1.59,1.29,2.04.86.39-.36.33-.79-.11-1.26ZM39.58,36.91l1.25-1.15c-.99-1.05-1.46-1.09-1.83-.74-.37.35-.38.8.58,1.89Z"/>
        <path d="M50.8,42.1l-9.76-12.81,2.73-2.08,1.51,2.67.18-.14c-1.3-2.28-.99-3.35.11-4.19,1.57-1.2,3.08-.7,5.09,1.93l1.92,2.52c2.01,2.63,2.09,4.22.52,5.42-1.1.84-2.31.72-4.02-.95l-.18.14,2.13,2.11,2.51,3.29-2.73,2.08ZM46.52,28.96c-.33.25-.36.74.85,2.33l.67.88c1.21,1.59,1.69,1.69,2.02,1.44.46-.35.35-.76-.78-2.24l-.81-1.06c-1.13-1.48-1.5-1.7-1.95-1.35Z"/>
        <path d="M56.61,26.31l2.51-1.36s.19.63.57,1.34c.3.55.75.85,1.34.53.44-.24.64-.66.31-1.27-.41-.8-1.17-.86-2.51-.87-1.45-.03-3.18.18-4.07-1.48-.84-1.56-.57-3.33,1.71-4.57,2.29-1.24,4-.73,5.49,2.02l-2.53,1.37c-.47-.87-.9-1.03-1.36-.78-.42.23-.49.55-.34.81.28.53,1.03.36,2.18.36,1.85,0,3.13.22,4.09,2l.11.2c1.11,2.04.48,3.74-1.48,4.8-2.12,1.15-3.98.95-5.25-1.39-.52-.95-.76-1.74-.76-1.74Z"/>
        <path d="M71.42,20.56c1.12,2.65.72,4.47-1.83,5.54-2.56,1.08-4.34.19-5.46-2.46l-1.42-3.35c-1.12-2.65-.63-4.5,1.93-5.59,2.54-1.07,4.23-.14,5.35,2.5l.18.42-2.86,1.21c-.57-1.36-1.02-1.52-1.46-1.33-.51.21-.67.66-.02,2.2l.88,2.08c.65,1.53,1.06,1.75,1.57,1.53.51-.21.6-.78.25-1.6-.43-1.02-.87-1.65-.87-1.65l2.86-1.21s.35.4.7,1.25l.19.45Z"/>
        <path d="M76.04,17.46l-.53-1.71c-.31-1.01-.56-1.27-.96-1.15-.44.14-.53.55.06,2.46l1.93,6.24-3.29,1.02-3.54-11.43,3.14-.97.48,2.96.22-.07c-.37-2.37.09-3.37,1.47-3.8,1.76-.54,2.73.74,3.58,3.49l.61,1.98-3.19.99Z"/>
        <path d="M87.31,12.71l.72,3.56c.57,2.82-.41,4.57-3.12,5.11-2.73.55-4.29-.68-4.86-3.5l-.72-3.56c-.57-2.82.39-4.56,3.12-5.11,2.7-.55,4.29.68,4.86,3.5ZM84.41,14c-.32-1.6-.81-1.9-1.35-1.79s-.87.58-.54,2.17l.45,2.21c.32,1.6.81,1.9,1.35,1.79s.87-.58.54-2.17l-.45-2.21Z"/>
        <path d="M92.49,19.97l-3.31.42-2.01-15.98,3.31-.42,2.01,15.98Z"/>
        <path d="M96.42,19.65l-3.33.26-1.24-16.05,3.33-.26,1.24,16.05Z"/>
        <path d="M100.07,4.94v.21c.03.92-.5,1.76-1.71,1.8-1.22.04-1.79-.78-1.82-1.7v-.21c-.03-.94.49-1.76,1.71-1.8,1.22-.04,1.79.75,1.82,1.7ZM100.45,19.52l-3.45.1-.35-11.96,3.45-.1.35,11.96Z"/>
        <path d="M105.82,19.67l.32-6.64c.09-1.86-.1-2.26-.58-2.28-.46-.02-.8.33-.89,2.33l-.31,6.53-3.45-.17.57-11.95,3.29.16-.56,2.94h.23c.47-2.57,1.53-3.12,2.89-3.05,2.09.1,2.45,1.66,2.31,4.74l-.36,7.56-3.45-.17Z"/>
        <path d="M116.35,11.78c1.75.59,2.28,1.34,1.91,3.8-.38,2.5-1.19,3.24-3.71,2.86l-.03.23c2.39.36,3.06,1.44,2.75,3.51-.35,2.34-1.85,3-4.51,2.6-2.66-.4-3.85-1.79-3.49-4.13.17-1.09.39-1.52.39-1.52l3.07.46s-.2.27-.32,1.07c-.1.64.22,1.01.83,1.1.59.09.97-.11,1.06-.7.11-.71-.2-.96-1.43-1.77-1.67-1.14-3.11-1.89-2.71-4.55l.36-2.36c.43-2.84,1.93-4.15,4.68-3.73l4.05.61-.44,2.91-2.42-.6-.03.23ZM114.74,11.66c-.61-.09-1.03.36-1.37,2.58-.34,2.23-.08,2.8.54,2.9s1.03-.38,1.37-2.61c.34-2.23.07-2.78-.54-2.87Z"/>
        <path d="M154.58,35.23c-1.4,1.91-1.73,2.64-1.73,2.64l-2.88-2.1s.06-.36.75-1.3l2.43-3.32c1.1-1.5.96-2.06.37-2.49l-.22-.16-4.63,6.33-2.78-2.04,9.51-12.99,2.78,2.04-3.71,5.07.19.14,4.63-4.39,3.04,2.23-5.5,4.52-1.17-.66-.14.19c1.93,1.41,1.74,2.64.13,4.85l-1.07,1.47Z"/>
        <path d="M159,38.31c.53-.58.78-1.1.78-1.1l2.3,2.08s-.21.47-.75,1.06l-.23.26c-1.67,1.84-3.47,1.92-5.35.22-2.06-1.87-2-3.86-.07-5.99l2.44-2.7c1.93-2.13,3.82-2.47,5.88-.6,2.06,1.87,1.92,3.78-.01,5.91l-1.39,1.54-3.57-3.22-.59.65c-1.09,1.21-1.15,1.69-.69,2.1.39.35.81.27,1.24-.21ZM160.13,34.56l1.25,1.16c.97-1.08.96-1.55.59-1.89-.38-.34-.83-.32-1.84.73Z"/>
        <path d="M164.86,44.26c.58-.53.88-1.02.88-1.02l2.09,2.3s-.25.44-.84.99l-.25.23c-1.84,1.67-3.64,1.57-5.34-.3-1.87-2.06-1.62-4.03.51-5.97l2.69-2.45c2.13-1.94,4.04-2.09,5.91-.03s1.54,3.95-.59,5.88l-1.53,1.39-3.24-3.56-.65.59c-1.21,1.1-1.31,1.57-.89,2.03.36.39.78.35,1.26-.09ZM166.35,40.63l1.13,1.27c1.07-.98,1.11-1.45.77-1.82s-.8-.4-1.9.55Z"/>
        <path d="M160.95,51.75l12.96-9.56,2.04,2.76-2.69,1.47.14.19c2.3-1.27,3.37-.94,4.19.17,1.17,1.59.65,3.09-2.01,5.06l-2.55,1.88c-2.67,1.97-4.25,2.02-5.43.43-.82-1.11-.69-2.32,1.02-4.01l-.14-.19-2.14,2.09-3.33,2.46-2.04-2.76ZM174.15,47.68c-.25-.33-.73-.37-2.34.81l-.89.66c-1.61,1.19-1.71,1.67-1.47,2,.34.46.75.36,2.25-.75l1.07-.79c1.5-1.11,1.72-1.47,1.38-1.93Z"/>
        <path d="M176.63,57.79l1.32,2.53s-.64.17-1.35.55c-.55.29-.86.73-.55,1.33.23.45.65.65,1.26.33.81-.39.88-1.16.91-2.49.05-1.45-.12-3.18,1.55-4.05,1.57-.82,3.33-.52,4.54,1.79,1.2,2.3.66,4.01-2.11,5.46l-1.33-2.55c.88-.46,1.04-.88.8-1.35-.22-.43-.54-.5-.81-.36-.53.28-.37,1.03-.4,2.18-.02,1.85-.27,3.12-2.06,4.06l-.2.11c-2.06,1.07-3.75.42-4.78-1.56-1.12-2.14-.89-4,1.48-5.23.96-.5,1.75-.73,1.75-.73Z"/>
        <path d="M182.15,72.71c-2.67,1.08-4.48.64-5.51-1.92-1.04-2.58-.12-4.34,2.55-5.42l3.37-1.36c2.67-1.08,4.51-.56,5.55,2.03,1.03,2.56.07,4.24-2.59,5.31l-.43.17-1.16-2.88c1.37-.55,1.54-.99,1.35-1.44-.21-.51-.65-.68-2.2-.05l-2.09.84c-1.54.62-1.77,1.03-1.56,1.55.21.51.77.61,1.6.27,1.02-.41,1.67-.85,1.67-.85l1.16,2.88s-.41.34-1.26.68l-.45.18Z"/>
        <path d="M185.17,77.39l1.72-.5c1.02-.3,1.28-.54,1.16-.94-.13-.44-.54-.54-2.46.02l-6.27,1.83-.97-3.31,11.48-3.35.92,3.16-2.96.43.06.22c2.37-.33,3.37.14,3.78,1.53.51,1.77-.79,2.72-3.55,3.53l-1.99.58-.93-3.2Z"/>
        <path d="M189.75,88.72l-3.57.66c-2.83.52-4.56-.49-5.06-3.2-.51-2.74.75-4.28,3.58-4.8l3.57-.66c2.83-.52,4.55.46,5.06,3.2.5,2.71-.75,4.28-3.58,4.8ZM188.5,85.79c1.61-.3,1.92-.78,1.81-1.32-.1-.54-.56-.88-2.17-.58l-2.22.41c-1.61.3-1.91.78-1.81,1.32.1.54.56.88,2.17.58l2.22-.41Z"/>
        <path d="M182.4,93.79l-.36-3.31,16-1.75.36,3.31-16,1.75Z"/>
        <path d="M182.65,97.7l-.2-3.33,16.06-.98.2,3.33-16.06.98Z"/>
        <path d="M182.73,101.72l-.06-3.45,11.96-.19.05,3.45-11.96.19ZM197.31,101.54h-.21c-.92.02-1.76-.52-1.78-1.74s.8-1.78,1.72-1.8h.21c.94-.02,1.76.52,1.78,1.74s-.78,1.78-1.72,1.8Z"/>
        <path d="M182.49,107.15l6.63.42c1.86.12,2.26-.06,2.29-.54.03-.46-.32-.8-2.31-.93l-6.52-.42.22-3.44,11.93.76-.21,3.28-2.93-.6-.02.23c2.57.51,3.1,1.58,3.02,2.93-.13,2.09-1.7,2.43-4.77,2.23l-7.55-.48.22-3.44Z"/>
        <path d="M190.21,117.78c-.62,1.74-1.38,2.26-3.83,1.85-2.5-.42-3.22-1.24-2.8-3.76l-.23-.04c-.4,2.38-1.49,3.04-3.55,2.69-2.34-.39-2.97-1.9-2.53-4.55.44-2.66,1.85-3.82,4.19-3.43,1.09.18,1.52.42,1.52.42l-.51,3.06s-.27-.21-1.06-.34c-.64-.11-1.01.2-1.12.82-.1.59.09.97.68,1.07.7.12.96-.19,1.8-1.4,1.16-1.65,1.94-3.08,4.59-2.64l2.36.4c2.84.47,4.12,2,3.66,4.74l-.68,4.04-2.9-.49.64-2.41-.23-.04ZM190.36,116.17c.1-.61-.34-1.04-2.56-1.41s-2.8-.12-2.91.49.36,1.04,2.59,1.41c2.22.37,2.78.12,2.88-.5Z"/>
        <path d="M168.98,152.06c-1.96-1.33-2.7-1.63-2.7-1.63l2-2.95s.36.05,1.33.7l3.41,2.31c1.54,1.04,2.09.89,2.51.28l.15-.23-6.5-4.39,1.93-2.86,13.34,9.02-1.93,2.86-5.2-3.52-.13.19,4.56,4.47-2.11,3.12-4.73-5.33.61-1.2-.19-.13c-1.34,1.98-2.58,1.84-4.84.31l-1.51-1.02Z"/>
        <path d="M166.06,156.59c.6.5,1.13.73,1.13.73l-2,2.38s-.47-.19-1.09-.71l-.26-.22c-1.9-1.6-2.04-3.4-.42-5.34,1.79-2.13,3.78-2.14,5.98-.29l2.78,2.34c2.2,1.85,2.61,3.72.82,5.86s-3.71,2.06-5.91.21l-1.59-1.33,3.09-3.68-.67-.56c-1.25-1.05-1.73-1.09-2.13-.61-.34.41-.24.82.25,1.24ZM169.85,157.58l-1.11,1.29c1.11.93,1.58.91,1.91.52s.29-.84-.79-1.81Z"/>
        <path d="M160.33,162.67c.55.56,1.05.84,1.05.84l-2.22,2.17s-.45-.23-1.02-.81l-.24-.25c-1.74-1.77-1.7-3.58.1-5.35,1.99-1.95,3.97-1.77,5.98.29l2.54,2.59c2.01,2.05,2.24,3.96.25,5.91-1.99,1.95-3.89,1.68-5.9-.37l-1.45-1.48,3.43-3.36-.61-.62c-1.14-1.17-1.61-1.25-2.06-.82-.38.37-.32.79.13,1.25ZM164.01,164.02l-1.23,1.17c1.01,1.03,1.49,1.06,1.85.7.36-.35.37-.81-.62-1.88Z"/>
        <path d="M152.7,159.04l10.03,12.59-2.68,2.13-1.57-2.63-.18.14c1.35,2.25,1.06,3.33-.02,4.19-1.55,1.23-3.07.77-5.13-1.82l-1.98-2.48c-2.06-2.59-2.18-4.17-.63-5.41,1.08-.86,2.3-.77,4.04.87l.18-.14-2.17-2.06-2.58-3.24,2.68-2.14ZM157.26,172.08c.32-.26.35-.75-.9-2.31l-.69-.86c-1.25-1.57-1.73-1.65-2.05-1.39-.45.36-.33.76.83,2.22l.83,1.04c1.16,1.46,1.53,1.66,1.98,1.3Z"/>
        <path d="M147.24,174.95l-2.48,1.41s-.2-.63-.6-1.33c-.31-.54-.77-.83-1.35-.5-.44.25-.62.67-.28,1.27.42.79,1.19.83,2.53.81,1.45,0,3.17-.24,4.1,1.4.88,1.54.64,3.31-1.62,4.6-2.26,1.29-3.98.81-5.53-1.91l2.5-1.42c.49.86.92,1.01,1.38.75.42-.24.47-.56.33-.82-.3-.52-1.04-.33-2.19-.31-1.85.05-3.13-.15-4.13-1.91l-.11-.2c-1.15-2.02-.56-3.73,1.38-4.83,2.1-1.2,3.96-1.04,5.28,1.28.53.94.79,1.72.79,1.72Z"/>
        <path d="M132.57,181.01c-1.18-2.62-.81-4.45,1.71-5.58,2.54-1.14,4.33-.28,5.51,2.34l1.49,3.32c1.18,2.62.73,4.49-1.81,5.63-2.52,1.13-4.23.24-5.41-2.39l-.19-.42,2.83-1.27c.6,1.34,1.05,1.5,1.49,1.3.5-.23.66-.67-.03-2.2l-.92-2.06c-.68-1.51-1.1-1.72-1.6-1.5-.5.23-.58.79-.21,1.61.45,1.01.91,1.63.91,1.63l-2.83,1.27s-.35-.4-.73-1.23l-.2-.44Z"/>
        <path d="M128,184.21l.57,1.7c.33,1,.59,1.26.98,1.13.44-.15.52-.56-.12-2.46l-2.07-6.2,3.27-1.09,3.79,11.35-3.12,1.04-.55-2.95-.22.07c.42,2.36-.01,3.38-1.39,3.83-1.75.58-2.75-.68-3.66-3.41l-.66-1.96,3.16-1.05Z"/>
        <path d="M116.82,189.21l-.8-3.55c-.63-2.81.32-4.57,3.01-5.18,2.72-.61,4.31.59,4.93,3.4l.8,3.55c.63,2.81-.29,4.57-3.01,5.18-2.69.6-4.31-.59-4.93-3.4ZM119.7,187.86c.36,1.59.85,1.88,1.39,1.76s.86-.59.5-2.19l-.49-2.2c-.36-1.59-.85-1.88-1.39-1.76-.54.12-.86.59-.5,2.19l.49,2.2Z"/>
        <path d="M111.49,182.06l3.3-.49,2.35,15.93-3.3.49-2.35-15.93Z"/>
        <path d="M107.58,182.46l3.32-.33,1.58,16.02-3.32.33-1.58-16.02Z"/>
        <path d="M103.57,182.68l3.44-.17.6,11.94-3.45.17-.6-11.94ZM104.26,197.24v-.21c-.06-.92.45-1.77,1.67-1.83,1.22-.06,1.81.74,1.86,1.66v.21c.06.94-.45,1.77-1.67,1.83-1.22.06-1.81-.71-1.86-1.66Z"/>
        <path d="M98.16,182.65l-.18,6.65c-.05,1.86.15,2.26.63,2.27.46.01.79-.35.84-2.35l.17-6.53,3.45.09-.32,11.96-3.29-.09.49-2.96h-.23c-.41,2.58-1.46,3.15-2.82,3.12-2.09-.05-2.49-1.61-2.41-4.69l.2-7.57,3.45.09Z"/>
        <path d="M87.8,190.75c-1.76-.55-2.31-1.3-1.99-3.76.33-2.51,1.12-3.26,3.65-2.94l.03-.23c-2.39-.31-3.09-1.38-2.82-3.45.3-2.35,1.79-3.04,4.46-2.69s3.88,1.71,3.58,4.06c-.14,1.09-.36,1.53-.36,1.53l-3.08-.4s.2-.28.3-1.07c.08-.64-.24-1-.86-1.08-.59-.08-.97.13-1.04.72-.09.71.22.96,1.47,1.74,1.69,1.1,3.15,1.82,2.8,4.49l-.31,2.37c-.37,2.85-1.84,4.19-4.6,3.83l-4.06-.53.38-2.92,2.43.55.03-.23ZM89.41,190.85c.62.08,1.02-.38,1.31-2.61.29-2.24.02-2.8-.6-2.88-.62-.08-1.03.4-1.32,2.64-.29,2.24-.01,2.78.6,2.86Z"/>
        <path d="M52.75,170.82c1.25-2.01,1.53-2.76,1.53-2.76l3.03,1.88s-.03.36-.65,1.35l-2.18,3.49c-.99,1.58-.81,2.12-.18,2.51l.23.15,4.15-6.66,2.93,1.82-8.51,13.66-2.93-1.82,3.32-5.33-.2-.12-4.3,4.72-3.2-1.99,5.15-4.92,1.22.57.12-.19c-2.03-1.26-1.93-2.51-.49-4.83l.96-1.54Z"/>
        <path d="M48.15,168.11c-.48.62-.69,1.15-.69,1.15l-2.45-1.9s.17-.48.66-1.12l.21-.27c1.52-1.96,3.32-2.17,5.31-.62,2.2,1.71,2.29,3.7.52,5.97l-2.23,2.87c-1.76,2.27-3.62,2.75-5.82,1.05s-2.2-3.62-.43-5.9l1.27-1.64,3.8,2.95.54-.69c1-1.29,1.02-1.77.53-2.15-.42-.32-.83-.21-1.22.3ZM47.31,171.94l-1.33-1.06c-.89,1.14-.85,1.61-.45,1.92.4.31.85.25,1.78-.86Z"/>
        <path d="M41.86,162.6c-.54.57-.8,1.08-.8,1.08l-2.26-2.13s.21-.46.77-1.05l.24-.25c1.71-1.8,3.51-1.84,5.35-.1,2.02,1.91,1.91,3.9-.06,5.99l-2.5,2.64c-1.98,2.09-3.87,2.39-5.89.47-2.02-1.91-1.83-3.82.15-5.91l1.42-1.5,3.49,3.3.6-.63c1.12-1.19,1.19-1.66.74-2.09-.38-.36-.81-.29-1.25.18ZM40.64,166.33l-1.22-1.19c-1,1.05-1,1.52-.63,1.87.37.35.82.33,1.85-.69Z"/>
        <path d="M45.18,154.83l-12.21,10.5-2.24-2.6,2.57-1.67-.15-.17c-2.2,1.43-3.29,1.19-4.19.14-1.29-1.5-.88-3.04,1.63-5.2l2.41-2.07c2.51-2.16,4.09-2.33,5.38-.83.9,1.05.86,2.27-.71,4.07l.15.17,1.98-2.25,3.14-2.7,2.24,2.6ZM32.32,159.88c.27.31.76.32,2.28-.99l.84-.72c1.52-1.31,1.59-1.79,1.32-2.1-.38-.44-.78-.3-2.19.91l-1.01.87c-1.41,1.21-1.6,1.59-1.23,2.03Z"/>
        <path d="M29.07,149.95l-1.5-2.42s.62-.22,1.3-.65c.53-.33.8-.8.45-1.36-.27-.43-.7-.6-1.28-.23-.77.45-.79,1.22-.72,2.55.06,1.45.36,3.16-1.24,4.15-1.5.93-3.29.76-4.66-1.44-1.37-2.21-.96-3.95,1.7-5.6l1.51,2.44c-.84.52-.98.96-.7,1.41.25.41.58.45.83.3.51-.31.3-1.05.23-2.2-.12-1.85.03-3.13,1.75-4.2l.2-.12c1.97-1.22,3.71-.7,4.88,1.2,1.27,2.05,1.18,3.92-1.08,5.33-.92.57-1.69.86-1.69.86Z"/>
        <path d="M22.46,135.51c2.58-1.27,4.42-.98,5.64,1.5,1.23,2.49.44,4.32-2.13,5.6l-3.26,1.61c-2.58,1.27-4.46.9-5.69-1.6-1.22-2.47-.39-4.22,2.18-5.49l.41-.2,1.38,2.78c-1.32.65-1.46,1.1-1.24,1.54.24.49.7.63,2.2-.11l2.02-1c1.48-.73,1.68-1.16,1.44-1.66-.25-.5-.81-.55-1.61-.15-.99.49-1.6.97-1.6.97l-1.38-2.78s.38-.37,1.21-.78l.43-.21Z"/>
        <path d="M19.1,131.09l-1.68.63c-.99.37-1.24.64-1.09,1.02.16.43.58.49,2.45-.21l6.11-2.3,1.22,3.23-11.2,4.21-1.16-3.08,2.92-.66-.08-.21c-2.34.51-3.37.11-3.88-1.24-.65-1.72.58-2.77,3.27-3.79l1.94-.73,1.17,3.12Z"/>
        <path d="M13.68,120.12l3.51-.93c2.78-.74,4.58.14,5.29,2.81.71,2.69-.42,4.32-3.2,5.06l-3.51.93c-2.78.74-4.58-.12-5.29-2.81-.71-2.67.42-4.32,3.2-5.06ZM15.14,122.94c-1.58.42-1.85.92-1.71,1.45.14.53.63.83,2.2.42l2.18-.58c1.58-.42,1.85-.92,1.71-1.45-.14-.53-.62-.83-2.2-.42l-2.18.58Z"/>
        <path d="M20.62,114.51l.61,3.28-15.83,2.95-.61-3.28,15.83-2.95Z"/>
        <path d="M20.08,110.62l.45,3.3-15.95,2.18-.45-3.3,15.95-2.18Z"/>
        <path d="M5.17,107.84l.21-.02c.92-.08,1.79.4,1.9,1.61s-.67,1.84-1.59,1.92l-.21.02c-.94.08-1.79-.4-1.9-1.61-.11-1.21.65-1.83,1.59-1.92ZM19.71,106.61l.3,3.44-11.92,1.05-.3-3.44,11.92-1.05Z"/>
        <path d="M19.54,101.25l-6.65.11c-1.86.03-2.25.24-2.24.73,0,.46.38.78,2.38.74l6.53-.1.06,3.45-11.96.19-.05-3.29,2.97.37v-.23c-2.61-.3-3.22-1.33-3.24-2.69-.03-2.09,1.5-2.55,4.58-2.6l7.57-.12.05,3.45Z"/>
        <path d="M11.06,91.17c.49-1.78,1.21-2.36,3.68-2.13,2.52.23,3.3.99,3.07,3.54l.23.02c.22-2.4,1.26-3.14,3.34-2.95,2.36.22,3.1,1.67,2.86,4.35s-1.56,3.95-3.92,3.73c-1.1-.1-1.54-.3-1.54-.3l.28-3.09s.28.19,1.08.26c.64.06,1-.28,1.05-.9.05-.6-.17-.96-.76-1.02-.71-.06-.95.26-1.69,1.53-1.04,1.73-1.7,3.22-4.38,2.97l-2.38-.22c-2.86-.26-4.26-1.68-4-4.45l.37-4.08,2.93.27-.45,2.45.23.02ZM11.02,92.78c-.06.62.42,1.01,2.66,1.21s2.8-.09,2.86-.71-.44-1.01-2.68-1.21c-2.25-.21-2.78.09-2.84.71Z"/>
      </g>
      <circle class="cls-2" cx="99.59" cy="101.34" r="69.32"/>
      <g id="_56" data-name="56">
        <path class="cls-3" d="M20.63,61.39c-1.95,5.79-4.53,7.06-10.32,5.11,5.79,1.95,7.06,4.53,5.11,10.32,1.95-5.79,4.53-7.06,10.32-5.11-5.79-1.95-7.06-4.53-5.11-10.32Z"/>
      </g>
      <g id="_56-2" data-name="56">
        <path class="cls-3" d="M137.17,14.43c-1.95,5.79-4.53,7.06-10.32,5.11,5.79,1.95,7.06,4.53,5.11,10.32,1.95-5.79,4.53-7.06,10.32-5.11-5.79-1.95-7.06-4.53-5.11-10.32Z"/>
      </g>
      <g id="_56-3" data-name="56">
        <path class="cls-3" d="M183.8,125.4c-1.95,5.79-4.53,7.06-10.32,5.11,5.79,1.95,7.06,4.53,5.11,10.32,1.95-5.79,4.53-7.06,10.32-5.11-5.79-1.95-7.06-4.53-5.11-10.32Z"/>
      </g>
      <g id="_56-4" data-name="56">
        <path class="cls-3" d="M74.48,174.98c-1.95,5.79-4.53,7.06-10.32,5.11,5.79,1.95,7.06,4.53,5.11,10.32,1.95-5.79,4.53-7.06,10.32-5.11-5.79-1.95-7.06-4.53-5.11-10.32Z"/>
      </g>
    </g>
  </g>
</svg>