<svg xmlns="http://www.w3.org/2000/svg" width="129" height="129" viewBox="0 0 129 129" fill="none"><g clip-path="url(#clip0_10_579)"><path d="M38.5318 31.4997C16.7364 35.89 16.0626 65.725 21.3725 82.439C27.7053 102.337 45.5853 114.924 66.5331 111.799C85.1698 109.022 103.517 96.4037 110.243 78.3957C117.387 59.2656 108.969 37.4415 92.0821 26.5302C71.6535 13.3107 44.7376 17.4878 27.1174 33.4605C26.3239 34.1817 27.4872 35.2855 28.2838 34.6152C43.304 21.9979 63.3391 16.3355 82.1937 23.4804C100.39 30.3739 113.028 48.7095 110.848 68.4193C106.712 105.764 50.0687 127.814 27.859 93.0816C16.6588 75.5731 14.4915 39.9742 38.6986 32.1531C39.1091 32.0213 38.9552 31.4131 38.5318 31.4997Z" fill="white"></path><path d="M43.4541 85.8795C65.8174 94.1813 89.6694 77.9773 95.0727 56.0381C95.3475 54.9194 93.6148 54.4468 93.3302 55.5711C90.7325 66.1059 84.356 75.403 74.9383 80.9587C65.5205 86.5144 54.5576 87.0704 43.6793 85.0394C43.1321 84.9344 42.932 85.6812 43.4541 85.8795Z" fill="white"></path><path d="M44.2418 54.9661C47.2689 60.5964 51.2205 65.7323 54.6955 71.0908C55.1792 71.8373 56.3966 71.1213 55.889 70.4017C52.1996 65.1276 48.8929 59.5141 44.7782 54.5512C44.5197 54.2402 44.0539 54.6406 44.232 54.9718L44.2418 54.9661Z" fill="white"></path><path d="M64.1109 43.4814C66.8838 49.1269 70.046 54.9685 73.6769 60.1186C74.1234 60.7551 75.0661 60.224 74.7225 59.5149C71.9595 53.8637 68.3633 48.2727 64.7422 43.117C64.4693 42.7353 63.907 43.0599 64.1109 43.4814Z" fill="white"></path></g><defs><clipPath id="clip0_10_579"><rect width="95.2613" height="92.8695" fill="white" transform="translate(0 47.6306) rotate(-30)"></rect></clipPath></defs></svg>