<svg width="251" height="248" viewBox="0 0 251 248" fill="none" xmlns="http://www.w3.org/2000/svg">
<g clip-path="url(#clip0_10_532)">
<path d="M125.047 246.763C193.45 246.763 248.901 191.31 248.901 122.906C248.901 54.5022 193.45 -0.950195 125.047 -0.950195C56.6446 -0.950195 1.19336 54.5022 1.19336 122.906C1.19336 191.31 56.6446 246.763 125.047 246.763Z" fill="#6976DF"/>
<path d="M247.884 122.906C247.884 139.17 244.68 155.279 238.449 170.305C232.218 185.332 223.091 198.988 211.601 210.478C200.111 221.969 186.455 231.095 171.429 237.327C156.403 243.558 140.294 246.763 124.031 246.763V122.906H247.884Z" fill="url(#paint0_linear_10_532)"/>
<path d="M125.047 -0.950195C141.311 -0.950195 157.419 2.25394 172.445 8.48543C187.471 14.7169 201.127 23.8432 212.618 35.3339C224.108 46.8246 233.234 60.4808 239.465 75.5071C245.697 90.5334 248.901 106.642 248.901 122.906H125.047V-0.950195Z" fill="url(#paint1_linear_10_532)"/>
<path d="M125.047 246.74C108.784 246.74 92.675 243.536 77.649 237.305C62.6231 231.073 48.9671 221.947 37.4767 210.456C25.9862 198.966 16.8601 185.309 10.6288 170.283C4.39743 155.257 1.19336 139.148 1.19336 122.884H125.047V246.74Z" fill="url(#paint2_linear_10_532)"/>
<path d="M1.19336 122.906C1.19336 106.642 4.39743 90.5334 10.6288 75.5071C16.8601 60.4808 25.9862 46.8246 37.4767 35.3339C48.9671 23.8432 62.6231 14.7169 77.649 8.48543C92.675 2.25394 108.784 -0.950195 125.047 -0.950195V122.906H1.19336Z" fill="url(#paint3_linear_10_532)"/>
<path d="M124.914 238.896C188.777 238.896 240.548 187.124 240.548 123.26C240.548 59.3957 188.777 7.62366 124.914 7.62366C61.0517 7.62366 9.28076 59.3957 9.28076 123.26C9.28076 187.124 61.0517 238.896 124.914 238.896Z" stroke="white"/>
<path d="M115.015 54.3819C102.11 46.7804 86.2667 49.1448 74.6658 58.3374C60.7889 69.3419 55.7949 88.412 57.7395 105.449C62.1589 144.274 96.4092 180.625 129.091 199.12C130.792 200.093 132.229 197.574 130.615 196.513C102.574 178.039 75.5497 153.268 64.2139 120.652C58.6675 104.72 58.093 85.7382 67.3738 70.955C77.4942 54.8018 96.8954 48.1283 114.617 55.3321C115.17 55.5531 115.501 54.6692 115.015 54.3819Z" fill="white"/>
<path d="M130.726 198.369C135.764 200.8 143.476 201.441 147.674 196.889C148.337 196.181 147.674 194.657 146.636 195.099C144.36 196.049 142.349 197.353 139.874 197.861C137.024 198.457 133.93 198.281 131.168 197.353C130.571 197.154 130.174 198.104 130.726 198.369Z" fill="white"/>
<path d="M148.779 197.109C173.926 168.449 201.923 130.883 192.001 90.2461C183.273 54.4482 148.249 39.2893 114.706 51.907C112.916 52.592 113.601 55.4205 115.523 54.8459C133.135 49.6309 152.182 47.5538 168.048 58.8898C181.947 68.8115 189.526 85.6498 190.476 102.378C192.531 138.905 168.07 168.648 147.564 196.159C147.034 196.866 148.205 197.772 148.801 197.109H148.779Z" fill="white"/>
<path d="M78.378 104.698C80.8528 114.774 85.1617 124.077 91.0616 132.629C95.481 139.059 101.293 147.832 108.761 150.882C122.152 156.34 123.832 141.203 121.091 132.165C116.562 117.139 105.16 101.273 90.5092 94.6656C78.8199 89.4064 74.1795 100.566 82.488 108.543C83.0404 109.073 83.9022 108.41 83.5487 107.725C79.8806 103.151 82.2007 99.7701 90.5313 97.6046C92.3433 98.6653 94.111 99.7922 95.7904 101.03C99.0829 103.416 102.132 106.156 104.894 109.162C111.391 116.233 116.584 125.05 118.992 134.375C119.633 136.43 120.009 138.551 120.119 140.717C113.048 148.053 107.391 149.048 103.105 143.744C99.105 140.96 95.5915 135.347 92.9178 131.524C87.0179 123.149 82.8195 114.001 79.1072 104.477C78.9304 104.035 78.2454 104.19 78.378 104.676V104.698Z" fill="white"/>
<path d="M157.53 93.6933C151.32 100.544 146.812 108.896 143.277 117.404C140.647 123.768 136.493 133.049 137.421 140.208C139.056 152.937 151.961 146.573 157.596 140.96C166.965 131.613 176.312 115.371 173.881 101.582C172.268 92.3454 159.828 86.5558 154.392 96.1903C154.149 96.6102 154.657 97.2289 155.121 96.9195C163.54 90.8206 171.826 95.4611 171.782 106.642C171.782 110.311 170.257 115.084 168.998 118.641C165.971 127.215 160.667 135.656 153.773 141.601C146.194 148.119 139.786 139.059 140.493 131.171C140.957 126.066 144.05 119.547 146.039 115.039C149.332 107.593 153.817 101.008 158.06 94.0911C158.259 93.7596 157.795 93.3839 157.53 93.6712V93.6933Z" fill="white"/>
<path d="M118.329 171.609C126.903 178.437 141.487 176.404 144.514 164.494C144.868 163.079 142.835 162.129 142.084 163.477C139.985 167.344 137.863 170.615 133.576 172.316C128.781 174.217 123.345 173.465 119.103 170.593C118.506 170.195 117.755 171.145 118.329 171.609Z" fill="white"/>
<path d="M97.7129 141.49C102.243 143.28 106.883 145.622 111.612 146.794C112.098 146.904 112.43 146.219 111.965 145.954C107.612 143.656 102.552 142.308 97.9339 140.628C97.3814 140.429 97.1826 141.269 97.6908 141.49H97.7129Z" fill="white"/>
<path d="M97.7792 137.667C103.502 140.871 109.248 144.937 115.368 147.28C116.098 147.567 116.363 146.506 115.855 146.131C110.706 142.219 104.209 139.479 98.5526 136.341C97.6908 135.855 96.9174 137.181 97.7792 137.667Z" fill="white"/>
<path d="M93.5809 132.253C100.63 136.098 107.944 141.004 115.567 143.545C116.164 143.744 116.429 142.904 115.965 142.573C109.491 137.932 101.182 134.905 94.0007 131.48C93.4925 131.237 93.0726 131.966 93.5588 132.231L93.5809 132.253Z" fill="white"/>
<path d="M91.0838 128.453C99.1492 133.204 107.259 139.258 115.943 142.794C116.584 143.059 117.18 142.043 116.628 141.601C109.292 135.767 100.033 131.679 91.9456 126.972C90.9954 126.42 90.1336 127.9 91.0838 128.453Z" fill="white"/>
<path d="M90.0452 121.337C95.1717 125.293 100.32 129.248 105.447 133.226C109.446 136.341 113.424 140.076 118.02 142.286C118.55 142.551 119.037 141.932 118.639 141.468C115.059 137.336 110.043 134.331 105.712 131.082C100.762 127.37 95.8126 123.635 90.8849 119.923C90.0452 119.282 89.2497 120.696 90.0673 121.337H90.0452Z" fill="white"/>
<path d="M84.035 114.818C94.4206 121.58 104.762 129.801 115.877 135.259C116.496 135.568 117.269 134.728 116.672 134.242C107.06 126.265 95.3487 120.188 84.8305 113.448C83.9687 112.896 83.1732 114.266 84.035 114.818Z" fill="white"/>
<path d="M86.7307 120.63C94.0669 126.199 101.469 132.298 109.491 136.85C109.955 137.115 110.507 136.474 110.087 136.076C103.171 129.867 95.0392 124.784 87.3715 119.569C86.7086 119.105 86.112 120.166 86.7528 120.652L86.7307 120.63Z" fill="white"/>
<path d="M81.4275 110.465C93.0727 120.011 105.071 129.889 117.689 138.131C118.352 138.551 119.125 137.557 118.528 137.049C107.215 127.127 94.4648 118.222 82.1346 109.559C81.6043 109.184 80.9193 110.045 81.4275 110.465Z" fill="white"/>
<path d="M80.8529 105.029C86.6866 109.957 92.5423 114.863 98.4422 119.724C103.635 123.989 108.761 129.16 114.772 132.231C115.236 132.474 115.612 131.922 115.302 131.546C110.573 125.801 103.591 121.426 97.7572 116.829C92.3655 112.587 86.9296 108.41 81.4938 104.234C81.0297 103.88 80.411 104.676 80.875 105.051L80.8529 105.029Z" fill="white"/>
<path d="M84.985 106.289C93.9564 113.515 102.707 121.956 112.429 128.121C113.159 128.585 113.954 127.547 113.335 126.928C105.248 118.84 95.1496 112.189 86.1782 105.073C85.3164 104.388 84.1011 105.582 84.9629 106.289H84.985Z" fill="white"/>
<path d="M81.5379 101.008C91.2826 108.675 100.939 117.095 111.391 123.768C112.142 124.254 113.048 123.127 112.363 122.508C103.06 114.266 92.3433 107.327 82.2892 100.057C81.7367 99.6596 81.0075 100.588 81.5379 101.008Z" fill="white"/>
<path d="M86.7749 101.074C94.6193 107.703 102.243 115.371 110.816 121.006C111.524 121.47 112.253 120.453 111.7 119.857C104.651 112.476 95.7905 106.399 87.9239 99.9027C87.1284 99.2398 85.9794 100.367 86.7749 101.052V101.074Z" fill="white"/>
<path d="M88.7415 100.124C93.6912 103.217 98.8398 106.355 104.209 108.631C104.85 108.896 105.115 107.946 104.651 107.593C99.9889 104.212 94.6414 101.45 89.4928 98.842C88.631 98.4001 87.9239 99.6154 88.7415 100.124Z" fill="white"/>
<path d="M140.272 140.098C141.796 141.07 143.299 142.02 144.824 142.993C146.15 143.855 147.52 144.959 149.088 145.313C149.619 145.424 149.906 144.849 149.597 144.451C148.602 143.192 146.989 142.462 145.641 141.623C144.117 140.673 142.57 139.744 141.045 138.794C140.205 138.286 139.454 139.568 140.272 140.098Z" fill="white"/>
<path d="M142.327 136.982C144.912 139.148 147.497 141.932 150.547 143.479C150.834 143.634 151.298 143.28 151.055 142.971C149 140.275 145.818 138.242 143.233 136.098C142.614 135.59 141.708 136.474 142.349 136.982H142.327Z" fill="white"/>
<path d="M139.697 133.955C141.995 135.656 144.316 137.358 146.614 139.059C148.647 140.562 150.702 142.352 153.066 143.302C153.663 143.545 153.994 142.706 153.641 142.308C151.983 140.385 149.553 139.037 147.475 137.601C145.111 135.988 142.769 134.375 140.404 132.74C139.653 132.231 138.99 133.425 139.697 133.933V133.955Z" fill="white"/>
<path d="M141.399 130.64C143.829 132.651 146.26 134.662 148.713 136.651C150.878 138.441 153.022 140.673 155.563 141.888C156.093 142.131 156.933 141.556 156.491 140.96C154.767 138.728 152.226 137.093 150.017 135.347C147.542 133.38 145.067 131.414 142.592 129.447C141.752 128.784 140.537 129.955 141.399 130.64Z" fill="white"/>
<path d="M141.045 125.668C144.05 128.143 147.056 130.64 150.083 133.115C152.757 135.325 155.364 138.021 158.458 139.568C159.01 139.855 159.474 139.192 159.098 138.728C156.845 135.922 153.464 133.822 150.657 131.59C147.851 129.359 144.868 126.994 141.973 124.696C141.31 124.166 140.382 125.094 141.045 125.624V125.668Z" fill="white"/>
<path d="M146.128 126.552C148.227 128.187 150.326 129.823 152.403 131.458C154.038 132.74 155.762 134.552 157.795 135.104C158.215 135.214 158.546 134.75 158.347 134.397C157.287 132.496 155.011 131.237 153.309 129.933C151.32 128.386 149.332 126.862 147.343 125.315C146.459 124.63 145.2 125.867 146.106 126.552H146.128Z" fill="white"/>
<path d="M145.531 121.845C148.271 123.967 150.989 126.066 153.729 128.187C155.872 129.845 158.016 132.01 160.623 132.85C160.91 132.938 161.176 132.585 161.021 132.342C159.563 130.044 156.911 128.497 154.768 126.84C152.027 124.74 149.287 122.619 146.57 120.52C145.818 119.945 144.78 121.271 145.531 121.845Z" fill="white"/>
<path d="M146.238 120.453C149.42 122.995 152.602 125.536 155.784 128.077C158.259 130.066 160.734 132.585 163.717 133.778C164.026 133.889 164.313 133.491 164.137 133.226C162.236 130.464 159.032 128.541 156.425 126.486C153.42 124.099 150.392 121.691 147.387 119.304C146.57 118.663 145.398 119.813 146.238 120.453Z" fill="white"/>
<path d="M145.133 114.929C148.183 117.338 151.232 119.768 154.303 122.133C157.375 124.497 160.358 127.392 163.783 128.939C164.269 129.16 164.689 128.629 164.358 128.21C162.082 125.447 158.634 123.414 155.784 121.271C152.514 118.796 149.199 116.387 145.907 113.957C145.354 113.537 144.603 114.487 145.155 114.929H145.133Z" fill="white"/>
<path d="M148.293 114.796C151.077 116.94 153.884 119.083 156.668 121.227C159.032 123.039 161.507 125.668 164.402 126.53C164.755 126.641 165.087 126.221 164.888 125.889C163.363 123.437 160.336 121.801 158.038 120.078C155.077 117.824 152.094 115.57 149.133 113.338C148.249 112.675 147.409 114.156 148.271 114.818L148.293 114.796Z" fill="white"/>
<path d="M147.122 109.603C149.884 111.769 152.646 113.957 155.386 116.122C157.817 118.023 160.292 120.431 163.098 121.669C163.739 121.956 164.291 121.271 163.849 120.719C161.883 118.332 158.9 116.608 156.403 114.818C153.552 112.763 150.702 110.708 147.873 108.653C147.299 108.256 146.57 109.184 147.122 109.626V109.603Z" fill="white"/>
<path d="M150.215 107.924C153.022 110.2 155.828 112.498 158.634 114.774C160.866 116.586 163.098 118.796 165.772 119.923C166.236 120.122 166.722 119.459 166.435 119.061C164.711 116.741 161.993 115.106 159.717 113.382C156.822 111.195 153.928 109.029 151.033 106.863C150.436 106.399 149.619 107.438 150.215 107.924Z" fill="white"/>
<path d="M154.834 105.891C156.933 107.88 159.032 109.847 161.131 111.835C163.054 113.647 164.844 115.636 167.164 116.896C167.517 117.095 167.959 116.697 167.738 116.321C166.346 114.067 164.269 112.41 162.369 110.598C160.27 108.609 158.17 106.642 156.071 104.654C155.254 103.88 154.016 105.118 154.834 105.891Z" fill="white"/>
<path d="M153.618 101.825C155.939 103.836 158.259 105.847 160.579 107.858C162.634 109.648 164.667 111.88 167.098 113.095C167.606 113.36 168.379 112.786 167.981 112.211C166.39 110.001 163.871 108.366 161.794 106.62C159.43 104.654 157.065 102.687 154.723 100.72C153.972 100.102 152.889 101.162 153.64 101.803L153.618 101.825Z" fill="white"/>
<path d="M154.878 98.5548C157.22 100.544 159.54 102.532 161.883 104.521C163.695 106.068 165.617 108.256 167.937 108.963C168.291 109.073 168.534 108.675 168.379 108.388C167.252 106.178 164.601 104.565 162.722 102.996C160.491 101.14 158.259 99.284 156.027 97.4278C155.231 96.7649 154.082 97.8918 154.878 98.5769V98.5548Z" fill="white"/>
<path d="M159.408 98.7094C160.778 99.8143 162.126 100.919 163.496 102.024C164.556 102.886 165.794 104.278 167.164 104.521C167.473 104.565 167.871 104.322 167.738 103.947C167.208 102.599 165.75 101.759 164.645 100.875C163.275 99.7701 161.927 98.6653 160.557 97.5604C159.739 96.8975 158.59 98.0465 159.408 98.7094Z" fill="white"/>
<path d="M158.502 95.5937C160.203 97.0521 161.883 98.5326 163.606 99.9469C165.153 101.251 166.678 102.753 168.49 103.659C169.042 103.924 169.484 103.306 169.108 102.842C167.716 101.14 165.706 99.8585 163.96 98.5106C162.347 97.251 160.712 96.0356 159.076 94.7982C158.635 94.4667 158.06 95.1959 158.48 95.5716L158.502 95.5937Z" fill="white"/>
<path d="M164.689 98.0465L165.352 98.7094C165.352 98.7094 165.507 98.6873 165.44 98.6211L164.777 97.9581C164.777 97.9581 164.601 98.0023 164.667 98.0686L164.689 98.0465Z" fill="white"/>
<path d="M164.358 102.842C165.485 104.609 166.545 106.466 167.871 108.101C168.07 108.344 168.379 108.035 168.269 107.791C167.385 105.913 166.192 104.168 165.109 102.4C164.822 101.914 164.048 102.356 164.358 102.842Z" fill="white"/>
</g>
<defs>
<linearGradient id="paint0_linear_10_532" x1="185.968" y1="-0.950203" x2="185.968" y2="246.763" gradientUnits="userSpaceOnUse">
<stop offset="0.64" stop-color="#6976DF"/>
<stop offset="1" stop-color="#5A65DC"/>
</linearGradient>
<linearGradient id="paint1_linear_10_532" x1="1.19334" y1="60.9669" x2="248.901" y2="60.9669" gradientUnits="userSpaceOnUse">
<stop offset="0.64" stop-color="#6976DF"/>
<stop offset="1" stop-color="#5A65DC"/>
</linearGradient>
<linearGradient id="paint2_linear_10_532" x1="248.901" y1="184.823" x2="1.19336" y2="184.823" gradientUnits="userSpaceOnUse">
<stop offset="0.64" stop-color="#6976DF"/>
<stop offset="1" stop-color="#5A65DC"/>
</linearGradient>
<linearGradient id="paint3_linear_10_532" x1="63.1313" y1="246.763" x2="63.1313" y2="-0.950195" gradientUnits="userSpaceOnUse">
<stop offset="0.58" stop-color="#5A65DC"/>
<stop offset="0.77" stop-color="#6976DF"/>
<stop offset="0.83" stop-color="#6976DF"/>
</linearGradient>
<clipPath id="clip0_10_532">
<rect width="251" height="248" fill="white"/>
</clipPath>
</defs>
</svg>
