<?xml version="1.0" encoding="UTF-8"?>
<svg id="Capa_1" data-name="Capa 1" xmlns="http://www.w3.org/2000/svg" viewBox="0 0 616.74 282.95">
  <defs>
    <style>
      .cls-1 {
        fill: #fff;
      }
    </style>
  </defs>
  <path class="cls-1" d="M60.49,143.09c-30.59-.12-61.52,19.55-60.47,55.77.38,13.16,4.68,26.72,10.75,38.09,9.79,18.33,24.99,34.29,43.33,42.44,4.91,2.18,10.46,2.24,15.37.06,28.87-12.84,60.33-55,53.13-90.2-6.28-30.65-34.78-46.05-62.11-46.15ZM92.18,233.37c-14.34,9.92-32.25,12.85-20.41-11.56,4.6-10.81,15.76-23.95,27.74-17.2,9.9,7.77.37,23.21-7.33,28.77ZM25.28,204.6c11.98-6.75,23.14,6.4,27.74,17.2,11.84,24.41-6.07,21.48-20.41,11.56-7.7-5.55-17.23-21-7.33-28.77Z"/>
  <g>
    <path class="cls-1" d="M32.38,123.54H4.54V1.74h50.63v24.88h-22.79v25.23h21.05v24.88h-21.05v46.8Z"/>
    <path class="cls-1" d="M110.33,26.62h-22.79v23.49h20.18v22.62h-20.18v25.92h22.79v24.88h-50.63V1.74h50.63v24.88Z"/>
    <path class="cls-1" d="M181.15,89.78c0,25.05-5.05,35.5-20.01,35.5-10.44,0-18.1-5.05-21.58-21.23h-1.74l3.13,19.49h-24.88V1.74h32.54c23.49,0,32.54,9.74,32.54,33.23v54.81ZM155.05,43.67c0-14.09-1.74-17.05-6.44-17.05h-4.7v55.33c0,15.14,2.26,18.44,5.39,18.44,4.18,0,5.74-3.48,5.74-17.57v-39.15Z"/>
    <path class="cls-1" d="M237.87,26.62h-22.79v23.49h20.18v22.62h-20.18v25.92h22.79v24.88h-50.63V1.74h50.63v24.88Z"/>
    <path class="cls-1" d="M309.21,99.7c0,17.92,1.22,23.84,1.22,23.84h-27.84s-1.22-2.44-1.22-11.31v-25.93c0-13.92-3.31-16.88-9.05-16.88h-.87v54.11h-27.84V1.74h34.28c22.79,0,31.67,5.92,31.67,26.45s-6.26,27.84-26.1,27.84v1.74c18.79,0,25.75,5.92,25.75,29.23v12.7ZM277.89,44.54c4.7,0,6.44-2.61,6.44-9.05,0-5.74-1.74-8.87-6.44-8.87h-6.44v17.92h6.44Z"/>
    <path class="cls-1" d="M315.82,1.74h27.67v121.8h-27.67V1.74Z"/>
    <path class="cls-1" d="M414.82,92.04c0,21.75-9.05,33.23-32.54,33.23s-32.54-11.48-32.54-33.23v-58.81C349.75,11.48,358.62,0,382.28,0s32.36,11.48,32.36,33.23v12.7h-26.97v-5.74c0-12.35-1.39-15.31-5.39-15.31s-5.57,2.96-5.57,15.31v44.89c0,12.35,1.57,15.31,5.57,15.31s5.57-2.96,5.57-15.31c0-17.92-1.22-23.66-1.22-23.66h26.97s1.04,2.44,1.04,11.31l.17,19.31Z"/>
    <path class="cls-1" d="M485.12,33.23v58.81c0,21.75-9.05,33.23-32.54,33.23s-32.54-11.48-32.54-33.23v-58.81C420.04,11.48,428.91,0,452.58,0s32.54,11.48,32.54,33.23ZM458.15,40.19c0-12.35-1.91-15.31-5.57-15.31s-5.57,2.96-5.57,15.31v44.89c0,12.35,1.74,15.31,5.57,15.31s5.57-2.96,5.57-15.31v-44.89Z"/>
  </g>
  <g>
    <path class="cls-1" d="M177.54,256.17c3.83,0,5.92-3.31,5.92-12.01v-1.74c0-12.01-8-16.36-17.4-22.45-10.27-6.79-20.53-14.09-20.53-32.71v-1.74c0-16.88,8.87-29.75,32.54-29.75s32.54,11.48,32.54,33.23v12.7h-26.1v-5.74c0-12.35-2.44-15.31-7.13-15.31-3.31,0-4.87,2.44-4.87,6.44v1.74c0,8.18,8.7,13.75,17.92,20.01,10.61,7.31,20.18,14.44,20.18,34.97v3.48c0,21.75-9.05,33.76-32.54,33.76s-32.54-12.01-32.54-33.76v-7.66c0-9.05,1.22-11.31,1.22-11.31h26.1s-1.22,4-1.22,14.79c0,8.7,1.91,13.05,5.92,13.05Z"/>
    <path class="cls-1" d="M250.09,252.34h-9.74l-1.91,26.97h-27.84l17.4-121.8h34.28l17.4,121.8h-27.84l-1.74-26.97ZM244.7,126.02h19.84l-15.14,24.53h-14.62l9.92-24.53ZM248.53,229.72l-2.44-37.24h-1.74l-2.61,37.24h6.79Z"/>
    <path class="cls-1" d="M324.04,226.07h1.74l-1.74-68.55h24.19v121.8h-31.14l-9.4-69.42h-1.74l1.74,69.42h-24.36v-121.8h31.32l9.4,68.55Z"/>
    <path class="cls-1" d="M419.57,247.82c0,21.75-9.05,33.23-32.54,33.23s-32.54-11.48-32.54-33.23v-58.81c0-21.75,8.87-33.23,32.54-33.23s32.36,11.48,32.36,33.23v12.7h-26.97v-5.74c0-12.35-1.39-15.31-5.39-15.31s-5.57,2.96-5.57,15.31v44.89c0,12.35,1.57,15.31,5.57,15.31s5.57-2.96,5.57-15.31c0-17.92-1.22-23.66-1.22-23.66h26.97s1.04,2.44,1.04,11.31l.17,19.31Z"/>
    <path class="cls-1" d="M490.73,157.52v121.8h-27.84v-47.67h-9.4v47.67h-27.84v-121.8h27.84v47.5h9.4v-47.5h27.84Z"/>
    <path class="cls-1" d="M548.32,182.4h-22.79v23.49h20.18v22.62h-20.18v25.92h22.79v24.88h-50.63v-121.8h50.63v24.88Z"/>
    <path class="cls-1" d="M586.43,254.43h25.75v24.88h-60.55l28.19-95.7-.7-1.22h-25.75v-24.88h60.55l-28.19,95.7.7,1.22Z"/>
  </g>
</svg>