<?xml version="1.0" encoding="UTF-8"?>
<svg id="Capa_1" data-name="Capa 1" xmlns="http://www.w3.org/2000/svg" xmlns:xlink="http://www.w3.org/1999/xlink" viewBox="0 0 247 246">
  <defs>
    <style>
      .cls-1, .cls-2 {
        fill: none;
      }

      .cls-3 {
        fill: #6976df;
      }

      .cls-4 {
        fill: #fff;
      }

      .cls-5 {
        fill: url(#Degradado_sin_nombre);
      }

      .cls-2 {
        stroke: #fff;
        stroke-dasharray: 6 6;
      }

      .cls-6 {
        fill: url(#Degradado_sin_nombre_4);
      }

      .cls-7 {
        fill: url(#Degradado_sin_nombre_3);
      }

      .cls-8 {
        fill: url(#Degradado_sin_nombre_2);
      }
    </style>
    <linearGradient id="Degradado_sin_nombre" data-name="Degradado sin nombre" x1="183.95" y1="-2551.32" x2="183.95" y2="-2796.58" gradientTransform="translate(0 -2551.32) scale(1 -1)" gradientUnits="userSpaceOnUse">
      <stop offset=".64" stop-color="#6976df"/>
      <stop offset="1" stop-color="#5a65dc"/>
    </linearGradient>
    <linearGradient id="Degradado_sin_nombre_2" data-name="Degradado sin nombre 2" x1="1" y1="-2612.63" x2="246.27" y2="-2612.63" gradientTransform="translate(0 -2551.32) scale(1 -1)" gradientUnits="userSpaceOnUse">
      <stop offset=".64" stop-color="#6976df"/>
      <stop offset="1" stop-color="#5a65dc"/>
    </linearGradient>
    <linearGradient id="Degradado_sin_nombre_3" data-name="Degradado sin nombre 3" x1="246.27" y1="-2735.27" x2="1" y2="-2735.27" gradientTransform="translate(0 -2551.32) scale(1 -1)" gradientUnits="userSpaceOnUse">
      <stop offset=".64" stop-color="#6976df"/>
      <stop offset="1" stop-color="#5a65dc"/>
    </linearGradient>
    <linearGradient id="Degradado_sin_nombre_4" data-name="Degradado sin nombre 4" x1="62.32" y1="-2796.58" x2="62.32" y2="-2551.32" gradientTransform="translate(0 -2551.32) scale(1 -1)" gradientUnits="userSpaceOnUse">
      <stop offset=".58" stop-color="#5a65dc"/>
      <stop offset=".77" stop-color="#6976df"/>
      <stop offset=".83" stop-color="#6976df"/>
    </linearGradient>
  </defs>
  <circle class="cls-3" cx="123.63" cy="122.63" r="122.63"/>
  <path class="cls-5" d="M245.27,122.63c0,16.1-3.17,32.05-9.34,46.93-6.16,14.88-15.2,28.4-26.58,39.79-11.39,11.39-24.91,20.42-39.79,26.58-14.88,6.16-30.82,9.34-46.93,9.34v-122.63h122.63Z"/>
  <path class="cls-8" d="M123.63,0c16.1,0,32.05,3.17,46.93,9.33,14.88,6.16,28.4,15.2,39.79,26.58,11.39,11.39,20.42,24.91,26.58,39.78,6.16,14.88,9.34,30.83,9.34,46.93h-122.63V0Z"/>
  <path class="cls-7" d="M123.63,245.27c-16.11,0-32.05-3.17-46.93-9.34-14.88-6.16-28.4-15.2-39.78-26.58-11.39-11.39-20.42-24.91-26.58-39.79-6.16-14.88-9.33-30.82-9.33-46.93h122.63v122.63Z"/>
  <path class="cls-6" d="M1,122.63c0-16.1,3.17-32.05,9.33-46.93,6.16-14.88,15.2-28.4,26.58-39.78,11.39-11.39,24.91-20.42,39.78-26.58C91.58,3.17,107.53,0,123.63,0v122.63H1Z"/>
  <g>
    <ellipse class="cls-1" cx="123.5" cy="123" rx="81.93" ry="81.9" transform="translate(-48.05 92.14) rotate(-34.69)"/>
    <path class="cls-4" d="M44.8,100.25l-1.88,6.79-29.68-8.21,3.41-12.34,6.06,1.68-1.54,5.56,6.15,1.7,1.42-5.13,6.06,1.68-1.42,5.13,11.41,3.15Z"/>
    <path class="cls-4" d="M29.37,72.89l-2.39,5.25,5.41,2.46,2.12-4.65,5.21,2.37-2.11,4.65,5.97,2.72,2.39-5.25,5.73,2.61-5.31,11.66-28.03-12.76,5.31-11.66,5.73,2.61Z"/>
    <path class="cls-4" d="M54.03,64.45c5.2,3.62,6.64,6.18,4.47,9.29-1.51,2.17-3.66,3.03-7.53,1.41l-.25.36,4.5,2.17-3.6,5.17-25.28-17.6,4.71-6.75c3.4-4.88,6.73-5.35,11.6-1.95l11.38,7.92ZM40.69,63.21c-2.92-2.04-3.79-2.1-4.47-1.13l-.68.98,11.48,8c3.14,2.19,4.15,2.2,4.61,1.55.6-.87.11-1.69-2.82-3.73l-8.12-5.66Z"/>
    <path class="cls-4" d="M53.2,42.84l-4.1,4.06,4.18,4.22,3.63-3.59,4.02,4.06-3.63,3.59,4.61,4.66,4.1-4.06,4.43,4.47-9.1,9.01-21.67-21.88,9.1-9.01,4.43,4.47Z"/>
    <path class="cls-4" d="M80.8,45.79c2.52,3.77,3.61,4.84,3.61,4.84l-5.86,3.91s-.6-.34-1.85-2.21l-3.64-5.45c-1.96-2.93-3.07-3.08-4.27-2.28l-.18.12,7.6,11.38-5.86,3.91-17.11-25.61,7.21-4.82c4.79-3.2,7.49-3.21,10.38,1.11,2.81,4.21,2.59,6.73-1.58,9.52l.24.37c3.95-2.64,6.25-2.38,9.52,2.53l1.79,2.67ZM66.46,38.59c.99-.66.99-1.45.08-2.81-.81-1.21-1.61-1.62-2.6-.96l-1.35.9,2.52,3.77,1.35-.91Z"/>
    <path class="cls-4" d="M71.47,22.95l6.3-3.04,13.38,27.75-6.3,3.04-13.38-27.75Z"/>
    <path class="cls-4" d="M104.86,34.67c1.62,5.26.29,8.71-5.38,10.46-5.72,1.77-8.72-.34-10.34-5.6l-4.39-14.21c-1.62-5.25-.34-8.69,5.38-10.46,5.68-1.75,8.68.36,10.3,5.61l.95,3.07-6.52,2.01-.43-1.39c-.92-2.98-1.48-3.59-2.45-3.3-.97.3-1.12,1.13-.2,4.12l3.35,10.85c.92,2.98,1.52,3.58,2.49,3.28.97-.3,1.12-1.13.2-4.12-1.34-4.33-2.06-5.63-2.06-5.63l6.52-2.01s.43.51,1.1,2.65l1.48,4.65Z"/>
    <path class="cls-4" d="M121.23,17.95l1.48,14.8c.55,5.47-1.44,8.59-7.35,9.18-5.96.59-8.48-2.07-9.03-7.54l-1.48-14.8c-.55-5.47,1.4-8.58,7.35-9.18,5.91-.59,8.48,2.07,9.03,7.54ZM114.61,20.38c-.31-3.11-.87-3.8-1.79-3.71-.96.1-1.33.88-1.02,3.99l1.13,11.29c.31,3.11.82,3.81,1.79,3.71.92-.09,1.33-.88,1.02-3.99l-1.13-11.29Z"/>
    <path class="cls-4" d="M140.41,36.87c.95.19,1.63-.53,2.06-2.69l.08-.43c.59-2.98-1.18-4.45-3.22-6.42-2.21-2.19-4.4-4.5-3.49-9.12l.08-.43c.83-4.19,3.66-6.95,9.53-5.79,5.83,1.15,7.51,4.44,6.45,9.84l-.62,3.15-6.48-1.28.28-1.43c.6-3.07.14-3.92-1.02-4.15-.82-.16-1.33.37-1.52,1.36l-.08.43c-.4,2.03,1.49,3.84,3.47,5.84,2.28,2.33,4.3,4.57,3.3,9.67l-.17.86c-1.06,5.4-3.9,7.93-9.73,6.78-5.87-1.16-7.48-4.57-6.42-9.97l.37-1.9c.44-2.25.85-2.75.85-2.75l6.48,1.28s-.5.93-1.03,3.61c-.43,2.16-.16,3.33.83,3.53Z"/>
    <path class="cls-4" d="M158.04,41.24l-2.29-.93-3.01,6.14-6.53-2.64,15.68-26.88,8,3.24-7.44,30.22-6.57-2.66,2.15-6.49ZM159.82,35.78l2.96-8.96-.41-.17-4.11,8.5,1.55.63Z"/>
    <path class="cls-4" d="M177.96,44.62l.37.24,9.21-14.69,5.1,3.38-17.02,25.68-6.57-4.35,7.72-15.95-.37-.24-9.33,14.88-5.14-3.4,17.02-25.67,6.6,4.37-7.6,15.76Z"/>
    <path class="cls-4" d="M192.99,65.38c-3.9,3.88-7.57,4.3-11.76.09-4.22-4.24-3.74-7.88.16-11.76l10.54-10.48c3.9-3.88,7.54-4.33,11.76-.09,4.19,4.21,3.71,7.85-.19,11.73l-2.28,2.26-4.81-4.84,1.03-1.02c2.21-2.2,2.5-2.98,1.78-3.7-.71-.72-1.52-.47-3.74,1.73l-8.05,8c-2.22,2.2-2.47,3.01-1.75,3.73.71.72,1.52.47,3.74-1.73,3.21-3.2,4.03-4.44,4.03-4.44l4.81,4.84s-.25.62-1.84,2.2l-3.43,3.47Z"/>
    <path class="cls-4" d="M222.17,67.86l-25.72,16.95-3.88-5.88,10.07-6.64-1.31-1.98-10.07,6.64-3.88-5.88,25.72-16.95,3.88,5.88-10.03,6.61,1.31,1.98,10.03-6.61,3.88,5.88Z"/>
    <path class="cls-4" d="M224.1,87.54l-2.25-5.31-5.47,2.32,1.99,4.7-5.27,2.23-2-4.7-6.04,2.56,2.25,5.31-5.79,2.46-5-11.79,28.36-12.03,5,11.79-5.79,2.46Z"/>
    <path class="cls-4" d="M209.64,103.83l1.48,6.34-6.13,1.43-3.48-14.92,25.19,1.44.26-.24-1.48-6.34,6.13-1.43,3.48,14.92-25.19-1.44-.26.24Z"/>
  </g>
  <g>
    <ellipse class="cls-1" cx="123.5" cy="123" rx="81.93" ry="81.9" transform="translate(-31.16 42.62) rotate(-17.42)"/>
    <path class="cls-4" d="M193.23,165.98l2.36-3.88,16.99,10.3-4.29,7.06-3.47-2.1,1.93-3.18-3.52-2.13-1.78,2.94-3.47-2.1,1.78-2.94-6.53-3.96Z"/>
    <path class="cls-4" d="M187.72,180.17c-2.3-1.8-3.18-2.24-3.18-2.24l2.8-3.58s.44.09,1.58.98l3.33,2.61c1.79,1.4,2.5,1.27,3.08.53l.09-.11-6.95-5.44,2.8-3.58,15.64,12.24-3.45,4.41c-2.29,2.93-3.94,3.48-6.58,1.41-2.57-2.01-2.94-3.6-.95-6.15l-.22-.18c-1.89,2.42-3.35,2.72-6.34.37l-1.63-1.28ZM197.95,181.69c-.47.6-.31,1.09.51,1.74.74.58,1.31.67,1.79.06l.65-.83-2.3-1.8-.65.83Z"/>
    <path class="cls-4" d="M187.14,195.94l-6.7-6.87c-2.48-2.54-2.73-4.91.02-7.58,2.76-2.7,5.11-2.36,7.58.17l6.7,6.87c2.48,2.54,2.75,4.89-.02,7.59-2.74,2.67-5.11,2.36-7.58-.17ZM189.5,192.05c1.41,1.44,1.97,1.57,2.39,1.15.45-.44.31-.98-1.09-2.42l-5.11-5.24c-1.41-1.44-1.95-1.59-2.39-1.15-.43.42-.31.98,1.09,2.42l5.11,5.24Z"/>
    <path class="cls-4" d="M176.41,196.57l-.23.17,6.89,8.81-3.17,2.35-11.83-15.95,4.08-3.03,7.98,8.18.23-.17-6.97-8.92,3.19-2.37,11.84,15.95-4.11,3.04-7.89-8.07Z"/>
    <path class="cls-4" d="M161.77,195.46l3.96-2.23,7.75,13.78,2.33-1.31,1.99,3.54-8.61,4.85-1.99-3.54,2.33-1.31-7.75-13.78Z"/>
    <path class="cls-4" d="M151.89,216.59l3.51-1.23-1.27-3.62-3.11,1.09-1.22-3.48,3.11-1.09-1.4-3.99-3.51,1.23-1.34-3.83,7.8-2.74,6.58,18.75-7.8,2.74-1.34-3.83Z"/>
    <path class="cls-4" d="M141.72,211.75l-.28.06,2.7,10.85-3.85.86-4.31-19.39,4.96-1.1,3.95,10.72.28-.06-2.73-10.99,3.88-.86,4.31,19.39-4.99,1.11-3.92-10.58Z"/>
    <path class="cls-4" d="M125.34,210.58c-.34-4.07.34-5.84,2.77-6.04,1.7-.14,3.01.57,3.8,3.16l.28-.02-.77-3.12,4.05-.34,1.66,19.8-5.29.44c-3.82.32-5.42-1.14-5.74-4.96l-.75-8.91ZM130.21,217.72c.19,2.29.52,2.75,1.28,2.68l.76-.06-.75-8.99c-.21-2.46-.62-2.97-1.13-2.92-.68.06-.89.64-.69,2.93l.53,6.36Z"/>
    <path class="cls-4" d="M107.98,209.21c.48-4.06,1.49-5.66,3.92-5.37,1.69.2,2.84,1.16,3.09,3.85l.28.03-.14-3.22,4.03.47-2.31,19.74-5.27-.62c-3.81-.45-5.09-2.2-4.64-6l1.04-8.88ZM111.33,217.18c-.27,2.28-.04,2.8.72,2.88l.76.09,1.05-8.97c.29-2.45-.02-3.03-.52-3.09-.68-.08-1,.45-1.26,2.74l-.74,6.34Z"/>
    <path class="cls-4" d="M96.47,217.01l3.62.88.9-3.72-3.2-.77.87-3.59,3.2.77.99-4.11-3.62-.87.95-3.94,8.03,1.94-4.67,19.31-8.03-1.94.95-3.94Z"/>
    <path class="cls-4" d="M83.14,216.6l9.41-17.71,5.25,1.94-4.35,19.57-4.26-1.57,3.54-11.97-.27-.1-5.06,11.41-4.26-1.57Z"/>
    <path class="cls-4" d="M75.48,208.23l3.32,1.68,1.73-3.42-2.94-1.49,1.67-3.29,2.94,1.49,1.91-3.77-3.32-1.68,1.84-3.62,7.37,3.74-8.99,17.72-7.37-3.74,1.84-3.62Z"/>
    <path class="cls-4" d="M75.31,189.4l6.94,4.48-10.77,16.69-3.82-2.46,8.57-13.28-3.12-2.02,2.2-3.41Z"/>
    <path class="cls-4" d="M57.8,194.1l6.11-7.4c2.26-2.74,4.59-3.24,7.54-.8,2.98,2.46,2.9,4.83.64,7.56l-6.11,7.4c-2.26,2.74-4.57,3.26-7.54.8-2.96-2.44-2.9-4.82-.64-7.56ZM61.91,196.02c-1.28,1.55-1.35,2.12-.89,2.51.48.4,1.01.21,2.29-1.35l4.66-5.65c1.28-1.55,1.37-2.11.89-2.5-.46-.38-1.01-.21-2.29,1.35l-4.66,5.65Z"/>
    <path class="cls-4" d="M56.23,187.17l.19.21,2.34-3.53,5.05-4.7,3.09,3.33-14.55,13.53-3.62-3.89c-2.61-2.81-2.64-4.79.67-7.87l.42-.39c3.1-2.88,4.88-3.3,6.48-1.57,1.31,1.41,1.39,2.62-.08,4.88ZM53.94,188.33c1.14-1.06,1.06-1.49.67-1.9-.43-.46-.91-.35-1.89.55l-.42.39c-1.04.97-1.12,1.42-.59,1.99l.52.56,1.7-1.58Z"/>
    <path class="cls-4" d="M42.02,177.18l2.19,3.01,3.09-2.26-1.94-2.66,2.98-2.18,1.94,2.66,3.42-2.49-2.19-3,3.28-2.39,4.87,6.68-16.05,11.71-4.87-6.68,3.28-2.39Z"/>
    <path class="cls-4" d="M45.93,160.13c2.55-1.42,3.3-2.07,3.3-2.07l2.21,3.97s-.25.37-1.51,1.07l-3.69,2.06c-1.98,1.1-2.14,1.81-1.69,2.63l.07.12,7.71-4.29,2.21,3.97-17.35,9.67-2.72-4.89c-1.81-3.25-1.67-4.98,1.25-6.61,2.85-1.59,4.46-1.32,6.04,1.51l.25-.14c-1.49-2.68-1.2-4.14,2.12-5.99l1.81-1.01ZM40.56,168.97c-.37-.67-.88-.71-1.8-.2-.82.46-1.13.95-.75,1.62l.51.92,2.55-1.42-.51-.92Z"/>
  </g>
  <circle class="cls-2" cx="123.5" cy="123" r="69.6"/>
  <path class="cls-4" d="M122.5,71.22c-22.97-.09-46.18,14.67-45.39,41.87.29,9.88,3.51,20.06,8.07,28.6,7.35,13.76,18.76,25.74,32.53,31.86,3.68,1.64,7.85,1.68,11.54.04,21.67-9.64,45.29-41.29,39.88-67.71-4.71-23.01-26.11-34.57-46.63-34.65ZM146.28,138.99c-10.77,7.45-24.21,9.65-15.32-8.68,3.45-8.11,11.83-17.98,20.82-12.92,7.43,5.83.28,17.43-5.5,21.6ZM96.07,117.39c8.99-5.06,17.37,4.8,20.82,12.92,8.89,18.33-4.55,16.13-15.32,8.68-5.78-4.17-12.93-15.76-5.5-21.6Z"/>
  <g id="_56" data-name="56">
    <path class="cls-4" d="M28.17,126.53c1.02,7.54-1.15,10.39-8.69,11.42,7.54-1.02,10.39,1.15,11.42,8.69-1.02-7.54,1.15-10.39,8.69-11.42-7.54,1.02-10.39-1.15-11.42-8.69Z"/>
  </g>
  <g id="_56-2" data-name="56">
    <path class="cls-4" d="M216.2,129.26c-1.42,7.47-4.39,9.49-11.86,8.07,7.47,1.42,9.49,4.39,8.07,11.86,1.42-7.47,4.39-9.49,11.86-8.07-7.47-1.42-9.49-4.39-8.07-11.86Z"/>
  </g>
</svg>