<svg width="83" height="92" viewBox="0 0 83 92" fill="none" xmlns="http://www.w3.org/2000/svg">
<g clip-path="url(#clip0_242_2)">
<path d="M7.18128 19.5268C7.18128 19.5268 0.412659 18.6736 2.18916 12.507C3.96567 6.34034 13.1443 1.95642 24.7467 0.818815C36.349 -0.318786 49.5627 6.34034 38.6075 13.6446C38.6075 13.6446 43.7649 15.9198 48.1167 21.1153C52.4684 26.3108 57.7842 25.6587 67.7753 24.6876C77.7664 23.7165 81.4709 24.0356 82.2765 30.6947C83.0821 37.3538 72.609 42.8684 64.2292 42.3829C55.8493 41.8973 46.1818 40.4337 44.8942 44.8176C43.6065 49.2015 47.311 75.3386 48.5987 82.4763C49.8863 89.621 39.2548 95.3021 34.7378 87.8314C30.2277 80.3607 29.422 69.6506 29.422 69.6506C29.422 69.6506 21.5242 75.1721 15.7264 64.6216C15.7264 64.6216 9.76341 68.1939 4.12404 62.0273C-1.51533 55.8607 2.56788 47.9044 1.89308 44.332C1.21828 40.7597 -2.32096 25.742 7.18128 19.5337V19.5268Z" fill="white"/>
<path d="M38.6081 13.6443C38.6081 13.6443 43.7654 15.9195 48.1172 21.115C52.4689 26.3105 57.7847 25.6585 67.7758 24.6873C77.7669 23.7162 81.4714 24.0353 82.277 30.6944C82.3046 30.8956 82.3184 31.1037 82.3184 31.3048C81.017 27.3857 74.8543 27.2677 70.1238 27.2123C64.2434 27.1429 50.6993 31.4852 44.8671 22.3705C39.0419 13.2558 33.3749 13.1171 33.3749 13.1171C41.0869 10.7448 39.7786 5.9516 31.1715 4.04404C22.5644 2.12954 6.76179 6.61058 4.82691 11.5078C2.89203 16.3981 11.0584 17.4386 11.0584 17.4386C3.195 22.1347 2.39626 33.9199 4.52394 41.5155C6.6585 49.1111 3.1468 54.3968 6.12142 59.62C9.09603 64.8502 14.46 62.1241 14.46 62.1241C12.4631 58.2743 13.2825 54.1193 13.2825 54.1193C13.5786 57.8373 15.8715 62.5264 20.3748 65.9739C24.878 69.4214 29.2022 66.73 29.2022 66.73C28.9268 62.4848 29.5534 54.1262 29.5534 54.1262C29.5534 54.1262 30.3177 65.4398 33.5815 78.2309C35.5646 86.0068 40.5705 89.1838 44.1923 90.4809C41.0731 92.0624 37.0794 91.7364 34.7314 87.8589C30.2213 80.3882 29.4157 69.6781 29.4157 69.6781C29.4157 69.6781 21.5178 75.1996 15.7201 64.649C15.7201 64.649 9.75706 68.2214 4.11769 62.0547C-1.52169 55.8881 2.56152 47.9318 1.88672 44.3595C1.21881 40.7872 -2.32732 25.7694 7.17492 19.5612C7.17492 19.5612 0.4063 18.708 2.18281 12.5414C3.95243 6.37474 13.1379 1.99082 24.7403 0.853217C36.3427 -0.284384 49.5563 6.37474 38.6012 13.679L38.6081 13.6443Z" fill="#E6E1DA"/>
<path d="M7.1268 20.2204C4.68238 19.9014 2.0796 18.41 1.39103 15.892C0.206691 11.5636 3.98004 7.55423 7.25763 5.43163C12.2015 2.23386 18.2472 0.825736 24.0174 0.201443C29.3125 -0.374294 35.3581 0.208374 39.9715 3.12174C41.6998 4.21772 43.3593 5.90332 43.3868 8.08835C43.4212 10.7728 41.0594 12.8052 39.0488 14.1717L38.8491 12.9925C40.9079 13.9081 42.8428 15.2538 44.5849 16.6759C46.1755 17.973 47.5526 19.4435 48.916 20.9765C49.8524 22.0309 50.9679 22.9465 52.2556 23.5361C54.9961 24.8055 58.1566 24.75 61.1037 24.5766C65.0423 24.3338 68.9464 23.765 72.8919 23.6124C75.2882 23.5223 78.0769 23.4876 80.1632 24.8888C82.0568 26.1651 82.7935 28.5652 82.9863 30.7502C83.248 33.7399 81.5266 36.3341 79.3438 38.1862C76.6722 40.4545 73.2775 41.8765 69.876 42.6048C66.0682 43.4164 62.2604 42.9378 58.4182 42.6742C56.4283 42.5355 54.4383 42.4175 52.4484 42.4522C50.8784 42.48 49.1983 42.5632 47.7041 43.1043C46.7126 43.465 45.8312 44.0546 45.5351 45.1228C45.4112 45.5667 45.363 46.4269 45.3423 47.0442C45.2666 49.3056 45.4318 51.5808 45.6109 53.8352C46.0929 59.9602 46.8641 66.0574 47.7179 72.1408C48.0759 74.7004 48.4547 77.26 48.8678 79.8127C49.2327 82.074 49.7698 84.2591 48.8678 86.4857C46.7883 91.598 39.7512 94.0327 35.5647 89.9748C34.2702 88.7193 33.4301 86.999 32.6864 85.3689C31.8739 83.5931 31.2267 81.7411 30.6827 79.8613C29.8564 77.0242 29.278 74.1039 28.92 71.1697C28.8649 70.7119 28.8098 70.2471 28.7754 69.7893L29.8977 70.1986C28.3898 71.246 26.4687 71.7801 24.6509 71.8009C20.2853 71.8495 17.1317 68.5061 15.1348 64.9337L16.0506 65.2667C13.3721 66.8551 9.73647 66.6332 7.06483 65.2181C4.59975 63.914 2.49962 61.6527 1.42545 59.0584C0.475229 56.7693 0.309973 54.2722 0.516544 51.8236C0.695571 49.7287 1.23266 47.6616 1.3084 45.5598C1.34971 44.3875 0.991655 43.2083 0.785085 42.0638C0.144716 38.4706 -0.199568 34.7734 0.192916 31.1317C0.709342 26.3455 2.67176 21.7396 6.76874 19.0135C7.49863 18.5279 8.39376 19.5823 7.657 20.0748C0.957229 24.5281 0.819515 33.4624 1.94877 40.6487C2.12779 41.7724 2.34814 42.8823 2.56159 43.9991C2.85768 45.5737 2.54782 47.176 2.30682 48.7368C1.96942 50.9149 1.6458 53.1346 1.89368 55.3404C2.19665 58.0457 3.39476 60.4249 5.36406 62.2909C7.99439 64.788 12.174 65.9603 15.4654 64.0111C15.8028 63.81 16.2159 64.0389 16.3812 64.3441C18.1645 67.5349 20.9946 70.5801 24.9125 70.4206C25.9385 70.3789 26.9576 70.1223 27.9009 69.713C28.2039 69.5812 28.4931 69.4356 28.7823 69.276C28.8718 69.2275 28.9613 69.172 29.0508 69.1165C29.1334 69.0679 28.8924 69.2275 29.0164 69.1373C29.3951 68.8737 30.0905 68.9708 30.1387 69.5465C30.5312 74.7143 31.7913 80.0763 33.9465 84.7793C35.2204 87.5678 36.9005 90.4326 40.2607 90.6615C42.8566 90.8349 45.4663 89.3921 46.9191 87.2557C47.6559 86.1736 48.0828 84.8833 48.0622 83.5585C48.0415 82.6151 47.7936 81.6578 47.6421 80.7353C47.2634 78.4393 46.9191 76.1363 46.5886 73.8334C45.7417 67.9026 44.9774 61.951 44.4403 55.9786C44.2268 53.5646 44.034 51.1368 43.9927 48.709C43.9652 47.2246 43.8412 45.435 44.5092 44.0615C45.6797 41.6545 48.9022 41.2661 51.2502 41.1343C54.9754 40.9262 58.7143 41.3285 62.4326 41.5851C64.2917 41.7169 66.1164 41.8071 67.9756 41.5574C69.8347 41.3077 71.5561 40.8499 73.2569 40.184C76.1833 39.0255 79.2819 37.2082 80.8793 34.3642C82.0568 32.2693 81.8778 29.4392 80.659 27.379C79.571 25.5269 77.4021 25.1246 75.4259 25.0206C71.7833 24.8263 68.1064 25.3951 64.4776 25.7212C61.3171 26.0056 58.0258 26.3455 54.879 25.7905C52.2005 25.3119 49.8731 24.0633 48.0346 22.0448C46.6231 20.4979 45.2666 18.9857 43.6278 17.6678C42.4503 16.7244 41.2109 15.8643 39.9095 15.1082C39.4206 14.8238 38.9249 14.5463 38.4153 14.3243C37.9884 14.1371 37.7543 13.4573 38.2156 13.1451C39.8131 12.063 41.9064 10.4953 42.0647 8.37275C42.1818 6.72184 40.8873 5.41776 39.641 4.55763C35.723 1.83848 30.2283 1.14482 25.5942 1.47777C20.2922 1.85929 14.7974 3.05238 10.0326 5.48713C6.7412 7.17272 3.02293 9.9751 2.66488 13.9983C2.41011 16.8146 4.90961 18.5557 7.30583 18.8678C8.18031 18.9788 8.07014 20.3661 7.18877 20.2482L7.1268 20.2204Z" fill="black"/>
<path d="M31.1097 13.034C33.5679 12.4305 36.3084 12.3195 38.7115 13.2282C39.2417 13.4294 39.0627 14.234 38.4843 14.1022C36.1087 13.5681 33.6574 13.3392 31.2474 13.8247C30.7379 13.9288 30.6071 13.1519 31.1028 13.027L31.1097 13.034Z" fill="black"/>
<path d="M13.2618 17.7925C12.0568 18.0006 10.8242 18.2919 9.66056 18.6803C9.08905 18.8746 8.53131 19.1104 8.008 19.4087C7.45026 19.7347 7.00269 20.144 6.50693 20.5532C6.09378 20.9001 5.50162 20.3382 5.81836 19.8943C6.58955 18.833 7.96669 18.1809 9.17168 17.7855C10.4524 17.3624 11.7469 17.2237 13.0759 17.0502C13.551 16.9878 13.7575 17.7023 13.2687 17.7925H13.2618Z" fill="black"/>
<path d="M79.2265 30.2299C79.1507 28.794 77.6979 28.1628 76.4929 27.8575C74.9161 27.4622 73.2084 27.5801 71.5972 27.6356C68.292 27.7466 65.0007 28.142 61.7093 28.4888C56.6897 29.016 51.1949 29.1408 47.029 25.7766C45.9687 24.9164 45.1561 23.8621 44.4607 22.6898C43.6964 21.4065 43.0009 20.151 41.7615 19.277C41.2864 18.944 41.6858 18.2365 42.216 18.4862C44.5364 19.603 45.2319 22.5511 46.9602 24.306C48.8813 26.2552 51.5323 27.2194 54.1833 27.6078C57.213 28.0518 60.2427 27.6286 63.2655 27.3026C66.7841 26.928 70.3302 26.5396 73.8694 26.6298C76.183 26.6922 79.8806 27.2402 79.9908 30.2437C80.0115 30.7432 79.2471 30.7224 79.2196 30.2299H79.2265Z" fill="black"/>
<path d="M45.4802 87.4496C43.6142 89.4404 39.4828 90.3977 37.3138 88.4208C34.9796 86.2843 34.0638 82.7813 33.4097 79.7708C32.184 74.0898 31.6125 68.2353 31.0961 62.4571C30.9446 60.7993 30.8413 59.1414 30.7242 57.4836C30.6829 56.887 31.5987 56.9286 31.64 57.5182C31.6263 57.3379 31.6607 57.7194 31.6745 57.8096C31.702 58.094 31.7364 58.3784 31.764 58.6628C31.8397 59.5229 31.9086 60.39 31.9843 61.2501C32.2047 63.7681 32.4525 66.2792 32.7349 68.7902C33.0585 71.6342 33.4165 74.4851 33.9123 77.3014C34.3599 79.8541 34.9107 82.4206 35.9711 84.7929C36.7561 86.5548 37.9198 88.393 39.9992 88.5317C41.6931 88.6427 43.7519 88.1155 44.9638 86.86C45.315 86.4993 45.8314 87.0681 45.4871 87.4358L45.4802 87.4496Z" fill="black"/>
<path d="M27.2602 68.8458C25.3184 69.1302 23.2665 69.1094 21.49 68.1661C19.8168 67.2782 18.4258 65.7521 17.4619 64.129C15.5476 60.9173 14.8178 56.8802 15.1552 53.1691C15.1965 52.6766 15.9952 52.7321 16.009 53.2177C16.0778 56.6999 16.3739 60.2028 18.1091 63.2966C18.9492 64.8018 20.1404 66.203 21.6001 67.1256C23.2527 68.1591 25.2702 68.2909 27.1638 68.0967C27.5838 68.0551 27.6871 68.7765 27.2671 68.8389L27.2602 68.8458Z" fill="black"/>
<path d="M13.1585 64.0456C9.53661 63.9277 6.07312 61.8953 4.18644 58.7807C2.29977 55.6662 2.03811 51.2545 3.78707 47.8764C4.05561 47.3562 4.80615 47.8001 4.57204 48.3204C3.08473 51.5667 3.18113 55.4928 5.15044 58.5241C6.93383 61.2571 9.9291 62.9843 13.1447 63.2964C13.6129 63.345 13.6474 64.0664 13.1585 64.0525V64.0456Z" fill="black"/>
<path d="M7.68408 17.0783C5.62526 16.8216 4.07598 14.9487 4.06221 12.8747C4.04155 10.1902 6.74074 8.74048 8.7789 7.65144C14.1222 4.79356 20.1403 3.27445 26.1859 3.21896C29.6081 3.18427 33.0991 3.57272 36.3767 4.60627C36.9689 4.79356 36.6452 5.63289 36.0668 5.5011C30.9921 4.32187 25.8967 3.89874 20.7256 4.70339C18.1434 5.10571 15.6095 5.79243 13.172 6.73581C10.9066 7.60982 8.41396 8.66418 6.5204 10.2249C5.44623 11.1128 4.75077 12.299 5.11572 13.721C5.43934 14.9765 6.42399 16.0725 7.7185 16.2944C8.20739 16.3777 8.18673 17.1546 7.6703 17.0921L7.68408 17.0783Z" fill="black"/>
<path d="M28.8924 71.1972C28.1006 65.5647 28.2176 59.6824 28.8718 54.0499C28.975 53.162 30.3453 53.28 30.242 54.1678C29.6085 59.6824 29.4708 65.4329 30.242 70.9474C30.3659 71.8284 29.0095 72.085 28.8855 71.1972H28.8924Z" fill="black"/>
<path d="M15.1966 65.0651C14.4667 64.0246 13.9572 62.7969 13.5509 61.5968C12.525 58.5447 12.2151 55.3123 12.463 52.1076C12.5319 51.2197 13.9021 51.3376 13.8333 52.2255C13.606 55.2152 13.8539 58.2811 14.8317 61.1251C15.1071 61.9229 15.4307 62.7067 15.8301 63.4558C15.9403 63.6639 16.0573 63.872 16.1813 64.0732C16.2777 64.2327 16.1055 63.9553 16.2019 64.1079C16.2157 64.1287 16.2295 64.1495 16.2432 64.1703C16.7528 64.8917 15.6993 65.7935 15.1897 65.0651H15.1966Z" fill="black"/>
<path d="M13.296 31.7697C13.7711 26.9419 14.4735 21.9198 17.2759 17.8411C17.7786 17.1127 18.9078 17.8966 18.4052 18.6318C15.7404 22.5094 15.1138 27.2956 14.6663 31.8807C14.5767 32.7617 13.2134 32.6576 13.296 31.7767V31.7697Z" fill="black"/>
<path d="M20.6705 33.8852C20.9046 31.1938 21.0561 28.4815 21.4555 25.811C21.8548 23.1404 22.5227 20.7264 23.5005 18.3194C23.831 17.5009 25.1255 17.9657 24.7881 18.7911C23.8173 21.1704 23.1287 23.6467 22.7775 26.1994C22.4264 28.7521 22.2611 31.3949 22.0339 33.9961C21.9581 34.884 20.5879 34.78 20.6636 33.8921L20.6705 33.8852Z" fill="black"/>
<path d="M27.3151 37.104C27.1429 30.9859 27.198 24.8609 27.4872 18.7428C27.5285 17.855 28.8988 17.959 28.8575 18.8469C28.5752 24.965 28.5201 31.083 28.6853 37.208C28.7129 38.0959 27.3426 37.9849 27.3151 37.104Z" fill="black"/>
</g>
<defs>
<clipPath id="clip0_242_2">
<rect width="92" height="83" fill="white" transform="matrix(0 -1 -1 0 83 92)"/>
</clipPath>
</defs>
</svg>
