<svg xmlns="http://www.w3.org/2000/svg" id="Capa_2" data-name="Capa 2" viewBox="0 0 56.01 55.03"><defs><style>      .cls-1 {        fill: #000;      }      .cls-1, .cls-2, .cls-3, .cls-4 {        stroke-width: 0px;      }      .cls-2 {        fill: #7582e2;      }      .cls-5 {        fill: none;        stroke: #7582e2;        stroke-miterlimit: 10;        stroke-width: .1px;      }      .cls-3 {        fill: #fff;      }      .cls-4 {        fill: #efa6f5;      }    </style></defs><g id="Capa_1-2" data-name="Capa 1"><g><path class="cls-2" d="M1.42,33.13c4.49-4.92,10.29-6.67,16.56-3.96.76.33,1.45-.74.67-1.15-6.17-3.27-14.22-1.48-17.66,4.78-.14.26.21.57.43.33h0Z"></path><path class="cls-2" d="M.52,32.51c4.92-8.42,12.17-19.06,23.38-12.66.72.41,1.27-.62.64-1.09C14.22,11.15,2.94,22.86.01,32.3c-.09.3.35.48.5.21h0Z"></path><path class="cls-2" d="M28.05,36.96c2.27,2.73,3.91,4.97,3.29,8.73-.59,3.55-3.04,5.58-4.71,8.52-.15.26.15.57.41.41,3.26-1.91,5.54-6.63,5.55-10.35,0-2.89-1.32-6.74-4.38-7.61-.18-.05-.28.17-.17.3h0Z"></path><path class="cls-2" d="M27.24,54.97c5.67-3.11,11.71-7.29,14.4-13.42,2.04-4.64,1.97-10.74-2.08-14.26-.36-.32-1,.09-.71.54,7.75,11.83-3.19,20.04-12,26.48-.39.28-.05.9.38.66h0Z"></path><path class="cls-2" d="M41.39,5.82c.98,1.47,2.46,2.65,3.72,3.88,1.4,1.37,2.78,2.78,4.26,4.06.51.44,1.39-.13.99-.76l-.22-.35c-.15-.23-.56-.29-.7,0l-.16.35.99-.13c-1.34-1.42-2.82-2.74-4.24-4.08-1.28-1.2-2.53-2.65-4.04-3.56-.36-.22-.83.22-.59.59h0Z"></path><path class="cls-4" d="M16.64,34.41c-1.67.07-3.36,1.08-4.89,1.71-1.43.59-3.03,1.02-4.24,1.98-.24.19-.05.67.26.63,1.54-.21,2.96-1.05,4.38-1.67,1.52-.66,3.41-1.17,4.63-2.32.12-.11.03-.33-.13-.32h0Z"></path><path class="cls-4" d="M7.48,39.2c1.25.2,2.52.21,3.79.26.7.03.7-1.08,0-1.09-1.23-.02-2.46-.09-3.68.04-.41.04-.59.71-.11.79h0Z"></path><path class="cls-4" d="M10.21,39.11c-1.18,2.08-2.32,4.17-3.45,6.27-1,1.84-2.25,3.68-2.86,5.69-.1.34.38.66.62.36,1.32-1.63,2.14-3.68,3.11-5.54,1.1-2.12,2.2-4.24,3.26-6.38.22-.45-.42-.84-.67-.39h0Z"></path><path class="cls-4" d="M3.46,52.49c2.19-1.02,4.25-2.33,6.33-3.55,1.85-1.09,3.82-2.08,5.51-3.41.49-.38-.14-1.01-.62-.8-2.06.9-3.96,2.26-5.88,3.43s-3.92,2.3-5.74,3.66c-.4.3-.07.89.39.67h0Z"></path><path class="cls-4" d="M14.68,45.57l-.02,1.45c0,.44-.09.88.14,1.27.15.26.55.26.7,0,.22-.39.15-.83.14-1.27l-.02-1.45c0-.6-.93-.6-.94,0h0Z"></path><path class="cls-4" d="M15.38,48.91c2.68-2.94,5.31-5.92,7.84-8.99.45-.54-.31-1.32-.78-.78-2.61,3.02-5.11,6.13-7.56,9.27-.27.35.19.85.5.5h0Z"></path><path class="cls-2" d="M15.89,33.8c1.15,1.32,2.48,2.5,3.74,3.72,1.1,1.05,2.25,2.55,3.63,3.2.4.19.86-.2.62-.62-.79-1.42-2.44-2.5-3.64-3.59-1.26-1.15-2.49-2.33-3.85-3.36-.4-.3-.8.32-.51.66h0Z"></path><path class="cls-2" d="M17.07,33.18C24.22,17.64,37.42,6.1,53.93,1.5c.78-.22.45-1.42-.33-1.21-16.73,4.51-30.68,16.53-37.3,32.56-.18.44.57.76.77.33h0Z"></path><path class="cls-2" d="M24.1,40.1c15.2-7.48,26.39-22.81,31.87-38.5.27-.76-.94-1.09-1.21-.33-5.8,16.6-16.84,28.34-31,38.26-.34.24-.05.75.33.57h0Z"></path><path class="cls-2" d="M35.28,16.46c1.22-.29,2.65.2,3.14,1.44.42,1.08-.1,2.45-1.15,2.94s-2.4.09-2.97-.9c-.62-1.08-.11-2.16.56-3.05.31-.41-.29-.98-.7-.7-1.43.96-1.65,3.17-.69,4.55s3.07,1.84,4.52.95,2.01-2.9,1.23-4.4-2.66-2.07-4.17-1.4c-.34.15-.09.66.24.58h0Z"></path><path class="cls-3" d="M34.13,18.97c.47.35.94.71,1.42,1.06.4.3.85.77,1.35.85.15.02.26-.11.2-.26-.21-.45-.78-.75-1.17-1.03-.5-.37-1-.74-1.51-1.11-.3-.22-.58.28-.29.49h0Z"></path><path class="cls-3" d="M34.71,17.68c.54.47,1.08.94,1.62,1.41.44.38.86.86,1.42,1.05.1.03.17-.08.13-.16-.27-.54-.84-.91-1.29-1.3-.51-.44-1.03-.89-1.54-1.33-.23-.2-.57.14-.34.34h0Z"></path><path class="cls-2" d="M53.94,1.06c0,.17.08.29.24.36.1.05.22.08.33.11.15.03.3-.03.35-.17.05-.13.02-.31-.12-.37-.13-.06-.3-.14-.44-.14-.07,0-.16,0-.22.04-.06.03-.14.11-.14.18h0Z"></path><path class="cls-1" d="M54.24.87s0-.01,0-.01,0,.01,0,.01h0Z"></path><path class="cls-1" d="M54.05.68s0-.01,0-.01,0,.01,0,.01h0Z"></path><path class="cls-2" d="M53.35.95c.22-.07.44-.15.66-.22.2-.07.42-.11.57-.28.1-.11.07-.32-.09-.35-.22-.04-.41.04-.63.11s-.44.15-.66.22c-.33.11-.19.64.14.52h0Z"></path><path class="cls-2" d="M53.55.76c.32-.06.66-.1.97-.2.28-.1.26-.58-.07-.55s-.7.13-1.05.19c-.37.07-.21.64.16.56h0Z"></path><g><path class="cls-5" d="M54.43,1.94c-.26.13-.52.26-.77.39"></path><path class="cls-5" d="M53.94,2.06c-.27-.09-.55-.18-.82-.27"></path><path class="cls-5" d="M53.51,1.79c-.13-.26-.26-.52-.39-.77"></path><path class="cls-5" d="M53.39,1.29c.09-.27.18-.55.27-.82"></path><path class="cls-5" d="M53.66.86c.26-.13.52-.26.77-.39"></path><path class="cls-5" d="M54.16.75c.27.09.55.18.82.27"></path><path class="cls-5" d="M54.59,1.02c.13.26.26.52.39.77"></path><path class="cls-5" d="M54.7,1.51c-.09.27-.18.55-.27.82"></path></g></g></g></svg>