<svg xmlns="http://www.w3.org/2000/svg" id="Capa_2" data-name="Capa 2" viewBox="0 0 38.9 49.96"><defs><style>      .cls-1 {        stroke: #fff;        stroke-miterlimit: 10;        stroke-width: .15px;      }      .cls-1, .cls-2 {        fill: #fff;      }      .cls-3 {        fill: #7582e2;      }      .cls-3, .cls-2 {        stroke-width: 0px;      }    </style></defs><g id="Capa_1-2" data-name="Capa 1"><g><path class="cls-1" d="M18.85,4.93s5.22,11.08-2.68,15.45-8.17,2.68-8.17,2.68c0,0,10.02,5.22,11.89,18.35,0,0,3.79-17.65,10.56-19.55l1.12-.79s-10.59-1.03-12.71-16.14Z"></path><path class="cls-1" d="M18.95,6.86l-.85,5.33-2.96,6.11-3.25,2.08-1.44,1.66-1.76.65-.35.48,3.62,3.54,5.24-1.61s3.49-4.94,3.6-5.15.74-3.81.74-3.99.04-3.82-.04-3.98-2.54-5.13-2.54-5.13Z"></path><g><path class="cls-2" d="M3.36,34.26c.72,1.11,1.75,2.02,2.68,2.96.74.75,1.54,2.02,2.64,2.13.19.02.41-.19.39-.39-.12-1.11-1.39-1.89-2.15-2.63-.94-.92-1.87-1.95-2.98-2.66-.36-.23-.81.23-.58.58h0Z"></path><path class="cls-2" d="M4.7,39.88c.81-1.1,1.46-2.32,2.13-3.51.6-1.08,1.3-2.15,1.53-3.38.07-.36-.35-.66-.64-.37-.95.93-1.48,2.19-2.07,3.36s-1.21,2.36-1.66,3.61c-.16.45.47.63.71.3h0Z"></path><path class="cls-2" d="M3.02,37.69c2.04-.45,4.36-.72,6.23-1.68.23-.12.12-.5-.13-.49-2.1.06-4.27.94-6.27,1.52-.41.12-.24.73.18.64h0Z"></path><path class="cls-2" d="M34.59,4.11v-.13c-.03-.48-.76-.49-.76,0,.02,1.93.45,4.06.95,5.91.16.6,1.19.5,1.11-.15-.23-1.92-.61-4.06-1.32-5.86l-.69.29.05.12c.15.32.67.16.66-.18h0Z"></path><path class="cls-2" d="M31.29,9.08c1.42-.38,2.84-.75,4.25-1.16,1.13-.33,2.35-.53,3.25-1.31.26-.23.02-.57-.25-.61-1.22-.15-2.44.44-3.59.81-1.31.42-2.61.88-3.92,1.33-.59.21-.36,1.11.26.95h0Z"></path><path class="cls-2" d="M33.18,10.47c.75-1.01,1.51-2.01,2.24-3.04.66-.93,1.4-1.81,1.74-2.91.07-.24-.23-.52-.45-.35-.9.68-1.46,1.61-2.1,2.53-.75,1.09-1.48,2.2-2.21,3.31-.33.5.44.92.79.46h0Z"></path><path class="cls-2" d="M30.18,43.21c.8.97,1.6,1.95,2.41,2.92.73.86,1.42,1.85,2.32,2.53.27.21.59-.18.44-.44-.54-.99-1.45-1.82-2.19-2.66-.84-.94-1.69-1.86-2.54-2.79-.28-.3-.7.14-.44.44h0Z"></path><path class="cls-2" d="M30.8,49.74c1.45-2.89,3.58-6.01,4.22-9.21.05-.24-.27-.5-.46-.27-2.07,2.51-3.15,6.11-4.47,9.06-.22.48.48.91.72.42h0Z"></path><path class="cls-2" d="M29.29,46.77c1.95-.4,4.04-.64,5.87-1.43.32-.14.14-.64-.17-.63-1.99.06-4.01.73-5.94,1.19-.57.13-.32.98.24.87h0Z"></path><path class="cls-2" d="M.15,8.97c1.3.68,2.6,1.36,3.9,2.03,1.14.59,2.29,1.32,3.54,1.64.25.06.52-.29.28-.48-1.01-.8-2.27-1.26-3.44-1.81-1.33-.63-2.67-1.24-4-1.86-.32-.15-.61.32-.28.49H.15Z"></path><path class="cls-2" d="M2.79,13.76c1.3-1.86,3.08-3.76,3.74-5.95.07-.24-.22-.36-.38-.22-1.76,1.46-2.84,3.85-4.06,5.76-.29.45.41.84.7.41h0Z"></path><path class="cls-2" d="M2.13,6.73c.8,2.01,1.52,4.3,2.73,6.1.23.35.79.14.69-.29-.53-2.1-1.76-4.18-2.72-6.1-.19-.38-.87-.11-.7.3h0Z"></path><path class="cls-3" d="M.32,22.53c5.31,2.27,11.15.31,14.76-4.06,4.06-4.91,4.93-11.79,3.6-17.87-.17-.78-1.48-.62-1.41.19.43,5.03.66,10.14-2.08,14.64-3.15,5.17-8.5,7.53-14.38,5.95-.67-.18-1.17.87-.49,1.16H.32Z"></path><path class="cls-3" d="M.38,23.34c12.01.1,15.96,10.12,18.7,20.19.28,1.03,1.88.59,1.6-.44-1.54-5.66-3.2-11.74-7.37-16.1-3.22-3.36-8.36-6.06-13.03-4.41-.4.14-.35.76.1.76H.38Z"></path><path class="cls-3" d="M21.24,43.4c.11-4.52,1.3-9.02,3.57-12.94s5.42-5.89,8.34-9c.36-.38,0-1.09-.53-.92-8.69,2.81-12.82,14.64-12.23,22.86.04.54.84.55.85,0h0Z"></path><path class="cls-3" d="M18.09.39c.61,8.83,4.32,20.48,14.64,21.55.92.1,1.14-1.46.22-1.62-10.21-1.78-11.77-11.64-14.08-20.04-.12-.42-.81-.35-.78.11h0Z"></path></g></g></g></svg>