<svg xmlns="http://www.w3.org/2000/svg" id="Capa_2" data-name="Capa 2" viewBox="0 0 104.09 53.4"><defs><style>      .cls-1 {        fill: #7582e2;      }      .cls-1, .cls-2, .cls-3 {        stroke-width: 0px;      }      .cls-2 {        fill: #fff;      }      .cls-3 {        fill: #efa6f5;      }    </style></defs><g id="Capa_1-2" data-name="Capa 1"><g><g><path class="cls-1" d="M26.41,42.5c-3.88-2.76-8-5.14-12.04-7.67-4.64-2.91-11.04-6.8-10.7-13.19.11-2.35,1.14-4.19,3.08-5.51,6.62,1.05,8.33,3.27,5.15,6.69-4.82,4.36-9.78-1.89-10.05-6.14-.38-5.93,4.14-10.68,7.89-14.66.76-.81-.46-2.03-1.22-1.22C3.24,6.42-5.08,17.93,4.13,24.32c4.97,3.45,13.99-.96,10.52-7.48-3.65-6.86-12.46-1.3-12.66,4.81-.14,4.35,2.6,8.03,5.78,10.69,5.24,4.38,12.09,7.89,18.17,10.98.54.28.96-.46.47-.81h0Z"></path><path class="cls-1" d="M11.18.79c-1.69-.41-3.4-.25-5.01.4-1.14.46-2.94,1.21-2.98,2.63,0,.2.18.38.38.38,1.13-.01,1.98-1.09,2.97-1.55,1.42-.66,2.96-.85,4.51-.84.57,0,.71-.87.14-1.01h0Z"></path><path class="cls-1" d="M10.02,1.19c-.3,1.12-.38,2.27-.45,3.43-.07,1.06-.25,2.1.31,3.05.18.3.58.27.76,0,.63-.9.52-1.99.53-3.05.02-1.15.02-2.29-.19-3.43-.09-.5-.84-.45-.96,0h0Z"></path></g><g><path class="cls-3" d="M29.16,8.79c-.27,14.29.74,28.69,1.26,42.97.04.98,1.56.99,1.53,0-.53-14.29-.57-28.73-1.89-42.97-.05-.57-.89-.59-.9,0h0Z"></path><path class="cls-3" d="M32.05,51.91c7.35,1.11,15.3.18,22.72.07s15.37.35,22.82-.68c.79-.11.51-1.23-.18-1.3-7.73-.74-15.86.13-23.63.34-7.11.2-14.75-.36-21.74,1.01-.27.05-.28.52,0,.56h0Z"></path><path class="cls-3" d="M77.11,50.21c.64-13.25-.98-27.03-1.81-40.27-.06-.97-1.56-.98-1.52,0,.59,13.3.47,27.22,2.53,40.38.07.47.78.33.8-.11h0Z"></path><path class="cls-3" d="M30.15,9.34c7.05-.23,14.07-.62,21.12-.44,7.02.18,14.08,1.53,21.07,1.52.7,0,.84-1.02.16-1.22-6.69-1.91-14.32-1.86-21.23-1.99s-14.23.13-21.24,1.23c-.51.08-.38.91.12.89h0Z"></path><path class="cls-2" d="M33.65,17.14c9.64.74,19.84,1.62,29.5,1.06l-.48-1.16-.3.35c-.26.31-.08.72.31.76l.46.04c.88.08.85-1.26,0-1.36-9.61-1.12-19.84-.85-29.5-.68-.63.01-.62.93,0,.97h0Z"></path><path class="cls-2" d="M34.05,23.51c10.4.71,20.99,1.67,31.41,1.48l-.39-1.42-.67.33c-.37.18-.23.7.11.81l.74.25c1,.34,1.37-1.39.2-1.5-10.37-.98-20.99-.83-31.41-.9-.61,0-.6.91,0,.95h0Z"></path><path class="cls-2" d="M34.44,31.95c5.28.4,10.61.28,15.9.28,4.64,0,9.48.43,14.06-.38.55-.1.55-1.02,0-1.11-4.59-.76-9.42-.27-14.06-.21-5.29.07-10.62.02-15.9.48-.6.05-.61.89,0,.94h0Z"></path><path class="cls-2" d="M36,40.73c9.93-.01,20.33.49,30.19-.7.9-.11.94-1.38,0-1.43-9.92-.62-20.27.51-30.19,1.08-.68.04-.69,1.06,0,1.06h0Z"></path><path class="cls-2" d="M38.3,45.93c7.93.37,16.45.36,24.19-1.64.74-.19.61-1.44-.18-1.36-8.05.75-15.89,2.09-24,2.29-.46.01-.46.69,0,.71h0Z"></path><path class="cls-3" d="M36.33,10.12c-.82-2.07-2.72-4.29-1.25-6.56,1.05-1.61,2.97-1.15,3.76.4.59,1.16.37,2.56.79,3.77.14.42.69.41.84,0,1.04-2.87-1.36-8.21-5.04-6.26s-1.97,6.81.19,9.06c.28.29.87,0,.71-.41h0Z"></path><path class="cls-3" d="M46.7,10.83c-.9-2.59-2.92-5.76-.67-8.27,1.42-1.59,3.45-1.26,4.39.6.75,1.48.33,3.16.43,4.73.05.69,1.05.89,1.24.17.87-3.18-.58-9.38-5.14-7.81-4.8,1.64-3.31,7.86-1.11,10.95.29.4,1.04.18.86-.36h0Z"></path><path class="cls-3" d="M57.07,11.53c-.79-2.72-2.65-6.91.79-8.62,1.59-.79,2.95.16,3.16,1.84.16,1.26-.22,2.48-.53,3.68-.23.91,1.08,1.25,1.39.38,1.02-2.85.91-8.59-3.66-7.55-5.06,1.16-3.88,7.35-1.95,10.6.25.42.94.15.8-.34h0Z"></path><path class="cls-3" d="M67.47,11.73c-1.07-1.64-3.03-4.97-.61-6.43,1.52-.92,2.56.8,2.64,2.09.06,1.05-.4,1.96-.11,2.98.08.28.46.39.67.18,2.06-2.15.52-7.69-3.02-6.81-1.43.35-2.4,1.82-2.56,3.22-.23,2,1.09,3.73,2.24,5.22.33.43,1.07.04.75-.44h0Z"></path></g><path class="cls-1" d="M85.76,47.67c1.82-4.08,2.68-8.6,3.82-12.91,1.3-4.92,2.84-9.87,3.7-14.89.13-.75-.9-1.06-1.15-.32-1.65,4.81-2.64,9.9-3.85,14.84-1.06,4.34-2.46,8.73-2.81,13.19-.01.15.23.22.29.08h0Z"></path><path class="cls-1" d="M76.74,44.81c3-9.12,4.95-18.69,7.35-27.98.21-.79-1.03-1.13-1.23-.34-2.3,9.32-5.13,18.68-6.83,28.12-.08.46.56.65.71.19h0Z"></path><path class="cls-1" d="M92.93,19.39c-2.08-2.8-6.33-3.57-9.59-3.15-1.2.15-1,1.83.22,1.65,3.4-.5,5.78.78,8.77,2.09.35.15.89-.2.6-.6h0Z"></path><path class="cls-1" d="M85.46,46.08c-.96,2.41-3.25,4.41-5.94,3.22-1.16-.51-1.94-1.48-2.18-2.73-.19-.98.33-1.86.02-2.81-.12-.35-.5-.53-.84-.34-1.4.77-1.11,3.03-.64,4.31.59,1.6,1.9,2.84,3.55,3.31,3.21.91,6.87-1.45,6.36-4.96-.03-.19-.27-.13-.33,0h0Z"></path><path class="cls-1" d="M93.23,19.7c.36-1.19-.22-2.49-.52-3.66-.39-1.52-.8-3.03-1.22-4.54-.28-1.01-1.88-.58-1.58.44.44,1.5.9,3,1.37,4.5.36,1.15.55,2.57,1.49,3.39.16.14.4.09.46-.12h0Z"></path><path class="cls-1" d="M90.91,11c-.14-.1-.22-.19-.39-.25-.11-.04-.23-.07-.35-.11-.28-.08-.56-.15-.85-.18-.35-.03-.66.29-.7.62-.04.35.16.67.51.78.27.08.57.1.85.13s.52,0,.8-.07c.45-.13.45-.67.12-.92h0Z"></path><path class="cls-1" d="M88.84,10.59c-1.39.39-2.52,1.89-3.51,2.88-.61.62-1.24,1.22-1.84,1.86-.42.45-.62.68-.46,1.32.04.14.16.28.31.31.63.14.86-.03,1.3-.48.61-.62,1.21-1.26,1.81-1.89.96-1,2.45-2.19,2.8-3.59.06-.24-.16-.48-.41-.41h0Z"></path><path class="cls-1" d="M91.34,14.09c-.59-.34-1.3-.32-1.96-.43-.74-.12-1.47-.31-2.18-.54-.87-.27-1.25,1.1-.38,1.36,1.26.37,3.3.96,4.52.24.23-.14.24-.49,0-.63h0Z"></path><path class="cls-1" d="M87.01,41.69c-2.68-1.07-6.13-2.3-9.03-2.37-.59-.01-.88.89-.31,1.15,2.67,1.24,6.32,1.68,9.25,1.91.43.03.43-.56.09-.69h0Z"></path><path class="cls-1" d="M87.49,40.04c-1.07-.84-2.46-.99-3.76-1.3-1.72-.41-3.44-.79-5.17-1.16-.95-.2-1.35,1.27-.4,1.45,1.74.34,3.48.68,5.22.99,1.31.23,2.73.67,4.04.32.12-.03.19-.22.08-.31h0Z"></path><path class="cls-1" d="M86.51,43.79c-1.45-.67-2.99-1.12-4.52-1.6s-3.11-1.22-4.68-1.16c-.57.02-.74.73-.28,1.04,1.29.88,3.08,1.1,4.58,1.49s3.09.83,4.68,1.03c.42.05.59-.62.22-.8h0Z"></path><path class="cls-3" d="M85.55,39.64c2.26-6.6,4.49-13.84,5.61-20.73.09-.55-.64-.76-.84-.23-2.45,6.54-4.1,13.92-5.41,20.78-.08.42.5.58.64.18h0Z"></path><path class="cls-3" d="M86.77,17.21c-2.56,6.9-3.86,14.43-5.58,21.58-.19.8,1.04,1.14,1.24.34,1.71-7.18,3.95-14.52,4.79-21.86.03-.27-.36-.28-.45-.06h0Z"></path><path class="cls-2" d="M80.36,48.59c-.16-.01-.37-.19-.52-.27-.16-.09-.33-.2-.47-.32-.32-.28-.38-.72-.78-.9-.19-.09-.39-.05-.51.13-.39.59.24,1.25.72,1.59.25.17.51.28.81.32.32.05.52-.08.81-.14.25-.05.17-.4-.06-.42h0Z"></path><path class="cls-2" d="M78.19,45.88c.14-.02.22-.05.33-.14.12-.1.16-.24.18-.39.02-.17.01-.33-.09-.49-.15-.23-.49-.31-.69-.09-.08.08-.14.18-.17.29-.02.08-.02.18-.03.27,0,.05,0,.11.02.16.02.06.04.12.09.17.04.06.05.07.02.02-.04-.06-.03-.04.05.06l.09.07c.05.03.15.07.22.06h0Z"></path><path class="cls-2" d="M80.99,35.69c.75-5.1,1.84-9.99,3.56-14.86.22-.63-.79-.91-1.01-.28-1.67,4.86-2.7,9.95-2.83,15.1,0,.16.26.2.28.04h0Z"></path><path class="cls-2" d="M84.86,19.38c.13-.19.25-.46.22-.7-.02-.2-.13-.4-.34-.45s-.39.04-.52.21c-.15.19-.18.48-.17.71.01.19.13.38.32.42s.38-.03.49-.2h0Z"></path><path class="cls-2" d="M91.52,17.59c-.1-.4-.12-.81-.24-1.21-.1-.32-.18-.66-.51-.78-.1-.03-.22.02-.27.11-.17.32.01.63.15.93.17.37.43.69.62,1.05.07.14.28.04.25-.1h0Z"></path><path class="cls-1" d="M98.08,4.74c.72,1.11,1.75,2.03,2.67,2.96.73.74,1.55,2.04,2.65,2.13.2.02.41-.19.39-.39-.1-1.1-1.39-1.9-2.14-2.63-.94-.92-1.87-1.94-2.98-2.65-.36-.23-.81.23-.58.58h0Z"></path><path class="cls-1" d="M99.42,10.36c.81-1.1,1.47-2.32,2.14-3.51.61-1.08,1.29-2.15,1.53-3.38.07-.36-.35-.66-.64-.37-.95.93-1.48,2.19-2.07,3.36s-1.21,2.36-1.66,3.61c-.16.45.47.63.71.3h0Z"></path><path class="cls-1" d="M97.74,8.17c2.04-.45,4.36-.72,6.23-1.68.23-.12.12-.5-.13-.49-2.1.06-4.27.94-6.27,1.52-.41.12-.24.73.18.64h0Z"></path><path class="cls-1" d="M99.52,20.87v-.13c-.03-.48-.76-.49-.76,0,.02,1.92.43,4.07.95,5.91.17.59,1.19.5,1.11-.15-.21-1.91-.62-4.07-1.32-5.86l-.69.29.05.12c.15.32.67.16.66-.18h0Z"></path><path class="cls-1" d="M96.22,25.84c1.42-.38,2.84-.75,4.25-1.16,1.13-.33,2.35-.53,3.25-1.32.26-.23.02-.57-.25-.61-1.22-.15-2.44.44-3.59.8-1.31.42-2.61.88-3.92,1.33-.59.21-.36,1.11.26.95h0Z"></path><path class="cls-1" d="M98.11,27.22c.75-1.01,1.51-2.01,2.24-3.04.66-.93,1.4-1.81,1.74-2.91.07-.24-.23-.52-.45-.35-.9.68-1.46,1.61-2.1,2.53-.75,1.09-1.48,2.2-2.21,3.31-.33.5.44.92.79.46h0Z"></path><path class="cls-1" d="M95.85,46.65c.8.97,1.6,1.95,2.41,2.92.73.86,1.42,1.85,2.32,2.53.27.21.59-.18.44-.44-.54-.99-1.45-1.82-2.19-2.66-.84-.94-1.69-1.86-2.54-2.79-.28-.3-.7.14-.44.44h0Z"></path><path class="cls-1" d="M96.46,53.19c1.45-2.89,3.58-6.01,4.22-9.21.05-.24-.27-.5-.46-.27-2.07,2.51-3.15,6.11-4.47,9.06-.22.48.48.91.72.42h0Z"></path><path class="cls-1" d="M94.96,50.21c1.95-.4,4.04-.64,5.87-1.43.32-.14.14-.64-.17-.63-1.99.06-4.01.73-5.94,1.19-.57.13-.32.98.24.87h0Z"></path></g></g></svg>