<svg xmlns="http://www.w3.org/2000/svg" id="Capa_2" data-name="Capa 2" viewBox="0 0 95.04 76.87"><defs><style>      .cls-1 {        stroke: #fff;        stroke-miterlimit: 10;        stroke-width: .1px;      }      .cls-1, .cls-2 {        fill: #fff;      }      .cls-3, .cls-4, .cls-5, .cls-2 {        stroke-width: 0px;      }      .cls-4 {        fill: #5cb7fd;      }      .cls-5 {        fill: #7582e2;      }    </style></defs><g id="Capa_1-2" data-name="Capa 1"><g><path class="cls-5" d="M89.03,22.14c.72,1.11,1.75,2.03,2.67,2.96.73.74,1.55,2.04,2.65,2.13.2.02.41-.19.39-.39-.1-1.1-1.39-1.9-2.14-2.63-.94-.92-1.87-1.94-2.98-2.65-.36-.23-.81.23-.58.58h0Z"></path><path class="cls-5" d="M90.37,27.76c.81-1.1,1.47-2.32,2.14-3.51.61-1.08,1.29-2.15,1.53-3.38.07-.36-.35-.66-.64-.37-.95.93-1.48,2.19-2.07,3.36s-1.21,2.36-1.66,3.61c-.16.45.47.63.71.3h0Z"></path><path class="cls-5" d="M88.69,25.57c2.04-.45,4.36-.72,6.23-1.68.23-.12.12-.5-.13-.49-2.1.06-4.27.94-6.27,1.52-.41.12-.24.73.18.64h0Z"></path><path class="cls-3" d="M.04.58c-.55,8.37,4.74,20.79,15.25,17.07,3.54-1.25,6.25-4.49,6.59-8.27s-1.7-7.81-5.91-7.41-7.62,5.74-8.92,9.31c-1.52,4.19-1.51,9.05,1.43,12.63,5.83,7.09,16.48,2.92,17.53-5.62.09-.76-1.11-.76-1.2,0-.89,7.21-9.85,10.93-15.07,5.27-2.49-2.7-2.97-6.66-2.11-10.12.64-2.59,2.59-7.31,5.19-8.52,1.31-1.69,2.79-1.3,4.46,1.18,3.08.43,4.15,1.87,3.21,4.32-.43,1.78-1.47,3.28-2.84,4.45-2.51,2.13-5.96,2.75-9.02,1.45C2.55,13.75.84,6.58,1.24.58,1.29-.19.09-.19.04.58H.04Z"></path><path class="cls-5" d="M56.85,9.2c-2.68-.51-5.44-.55-8.14-.13-7.85,1.24-14.91,6.71-18.04,14.01-3.13,7.31-2.21,16.21,2.39,22.7,3.04,4.29,7.48,7.44,12.22,9.75,6.41,3.12,14.08,4.77,20.62,1.95,3.46-1.49,6.34-4.15,8.46-7.27,2.11-3.12,3.49-6.69,4.44-10.34,1.16-4.48,1.67-9.25.47-13.72-1.4-5.23-5.11-9.68-9.71-12.53-4.6-2.85-10.03-4.17-15.44-4.38"></path><path class="cls-4" d="M28.11,31.95c-2.48.62-9.03,1.3-9.96,4.36-.68,2.22,1.48,3.42,3.25,3.91,11.81,3.24,25.83,2.58,37.88,1.53,1.19-.1,1.2-1.97,0-1.87-7.48.67-14.98.87-22.48.44-3.64-.21-9.05.07-12.43-1.26l-1.93-.3c-1.88-2.33-1.62-3.58.77-3.73,1.24-.97,3.78-1.33,5.22-1.93.69-.29.45-1.35-.32-1.16h0Z"></path><path class="cls-4" d="M55.06,41.38c5.73,1.31,12.03.95,17.85.5,4.66-.36,11.29-.44,15.55-2.43,8.24-3.86-4.33-8.83-8.16-8.81-1.13,0-1.11,1.66,0,1.74,1.71.13,3.84.28,5.4,1.17,2.12.41,2.4,1.92.83,4.52l-1.83.38c-2.78,1.39-7.84,1.29-10.86,1.59-6.23.61-12.49.13-18.69.66-.37.03-.51.6-.09.69h0Z"></path><path class="cls-3" d="M73.01,28.03c-.64-10.06-10.97-15.87-20.21-14.14-.88.16-.51,1.5.37,1.34,9.6-1.8,16.43,4.15,19.23,12.88.1.32.63.28.61-.08h0Z"></path><path class="cls-3" d="M54.32,52.56c-4.07,1.23-7.94.9-10.2-3.17-.36-.65-1.36-.07-1,.58,2.16,3.87,7.69,6.14,11.45,3.02.2-.17-.02-.51-.25-.43h0Z"></path><path class="cls-2" d="M65.68,53.15c.97.64,2.44.06,3.27-.58,1-.77,1.53-1.89,1.64-3.13.07-.74-1.09-.74-1.16,0-.09.94-.53,1.82-1.3,2.38s-1.58.52-2.4.85c-.21.08-.26.34-.06.47h0Z"></path><g><path class="cls-2" d="M44.27,17.71c-1.36-.61-2.6-.6-3.34.02-.74.62-.97,1.85-.63,3.31"></path><path class="cls-2" d="M44.45,17.52c-.91-.98-2.82-1.06-3.85-.23-1.16.93-1.14,2.57-.85,3.89.16.73,1.27.42,1.11-.31-.19-.86-.33-2.13.45-2.77.86-.7,1.99-.13,2.95-.15.23,0,.34-.28.18-.44h0Z"></path></g><g><path class="cls-2" d="M40.03,21.22c1.36.6,2.6.59,3.34-.04.75-.63.99-1.85.64-3.31"></path><path class="cls-2" d="M39.85,21.4c.92.97,2.83,1.04,3.86.21,1.16-.93,1.15-2.57.87-3.89-.15-.73-1.27-.42-1.11.31.18.87.31,2.13-.47,2.77-.87.71-1.99.14-2.96.16-.23,0-.34.28-.18.44h0Z"></path></g><path class="cls-2" d="M87.19,39.25c1.17-.22,2.35-1.13,2.55-2.36.22-1.3-.67-2.42-1.61-3.19-.29-.23-.7.17-.41.41.79.64,1.65,1.56,1.48,2.67s-1.22,1.67-2.11,2.24c-.13.08-.04.26.1.24h0Z"></path><circle class="cls-3" cx="30.6" cy="41.38" r="4.75"></circle><circle class="cls-3" cx="81.54" cy="40.38" r="3.38"></circle><path class="cls-1" d="M35.19,24.19s-2.35,1.92-1.31,3.16,2.09-.55,2.09-.55c0,0,1.76-1.71.85-2.25s-1.63-.37-1.63-.37Z"></path><path class="cls-1" d="M48.01,29.37s3.17-1.68,2.25-3.37-2.55.15-2.55.15c0,0-2.44,1.57-1.5,2.41s1.81.81,1.81.81Z"></path><g><path class="cls-3" d="M87.18,67c0,.25-.13.47-.38.58-.29.13-.59.23-.9.33-2.8.87-5.6,1.75-8.41,2.62-6.52,2.03-13.04,4.06-19.56,6.09-.27.09-.55.18-.83.24-.35.07-.67-.12-.76-.42-.09-.31.05-.63.38-.78.23-.11.48-.17.72-.25,9.35-2.92,18.7-5.83,28.05-8.74.3-.09.61-.2.92-.25.39-.06.72.21.75.59Z"></path><path class="cls-3" d="M75.72,60.99c.03.29.02.48.07.65.3,1.14.61,2.28.91,3.42.21.8.4,1.61.59,2.42.04.15.07.32.05.47-.03.24-.18.4-.41.48-.2.06-.46-.03-.58-.23-.08-.13-.16-.28-.2-.43-.58-2.09-1.17-4.18-1.74-6.27-.08-.28-.12-.56-.15-.85-.08-.87.57-1.39,1.41-1.14.3.09.59.25.87.4,1.09.6,2.17,1.22,3.27,1.81.96.52,1.87,1.1,2.68,1.83.12.11.25.19.38.28.02.01.06,0,.15,0-.04-.22-.06-.43-.13-.63-.59-1.62-1.19-3.23-1.79-4.84-.03-.09-.08-.18-.1-.27-.1-.33.03-.66.32-.81.28-.14.63-.05.82.28.23.42.44.85.61,1.3.54,1.5,1.07,3.01,1.59,4.51.13.39.25.79.33,1.2.07.34.11.7.08,1.04-.05.61-.59.86-1.11.55-.14-.08-.26-.19-.38-.29-.25-.2-.51-.39-.74-.61-1.45-1.38-3.16-2.36-4.93-3.27-.59-.31-1.17-.63-1.84-.99Z"></path><path class="cls-3" d="M71.45,66.89c-1.01.36-1.91.68-2.78.99-.15.41.03.73.12,1.06.07.25.17.48.23.73.06.28-.08.53-.32.62-.24.1-.51.03-.67-.21-.14-.21-.27-.44-.35-.68-.43-1.3-.8-2.63-.98-3.99-.1-.73-.17-1.46-.19-2.19-.04-1.55,1.24-2.8,2.79-2.77.48.01.89.18,1.17.55.25.32.47.68.65,1.05.18.37.32.76.44,1.16.47,1.7,1.16,3.31,1.86,4.92.06.15.14.29.18.44.09.35-.05.66-.35.8-.25.11-.58.03-.76-.24-.16-.24-.28-.5-.4-.76-.21-.46-.4-.93-.65-1.49ZM70.96,65.65c-.33-1.02-.63-1.95-.94-2.88-.08-.24-.21-.46-.35-.68-.18-.29-.4-.37-.74-.26-.88.27-1.18.75-1.11,1.44.11.95.2,1.89.32,2.84.02.18.12.34.19.55.91-.22,1.71-.59,2.63-1.01Z"></path><path class="cls-3" d="M56.36,71.27c.14.5.26.92.39,1.35.04.15.11.3.15.45.12.47-.04.82-.41.93-.33.1-.65-.08-.82-.48-.06-.15-.09-.3-.14-.45-.57-1.79-1.15-3.57-1.72-5.36-.19-.61-.36-1.22-.54-1.83-.04-.12-.09-.24-.1-.37-.06-.87-.07-1.14.79-1.52.46-.2.96-.34,1.46-.43.71-.13,1.32.14,1.77.7.16.2.31.41.42.64.55,1.12.89,2.31,1.11,3.54.15.87-.17,1.49-.89,1.94-.27.17-.55.32-.82.49-.19.11-.37.24-.63.4ZM56.04,69.91c.38-.22.71-.41,1.04-.61.28-.16.38-.4.32-.73-.19-.97-.45-1.93-.86-2.83-.38-.84-.55-1.1-1.72-.79-.17.05-.32.16-.47.24.25,1.18,1.21,3.86,1.69,4.71Z"></path><path class="cls-3" d="M62.73,71.3c.81-.53,1.64-.79,2.31-1.35.26-.22.57-.18.79,0,.28.25.37.67.16.95-.13.17-.31.32-.5.42-.62.34-1.24.66-1.87.96-.28.14-.59.24-.89.33-.42.11-.77-.05-1-.38-.18-.26-.32-.55-.44-.85-.97-2.4-1.77-4.85-2.24-7.39-.04-.19-.08-.38-.08-.57-.02-.33.18-.59.46-.64.25-.05.48.08.61.36.07.14.11.3.15.45.14.52.28,1.05.41,1.57.46,1.93,1.17,3.77,1.87,5.62.05.14.15.27.28.52Z"></path></g><path class="cls-3" d="M74.9,11.11c.44-.83.79-1.7,1.13-2.57s.79-1.74.67-2.68c-.03-.22-.27-.36-.46-.19-.65.6-.83,1.41-1.1,2.23-.33.97-.64,1.95-.85,2.96-.07.35.42.61.61.26h0Z"></path><path class="cls-3" d="M77.17,12.87c1.65-1.12,3.54-2.33,4.77-3.92.19-.25-.04-.56-.33-.43-1.85.8-3.49,2.33-4.98,3.65-.38.33.12.99.54.71h0Z"></path><path class="cls-3" d="M79.42,16.11c3.06-.23,6.2-.66,9.15-1.51.36-.1.3-.67-.09-.66-3.07.08-6.19.61-9.17,1.31-.47.11-.38.89.12.85h0Z"></path></g></g></svg>