<svg xmlns="http://www.w3.org/2000/svg" id="Capa_2" data-name="Capa 2" viewBox="0 0 61.77 58.44"><defs><style>      .cls-1 {        fill: #7582e2;      }      .cls-1, .cls-2, .cls-3 {        stroke-width: 0px;      }      .cls-2 {        fill: #fff;      }      .cls-3 {        fill: #efa6f5;      }    </style></defs><g id="Capa_1-2" data-name="Capa 1"><g><polygon class="cls-3" points="31.37 15.49 8.15 40.37 42.77 25.66 31.37 15.49"></polygon><g><path class="cls-1" d="M5.6,42.97c7.23-6.08,13.51-13.65,20-20.51,6.06-6.39,12.99-12.6,18.26-19.67.43-.58-.46-1.14-.94-.73-7.17,6.06-13.33,13.91-19.73,20.77-6.02,6.46-12.68,12.75-17.95,19.85-.17.23.18.44.37.28h0Z"></path><path class="cls-1" d="M18.9,4.37c7.54,7.54,15.68,14.55,23.62,21.66.81.73,2.02-.47,1.2-1.2-7.95-7.12-15.82-14.45-24.15-21.13-.46-.37-1.11.23-.67.67h0Z"></path><path class="cls-2" d="M41.01,38.15c-.53-.85-1.32-1.55-1.66-2.51-.36-1.03-.1-2.52,1.22-2.59,2.66-.15,2.12,3.25,1.85,4.88-.05.3.28.53.52.31,2.46-2.23.97-6.98-2.63-6.58-1.44.16-2.39,1.39-2.38,2.81,0,1.72,1.16,3.3,2.56,4.21.31.2.71-.2.51-.51h0Z"></path><path class="cls-2" d="M41,39.32c-2.82,1.26-1.63,5.55,1.45,5.12s3.63-4.98,1.16-6.5c-.47-.29-.89.26-.69.69.63,1.38,1.79,3.01.14,4.27-1.9,1.44-3.69-1.65-1.64-2.86.47-.28.06-.94-.42-.72h0Z"></path><path class="cls-2" d="M51.28,36.15c-.5-1.74,1.39-3.34,2.95-2.23.65.46.94,1.19.69,1.96s-.93,1.13-1.58,1.54c-.32.21-.34.86.12.93,1.32.18,2.42-.89,2.8-2.1.4-1.31-.12-2.71-1.25-3.48-2.51-1.68-5.55.81-4.59,3.61.19.54,1.03.32.87-.24h0Z"></path><path class="cls-2" d="M51.91,37.68c-1.33.63-2.72,1.37-3.12,2.91-.31,1.17.23,2.37,1.3,2.93s2.37.4,3.35-.22,2.46-2.29,2.05-3.5c-.11-.31-.42-.43-.71-.29-.65.31-.79,1.01-1.18,1.58-.53.78-1.31,1.44-2.3,1.35-1.12-.1-1.5-1.06-1.07-2.05.4-.92,1.26-1.5,2.06-2.05.4-.27.06-.85-.38-.65h0Z"></path><path class="cls-2" d="M57.47,46.31c1.44-.85,3.23.37,2.76,2.04-.21.75-.82,1.25-1.6,1.3s-1.33-.42-2-.67c-.35-.13-.65.26-.58.58.29,1.24,1.87,1.63,2.98,1.47,1.33-.19,2.37-1.19,2.66-2.5.61-2.84-2.5-4.91-4.95-3.47-.81.47-.08,1.73.73,1.25h0Z"></path><path class="cls-2" d="M56.06,46.76c-.93-.98-2.24-1.8-3.64-1.54-1.22.23-2.27,1.13-2.43,2.4-.15,1.13.46,2.33,1.6,2.67.89.26,2.55-.05,2.44-1.26-.03-.3-.27-.52-.58-.44-.48.11-.84.51-1.37.42-.73-.13-.96-.99-.72-1.62.7-1.82,3.14-1.05,4.15-.08.36.34.88-.18.54-.54h0Z"></path><path class="cls-2" d="M46.55,52.63c-3.09.28-3.54,4.55-.65,5.61,3.23,1.19,5.41-3.11,4.33-5.72-.22-.54-1-.48-1.04.14-.11,1.57.09,3.97-2.01,4.33-.87.15-1.73-.44-1.9-1.31-.19-.94.55-1.81,1.4-2.11.47-.17.44-.99-.13-.94h0Z"></path><path class="cls-2" d="M45.51,51.89c-2.19-.53-.82-3.56,1.12-2.3,1.12.73,1.01,2.46,2.19,2.94.17.07.4-.05.49-.2.57-1.04-.59-2.71-1.34-3.44-.85-.81-2.16-1.29-3.29-.79-2.31,1.01-1.85,4.35.55,4.84.68.14.97-.88.29-1.05h0Z"></path><path class="cls-2" d="M33.08,43.08c-.33-1.78-.7-3.81-2.39-4.82-1.4-.84-3.13-.5-4.13.77s-.89,3.14.06,4.44c1.07,1.48,3,2.12,4.76,1.81.75-.13.55-1.29-.18-1.3-1.32-.02-2.69-.15-3.52-1.34-.63-.91-.72-2.14.08-2.99.93-.98,2.22-.64,3.07.23.9.93,1.2,2.19,1.48,3.4.11.5.86.29.77-.21h0Z"></path><path class="cls-2" d="M30.68,45c-2.84.84-2.18,4.82.53,5.3,1.39.24,2.63-.59,3.22-1.82.71-1.5.42-3.42-.43-4.8-.36-.58-1.22-.2-1.08.46.3,1.46,1.27,4.02-.73,4.79-.78.3-1.72-.1-2.05-.88-.37-.88.15-1.78.86-2.3.35-.26.16-.89-.31-.75h0Z"></path><path class="cls-1" d="M18.42,4.06c-4.67,12.59-9.35,25.19-14.02,37.78-.27.72.89,1.04,1.16.32,4.67-12.59,9.35-25.19,14.02-37.78.27-.72-.89-1.04-1.16-.32-4.67,12.59-9.35,25.19-14.02,37.78l1.16.32c4.67-12.59,9.35-25.19,14.02-37.78.27-.72-.89-1.04-1.16-.32h0Z"></path><path class="cls-1" d="M18.8,4.5c8.36-.09,16.94-1.64,25.21-2.8.95-.13.74-1.81-.23-1.69-8.27.95-17.01,1.62-25.1,3.62-.48.12-.38.87.12.87h0Z"></path><path class="cls-1" d="M5.61,42.52c13.46-4.25,26.87-10.79,39.66-16.72.81-.38.23-1.8-.61-1.46-13.08,5.31-27.01,10.64-39.3,17.58-.32.18-.11.71.25.6h0Z"></path><path class="cls-1" d="M45.18,25c.08-8.07-.14-16.12-.46-24.18-.04-1.05-1.67-1.06-1.64,0,.21,8.07.53,16.13,1.15,24.18.05.61.95.62.96,0h0Z"></path><path class="cls-1" d="M5.93,41.16c-5.22,2.82-8.71,10.44-2.98,14.7,6.08,4.52,13.5-.95,15.44-7.09.26-.81-1.03-1.38-1.4-.59-2.09,4.5-6.54,9.65-12.11,6.95-3.17-1.53-4.25-4.85-2.94-8.09.9-2.22,2.69-3.77,4.37-5.39.27-.26-.07-.67-.39-.5h0Z"></path><path class="cls-1" d="M14.6,54.09c2.18-1.75,6.03-6.39,4.04-9.45-1.84-2.84-5.7.24-7.01,2-2.02,2.71-1.77,6.73,1.53,8.28,2.99,1.4,7.65.1,9.36-2.76.21-.35-.14-.85-.55-.71-2.04.69-3.45,2.41-5.74,2.59-2.89.23-5.36-1.96-4.46-4.97.33-1.11,1.08-2.06,1.92-2.83.37-.34,1.2-1.06,1.79-1.19.94-.2,2.29.97,2.37,1.9.19,2.3-2.19,5.25-3.73,6.67-.33.3.15.74.48.48h0Z"></path><path class="cls-1" d="M19.94,54.45c7.81-4.37,13.6-11.65,22.08-14.99,2.17-.86,4.45-1.59,6.81-1.62,5.17-.06,8.83,4.51,5.96,9.48-3.36,5.83-10.86,4.88-16.47,5.57-.36.04-.53.61-.09.7,5.68,1.18,13.1.66,17.11-4.15,2.91-3.51,3.02-9.21-1.05-11.9-4.46-2.96-10.87-.66-15.14,1.46-7.24,3.59-13.72,9.52-19.55,15.01-.24.23.07.62.35.46h0Z"></path></g><polygon class="cls-3" points="20.27 4.35 31.29 13.9 43.65 1.55 20.27 4.35"></polygon></g></g></svg>