<svg width="258" height="257" viewBox="0 0 258 257" fill="none" xmlns="http://www.w3.org/2000/svg">
<path d="M129.136 256.227C199.879 256.227 257.227 198.869 257.227 128.113C257.227 57.3584 199.879 0 129.136 0C58.3933 0 1.04492 57.3584 1.04492 128.113C1.04492 198.869 58.3933 256.227 129.136 256.227Z" fill="#6976DF"/>
<path d="M256.193 128.114C256.193 144.933 252.881 161.597 246.437 177.142C240.002 192.687 230.56 206.812 218.673 218.711C206.776 230.611 192.653 240.044 177.111 246.48C161.568 252.915 144.918 256.237 128.091 256.237V128.124H256.182L256.193 128.114Z" fill="url(#paint0_linear_140_449)"/>
<path d="M129.136 0C145.953 0 162.613 3.31175 178.156 9.74719C193.698 16.1826 207.821 25.6269 219.718 37.5157C231.615 49.415 241.047 63.5396 247.481 79.0745C253.916 94.6199 257.237 111.283 257.237 128.103H129.146V0H129.136Z" fill="url(#paint1_linear_140_449)"/>
<path d="M129.135 256.237C112.308 256.237 95.6582 252.926 80.1155 246.48C64.5728 240.034 50.4507 230.6 38.5639 218.711C26.6667 206.812 17.2345 192.687 10.8002 177.142C4.36586 161.597 1.05469 144.944 1.05469 128.114H129.146V256.227L129.135 256.237Z" fill="url(#paint2_linear_140_449)"/>
<path d="M1.04492 128.113C1.04492 111.294 4.3561 94.6303 10.7904 79.085C17.2248 63.5396 26.6673 49.415 38.5541 37.5262C50.4514 25.6269 64.5735 16.1931 80.1057 9.75764C95.6588 3.31175 112.319 0 129.136 0V128.113H1.04492Z" fill="url(#paint3_linear_140_449)"/>
<path d="M24.5884 133.535L24.5049 131.53L43.505 130.798L43.5781 132.804L24.578 133.535H24.5884Z" fill="white"/>
<path d="M26.3535 107.136L45.2074 109.58L44.9985 111.22L28.1397 121.365L43.4421 123.35L43.181 125.345L24.3271 122.9L24.5361 121.26L41.4053 111.095L26.1029 109.11L26.3535 107.146V107.136Z" fill="white"/>
<path d="M34.2397 83.3265L49.1347 97.8272L48.4453 99.6868L27.6904 100.982L28.4425 98.945L46.4503 97.8481L33.5189 85.2384L34.2292 83.3265H34.2397Z" fill="white"/>
<path d="M58.8381 76.0762L60.3109 76.9956L53.1976 88.4143L37.0596 78.3641L43.9535 67.2902L45.4263 68.2095L39.5978 77.5806L45.3427 81.1535L50.5445 72.8063L51.9964 73.7152L46.7946 82.0624L52.7903 85.7921L58.8381 76.0762Z" fill="white"/>
<path d="M59.9039 73.8196L59.3085 72.1899C61.2096 72.0959 63.5702 70.9885 65.2728 69.1602C67.6961 66.5484 67.6543 64.3963 66.2755 63.1218C62.4526 59.5697 56.833 70.3407 51.6834 65.5559C49.6361 63.6546 49.3436 60.4159 52.6339 56.8744C54.0963 55.2968 56.0704 54.0954 57.8775 53.6984L58.5878 55.2864C56.7076 55.7565 55.0259 56.8012 53.8874 58.034C51.5163 60.5831 51.5998 62.777 52.9995 64.062C56.8225 67.614 62.4839 56.8848 67.5603 61.5965C69.6076 63.4979 69.8479 66.7574 66.5367 70.3198C64.5938 72.4093 61.9512 73.7779 59.9143 73.8196H59.9039Z" fill="white"/>
<path d="M66.4007 46.9077L61.0631 50.9299L60.0186 49.5404L72.3023 40.2947L73.3468 41.6842L68.0092 45.7063L78.4128 59.4966L76.8042 60.7084L66.4007 46.9182V46.9077Z" fill="white"/>
<path d="M76.8252 37.8501L78.58 36.868L87.9181 53.4372L86.1633 54.4193L76.8252 37.8501Z" fill="white"/>
<path d="M101.978 37.1397L103.785 36.4815L106.271 43.2931C105.133 45.4138 103.012 47.054 100.547 47.9629C95.1155 49.9479 89.7257 47.5555 87.8142 42.3215C85.9027 37.0875 88.4827 31.7803 93.9352 29.7849C96.6405 28.7924 99.3041 28.8029 101.508 29.9312L100.766 31.5609C98.7191 30.6311 96.7136 30.6729 94.6141 31.4355C90.1957 33.0444 88.1067 37.3695 89.663 41.632C91.2089 45.8631 95.6064 47.848 99.9935 46.2392C101.707 45.6123 103.148 44.6512 104.161 43.1573L101.968 37.1397H101.978Z" fill="white"/>
<path d="M122.816 37.8919L112.308 39.2291L110.689 44.5572L108.61 44.8183L114.825 24.8538L116.789 24.6031L127.819 42.3633L125.72 42.6349L122.816 37.8814V37.8919ZM121.886 36.3666L116.068 26.8074L112.841 37.5158L121.897 36.3561L121.886 36.3666Z" fill="white"/>
<path d="M128.937 33.0339C129.407 27.4865 133.982 23.7673 139.696 24.2479C142.453 24.4882 144.866 25.6165 146.391 27.6014L145.012 28.761C143.602 27.0582 141.764 26.2224 139.602 26.0343C135.027 25.6373 131.308 28.6984 130.922 33.1906C130.535 37.6829 133.69 41.329 138.265 41.726C140.427 41.914 142.38 41.4021 144.062 39.9291L145.221 41.3081C143.383 43.0005 140.813 43.7423 138.024 43.502C132.342 43.011 128.467 38.5709 128.937 33.013V33.0339Z" fill="white"/>
<path d="M152.931 26.6298L154.884 27.1104L150.382 45.581L148.429 45.1004L152.931 26.6298Z" fill="white"/>
<path d="M157.986 37.3277C160.211 32.2504 165.747 30.1714 171.022 32.4802C176.245 34.7682 178.511 40.232 176.276 45.3407C174.041 50.4493 168.494 52.4865 163.271 50.1986C157.997 47.8898 155.772 42.405 157.986 37.3277ZM174.427 44.5258C176.245 40.3678 174.479 35.9487 170.291 34.1204C166.081 32.2817 161.611 33.9637 159.793 38.1217C157.976 42.2797 159.772 46.7092 163.971 48.5479C168.149 50.3762 172.599 48.6733 174.417 44.5258H174.427ZM174.709 28.9073L177.07 29.9416L171.69 31.2579L169.946 30.4953L174.709 28.8969V28.9073Z" fill="white"/>
<path d="M199.526 50.7941L187.849 65.7962L186.543 64.7828L186.365 45.1004L176.891 57.2713L175.304 56.0386L186.982 41.0364L188.287 42.0498L188.486 61.7531L197.96 49.5822L199.526 50.8045V50.7941Z" fill="white"/>
<path d="M216.657 70.7377L220.396 77.5179C223.342 82.846 221.901 88.3307 217.002 91.0366C212.103 93.7424 206.703 92.0499 203.757 86.7219L200.018 79.9417L216.657 70.7377ZM205.23 85.7816C207.674 90.2112 212.051 91.5067 216.051 89.3023C220.041 87.098 221.274 82.6893 218.83 78.2597L216.114 73.3391L202.514 80.861L205.23 85.7816Z" fill="white"/>
<path d="M227.499 93.1469L228.157 95.0482L210.191 101.275L209.533 99.3734L227.499 93.1469Z" fill="white"/>
<path d="M213.837 104.325L215.508 104.795C214.464 106.383 213.983 108.953 214.464 111.398C215.164 114.887 216.929 116.12 218.767 115.755C223.886 114.741 218.454 103.876 225.358 102.508C228.105 101.964 230.894 103.625 231.845 108.358C232.263 110.458 232.085 112.767 231.344 114.47L229.641 114.114C230.362 112.307 230.497 110.343 230.163 108.692C229.484 105.286 227.667 104.064 225.797 104.44C220.679 105.454 226.058 116.329 219.269 117.677C216.522 118.22 213.743 116.507 212.793 111.732C212.239 108.933 212.678 105.997 213.837 104.325Z" fill="white"/>
<path d="M216.375 135.625H214.641L214.589 122.179L233.599 122.106L233.652 135.155H231.918L231.876 124.123L225.118 124.154L225.16 133.995H223.447L223.405 124.164L216.344 124.196L216.385 135.635L216.375 135.625Z" fill="white"/>
<path d="M229.411 159.016L210.85 154.89L211.205 153.27L228.92 144.683L213.858 141.329L214.297 139.365L232.858 143.492L232.503 145.111L214.777 153.72L229.839 157.073L229.411 159.006V159.016ZM233.589 148.59L233.84 147.451C235.605 147.9 236.535 149.081 236.221 150.491C235.856 152.132 233.882 152.529 233.652 153.563C233.474 154.357 233.996 155.036 234.989 155.307L234.738 156.446C233.025 156.007 232.095 154.827 232.409 153.417C232.774 151.776 234.749 151.4 234.978 150.345C235.156 149.551 234.634 148.882 233.589 148.59Z" fill="white"/>
<path d="M218.402 162.516C223.342 165.023 225.107 170.675 222.507 175.805C219.927 180.892 214.338 182.846 209.377 180.318C204.415 177.8 202.681 172.138 205.261 167.05C207.862 161.91 213.461 159.998 218.402 162.505V162.516ZM210.275 178.531C214.317 180.579 218.84 179.064 220.898 175C222.977 170.905 221.546 166.34 217.503 164.292C213.461 162.244 208.928 163.78 206.849 167.875C204.781 171.95 206.233 176.484 210.275 178.542V178.531Z" fill="white"/>
<path d="M202.149 203.709L196.205 208.672C191.536 212.568 185.875 212.192 182.292 207.888C178.709 203.594 179.357 197.963 184.036 194.066L189.98 189.104L202.149 203.709ZM185.238 195.32C181.352 198.559 180.903 203.103 183.827 206.613C186.752 210.124 191.306 210.489 195.182 207.261L199.506 203.657L189.562 191.726L185.238 195.331V195.32Z" fill="white"/>
<path d="M161.82 209.779L161.036 208.222L173.038 202.152L181.624 219.119L169.988 225L169.204 223.444L179.044 218.46L175.994 212.422L167.22 216.862L166.447 215.337L175.221 210.897L172.035 204.597L161.83 209.758L161.82 209.779Z" fill="white"/>
<path d="M159.73 211.158L159.396 212.861C157.725 211.952 155.135 211.659 152.732 212.338C149.306 213.3 148.22 215.159 148.732 216.966C150.142 221.992 160.545 215.723 162.446 222.503C163.209 225.199 161.767 228.114 157.109 229.419C155.041 230.005 152.732 230.005 150.977 229.399L151.197 227.675C153.056 228.249 155.02 228.239 156.639 227.779C159.981 226.839 161.057 224.927 160.545 223.099C159.135 218.074 148.721 224.29 146.841 217.614C146.089 214.919 147.583 212.015 152.262 210.698C155.009 209.925 157.976 210.134 159.73 211.168V211.158Z" fill="white"/>
<path d="M130.514 219.296L141.074 218.502L142.975 213.268L145.064 213.112L137.815 232.721L135.841 232.867L125.751 214.564L127.861 214.407L130.514 219.296ZM131.371 220.874L136.687 230.715L140.479 220.184L131.381 220.874H131.371Z" fill="white"/>
<path d="M110.669 212.338L114.116 219.004C114.607 219.014 115.098 219.056 115.63 219.14L120.686 219.86L121.532 213.895L123.527 214.177L120.853 233.003L113.802 232C109.018 231.321 106.459 228.49 107.023 224.447C107.441 221.49 109.3 219.641 112.162 219.14L108.486 212.036L110.658 212.349L110.669 212.338ZM109.018 224.718C108.59 227.727 110.335 229.733 114.105 230.276L119.109 230.987L120.456 221.553L115.453 220.842C111.692 220.31 109.447 221.772 109.029 224.729L109.018 224.718Z" fill="white"/>
<path d="M92.9848 206.394L94.8963 213.644C95.3768 213.77 95.8364 213.916 96.3482 214.104L101.132 215.901L103.253 210.259L105.133 210.97L98.4373 228.761L91.7732 226.254C87.2503 224.551 85.3597 221.229 86.8012 217.416C87.8562 214.616 90.0601 213.216 92.9744 213.362L90.9271 205.621L92.9848 206.394ZM88.6918 218.126C87.6159 220.968 88.8903 223.308 92.4521 224.645L97.1839 226.432L100.537 217.51L95.8051 215.723C92.2432 214.386 89.7468 215.326 88.6918 218.116V218.126Z" fill="white"/>
<path d="M83.9599 212.829C80.8472 217.416 75.0187 218.45 70.2556 215.211C65.5343 212.004 64.3122 206.216 67.4458 201.609C70.5794 197.002 76.4079 196.009 81.1292 199.217C85.8923 202.455 87.0831 208.254 83.9599 212.84V212.829ZM69.1066 202.748C66.558 206.498 67.4876 211.179 71.2688 213.738C75.0709 216.319 79.7713 215.483 82.32 211.722C84.8687 207.971 83.9181 203.281 80.116 200.7C76.3348 198.13 71.6553 198.987 69.1066 202.748Z" fill="white"/>
<path d="M56.6246 204.127L55.2354 202.675L67.7384 190.755L60.3954 183.045L61.6488 181.843L70.3811 191.005L56.6141 204.127H56.6246Z" fill="white"/>
<path d="M44.3924 190.159L43.2852 188.477L57.7102 178.97L51.8503 170.08L53.3022 169.119L60.2693 179.691L44.3924 190.159Z" fill="white"/>
<path d="M44.0588 172.347C38.8988 174.353 33.509 171.898 31.4199 166.528C29.3518 161.21 31.6288 155.746 36.8202 153.73C42.0115 151.714 47.3804 154.2 49.4486 159.518C51.5377 164.887 49.2188 170.33 44.0588 172.336V172.347ZM37.5513 155.6C33.321 157.24 31.4408 161.618 33.0912 165.87C34.752 170.153 39.1077 172.127 43.3381 170.487C47.5684 168.847 49.4382 164.438 47.7773 160.165C46.127 155.913 41.7817 153.96 37.5513 155.6Z" fill="white"/>
<path d="M129 202.205C169.698 202.205 202.691 169.206 202.691 128.5C202.691 87.7941 169.698 54.7953 129 54.7953C88.3006 54.7953 55.3076 87.7941 55.3076 128.5C55.3076 169.206 88.3006 202.205 129 202.205Z" stroke="white" stroke-width="2"/>
<path d="M116.32 87.495C111.222 94.2334 107.316 102.142 103.044 109.424C98.7191 116.789 94.3634 124.144 90.0808 131.54C89.5899 132.386 90.8851 133.139 91.3865 132.303C95.7527 124.958 100.056 117.572 104.391 110.207C108.726 102.842 113.666 95.6647 117.072 87.9233C117.301 87.4114 116.664 87.0457 116.33 87.4845L116.32 87.495Z" fill="white"/>
<path d="M91.0839 133.619C100.84 134.988 111.452 133.18 121.125 131.655C122.242 131.477 121.772 129.775 120.655 129.952C110.826 131.54 100.871 131.352 91.0839 132.783C90.6765 132.846 90.6661 133.556 91.0839 133.619Z" fill="white"/>
<path d="M122.524 131.07C116.267 138.362 110.282 145.863 104.286 153.385C98.7399 160.353 92.504 167.165 87.6678 174.645C87.2709 175.251 88.1692 175.941 88.6706 175.418C95.2511 168.554 100.808 160.374 106.689 152.894C112.246 145.832 117.771 138.759 123.057 131.498C123.286 131.185 122.775 130.788 122.513 131.08L122.524 131.07Z" fill="white"/>
<path d="M88.7016 175.836C95.6895 172.211 102.072 166.946 108.328 162.203C114.209 157.742 119.985 153.155 125.647 148.423C131.308 143.69 137.189 138.55 142.767 133.4C148.344 128.249 154.518 123.318 158.999 117.353C159.354 116.883 158.644 116.162 158.163 116.517C152.7 120.727 148.042 126.233 142.976 130.934C137.189 136.315 131.256 141.559 125.198 146.647C119.139 151.735 112.517 157.031 105.989 161.983C100.139 166.423 93.7467 170.414 88.2629 175.293C87.9599 175.564 88.3464 176.014 88.6807 175.836H88.7016Z" fill="white"/>
<path d="M124.613 114.323C130.797 114.355 136.991 113.665 143.174 113.456C148.721 113.268 154.507 113.843 159.981 113.038C160.514 112.965 160.493 112.088 159.981 111.994C154.267 110.918 147.979 111.617 142.192 111.931C136.301 112.244 130.326 112.6 124.561 113.937C124.341 113.989 124.394 114.334 124.613 114.334V114.323Z" fill="white"/>
<path d="M158.675 117.154C159.187 116.34 159.709 115.274 159.887 114.323C159.918 114.156 159.908 113.937 159.751 113.811C159.626 113.707 159.542 113.665 159.386 113.655C159.208 113.655 159.02 113.759 158.937 113.916C158.446 114.773 158.153 115.901 158.007 116.872C157.955 117.269 158.435 117.531 158.675 117.154Z" fill="white"/>
<path d="M127.089 114.595C132.886 109.727 138.119 104.106 143.509 98.7883C148.324 94.0244 154.152 89.3754 157.996 83.7862C158.289 83.3579 157.704 82.7624 157.276 83.0654C151.677 86.9099 147.05 92.7394 142.287 97.566C136.97 102.946 131.35 108.191 126.493 113.999C126.138 114.417 126.671 114.961 127.099 114.605L127.089 114.595Z" fill="white"/>
<path d="M115.181 88.1322C121.584 89.4695 128.28 87.3696 134.568 86.1577C142.318 84.6638 150.079 83.2012 157.809 81.6027C158.999 81.3625 158.488 79.5656 157.307 79.7849C150.528 81.0804 143.76 82.4908 137.001 83.8698C129.867 85.3219 122.629 87.4009 115.306 87.1711C114.763 87.1502 114.638 88.0069 115.181 88.1218V88.1322Z" fill="white"/>
<path d="M89.0151 133.515C90.1745 135.155 91.6786 136.565 93.0679 138.007C94.6033 139.595 96.1179 141.225 97.7161 142.75C98.2697 143.283 99.0844 142.468 98.5621 141.904C95.7941 138.874 92.8276 135.447 89.5165 133.003C89.224 132.783 88.7957 133.212 89.0046 133.515H89.0151Z" fill="white"/>
<path d="M97.4448 143.189C101.675 143.513 106.062 143.168 110.293 142.907C111.306 142.844 111.327 141.277 110.293 141.308C105.999 141.465 101.56 141.559 97.3299 142.311C96.8076 142.405 96.9747 143.147 97.4448 143.189Z" fill="white"/>
<path d="M157.62 83.0653C158.132 85.3219 159.197 87.4845 160.085 89.6157C160.775 91.2872 161.234 93.22 162.477 94.5468C162.676 94.7557 163.062 94.599 163.052 94.3065C162.989 92.4782 161.934 90.7962 161.224 89.1247C160.326 86.9935 159.542 84.716 158.299 82.7728C158.069 82.4176 157.526 82.6474 157.62 83.0549V83.0653Z" fill="white"/>
<path d="M145.263 112.182C148.637 109.632 151.541 106.488 154.539 103.521C157.537 100.554 160.89 97.7436 163.428 94.39C163.741 93.9721 163.114 93.3558 162.707 93.6692C159.354 96.2078 156.523 99.5718 153.567 102.549C150.611 105.527 147.446 108.441 144.898 111.805C144.731 112.025 145.054 112.338 145.274 112.182H145.263Z" fill="white"/>
<path d="M95.6276 134.486C97.3302 137.464 98.8866 140.64 100.955 143.387C101.049 143.523 101.237 143.408 101.174 143.262C99.7953 140.107 97.8107 137.192 96.0559 134.246C95.8992 133.974 95.4814 134.215 95.6381 134.497L95.6276 134.486Z" fill="white"/>
<path d="M99.0842 134.424C100.463 137.255 102.155 140.441 104.223 142.823C104.39 143.011 104.735 142.813 104.652 142.572C103.534 139.626 101.539 136.617 99.69 134.068C99.4289 133.703 98.8753 134.016 99.0842 134.424Z" fill="white"/>
<path d="M103.837 133.097C105.498 136.179 106.991 139.543 109.07 142.384C109.216 142.583 109.613 142.478 109.509 142.196C108.203 138.905 106.166 135.834 104.422 132.752C104.203 132.376 103.628 132.71 103.837 133.097Z" fill="white"/>
<path d="M108.966 132.689C109.53 134.079 110.125 135.458 110.731 136.826C111.337 138.195 111.807 139.678 112.82 140.734C112.935 140.849 113.186 140.765 113.165 140.587C113.039 139.281 112.329 138.101 111.775 136.931C111.055 135.416 110.324 133.912 109.551 132.428C109.383 132.104 108.809 132.334 108.955 132.679L108.966 132.689Z" fill="white"/>
<path d="M113.969 132.397C114.543 133.859 115.024 135.468 115.933 136.764C116.1 137.004 116.455 136.858 116.403 136.565C116.1 135.019 115.275 133.546 114.627 132.115C114.46 131.749 113.823 132.01 113.969 132.386V132.397Z" fill="white"/>
<path d="M117.322 131.06C117.677 132.062 117.959 133.191 118.523 134.089C118.669 134.319 118.983 134.162 118.941 133.912C118.784 132.877 118.283 131.864 117.917 130.892C117.781 130.527 117.186 130.683 117.322 131.06Z" fill="white"/>
<path d="M132.395 110.123C132.802 110.792 133.283 111.419 133.763 112.046C134.181 112.589 134.557 113.09 135.132 113.487C135.278 113.592 135.508 113.414 135.445 113.247C135.205 112.589 134.829 112.098 134.4 111.555C133.92 110.938 133.44 110.301 132.886 109.747C132.635 109.497 132.207 109.82 132.395 110.123Z" fill="white"/>
<path d="M134.62 107.115C135.33 108.243 136.04 109.371 136.75 110.51C137.377 111.503 137.952 112.62 138.798 113.435C138.944 113.571 139.216 113.435 139.153 113.226C138.777 112.108 138.014 111.126 137.377 110.144C136.646 109.027 135.925 107.909 135.194 106.78C134.964 106.425 134.39 106.749 134.62 107.115Z" fill="white"/>
<path d="M137.231 105.098C137.847 106.477 138.683 107.783 139.445 109.089C140.124 110.249 140.74 111.513 141.701 112.474C141.889 112.662 142.234 112.474 142.161 112.203C141.774 110.897 140.97 109.758 140.281 108.598C139.497 107.303 138.756 105.945 137.847 104.733C137.575 104.367 137.053 104.67 137.241 105.088L137.231 105.098Z" fill="white"/>
<path d="M140.783 99.8331C142.444 102.988 143.854 106.686 146.12 109.444C146.256 109.612 146.538 109.434 146.475 109.236C145.473 105.798 143.185 102.549 141.503 99.4048C141.242 98.9242 140.511 99.3525 140.772 99.8331H140.783Z" fill="white"/>
<path d="M143.989 95.2154C144.689 96.8347 145.451 98.4227 146.214 100.011C146.882 101.39 147.457 102.884 148.449 104.064C148.616 104.263 148.909 104.043 148.857 103.824C148.522 102.309 147.666 100.94 146.966 99.5614C146.172 97.9943 145.368 96.4273 144.511 94.902C144.313 94.5468 143.822 94.8602 143.979 95.2154H143.989Z" fill="white"/>
<path d="M146.151 91.0574C148.084 95.2154 149.859 99.5301 152.304 103.416C152.45 103.657 152.889 103.5 152.774 103.218C151.186 98.8823 148.857 94.8079 146.747 90.7127C146.538 90.3157 145.974 90.6604 146.151 91.0574Z" fill="white"/>
<path d="M150.654 89.647C151.448 91.4022 152.408 93.0737 153.359 94.7557C154.195 96.2496 154.968 97.8063 156.137 99.0599C156.305 99.2375 156.628 99.0599 156.555 98.8196C156.054 97.1794 155.082 95.7377 154.205 94.2647C153.223 92.614 152.252 90.9321 151.124 89.3754C150.915 89.0934 150.518 89.3336 150.654 89.647Z" fill="white"/>
<path d="M154.038 86.304C155.49 89.6262 156.889 93.4394 159.041 96.3646C159.229 96.6153 159.678 96.4795 159.574 96.1347C158.529 92.6245 156.305 89.1978 154.508 86.0219C154.33 85.7085 153.902 85.9801 154.038 86.2935V86.304Z" fill="white"/>
<path d="M156.273 83.5668C157.275 87.077 159.009 90.8903 160.869 94.0244C160.983 94.2124 161.286 94.0871 161.224 93.8781C160.179 90.3888 158.55 86.5129 156.659 83.4101C156.534 83.2116 156.21 83.337 156.273 83.5772V83.5668Z" fill="white"/>
<path d="M158.916 113.665C159.469 115.462 160.357 117.144 161.151 118.836C161.945 120.529 162.519 122.441 163.762 123.767C163.888 123.903 164.201 123.809 164.17 123.6C163.95 121.971 163.031 120.529 162.331 119.056C161.433 117.165 160.629 115.169 159.469 113.425C159.281 113.143 158.801 113.31 158.905 113.665H158.916Z" fill="white"/>
<path d="M91.7312 174.426C117.04 160.103 141.326 143.586 165.841 127.946C166.697 127.403 165.904 126.035 165.037 126.578C140.407 142.071 115.097 156.969 91.3239 173.736C90.9061 174.029 91.2717 174.687 91.7312 174.426Z" fill="white"/>
<path d="M159.479 117.29C160.827 120.518 162.133 123.757 163.543 126.964C163.564 127.006 163.626 126.975 163.616 126.933C162.3 123.694 160.89 120.498 159.521 117.28C159.521 117.259 159.48 117.28 159.49 117.29H159.479Z" fill="white"/>
<path d="M127.496 146.615C127.977 147.765 128.489 149.144 129.376 150.042C129.512 150.178 129.7 150.042 129.669 149.875C129.46 148.653 128.645 147.441 128.008 146.406C127.851 146.156 127.371 146.312 127.496 146.626V146.615Z" fill="white"/>
<path d="M130.943 143.126C131.403 143.763 131.862 144.401 132.332 145.027C132.719 145.539 133.095 146.166 133.648 146.5C133.815 146.594 134.024 146.438 133.972 146.25C133.795 145.623 133.283 145.101 132.886 144.599C132.395 143.983 131.894 143.377 131.403 142.76C131.194 142.499 130.745 142.844 130.943 143.116V143.126Z" fill="white"/>
<path d="M134.327 139.668C134.609 140.535 135.069 141.35 135.476 142.154C135.883 142.959 136.259 143.774 136.907 144.453C137.053 144.61 137.294 144.453 137.252 144.254C137.074 143.387 136.677 142.677 136.27 141.893C135.831 141.057 135.434 140.19 134.87 139.438C134.682 139.187 134.223 139.323 134.338 139.668H134.327Z" fill="white"/>
<path d="M137.941 135.688C138.348 136.68 138.756 137.673 139.184 138.655C139.612 139.637 139.936 140.681 140.625 141.475C140.782 141.653 141.158 141.517 141.127 141.266C141.012 140.316 140.531 139.47 140.145 138.602C139.664 137.526 139.153 136.461 138.651 135.385C138.463 134.998 137.774 135.28 137.941 135.688Z" fill="white"/>
<path d="M142.673 133.337C143.122 134.382 143.572 135.426 144.052 136.461C144.459 137.359 144.815 138.373 145.525 139.073C145.661 139.208 145.932 139.114 145.922 138.905C145.859 137.944 145.347 137.056 144.95 136.2C144.439 135.103 143.916 134.016 143.373 132.93C143.133 132.459 142.485 132.867 142.684 133.337H142.673Z" fill="white"/>
<path d="M146.381 129.889C146.799 131.174 147.352 132.407 147.885 133.64C148.418 134.873 148.898 136.106 149.786 137.129C149.911 137.276 150.235 137.171 150.204 136.952C149.88 134.444 148.313 131.749 147.06 129.597C146.851 129.242 146.245 129.472 146.381 129.879V129.889Z" fill="white"/>
<path d="M152.554 124.969L152.659 124.196H151.677C152.105 125.826 152.763 127.403 153.348 128.991C153.86 130.391 154.288 131.916 155.187 133.128C155.364 133.358 155.824 133.327 155.803 132.961C155.698 131.352 154.978 129.837 154.414 128.354C153.85 126.87 153.327 125.272 152.617 123.809C152.398 123.35 151.646 123.579 151.666 124.07C151.687 124.373 151.687 124.676 151.687 124.979C151.687 125.564 152.502 125.533 152.565 124.979L152.554 124.969Z" fill="white"/>
<path d="M155.437 121.73C156.44 125.073 157.85 128.74 159.553 131.801C159.73 132.115 160.221 131.906 160.138 131.561C159.239 128.176 157.714 124.572 156.116 121.459C155.928 121.093 155.322 121.344 155.448 121.741L155.437 121.73Z" fill="white"/>
<path d="M158.665 116.977C160.19 120.968 161.61 125.376 163.877 129.012C164.013 129.231 164.378 129.095 164.305 128.834C163.208 124.676 160.963 120.644 159.093 116.789C158.978 116.548 158.56 116.716 158.654 116.977H158.665Z" fill="white"/>
<defs>
<linearGradient id="paint0_linear_140_449" x1="192.142" y1="7.07121e-05" x2="192.142" y2="256.237" gradientUnits="userSpaceOnUse">
<stop offset="0.64" stop-color="#6976DF"/>
<stop offset="1" stop-color="#5A65DC"/>
</linearGradient>
<linearGradient id="paint1_linear_140_449" x1="1.04447" y1="64.062" x2="257.237" y2="64.062" gradientUnits="userSpaceOnUse">
<stop offset="0.64" stop-color="#6976DF"/>
<stop offset="1" stop-color="#5A65DC"/>
</linearGradient>
<linearGradient id="paint2_linear_140_449" x1="257.237" y1="192.175" x2="1.04424" y2="192.175" gradientUnits="userSpaceOnUse">
<stop offset="0.64" stop-color="#6976DF"/>
<stop offset="1" stop-color="#5A65DC"/>
</linearGradient>
<linearGradient id="paint3_linear_140_449" x1="65.0958" y1="256.237" x2="65.0958" y2="0" gradientUnits="userSpaceOnUse">
<stop offset="0.58" stop-color="#5A65DC"/>
<stop offset="0.77" stop-color="#6976DF"/>
<stop offset="0.83" stop-color="#6976DF"/>
</linearGradient>
</defs>
</svg>
