<svg xmlns="http://www.w3.org/2000/svg" xmlns:xlink="http://www.w3.org/1999/xlink" id="Capa_2" data-name="Capa 2" viewBox="0 0 153 153"><defs><style>      .cls-1 {        clip-path: url(#clippath);      }      .cls-2, .cls-3, .cls-4 {        stroke-width: 0px;      }      .cls-2, .cls-5 {        fill: none;      }      .cls-3 {        fill: #bbc5f7;      }      .cls-5 {        stroke: #bbc5f7;      }      .cls-4 {        fill: #fff;      }    </style><clipPath id="clippath"><rect class="cls-2" x="49.56" y="56.03" width="54.74" height="50.97"></rect></clipPath></defs><g id="Capa_1-2" data-name="Capa 1"><g><g><path class="cls-3" d="M32.96,105.26l-10.03,5.78-.83-1.43,8.78-5.06-3.13-5.43,1.25-.72,3.96,6.86Z"></path><path class="cls-3" d="M26.6,96l-2.21-6.38,1.36-.47,2.75,7.94-10.94,3.78-2.67-7.72,1.36-.47,2.13,6.16,8.22-2.84ZM21.79,97.83l-1.95-5.63,1.33-.46,1.95,5.63-1.33.46Z"></path><path class="cls-3" d="M25.05,84.73l-10.03,1.44.56,3.93-1.42.2-1.36-9.48,1.42-.2.56,3.93,10.03-1.44.23,1.62Z"></path><path class="cls-3" d="M16.67,78.23l-3.36-.79.96-.23c0,.32-.09.59-.29.81-.2.22-.46.33-.79.33-.34,0-.61-.1-.82-.31-.21-.21-.31-.47-.31-.78,0-.32.1-.58.31-.78.21-.2.48-.3.8-.31.1,0,.2,0,.31.01.11,0,.22.03.36.07.13.04.3.09.51.17l2.32.77v1.04Z"></path><path class="cls-3" d="M25.92,64.63c-.19.87-.51,1.64-.96,2.31-.45.67-.99,1.21-1.63,1.64-.64.42-1.34.71-2.11.85-.77.15-1.57.13-2.41-.06-.84-.19-1.58-.51-2.21-.96s-1.15-1.01-1.55-1.67c-.4-.66-.66-1.39-.79-2.18-.12-.79-.09-1.63.11-2.52.2-.89.53-1.68.98-2.36.46-.68,1.03-1.21,1.73-1.6l.78,1.22c-.55.36-1,.79-1.33,1.29-.33.5-.57,1.06-.71,1.7-.14.65-.17,1.27-.08,1.87.09.6.29,1.15.59,1.64.3.49.69.9,1.17,1.24s1.04.58,1.66.71c.61.14,1.21.15,1.79.05.58-.1,1.11-.31,1.59-.63.48-.32.89-.73,1.23-1.23.34-.5.58-1.08.72-1.72.13-.6.17-1.2.1-1.8-.06-.6-.27-1.18-.6-1.75l1.43-.65c.35.67.56,1.4.64,2.2.08.8.03,1.6-.15,2.4ZM24.88,61.54l-4.2-.93.34-1.55,4.41.98-.55,1.5Z"></path><path class="cls-3" d="M29.99,53.32c-.39.79-.89,1.46-1.49,2-.6.54-1.27.94-1.99,1.2-.72.26-1.48.36-2.25.32-.78-.04-1.55-.25-2.31-.63s-1.39-.86-1.9-1.46c-.5-.6-.87-1.26-1.11-1.99-.23-.73-.32-1.5-.25-2.3.07-.8.3-1.61.7-2.41.39-.79.89-1.45,1.48-1.99.59-.54,1.25-.93,1.98-1.2s1.48-.37,2.25-.32c.78.05,1.55.26,2.32.64.77.38,1.41.87,1.91,1.46.51.59.88,1.25,1.11,1.99.23.74.31,1.5.24,2.3-.07.8-.3,1.59-.7,2.38ZM28.68,52.66c.29-.57.45-1.15.5-1.74s-.02-1.15-.2-1.69c-.18-.54-.46-1.03-.84-1.47-.38-.44-.86-.81-1.43-1.09-.57-.28-1.15-.45-1.73-.48-.58-.04-1.15.03-1.69.21-.54.18-1.03.47-1.47.86s-.8.87-1.09,1.45c-.29.58-.46,1.17-.5,1.75-.05.59.02,1.15.2,1.7s.46,1.04.84,1.48c.38.44.86.81,1.43,1.09.57.29,1.15.45,1.73.48.58.04,1.15-.04,1.69-.22.54-.19,1.03-.47,1.47-.86.44-.39.81-.88,1.1-1.46Z"></path><path class="cls-3" d="M45.79,34.31l-6.24-9.75,1.39-.89,5.46,8.54,5.28-3.38.78,1.21-6.67,4.27Z"></path><path class="cls-3" d="M54.75,27.54l6.27-2.5.53,1.34-7.8,3.11-4.28-10.75,7.59-3.02.53,1.34-6.05,2.41,3.22,8.08ZM52.71,22.82l5.53-2.2.52,1.3-5.53,2.2-.52-1.31Z"></path><path class="cls-3" d="M65.92,25.47l-1.9-9.95-3.9.75-.27-1.41,9.41-1.8.27,1.41-3.9.75,1.9,9.95-1.61.31Z"></path><path class="cls-3" d="M72.05,16.8l.63-3.4.27.95c-.32.02-.59-.07-.82-.25-.23-.19-.35-.44-.37-.77-.02-.34.07-.62.28-.83.2-.22.46-.33.77-.35.32-.02.58.07.79.28.21.2.32.46.34.78,0,.1,0,.2,0,.31,0,.11-.02.23-.05.36-.03.13-.08.31-.14.52l-.66,2.36-1.04.06Z"></path><path class="cls-3" d="M80.24,24.67c-.88-.06-1.71-.26-2.49-.59-.78-.33-1.39-.72-1.82-1.19l.7-1.24c.41.42.95.78,1.61,1.08.66.3,1.36.48,2.1.54.67.05,1.22.01,1.65-.11.43-.12.75-.31.97-.57.22-.25.34-.55.36-.89.03-.4-.08-.72-.32-.98-.24-.26-.56-.48-.96-.66-.4-.18-.85-.34-1.33-.49-.49-.15-.97-.31-1.46-.5-.49-.19-.93-.41-1.33-.67-.39-.26-.7-.6-.93-1.01-.22-.41-.31-.92-.27-1.54.04-.59.24-1.13.59-1.61.35-.48.86-.84,1.54-1.1.68-.25,1.52-.34,2.53-.27.67.05,1.33.19,1.98.41.65.22,1.2.52,1.66.88l-.64,1.28c-.47-.37-.98-.64-1.51-.83-.54-.19-1.07-.3-1.58-.34-.65-.05-1.19,0-1.62.13-.43.13-.75.33-.96.59-.21.26-.33.56-.36.9-.03.41.08.74.32,1s.56.48.96.65c.4.17.84.34,1.33.49.49.15.97.32,1.46.5.49.18.93.4,1.33.66.4.26.71.59.93,1,.22.4.31.91.27,1.51-.04.58-.24,1.11-.6,1.59s-.88.84-1.57,1.09c-.69.25-1.54.34-2.55.27Z"></path><path class="cls-3" d="M95.52,28.13c-.84-.32-1.55-.74-2.15-1.28-.6-.54-1.06-1.16-1.38-1.85-.33-.7-.51-1.43-.54-2.21s.1-1.57.41-2.38c.31-.8.73-1.49,1.27-2.05s1.17-.99,1.88-1.29c.71-.3,1.47-.46,2.27-.46.8,0,1.63.15,2.47.47.86.32,1.59.76,2.19,1.31.61.55,1.05,1.19,1.33,1.94l-1.32.59c-.28-.6-.64-1.1-1.09-1.5-.44-.4-.97-.71-1.58-.94-.62-.23-1.23-.35-1.84-.34-.61,0-1.18.12-1.71.34-.53.22-.99.55-1.4.98-.41.43-.72.94-.95,1.54-.22.59-.32,1.18-.31,1.77.02.59.15,1.15.39,1.67.24.52.59.99,1.04,1.39.45.41.98.73,1.6.96.58.22,1.17.34,1.76.36.6.02,1.21-.09,1.82-.34l.44,1.51c-.71.25-1.46.36-2.27.32-.81-.04-1.59-.21-2.35-.49ZM98.73,27.54l1.52-4.02,1.49.56-1.6,4.22-1.41-.76Z"></path><path class="cls-3" d="M106.14,33.81c-.72-.5-1.31-1.09-1.76-1.77-.45-.68-.75-1.39-.9-2.14-.15-.75-.14-1.51.01-2.28.16-.76.48-1.5.96-2.19.48-.7,1.06-1.25,1.72-1.66.66-.41,1.37-.68,2.13-.8.76-.12,1.53-.09,2.31.09.79.18,1.55.53,2.28,1.04.72.5,1.31,1.09,1.75,1.75.44.67.74,1.38.89,2.13s.15,1.52-.01,2.28c-.16.76-.48,1.5-.98,2.2-.49.71-1.06,1.27-1.72,1.68s-1.37.68-2.13.8c-.76.12-1.53.09-2.31-.1-.78-.18-1.53-.53-2.25-1.03ZM106.98,32.6c.52.37,1.07.61,1.65.74.57.13,1.14.15,1.7.04.56-.1,1.09-.31,1.58-.62s.92-.73,1.29-1.26c.37-.52.61-1.07.73-1.65.12-.57.13-1.14.03-1.7-.1-.56-.31-1.09-.63-1.58-.32-.49-.75-.92-1.27-1.29-.54-.37-1.09-.62-1.66-.75-.57-.13-1.14-.15-1.71-.05s-1.09.3-1.59.62c-.49.32-.92.73-1.29,1.26-.36.52-.61,1.07-.73,1.65-.12.57-.13,1.14-.03,1.7.11.56.32,1.09.64,1.58.32.49.75.92,1.29,1.29Z"></path><path class="cls-3" d="M122.66,52.15l10.54-4.77.68,1.51-9.23,4.18,2.58,5.71-1.31.59-3.27-7.22Z"></path><path class="cls-3" d="M128.08,62l1.56,6.56-1.4.33-1.95-8.17,11.26-2.68,1.89,7.95-1.4.33-1.51-6.34-8.46,2.02ZM133.04,60.66l1.38,5.79-1.37.33-1.38-5.79,1.37-.33Z"></path><path class="cls-3" d="M128.5,73.36l10.12-.44-.17-3.96,1.44-.06.42,9.57-1.44.06-.17-3.96-10.12.44-.07-1.64Z"></path><path class="cls-3" d="M136.2,80.65l3.27,1.12-.97.13c.03-.32.15-.58.37-.77.22-.2.49-.28.82-.25.34.03.6.16.79.39.18.23.26.5.24.81-.03.32-.16.57-.39.75-.23.18-.5.25-.82.23-.1,0-.2-.02-.3-.04-.1-.02-.22-.06-.35-.1-.13-.05-.29-.12-.5-.22l-2.24-.99.09-1.04Z"></path><path class="cls-3" d="M125.67,93.29c.28-.85.67-1.58,1.18-2.21.51-.62,1.11-1.11,1.79-1.47.68-.36,1.41-.57,2.18-.64.78-.07,1.57.03,2.39.3.82.27,1.52.66,2.1,1.18.58.52,1.04,1.12,1.38,1.82.33.7.52,1.45.57,2.25.04.8-.07,1.63-.36,2.49-.28.87-.69,1.62-1.21,2.25-.52.63-1.14,1.1-1.88,1.42l-.65-1.29c.59-.31,1.07-.69,1.45-1.15s.67-1,.87-1.62c.21-.63.29-1.25.26-1.85-.03-.61-.17-1.17-.42-1.69-.25-.52-.6-.97-1.04-1.35-.45-.38-.98-.68-1.58-.88-.6-.2-1.19-.27-1.78-.23-.59.04-1.14.2-1.65.47-.51.27-.96.63-1.34,1.1s-.68,1.01-.89,1.64c-.19.59-.29,1.18-.28,1.78,0,.6.15,1.2.43,1.8l-1.49.5c-.28-.7-.42-1.45-.42-2.25,0-.8.13-1.6.38-2.37ZM126.41,96.47l4.08,1.34-.49,1.51-4.29-1.41.7-1.44Z"></path><path class="cls-3" d="M120.5,104.13c.47-.75,1.03-1.36,1.68-1.84.65-.48,1.35-.81,2.1-1s1.5-.21,2.28-.09c.77.12,1.52.41,2.23.86s1.3,1,1.74,1.64c.44.64.74,1.34.9,2.09.16.75.17,1.52.02,2.32-.15.79-.46,1.57-.93,2.32-.47.75-1.02,1.36-1.67,1.83s-1.34.81-2.09.99-1.51.22-2.27.09c-.77-.12-1.52-.42-2.25-.87-.73-.46-1.31-1-1.76-1.64-.45-.64-.75-1.33-.9-2.09s-.16-1.53-.01-2.31.46-1.55.93-2.3ZM121.75,104.92c-.34.54-.56,1.1-.67,1.68s-.09,1.15.04,1.7c.13.55.36,1.07.7,1.55.34.48.78.89,1.32,1.23s1.1.56,1.68.65c.58.1,1.14.08,1.7-.05.55-.13,1.07-.36,1.55-.71.48-.35.88-.79,1.22-1.33.35-.55.57-1.12.67-1.7.1-.58.09-1.15-.03-1.71-.12-.56-.36-1.08-.69-1.56s-.78-.89-1.32-1.23-1.1-.56-1.68-.65c-.58-.1-1.14-.08-1.7.05-.56.13-1.08.37-1.55.71s-.89.79-1.23,1.34Z"></path><path class="cls-3" d="M102.92,121.5l5.25,10.31-1.47.75-4.6-9.03-5.58,2.85-.65-1.28,7.06-3.6Z"></path><path class="cls-3" d="M93.32,127.37l-6.48,1.87-.4-1.38,8.07-2.32,3.2,11.12-7.85,2.26-.4-1.38,6.26-1.8-2.41-8.36ZM94.89,132.27l-5.72,1.65-.39-1.35,5.72-1.65.39,1.35Z"></path><path class="cls-3" d="M82.02,128.32l.91,10.09,3.95-.35.13,1.43-9.54.86-.13-1.43,3.95-.35-.91-10.09,1.63-.15Z"></path><path class="cls-3" d="M75.07,136.35l-.97,3.32-.17-.97c.32.01.58.12.79.33s.3.48.29.81c-.01.34-.13.61-.36.8-.22.19-.49.29-.8.27-.32-.01-.57-.13-.76-.35-.19-.22-.28-.49-.26-.81,0-.1.01-.2.03-.31.02-.1.05-.22.09-.35.04-.13.11-.3.19-.5l.89-2.28,1.04.04Z"></path><path class="cls-3" d="M62,126.41c.86.24,1.61.6,2.26,1.08.64.48,1.16,1.05,1.55,1.72.39.66.64,1.38.74,2.15.11.77.04,1.57-.18,2.4s-.59,1.55-1.08,2.15c-.49.61-1.07,1.09-1.75,1.46-.68.37-1.42.59-2.22.67-.8.08-1.64,0-2.51-.24-.88-.24-1.65-.61-2.3-1.1-.65-.49-1.16-1.09-1.51-1.81l1.26-.71c.33.57.74,1.04,1.22,1.39.48.36,1.03.62,1.66.79.64.18,1.26.24,1.87.17.61-.06,1.16-.23,1.67-.5.5-.27.94-.64,1.3-1.11.36-.47.63-1.01.8-1.62.17-.61.22-1.2.14-1.79-.07-.59-.25-1.13-.54-1.63-.29-.5-.68-.93-1.16-1.29-.48-.36-1.04-.63-1.68-.81-.59-.17-1.19-.23-1.79-.2-.6.03-1.19.2-1.78.51l-.57-1.46c.68-.31,1.42-.49,2.23-.52.8-.03,1.6.06,2.39.28ZM58.85,127.28l-1.15,4.14-1.53-.42,1.21-4.35,1.47.63Z"></path><path class="cls-3" d="M50.91,121.74c.77.43,1.41.97,1.92,1.6.51.63.87,1.31,1.09,2.05.22.74.28,1.49.2,2.27-.08.78-.33,1.53-.75,2.27-.42.74-.94,1.34-1.56,1.82-.62.47-1.3.8-2.05,1-.74.19-1.51.24-2.31.13-.8-.11-1.59-.38-2.37-.83-.77-.43-1.4-.96-1.91-1.58s-.87-1.3-1.09-2.04c-.22-.74-.29-1.5-.2-2.27.09-.77.35-1.53.77-2.28.42-.75.94-1.36,1.56-1.83.62-.47,1.3-.81,2.05-1,.75-.19,1.52-.23,2.31-.12.79.11,1.57.39,2.34.82ZM50.19,123.02c-.56-.31-1.13-.51-1.71-.59-.58-.08-1.15-.04-1.7.11-.55.15-1.05.41-1.52.77-.46.36-.85.82-1.17,1.37-.31.56-.51,1.13-.58,1.71s-.03,1.15.12,1.7c.15.55.41,1.05.78,1.51.37.46.83.85,1.38,1.16.57.32,1.14.52,1.72.59.58.08,1.15.04,1.71-.11.55-.15,1.06-.4,1.52-.76.46-.36.85-.82,1.17-1.37.31-.56.51-1.12.58-1.71.07-.58.03-1.15-.13-1.7-.16-.55-.42-1.06-.79-1.52-.37-.46-.83-.85-1.4-1.17Z"></path></g><circle class="cls-5" cx="76.5" cy="76.5" r="76"></circle><circle class="cls-5" cx="76.5" cy="76.5" r="40.44"></circle><g class="cls-1"><g><path class="cls-4" d="M56.39,59c1.45,2.92,3.54,5.58,5.39,8.26,1.65,2.39,3.2,5.14,5.41,7.04.3.26.89.02.73-.43-1.06-2.9-3.21-5.45-4.97-7.97-1.76-2.52-3.49-5.32-5.64-7.63-.48-.52-1.23.14-.94.72h.01Z"></path><path class="cls-4" d="M58.36,75.45c4.68-5.97,9.4-12.2,13.11-18.81.22-.39-.32-.85-.64-.48-4.98,5.72-9.29,12.23-13.34,18.63-.32.52.47,1.16.86.67Z"></path><path class="cls-4" d="M82.21,59.9l-.54-.73-.92.71c2.11,2.55,4.41,4.96,6.64,7.4,1.98,2.18,3.85,4.65,6.27,6.34.32.23.7-.2.52-.52-1.47-2.56-3.8-4.65-5.8-6.81-2.24-2.42-4.44-4.92-6.8-7.23-.54-.53-1.34.28-.83.83l.62.67c.41.43,1.21-.15.84-.65h-.01Z"></path><path class="cls-4" d="M83.82,75.98c3.45-5.82,7.39-11.6,10.07-17.83.24-.56-.46-.98-.82-.47-3.93,5.52-6.83,11.9-10.01,17.86-.27.5.47.93.75.44Z"></path><path class="cls-4" d="M49.57,78.67c2.75,13.31,21.55,15.68,32.68,15.41,9.94-.24,24.2-7.06,21.78-19.25-.17-.85-1.37-.57-1.43.19-1.02,12.52-11.5,17.61-23.05,17.22-10.82-.37-24.57-2.62-29.15-13.79-.2-.51-.95-.33-.84.23h.01Z"></path><path class="cls-4" d="M81.22,93.65c-1.49,5.38-.69,14.31,7.03,13.25,7.71-1.06,8.25-10.58,7.39-16.63-.12-.81-1.36-.46-1.23.33.8,5.09.95,12.41-4.86,14.68-3.53,1.38-6.78-.53-7.81-4.07-.72-2.46-.23-5.02-.05-7.51.02-.27-.4-.31-.46-.06h0Z"></path><path class="cls-4" d="M87.89,92.96c-.17,1.48.22,3.04.44,4.49.23,1.45.3,3.03,1.09,4.29.12.18.43.17.48-.07.32-1.39-.06-2.84-.3-4.23-.27-1.56-.4-3.23-1.08-4.67-.16-.34-.61-.13-.65.17h.01Z"></path></g></g></g></g></svg>