<?xml version="1.0" encoding="UTF-8"?>
<svg id="Capa_2" data-name="Capa 2" xmlns="http://www.w3.org/2000/svg" xmlns:xlink="http://www.w3.org/1999/xlink" viewBox="0 0 244.47 244.47">
  <defs>
    <style>
      .cls-1, .cls-2 {
        fill: none;
      }

      .cls-3 {
        fill: #bbc5f7;
      }

      .cls-4 {
        fill: #fff;
      }

      .cls-5 {
        fill: #131217;
      }

      .cls-2 {
        stroke: #bbc5f7;
      }

      .cls-6 {
        clip-path: url(#clippath);
      }
    </style>
    <clipPath id="clippath">
      <rect class="cls-1" x="79.09" y="89.44" width="87.67" height="81.65"/>
    </clipPath>
  </defs>
  <g id="Capa_1-2" data-name="Capa 1">
    <g>
      <circle class="cls-5" cx="122.24" cy="122.24" r="121.74"/>
      <g>
        <ellipse class="cls-1" cx="122.24" cy="122.24" rx="83.45" ry="83.42" transform="translate(-18.05 223.24) rotate(-80.75)"/>
        <path class="cls-3" d="M52.5,168.31l-16.06,9.26-1.32-2.29,14.06-8.11-5.02-8.7,2-1.15,6.34,10.99Z"/>
        <path class="cls-3" d="M42.31,153.48l-3.53-10.21,2.18-.75,4.4,12.72-17.52,6.06-4.28-12.37,2.18-.75,3.41,9.86,13.16-4.55ZM34.61,156.4l-3.12-9.01,2.13-.74,3.12,9.01-2.13.74Z"/>
        <path class="cls-3" d="M39.84,135.48l-16.07,2.32.91,6.29-2.28.33-2.19-15.18,2.28-.33.91,6.29,16.07-2.32.37,2.6Z"/>
        <path class="cls-3" d="M26.41,125.08l-5.39-1.26,1.53-.36c0,.51-.15.94-.46,1.29-.31.35-.74.53-1.27.53-.55,0-.99-.16-1.32-.5s-.5-.76-.51-1.25c0-.51.16-.93.5-1.25.34-.32.77-.49,1.28-.49.16,0,.32,0,.49.02.17.02.36.05.57.11.21.06.49.15.82.27l3.72,1.23.02,1.67Z"/>
        <path class="cls-3" d="M39.6,112.52c-.17,1.4-.54,2.72-1.12,3.95-.58,1.23-1.26,2.17-2.03,2.83l-1.94-1.22c.7-.63,1.31-1.46,1.84-2.5.53-1.04.87-2.15,1.01-3.32.13-1.07.11-1.95-.06-2.65-.17-.7-.45-1.23-.84-1.59-.39-.37-.86-.58-1.4-.65-.63-.08-1.16.07-1.6.44-.43.37-.81.86-1.12,1.49-.31.63-.61,1.33-.88,2.1-.27.77-.57,1.54-.9,2.31-.33.77-.72,1.46-1.17,2.08-.45.61-1,1.08-1.67,1.42-.67.33-1.5.44-2.48.32-.95-.11-1.79-.47-2.53-1.06-.74-.6-1.29-1.44-1.65-2.54-.36-1.1-.44-2.46-.25-4.07.13-1.07.39-2.11.8-3.13.41-1.02.92-1.88,1.53-2.59l2,1.12c-.62.73-1.1,1.51-1.44,2.36-.34.85-.56,1.69-.66,2.51-.12,1.03-.09,1.9.09,2.6.18.7.48,1.23.88,1.58.4.36.88.57,1.42.64.65.08,1.19-.07,1.62-.43.44-.37.8-.87,1.11-1.5.31-.63.6-1.33.88-2.1.28-.77.58-1.54.9-2.31.32-.77.71-1.46,1.15-2.08.45-.61,1-1.09,1.66-1.42.66-.33,1.47-.44,2.44-.32.93.11,1.76.47,2.5,1.07.74.6,1.28,1.46,1.64,2.58.36,1.12.44,2.48.25,4.1Z"/>
        <path class="cls-3" d="M46.21,88.35c-.57,1.31-1.3,2.43-2.21,3.35-.9.92-1.93,1.61-3.06,2.08-1.14.47-2.33.71-3.58.71s-2.51-.27-3.77-.82c-1.26-.55-2.33-1.27-3.18-2.18-.86-.91-1.5-1.94-1.94-3.1-.43-1.16-.63-2.38-.58-3.67s.36-2.6.93-3.93c.58-1.35,1.33-2.48,2.25-3.41.92-.93,1.99-1.6,3.2-2l.86,2.16c-.98.4-1.81.95-2.48,1.63-.67.68-1.21,1.5-1.62,2.46-.42.97-.65,1.95-.68,2.92-.04.98.11,1.89.43,2.75.32.86.81,1.63,1.47,2.31.66.68,1.46,1.22,2.4,1.63.92.4,1.86.6,2.81.62.95.01,1.84-.16,2.7-.51.85-.35,1.62-.87,2.3-1.56s1.23-1.52,1.65-2.49c.39-.91.63-1.84.7-2.8s-.06-1.94-.42-2.94l2.45-.59c.35,1.15.46,2.37.34,3.65-.12,1.28-.44,2.53-.96,3.73ZM45.51,83.17l-6.32-2.73,1.01-2.33,6.64,2.86-1.32,2.2Z"/>
        <path class="cls-3" d="M56.03,71.8c-.86,1.12-1.84,2.02-2.95,2.69-1.11.67-2.28,1.1-3.49,1.28-1.22.18-2.43.12-3.64-.18-1.21-.3-2.36-.87-3.44-1.69-1.08-.82-1.93-1.78-2.54-2.87-.61-1.09-.99-2.24-1.14-3.47-.15-1.22-.04-2.45.31-3.7.35-1.24.96-2.43,1.82-3.57.86-1.12,1.83-2.02,2.93-2.68,1.09-.66,2.25-1.09,3.47-1.28,1.22-.19,2.44-.13,3.64.18,1.21.31,2.36.88,3.45,1.72,1.1.83,1.95,1.79,2.57,2.87.62,1.08,1,2.24,1.14,3.47.14,1.23.03,2.46-.32,3.69-.35,1.23-.95,2.41-1.81,3.53ZM54.16,70.37c.62-.81,1.06-1.68,1.31-2.59s.31-1.81.19-2.72c-.12-.9-.42-1.76-.89-2.57-.47-.81-1.11-1.53-1.92-2.15-.81-.62-1.67-1.05-2.58-1.29-.91-.24-1.81-.29-2.71-.17-.9.12-1.76.42-2.57.91-.81.48-1.53,1.13-2.15,1.94-.63.83-1.07,1.7-1.32,2.61-.25.91-.32,1.82-.2,2.73.12.91.41,1.77.88,2.58.47.81,1.11,1.53,1.93,2.15.81.62,1.67,1.05,2.58,1.29.91.24,1.81.29,2.72.16.91-.13,1.77-.43,2.58-.92.81-.48,1.53-1.14,2.16-1.96Z"/>
        <path class="cls-3" d="M74.81,53.41l-9.58-15.87,2.27-1.37,8.39,13.9,8.59-5.19,1.19,1.97-10.86,6.56Z"/>
        <path class="cls-3" d="M89.42,42.94l10.14-3.74.8,2.16-12.62,4.66-6.42-17.39,12.28-4.53.8,2.16-9.79,3.61,4.82,13.07ZM86.34,35.29l8.95-3.3.78,2.11-8.95,3.3-.78-2.11Z"/>
        <path class="cls-3" d="M107.36,40.1l-2.64-16.02-6.27,1.03-.37-2.27,15.13-2.5.37,2.27-6.27,1.03,2.64,16.02-2.59.43Z"/>
        <path class="cls-3" d="M117.49,26.46l1.15-5.42.39,1.52c-.51.02-.95-.13-1.3-.44-.35-.31-.54-.73-.56-1.25-.02-.55.14-.99.47-1.33.33-.34.75-.51,1.24-.53.51-.02.93.14,1.26.48.33.33.5.76.52,1.27,0,.16,0,.32-.01.49-.01.17-.05.36-.1.57-.06.21-.14.49-.25.83l-1.15,3.75-1.67.05Z"/>
        <path class="cls-3" d="M130.33,39.4c-1.41-.14-2.73-.49-3.97-1.05-1.24-.56-2.2-1.22-2.87-1.97l1.18-1.96c.64.69,1.49,1.28,2.54,1.79,1.05.51,2.16.83,3.34.94,1.07.11,1.95.07,2.65-.11.69-.18,1.22-.47,1.58-.87.36-.4.57-.87.62-1.42.06-.63-.09-1.16-.47-1.59-.37-.43-.88-.79-1.52-1.1-.64-.3-1.34-.58-2.11-.83-.77-.25-1.55-.54-2.32-.86-.78-.32-1.48-.69-2.1-1.13-.62-.43-1.11-.98-1.45-1.65-.34-.66-.46-1.49-.37-2.47.09-.95.43-1.8,1.01-2.55.58-.75,1.42-1.31,2.51-1.69,1.09-.38,2.45-.49,4.07-.33,1.07.11,2.12.35,3.15.74,1.03.39,1.9.88,2.62,1.48l-1.08,2.02c-.74-.61-1.54-1.07-2.39-1.4-.85-.32-1.7-.53-2.52-.61-1.04-.1-1.9-.05-2.6.14-.69.2-1.22.5-1.57.91-.35.41-.55.89-.61,1.43-.06.65.09,1.19.47,1.62.38.43.88.79,1.52,1.08.64.29,1.34.57,2.11.83.77.26,1.55.55,2.32.86.78.31,1.48.68,2.1,1.11.62.43,1.1.98,1.45,1.63.34.66.47,1.47.37,2.43-.09.93-.43,1.77-1.02,2.52-.59.75-1.44,1.31-2.55,1.69-1.11.38-2.48.49-4.09.33Z"/>
        <path class="cls-3" d="M154.61,45.53c-1.32-.54-2.45-1.25-3.39-2.14-.94-.89-1.65-1.89-2.14-3.02-.49-1.13-.75-2.31-.78-3.56-.02-1.25.22-2.51.74-3.79.52-1.27,1.23-2.35,2.12-3.23.89-.88,1.91-1.54,3.06-2,1.15-.46,2.37-.67,3.66-.65,1.29.02,2.6.31,3.95.85,1.36.55,2.51,1.28,3.46,2.18.95.9,1.63,1.95,2.06,3.16l-2.14.9c-.42-.97-.98-1.79-1.68-2.44-.7-.66-1.52-1.18-2.49-1.57-.98-.4-1.96-.61-2.94-.63-.98-.02-1.89.14-2.74.48-.85.34-1.61.84-2.28,1.52-.67.67-1.19,1.48-1.58,2.43-.38.93-.57,1.87-.56,2.82,0,.95.19,1.84.56,2.69.37.85.9,1.6,1.6,2.27.7.67,1.54,1.2,2.52,1.6.92.37,1.85.59,2.81.65.96.06,1.93-.1,2.93-.48l.64,2.43c-1.14.37-2.36.51-3.65.41-1.29-.1-2.53-.39-3.74-.88ZM159.78,44.72l2.6-6.38,2.35.96-2.73,6.69-2.22-1.28Z"/>
        <path class="cls-3" d="M171.35,55.02c-1.14-.83-2.06-1.8-2.75-2.9-.69-1.1-1.15-2.25-1.35-3.47-.21-1.21-.17-2.43.11-3.65.28-1.22.82-2.38,1.62-3.47s1.74-1.96,2.82-2.6c1.08-.63,2.22-1.04,3.44-1.21,1.22-.17,2.45-.09,3.7.23s2.45.91,3.61,1.75c1.14.83,2.05,1.79,2.74,2.87.69,1.08,1.14,2.23,1.35,3.45s.18,2.43-.11,3.65c-.29,1.21-.83,2.38-1.65,3.49-.81,1.11-1.75,1.99-2.82,2.63-1.07.64-2.22,1.04-3.44,1.21-1.23.16-2.46.08-3.7-.24-1.24-.33-2.43-.91-3.57-1.74ZM172.75,53.12c.83.6,1.7,1.02,2.61,1.25.91.23,1.82.28,2.72.14.9-.14,1.75-.45,2.55-.94.8-.48,1.51-1.14,2.11-1.97.6-.83,1.02-1.7,1.23-2.61.22-.91.26-1.82.12-2.72s-.46-1.75-.96-2.55c-.5-.8-1.16-1.5-1.98-2.11-.84-.62-1.72-1.04-2.63-1.27-.91-.23-1.82-.28-2.73-.15-.91.13-1.76.44-2.57.93-.8.48-1.51,1.14-2.11,1.97s-1.02,1.7-1.24,2.61c-.22.91-.25,1.82-.11,2.73.15.91.47,1.76.97,2.56.5.8,1.17,1.51,2.01,2.13Z"/>
        <path class="cls-3" d="M190.11,73.45l15.68-9.88,1.41,2.24-13.73,8.65,5.35,8.49-1.95,1.23-6.77-10.73Z"/>
        <path class="cls-3" d="M200.86,87.85l3.94,10.07-2.15.84-4.9-12.53,17.26-6.75,4.77,12.19-2.15.84-3.8-9.72-12.97,5.07ZM208.44,84.63l3.47,8.88-2.1.82-3.47-8.88,2.1-.82Z"/>
        <path class="cls-3" d="M204.05,105.75l15.96-2.95-1.16-6.25,2.26-.42,2.79,15.08-2.27.42-1.16-6.25-15.96,2.95-.48-2.58Z"/>
        <path class="cls-3" d="M217.88,115.59l5.44,1.04-1.52.42c-.03-.51.11-.95.41-1.31.3-.36.71-.55,1.24-.58.54-.03.99.12,1.34.45.34.33.53.74.55,1.23.03.51-.12.93-.45,1.27-.33.34-.75.52-1.26.54-.16,0-.32,0-.49,0-.17,0-.36-.04-.57-.09-.21-.05-.49-.13-.83-.24l-3.77-1.08-.09-1.67Z"/>
        <path class="cls-3" d="M205.2,128.68c.11-1.41.43-2.74.97-3.99.53-1.25,1.17-2.22,1.92-2.9l1.98,1.14c-.67.65-1.25,1.51-1.75,2.57-.49,1.06-.78,2.18-.88,3.36-.08,1.07-.03,1.96.16,2.64.19.69.49,1.21.9,1.56.4.35.88.55,1.43.59.63.05,1.16-.12,1.58-.5.42-.38.78-.9,1.06-1.54.29-.64.55-1.35.79-2.13.24-.78.51-1.56.81-2.34.3-.78.66-1.49,1.08-2.12s.96-1.12,1.62-1.48c.66-.36,1.48-.49,2.46-.42.95.07,1.81.4,2.57.96.76.56,1.34,1.39,1.74,2.48.4,1.09.54,2.44.41,4.06-.08,1.07-.31,2.13-.68,3.16-.37,1.03-.84,1.92-1.43,2.65l-2.04-1.04c.59-.75,1.04-1.56,1.35-2.42.31-.86.49-1.71.56-2.53.08-1.04.02-1.9-.19-2.59-.21-.69-.52-1.21-.94-1.55-.42-.34-.9-.54-1.44-.58-.65-.05-1.19.11-1.61.5-.42.38-.77.9-1.05,1.54-.28.64-.55,1.35-.79,2.13-.25.78-.52,1.56-.81,2.34-.29.78-.65,1.49-1.07,2.12-.42.63-.96,1.12-1.6,1.48-.65.36-1.46.5-2.42.42-.93-.07-1.78-.4-2.54-.97-.76-.58-1.34-1.41-1.74-2.52s-.54-2.46-.41-4.08Z"/>
        <path class="cls-3" d="M199.54,153.09c.51-1.33,1.21-2.48,2.07-3.43.87-.95,1.86-1.69,2.98-2.2s2.3-.8,3.55-.85c1.25-.05,2.51.17,3.8.67,1.28.49,2.37,1.18,3.27,2.05.89.87,1.58,1.88,2.06,3.02s.72,2.35.73,3.64c0,1.29-.25,2.61-.77,3.96-.53,1.37-1.23,2.54-2.11,3.5-.88.97-1.92,1.67-3.11,2.12l-.94-2.12c.96-.44,1.77-1.02,2.41-1.73.64-.71,1.15-1.55,1.52-2.52.38-.99.57-1.97.57-2.95,0-.98-.18-1.89-.54-2.73-.36-.85-.88-1.59-1.56-2.25-.69-.65-1.51-1.16-2.46-1.53-.94-.36-1.88-.53-2.83-.51-.95.02-1.84.23-2.68.62-.84.39-1.58.94-2.24,1.65s-1.17,1.56-1.55,2.55c-.35.92-.55,1.86-.59,2.82-.04.96.14,1.93.54,2.92l-2.42.69c-.4-1.14-.56-2.35-.49-3.64.07-1.29.34-2.54.81-3.76ZM200.45,158.24l6.43,2.47-.91,2.37-6.75-2.6,1.23-2.25Z"/>
        <path class="cls-3" d="M190.4,170c.81-1.16,1.76-2.09,2.84-2.81,1.08-.72,2.23-1.19,3.44-1.42,1.21-.23,2.42-.22,3.65.03,1.22.25,2.39.77,3.51,1.55,1.11.78,2,1.7,2.65,2.77.66,1.06,1.08,2.2,1.27,3.42.2,1.21.14,2.45-.16,3.71-.3,1.26-.86,2.47-1.68,3.64-.81,1.16-1.75,2.09-2.82,2.8-1.07.71-2.21,1.18-3.42,1.42-1.21.24-2.43.23-3.65-.03-1.22-.26-2.39-.79-3.52-1.58-1.13-.79-2.02-1.71-2.68-2.77s-1.09-2.2-1.28-3.42c-.19-1.22-.13-2.46.17-3.7.3-1.25.86-2.45,1.67-3.6ZM192.33,171.36c-.59.84-.99,1.72-1.2,2.64-.21.92-.24,1.83-.08,2.72.16.9.49,1.74.99,2.54.5.79,1.17,1.48,2.01,2.07.84.59,1.72.98,2.63,1.18.92.2,1.82.22,2.72.06.9-.16,1.74-.49,2.53-1.01.79-.51,1.48-1.19,2.07-2.03.6-.85,1-1.74,1.22-2.66.21-.92.24-1.83.09-2.74-.15-.91-.48-1.75-.98-2.55-.5-.79-1.17-1.48-2.01-2.07-.84-.59-1.72-.98-2.63-1.18-.92-.2-1.83-.22-2.73-.05-.9.17-1.75.5-2.54,1.02-.79.51-1.49,1.2-2.08,2.05Z"/>
        <path class="cls-3" d="M172.36,189.12l10.2,15.48-2.21,1.46-8.93-13.55-8.38,5.53-1.27-1.92,10.59-6.98Z"/>
        <path class="cls-3" d="M158.17,200.17l-9.98,4.14-.88-2.13,12.43-5.15,7.1,17.12-12.09,5.01-.88-2.13,9.64-4-5.33-12.87ZM161.54,207.69l-8.81,3.65-.86-2.08,8.81-3.65.86,2.08Z"/>
        <path class="cls-3" d="M140.33,203.73l3.28,15.9,6.23-1.28.46,2.26-15.02,3.1-.46-2.26,6.23-1.28-3.28-15.9,2.57-.53Z"/>
        <path class="cls-3" d="M130.77,217.75l-.93,5.46-.45-1.51c.51-.04.95.09,1.32.38.37.29.57.7.61,1.23.04.55-.1.99-.42,1.34-.32.35-.73.54-1.22.58-.51.04-.94-.11-1.28-.43-.34-.32-.53-.74-.57-1.25-.01-.16-.01-.32,0-.49,0-.17.03-.36.08-.58.05-.22.12-.5.22-.84l1-3.79,1.66-.12Z"/>
        <path class="cls-3" d="M117.44,205.34c1.41.08,2.75.38,4.01.89,1.26.51,2.24,1.13,2.94,1.86l-1.1,2c-.67-.66-1.54-1.22-2.61-1.69-1.07-.47-2.19-.74-3.37-.81-1.08-.06-1.96,0-2.64.21-.69.21-1.2.52-1.54.93s-.53.89-.56,1.44c-.04.63.14,1.16.53,1.57.39.41.91.76,1.56,1.03s1.36.53,2.15.75c.78.22,1.57.48,2.36.76.79.29,1.5.63,2.14,1.04.64.41,1.14.94,1.51,1.59.37.65.52,1.47.46,2.46-.06.95-.36,1.81-.91,2.59-.55.77-1.36,1.37-2.44,1.79-1.08.42-2.43.59-4.05.49-1.08-.06-2.13-.27-3.17-.61s-1.93-.8-2.68-1.38l1-2.06c.76.58,1.58,1.01,2.44,1.3.87.29,1.72.46,2.54.51,1.04.06,1.9-.02,2.59-.24.69-.22,1.19-.55,1.53-.97.33-.42.52-.91.55-1.45.04-.65-.14-1.18-.53-1.6-.39-.41-.91-.75-1.56-1.02-.65-.27-1.36-.52-2.14-.75-.78-.23-1.57-.49-2.36-.76-.79-.28-1.5-.62-2.14-1.03s-1.14-.93-1.51-1.58c-.37-.64-.52-1.45-.47-2.42.05-.93.36-1.79.92-2.56.56-.77,1.39-1.37,2.48-1.79,1.1-.42,2.45-.58,4.08-.49Z"/>
        <path class="cls-3" d="M92.93,200.16c1.34.49,2.5,1.16,3.47,2,.97.85,1.72,1.83,2.26,2.93.54,1.11.85,2.28.92,3.53.07,1.25-.12,2.52-.59,3.81s-1.13,2.4-1.99,3.31-1.85,1.62-2.98,2.12c-1.13.5-2.34.77-3.63.8-1.29.03-2.61-.2-3.97-.69-1.38-.5-2.56-1.18-3.54-2.04-.98-.86-1.71-1.89-2.18-3.07l2.1-.98c.46.96,1.05,1.75,1.77,2.38.72.63,1.57,1.12,2.55,1.47,1,.36,1.98.53,2.96.51.98-.02,1.88-.22,2.72-.59.84-.37,1.58-.91,2.22-1.6.64-.7,1.13-1.53,1.48-2.49.34-.95.49-1.89.45-2.84-.04-.95-.27-1.83-.67-2.67-.4-.83-.97-1.57-1.69-2.21-.73-.64-1.59-1.14-2.58-1.5-.93-.34-1.88-.52-2.84-.53-.96-.02-1.93.18-2.91.59l-.73-2.41c1.13-.42,2.34-.6,3.63-.56,1.29.04,2.55.29,3.78.73ZM87.8,201.18l-2.35,6.47-2.39-.87,2.46-6.8,2.27,1.19Z"/>
        <path class="cls-3" d="M75.83,191.35c1.17.79,2.13,1.72,2.87,2.79.74,1.07,1.23,2.21,1.49,3.41.26,1.2.27,2.42.04,3.65s-.72,2.41-1.48,3.53c-.76,1.13-1.66,2.03-2.71,2.71-1.05.68-2.18,1.12-3.39,1.34-1.21.22-2.45.19-3.71-.08-1.26-.27-2.49-.81-3.68-1.61-1.17-.79-2.12-1.71-2.85-2.76-.73-1.05-1.22-2.18-1.49-3.39-.26-1.21-.27-2.42-.04-3.65.24-1.22.74-2.41,1.51-3.55.77-1.14,1.67-2.06,2.72-2.74,1.04-.68,2.17-1.13,3.39-1.34,1.22-.21,2.45-.18,3.7.1,1.25.28,2.46.81,3.63,1.6ZM74.52,193.31c-.85-.57-1.74-.95-2.66-1.15-.92-.19-1.83-.2-2.73-.03-.89.17-1.73.52-2.52,1.04-.78.52-1.46,1.2-2.03,2.05-.57.85-.95,1.73-1.13,2.65-.18.92-.19,1.83-.01,2.72.18.89.53,1.73,1.06,2.51.53.78,1.22,1.46,2.07,2.03.86.58,1.76.97,2.68,1.16.92.19,1.83.21,2.74.04.9-.17,1.74-.51,2.53-1.03.78-.52,1.46-1.2,2.03-2.05.57-.85.95-1.73,1.13-2.65.18-.92.18-1.83,0-2.73-.18-.9-.54-1.74-1.07-2.52-.53-.78-1.23-1.46-2.09-2.04Z"/>
      </g>
      <circle class="cls-2" cx="122.24" cy="122.24" r="121.74"/>
      <circle class="cls-2" cx="122.24" cy="122.24" r="64.78"/>
      <g class="cls-6">
        <g>
          <path class="cls-4" d="M90.03,94.21c2.33,4.68,5.68,8.94,8.63,13.24,2.64,3.83,5.13,8.23,8.66,11.27.48.41,1.43.03,1.17-.69-1.69-4.64-5.14-8.73-7.96-12.77-2.81-4.04-5.59-8.53-9.03-12.22-.78-.83-1.97.22-1.5,1.16l.02.02Z"/>
          <path class="cls-4" d="M93.17,120.56c7.49-9.56,15.05-19.54,21-30.13.35-.62-.52-1.36-1.02-.78-7.97,9.16-14.88,19.59-21.37,29.84-.52.83.76,1.86,1.38,1.07Z"/>
          <path class="cls-4" d="M131.38,95.64l-.86-1.17-1.47,1.14c3.38,4.09,7.06,7.94,10.63,11.86,3.18,3.49,6.16,7.46,10.04,10.15.52.36,1.12-.33.83-.83-2.35-4.11-6.09-7.46-9.29-10.91-3.59-3.88-7.11-7.89-10.89-11.58-.86-.85-2.14.45-1.33,1.33l1,1.07c.66.69,1.93-.24,1.35-1.04l-.02-.02Z"/>
          <path class="cls-4" d="M133.95,121.41c5.52-9.32,11.84-18.59,16.14-28.56.38-.9-.74-1.57-1.31-.76-6.3,8.84-10.94,19.05-16.03,28.61-.43.79.76,1.48,1.21.71Z"/>
          <path class="cls-4" d="M79.11,125.7c4.4,21.31,34.52,25.11,52.35,24.68,15.93-.38,38.76-11.3,34.88-30.84-.28-1.36-2.19-.91-2.3.31-1.64,20.05-18.41,28.2-36.92,27.58-17.33-.59-39.35-4.19-46.68-22.09-.33-.81-1.52-.53-1.35.36h.02Z"/>
          <path class="cls-4" d="M129.8,149.71c-2.38,8.61-1.1,22.92,11.25,21.23,12.36-1.69,13.22-16.95,11.84-26.63-.19-1.29-2.17-.74-1.97.54,1.28,8.15,1.52,19.88-7.78,23.51-5.66,2.21-10.86-.85-12.51-6.52-1.16-3.93-.36-8.04-.09-12.03.03-.43-.64-.5-.74-.1v.02Z"/>
          <path class="cls-4" d="M140.48,148.61c-.28,2.36.35,4.87.71,7.2.36,2.33.48,4.85,1.74,6.87.19.29.69.28.78-.1.52-2.23-.1-4.56-.48-6.78-.43-2.5-.64-5.18-1.73-7.47-.26-.55-.98-.21-1.04.28l.02.02Z"/>
        </g>
      </g>
    </g>
  </g>
</svg>