<?xml version="1.0" encoding="UTF-8"?>
<svg id="Capa_2" data-name="Capa 2" xmlns="http://www.w3.org/2000/svg" viewBox="0 0 88.46 96.69">
  <defs>
    <style>
      .cls-1 {
        fill: #fff;
      }
    </style>
  </defs>
  <g id="Capa_1-2" data-name="Capa 1">
    <g>
      <g>
        <path class="cls-1" d="M10.82,18.46s-6.92-1.56-4.46-7.72S18.76,1.01,30.88,1.02c12.13,0,25.13,8.19,13.06,14.58,0,0,5.11,2.86,9.09,8.64,3.98,5.78,9.55,5.65,19.99,5.66,10.44.01,14.24.72,14.41,7.64.16,6.92-11.23,11.53-19.86,10.18-8.63-1.35-18.49-3.83-20.26.54-1.78,4.37-.57,31.61.05,39.08.62,7.47-10.97,12.23-14.89,4.1-3.92-8.13-3.67-19.22-3.67-19.22,0,0-8.73,4.87-13.67-6.56,0,0-6.53,3.07-11.75-3.85-5.22-6.91-.19-14.67-.53-18.41S.35,23.87,10.82,18.46Z"/>
        <g>
          <path d="M11,17.47c-1.75-.4-3.97-1.8-4.16-3.95-.35-3.96,3.87-6.95,6.98-8.38,4.78-2.21,10.17-2.96,15.39-3.11,5.14-.14,10.62.7,15.05,3.47,1.49.93,3.45,2.45,3.49,4.4.06,2.36-2.62,3.91-4.39,4.87-.72.39-.43,1.39.15,1.72,1.85,1.05,3.54,2.51,5.05,3.98,2.47,2.41,4.07,5.73,6.95,7.7,2.34,1.6,5.13,2.21,7.92,2.47,3.87.35,7.77.2,11.65.25,2.79.04,6.07-.07,8.66,1.17,2,.96,2.56,2.94,2.67,5.02.37,6.77-9.04,9.47-14.28,9.82-3.91.26-7.79-.78-11.63-1.38-3.41-.54-7.24-1.25-10.65-.37-2.08.54-3.38,1.89-3.81,3.97s-.47,4.09-.55,6.12c-.23,5.99-.08,11.99.13,17.98.1,2.87.22,5.74.38,8.62.11,2.05.44,4.17.38,6.23-.14,5.33-7.52,8.76-11.5,5.04-1.28-1.19-1.93-2.9-2.51-4.5-.71-1.94-1.23-3.95-1.62-5.98-.56-2.99-.87-6.03-.95-9.06-.01-.48-.02-.96-.01-1.44.02-.84-.99-1.05-1.57-.73.32-.18.01,0-.16.07-.32.13-.63.26-.96.36-.96.31-2,.46-3.01.41-4-.2-6.53-3.56-8.03-6.94-.21-.47-.77-.83-1.29-.59-2.41,1.11-5.45.7-7.64-.69-2.47-1.56-4.35-4.25-4.93-7.11-.5-2.5-.08-5.05.51-7.49.45-1.86,1.16-3.77,1.14-5.71,0-1.12-.2-2.25-.28-3.37-.25-3.41-.21-6.87.47-10.23.92-4.54,3.16-8.63,7.36-10.85,1.13-.6-.03-2.23-1.16-1.63C2.33,21.85,1.05,31.67,1.53,39.74c.07,1.22.22,2.43.31,3.65.15,2.05-.75,4.19-1.2,6.17-.62,2.68-.92,5.47-.28,8.17.69,2.91,2.49,5.59,4.87,7.39,2.81,2.13,6.94,3,10.25,1.47l-1.29-.59c1.75,3.96,4.73,7.77,9.35,8.19,1.98.18,4.09-.2,5.84-1.17l-1.57-.73c-.12,5.79.76,11.95,2.83,17.37,1.16,3.03,2.83,5.8,6.13,6.72,2.63.74,5.53.03,7.74-1.5s3.81-4.08,3.87-6.86c.04-2.18-.28-4.42-.4-6.6-.34-6.4-.57-12.8-.6-19.21-.01-2.87,0-5.74.17-8.6.09-1.55.1-3.78.71-5.03,1.3-2.68,6.31-1.83,8.6-1.56,4.22.49,8.41,1.67,12.66,1.89,3.64.19,7.38-.45,10.75-1.85,2.87-1.2,5.74-3.04,7.26-5.84,1.24-2.27,1.19-5.34.2-7.71-.9-2.15-2.77-3.31-4.96-3.88-3.36-.88-7.03-.72-10.47-.72-3.77,0-7.66.15-11.37-.63-2.91-.61-5.25-2.07-6.99-4.5-2.2-3.07-4.8-5.83-7.9-8.01-.54-.38-1.09-.75-1.66-1.07l.15,1.72c2.13-1.16,4.52-2.82,5.11-5.34.45-1.94-.42-3.78-1.73-5.18C44.1,1.84,37.58.31,32.24.06c-6.15-.29-12.83.5-18.52,2.95-4.01,1.72-8.46,4.9-8.86,9.65-.29,3.5,2.58,6.04,5.78,6.78,1.26.29,1.61-1.68.36-1.97Z"/>
          <path d="M36.32,15.21c1.52-.14,3.09-.01,4.58.29.68.14,1.34.33,2,.52.31.09.85.33,1.19.24.41-.11.61-.59.4-.95-.16-.29-.68-.47-.97-.6s-.63-.23-.95-.32c-.68-.19-1.37-.34-2.08-.43-1.42-.19-2.85-.13-4.27.09-.73.11-.66,1.23.09,1.16h0Z"/>
          <path d="M17.23,16.35c-.77.02-1.53-.02-2.3.04-.71.05-1.42.16-2.11.33s-1.4.4-2.04.73-1.32.73-1.7,1.35c-.17.28-.06.66.19.84.12.08.25.14.4.13.07,0,.51-.13.46-.2.04.05.68-.44.77-.5.26-.16.53-.3.81-.43.58-.27,1.19-.46,1.81-.6,1.2-.27,2.47-.48,3.7-.58.7-.06.72-1.12,0-1.1h0Z"/>
          <path d="M85.28,36.8c.16-3.56-4.45-4.33-7.07-4.59-4.81-.47-9.63-.19-14.45-.27-3.59-.06-7.42-.8-10.34-3.01-1.53-1.15-2.51-2.65-3.32-4.35-.7-1.48-1.4-2.97-2.86-3.83-.63-.37-1.33.54-.78,1.04,1.34,1.23,1.92,2.77,2.72,4.35.74,1.47,1.77,2.73,3.06,3.75,2.55,2.02,5.78,2.99,8.97,3.36,4.01.46,8.12.06,12.15.14,2.18.04,4.39.13,6.55.43,1.63.23,4.3.92,4.26,2.99-.02.72,1.09.69,1.12-.02h0Z"/>
          <path d="M43.08,91.34c-1.2.98-2.85,1.32-4.38,1.26-2-.07-3.12-1.13-3.96-2.89-1.23-2.59-1.58-5.6-1.83-8.43-.49-5.64-.48-11.33-.44-16.99.01-1.46-.02-2.94.02-4.4.02-.86-1.31-.81-1.33.05-.12,4.64-.16,9.27-.03,13.92.08,3.03.21,6.08.56,9.09s.93,6.55,2.87,9.05c2.16,2.77,6.74,2.33,9.22.2.48-.41-.22-1.26-.71-.86h0Z"/>
          <path d="M26.58,70.24c-1.95-.02-3.98-.37-5.56-1.6-1.42-1.1-2.48-2.68-3.18-4.32-1.41-3.31-1.31-6.8-1.11-10.31.04-.68-1.05-.96-1.22-.24-.86,3.75-.41,8.21,1.28,11.68.86,1.78,2.15,3.5,3.82,4.6,1.76,1.16,3.89,1.4,5.95,1.29.7-.04.72-1.09.01-1.09h0Z"/>
          <path d="M12.7,63.9c-3.33-.69-6.32-2.77-7.83-5.86-1.61-3.29-1.23-7.07.54-10.21.42-.74-.67-1.34-1.13-.65-2.26,3.4-2.42,8.08-.53,11.68,1.75,3.33,5.08,5.63,8.81,6.1.61.08.76-.94.16-1.07h0Z"/>
          <path d="M11.76,15.02c-1.37-.4-2.27-1.77-2.32-3.17-.06-1.71,1.39-2.74,2.76-3.42,3.04-1.52,6.35-2.52,9.69-3.11s6.71-.72,10.07-.42c3.54.31,6.88,1.25,10.26,2.3.74.23,1.11-.98.41-1.29-7.58-3.35-16.87-3.39-24.76-1.16-1.97.56-3.91,1.26-5.77,2.13-1.38.65-2.82,1.46-3.57,2.84-1.37,2.54.27,5.8,3.01,6.43.73.17.93-.92.23-1.13h0Z"/>
          <path d="M29.8,73.61c-.25-5.72.47-11.59,1.68-17.17.27-1.26-1.7-1.62-1.97-.36-1.25,5.75-1.96,11.81-1.7,17.7.06,1.29,2.05,1.11,1.99-.17h0Z"/>
          <path d="M15.94,65.08c-.11-.2.13.29-.01-.02-.1-.22-.21-.44-.3-.67-.34-.81-.6-1.66-.8-2.51-.71-2.97-.65-6.1-.13-9.09.22-1.27-1.74-1.63-1.97-.36-.59,3.32-.59,6.72.19,10.02.31,1.3.72,2.63,1.39,3.8.27.47.98.52,1.39.24.48-.33.5-.93.24-1.39h0Z"/>
        </g>
      </g>
      <path d="M17.59,31.97c.92-4.62,2.02-9.44,5.14-13.12.83-.98-.68-2.28-1.51-1.3-3.35,3.95-4.6,9.07-5.59,14.03-.25,1.26,1.71,1.64,1.96.38h0Z"/>
      <path d="M25.02,34.89c.5-2.69.93-5.42,1.59-8.08.62-2.51,1.56-4.92,2.77-7.2.6-1.14-1.19-2-1.79-.87-1.24,2.35-2.2,4.83-2.86,7.41-.7,2.75-1.14,5.57-1.66,8.36-.24,1.26,1.72,1.64,1.96.38h0Z"/>
      <path d="M31.57,38.87c.44-6.31,1.11-12.59,2.02-18.85.18-1.27-1.77-1.65-1.96-.38-.91,6.26-1.58,12.54-2.02,18.85-.09,1.26,1.87,1.66,1.96.38h0Z"/>
    </g>
  </g>
</svg>