<svg xmlns="http://www.w3.org/2000/svg" xmlns:xlink="http://www.w3.org/1999/xlink" id="Capa_1" data-name="Capa 1" viewBox="0 0 247 246"><defs><style>      .cls-1 {        fill: #6976df;      }      .cls-1, .cls-2, .cls-3, .cls-4, .cls-5, .cls-6 {        stroke-width: 0px;      }      .cls-2 {        fill: url(#Degradado_sin_nombre_4);      }      .cls-3 {        fill: url(#Degradado_sin_nombre_3);      }      .cls-4 {        fill: url(#Degradado_sin_nombre_2);      }      .cls-5 {        fill: url(#Degradado_sin_nombre);      }      .cls-7 {        fill: none;        stroke: #fff;        stroke-dasharray: 0 0 6 6;      }      .cls-6 {        fill: #fff;      }    </style><linearGradient id="Degradado_sin_nombre" data-name="Degradado sin nombre" x1="183.95" y1="248" x2="183.95" y2="2.73" gradientTransform="translate(0 248) scale(1 -1)" gradientUnits="userSpaceOnUse"><stop offset=".64" stop-color="#6976df"></stop><stop offset="1" stop-color="#5a65dc"></stop></linearGradient><linearGradient id="Degradado_sin_nombre_2" data-name="Degradado sin nombre 2" x1="1" y1="186.68" x2="246.27" y2="186.68" gradientTransform="translate(0 248) scale(1 -1)" gradientUnits="userSpaceOnUse"><stop offset=".64" stop-color="#6976df"></stop><stop offset="1" stop-color="#5a65dc"></stop></linearGradient><linearGradient id="Degradado_sin_nombre_3" data-name="Degradado sin nombre 3" x1="246.27" y1="64.05" x2="1" y2="64.05" gradientTransform="translate(0 248) scale(1 -1)" gradientUnits="userSpaceOnUse"><stop offset=".64" stop-color="#6976df"></stop><stop offset="1" stop-color="#5a65dc"></stop></linearGradient><linearGradient id="Degradado_sin_nombre_4" data-name="Degradado sin nombre 4" x1="62.31" y1="2.62" x2="62.31" y2="247.88" gradientTransform="translate(0 248) scale(1 -1)" gradientUnits="userSpaceOnUse"><stop offset=".58" stop-color="#5a65dc"></stop><stop offset=".77" stop-color="#6976df"></stop><stop offset=".83" stop-color="#6976df"></stop></linearGradient></defs><circle class="cls-1" cx="123.63" cy="122.63" r="122.63"></circle><path class="cls-5" d="M245.27,122.63c0,16.1-3.17,32.05-9.34,46.93-6.16,14.88-15.2,28.4-26.58,39.79-11.39,11.39-24.91,20.42-39.79,26.58-14.88,6.16-30.82,9.34-46.93,9.34v-122.63h122.63Z"></path><path class="cls-4" d="M123.63,0c16.1,0,32.05,3.17,46.93,9.33,14.88,6.16,28.4,15.2,39.79,26.58,11.39,11.39,20.42,24.91,26.58,39.78,6.16,14.88,9.34,30.83,9.34,46.93h-122.63V0Z"></path><path class="cls-3" d="M123.63,245.27c-16.11,0-32.05-3.17-46.93-9.34s-28.4-15.2-39.78-26.58c-11.39-11.39-20.42-24.91-26.58-39.79-6.16-14.88-9.33-30.82-9.33-46.93h122.63v122.63Z"></path><path class="cls-2" d="M.99,122.75c0-16.1,3.17-32.05,9.33-46.93,6.16-14.88,15.2-28.4,26.58-39.78,11.39-11.39,24.91-20.42,39.78-26.58C91.57,3.29,107.52.12,123.63.12v122.63H.99Z"></path><circle class="cls-7" cx="123.5" cy="123" r="73.52"></circle><g><path class="cls-6" d="M34.9,74.07l4.8-7.12c3.45-5.13,8.91-6.56,13.66-3.37,4.75,3.2,5.47,8.79,2.02,13.92l-4.8,7.12-15.68-10.56ZM52.28,75.68c2.1-3.11,1.61-6.4-1.39-8.42-3-2.02-6.23-1.24-8.33,1.88l-2.23,3.32,9.72,6.54,2.23-3.31Z"></path><path class="cls-6" d="M55.64,60.94c-3.69-4.23-3.13-10.24,1.37-14.17,4.48-3.9,10.51-3.68,14.22.57,3.71,4.25,3.11,10.26-1.37,14.17-4.5,3.92-10.53,3.66-14.22-.57ZM67.9,50.26c-2.36-2.71-5.89-2.89-8.43-.67-2.54,2.22-2.84,5.74-.48,8.45s5.89,2.89,8.43.67c2.54-2.22,2.84-5.74.48-8.45Z"></path><path class="cls-6" d="M78.06,33.01l3.95-1.88,8.13,17.06-3.95,1.88-8.13-17.06Z"></path><path class="cls-6" d="M92.83,30.73l-5.78,1.78-1.05-3.41,15.75-4.85,1.05,3.4-5.78,1.78,4.51,14.65-4.18,1.29-4.51-14.65Z"></path><path class="cls-6" d="M128.38,37.08l-8.78-.06-1.7,4.04-4.48-.03,8.54-18.85,4.32.03,8.34,18.96-4.59-.03-1.65-4.06ZM127.03,33.75l-2.95-7.26-3.04,7.22,6,.04Z"></path><path class="cls-6" d="M157.03,27.58l-4.73,18.29-3.48-.9-6.26-13.47-2.87,11.11-4.18-1.08,4.73-18.29,3.5.91,6.23,13.46,2.87-11.11,4.18,1.08Z"></path><path class="cls-6" d="M166.62,45.61l-3.11,5.93-3.87-2.04,3.14-5.98-.84-14.16,4.11,2.16.57,9.78,8.37-5.09,3.8,2-12.17,7.39Z"></path><path class="cls-6" d="M204.07,60.54l-17.52,9.41-3.4-3.24,5.82-12.13-11.94,6.3-3.38-3.22,8.55-17.97,3.28,3.13-6.08,12.56,12.39-6.54,2.93,2.8-6.12,12.67,12.43-6.65,3.03,2.89Z"></path><path class="cls-6" d="M200.3,84.15l-4.35-7.63-4.35.55-2.22-3.9,20.59-2.04,2.14,3.75-12.23,16.71-2.27-3.99,2.69-3.46ZM202.5,81.31l4.8-6.19-7.77.98,2.97,5.21Z"></path><path class="cls-6" d="M208.62,98.31l-6.38,2.03-1.32-4.17,6.43-2.04,9.36-10.65,1.41,4.43-6.47,7.36,9.53,2.27,1.3,4.09-13.86-3.3Z"></path></g><g><path class="cls-6" d="M214.87,166.5l-4.36,7.4c-3.14,5.33-8.5,7.09-13.43,4.18-4.93-2.91-5.99-8.45-2.85-13.78l4.36-7.4,16.29,9.59ZM197.43,165.94c-1.9,3.23-1.22,6.49,1.9,8.32,3.12,1.84,6.3.86,8.2-2.38l2.03-3.44-10.1-5.95-2.03,3.44Z"></path><path class="cls-6" d="M194.96,180.86c3.94,4,3.74,10.04-.52,14.22-4.23,4.17-10.27,4.31-14.23.29-3.96-4.02-3.72-10.06.52-14.22,4.25-4.18,10.29-4.29,14.23-.29ZM183.37,192.26c2.52,2.56,6.05,2.53,8.46.16,2.41-2.37,2.49-5.9-.03-8.46-2.52-2.56-6.05-2.53-8.46-.16-2.41,2.37-2.49,5.9.03,8.46Z"></path><path class="cls-6" d="M174.26,210.1l-3.83,2.12-9.14-16.55,3.83-2.12,9.15,16.55Z"></path><path class="cls-6" d="M159.65,213.26l5.66-2.13,1.25,3.34-15.43,5.79-1.25-3.33,5.66-2.12-5.38-14.36,4.1-1.54,5.38,14.36Z"></path><path class="cls-6" d="M123.78,209.05l8.76-.47,1.45-4.14,4.48-.24-7.39,19.33-4.31.23-9.46-18.42,4.58-.25,1.89,3.95ZM125.34,212.3l3.38,7.07,2.6-7.39-5.99.32Z"></path><path class="cls-6" d="M95.76,220.26l3.61-18.55,3.53.69,7.06,13.06,2.19-11.26,4.24.83-3.61,18.54-3.55-.69-7.03-13.06-2.19,11.26-4.24-.83Z"></path><path class="cls-6" d="M85.11,202.85l2.75-6.11,3.99,1.8-2.77,6.15,1.69,14.09-4.24-1.91-1.16-9.73-8.05,5.58-3.92-1.76,11.71-8.11Z"></path><path class="cls-6" d="M46.82,190.2l16.92-10.45,3.59,3.03-5.08,12.46,11.54-7.01,3.57,3.01-7.45,18.45-3.47-2.93,5.32-12.9-11.98,7.27-3.09-2.62,5.34-13.02-12.01,7.39-3.2-2.7Z"></path><path class="cls-6" d="M49.16,166.4l4.8,7.35,4.31-.81,2.45,3.75-20.43,3.28-2.36-3.62,11.2-17.42,2.51,3.84-2.47,3.62ZM47.13,169.37l-4.42,6.47,7.7-1.45-3.28-5.02Z"></path><path class="cls-6" d="M40.01,152.77l6.25-2.41,1.57,4.08-6.3,2.43-8.71,11.2-1.67-4.33,6.02-7.73-9.65-1.69-1.54-4.01,14.03,2.46Z"></path></g><circle class="cls-7" cx="123.5" cy="123" r="73.52"></circle><circle class="cls-7" cx="123.5" cy="123" r="114.49"></circle><g><path class="cls-6" d="M103.99,133.27c1.99,2.11,4.15,4.06,6.25,6.06,1.87,1.78,3.7,3.91,5.88,5.3.37.23.9-.25.62-.62-1.54-2.08-3.77-3.75-5.68-5.5-2.14-1.96-4.24-3.98-6.48-5.83-.41-.34-.97.19-.59.59h0Z"></path><path class="cls-6" d="M105.51,132.29c11.41-25.73,33.81-45.14,60.97-52.53.78-.21.45-1.41-.33-1.21-27.39,7.21-50.54,27.27-61.41,53.41-.18.44.58.76.77.33h0Z"></path><path class="cls-6" d="M117.25,143.67c24.66-13.74,43.16-36.85,52.33-63.46.26-.76-.95-1.09-1.21-.33-9.15,26.56-27.59,48.56-51.45,63.23-.36.22-.04.77.33.57h0Z"></path><path class="cls-6" d="M146.21,87.22c1.9,2.37,4.31,4.41,6.49,6.52s4.38,4.3,6.66,6.36c.43.38,1.29.02,1.05-.61l-.26-.7c-.13-.35-.68-.42-.78,0l-.17.7,1.05-.28c-4.22-4.29-8.66-9.1-13.52-12.67-.42-.31-.8.33-.52.67h0Z"></path><path class="cls-6" d="M135.76,104.65c1.98-.55,4.29.13,5.31,2.01s.32,4.48-1.51,5.57c-1.65.98-4.02.57-5.27-.88-1.56-1.8-.96-4.23.46-5.87.35-.41-.13-1.19-.62-.81-2.09,1.61-2.52,4.87-1,7.03s4.55,2.78,6.78,1.55,3.23-4.16,2.29-6.5c-1.02-2.56-4.11-3.72-6.61-2.71-.37.15-.23.72.17.61h0Z"></path><path class="cls-6" d="M123.95,138.6c4.54,4.35,7.13,9.37,5.52,15.81-1.32,5.28-4.87,8.49-7.76,12.84-.16.25.16.58.41.41,8.27-5.58,14.22-24.45,2-29.36-.17-.07-.29.18-.17.3h0Z"></path><path class="cls-6" d="M122.41,168.19c9.19-5.33,18.9-11.91,23.42-21.92,3.28-7.26,3.49-17.82-3.17-23.35-.36-.3-1.02.09-.71.54,5.78,8.19,6.27,16.94.93,25.62-5.01,8.14-13.19,13.13-20.86,18.44-.4.28-.05.91.38.66h0Z"></path><path class="cls-6" d="M79.8,132.23c7.07-8.56,17.43-11.43,27.67-6.79.77.35,1.44-.75.67-1.15-10.13-5.26-22.79-2.28-28.77,7.61-.16.26.23.57.43.33h0Z"></path><path class="cls-6" d="M78.27,131.25c3.78-7.18,7.44-14.45,14.09-19.47,7.46-5.62,16.82-6.6,24.87-1.7.59.36,1.34-.54.76-.99-6.67-5.22-16.2-4.47-23.3-.48-8.31,4.67-13.85,13.63-16.92,22.42-.1.29.36.49.5.21h0Z"></path><path class="cls-6" d="M104.98,134.6c-2.73.52-5.36,1.94-7.93,3.01-2.29.95-4.75,1.73-6.85,3.06-.35.22-.13.78.29.68,2.41-.59,4.68-1.81,6.96-2.79,2.55-1.1,5.4-2,7.68-3.6.18-.12.07-.39-.15-.35h0Z"></path><path class="cls-6" d="M90.1,142.14c2.02.22,4.05.24,6.07.31.7.02.7-1.07,0-1.09-2.02-.05-4.05-.14-6.07-.03-.53.03-.51.75,0,.81h0Z"></path><path class="cls-6" d="M94.65,142.34c-3.53,6.38-7.76,12.87-10.4,19.67-.16.41.45.61.68.29,4.11-5.95,7.12-13.12,10.4-19.56.23-.45-.43-.84-.67-.39h0Z"></path><path class="cls-6" d="M83.15,164.09c6.52-3.36,13.34-7.2,19.34-11.43.53-.38.08-1.17-.51-.88-6.56,3.28-13.17,7.48-19.22,11.63-.41.28-.06.91.39.67h0Z"></path><path class="cls-6" d="M102.1,152.89l-.02,2.24c0,.67-.11,1.38.1,2.02.12.39.66.39.78,0,.2-.64.1-1.36.1-2.02l-.02-2.24c0-.6-.93-.6-.94,0h0Z"></path><path class="cls-6" d="M102.8,158.23c4.35-4.92,8.65-9.88,12.85-14.93.45-.54-.32-1.32-.78-.78-4.27,5-8.45,10.09-12.57,15.21-.28.35.19.85.5.5h0Z"></path><path class="cls-6" d="M133.99,108.82c.78.58,1.56,1.16,2.34,1.74.68.51,1.36,1.16,2.17,1.45.14.05.29-.13.2-.26-.49-.66-1.27-1.11-1.93-1.6-.83-.61-1.66-1.22-2.49-1.84-.3-.22-.58.28-.29.49h0Z"></path><path class="cls-6" d="M134.98,106.75c.84.73,1.69,1.47,2.53,2.2.75.65,1.48,1.42,2.37,1.88.09.05.22-.06.15-.15-.58-.81-1.43-1.42-2.18-2.07-.85-.73-1.69-1.47-2.54-2.2-.23-.2-.57.14-.34.34h0Z"></path><path class="cls-6" d="M166.73,79.51s.08.05.12.07l-.07-.12v.05c0,.1.05.19.13.24.23.14.93.48,1.05.05.06-.21-.12-.34-.28-.4-.21-.08-.41-.14-.63-.16-.1-.01-.18.06-.24.14l-.02.02.15-.06s-.1-.01-.14-.02c-.11-.02-.2.13-.08.2h0Z"></path><path class="cls-6" d="M167.1,79.1s0-.01,0-.01,0,.01,0,.01h0Z"></path><path class="cls-6" d="M166.78,78.78s0-.01,0-.01,0,.01,0,.01h0Z"></path><path class="cls-6" d="M165.59,79.08c.34-.11.68-.23,1.03-.34.31-.11.65-.18.92-.38.16-.11.12-.4-.11-.39-.34,0-.65.14-.96.25-.34.11-.68.23-1.03.34s-.19.64.14.52h0Z"></path><path class="cls-6" d="M165.9,78.74c.53-.11,1.08-.18,1.59-.33.29-.08.25-.59-.07-.55-.56.07-1.12.21-1.67.32-.37.07-.21.64.16.56h0Z"></path><path class="cls-6" d="M166.3,79.36c.43-.21.85-.43,1.28-.64.34-.17.04-.69-.3-.52-.43.21-.85.42-1.28.64-.35.17-.04.7.3.52h0Z"></path></g><g><path class="cls-6" d="M25.94,115.74c3.97.3,8.05-4.83,8.03-8.52,0-.8-1.03-.83-1.3-.18l-.19.46c-.12.29.22.56.49.49l.51-.14-.81-.81c-.55,1.92-1.01,3.57-2.41,5.09-1.31,1.41-2.92,1.97-4.49,2.96-.31.19-.17.63.18.66h0Z"></path><path class="cls-6" d="M26.69,116.34c1.77-.03,3.5.59,4.8,1.8.58.54,1.07,1.2,1.4,1.92.29.62.28,1.07.83,1.49.15.12.41.03.5-.13.81-1.47-1.26-3.68-2.34-4.52-1.55-1.21-3.37-1.7-5.31-1.37-.46.08-.34.81.11.8h0Z"></path><path class="cls-6" d="M34.48,120.52c1.1-1.11,2.17-2.23,3.19-3.42.7-.83,2.11-1.88,2-3.05-.02-.21-.18-.45-.43-.43-1.26.12-2.03,1.69-2.77,2.61-.97,1.2-1.87,2.44-2.75,3.7-.32.46.38.97.76.59h0Z"></path><path class="cls-6" d="M32.83,107.8c.74,3.21,3.32,5.83,6.3,7.09.87.37,1.39-.83.51-1.2-2.81-1.16-4.63-3.43-5.77-6.18-.26-.63-1.2-.41-1.04.29h0Z"></path></g><g><path class="cls-6" d="M205.43,136.29c3.97.3,8.05-4.83,8.03-8.52,0-.8-1.03-.83-1.3-.18l-.19.46c-.12.29.22.56.49.49l.51-.14-.81-.81c-.55,1.92-1.01,3.57-2.41,5.09-1.31,1.41-2.92,1.97-4.49,2.96-.31.19-.17.63.18.66h0Z"></path><path class="cls-6" d="M206.17,136.89c1.77-.03,3.5.59,4.8,1.8.58.54,1.07,1.2,1.4,1.92.29.62.28,1.07.83,1.49.15.12.41.03.5-.13.81-1.47-1.26-3.68-2.34-4.52-1.55-1.21-3.37-1.7-5.31-1.37-.46.08-.34.81.11.8h0Z"></path><path class="cls-6" d="M213.97,141.07c1.1-1.11,2.17-2.23,3.19-3.42.7-.83,2.11-1.88,2-3.05-.02-.21-.18-.45-.43-.43-1.26.12-2.03,1.69-2.77,2.61-.97,1.2-1.87,2.44-2.75,3.7-.32.46.38.97.76.59h0Z"></path><path class="cls-6" d="M212.32,128.35c.74,3.21,3.32,5.83,6.3,7.09.87.37,1.39-.83.51-1.2-2.81-1.16-4.63-3.43-5.77-6.18-.26-.63-1.2-.41-1.04.29h0Z"></path></g></svg>