<svg width="350" height="240" viewBox="0 0 350 240" fill="none" xmlns="http://www.w3.org/2000/svg">
<g clip-path="url(#clip0_256_3187)">
<rect width="350" height="240" rx="25" fill="#131217"/>
<path d="M41.376 68L40.896 60.56H38.208L37.68 68H30L34.848 34.4H44.256L49.104 68H41.376ZM38.64 54.32H40.464L39.792 44.048H39.312L38.64 54.32ZM67.3283 48.08L67.2803 68H60.4163L61.4723 62.144H60.9922C60.0803 67.088 58.1603 68.48 55.1843 68.48C51.0563 68.48 49.3763 65.12 49.3763 58.688V43.088C49.3763 37.088 51.8242 33.92 58.3523 33.92C64.8323 33.92 67.2803 37.088 67.2803 43.088V46.592H60.1283V45.008C60.1283 41.6 59.6483 40.784 58.3523 40.784C57.0563 40.784 56.5763 41.6 56.5763 45.008V48.08H67.3283ZM56.5763 54.32V56.768C56.5763 60.656 56.9603 61.616 58.1603 61.616C58.9763 61.616 59.6483 60.704 59.6483 56.528V54.32H56.5763ZM83.0843 34.4V41.264H76.7963V47.744H82.3643V53.984H76.7963V61.136H83.0843V68H69.1163V34.4H83.0843ZM93.3188 34.4L95.9108 53.312H96.3907L95.9108 34.4H102.583V68H93.9908L91.3988 48.848H90.9188L91.3988 68H84.6788V34.4H93.3188ZM122.218 53.984L122.266 59.312C122.266 65.312 119.77 68.48 113.29 68.48C106.762 68.48 104.314 65.312 104.314 59.312V43.088C104.314 37.088 106.762 33.92 113.29 33.92C119.77 33.92 122.218 37.088 122.218 43.088V46.592H114.778V45.008C114.778 41.6 114.394 40.784 113.29 40.784C112.186 40.784 111.754 41.6 111.754 45.008V57.392C111.754 60.8 112.186 61.616 113.29 61.616C114.394 61.616 114.826 60.8 114.826 57.392C114.826 52.448 114.49 50.864 114.49 50.864H121.93C121.93 50.864 122.218 51.536 122.218 53.984ZM124.008 68V34.4H131.64V68H124.008ZM144.032 68L143.552 60.56H140.864L140.336 68H132.656L137.504 34.4H146.912L151.76 68H144.032ZM141.296 54.32H143.12L142.448 44.048H141.968L141.296 54.32ZM159.041 58.016C159.041 60.416 159.569 61.616 160.673 61.616C161.729 61.616 162.305 60.704 162.305 58.304V57.824C162.305 54.512 160.097 53.312 157.505 51.632C154.673 49.76 151.841 47.744 151.841 42.608V42.128C151.841 37.472 154.289 33.92 160.817 33.92C167.297 33.92 169.793 37.088 169.793 43.088V46.592H162.593V45.008C162.593 41.6 161.921 40.784 160.625 40.784C159.713 40.784 159.281 41.456 159.281 42.56V43.04C159.281 45.296 161.681 46.832 164.225 48.56C167.153 50.576 169.793 52.544 169.793 58.208V59.168C169.793 65.168 167.297 68.48 160.817 68.48C154.289 68.48 151.841 65.168 151.841 59.168V57.056C151.841 54.56 152.177 53.936 152.177 53.936H159.377C159.377 53.936 159.041 55.04 159.041 58.016ZM198.771 43.568V58.688C198.771 65.6 197.379 68.48 193.251 68.48C190.371 68.48 188.259 67.088 187.299 62.624H186.819L187.683 68H180.819V34.4H189.795C196.275 34.4 198.771 37.088 198.771 43.568ZM191.571 56.768V45.968C191.571 42.08 191.091 41.264 189.795 41.264H188.499V56.528C188.499 60.704 189.123 61.616 189.987 61.616C191.139 61.616 191.571 60.656 191.571 56.768ZM214.428 34.4V41.264H208.14V47.744H213.708V53.984H208.14V61.136H214.428V68H200.46V34.4H214.428Z" fill="#EFA6F5"/>
<path d="M44.928 82.4H54.864V116H47.184L47.664 96.704H47.184L45.264 116H40.56L38.64 96.704H38.16L38.64 116H30.96V82.4H40.896L42.672 104.192H43.152L44.928 82.4ZM67.251 116L66.771 108.56H64.083L63.555 116H55.875L60.723 82.4H70.131L74.979 116H67.251ZM64.515 102.32H66.339L65.667 92.048H65.187L64.515 102.32ZM94.056 105.92V109.424C94.056 114.368 94.392 116 94.392 116H86.712C86.712 116 86.376 115.328 86.376 112.88V105.728C86.376 101.888 85.464 101.072 83.88 101.072H83.64V116H75.96V82.4H85.416C91.704 82.4 94.152 84.032 94.152 89.696C94.152 95.216 92.424 97.376 86.952 97.376V97.856C92.136 97.856 94.056 99.488 94.056 105.92ZM83.64 94.208H85.416C86.712 94.208 87.192 93.488 87.192 91.712C87.192 90.128 86.712 89.264 85.416 89.264H83.64V94.208ZM113.499 105.632V109.424C113.499 114.368 113.835 116 113.835 116H106.395C106.395 116 106.059 115.328 106.059 112.88V104.288C106.059 100.4 105.147 99.632 103.611 99.632H103.035V116H95.835V82.4H103.035V95.504H103.515L105.915 82.4H113.787L110.091 96.8L107.307 97.136V97.616C112.299 97.616 113.499 99.92 113.499 105.632ZM129.256 82.4V89.264H122.968V95.744H128.536V101.984H122.968V109.136H129.256V116H115.288V82.4H129.256ZM142.083 89.264V116H134.403V89.264H129.891V82.4H146.595V89.264H142.083ZM147.586 116V82.4H155.218V116H147.586ZM165.834 82.4L168.426 101.312H168.906L168.426 82.4H175.098V116H166.506L163.914 96.848H163.434L163.914 116H157.194V82.4H165.834ZM194.781 96.08L194.733 116H187.869L188.925 110.144H188.445C187.533 115.088 185.613 116.48 182.637 116.48C178.509 116.48 176.829 113.12 176.829 106.688V91.088C176.829 85.088 179.277 81.92 185.805 81.92C192.285 81.92 194.733 85.088 194.733 91.088V94.592H187.581V93.008C187.581 89.6 187.101 88.784 185.805 88.784C184.509 88.784 184.029 89.6 184.029 93.008V96.08H194.781ZM184.029 102.32V104.768C184.029 108.656 184.413 109.616 185.613 109.616C186.429 109.616 187.101 108.704 187.101 104.528V102.32H184.029Z" fill="#6976DF"/>
<rect x="26" y="144" width="100" height="30" fill="#BBC5F7"/>
<path d="M44.775 150.5V154.075H41.5V157.45H44.4V160.7H41.5V164.425H44.775V168H37.5V150.5H44.775ZM54.6305 168H50.8805V160.775C50.8805 158.75 50.6555 158.325 50.1305 158.325C49.6305 158.325 49.2805 158.725 49.2805 160.9V168H45.5305V155H49.1055L48.6555 158.225H48.9055C49.2805 155.4 50.4055 154.75 51.8805 154.75C54.1555 154.75 54.6305 156.425 54.6305 159.775V168ZM67.7975 150.5H72.9725V168H68.9725L69.2225 157.95H68.9725L67.9725 168H65.5225L64.5225 157.95H64.2725L64.5225 168H60.5225V150.5H65.6975L66.6225 161.85H66.8725L67.7975 150.5ZM73.874 155H77.624V162.225C77.624 164.25 77.849 164.675 78.374 164.675C78.874 164.675 79.224 164.275 79.224 162.1V155H82.974V168H79.374L79.824 164.775H79.574C79.199 167.6 78.074 168.25 76.599 168.25C74.349 168.25 73.874 166.575 73.874 163.225V155ZM92.5611 161.775H88.9361V159.825C88.9361 158.675 88.7611 158.325 88.3111 158.325C87.8111 158.325 87.5861 158.725 87.5861 160.9V168H83.8361V155H87.4111L86.9611 158.225H87.2111C87.5861 155.65 88.3861 154.75 89.9611 154.75C91.9611 154.75 92.5611 156.4 92.5611 159.525V161.775ZM101.538 162.95V163.475C101.538 166.6 100.363 168.25 97.3635 168.25C94.3385 168.25 92.9385 166.6 92.9385 163.475V159.525C92.9385 156.4 94.2135 154.75 97.2385 154.75C100.238 154.75 101.538 156.4 101.538 159.525V160.025H98.1635C98.1635 158.425 97.7885 158.075 97.2635 158.075C96.6635 158.075 96.3135 158.45 96.3135 160.275V162.725C96.3135 164.525 96.6385 164.925 97.2385 164.925C97.8385 164.925 98.1635 164.4 98.1635 163.425C98.1635 162.225 97.9885 161.4 97.9885 161.4H101.363C101.363 161.4 101.538 161.95 101.538 162.95ZM104.095 150.25C105.42 150.25 106.02 151.125 106.02 152.15V152.375C106.02 153.375 105.42 154.275 104.095 154.275C102.77 154.275 102.17 153.375 102.17 152.375V152.15C102.17 151.125 102.77 150.25 104.095 150.25ZM105.97 155V168H102.22V155H105.97ZM111.885 168L112.385 165.025H112.11C111.76 167.6 110.735 168.25 109.26 168.25C107.56 168.25 106.635 167.05 106.635 164.5C106.635 161.925 108.01 160.525 111.21 160.525H111.66V160.275C111.66 158.5 111.485 158.075 110.91 158.075C110.31 158.075 110.16 158.5 110.16 159.775V160.275H106.66V159.025C106.66 156.4 108.06 154.75 110.96 154.75C113.835 154.75 115.26 156.15 115.26 159.525V168H111.885ZM111.66 162.3H111.21C110.485 162.3 110.16 162.675 110.16 163.5C110.16 164.35 110.385 164.675 110.91 164.675C111.36 164.675 111.66 164.45 111.66 163.1V162.3Z" fill="#6976DF"/>
<g clip-path="url(#clip1_256_3187)">
<path d="M301.214 82.1747C326.059 75.5174 340.859 50.1865 334.27 25.5965C327.681 1.00659 302.199 -13.5307 277.354 -6.87342C252.508 -0.216133 237.709 25.1148 244.297 49.7047C250.886 74.2947 276.369 88.832 301.214 82.1747Z" fill="#6976DF"/>
<path d="M333.907 25.694C335.473 31.5395 335.862 37.6422 335.046 43.6512C334.234 49.6593 332.233 55.4567 329.167 60.7107C326.096 65.9658 322.015 70.5733 317.156 74.2725C312.296 77.9717 306.758 80.6931 300.848 82.2767L288.918 37.7527L333.904 25.6986L333.907 25.694Z" fill="url(#paint0_linear_256_3187)"/>
<path d="M277.354 -6.87305C283.26 -8.45562 289.419 -8.87249 295.477 -8.09859C301.535 -7.32469 307.375 -5.37145 312.66 -2.35924C317.947 0.656607 322.574 4.67779 326.281 9.47123C329.987 14.2647 332.707 19.7468 334.273 25.5923L289.286 37.6464L277.357 -6.87403L277.354 -6.87305Z" fill="url(#paint1_linear_256_3187)"/>
<path d="M301.215 82.1787C295.305 83.7622 289.149 84.1781 283.09 83.4006C277.031 82.6231 271.193 80.6735 265.911 77.6603C260.624 74.6444 255.996 70.6232 252.289 65.8262C248.582 61.0291 245.868 55.5533 244.301 49.7041L289.287 37.65L301.217 82.1741L301.215 82.1787Z" fill="url(#paint2_linear_256_3187)"/>
<path d="M244.297 49.7047C242.731 43.8592 242.342 37.7565 243.154 31.7484C243.967 25.7404 245.968 19.943 249.035 14.6925C252.105 9.43751 256.187 4.82996 261.042 1.13174C265.905 -2.57207 271.447 -5.29085 277.354 -6.87342L289.284 37.6506L244.297 49.7047Z" fill="url(#paint3_linear_256_3187)"/>
<path d="M296.424 64.4911C311.319 60.4998 320.192 45.3133 316.242 30.5709C312.292 15.8286 297.014 7.11308 282.119 11.1043C267.224 15.0955 258.351 30.2821 262.301 45.0244C266.251 59.7668 281.529 68.4823 296.424 64.4911Z" stroke="white" stroke-width="0.5"/>
<path d="M300.41 79.3667C323.606 73.1513 337.423 49.5018 331.272 26.5441C325.12 3.58639 301.329 -9.98594 278.133 -3.77055C254.937 2.44483 241.12 26.0943 247.271 49.052C253.423 72.0097 277.214 85.582 300.41 79.3667Z" stroke="white" stroke-width="0.5"/>
<path d="M272.887 66.4244L269.854 67.2373L270.658 70.2399L273.692 69.427L272.887 66.4244Z" fill="white"/>
<path d="M324.881 35.8258L321.847 36.6387L322.651 39.6413L325.685 38.8284L324.881 35.8258Z" fill="white"/>
<path d="M272.545 6.34627L269.511 7.15918L270.315 10.1618L273.349 9.34891L272.545 6.34627Z" fill="white"/>
<path d="M258.934 61.2633L264.204 56.4112L265.329 57.6158L263.168 59.6034L265.381 61.964L267.542 59.9764L268.667 61.1809L263.397 66.0331L262.272 64.8285L264.351 62.9172L262.138 60.5566L260.06 62.4715L258.935 61.2669L258.934 61.2633Z" fill="white"/>
<path d="M259.85 51.99L261.446 54.8779L263.099 54.6919L263.914 56.1662L256.087 56.8313L255.301 55.4077L260.059 49.1868L260.892 50.699L259.849 51.9863L259.85 51.99ZM258.994 53.0484L257.129 55.3497L260.085 55.0209L258.994 53.0484Z" fill="white"/>
<path d="M251.396 44.5303L259.142 45.5326L259.585 47.0952L253.516 52.0056L253.031 50.2951L257.371 46.8166L251.841 46.1038L251.396 44.5303Z" fill="white"/>
<path d="M256.742 36.8982L258.072 36.8142L258.401 42.3104L251.242 42.7693L250.921 37.4035L252.251 37.3195L252.476 41.0495L254.029 40.9484L253.831 37.6549L255.118 37.5709L255.316 40.8644L256.974 40.7585L256.741 36.8946L256.742 36.8982Z" fill="white"/>
<path d="M253.175 30.2153L255.019 30.6397L255.787 27.4334L257.082 27.7324L256.314 30.9387L258.854 31.5266L258.47 33.1316L251.492 31.5223L252.747 26.2867L254.043 26.5857L253.171 30.2163L253.175 30.2153Z" fill="white"/>
<path d="M257.107 25.8736L253.503 24.1346L254.235 22.6543L257.784 24.3652C259.007 24.9556 259.776 24.668 260.22 23.7745C260.67 22.8681 260.422 22.1055 259.198 21.5151L255.649 19.8042L256.374 18.3414L259.978 20.0804C261.874 20.9928 262.385 22.5796 261.488 24.3961C260.587 26.2135 259.002 26.7859 257.11 25.8726L257.107 25.8736Z" fill="white"/>
<path d="M262.289 10.8463L267.751 15.4263L266.868 16.4606L261.231 16.3911L264.547 19.1721L263.485 20.4142L258.023 15.8343L258.912 14.7944L264.544 14.873L261.227 12.0921L262.29 10.85L262.289 10.8463Z" fill="white"/>
<path d="M282.643 0.321903L284.482 7.18404L282.871 7.61557L282.117 4.80172L278.97 5.64511L279.724 8.45895L278.117 8.88949L276.278 2.02734L277.889 1.59582L278.614 4.30074L281.761 3.45736L281.036 0.75244L282.643 0.321903Z" fill="white"/>
<path d="M290.471 5.4112L287.139 5.47896L286.528 7.01256L284.827 7.04803L287.915 -0.122414L289.553 -0.156677L292.871 6.88502L291.127 6.92041L290.467 5.41218L290.471 5.4112ZM289.927 4.17172L288.748 1.47554L287.651 4.22098L289.928 4.17536L289.927 4.17172Z" fill="white"/>
<path d="M301.101 1.43056L296.571 7.76565L294.965 7.43708L293.433 -0.145345L295.189 0.216828L296.257 5.62761L299.492 1.10296L301.107 1.43683L301.101 1.43056Z" fill="white"/>
<path d="M305.393 9.65562L304.842 10.8578L299.787 8.60114L302.759 2.11538L307.694 4.31868L307.143 5.52083L303.713 3.98836L303.068 5.39489L306.1 6.74979L305.564 7.917L302.531 6.5621L301.844 8.06158L305.399 9.65003L305.393 9.65562Z" fill="white"/>
<path d="M313.037 9.62631L311.79 11.0462L314.286 13.2025L313.409 14.2002L310.913 12.0439L309.192 13.9994L307.943 12.9213L312.669 7.54953L316.747 11.0722L315.87 12.0699L313.041 9.62533L313.037 9.62631Z" fill="white"/>
<path d="M315.065 15.0835L318.313 12.7228L319.289 14.0488L316.094 16.3721C314.992 17.1734 314.885 17.9801 315.478 18.7825C316.076 19.5913 316.875 19.7273 317.974 18.927L321.169 16.6038L322.134 17.9136L318.885 20.2744C317.181 21.5133 315.522 21.2378 314.322 19.6058C313.123 17.9775 313.353 16.3245 315.061 15.0845L315.065 15.0835Z" fill="white"/>
<path d="M326.04 26.565L319.374 29.2306L318.869 27.9767L321.593 23.0714L317.548 24.6884L316.94 23.1819L323.605 20.5163L324.112 21.7775L321.386 26.6719L325.431 25.0549L326.039 26.5614L326.04 26.565Z" fill="white"/>
<path d="M324.657 52.424L317.837 50.2588L318.349 48.6897L321.147 49.5783L322.155 46.5025L319.357 45.6139L319.872 44.0438L326.692 46.209L326.181 47.7781L323.491 46.9266L322.484 50.006L325.173 50.8575L324.662 52.4266L324.657 52.424Z" fill="white"/>
<path d="M316.047 56.1985L317.82 53.3926L316.856 52.0553L317.761 50.6219L322.137 57.0612L321.265 58.4429L313.483 57.3992L314.411 55.9325L316.052 56.2011L316.047 56.1985ZM317.395 56.417L320.326 56.8925L318.604 54.5015L317.395 56.417Z" fill="white"/>
<path d="M313.61 67.1875L310.718 60.0044L311.874 58.8462L319.141 61.6506L317.876 62.9158L312.706 60.8922L314.775 66.0191L313.613 67.1829L313.61 67.1875Z" fill="white"/>
<path d="M304.294 66.3481L303.573 65.2415L308.246 62.2421L312.127 68.2027L307.569 71.1324L306.848 70.0259L310.022 67.9887L309.179 66.6929L306.378 68.4903L305.681 67.4162L308.481 65.6151L307.585 64.2364L304.301 66.3461L304.294 66.3481Z" fill="white"/>
<path d="M300.138 72.7269L299.619 70.924L296.424 71.8386L296.06 70.5701L299.256 69.6555L298.542 67.1694L300.141 66.7098L302.1 73.5358L296.882 75.0313L296.519 73.7628L300.138 72.7269Z" fill="white"/>
<path d="M294.402 71.4702L294.626 75.4456L292.965 75.5442L292.746 71.6298C292.671 70.28 292.044 69.7592 291.043 69.8214C290.029 69.8829 289.48 70.4737 289.554 71.8235L289.773 75.7379L288.137 75.8378L287.913 71.8624C287.794 69.7735 288.939 68.5444 290.975 68.4231C293.01 68.3018 294.283 69.3849 294.398 71.4712L294.402 71.4702Z" fill="white"/>
<path d="M278.666 74.4291L280.046 67.4439L281.383 67.6965L284.055 72.6038L284.892 68.3634L286.503 68.6672L285.123 75.6524L283.777 75.3982L281.115 70.4962L280.277 74.7366L278.67 74.4318L278.666 74.4291Z" fill="white"/>
<path d="M283.787 25.2198C276.387 24.7783 273.564 34.2319 273.821 40.0314C274.124 46.9277 278.788 52.4645 285.803 53.2428C292.043 53.9366 299.05 51.456 302.784 46.2722C306.75 40.7654 305.941 33.0788 301.458 28.1588C296.032 22.2033 287.003 21.2566 279.938 24.8696C279.606 25.0402 279.898 25.5145 280.227 25.3604C286.15 22.6097 293.083 22.4954 298.521 26.3696C303.769 30.1079 306.235 37.0237 303.82 43.1228C299.243 54.6849 279.119 56.9288 275.003 43.972C272.932 37.4483 275.324 25.8918 283.783 25.4425C283.927 25.4352 283.93 25.228 283.787 25.2198Z" fill="white"/>
<path d="M280.635 42.9957C287.114 47.5442 296.191 44.4116 299.846 37.8479C300.043 37.4956 299.5 37.1858 299.303 37.5382C297.553 40.6766 294.696 43.1038 291.183 44.0801C287.56 45.0859 284.086 44.3125 280.777 42.7512C280.611 42.6714 280.481 42.8928 280.632 43.0003L280.635 42.9957Z" fill="white"/>
<path d="M283.58 33.194C284.062 35.244 284.872 37.2256 285.527 39.2293C285.622 39.5267 286.106 39.3934 286 39.1025C285.277 37.1092 284.686 35.034 283.796 33.105C283.74 32.9839 283.555 33.0723 283.583 33.1931L283.58 33.194Z" fill="white"/>
<path d="M290.971 31.2097C291.366 33.2285 291.835 35.4182 292.599 37.3305C292.694 37.5659 293.029 37.4837 292.988 37.2263C292.652 35.1954 291.917 33.081 291.206 31.1468C291.151 31.0018 290.942 31.0579 290.971 31.2097Z" fill="white"/>
</g>
<path d="M177.945 158.918L174.788 156.944L174.187 157.922C174.011 158.207 173.689 158.365 173.355 158.335C173.173 158.317 172.985 158.311 172.797 158.317C172.463 158.323 172.153 158.147 171.996 157.849L171.455 156.835L168.177 158.608L168.717 159.623C168.875 159.92 168.851 160.278 168.657 160.552C168.554 160.704 168.45 160.867 168.365 161.025C168.208 161.323 167.898 161.505 167.564 161.493L166.429 161.457L166.313 165.204L167.455 165.24C167.789 165.252 168.08 165.459 168.226 165.762C168.262 165.847 168.305 165.926 168.347 166.011C168.39 166.09 168.438 166.175 168.481 166.248C168.651 166.534 168.663 166.892 168.487 167.177L167.886 168.161L171.043 170.135L171.644 169.157C171.82 168.872 172.141 168.714 172.475 168.744C172.657 168.762 172.846 168.769 173.028 168.762C173.362 168.756 173.671 168.933 173.829 169.23L174.369 170.244L177.647 168.471L177.107 167.457C176.949 167.159 176.974 166.801 177.168 166.528C177.271 166.376 177.368 166.218 177.459 166.054C177.617 165.756 177.927 165.574 178.261 165.586L179.402 165.623L179.517 161.876L178.376 161.839C178.042 161.827 177.751 161.621 177.611 161.317C177.575 161.232 177.532 161.153 177.49 161.068C177.447 160.989 177.399 160.904 177.356 160.825C177.18 160.533 177.174 160.175 177.35 159.89L177.951 158.912L177.945 158.918ZM175.596 162.088C176.391 163.582 175.832 165.441 174.351 166.242C172.87 167.044 171.024 166.485 170.229 164.991C169.434 163.497 169.992 161.633 171.474 160.831C172.955 160.029 174.8 160.594 175.596 162.088Z" fill="#EBEBEB"/>
<path d="M168.244 176.907L166.945 174.629L166.253 175.03C166.052 175.145 165.797 175.139 165.603 175.006C165.494 174.933 165.385 174.866 165.263 174.811C165.057 174.702 164.923 174.489 164.923 174.259V173.457H162.319V174.259C162.319 174.496 162.185 174.708 161.979 174.811C161.864 174.872 161.748 174.939 161.639 175.006C161.445 175.133 161.196 175.145 160.989 175.03L160.297 174.629L158.998 176.907L159.69 177.307C159.891 177.423 160.006 177.647 159.994 177.884C159.994 177.951 159.994 178.012 159.994 178.079C159.994 178.145 159.994 178.206 159.994 178.273C160.006 178.51 159.897 178.735 159.69 178.85L158.992 179.257L160.291 181.534L160.983 181.133C161.184 181.018 161.439 181.024 161.633 181.158C161.742 181.231 161.851 181.297 161.967 181.352C162.173 181.461 162.307 181.674 162.307 181.905V182.706H164.911V181.905C164.911 181.668 165.045 181.455 165.251 181.352C165.366 181.291 165.476 181.224 165.585 181.158C165.779 181.03 166.028 181.018 166.235 181.133L166.927 181.534L168.226 179.257L167.534 178.856C167.333 178.741 167.218 178.516 167.23 178.279C167.23 178.212 167.23 178.152 167.23 178.085C167.23 178.018 167.23 177.957 167.23 177.89C167.218 177.654 167.327 177.429 167.534 177.313L168.226 176.913L168.244 176.907ZM165.755 178.085C165.755 179.275 164.802 180.235 163.624 180.235C162.446 180.235 161.493 179.275 161.493 178.085C161.493 176.894 162.446 175.935 163.624 175.935C164.802 175.935 165.755 176.9 165.755 178.085Z" fill="#EBEBEB"/>
<path d="M323.252 158.516L321.953 156.202L321.261 156.609C321.06 156.731 320.805 156.719 320.611 156.585C320.502 156.512 320.392 156.445 320.271 156.385C320.065 156.275 319.931 156.057 319.931 155.82V155H317.327V155.82C317.327 156.063 317.193 156.275 316.987 156.385C316.871 156.445 316.756 156.512 316.647 156.585C316.453 156.719 316.204 156.731 315.997 156.609L315.305 156.202L314.006 158.516L314.698 158.929C314.898 159.051 315.014 159.282 315.002 159.518C315.002 159.585 315.002 159.652 315.002 159.713C315.002 159.773 315.002 159.846 315.002 159.907C315.014 160.144 314.905 160.375 314.698 160.496L314 160.909L315.299 163.223L315.991 162.81C316.192 162.689 316.446 162.701 316.641 162.834C316.75 162.907 316.859 162.974 316.975 163.035C317.181 163.144 317.315 163.363 317.315 163.599V164.419H319.919V163.599C319.919 163.357 320.052 163.144 320.259 163.035C320.374 162.974 320.483 162.907 320.593 162.834C320.787 162.701 321.036 162.689 321.242 162.81L321.934 163.223L323.234 160.909L322.541 160.496C322.341 160.375 322.226 160.15 322.238 159.907C322.238 159.84 322.238 159.773 322.238 159.707C322.238 159.64 322.238 159.573 322.238 159.512C322.226 159.269 322.335 159.045 322.541 158.923L323.234 158.516H323.252ZM320.763 159.713C320.763 160.921 319.81 161.905 318.632 161.905C317.454 161.905 316.501 160.927 316.501 159.713C316.501 158.498 317.454 157.52 318.632 157.52C319.81 157.52 320.763 158.504 320.763 159.713Z" fill="#EBEBEB"/>
<path d="M336 136.853L334.175 133.66L333.202 134.221C332.921 134.389 332.562 134.372 332.289 134.188C332.136 134.087 331.982 133.995 331.812 133.911C331.522 133.76 331.334 133.458 331.334 133.132V132H327.675V133.132C327.675 133.467 327.487 133.76 327.197 133.911C327.035 133.995 326.873 134.087 326.719 134.188C326.446 134.372 326.096 134.389 325.806 134.221L324.834 133.66L323.009 136.853L323.981 137.423C324.262 137.591 324.425 137.909 324.407 138.236C324.407 138.328 324.407 138.42 324.407 138.504C324.407 138.588 324.407 138.689 324.407 138.772C324.425 139.099 324.271 139.418 323.981 139.585L323 140.155L324.825 143.349L325.798 142.779C326.079 142.611 326.438 142.628 326.711 142.812C326.864 142.913 327.018 143.005 327.18 143.089C327.47 143.24 327.657 143.542 327.657 143.868V145H331.317V143.868C331.317 143.533 331.505 143.24 331.795 143.089C331.957 143.005 332.11 142.913 332.264 142.812C332.537 142.628 332.886 142.611 333.177 142.779L334.149 143.349L335.974 140.155L335.002 139.585C334.72 139.418 334.558 139.108 334.575 138.772C334.575 138.68 334.575 138.588 334.575 138.496C334.575 138.404 334.575 138.311 334.575 138.228C334.558 137.892 334.712 137.582 335.002 137.415L335.974 136.853H336ZM332.503 138.504C332.503 140.172 331.163 141.53 329.509 141.53C327.854 141.53 326.514 140.181 326.514 138.504C326.514 136.828 327.854 135.478 329.509 135.478C331.163 135.478 332.503 136.836 332.503 138.504Z" fill="#EBEBEB"/>
<path d="M298.975 106.351C298.174 108.403 297.725 110.523 297.591 112.721C297.561 112.721 297.536 112.721 297.512 112.721C295.697 112.721 293.882 112.721 292.067 112.721C292.042 112.721 292.018 112.721 292 112.721V112.563C292.012 112.418 292.03 112.278 292.042 112.132C292.109 111.379 292.237 110.638 292.413 109.909C292.698 108.707 293.123 107.547 293.657 106.436C293.688 106.369 293.724 106.351 293.791 106.351C295.485 106.351 297.184 106.351 298.878 106.351H298.975Z" fill="#EBEBEB"/>
<path d="M298.811 120.58H298.72C297.039 120.58 295.351 120.58 293.669 120.58C293.603 120.58 293.572 120.556 293.542 120.501C292.947 119.25 292.522 117.944 292.267 116.578C292.14 115.922 292.055 115.26 292.012 114.592C292.012 114.568 292 114.55 292 114.525V114.367C292 114.367 292.055 114.361 292.085 114.361H297.5C297.597 114.361 297.597 114.361 297.603 114.465C297.64 114.92 297.67 115.369 297.713 115.825C297.779 116.542 297.901 117.258 298.059 117.963C298.247 118.825 298.49 119.669 298.787 120.501C298.793 120.526 298.799 120.55 298.811 120.58Z" fill="#EBEBEB"/>
<path d="M320.423 122.226C320.405 122.256 320.393 122.28 320.381 122.305C319.956 122.985 319.452 123.604 318.924 124.211C318.28 124.952 317.564 125.602 316.787 126.197C316.022 126.78 315.215 127.291 314.353 127.716C313.527 128.129 312.671 128.469 311.785 128.724C311.081 128.93 310.37 129.076 309.642 129.185C309.569 129.197 309.502 129.21 309.429 129.222H309.308C309.272 129.197 309.235 129.173 309.187 129.143C309.235 129.106 309.278 129.076 309.32 129.046C310.898 127.959 312.252 126.641 313.375 125.08C314.007 124.205 314.559 123.282 315.033 122.305C315.063 122.244 315.093 122.226 315.16 122.226C316.884 122.226 318.602 122.226 320.326 122.226H320.417H320.423Z" fill="#EBEBEB"/>
<path d="M315.282 112.715H308.063V106.351C308.063 106.351 308.118 106.351 308.148 106.351C310 106.351 311.852 106.351 313.703 106.351C313.764 106.351 313.794 106.369 313.818 106.423C314.341 107.626 314.717 108.865 314.966 110.152C315.093 110.82 315.19 111.494 315.245 112.175C315.257 112.351 315.275 112.533 315.288 112.721L315.282 112.715Z" fill="#EBEBEB"/>
<path d="M315.239 114.415C315.232 114.567 315.232 114.713 315.214 114.865C315.184 115.217 315.16 115.575 315.111 115.927C315.044 116.413 314.971 116.905 314.874 117.385C314.662 118.448 314.346 119.486 313.939 120.488C313.915 120.555 313.885 120.579 313.806 120.579C311.912 120.579 310.018 120.579 308.124 120.579H308.021V114.409H315.239V114.415Z" fill="#EBEBEB"/>
<path d="M306.436 106.387V112.758H299.388C299.4 112.594 299.4 112.436 299.418 112.278C299.454 111.92 299.485 111.561 299.539 111.209C299.624 110.668 299.716 110.128 299.831 109.594C300.062 108.513 300.414 107.468 300.851 106.46C300.875 106.399 300.911 106.381 300.972 106.381C302.763 106.381 304.554 106.381 306.351 106.381H306.442L306.436 106.387Z" fill="#EBEBEB"/>
<path d="M306.442 114.5C306.442 116.498 306.442 118.496 306.442 120.494V120.585H306.345C304.499 120.585 302.654 120.585 300.808 120.585C300.741 120.585 300.711 120.567 300.687 120.5C300.262 119.462 299.934 118.393 299.728 117.288C299.624 116.723 299.539 116.152 299.473 115.581C299.424 115.211 299.418 114.828 299.388 114.452C299.388 114.44 299.388 114.433 299.388 114.409C299.418 114.409 299.442 114.409 299.467 114.409C301.761 114.409 304.056 114.409 306.351 114.409C306.424 114.409 306.442 114.433 306.442 114.5Z" fill="#EBEBEB"/>
<path d="M322.942 112.758H317.024C316.896 110.553 316.453 108.416 315.646 106.345H315.737C317.546 106.345 319.349 106.345 321.158 106.345C321.224 106.345 321.255 106.363 321.285 106.424C321.917 107.693 322.372 109.023 322.651 110.414C322.797 111.155 322.888 111.902 322.936 112.649C322.936 112.685 322.936 112.715 322.936 112.758H322.942Z" fill="#EBEBEB"/>
<path d="M322.942 114.367C322.936 114.513 322.93 114.647 322.924 114.786C322.888 115.327 322.821 115.861 322.73 116.396C322.511 117.635 322.147 118.825 321.643 119.979C321.564 120.167 321.473 120.349 321.394 120.531C321.376 120.574 321.352 120.586 321.309 120.586C319.5 120.586 317.685 120.586 315.876 120.586C315.858 120.586 315.84 120.586 315.815 120.586C315.882 120.398 315.949 120.209 316.01 120.021C316.331 119.074 316.574 118.102 316.744 117.112C316.866 116.396 316.957 115.673 316.999 114.95C317.011 114.78 317.023 114.61 317.03 114.434C317.03 114.385 317.042 114.367 317.09 114.373C317.108 114.373 317.127 114.373 317.145 114.373H322.955L322.942 114.367Z" fill="#EBEBEB"/>
<path d="M320.265 104.723C320.265 104.723 320.259 104.741 320.253 104.747H320.18C318.456 104.747 316.732 104.747 315.008 104.747C314.947 104.747 314.911 104.729 314.886 104.674C314.188 103.284 313.344 101.996 312.318 100.836C311.723 100.162 311.056 99.5547 310.345 99.0021C309.993 98.7288 309.629 98.4737 309.265 98.2065C309.247 98.1943 309.228 98.1761 309.204 98.164C309.228 98.1458 309.253 98.1336 309.277 98.1154C309.265 98.085 309.259 98.0486 309.241 98C311.08 98.2186 312.828 98.7348 314.473 99.5851C316.835 100.806 318.79 102.494 320.271 104.723H320.265Z" fill="#EBEBEB"/>
<path d="M305.435 129.143C305.368 129.155 305.325 129.173 305.283 129.167C304.712 129.094 304.154 128.979 303.595 128.839C302.557 128.572 301.555 128.195 300.59 127.715C299.491 127.163 298.472 126.489 297.531 125.687C296.863 125.122 296.244 124.509 295.691 123.829C295.272 123.318 294.896 122.784 294.544 122.225C294.538 122.213 294.532 122.201 294.52 122.177H294.605C296.213 122.177 297.816 122.177 299.425 122.177C299.491 122.177 299.516 122.201 299.546 122.256C300.05 123.282 300.633 124.254 301.319 125.165C301.944 126.003 302.642 126.768 303.395 127.485C304.02 128.08 304.682 128.62 305.392 129.106C305.398 129.106 305.41 129.118 305.435 129.143Z" fill="#EBEBEB"/>
<path d="M305.368 98.1576C305.149 98.3216 304.888 98.5038 304.64 98.6981C303.79 99.354 303.025 100.095 302.308 100.89C301.337 101.959 300.524 103.131 299.856 104.413C299.813 104.492 299.777 104.577 299.728 104.656C299.716 104.68 299.68 104.698 299.655 104.704C299.57 104.704 299.479 104.704 299.394 104.704H294.684C297.306 100.969 300.833 98.7224 305.313 98.0361C305.301 98.0544 305.295 98.0786 305.283 98.0969C305.313 98.1212 305.344 98.1394 305.368 98.1576Z" fill="#EBEBEB"/>
<path d="M313.126 122.226C312.452 123.41 311.663 124.497 310.74 125.481C309.921 126.355 309.028 127.145 308.015 127.813V122.226H313.12H313.126Z" fill="#EBEBEB"/>
<path d="M306.436 122.231V127.709C304.36 126.27 302.745 124.442 301.537 122.231H306.436Z" fill="#EBEBEB"/>
<path d="M312.969 104.698H308.063V99.4814C309.077 100.149 309.994 100.921 310.813 101.807C311.633 102.688 312.337 103.66 312.969 104.704V104.698Z" fill="#EBEBEB"/>
<path d="M306.436 99.6455V104.747H301.731C302.921 102.688 304.451 100.963 306.436 99.6455Z" fill="#EBEBEB"/>
<path d="M182.77 202.341C182.157 206.574 178.545 209.823 174.18 209.823C169.384 209.823 165.493 205.9 165.493 201.059C165.493 196.219 169.384 192.296 174.18 192.296V201.059L182.77 202.347V202.341Z" fill="#DBDBDB"/>
<path d="M184.634 199.274C184.634 199.711 184.604 200.143 184.537 200.562L175.947 199.274V190.511C179.171 190.511 181.988 192.284 183.487 194.914C184.216 196.201 184.634 197.689 184.634 199.268V199.274Z" fill="#EBEBEB"/>
<path d="M187.822 205.76H178.582V206.063H187.822V205.76Z" fill="#C7C7C7"/>
<path d="M188.471 206.714C188.034 206.714 187.676 206.355 187.676 205.912C187.676 205.469 188.034 205.11 188.471 205.11C188.908 205.11 189.266 205.469 189.266 205.912C189.266 206.355 188.908 206.714 188.471 206.714ZM188.471 205.408C188.198 205.408 187.973 205.633 187.973 205.912C187.973 206.191 188.198 206.416 188.471 206.416C188.744 206.416 188.969 206.191 188.969 205.912C188.969 205.633 188.744 205.408 188.471 205.408Z" fill="#C7C7C7"/>
<path d="M197.99 205.42H190.814V205.748H197.99V205.42Z" fill="#C7C7C7"/>
<path d="M194.876 206.07H190.814V206.398H194.876V206.07Z" fill="#C7C7C7"/>
<path d="M185.094 122.581H182.265V142.877H185.094V122.581Z" fill="#EBEBEB"/>
<path d="M189.95 127.494H187.121V142.877H189.95V127.494Z" fill="#EBEBEB"/>
<path d="M194.812 135.183H191.983V142.877H194.812V135.183Z" fill="#EBEBEB"/>
<path d="M199.675 130.792H196.846V142.877H199.675V130.792Z" fill="#EBEBEB"/>
<path d="M204.532 126.177H201.703V142.878H204.532V126.177Z" fill="#EBEBEB"/>
<path d="M209.394 123.462H206.565V142.878H209.394V123.462Z" fill="#EBEBEB"/>
<path d="M180.626 120L180.656 125.721L180.674 131.442L180.698 142.883L180.626 142.81C183.224 142.804 185.822 142.798 188.42 142.81L196.215 142.829L204.01 142.847L211.805 142.889L204.01 142.932L196.215 142.95L188.42 142.968C185.822 142.981 183.224 142.968 180.626 142.968H180.553V142.896L180.577 131.454L180.595 125.733L180.626 120.012V120Z" fill="#EBEBEB"/>
<path d="M180 121.148C180.206 121.088 180.419 121.069 180.625 121.069C180.832 121.069 181.044 121.088 181.251 121.148C181.044 121.215 180.832 121.227 180.625 121.227C180.419 121.227 180.206 121.209 180 121.148Z" fill="#EBEBEB"/>
<path d="M180 122.885C180.206 122.824 180.419 122.806 180.625 122.806C180.832 122.806 181.044 122.824 181.251 122.885C181.044 122.951 180.832 122.964 180.625 122.964C180.419 122.964 180.206 122.945 180 122.885Z" fill="#EBEBEB"/>
<path d="M180 124.622C180.206 124.561 180.419 124.543 180.625 124.543C180.832 124.543 181.044 124.561 181.251 124.622C181.044 124.689 180.832 124.701 180.625 124.701C180.419 124.701 180.206 124.683 180 124.622Z" fill="#EBEBEB"/>
<path d="M180 126.364C180.206 126.303 180.419 126.285 180.625 126.285C180.832 126.285 181.044 126.303 181.251 126.364C181.044 126.431 180.832 126.443 180.625 126.443C180.419 126.443 180.206 126.425 180 126.364Z" fill="#EBEBEB"/>
<path d="M180 128.101C180.206 128.041 180.419 128.022 180.625 128.022C180.832 128.022 181.044 128.041 181.251 128.101C181.044 128.168 180.832 128.18 180.625 128.18C180.419 128.18 180.206 128.162 180 128.101Z" fill="#EBEBEB"/>
<path d="M180 129.839C180.206 129.778 180.419 129.76 180.625 129.76C180.832 129.76 181.044 129.778 181.251 129.839C181.044 129.906 180.832 129.918 180.625 129.918C180.419 129.918 180.206 129.899 180 129.839Z" fill="#EBEBEB"/>
<path d="M180 131.581C180.206 131.52 180.419 131.502 180.625 131.502C180.832 131.502 181.044 131.52 181.251 131.581C181.044 131.648 180.832 131.66 180.625 131.66C180.419 131.66 180.206 131.642 180 131.581Z" fill="#EBEBEB"/>
<path d="M180 133.318C180.206 133.257 180.419 133.239 180.625 133.239C180.832 133.239 181.044 133.257 181.251 133.318C181.044 133.385 180.832 133.397 180.625 133.397C180.419 133.397 180.206 133.379 180 133.318Z" fill="#EBEBEB"/>
<path d="M180 135.056C180.206 134.995 180.419 134.977 180.625 134.977C180.832 134.977 181.044 134.995 181.251 135.056C181.044 135.122 180.832 135.134 180.625 135.134C180.419 135.134 180.206 135.116 180 135.056Z" fill="#EBEBEB"/>
<path d="M180 136.798C180.206 136.737 180.419 136.719 180.625 136.719C180.832 136.719 181.044 136.737 181.251 136.798C181.044 136.865 180.832 136.877 180.625 136.877C180.419 136.877 180.206 136.858 180 136.798Z" fill="#EBEBEB"/>
<path d="M180 138.535C180.206 138.474 180.419 138.456 180.625 138.456C180.832 138.456 181.044 138.474 181.251 138.535C181.044 138.602 180.832 138.614 180.625 138.614C180.419 138.614 180.206 138.596 180 138.535Z" fill="#EBEBEB"/>
<path d="M180 140.272C180.206 140.212 180.419 140.193 180.625 140.193C180.832 140.193 181.044 140.212 181.251 140.272C181.044 140.339 180.832 140.351 180.625 140.351C180.419 140.351 180.206 140.333 180 140.272Z" fill="#EBEBEB"/>
<path d="M142 224.368L166.623 224.289L191.252 224.264L240.503 224.216L289.748 224.264L314.377 224.289L339 224.368L314.377 224.441L289.748 224.465L240.503 224.513L191.252 224.465L166.623 224.441L142 224.368Z" fill="white"/>
<path d="M306.188 148.655H191.713V225.905H306.188V148.655Z" fill="#DBDBDB"/>
<path d="M305.357 149.597H192.545V224.958H305.357V149.597Z" fill="#1A2E35"/>
<path d="M321.098 231.699H176.804V237.001H321.098V231.699Z" fill="#C7C7C7"/>
<path d="M176.804 231.699L191.713 225.905H306.194L321.104 231.699H176.804Z" fill="#DBDBDB"/>
<path d="M193.049 229.64L202.671 225.905H295.237L304.859 229.64H193.049Z" fill="#1A2E35"/>
<path d="M298.988 155.323H198.925V219.236H298.988V155.323Z" fill="white"/>
<path d="M298.988 155.323H198.84V157.783H298.988V155.323Z" fill="#375A64"/>
<path d="M200.17 157.164C200.505 157.164 200.777 156.892 200.777 156.557C200.777 156.221 200.505 155.949 200.17 155.949C199.834 155.949 199.562 156.221 199.562 156.557C199.562 156.892 199.834 157.164 200.17 157.164Z" fill="#C7C7C7"/>
<path d="M202.64 157.164C202.976 157.164 203.247 156.892 203.247 156.557C203.247 156.221 202.976 155.949 202.64 155.949C202.305 155.949 202.033 156.221 202.033 156.557C202.033 156.892 202.305 157.164 202.64 157.164Z" fill="white"/>
<path d="M205.111 157.164C205.446 157.164 205.718 156.892 205.718 156.557C205.718 156.221 205.446 155.949 205.111 155.949C204.776 155.949 204.504 156.221 204.504 156.557C204.504 156.892 204.776 157.164 205.111 157.164Z" fill="#6976DF"/>
<path d="M218.569 196.79H203.362V207.29H218.569V196.79Z" fill="#EBEBEB"/>
<path d="M203.362 197.556C204.018 197.932 204.655 198.321 205.305 198.703C205.948 199.092 206.592 199.481 207.229 199.876C208.51 200.665 209.779 201.467 211.048 202.274H210.878C212.147 201.467 213.415 200.665 214.696 199.876C215.334 199.481 215.977 199.092 216.621 198.703C217.27 198.321 217.908 197.932 218.563 197.556C217.95 197.993 217.325 198.406 216.706 198.837C216.08 199.256 215.455 199.675 214.83 200.088C213.573 200.92 212.311 201.734 211.048 202.548L210.963 202.602L210.878 202.548C209.609 201.734 208.346 200.92 207.096 200.088C206.47 199.675 205.845 199.256 205.22 198.837C204.601 198.412 203.975 197.993 203.362 197.556Z" fill="white"/>
<path d="M203.398 205.42C203.86 205.013 204.339 204.631 204.825 204.26C205.311 203.89 205.802 203.531 206.3 203.173C206.804 202.821 207.302 202.475 207.818 202.147C208.328 201.813 208.85 201.491 209.384 201.193C208.923 201.6 208.443 201.983 207.958 202.353C207.472 202.724 206.98 203.082 206.482 203.44C205.978 203.793 205.481 204.139 204.965 204.467C204.455 204.801 203.933 205.123 203.398 205.42Z" fill="white"/>
<path d="M218.533 205.42C217.998 205.123 217.476 204.801 216.966 204.467C216.45 204.139 215.946 203.787 215.449 203.44C214.951 203.088 214.453 202.73 213.973 202.353C213.488 201.983 213.008 201.6 212.547 201.193C213.087 201.491 213.603 201.813 214.113 202.147C214.629 202.475 215.133 202.827 215.631 203.173C216.129 203.525 216.626 203.884 217.106 204.26C217.592 204.631 218.071 205.013 218.533 205.42Z" fill="white"/>
<path d="M219.529 209.659L220.5 212.016L219.535 212.416L218.563 210.048L216.967 211.299V204.661L221.568 209.356L219.529 209.659Z" fill="#1A2E35"/>
<path d="M216.967 203.939C216.918 203.829 216.912 203.714 216.906 203.605C216.906 203.495 216.918 203.38 216.967 203.271C217.016 203.38 217.022 203.495 217.028 203.605C217.028 203.714 217.016 203.829 216.967 203.939Z" fill="#1A2E35"/>
<path d="M216.396 204.176C216.287 204.127 216.202 204.06 216.123 203.982C216.044 203.903 215.977 203.818 215.929 203.702C216.038 203.751 216.123 203.818 216.202 203.896C216.281 203.975 216.348 204.06 216.396 204.176Z" fill="#1A2E35"/>
<path d="M216.16 204.752C216.05 204.801 215.941 204.807 215.832 204.813C215.722 204.813 215.613 204.801 215.504 204.752C215.613 204.704 215.722 204.697 215.832 204.691C215.941 204.691 216.05 204.704 216.16 204.752Z" fill="#1A2E35"/>
<path d="M216.396 205.323C216.354 205.433 216.281 205.524 216.202 205.603C216.123 205.682 216.038 205.748 215.929 205.797C215.971 205.688 216.044 205.597 216.123 205.518C216.202 205.439 216.287 205.372 216.396 205.323Z" fill="#1A2E35"/>
<path d="M217.769 204.752C217.878 204.704 217.987 204.697 218.096 204.691C218.206 204.691 218.315 204.704 218.424 204.752C218.315 204.801 218.206 204.807 218.096 204.813C217.987 204.813 217.878 204.801 217.769 204.752Z" fill="#1A2E35"/>
<path d="M217.531 204.176C217.574 204.067 217.647 203.975 217.726 203.896C217.804 203.818 217.889 203.751 217.999 203.702C217.956 203.811 217.883 203.903 217.804 203.982C217.726 204.06 217.641 204.127 217.531 204.176Z" fill="#1A2E35"/>
<path d="M263.256 211.536L251.952 208.609L255.68 193.973L264.075 196.147L266.273 199.687L263.256 211.536Z" fill="#EBEBEB"/>
<path d="M264.076 196.146L266.273 199.687L263.365 198.934L264.076 196.146Z" fill="#DBDBDB"/>
<path d="M256.159 196.712L262.442 198.34L262.345 198.716L256.062 197.088L256.159 196.712Z" fill="#DBDBDB"/>
<path d="M255.916 197.659L262.2 199.287L262.102 199.663L255.819 198.036L255.916 197.659Z" fill="#DBDBDB"/>
<path d="M255.673 198.612L261.956 200.24L261.865 200.616L255.576 198.983L255.673 198.612Z" fill="#DBDBDB"/>
<path d="M255.431 199.56L264.64 201.946L264.543 202.317L255.334 199.936L255.431 199.56Z" fill="#DBDBDB"/>
<path d="M255.188 200.507L264.397 202.894L264.306 203.27L255.097 200.883L255.188 200.507Z" fill="#DBDBDB"/>
<path d="M254.951 201.455L264.16 203.842L264.063 204.218L254.854 201.832L254.951 201.455Z" fill="#DBDBDB"/>
<path d="M254.708 202.408L263.918 204.789L263.821 205.165L254.611 202.779L254.708 202.408Z" fill="#DBDBDB"/>
<path d="M254.465 203.355L263.675 205.742L263.577 206.113L254.368 203.732L254.465 203.355Z" fill="#DBDBDB"/>
<path d="M254.223 204.303L263.432 206.689L263.341 207.066L254.132 204.679L254.223 204.303Z" fill="#DBDBDB"/>
<path d="M253.98 205.25L263.195 207.637L263.098 208.013L253.889 205.627L253.98 205.25Z" fill="#DBDBDB"/>
<path d="M253.743 206.198L262.952 208.585L262.855 208.961L253.646 206.575L253.743 206.198Z" fill="#DBDBDB"/>
<path d="M253.5 207.151L262.71 209.538L262.613 209.909L253.403 207.528L253.5 207.151Z" fill="#DBDBDB"/>
<path d="M228.361 190.875L242.967 191.422L243.313 181.571L228.713 181.024L228.361 190.875Z" fill="#EBEBEB"/>
<path d="M228.993 190.286L242.379 190.784L242.689 182.16L229.297 181.662L228.993 190.286Z" fill="white"/>
<path d="M230.419 184.395C230.389 185.208 231.02 185.889 231.821 185.919C232.629 185.949 233.303 185.318 233.333 184.504C233.363 183.69 232.732 183.01 231.931 182.98C231.123 182.949 230.449 183.581 230.419 184.395Z" fill="#DBDBDB"/>
<path d="M233.151 190.456L242.373 190.796L237.99 184.322L233.151 190.456Z" fill="#DBDBDB"/>
<path d="M229.533 190.322L237.146 190.608L233.491 186.356L229.533 190.322Z" fill="#EBEBEB"/>
<path d="M222.843 197.883L237.146 194.877L235.142 185.227L220.84 188.239L222.843 197.883Z" fill="#EBEBEB"/>
<path d="M223.311 197.16L236.43 194.403L234.675 185.955L221.557 188.712L223.311 197.16Z" fill="white"/>
<path d="M223.293 191.093C223.457 191.888 224.228 192.398 225.017 192.234C225.806 192.071 226.31 191.287 226.146 190.498C225.982 189.702 225.211 189.192 224.422 189.356C223.633 189.52 223.129 190.303 223.293 191.093Z" fill="#DBDBDB"/>
<path d="M227.39 196.316L236.423 194.415L230.631 189.187L227.39 196.316Z" fill="#DBDBDB"/>
<path d="M223.845 197.063L231.306 195.496L226.747 192.259L223.845 197.063Z" fill="#EBEBEB"/>
<path d="M323.405 197.27C325.664 192.588 329.616 190.177 334.078 191.507C338.533 192.837 339.225 199.104 335.899 200.689C332.572 202.274 329.245 197.653 327.491 196.699C325.736 195.752 323.411 197.27 323.411 197.27H323.405Z" fill="#6976DF"/>
<path d="M321.22 209.744C321.232 209.179 321.25 208.615 321.274 208.05C321.317 206.92 321.353 205.797 321.396 204.667C321.475 202.602 321.693 200.58 322.537 198.679C323.296 196.973 324.528 195.479 326.119 194.513C326.714 194.155 327.345 193.875 328.001 193.693C328.553 193.068 329.415 192.667 330.198 192.472C331.23 192.217 332.286 192.278 333.331 192.393C333.367 192.393 333.367 192.46 333.331 192.454C332.341 192.333 331.327 192.393 330.362 192.667C329.949 192.782 329.549 192.934 329.166 193.134C328.917 193.262 328.699 193.414 328.474 193.578C329.366 193.396 330.289 193.389 331.2 193.602C331.522 193.675 331.837 193.79 332.147 193.918C332.384 193.857 332.651 193.851 332.887 193.857C333.215 193.863 333.537 193.918 333.853 193.997C334.502 194.161 335.109 194.47 335.686 194.804C335.716 194.823 335.686 194.871 335.656 194.853C335.091 194.543 334.49 194.319 333.865 194.173C333.561 194.106 333.258 194.057 332.948 194.039C332.778 194.027 332.608 194.039 332.438 194.039C333.689 194.634 334.745 195.649 335.322 196.936C335.34 196.973 335.285 196.997 335.267 196.967C334.599 195.442 333.173 194.404 331.594 193.997C331.497 193.972 331.394 193.96 331.297 193.936C331.333 194.082 331.327 194.246 331.345 194.392C331.376 194.622 331.412 194.847 331.461 195.072C331.552 195.533 331.673 195.995 331.825 196.444C331.977 196.9 332.153 197.343 332.365 197.774C332.578 198.211 332.802 198.679 333.118 199.056C333.142 199.086 333.094 199.129 333.07 199.092C332.802 198.667 332.493 198.278 332.244 197.841C331.995 197.404 331.807 196.985 331.637 196.535C331.467 196.08 331.333 195.612 331.242 195.132C331.194 194.877 331.157 194.628 331.127 194.373C331.109 194.228 331.072 194.057 331.097 193.906C330.574 193.821 330.04 193.815 329.512 193.875C329.712 194.993 329.925 196.159 330.544 197.13C330.562 197.161 330.508 197.191 330.489 197.161C330.21 196.632 329.931 196.122 329.725 195.564C329.53 195.035 329.379 194.464 329.342 193.9C328.425 194.021 327.527 194.331 326.726 194.786C325.184 195.661 324.012 197.033 323.241 198.631C322.403 200.361 322.069 202.232 321.948 204.139C321.802 206.532 321.766 208.943 321.529 211.329C321.511 211.487 321.268 211.536 321.238 211.36C321.147 210.831 321.195 210.291 321.207 209.756L321.22 209.744Z" fill="#1A2E35"/>
<path d="M326.441 194.136C326.568 193.948 326.781 193.802 326.957 193.656C327.139 193.504 327.333 193.353 327.533 193.219C327.928 192.946 328.353 192.745 328.814 192.618C328.851 192.606 328.863 192.666 328.827 192.679C328.359 192.782 327.94 193.025 327.558 193.304C327.37 193.444 327.187 193.596 327.011 193.747C326.847 193.893 326.684 194.087 326.495 194.191C326.459 194.209 326.416 194.166 326.441 194.136Z" fill="#1A2E35"/>
<path d="M333.652 195.831C334.016 196.274 334.387 196.723 334.69 197.215C334.994 197.707 335.261 198.211 335.461 198.758C335.461 198.776 335.443 198.782 335.437 198.77C334.89 197.774 334.338 196.754 333.616 195.873C333.591 195.843 333.634 195.8 333.658 195.831H333.652Z" fill="#1A2E35"/>
<path d="M328.79 195.369C328.839 195.661 328.924 195.946 329.045 196.219C329.166 196.48 329.318 196.729 329.476 196.972C329.488 196.991 329.464 197.003 329.452 196.991C329.051 196.559 328.826 195.964 328.735 195.387C328.735 195.351 328.784 195.333 328.79 195.375V195.369Z" fill="#1A2E35"/>
<path d="M321.535 197.385C321.535 197.385 318.336 193.329 312.162 194.768C306.291 196.134 303.584 206.993 309.515 208.293C315.446 209.592 314.402 199.547 316.563 197.841C318.147 196.59 320.43 196.857 321.535 197.392V197.385Z" fill="#6976DF"/>
<path d="M307.391 200.695C307.797 200.343 308.216 200.003 308.665 199.712C309.084 199.438 309.54 199.177 310.019 199.031C310.262 198.667 310.523 198.315 310.827 197.987C311.379 197.386 312.004 196.888 312.69 196.487C312.63 196.487 312.569 196.475 312.508 196.475C312.18 196.462 311.852 196.462 311.525 196.487C310.863 196.535 310.226 196.687 309.618 196.967C309.582 196.985 309.558 196.93 309.594 196.912C310.201 196.651 310.845 196.45 311.494 196.335C311.81 196.28 312.138 196.25 312.46 196.25C312.636 196.25 312.806 196.262 312.976 196.28C313.006 196.28 313.042 196.28 313.073 196.286C313.637 196.001 314.232 195.776 314.851 195.624C314.797 195.606 314.736 195.588 314.681 195.576C314.378 195.503 314.074 195.46 313.765 195.424C313.146 195.351 312.532 195.363 311.919 195.454C311.883 195.454 311.871 195.4 311.907 195.394C312.52 195.315 313.152 195.29 313.777 195.315C314.287 195.333 314.827 195.394 315.331 195.515C315.701 195.448 316.078 195.4 316.454 195.388C318.609 195.296 320.952 196.11 322.282 197.89C323.611 199.681 323.866 202.062 324.103 204.218C324.431 207.218 324.577 210.261 324.34 213.273C324.328 213.449 324.079 213.419 324.073 213.248C323.994 210.692 323.903 208.129 323.66 205.578C323.545 204.4 323.423 203.21 323.229 202.044C323.065 201.042 322.828 200.046 322.379 199.129C321.912 198.175 321.201 197.41 320.297 196.869C319.398 196.341 318.378 196.043 317.346 195.952C316.412 195.867 315.471 195.971 314.578 196.213C314.615 196.396 314.609 196.578 314.596 196.766C314.578 196.997 314.53 197.228 314.463 197.446C314.396 197.653 314.305 197.859 314.202 198.048C314.087 198.26 313.941 198.454 313.813 198.655C313.795 198.685 313.74 198.655 313.765 198.618C314.032 198.278 314.165 197.811 314.244 197.392C314.281 197.185 314.305 196.967 314.317 196.754C314.323 196.596 314.317 196.432 314.317 196.274C313.346 196.578 312.423 197.064 311.622 197.707C311.47 197.829 311.324 197.956 311.185 198.09C311.397 198.266 311.567 198.527 311.707 198.74C311.919 199.056 312.101 199.378 312.253 199.724C312.557 200.41 312.715 201.151 312.824 201.892C312.824 201.928 312.769 201.94 312.763 201.904C312.666 201.175 312.399 200.501 312.059 199.851C311.895 199.535 311.713 199.232 311.513 198.94C311.409 198.788 311.3 198.643 311.191 198.497C311.13 198.418 311.063 198.339 311.009 198.26C310.286 198.971 309.685 199.821 309.26 200.75C309.26 200.75 309.266 200.75 309.272 200.75C309.576 201.036 309.795 201.436 309.995 201.801C310.219 202.202 310.408 202.621 310.572 203.046C310.887 203.872 311.1 204.728 311.306 205.584C311.318 205.621 311.258 205.633 311.245 205.596C311.075 204.722 310.748 203.896 310.371 203.094C310.189 202.706 309.995 202.317 309.788 201.94C309.594 201.582 309.357 201.23 309.206 200.853C308.799 201.764 308.55 202.742 308.501 203.738C308.501 203.774 308.441 203.768 308.441 203.738C308.562 202.183 309.024 200.641 309.825 199.311C309.449 199.475 309.066 199.633 308.708 199.827C308.246 200.076 307.809 200.38 307.421 200.738C307.391 200.762 307.354 200.72 307.384 200.689L307.391 200.695Z" fill="#1A2E35"/>
<path d="M311.919 200.926C312.107 201.539 312.338 202.14 312.502 202.76C312.66 203.355 312.775 203.968 312.775 204.594C312.775 204.612 312.751 204.612 312.745 204.594C312.562 203.361 312.295 202.11 311.858 200.944C311.846 200.901 311.901 200.883 311.913 200.926H311.919Z" fill="#1A2E35"/>
<path d="M308.009 199.401C308.252 199.165 308.525 198.964 308.829 198.812C309.132 198.661 309.454 198.569 309.776 198.472C309.812 198.46 309.824 198.521 309.788 198.533C309.466 198.606 309.169 198.758 308.877 198.91C308.586 199.061 308.301 199.231 308.04 199.432C308.021 199.444 307.997 199.42 308.015 199.401H308.009Z" fill="#1A2E35"/>
<path d="M318.494 191.968C318.494 191.968 317.905 184.68 312.532 182.318C308.046 180.344 305.478 185.427 308.653 188.543C311.215 191.057 315.331 189.921 318.494 191.968Z" fill="#6976DF"/>
<path d="M309.649 183.733C310.462 184.085 311.27 184.431 312.034 184.875C312.678 185.245 313.297 185.664 313.886 186.114C313.795 185.931 313.722 185.737 313.631 185.555C313.491 185.276 313.34 184.996 313.176 184.729C312.836 184.182 312.459 183.666 311.992 183.217C311.962 183.192 312.01 183.15 312.034 183.174C312.478 183.63 312.915 184.109 313.279 184.638C313.461 184.905 313.637 185.178 313.789 185.464C313.928 185.725 314.086 186.01 314.147 186.302C314.165 186.314 314.19 186.332 314.208 186.344C315.149 187.091 315.999 187.954 316.776 188.877C316.763 188.804 316.745 188.731 316.727 188.67C316.624 188.312 316.521 187.96 316.399 187.614C316.156 186.879 315.853 186.138 315.428 185.488C315.41 185.458 315.458 185.427 315.483 185.458C315.889 186.132 316.296 186.8 316.606 187.529C316.757 187.875 316.879 188.239 316.976 188.604C317.037 188.822 317.128 189.083 317.152 189.338C317.389 189.636 317.613 189.94 317.832 190.249C320.139 193.559 321.292 197.567 321.571 201.57C321.656 202.766 321.669 203.962 321.632 205.159C321.59 206.355 321.547 207.582 321.317 208.76C321.304 208.833 321.183 208.815 321.189 208.742C321.213 207.691 321.323 206.641 321.347 205.59C321.365 204.533 321.329 203.477 321.244 202.426C321.074 200.331 320.679 198.235 320.072 196.225C319.447 194.173 318.53 192.193 317.34 190.395C317.116 190.353 316.891 190.286 316.666 190.231C316.399 190.164 316.132 190.091 315.865 190.019C315.355 189.873 314.845 189.709 314.366 189.466C314.329 189.448 314.366 189.393 314.396 189.417C314.863 189.697 315.385 189.836 315.914 189.946C316.332 190.031 316.77 190.085 317.194 190.183C316.806 189.612 316.393 189.059 315.944 188.525C314.924 188.628 313.886 188.537 312.89 188.294C312.362 188.166 311.834 188.002 311.324 187.802C310.784 187.595 310.28 187.322 309.746 187.097C309.703 187.079 309.734 187.019 309.77 187.043C310.681 187.602 311.828 187.887 312.866 188.063C313.825 188.227 314.791 188.288 315.762 188.306C315.379 187.863 314.985 187.431 314.566 187.031C313.157 185.676 311.482 184.431 309.624 183.782C309.588 183.769 309.606 183.709 309.643 183.727L309.649 183.733Z" fill="#1A2E35"/>
<path d="M314.014 183.751C314.257 184.061 314.481 184.382 314.669 184.723C314.876 185.081 315.022 185.457 315.143 185.852C315.143 185.864 315.125 185.87 315.119 185.858C314.943 185.5 314.791 185.129 314.609 184.771C314.427 184.419 314.22 184.091 313.965 183.787C313.941 183.757 313.983 183.714 314.008 183.745L314.014 183.751Z" fill="#1A2E35"/>
<path d="M309.024 186.18C309.37 186.386 309.74 186.52 310.123 186.642C310.493 186.763 310.863 186.866 311.246 186.945C311.264 186.945 311.258 186.982 311.246 186.976C310.851 186.927 310.463 186.854 310.086 186.72C309.71 186.587 309.352 186.405 309 186.229C308.963 186.21 309 186.156 309.03 186.18H309.024Z" fill="#1A2E35"/>
<path d="M322.669 190.656C322.706 190.972 323.483 188.008 328.024 185.385C332.146 182.998 337.069 176.791 333.026 172.868C329.76 169.704 321.164 176.603 322.669 190.656Z" fill="#6976DF"/>
<path d="M319.543 207.631C319.61 204.552 319.847 201.473 320.266 198.418C320.648 195.612 321.243 192.849 322.184 190.177C322.524 189.211 322.906 188.264 323.325 187.334C323.283 186.982 323.325 186.587 323.344 186.247C323.368 185.78 323.41 185.318 323.453 184.851C323.495 184.383 323.544 183.921 323.599 183.454C323.653 182.992 323.75 182.525 323.769 182.063C323.769 182.02 323.835 182.027 323.829 182.075C323.72 182.549 323.702 183.065 323.665 183.551C323.629 184 323.605 184.45 323.592 184.899C323.58 185.348 323.58 185.798 323.58 186.253C323.58 186.417 323.586 186.587 323.592 186.764C324.017 185.853 324.479 184.96 324.971 184.085C324.661 182.184 325.062 180.199 325.444 178.346C325.45 178.31 325.511 178.328 325.499 178.364C325.298 179.33 325.219 180.32 325.201 181.31C325.183 182.087 325.219 182.871 325.225 183.648C325.335 183.46 325.444 183.272 325.553 183.089C326.142 182.118 326.774 181.17 327.441 180.247C327.368 179.804 327.423 179.336 327.484 178.893C327.557 178.395 327.672 177.897 327.812 177.411C327.957 176.925 328.121 176.451 328.315 175.984C328.51 175.504 328.777 175.049 328.965 174.563C328.983 174.52 329.038 174.551 329.02 174.587C328.765 175.024 328.607 175.547 328.449 176.026C328.297 176.494 328.176 176.974 328.079 177.453C327.982 177.933 327.903 178.419 327.836 178.905C327.793 179.227 327.763 179.561 327.708 179.889C328.686 178.571 329.742 177.32 330.889 176.154C330.914 176.123 330.956 176.166 330.932 176.196C329.208 178.17 327.648 180.265 326.318 182.531C326.27 182.616 326.221 182.701 326.173 182.786C326.421 182.628 326.707 182.5 326.943 182.373C327.381 182.124 327.824 181.881 328.267 181.638C328.698 181.401 329.123 181.164 329.554 180.927C329.772 180.806 329.991 180.678 330.216 180.563C330.471 180.429 330.756 180.308 330.987 180.132C331.023 180.107 331.059 180.156 331.023 180.18C330.586 180.423 330.197 180.782 329.778 181.055C329.354 181.328 328.923 181.589 328.479 181.838C327.672 182.294 326.798 182.622 326.003 183.089C325.45 184.061 324.946 185.063 324.473 186.077C324.952 185.768 325.45 185.47 325.948 185.185C326.27 185.002 326.591 184.826 326.919 184.65C327.235 184.48 327.563 184.328 327.836 184.091C327.866 184.067 327.903 184.11 327.878 184.134C327.362 184.644 326.749 184.996 326.136 185.361C325.553 185.707 324.964 186.035 324.357 186.338C323.872 187.413 323.435 188.506 323.046 189.618C321.134 195.078 320.43 200.871 320.096 206.629C319.999 208.347 319.944 210.06 319.926 211.779C319.908 213.497 319.993 215.21 319.993 216.922C319.993 216.971 319.908 216.983 319.901 216.935C319.695 215.41 319.659 213.868 319.598 212.331C319.531 210.77 319.531 209.204 319.562 207.643L319.543 207.631Z" fill="#1A2E35"/>
<path d="M327.793 182.914C328.625 182.567 329.42 182.1 330.203 181.656C330.992 181.207 331.757 180.721 332.492 180.187C332.504 180.181 332.516 180.199 332.51 180.211C331.812 180.776 331.077 181.304 330.312 181.766C329.511 182.246 328.673 182.598 327.823 182.968C327.787 182.986 327.763 182.932 327.793 182.914Z" fill="#1A2E35"/>
<path d="M326.476 176.743C326.543 176.476 326.628 176.215 326.713 175.954C326.701 175.948 326.695 175.936 326.701 175.923C326.755 175.778 326.816 175.632 326.877 175.48C326.883 175.462 326.889 175.444 326.901 175.425C326.913 175.395 326.925 175.371 326.937 175.34C326.937 175.328 326.956 175.34 326.95 175.34C326.931 175.389 326.919 175.444 326.907 175.492C326.901 175.523 326.895 175.547 326.883 175.577C326.573 176.591 326.367 177.636 326.209 178.687C326.209 178.717 326.154 178.723 326.154 178.687C326.197 178.025 326.312 177.375 326.476 176.731V176.743Z" fill="#1A2E35"/>
<path d="M314.748 208.735L315.07 212.61L316.059 224.428H326.689L327.679 212.61L328 208.735H314.748Z" fill="#375A64"/>
<path d="M314.748 208.735L315.07 212.61H327.679L328 208.735H314.748Z" fill="#1A2E35"/>
<path d="M313.704 210.897H329.045V207.181H313.704V210.897Z" fill="#375A64"/>
<path d="M270.447 191.776H265.608V210.815H270.447V191.776Z" fill="#6976DF"/>
<path d="M270.447 211.757H265.608V214.891H270.447V211.757Z" fill="#6976DF"/>
<path d="M270.447 215.832H265.608V217.763H270.447V215.832Z" fill="#6976DF"/>
<path d="M270.447 218.704H265.608V219.664H270.447V218.704Z" fill="#6976DF"/>
<path d="M272.062 191.776H264L268.031 186.146L272.062 191.776Z" fill="#6976DF"/>
<path d="M280.075 185.728H275.236V210.815H280.075V185.728Z" fill="#6976DF"/>
<path d="M280.075 211.757H275.236V214.891H280.075V211.757Z" fill="#6976DF"/>
<path d="M280.075 215.832H275.236V217.763H280.075V215.832Z" fill="#6976DF"/>
<path d="M280.075 218.704H275.236V219.664H280.075V218.704Z" fill="#6976DF"/>
<path d="M281.69 185.727H273.628L277.659 180.098L281.69 185.727Z" fill="#6976DF"/>
<path d="M289.703 179.673H284.864V210.81H289.703V179.673Z" fill="#6976DF"/>
<path d="M289.703 211.757H284.864V214.891H289.703V211.757Z" fill="#6976DF"/>
<path d="M289.703 215.832H284.864V217.763H289.703V215.832Z" fill="#6976DF"/>
<path d="M289.703 218.704H284.864V219.664H289.703V218.704Z" fill="#6976DF"/>
<path d="M291.318 179.672H283.256L287.287 174.049L291.318 179.672Z" fill="#6976DF"/>
<path d="M299.332 173.624H294.493V210.809H299.332V173.624Z" fill="#6976DF"/>
<path d="M299.332 211.757H294.493V214.891H299.332V211.757Z" fill="#6976DF"/>
<path d="M299.332 215.832H294.493V217.763H299.332V215.832Z" fill="#6976DF"/>
<path d="M299.332 218.704H294.493V219.664H299.332V218.704Z" fill="#6976DF"/>
<path d="M300.947 173.624H292.885L296.916 168L300.947 173.624Z" fill="#6976DF"/>
<path opacity="0.6" d="M216.43 203.914C216.43 205.305 215.311 206.432 213.935 206.432C212.559 206.432 211.439 205.305 211.439 203.914C211.439 202.523 212.559 201.396 213.935 201.396C215.311 201.396 216.43 202.523 216.43 203.914Z" fill="#6976DF"/>
<path opacity="0.6" d="M219.467 199.101C219.467 199.778 218.925 200.327 218.247 200.327C217.57 200.327 217.028 199.778 217.028 199.101C217.028 198.423 217.57 197.874 218.247 197.874C218.925 197.874 219.467 198.423 219.467 199.101Z" fill="#6976DF"/>
<path opacity="0.6" d="M272.915 202.694C272.915 203.372 272.373 203.921 271.696 203.921C271.018 203.921 270.477 203.372 270.477 202.694C270.477 202.017 271.018 201.468 271.696 201.468C272.373 201.468 272.915 202.017 272.915 202.694Z" fill="#6976DF"/>
<path opacity="0.6" d="M297.297 213.906C297.297 214.584 296.755 215.133 296.078 215.133C295.4 215.133 294.858 214.584 294.858 213.906C294.858 213.229 295.4 212.68 296.078 212.68C296.755 212.68 297.297 213.229 297.297 213.906Z" fill="#6976DF"/>
<path opacity="0.6" d="M295.429 217.494C295.429 218.3 294.781 218.956 293.975 218.956H203.454C202.656 218.956 202 218.3 202 217.494C202 216.688 202.649 216.032 203.454 216.032C203.576 216.032 203.69 216.046 203.797 216.075C203.797 214.477 205.08 213.186 206.655 213.186C207.454 213.186 208.181 213.522 208.702 214.057L208.73 214.042C208.716 213.864 208.702 213.686 208.702 213.5C208.702 210.491 211.118 208.044 214.106 208.044C214.961 208.044 215.767 208.244 216.48 208.601C216.594 206.554 218.276 204.935 220.329 204.935C221.969 204.935 223.367 205.962 223.93 207.417C224.885 205.883 226.575 204.87 228.507 204.87C228.863 204.87 229.205 204.906 229.54 204.97C229.469 204.557 229.434 204.136 229.434 203.701C229.434 199.621 232.706 196.319 236.748 196.319C238.573 196.319 240.242 196.989 241.518 198.109C241.76 197.638 242.245 197.318 242.808 197.318C243.008 197.318 243.193 197.36 243.364 197.432L244.726 160.815H252.704L254.065 197.432C254.236 197.36 254.422 197.318 254.621 197.318C255.185 197.318 255.669 197.638 255.912 198.109C257.195 196.997 258.863 196.319 260.681 196.319C264.724 196.319 267.996 199.621 267.996 203.701C267.996 204.136 267.96 204.557 267.889 204.97C268.224 204.906 268.566 204.87 268.923 204.87C270.848 204.87 272.544 205.883 273.5 207.417C274.056 205.962 275.453 204.935 277.093 204.935C279.146 204.935 280.829 206.554 280.943 208.601C281.663 208.244 282.468 208.044 283.317 208.044C286.304 208.044 288.721 210.483 288.721 213.5C288.721 213.679 288.714 213.857 288.692 214.042L288.721 214.057C289.241 213.522 289.968 213.186 290.767 213.186C292.35 213.186 293.626 214.477 293.626 216.075C293.733 216.046 293.854 216.032 293.968 216.032C294.766 216.032 295.422 216.688 295.422 217.494H295.429Z" fill="#6976DF"/>
<path d="M272.481 205.441L270.598 205.791L270.178 207.795L269.757 205.791L267.875 205.441L269.75 204.978L270.178 203.088L270.606 204.978L272.481 205.441Z" fill="#FCFCFC"/>
<path d="M254.172 189.387L252.29 189.736L251.869 191.74L251.449 189.736L249.566 189.387L251.441 188.923L251.869 187.033L252.297 188.923L254.172 189.387Z" fill="#FCFCFC"/>
<path d="M226.81 209.258L225.762 209.45L225.527 210.57L225.291 209.45L224.236 209.251L225.284 208.994L225.527 207.938L225.769 208.994L226.81 209.258Z" fill="#FCFCFC"/>
<path d="M283.424 212.595L282.376 212.787L282.141 213.907L281.906 212.787L280.851 212.588L281.899 212.331L282.141 211.275L282.376 212.331L283.424 212.595Z" fill="#FCFCFC"/>
<path d="M212.331 216.511L211.283 216.71L211.047 217.83L210.812 216.71L209.757 216.511L210.805 216.254L211.047 215.198L211.283 216.254L212.331 216.511Z" fill="#FCFCFC"/>
<path d="M258.1 215.584L257.052 215.777L256.817 216.896L256.582 215.777L255.526 215.584L256.574 215.327L256.817 214.265L257.052 215.327L258.1 215.584Z" fill="#FCFCFC"/>
<path d="M250.401 186.342L249.346 186.541L249.111 187.661L248.875 186.541L247.82 186.342L248.868 186.085L249.111 185.029L249.353 186.085L250.401 186.342Z" fill="#FCFCFC"/>
<path d="M285.919 215.013C285.527 215.013 285.527 215.626 285.919 215.626C286.311 215.626 286.311 215.013 285.919 215.013Z" fill="#FCFCFC"/>
<path d="M246.322 182.462C245.93 182.462 245.93 183.075 246.322 183.075C246.715 183.075 246.715 182.462 246.322 182.462Z" fill="#FCFCFC"/>
<path d="M220.309 216.511C219.917 216.511 219.917 217.124 220.309 217.124C220.701 217.124 220.701 216.511 220.309 216.511Z" fill="#FCFCFC"/>
<path d="M239.635 212.281C239.243 212.281 239.243 212.895 239.635 212.895C240.027 212.895 240.027 212.281 239.635 212.281Z" fill="#FCFCFC"/>
<path d="M278.277 209.479C277.999 209.479 277.999 209.914 278.277 209.914C278.555 209.914 278.555 209.479 278.277 209.479Z" fill="#FCFCFC"/>
<path d="M251.614 206.219C251.336 206.219 251.336 206.654 251.614 206.654C251.892 206.654 251.892 206.219 251.614 206.219Z" fill="#FCFCFC"/>
<path d="M232.1 201.961C231.822 201.961 231.822 202.396 232.1 202.396C232.378 202.396 232.378 201.961 232.1 201.961Z" fill="#FCFCFC"/>
<path d="M265.487 202.853C264.731 202.853 264.731 204.029 265.487 204.029C266.242 204.029 266.242 202.853 265.487 202.853Z" fill="#FCFCFC"/>
<path d="M234.86 199.957C234.104 199.957 234.104 201.134 234.86 201.134C235.615 201.134 235.615 199.957 234.86 199.957Z" fill="#FCFCFC"/>
<path d="M235.15 131.867C234.865 131.867 224.228 136.817 223.593 149.02C223.016 160.232 230.701 170.887 231.692 170.181C232.904 169.318 230.844 162.328 233.204 154.34C234.038 151.509 237.702 148.991 237.702 148.991L235.143 131.874L235.15 131.867Z" fill="#6976DF"/>
<path opacity="0.1" d="M237.71 148.984C237.71 148.984 236.12 150.075 234.801 151.63C233.218 148.064 230.267 141.417 228.363 137.102C231.479 133.472 234.994 131.867 235.158 131.867L237.717 148.984H237.71Z" fill="black"/>
<path d="M262.22 131.888C262.506 131.888 273.135 136.859 273.749 149.055C274.312 160.274 266.612 170.908 265.621 170.202C264.409 169.339 266.484 162.349 264.131 154.354C263.297 151.516 259.64 148.998 259.64 148.998L262.22 131.881V131.888Z" fill="#6976DF"/>
<path opacity="0.1" d="M269.05 137.18C267.125 141.523 264.166 148.192 262.605 151.708C261.272 150.117 259.646 148.998 259.646 148.998L262.227 131.888C262.391 131.888 265.935 133.514 269.05 137.18Z" fill="black"/>
<path d="M256.731 159.932L240.683 159.918C240.683 159.918 233.119 146.274 234.017 130.013C234.467 121.896 236.57 113.723 239.101 106.962C242.58 97.6257 246.886 91 248.754 91C250.629 91 254.913 97.6329 258.393 106.976C260.909 113.744 262.998 121.918 263.44 130.034C264.31 146.295 256.731 159.925 256.731 159.925V159.932Z" fill="#EBEBEB"/>
<path d="M258.335 127.93C258.335 133.086 254.186 137.266 249.074 137.259C243.962 137.259 239.82 133.072 239.827 127.916C239.827 122.759 243.976 118.58 249.088 118.587C254.2 118.587 258.342 122.773 258.335 127.93Z" fill="#C7C7C7"/>
<path d="M258.007 126.982C258.007 132.138 253.857 136.318 248.746 136.311C243.634 136.311 239.492 132.124 239.499 126.967C239.499 121.811 243.648 117.632 248.76 117.639C253.872 117.639 258.014 121.825 258.007 126.982Z" fill="#6976DF"/>
<path d="M255.169 126.975C255.169 130.548 252.296 133.451 248.752 133.451C245.209 133.451 242.336 130.548 242.336 126.975C242.336 123.402 245.209 120.499 248.752 120.499C252.296 120.499 255.169 123.402 255.169 126.975Z" fill="white"/>
<path d="M255.17 126.975C255.17 127.803 255.02 128.594 254.735 129.322L251.077 133.009C250.357 133.294 249.573 133.444 248.753 133.444C248.154 133.444 247.584 133.359 247.035 133.209L254.934 125.242C255.084 125.791 255.17 126.376 255.17 126.975Z" fill="#EBEBEB"/>
<path d="M249.687 120.57L242.394 127.924C242.351 127.617 242.322 127.296 242.322 126.975C242.322 123.395 245.195 120.499 248.746 120.499C249.067 120.499 249.38 120.52 249.687 120.57Z" fill="#EBEBEB"/>
<path d="M254.365 123.837L245.638 132.638C245.467 132.545 245.31 132.446 245.146 132.331L254.058 123.338C254.165 123.495 254.265 123.666 254.358 123.837H254.365Z" fill="#EBEBEB"/>
<path d="M258.392 106.976L239.093 106.962C242.579 97.6257 246.885 91 248.753 91C250.628 91 254.913 97.6329 258.392 106.976Z" fill="#6976DF"/>
<path d="M242.423 104.958C242.423 105.258 242.18 105.5 241.881 105.5C241.581 105.5 241.339 105.258 241.339 104.958C241.339 104.659 241.581 104.416 241.881 104.416C242.18 104.416 242.423 104.659 242.423 104.958Z" fill="white"/>
<path d="M245.851 104.958C245.851 105.258 245.609 105.5 245.309 105.5C245.01 105.5 244.768 105.258 244.768 104.958C244.768 104.659 245.01 104.416 245.309 104.416C245.609 104.416 245.851 104.659 245.851 104.958Z" fill="white"/>
<path d="M249.288 104.958C249.288 105.258 249.045 105.5 248.746 105.5C248.447 105.5 248.204 105.258 248.204 104.958C248.204 104.659 248.447 104.416 248.746 104.416C249.045 104.416 249.288 104.659 249.288 104.958Z" fill="white"/>
<path d="M252.716 104.965C252.716 105.264 252.474 105.507 252.175 105.507C251.875 105.507 251.633 105.264 251.633 104.965C251.633 104.665 251.875 104.423 252.175 104.423C252.474 104.423 252.716 104.665 252.716 104.965Z" fill="white"/>
<path d="M256.154 104.965C256.154 105.264 255.912 105.507 255.612 105.507C255.313 105.507 255.07 105.264 255.07 104.965C255.07 104.665 255.313 104.423 255.612 104.423C255.912 104.423 256.154 104.665 256.154 104.965Z" fill="white"/>
<path d="M242.394 157.429C242.394 157.728 242.152 157.971 241.852 157.971C241.553 157.971 241.311 157.728 241.311 157.429C241.311 157.129 241.553 156.887 241.852 156.887C242.152 156.887 242.394 157.129 242.394 157.429Z" fill="#C7C7C7"/>
<path d="M245.831 157.429C245.831 157.728 245.588 157.971 245.289 157.971C244.989 157.971 244.747 157.728 244.747 157.429C244.747 157.129 244.989 156.887 245.289 156.887C245.588 156.887 245.831 157.129 245.831 157.429Z" fill="#C7C7C7"/>
<path d="M249.259 157.436C249.259 157.735 249.017 157.978 248.718 157.978C248.418 157.978 248.176 157.735 248.176 157.436C248.176 157.136 248.418 156.894 248.718 156.894C249.017 156.894 249.259 157.136 249.259 157.436Z" fill="#C7C7C7"/>
<path d="M252.697 157.436C252.697 157.735 252.455 157.978 252.155 157.978C251.856 157.978 251.613 157.735 251.613 157.436C251.613 157.136 251.856 156.894 252.155 156.894C252.455 156.894 252.697 157.136 252.697 157.436Z" fill="#C7C7C7"/>
<path d="M256.126 157.436C256.126 157.735 255.883 157.978 255.584 157.978C255.284 157.978 255.042 157.735 255.042 157.436C255.042 157.136 255.284 156.894 255.584 156.894C255.883 156.894 256.126 157.136 256.126 157.436Z" fill="#C7C7C7"/>
<path d="M255.248 164.796L242.194 164.789L241.581 159.918L255.861 159.932L255.248 164.796Z" fill="#6976DF"/>
<path opacity="0.1" d="M255.861 159.932L255.561 162.3L241.816 161.779L241.588 159.925L255.861 159.932Z" fill="black"/>
</g>
<defs>
<linearGradient id="paint0_linear_256_3187" x1="299.482" y1="-12.8026" x2="323.342" y2="76.2455" gradientUnits="userSpaceOnUse">
<stop offset="0.64" stop-color="#6976DF"/>
<stop offset="1" stop-color="#5A65DC"/>
</linearGradient>
<linearGradient id="paint1_linear_256_3187" x1="238.332" y1="27.4412" x2="328.308" y2="3.3321" gradientUnits="userSpaceOnUse">
<stop offset="0.64" stop-color="#6976DF"/>
<stop offset="1" stop-color="#5A65DC"/>
</linearGradient>
<linearGradient id="paint2_linear_256_3187" x1="340.238" y1="47.8561" x2="250.262" y2="71.9653" gradientUnits="userSpaceOnUse">
<stop offset="0.64" stop-color="#6976DF"/>
<stop offset="1" stop-color="#5A65DC"/>
</linearGradient>
<linearGradient id="paint3_linear_256_3187" x1="278.723" y1="88.2012" x2="254.862" y2="-0.84687" gradientUnits="userSpaceOnUse">
<stop offset="0.58" stop-color="#5A65DC"/>
<stop offset="0.77" stop-color="#6976DF"/>
<stop offset="0.83" stop-color="#6976DF"/>
</linearGradient>
<clipPath id="clip0_256_3187">
<rect width="350" height="240" fill="white"/>
</clipPath>
<clipPath id="clip1_256_3187">
<rect width="93.8076" height="92.4675" fill="white" transform="translate(232 5.2793) rotate(-15)"/>
</clipPath>
</defs>
</svg>
