<svg width="350" height="240" viewBox="0 0 350 240" fill="none" xmlns="http://www.w3.org/2000/svg">
<g clip-path="url(#clip0_268_1813)">
<rect width="350" height="240" rx="25" fill="#131217"/>
<path d="M44.928 34.4H54.864V68H47.184L47.664 48.704H47.184L45.264 68H40.56L38.64 48.704H38.16L38.64 68H30.96V34.4H40.896L42.672 56.192H43.152L44.928 34.4ZM70.803 34.4V41.264H64.515V47.744H70.083V53.984H64.515V61.136H70.803V68H56.835V34.4H70.803ZM79.1175 55.232V57.392C79.1175 60.8 79.5015 61.616 80.2215 61.616C81.1335 61.616 81.4695 60.8 81.4695 57.392V34.4H89.1495V59.312C89.1495 65.312 86.6535 68.48 80.4135 68.48C74.1255 68.48 71.6775 65.312 71.6775 59.312V54.128C71.6775 51.2 72.0135 50.528 72.0135 50.528H79.4535C79.4535 50.528 79.1175 51.776 79.1175 55.232ZM99.6491 33.92C106.129 33.92 108.625 37.088 108.625 43.088V59.312C108.625 65.312 106.129 68.48 99.6491 68.48C93.1211 68.48 90.6731 65.312 90.6731 59.312V43.088C90.6731 37.088 93.1211 33.92 99.6491 33.92ZM101.185 57.392V45.008C101.185 41.6 100.657 40.784 99.6491 40.784C98.5931 40.784 98.1131 41.6 98.1131 45.008V57.392C98.1131 60.8 98.5931 61.616 99.6491 61.616C100.657 61.616 101.185 60.8 101.185 57.392ZM128.415 57.92V61.424C128.415 66.368 128.751 68 128.751 68H121.071C121.071 68 120.735 67.328 120.735 64.88V57.728C120.735 53.888 119.823 53.072 118.239 53.072H117.999V68H110.319V34.4H119.775C126.063 34.4 128.511 36.032 128.511 41.696C128.511 47.216 126.783 49.376 121.311 49.376V49.856C126.495 49.856 128.415 51.488 128.415 57.92ZM117.999 46.208H119.775C121.071 46.208 121.551 45.488 121.551 43.712C121.551 42.128 121.071 41.264 119.775 41.264H117.999V46.208ZM144.162 34.4V41.264H137.874V47.744H143.442V53.984H137.874V61.136H144.162V68H130.194V34.4H144.162ZM152.525 58.016C152.525 60.416 153.053 61.616 154.157 61.616C155.213 61.616 155.789 60.704 155.789 58.304V57.824C155.789 54.512 153.581 53.312 150.989 51.632C148.157 49.76 145.325 47.744 145.325 42.608V42.128C145.325 37.472 147.773 33.92 154.301 33.92C160.781 33.92 163.277 37.088 163.277 43.088V46.592H156.077V45.008C156.077 41.6 155.405 40.784 154.109 40.784C153.197 40.784 152.765 41.456 152.765 42.56V43.04C152.765 45.296 155.165 46.832 157.709 48.56C160.637 50.576 163.277 52.544 163.277 58.208V59.168C163.277 65.168 160.781 68.48 154.301 68.48C147.773 68.48 145.325 65.168 145.325 59.168V57.056C145.325 54.56 145.661 53.936 145.661 53.936H152.861C152.861 53.936 152.525 55.04 152.525 58.016ZM181.168 68H174.304V34.4H183.28C189.808 34.4 192.256 35.888 192.256 41.936C192.256 47.936 190.048 49.376 185.056 49.376V49.856C189.808 49.856 192.736 51.2 192.736 57.44V58.688C192.736 65.6 190.864 68.48 186.736 68.48C183.856 68.48 181.744 67.088 180.784 62.144H180.304L181.168 68ZM181.984 46.208H183.28C184.576 46.208 185.056 45.344 185.056 43.712C185.056 42.128 184.576 41.264 183.28 41.264H181.984V46.208ZM181.984 53.072V56.528C181.984 60.704 182.608 61.616 183.472 61.616C184.624 61.616 185.056 60.944 185.056 57.248C185.056 53.552 184.336 53.072 182.944 53.072H181.984ZM207.912 61.136V68H193.944V34.4H201.624V61.136H207.912ZM217.634 33.92C224.114 33.92 226.61 37.088 226.61 43.088V59.312C226.61 65.312 224.114 68.48 217.634 68.48C211.105 68.48 208.658 65.312 208.658 59.312V43.088C208.658 37.088 211.105 33.92 217.634 33.92ZM219.17 57.392V45.008C219.17 41.6 218.642 40.784 217.634 40.784C216.578 40.784 216.098 41.6 216.098 45.008V57.392C216.098 60.8 216.578 61.616 217.634 61.616C218.642 61.616 219.17 60.8 219.17 57.392ZM246.016 48.08L245.968 68H239.104L240.16 62.144H239.68C238.768 67.088 236.848 68.48 233.872 68.48C229.744 68.48 228.064 65.12 228.064 58.688V43.088C228.064 37.088 230.512 33.92 237.04 33.92C243.52 33.92 245.968 37.088 245.968 43.088V46.592H238.816V45.008C238.816 41.6 238.336 40.784 237.04 40.784C235.744 40.784 235.264 41.6 235.264 45.008V48.08H246.016ZM235.264 54.32V56.768C235.264 60.656 235.648 61.616 236.848 61.616C237.664 61.616 238.336 60.704 238.336 56.528V54.32H235.264ZM254.572 58.016C254.572 60.416 255.1 61.616 256.204 61.616C257.26 61.616 257.836 60.704 257.836 58.304V57.824C257.836 54.512 255.628 53.312 253.036 51.632C250.204 49.76 247.372 47.744 247.372 42.608V42.128C247.372 37.472 249.82 33.92 256.348 33.92C262.828 33.92 265.324 37.088 265.324 43.088V46.592H258.124V45.008C258.124 41.6 257.452 40.784 256.156 40.784C255.244 40.784 254.812 41.456 254.812 42.56V43.04C254.812 45.296 257.212 46.832 259.756 48.56C262.684 50.576 265.324 52.544 265.324 58.208V59.168C265.324 65.168 262.828 68.48 256.348 68.48C249.82 68.48 247.372 65.168 247.372 59.168V57.056C247.372 54.56 247.708 53.936 247.708 53.936H254.908C254.908 53.936 254.572 55.04 254.572 58.016Z" fill="#EFA6F5"/>
<path d="M294.303 43.568V58.688C294.303 65.6 292.911 68.48 288.783 68.48C285.903 68.48 283.791 67.088 282.831 62.624H282.351L283.215 68H276.351V34.4H285.327C291.807 34.4 294.303 37.088 294.303 43.568ZM287.103 56.768V45.968C287.103 42.08 286.623 41.264 285.327 41.264H284.031V56.528C284.031 60.704 284.655 61.616 285.519 61.616C286.671 61.616 287.103 60.656 287.103 56.768ZM309.959 34.4V41.264H303.671V47.744H309.239V53.984H303.671V61.136H309.959V68H295.991V34.4H309.959ZM44.928 82.4H54.864V116H47.184L47.664 96.704H47.184L45.264 116H40.56L38.64 96.704H38.16L38.64 116H30.96V82.4H40.896L42.672 104.192H43.152L44.928 82.4ZM67.251 116L66.771 108.56H64.083L63.555 116H55.875L60.723 82.4H70.131L74.979 116H67.251ZM64.515 102.32H66.339L65.667 92.048H65.187L64.515 102.32ZM94.056 105.92V109.424C94.056 114.368 94.392 116 94.392 116H86.712C86.712 116 86.376 115.328 86.376 112.88V105.728C86.376 101.888 85.464 101.072 83.88 101.072H83.64V116H75.96V82.4H85.416C91.704 82.4 94.152 84.032 94.152 89.696C94.152 95.216 92.424 97.376 86.952 97.376V97.856C92.136 97.856 94.056 99.488 94.056 105.92ZM83.64 94.208H85.416C86.712 94.208 87.192 93.488 87.192 91.712C87.192 90.128 86.712 89.264 85.416 89.264H83.64V94.208ZM113.499 105.632V109.424C113.499 114.368 113.835 116 113.835 116H106.395C106.395 116 106.059 115.328 106.059 112.88V104.288C106.059 100.4 105.147 99.632 103.611 99.632H103.035V116H95.835V82.4H103.035V95.504H103.515L105.915 82.4H113.787L110.091 96.8L107.307 97.136V97.616C112.299 97.616 113.499 99.92 113.499 105.632ZM129.256 82.4V89.264H122.968V95.744H128.536V101.984H122.968V109.136H129.256V116H115.288V82.4H129.256ZM142.083 89.264V116H134.403V89.264H129.891V82.4H146.595V89.264H142.083ZM147.586 116V82.4H155.218V116H147.586ZM165.834 82.4L168.426 101.312H168.906L168.426 82.4H175.098V116H166.506L163.914 96.848H163.434L163.914 116H157.194V82.4H165.834ZM194.781 96.08L194.733 116H187.869L188.925 110.144H188.445C187.533 115.088 185.613 116.48 182.637 116.48C178.509 116.48 176.829 113.12 176.829 106.688V91.088C176.829 85.088 179.277 81.92 185.805 81.92C192.285 81.92 194.733 85.088 194.733 91.088V94.592H187.581V93.008C187.581 89.6 187.101 88.784 185.805 88.784C184.509 88.784 184.029 89.6 184.029 93.008V96.08H194.781ZM184.029 102.32V104.768C184.029 108.656 184.413 109.616 185.613 109.616C186.429 109.616 187.101 108.704 187.101 104.528V102.32H184.029ZM224.131 91.568V106.688C224.131 113.6 222.739 116.48 218.611 116.48C215.731 116.48 213.619 115.088 212.659 110.624H212.179L213.043 116H206.179V82.4H215.155C221.635 82.4 224.131 85.088 224.131 91.568ZM216.931 104.768V93.968C216.931 90.08 216.451 89.264 215.155 89.264H213.859V104.528C213.859 108.704 214.483 109.616 215.347 109.616C216.499 109.616 216.931 108.656 216.931 104.768ZM225.867 116V82.4H233.499V116H225.867ZM253.188 96.08L253.14 116H246.276L247.332 110.144H246.852C245.94 115.088 244.02 116.48 241.044 116.48C236.916 116.48 235.236 113.12 235.236 106.688V91.088C235.236 85.088 237.684 81.92 244.212 81.92C250.692 81.92 253.14 85.088 253.14 91.088V94.592H245.988V93.008C245.988 89.6 245.508 88.784 244.212 88.784C242.916 88.784 242.436 89.6 242.436 93.008V96.08H253.188ZM242.436 102.32V104.768C242.436 108.656 242.82 109.616 244.02 109.616C244.836 109.616 245.508 108.704 245.508 104.528V102.32H242.436ZM255.024 116V82.4H262.656V116H255.024ZM275.864 89.264V116H268.184V89.264H263.672V82.4H280.376V89.264H275.864ZM289.814 116L289.334 108.56H286.646L286.118 116H278.438L283.286 82.4H292.694L297.542 116H289.814ZM287.078 102.32H288.902L288.23 92.048H287.75L287.078 102.32ZM312.491 109.136V116H298.523V82.4H306.203V109.136H312.491Z" fill="#6976DF"/>
<rect x="30" y="148" width="143" height="30" fill="#BBC5F7"/>
<path d="M48.775 167.425V171H41.5V153.5H45.5V167.425H48.775ZM53.4631 157.75C56.4631 157.75 57.8881 159.4 57.8881 162.525V166.475C57.8881 169.6 56.4631 171.25 53.4631 171.25C50.4381 171.25 49.0381 169.6 49.0381 166.475V162.525C49.0381 159.4 50.4381 157.75 53.4631 157.75ZM54.5131 165.725V163.275C54.5131 161.5 54.0631 161.075 53.4631 161.075C52.8631 161.075 52.4131 161.5 52.4131 163.275V165.725C52.4131 167.5 52.8631 167.925 53.4631 167.925C54.0631 167.925 54.5131 167.5 54.5131 165.725ZM58.4137 167.2C58.4137 166.025 58.5887 165.15 58.5887 165.15H61.6887C61.6887 165.15 61.5387 165.85 61.5387 166.725C61.5387 167.4 61.8137 167.925 62.5387 167.925C63.0887 167.925 63.4887 167.625 63.4887 166.875C63.5137 165.9 62.8137 165.45 61.5387 164.75C60.1637 163.975 58.4137 163.275 58.4137 161.225C58.4137 159.3 59.5887 157.75 62.4137 157.75C65.2387 157.75 66.6137 159.125 66.6137 162.525H63.4887C63.4887 161.45 63.1637 161.075 62.5887 161.075C62.0637 161.075 61.8387 161.35 61.8387 161.675C61.8387 162.325 62.6387 162.55 63.7387 163.15C65.5137 164.1 66.6137 164.975 66.6137 167.175V167.425C66.6137 169.95 65.1387 171.25 62.7137 171.25C60.0887 171.25 58.4137 170.1 58.4137 167.2ZM72.1338 166.475V165.875C72.1338 164.575 72.3088 163.975 72.3088 163.975H76.1838C76.1838 163.975 76.0088 164.9 76.0088 166.1C76.0088 167.15 76.2338 167.675 76.7838 167.675C77.3838 167.675 77.6088 167.25 77.6088 165.475V165.125C77.5838 163.55 77.1588 163.2 76.4588 163.2H74.5088V159.975H76.5588C77.3088 159.975 77.7338 159.5 77.7338 158.5C77.7338 157.6 77.6088 156.825 76.9588 156.825C76.4088 156.825 76.0088 157.25 76.0088 159.1H72.1338V158.1C72.1338 154.975 73.5338 153.25 76.9338 153.25C79.8838 153.25 81.4838 154.55 81.4838 157.65C81.4838 160.525 80.0838 161.45 77.7338 161.45V161.7C80.2088 161.7 81.4588 162.675 81.4588 165.75V166.475C81.4588 169.6 80.1838 171.25 76.8088 171.25C73.4088 171.25 72.1338 169.6 72.1338 166.475ZM85.8477 159.025V160.275L85.3977 163.3H85.6477C86.0227 160.7 87.0727 159.975 88.4977 159.975C90.3727 159.975 91.2977 161.475 91.2977 165.075V166.475C91.2977 169.6 90.0227 171.25 86.6477 171.25C83.2477 171.25 81.9727 169.6 81.9727 166.475V158.025C81.9727 154.9 83.2477 153.25 86.6477 153.25C90.0227 153.25 91.3227 154.9 91.3227 158.025V159.025H87.4477C87.4477 157.25 87.2227 156.825 86.6477 156.825C86.0727 156.825 85.8477 157.25 85.8477 159.025ZM86.2227 165.525C86.2227 166.85 86.3477 167.675 86.8977 167.675C87.4477 167.675 87.5727 166.95 87.5727 165.675C87.5727 164.325 87.3977 163.575 86.8727 163.575C86.4227 163.575 86.2227 164.25 86.2227 165.525ZM105.591 159.375L105.341 161.225H105.591C105.966 158.4 107.141 157.75 108.491 157.75C110.641 157.75 111.166 159.425 111.166 162.775V171H107.416V163.775C107.416 161.75 107.116 161.325 106.741 161.325C106.366 161.325 105.966 161.725 105.966 163.9V171H102.216V163.775C102.216 161.75 101.916 161.325 101.516 161.325C101.141 161.325 100.741 161.725 100.741 163.9V171H96.9914V158H100.566L100.116 161.225H100.366C100.741 158.4 101.916 157.75 103.266 157.75C104.491 157.75 105.241 158.275 105.591 159.375ZM116.157 167.925C116.732 167.925 117.007 167.55 117.007 166.85C117.007 166 116.832 165.4 116.832 165.4H120.207C120.207 165.4 120.382 165.925 120.382 166.8V167.175C120.382 169.875 118.982 171.25 116.232 171.25C113.207 171.25 111.807 169.6 111.807 166.475V162.525C111.807 159.4 113.082 157.75 116.107 157.75C119.132 157.75 120.407 159.4 120.407 162.525V164.775H115.182V165.725C115.182 167.5 115.482 167.925 116.157 167.925ZM116.132 161.075C115.582 161.075 115.232 161.425 115.182 163L117.032 163.025C117.032 161.45 116.682 161.075 116.132 161.075ZM123.038 153.25C124.363 153.25 124.963 154.125 124.963 155.15V155.375C124.963 156.375 124.363 157.275 123.038 157.275C121.713 157.275 121.113 156.375 121.113 155.375V155.15C121.113 154.125 121.713 153.25 123.038 153.25ZM121.188 158H124.938V170.725C124.938 173.85 123.413 175.5 120.138 175.5H118.888V172.175C120.388 172.175 121.188 171.75 121.188 169.975V158ZM130.05 157.75C133.05 157.75 134.475 159.4 134.475 162.525V166.475C134.475 169.6 133.05 171.25 130.05 171.25C127.025 171.25 125.625 169.6 125.625 166.475V162.525C125.625 159.4 127.025 157.75 130.05 157.75ZM131.1 165.725V163.275C131.1 161.5 130.65 161.075 130.05 161.075C129.45 161.075 129 161.5 129 163.275V165.725C129 167.5 129.45 167.925 130.05 167.925C130.65 167.925 131.1 167.5 131.1 165.725ZM143.876 164.775H140.251V162.825C140.251 161.675 140.076 161.325 139.626 161.325C139.126 161.325 138.901 161.725 138.901 163.9V171H135.151V158H138.726L138.276 161.225H138.526C138.901 158.65 139.701 157.75 141.276 157.75C143.276 157.75 143.876 159.4 143.876 162.525V164.775ZM148.603 167.925C149.178 167.925 149.453 167.55 149.453 166.85C149.453 166 149.278 165.4 149.278 165.4H152.653C152.653 165.4 152.828 165.925 152.828 166.8V167.175C152.828 169.875 151.428 171.25 148.678 171.25C145.653 171.25 144.253 169.6 144.253 166.475V162.525C144.253 159.4 145.528 157.75 148.553 157.75C151.578 157.75 152.853 159.4 152.853 162.525V164.775H147.628V165.725C147.628 167.5 147.928 167.925 148.603 167.925ZM148.578 161.075C148.028 161.075 147.678 161.425 147.628 163L149.478 163.025C149.478 161.45 149.128 161.075 148.578 161.075ZM153.384 167.2C153.384 166.025 153.559 165.15 153.559 165.15H156.659C156.659 165.15 156.509 165.85 156.509 166.725C156.509 167.4 156.784 167.925 157.509 167.925C158.059 167.925 158.459 167.625 158.459 166.875C158.484 165.9 157.784 165.45 156.509 164.75C155.134 163.975 153.384 163.275 153.384 161.225C153.384 159.3 154.559 157.75 157.384 157.75C160.209 157.75 161.584 159.125 161.584 162.525H158.459C158.459 161.45 158.134 161.075 157.559 161.075C157.034 161.075 156.809 161.35 156.809 161.675C156.809 162.325 157.609 162.55 158.709 163.15C160.484 164.1 161.584 164.975 161.584 167.175V167.425C161.584 169.95 160.109 171.25 157.684 171.25C155.059 171.25 153.384 170.1 153.384 167.2Z" fill="#6976DF"/>
<g clip-path="url(#clip1_268_1813)">
<path d="M203.847 242.187C234.308 259.266 283.692 259.266 314.152 242.187C344.613 225.108 344.613 197.422 314.152 180.343C283.692 163.264 234.308 163.264 203.847 180.343C173.387 197.422 173.387 225.108 203.847 242.187Z" fill="#F0F0F0"/>
<path d="M320.62 208.746C320.62 208.746 321.002 206.686 324.098 205.091C327.112 203.544 328.851 203.894 330.923 202.999C333.019 202.095 331.508 197.911 325.828 199.775C320.637 201.484 320.108 206.312 320.108 206.312L320.628 208.746H320.62Z" fill="#6976DF"/>
<path opacity="0.2" d="M320.62 208.746C320.62 208.746 321.002 206.686 324.098 205.091C327.112 203.544 328.851 203.894 330.923 202.999C333.019 202.095 331.508 197.911 325.828 199.775C320.637 201.484 320.108 206.312 320.108 206.312L320.628 208.746H320.62Z" fill="black"/>
<path d="M320.084 207.972C320.084 207.972 320.043 207.972 320.019 207.964C319.913 207.923 319.864 207.801 319.897 207.695C320.612 205.465 322.448 203.389 324.812 202.144C327.851 200.548 330.012 201.053 330.11 201.077C330.215 201.102 330.28 201.216 330.256 201.329C330.232 201.443 330.126 201.517 330.02 201.492C329.996 201.492 327.892 200.996 324.991 202.526C322.716 203.723 320.953 205.701 320.279 207.834C320.254 207.923 320.173 207.98 320.092 207.98L320.084 207.972Z" fill="#FAFAFA"/>
<path d="M320.182 206.157C320.182 206.157 320.555 204.985 321.945 202.697C324.358 198.724 328.298 196.991 330.021 194.719C331.882 192.269 328.672 190.755 325.788 191.61C324.138 192.098 322.627 193.718 321.839 194.809C319.077 198.635 319.093 202.998 319.093 202.998L320.182 206.157Z" fill="#6976DF"/>
<path d="M319.637 206.271C319.532 206.271 319.442 206.173 319.442 206.051C319.442 206.018 319.564 202.331 321.441 198.7C323.619 194.499 326.861 193.002 326.999 192.945C327.096 192.896 327.218 192.945 327.259 193.059C327.299 193.164 327.259 193.295 327.153 193.335C327.121 193.352 323.903 194.841 321.791 198.912C319.954 202.453 319.841 206.035 319.841 206.067C319.841 206.181 319.751 206.271 319.646 206.271H319.637Z" fill="#FAFAFA"/>
<path d="M213.923 209.698C211.306 207.809 211.193 202.738 211.575 199.547C212.176 194.483 209.746 193.303 208.52 195.542C207.926 196.632 207.171 198.993 207.26 201.753C207.39 206.067 209.137 211.228 213.354 213.101L213.923 209.698Z" fill="#6976DF"/>
<path opacity="0.2" d="M213.923 209.698C211.306 207.809 211.193 202.738 211.575 199.547C212.176 194.483 209.746 193.303 208.52 195.542C207.926 196.632 207.171 198.993 207.26 201.753C207.39 206.067 209.137 211.228 213.354 213.101L213.923 209.698Z" fill="black"/>
<path d="M213.379 212.808C213.338 212.808 213.297 212.791 213.257 212.759C208.829 208.697 208.138 201.435 209.365 196.412C209.389 196.307 209.487 196.241 209.584 196.274C209.682 196.298 209.739 196.404 209.714 196.51C208.512 201.419 209.178 208.509 213.484 212.457C213.557 212.531 213.565 212.653 213.5 212.734C213.468 212.783 213.411 212.799 213.362 212.799L213.379 212.808Z" fill="#FAFAFA"/>
<path d="M217.847 219.035C215.572 220.785 210.339 222.307 208.641 219.295C207.057 216.503 208.121 215.274 204.903 215.762C201.694 216.242 200.955 213.572 201.718 211.325C202.474 209.079 199.313 205.79 201.621 203.234C203.928 200.678 205.269 205.985 206.593 206.563C207.918 207.141 208.747 205.896 210.29 206.799C211.834 207.703 211.98 211.382 213.483 211.456C215.945 211.578 220.081 211.562 220.382 213.914C220.682 216.267 217.838 219.035 217.838 219.035H217.847Z" fill="#6976DF"/>
<path d="M218.789 218.026H218.772C206.861 216.69 202.262 205.554 201.978 203.918C201.962 203.812 202.027 203.706 202.124 203.69C202.222 203.674 202.319 203.739 202.336 203.845C202.612 205.44 207.121 216.324 218.813 217.635C218.911 217.643 218.984 217.741 218.976 217.846C218.967 217.944 218.886 218.017 218.797 218.017L218.789 218.026Z" fill="#FAFAFA"/>
<path d="M205.773 213.027C204.562 213.027 203.596 212.848 203.531 212.832C203.433 212.815 203.368 212.71 203.384 212.604C203.401 212.498 203.498 212.425 203.596 212.449C203.62 212.449 205.83 212.864 207.699 212.449C207.796 212.425 207.894 212.498 207.918 212.596C207.942 212.701 207.877 212.807 207.78 212.824C207.114 212.978 206.415 213.027 205.781 213.027H205.773Z" fill="#FAFAFA"/>
<path d="M209.324 214.199C209.324 214.199 209.299 214.199 209.283 214.199C209.185 214.175 209.12 214.069 209.145 213.963C209.754 211.073 209.405 208.688 209.405 208.663C209.389 208.558 209.454 208.46 209.559 208.444C209.657 208.427 209.754 208.501 209.77 208.606C209.787 208.704 210.128 211.089 209.51 214.053C209.494 214.142 209.413 214.207 209.332 214.207L209.324 214.199Z" fill="#FAFAFA"/>
<path d="M187.045 198.928L192.749 195.395C193.236 195.094 194.032 195.094 194.52 195.395L195.243 195.843C195.73 196.144 196.129 196.885 196.129 197.487V204.553C196.129 205.155 195.73 205.896 195.243 206.197L189.539 209.73C189.052 210.032 188.255 210.032 187.768 209.73L187.045 209.283C186.557 208.981 186.159 208.241 186.159 207.638V200.572C186.159 199.97 186.557 199.229 187.045 198.928Z" fill="#6976DF"/>
<path opacity="0.5" d="M187.045 198.928L192.749 195.395C193.236 195.094 194.032 195.094 194.52 195.395L195.243 195.843C195.73 196.144 196.129 196.885 196.129 197.487V204.553C196.129 205.155 195.73 205.896 195.243 206.197L189.539 209.73C189.052 210.032 188.255 210.032 187.768 209.73L187.045 209.283C186.557 208.981 186.159 208.241 186.159 207.638V200.572C186.159 199.97 186.557 199.229 187.045 198.928Z" fill="#FAFAFA"/>
<path d="M196.121 197.487C196.121 196.884 195.722 196.632 195.235 196.941L189.531 200.474C189.044 200.775 188.646 201.516 188.646 202.119V209.193C188.646 209.795 189.044 210.047 189.531 209.738L195.235 206.205C195.722 205.904 196.121 205.163 196.121 204.561V197.495V197.487Z" fill="#6976DF"/>
<path d="M186.159 207.646C186.159 208.249 186.557 208.99 187.045 209.291L187.768 209.738C188.207 210.015 188.897 210.04 189.385 209.812C188.97 209.983 188.654 209.73 188.654 209.185V202.111C188.654 201.81 188.751 201.476 188.914 201.175L186.419 199.628C186.257 199.929 186.159 200.263 186.159 200.564V207.63V207.646Z" fill="#6976DF"/>
<path opacity="0.1" d="M186.159 207.646C186.159 208.249 186.557 208.99 187.045 209.291L187.768 209.738C188.207 210.015 188.897 210.04 189.385 209.812C188.97 209.983 188.654 209.73 188.654 209.185V202.111C188.654 201.81 188.751 201.476 188.914 201.175L186.419 199.628C186.257 199.929 186.159 200.263 186.159 200.564V207.63V207.646Z" fill="black"/>
<path d="M189.97 202.607L194.821 199.587C194.951 199.505 195.056 199.571 195.056 199.733V203.266C195.056 203.429 194.951 203.625 194.821 203.706L189.97 206.726C189.84 206.807 189.734 206.742 189.734 206.58V203.047C189.734 202.884 189.84 202.688 189.97 202.607Z" fill="#FAFAFA"/>
<path d="M189.734 202.754L192.635 203.763L195.056 199.44L192.716 204.121L189.734 202.754Z" fill="#E1E1E1"/>
<path d="M187.045 181.084L192.749 177.551C193.236 177.25 194.032 177.25 194.52 177.551L195.243 177.999C195.73 178.3 196.129 179.041 196.129 179.643V186.709C196.129 187.312 195.73 188.052 195.243 188.354L189.539 191.887C189.052 192.188 188.255 192.188 187.768 191.887L187.045 191.439C186.557 191.138 186.159 190.397 186.159 189.794V182.728C186.159 182.126 186.557 181.385 187.045 181.084Z" fill="#6976DF"/>
<path opacity="0.5" d="M187.045 181.084L192.749 177.551C193.236 177.25 194.032 177.25 194.52 177.551L195.243 177.999C195.73 178.3 196.129 179.041 196.129 179.643V186.709C196.129 187.312 195.73 188.052 195.243 188.354L189.539 191.887C189.052 192.188 188.255 192.188 187.768 191.887L187.045 191.439C186.557 191.138 186.159 190.397 186.159 189.794V182.728C186.159 182.126 186.557 181.385 187.045 181.084Z" fill="#FAFAFA"/>
<path d="M196.121 179.643C196.121 179.04 195.722 178.788 195.235 179.097L189.531 182.63C189.044 182.932 188.646 183.672 188.646 184.275V191.349C188.646 191.951 189.044 192.204 189.531 191.894L195.235 188.361C195.722 188.06 196.121 187.319 196.121 186.717V179.651V179.643Z" fill="#6976DF"/>
<path d="M186.159 189.803C186.159 190.405 186.557 191.146 187.045 191.447L187.768 191.895C188.207 192.172 188.897 192.196 189.385 191.968C188.97 192.139 188.654 191.887 188.654 191.341V184.267C188.654 183.966 188.751 183.632 188.914 183.331L186.419 181.784C186.257 182.085 186.159 182.419 186.159 182.72V189.786V189.803Z" fill="#6976DF"/>
<path opacity="0.1" d="M186.159 189.803C186.159 190.405 186.557 191.146 187.045 191.447L187.768 191.895C188.207 192.172 188.897 192.196 189.385 191.968C188.97 192.139 188.654 191.887 188.654 191.341V184.267C188.654 183.966 188.751 183.632 188.914 183.331L186.419 181.784C186.257 182.085 186.159 182.419 186.159 182.72V189.786V189.803Z" fill="black"/>
<path d="M192.334 188.207L191.725 188.159C190.928 188.093 189.97 187.752 189.97 186.522C189.97 185.692 190.514 184.683 191.18 184.267C191.7 183.942 192.147 184.08 192.318 184.544C192.488 183.868 192.935 183.177 193.455 182.859C194.13 182.444 194.666 182.778 194.666 183.608C194.666 184.813 193.715 186.335 192.927 187.401L192.326 188.207H192.334Z" fill="#FAFAFA"/>
<path d="M187.045 163.248L192.749 159.715C193.236 159.414 194.032 159.414 194.52 159.715L195.243 160.163C195.73 160.464 196.129 161.205 196.129 161.807V168.873C196.129 169.476 195.73 170.216 195.243 170.518L189.539 174.051C189.052 174.352 188.255 174.352 187.768 174.051L187.045 173.603C186.557 173.302 186.159 172.561 186.159 171.959V164.893C186.159 164.29 186.557 163.549 187.045 163.248Z" fill="#6976DF"/>
<path opacity="0.5" d="M187.045 163.248L192.749 159.715C193.236 159.414 194.032 159.414 194.52 159.715L195.243 160.163C195.73 160.464 196.129 161.205 196.129 161.807V168.873C196.129 169.476 195.73 170.216 195.243 170.518L189.539 174.051C189.052 174.352 188.255 174.352 187.768 174.051L187.045 173.603C186.557 173.302 186.159 172.561 186.159 171.959V164.893C186.159 164.29 186.557 163.549 187.045 163.248Z" fill="#FAFAFA"/>
<path d="M189.531 174.058C189.044 174.36 188.646 174.115 188.646 173.513V166.447C188.646 165.845 189.044 165.104 189.531 164.803L195.235 161.27C195.722 160.968 196.121 161.213 196.121 161.815V168.881C196.121 169.483 195.722 170.224 195.235 170.525" fill="#6976DF"/>
<path d="M186.159 171.966C186.159 172.569 186.557 173.31 187.045 173.611L187.768 174.058C188.207 174.335 188.897 174.36 189.385 174.132C188.97 174.303 188.654 174.05 188.654 173.505V166.439C188.654 166.138 188.751 165.804 188.914 165.503L186.419 163.956C186.257 164.257 186.159 164.591 186.159 164.892V171.958V171.966Z" fill="#6976DF"/>
<path opacity="0.1" d="M186.159 171.966C186.159 172.569 186.557 173.31 187.045 173.611L187.768 174.058C188.207 174.335 188.897 174.36 189.385 174.132C188.97 174.303 188.654 174.05 188.654 173.505V166.439C188.654 166.138 188.751 165.804 188.914 165.503L186.419 163.956C186.257 164.257 186.159 164.591 186.159 164.892V171.958V171.966Z" fill="black"/>
<path d="M191.343 167.562C191.343 167.562 192.009 165.918 192.074 165.682C192.139 165.446 192.074 164.615 192.074 164.453C192.074 164.298 192.683 163.858 192.878 164.306C193.073 164.762 193.09 165.226 192.984 165.828L194.463 164.9C194.772 164.705 194.902 164.982 194.902 165.201C194.902 165.511 194.747 165.779 194.666 165.885C194.666 165.885 194.958 165.788 194.967 166.211C194.967 166.447 194.837 166.789 194.609 166.992C194.609 166.992 194.707 167.074 194.707 167.367C194.707 167.562 194.503 168.034 194.292 168.165C194.292 168.165 194.357 168.303 194.357 168.539C194.357 168.824 194.138 169.255 193.813 169.451C193.488 169.646 191.367 170.981 191.367 170.981L191.351 167.562H191.343Z" fill="#FAFAFA"/>
<path d="M189.945 172.333L191.009 171.665L190.993 167.685L189.929 168.352L189.945 172.333Z" fill="#FAFAFA"/>
<path d="M183.916 142.367L192.659 136.946C193.406 136.482 194.625 136.482 195.373 136.946L196.478 137.629C197.225 138.093 197.835 139.225 197.835 140.153V150.988C197.835 151.916 197.225 153.048 196.478 153.512L187.735 158.933C186.988 159.397 185.769 159.397 185.021 158.933L183.916 158.25C183.169 157.785 182.56 156.654 182.56 155.726V144.891C182.56 143.963 183.169 142.831 183.916 142.367Z" fill="#6976DF"/>
<path opacity="0.1" d="M183.916 142.367L192.659 136.946C193.406 136.482 194.625 136.482 195.373 136.946L196.478 137.629C197.225 138.093 197.835 139.225 197.835 140.153V150.988C197.835 151.916 197.225 153.048 196.478 153.512L187.735 158.933C186.988 159.397 185.769 159.397 185.021 158.933L183.916 158.25C183.169 157.785 182.56 156.654 182.56 155.726V144.891C182.56 143.963 183.169 142.831 183.916 142.367Z" fill="black"/>
<path d="M197.843 140.088C197.843 139.55 197.591 138.199 196.299 139.054C195.007 139.909 188.621 143.775 187.752 144.337C187.077 144.768 186.639 145.298 186.387 145.949L187.077 146.698L197.843 140.088Z" fill="#6976DF"/>
<path opacity="0.2" d="M197.843 140.088C197.843 139.55 197.591 138.199 196.299 139.054C195.007 139.909 188.621 143.775 187.752 144.337C187.077 144.768 186.639 145.298 186.387 145.949L187.077 146.698L197.843 140.088Z" fill="black"/>
<path d="M187.735 158.933C186.987 159.397 186.378 159.023 186.378 158.095V147.26C186.378 146.331 186.987 145.2 187.735 144.736L196.477 139.314C197.225 138.85 197.834 139.225 197.834 140.153V150.988C197.834 151.916 197.225 153.047 196.477 153.511" fill="#6976DF"/>
<path opacity="0.1" d="M187.735 158.933C186.987 159.397 186.378 159.023 186.378 158.095V147.26C186.378 146.331 186.987 145.2 187.735 144.736L196.477 139.314C197.225 138.85 197.834 139.225 197.834 140.153V150.988C197.834 151.916 197.225 153.047 196.477 153.511" fill="black"/>
<path d="M182.56 155.726C182.56 156.654 183.169 157.786 183.916 158.25L185.021 158.934C185.696 159.357 186.752 159.389 187.508 159.048C186.866 159.308 186.378 158.917 186.378 158.087V147.252C186.378 146.788 186.533 146.275 186.776 145.819L182.958 143.45C182.714 143.906 182.56 144.419 182.56 144.883V155.718V155.726Z" fill="#6976DF"/>
<path opacity="0.2" d="M182.56 155.726C182.56 156.654 183.169 157.786 183.916 158.25L185.021 158.934C185.696 159.357 186.752 159.389 187.508 159.048C186.866 159.308 186.378 158.917 186.378 158.087V147.252C186.378 146.788 186.533 146.275 186.776 145.819L182.958 143.45C182.714 143.906 182.56 144.419 182.56 144.883V155.718V155.726Z" fill="black"/>
<path d="M192.374 143.467L193.512 145.616L196.047 144.5C196.291 144.395 196.38 144.704 196.209 145.021L194.373 148.375L194.804 151.241C194.844 151.51 194.593 151.892 194.381 151.884L192.106 151.811L189.831 154.701C189.62 154.969 189.368 154.904 189.409 154.578L189.839 151.176L188.003 150.093C187.833 149.987 187.922 149.564 188.166 149.377L190.701 147.35L191.838 143.792C191.944 143.458 192.253 143.263 192.366 143.467H192.374Z" fill="#FAFAFA"/>
<path d="M315.339 192.985C310.984 195.216 303.923 195.216 299.568 192.985C295.213 190.755 295.213 187.149 299.568 184.918C303.923 182.687 310.984 182.687 315.339 184.918C319.694 187.149 319.694 190.755 315.339 192.985Z" fill="#E1E1E1"/>
<path d="M216.173 218.848C216.173 219.858 216.88 221.111 217.749 221.657L261.86 248.985C262.729 249.522 264.143 249.522 265.012 248.985L325.365 211.587C326.234 211.05 326.941 209.788 326.941 208.779C326.941 207.769 326.234 206.507 325.365 205.97L281.254 178.642C280.385 178.105 278.979 178.105 278.102 178.642L217.749 216.04C216.88 216.577 216.173 217.831 216.173 218.848Z" fill="#2B454E"/>
<path d="M234.373 205.742L217.749 216.04C216.88 216.577 216.173 217.831 216.173 218.848C216.173 219.858 216.88 221.112 217.749 221.657L261.86 248.985C262.298 249.253 262.867 249.392 263.436 249.392V205.742H234.373Z" fill="#1A2E35"/>
<path d="M214.695 216.105C213.882 215.6 213.216 214.314 213.216 213.239V156.744C213.216 155.669 213.923 154.359 214.792 153.821L275.145 116.424C276.014 115.886 277.379 115.862 278.2 116.367C279.012 116.871 279.678 118.158 279.678 119.232V175.72C279.678 176.794 278.971 178.105 278.102 178.642L217.75 216.04C216.88 216.577 215.515 216.61 214.703 216.097L214.695 216.105Z" fill="#375A64"/>
<path d="M220.601 159.373L213.679 155.083C213.395 155.612 213.216 156.206 213.216 156.752V213.247C213.216 214.322 213.874 215.608 214.695 216.113C215.507 216.617 216.872 216.593 217.741 216.056L224.623 211.79L220.593 159.381L220.601 159.373Z" fill="#1A2E35"/>
<path d="M216.173 158.576V215.071C216.173 216.146 216.88 216.585 217.749 216.048L278.102 178.65C278.971 178.113 279.678 176.803 279.678 175.728V119.233C279.678 118.158 278.971 117.718 278.102 118.256L217.749 155.645C216.88 156.183 216.173 157.493 216.173 158.568V158.576Z" fill="#2B454E"/>
<path d="M217.75 217.994L261.86 245.322C262.73 245.859 264.143 245.859 265.013 245.322L325.365 207.924C326.235 207.387 326.235 206.515 325.365 205.97L281.255 178.642C280.385 178.105 278.98 178.105 278.102 178.642L217.75 216.04C216.88 216.577 216.88 217.448 217.75 217.994Z" fill="#375A64"/>
<path d="M218.595 158.788L277.257 122.44C277.777 122.114 278.2 122.375 278.2 123.026V171.926C278.2 172.57 277.777 173.359 277.257 173.685L218.595 210.032C218.075 210.358 217.652 210.098 217.652 209.446V160.546C217.652 159.903 218.075 159.113 218.595 158.788Z" fill="#FAFAFA"/>
<path d="M222.868 216.528L278.89 181.817C279.329 181.548 280.027 181.548 280.466 181.817L283.334 183.591C283.765 183.86 283.765 184.3 283.334 184.568L227.304 219.271C226.866 219.54 226.167 219.54 225.728 219.271L222.868 217.505C222.429 217.236 222.429 216.797 222.868 216.528Z" fill="#1A2E35"/>
<path d="M230.254 221.103L286.276 186.392C286.715 186.123 287.413 186.123 287.852 186.392L305.475 197.317C305.906 197.585 305.906 198.025 305.475 198.293L249.518 232.956C249.079 233.225 248.381 233.225 247.942 232.956L230.254 222.08C229.815 221.811 229.815 221.38 230.254 221.111V221.103Z" fill="#1A2E35"/>
<path d="M280.466 202.014L282.221 200.931C282.294 200.882 282.294 200.809 282.213 200.76L280.182 199.506C280.101 199.458 279.979 199.458 279.906 199.506L278.151 200.589C278.078 200.638 278.078 200.711 278.159 200.76L280.19 202.014C280.271 202.063 280.393 202.063 280.466 202.014ZM277.005 197.691L275.25 198.774C275.177 198.823 275.177 198.896 275.258 198.945L277.289 200.198C277.371 200.247 277.493 200.247 277.566 200.198L279.321 199.116C279.394 199.067 279.394 198.994 279.313 198.945L277.281 197.691C277.2 197.642 277.078 197.642 277.005 197.691ZM271.342 201.2L268.376 203.039C268.303 203.088 268.303 203.162 268.384 203.21L270.416 204.464C270.497 204.513 270.619 204.513 270.692 204.464L273.658 202.624C273.731 202.575 273.731 202.502 273.649 202.453L271.618 201.2C271.537 201.151 271.415 201.151 271.342 201.2ZM274.446 199.279L272.691 200.369C272.618 200.418 272.618 200.491 272.699 200.54L274.73 201.794C274.811 201.843 274.933 201.843 275.006 201.794L276.761 200.711C276.834 200.662 276.834 200.589 276.753 200.54L274.722 199.287C274.641 199.238 274.519 199.238 274.446 199.287V199.279ZM267.564 203.544L265.809 204.627C265.736 204.676 265.736 204.749 265.817 204.798L267.848 206.051C267.929 206.1 268.051 206.1 268.124 206.051L269.879 204.961C269.953 204.912 269.953 204.839 269.871 204.79L267.84 203.536C267.759 203.487 267.637 203.487 267.564 203.536V203.544ZM264.996 205.132L263.241 206.214C263.168 206.263 263.168 206.336 263.249 206.385L265.281 207.639C265.362 207.688 265.484 207.688 265.557 207.639L267.312 206.556C267.385 206.507 267.385 206.434 267.304 206.385L265.273 205.132C265.191 205.083 265.069 205.083 264.996 205.132ZM272.975 210.244L274.73 209.153C274.803 209.104 274.803 209.031 274.722 208.982L272.691 207.728C272.609 207.68 272.488 207.68 272.414 207.728L270.659 208.811C270.586 208.86 270.586 208.933 270.668 208.982L272.699 210.236C272.78 210.285 272.902 210.285 272.975 210.236V210.244ZM270.416 211.831L272.171 210.74C272.244 210.692 272.244 210.618 272.163 210.569L270.131 209.316C270.05 209.267 269.928 209.267 269.855 209.316L268.1 210.399C268.027 210.447 268.027 210.521 268.108 210.569L270.139 211.823C270.221 211.872 270.343 211.872 270.416 211.823V211.831ZM267.848 213.419L269.603 212.328C269.676 212.279 269.676 212.206 269.595 212.157L267.564 210.903C267.483 210.854 267.361 210.854 267.288 210.903L265.533 211.986C265.459 212.035 265.459 212.108 265.541 212.157L267.572 213.411C267.653 213.459 267.775 213.459 267.848 213.411V213.419ZM265.289 215.006L267.044 213.923C267.117 213.875 267.117 213.801 267.036 213.752L265.004 212.499C264.923 212.45 264.801 212.45 264.728 212.499L262.973 213.581C262.9 213.63 262.9 213.704 262.981 213.752L265.013 215.006C265.094 215.055 265.216 215.055 265.289 215.006ZM277.907 203.601L279.662 202.51C279.735 202.461 279.735 202.388 279.654 202.339L277.623 201.086C277.541 201.037 277.419 201.037 277.346 201.086L275.591 202.168C275.518 202.217 275.518 202.291 275.599 202.339L277.631 203.593C277.712 203.642 277.834 203.642 277.907 203.593V203.601ZM275.543 208.656L279.459 206.231C279.532 206.182 279.532 206.108 279.451 206.06L274.527 203.007C274.446 202.958 274.324 202.958 274.251 203.007L272.228 204.261C272.154 204.309 272.154 204.383 272.236 204.431L274.844 206.051C274.925 206.1 274.925 206.182 274.852 206.222L273.235 207.224C273.162 207.273 273.162 207.346 273.243 207.395L275.274 208.648C275.356 208.697 275.478 208.697 275.551 208.648L275.543 208.656ZM262.437 206.719L260.682 207.81C260.609 207.859 260.609 207.932 260.69 207.981L262.721 209.234C262.803 209.283 262.924 209.283 262.998 209.234L264.753 208.152C264.826 208.103 264.826 208.03 264.744 207.981L262.713 206.727C262.632 206.678 262.51 206.678 262.437 206.727V206.719ZM259.869 208.306L258.114 209.389C258.041 209.438 258.041 209.511 258.123 209.56L260.154 210.814C260.235 210.863 260.357 210.863 260.43 210.814L262.185 209.731C262.258 209.682 262.258 209.609 262.177 209.56L260.146 208.306C260.064 208.258 259.943 208.258 259.869 208.306ZM247.064 226.118C247.146 226.167 247.268 226.167 247.341 226.118L249.096 225.027C249.169 224.978 249.169 224.905 249.088 224.856L247.056 223.602C246.975 223.554 246.853 223.554 246.78 223.602L245.025 224.685C244.952 224.734 244.952 224.807 245.033 224.856L247.064 226.11V226.118ZM239.362 221.014L237.607 222.105C237.534 222.153 237.534 222.227 237.615 222.276L239.646 223.529C239.728 223.578 239.849 223.578 239.923 223.529L241.678 222.447C241.751 222.398 241.751 222.324 241.669 222.276L239.638 221.022C239.557 220.973 239.435 220.973 239.362 221.022V221.014ZM243.489 224.742C243.571 224.791 243.693 224.791 243.766 224.742L245.521 223.659C245.594 223.611 245.594 223.537 245.513 223.489L243.481 222.235C243.4 222.186 243.278 222.186 243.205 222.235L241.45 223.326C241.377 223.375 241.377 223.448 241.458 223.497L243.489 224.75V224.742ZM251.59 227.087L253.345 226.004C253.418 225.955 253.418 225.882 253.337 225.833L251.306 224.579C251.224 224.531 251.103 224.531 251.029 224.579L249.274 225.662C249.201 225.711 249.201 225.784 249.283 225.833L251.314 227.087C251.395 227.136 251.517 227.136 251.59 227.087ZM248.746 228.666C248.828 228.715 248.949 228.715 249.023 228.666L250.778 227.575C250.851 227.526 250.851 227.453 250.769 227.404L248.738 226.15C248.657 226.102 248.535 226.102 248.462 226.15L246.707 227.241C246.634 227.29 246.634 227.363 246.715 227.412L248.746 228.666ZM241.929 219.426L240.174 220.509C240.101 220.558 240.101 220.631 240.183 220.68L242.214 221.934C242.295 221.983 242.417 221.983 242.49 221.934L244.245 220.843C244.318 220.794 244.318 220.721 244.237 220.672L242.206 219.418C242.124 219.369 242.003 219.369 241.929 219.418V219.426ZM254.743 211.489L252.988 212.572C252.914 212.621 252.914 212.694 252.996 212.743L255.027 213.997C255.108 214.045 255.23 214.045 255.303 213.997L257.058 212.906C257.131 212.857 257.131 212.784 257.05 212.735L255.019 211.481C254.938 211.432 254.816 211.432 254.743 211.481V211.489ZM244.489 217.839L242.734 218.922C242.661 218.971 242.661 219.044 242.742 219.093L244.773 220.346C244.854 220.395 244.976 220.395 245.049 220.346L246.804 219.255C246.878 219.207 246.878 219.133 246.796 219.084L244.765 217.831C244.684 217.782 244.562 217.782 244.489 217.831V217.839ZM257.31 209.902L255.555 210.993C255.482 211.042 255.482 211.115 255.563 211.164L257.594 212.417C257.676 212.466 257.798 212.466 257.871 212.417L259.626 211.327C259.699 211.278 259.699 211.204 259.618 211.156L257.586 209.902C257.505 209.853 257.383 209.853 257.31 209.902ZM252.183 213.077L250.428 214.159C250.355 214.208 250.355 214.282 250.436 214.33L252.468 215.584C252.549 215.633 252.671 215.633 252.744 215.584L254.499 214.501C254.572 214.453 254.572 214.379 254.491 214.33L252.459 213.077C252.378 213.028 252.256 213.028 252.183 213.077ZM249.616 214.664L247.861 215.755C247.788 215.804 247.788 215.877 247.869 215.926L249.9 217.18C249.981 217.228 250.103 217.228 250.176 217.18L251.931 216.097C252.004 216.048 252.004 215.975 251.923 215.926L249.892 214.672C249.811 214.623 249.689 214.623 249.616 214.672V214.664ZM247.056 216.252L245.301 217.334C245.228 217.383 245.228 217.456 245.309 217.505L247.341 218.759C247.422 218.808 247.544 218.808 247.617 218.759L249.372 217.668C249.445 217.619 249.445 217.546 249.364 217.497L247.333 216.243C247.251 216.195 247.129 216.195 247.056 216.243V216.252ZM260.162 218.189L261.917 217.098C261.99 217.049 261.99 216.976 261.909 216.927L259.878 215.674C259.796 215.625 259.674 215.625 259.601 215.674L257.846 216.756C257.773 216.805 257.773 216.878 257.854 216.927L259.886 218.181C259.967 218.23 260.089 218.23 260.162 218.181V218.189ZM282.676 194.183L280.921 195.273C280.848 195.322 280.848 195.395 280.929 195.444L282.961 196.698C283.042 196.747 283.164 196.747 283.237 196.698L284.992 195.615C285.065 195.566 285.065 195.493 284.984 195.444L282.953 194.191C282.871 194.142 282.749 194.142 282.676 194.191V194.183ZM279.573 196.104L277.818 197.195C277.744 197.243 277.744 197.317 277.826 197.365L279.857 198.619C279.938 198.668 280.06 198.668 280.133 198.619L281.888 197.536C281.961 197.488 281.961 197.414 281.88 197.365L279.849 196.112C279.768 196.063 279.646 196.063 279.573 196.112V196.104ZM285.236 192.595L283.481 193.678C283.408 193.727 283.408 193.8 283.489 193.849L285.52 195.102C285.601 195.151 285.723 195.151 285.796 195.102L287.551 194.02C287.624 193.971 287.624 193.898 287.543 193.849L285.512 192.595C285.431 192.546 285.309 192.546 285.236 192.595ZM271.968 207.281L273.723 206.198C273.796 206.149 273.796 206.076 273.714 206.027L271.683 204.773C271.602 204.725 271.48 204.725 271.407 204.773L269.652 205.856C269.579 205.905 269.579 205.978 269.66 206.027L271.691 207.281C271.773 207.33 271.894 207.33 271.968 207.281ZM288.079 191.008C287.998 190.959 287.876 190.959 287.803 191.008L286.048 192.099C285.975 192.147 285.975 192.221 286.056 192.27L288.088 193.523C288.169 193.572 288.291 193.572 288.364 193.523L290.119 192.44C290.192 192.392 290.192 192.318 290.111 192.27L288.079 191.016V191.008ZM262.721 216.593L264.476 215.511C264.549 215.462 264.549 215.389 264.468 215.34L262.437 214.086C262.356 214.037 262.234 214.037 262.161 214.086L260.406 215.177C260.333 215.226 260.333 215.299 260.414 215.348L262.445 216.602C262.526 216.65 262.648 216.65 262.721 216.602V216.593ZM294.157 197.121L295.912 196.039C295.985 195.99 295.985 195.916 295.904 195.868L293.873 194.614C293.791 194.565 293.669 194.565 293.596 194.614L291.841 195.697C291.768 195.746 291.768 195.819 291.849 195.868L293.881 197.121C293.962 197.17 294.084 197.17 294.157 197.121ZM288.697 196.91L290.452 195.819C290.525 195.77 290.525 195.697 290.444 195.648L288.413 194.394C288.331 194.345 288.209 194.345 288.136 194.394L286.381 195.477C286.308 195.526 286.308 195.599 286.389 195.648L288.421 196.901C288.502 196.95 288.624 196.95 288.697 196.901V196.91ZM290.98 192.807C290.899 192.758 290.777 192.758 290.704 192.807L288.949 193.898C288.876 193.946 288.876 194.02 288.957 194.069L290.988 195.322C291.069 195.371 291.191 195.371 291.264 195.322L293.019 194.24C293.093 194.191 293.093 194.117 293.011 194.069L290.98 192.815V192.807ZM291.516 192.473L296.44 195.526C296.521 195.575 296.643 195.575 296.716 195.526L298.471 194.443C298.544 194.394 298.544 194.321 298.463 194.272L293.539 191.219C293.458 191.171 293.336 191.171 293.263 191.219L291.508 192.302C291.435 192.351 291.435 192.424 291.516 192.473ZM285.569 195.973L283.814 197.056C283.741 197.105 283.741 197.178 283.822 197.227L285.853 198.481C285.934 198.53 286.056 198.53 286.129 198.481L287.884 197.398C287.958 197.349 287.958 197.276 287.876 197.227L285.845 195.973C285.764 195.925 285.642 195.925 285.569 195.973ZM266.28 207.932L264.525 209.023C264.452 209.072 264.452 209.145 264.533 209.194L266.564 210.447C266.646 210.496 266.768 210.496 266.841 210.447L268.596 209.365C268.669 209.316 268.669 209.243 268.588 209.194L266.556 207.94C266.475 207.891 266.353 207.891 266.28 207.94V207.932ZM291.313 198.701C291.394 198.749 291.516 198.749 291.589 198.701L293.344 197.61C293.418 197.561 293.418 197.488 293.336 197.439L291.305 196.185C291.224 196.136 291.102 196.136 291.029 196.185L289.274 197.268C289.201 197.317 289.201 197.39 289.282 197.439L291.313 198.692V198.701ZM268.839 206.345L267.084 207.427C267.011 207.476 267.011 207.549 267.093 207.598L269.124 208.852C269.205 208.901 269.327 208.901 269.4 208.852L271.155 207.769C271.228 207.72 271.228 207.647 271.147 207.598L269.116 206.345C269.034 206.296 268.913 206.296 268.839 206.345ZM249.624 224.531C249.705 224.579 249.827 224.579 249.9 224.531L251.655 223.448C251.728 223.399 251.728 223.326 251.647 223.277L249.616 222.023C249.534 221.974 249.413 221.974 249.339 222.023L247.584 223.114C247.511 223.163 247.511 223.236 247.593 223.285L249.624 224.539V224.531ZM245.773 220.639L244.018 221.73C243.944 221.779 243.944 221.852 244.026 221.901L246.057 223.155C246.138 223.204 246.26 223.204 246.333 223.155L248.088 222.072C248.161 222.023 248.161 221.95 248.08 221.901L246.049 220.647C245.968 220.599 245.846 220.599 245.773 220.647V220.639ZM252.468 222.951L254.223 221.869C254.296 221.82 254.296 221.746 254.214 221.698L252.183 220.444C252.102 220.395 251.98 220.395 251.907 220.444L250.152 221.535C250.079 221.584 250.079 221.657 250.16 221.706L252.191 222.959C252.273 223.008 252.394 223.008 252.468 222.959V222.951ZM255.035 221.364L256.79 220.273C256.863 220.224 256.863 220.151 256.782 220.102L254.751 218.848C254.669 218.8 254.548 218.8 254.474 218.848L252.719 219.931C252.646 219.98 252.646 220.053 252.728 220.102L254.759 221.356C254.84 221.405 254.962 221.405 255.035 221.356V221.364ZM257.594 219.776L259.349 218.694C259.423 218.645 259.423 218.572 259.341 218.523L257.31 217.269C257.229 217.22 257.107 217.22 257.034 217.269L255.279 218.352C255.206 218.401 255.206 218.474 255.287 218.523L257.318 219.776C257.399 219.825 257.521 219.825 257.594 219.776ZM248.332 219.052L246.577 220.135C246.504 220.183 246.504 220.257 246.585 220.306L248.616 221.559C248.698 221.608 248.819 221.608 248.893 221.559L250.648 220.477C250.721 220.428 250.721 220.354 250.639 220.306L248.608 219.052C248.527 219.003 248.405 219.003 248.332 219.052ZM250.899 217.465L249.144 218.547C249.071 218.596 249.071 218.669 249.153 218.718L251.184 219.972C251.265 220.021 251.387 220.021 251.46 219.972L253.215 218.881C253.288 218.832 253.288 218.759 253.207 218.71L251.176 217.456C251.094 217.408 250.973 217.408 250.899 217.456V217.465ZM261.153 211.107L259.398 212.189C259.325 212.238 259.325 212.312 259.406 212.36L261.438 213.614C261.519 213.663 261.641 213.663 261.714 213.614L263.469 212.531C263.542 212.482 263.542 212.409 263.461 212.36L261.429 211.107C261.348 211.058 261.226 211.058 261.153 211.107ZM258.586 212.694L256.831 213.777C256.758 213.826 256.758 213.899 256.839 213.948L258.87 215.201C258.951 215.25 259.073 215.25 259.146 215.201L260.901 214.119C260.974 214.07 260.974 213.997 260.893 213.948L258.862 212.694C258.781 212.645 258.659 212.645 258.586 212.694ZM263.713 209.519L261.958 210.602C261.884 210.651 261.884 210.724 261.966 210.773L263.997 212.027C264.078 212.075 264.2 212.075 264.273 212.027L266.028 210.936C266.101 210.887 266.101 210.814 266.02 210.765L263.989 209.511C263.908 209.462 263.786 209.462 263.713 209.511V209.519ZM253.459 215.877L251.704 216.968C251.631 217.017 251.631 217.09 251.712 217.139L253.743 218.393C253.824 218.441 253.946 218.441 254.019 218.393L255.774 217.31C255.848 217.261 255.848 217.188 255.766 217.139L253.735 215.885C253.654 215.836 253.532 215.836 253.459 215.885V215.877ZM256.026 214.282L254.271 215.372C254.198 215.421 254.198 215.495 254.279 215.543L256.311 216.797C256.392 216.846 256.514 216.846 256.587 216.797L258.342 215.714C258.415 215.665 258.415 215.592 258.334 215.543L256.303 214.29C256.221 214.241 256.099 214.241 256.026 214.29V214.282ZM254.149 225.499L255.904 224.408C255.978 224.36 255.978 224.286 255.896 224.237L253.865 222.984C253.784 222.935 253.662 222.935 253.589 222.984L251.834 224.067C251.761 224.115 251.761 224.189 251.842 224.237L253.873 225.491C253.954 225.54 254.076 225.54 254.149 225.491V225.499ZM239.11 223.871L237.079 222.617C236.998 222.569 236.876 222.569 236.803 222.617L235.048 223.708C234.974 223.757 234.974 223.83 235.056 223.879L237.087 225.133C237.168 225.182 237.29 225.182 237.363 225.133L239.118 224.05C239.191 224.001 239.191 223.928 239.11 223.879V223.871ZM242.953 225.076L240.922 223.822C240.841 223.773 240.719 223.773 240.646 223.822L237.948 225.491C237.875 225.54 237.875 225.613 237.956 225.662L239.988 226.916C240.069 226.965 240.191 226.965 240.264 226.916L242.961 225.247C243.034 225.198 243.034 225.125 242.953 225.076ZM235.998 221.437L233.967 220.183C233.886 220.135 233.764 220.135 233.691 220.183L231.529 221.519C231.456 221.567 231.456 221.641 231.538 221.689L233.569 222.943C233.65 222.992 233.772 222.992 233.845 222.943L236.006 221.608C236.079 221.559 236.079 221.486 235.998 221.437ZM237.648 220.411C237.729 220.46 237.851 220.46 237.924 220.411L239.679 219.321C239.752 219.272 239.752 219.198 239.671 219.15L237.639 217.896C237.558 217.847 237.436 217.847 237.363 217.896L235.608 218.979C235.535 219.028 235.535 219.101 235.616 219.15L237.648 220.403V220.411ZM246.52 226.452L244.489 225.198C244.408 225.149 244.286 225.149 244.213 225.198L240.841 227.29C240.768 227.339 240.768 227.412 240.849 227.461L242.88 228.715C242.961 228.764 243.083 228.764 243.156 228.715L246.528 226.623C246.601 226.574 246.601 226.501 246.52 226.452ZM248.202 229L246.171 227.746C246.089 227.697 245.968 227.697 245.894 227.746L243.733 229.081C243.66 229.13 243.66 229.203 243.741 229.252L245.773 230.506C245.854 230.555 245.976 230.555 246.049 230.506L248.21 229.171C248.283 229.122 248.283 229.049 248.202 229ZM256.709 208.599C256.79 208.648 256.912 208.648 256.985 208.599L258.74 207.509C258.813 207.46 258.813 207.387 258.732 207.338L256.701 206.084C256.619 206.035 256.498 206.035 256.424 206.084L254.669 207.167C254.596 207.216 254.596 207.289 254.678 207.338L256.709 208.591V208.599ZM251.582 211.782C251.663 211.831 251.785 211.831 251.858 211.782L253.613 210.692C253.686 210.643 253.686 210.569 253.605 210.521L251.574 209.267C251.493 209.218 251.371 209.218 251.298 209.267L249.543 210.35C249.469 210.399 249.469 210.472 249.551 210.521L251.582 211.774V211.782ZM240.215 218.824C240.296 218.873 240.418 218.873 240.491 218.824L242.246 217.741C242.319 217.692 242.319 217.619 242.238 217.57L240.207 216.317C240.126 216.268 240.004 216.268 239.931 216.317L238.176 217.408C238.103 217.456 238.103 217.53 238.184 217.578L240.215 218.832V218.824ZM254.149 210.195C254.231 210.244 254.353 210.244 254.426 210.195L256.181 209.112C256.254 209.063 256.254 208.99 256.173 208.941L254.141 207.688C254.06 207.639 253.938 207.639 253.865 207.688L252.11 208.77C252.037 208.819 252.037 208.893 252.118 208.941L254.149 210.195ZM249.023 213.37C249.104 213.419 249.226 213.419 249.299 213.37L251.054 212.287C251.127 212.238 251.127 212.165 251.046 212.116L249.014 210.863C248.933 210.814 248.811 210.814 248.738 210.863L246.983 211.945C246.91 211.994 246.91 212.067 246.991 212.116L249.023 213.37ZM249.616 229.211C249.534 229.163 249.413 229.163 249.339 229.211L246.642 230.88C246.569 230.929 246.569 231.002 246.65 231.051L248.681 232.305C248.763 232.354 248.884 232.354 248.958 232.305L251.655 230.636C251.728 230.587 251.728 230.514 251.647 230.465L249.616 229.211ZM245.342 215.649C245.423 215.698 245.545 215.698 245.618 215.649L247.373 214.566C247.446 214.518 247.446 214.444 247.365 214.396L245.334 213.142C245.253 213.093 245.131 213.093 245.058 213.142L243.303 214.225C243.229 214.273 243.229 214.347 243.311 214.396L245.342 215.649ZM242.774 217.237C242.856 217.285 242.978 217.285 243.051 217.237L244.806 216.154C244.879 216.105 244.879 216.032 244.798 215.983L242.766 214.729C242.685 214.68 242.563 214.68 242.49 214.729L240.735 215.812C240.662 215.861 240.662 215.934 240.743 215.983L242.774 217.237ZM297.106 199.783C297.025 199.734 296.903 199.734 296.83 199.783L292.516 202.461C292.443 202.51 292.443 202.584 292.524 202.632L294.555 203.886C294.636 203.935 294.758 203.935 294.831 203.886L299.146 201.208C299.219 201.159 299.219 201.086 299.138 201.037L297.106 199.783ZM291.443 203.292C291.362 203.243 291.24 203.243 291.167 203.292L289.412 204.375C289.339 204.423 289.339 204.497 289.42 204.545L291.451 205.799C291.533 205.848 291.654 205.848 291.728 205.799L293.483 204.716C293.556 204.668 293.556 204.594 293.474 204.545L291.443 203.292ZM256.717 223.912L258.472 222.829C258.545 222.78 258.545 222.707 258.464 222.658L256.433 221.405C256.351 221.356 256.229 221.356 256.156 221.405L254.401 222.487C254.328 222.536 254.328 222.609 254.409 222.658L256.441 223.912C256.522 223.961 256.644 223.961 256.717 223.912ZM286.316 206.467C286.235 206.418 286.113 206.418 286.04 206.467L284.285 207.549C284.212 207.598 284.212 207.671 284.293 207.72L286.324 208.974C286.406 209.023 286.528 209.023 286.601 208.974L288.356 207.883C288.429 207.834 288.429 207.761 288.348 207.712L286.316 206.458V206.467ZM299.674 198.188C299.593 198.139 299.471 198.139 299.398 198.188L297.643 199.279C297.569 199.327 297.569 199.401 297.651 199.449L299.682 200.703C299.763 200.752 299.885 200.752 299.958 200.703L301.713 199.62C301.786 199.572 301.786 199.498 301.705 199.449L299.674 198.196V198.188ZM304.264 197.862L299.341 194.809C299.259 194.761 299.138 194.761 299.064 194.809L297.309 195.892C297.236 195.941 297.236 196.014 297.318 196.063L302.241 199.116C302.323 199.165 302.444 199.165 302.518 199.116L304.273 198.025C304.346 197.976 304.346 197.903 304.264 197.854V197.862ZM276.737 212.401C276.656 212.352 276.534 212.352 276.461 212.401L274.299 213.736C274.226 213.785 274.226 213.858 274.308 213.907L276.339 215.161C276.42 215.21 276.542 215.21 276.615 215.161L278.776 213.826C278.849 213.777 278.849 213.704 278.768 213.655L276.737 212.401ZM283.213 208.388C283.131 208.339 283.009 208.339 282.936 208.388L280.239 210.057C280.166 210.105 280.166 210.179 280.247 210.228L282.278 211.481C282.359 211.53 282.481 211.53 282.554 211.481L285.252 209.812C285.325 209.764 285.325 209.69 285.244 209.641L283.213 208.388ZM270.798 216.081C270.716 216.032 270.594 216.032 270.521 216.081L256.083 225.027C256.01 225.076 256.01 225.149 256.091 225.198L258.123 226.452C258.204 226.501 258.326 226.501 258.399 226.452L272.837 217.505C272.91 217.456 272.91 217.383 272.829 217.334L270.798 216.081ZM255.547 225.532C255.466 225.483 255.344 225.483 255.271 225.532L253.109 226.867C253.036 226.916 253.036 226.989 253.118 227.038L255.149 228.291C255.23 228.34 255.352 228.34 255.425 228.291L257.586 226.956C257.659 226.908 257.659 226.834 257.578 226.785L255.547 225.532ZM273.763 214.241C273.682 214.192 273.56 214.192 273.487 214.241L271.326 215.576C271.253 215.625 271.253 215.698 271.334 215.747L273.365 217.001C273.446 217.049 273.568 217.049 273.641 217.001L275.803 215.665C275.876 215.617 275.876 215.543 275.794 215.495L273.763 214.241ZM252.581 227.372C252.5 227.323 252.378 227.323 252.305 227.372L250.144 228.707C250.071 228.755 250.071 228.829 250.152 228.878L252.183 230.131C252.264 230.18 252.386 230.18 252.459 230.131L254.621 228.796C254.694 228.747 254.694 228.674 254.613 228.625L252.581 227.372ZM279.703 210.561C279.621 210.512 279.499 210.512 279.426 210.561L277.265 211.896C277.192 211.945 277.192 212.018 277.273 212.067L279.304 213.321C279.386 213.37 279.508 213.37 279.581 213.321L281.742 211.986C281.815 211.937 281.815 211.864 281.734 211.815L279.703 210.561ZM288.876 204.879C288.794 204.83 288.673 204.83 288.599 204.879L286.844 205.962C286.771 206.011 286.771 206.084 286.853 206.133L288.884 207.387C288.965 207.435 289.087 207.435 289.16 207.387L290.915 206.304C290.988 206.255 290.988 206.182 290.907 206.133L288.876 204.879ZM294.49 200.5L296.245 199.417C296.318 199.368 296.318 199.295 296.237 199.246L294.206 197.992C294.124 197.943 294.003 197.943 293.929 197.992L292.174 199.075C292.101 199.124 292.101 199.197 292.183 199.246L294.214 200.5C294.295 200.548 294.417 200.548 294.49 200.5ZM283.034 200.418L284.789 199.336C284.862 199.287 284.862 199.213 284.781 199.165L282.749 197.911C282.668 197.862 282.546 197.862 282.473 197.911L280.718 199.002C280.645 199.051 280.645 199.124 280.726 199.173L282.758 200.426C282.839 200.475 282.961 200.475 283.034 200.426V200.418ZM277.224 211.204L282.351 208.03C282.424 207.981 282.424 207.908 282.343 207.859L280.312 206.605C280.231 206.556 280.109 206.556 280.036 206.605L274.909 209.78C274.836 209.829 274.836 209.902 274.917 209.951L276.948 211.204C277.029 211.253 277.151 211.253 277.224 211.204ZM291.654 202.087C291.736 202.136 291.858 202.136 291.931 202.087L293.686 201.004C293.759 200.955 293.759 200.882 293.678 200.833L291.646 199.58C291.565 199.531 291.443 199.531 291.37 199.58L289.615 200.671C289.542 200.719 289.542 200.793 289.623 200.842L291.654 202.095V202.087ZM289.03 200.296L290.785 199.213C290.858 199.165 290.858 199.091 290.777 199.042L288.746 197.789C288.664 197.74 288.543 197.74 288.469 197.789L286.714 198.88C286.641 198.928 286.641 199.002 286.723 199.051L288.754 200.304C288.835 200.353 288.957 200.353 289.03 200.304V200.296ZM274.657 212.792L276.412 211.709C276.485 211.66 276.485 211.587 276.404 211.538L274.373 210.285C274.291 210.236 274.169 210.236 274.096 210.285L272.341 211.367C272.268 211.416 272.268 211.489 272.349 211.538L274.381 212.792C274.462 212.841 274.584 212.841 274.657 212.792ZM285.983 205.596C286.064 205.644 286.186 205.644 286.259 205.596L288.014 204.513C288.088 204.464 288.088 204.391 288.006 204.342L285.975 203.088C285.894 203.039 285.772 203.039 285.699 203.088L283.944 204.179C283.871 204.228 283.871 204.301 283.952 204.35L285.983 205.604V205.596ZM261.844 220.737L263.599 219.654C263.672 219.605 263.672 219.532 263.591 219.483L261.559 218.23C261.478 218.181 261.356 218.181 261.283 218.23L259.528 219.321C259.455 219.369 259.455 219.443 259.536 219.492L261.568 220.745C261.649 220.794 261.771 220.794 261.844 220.745V220.737ZM264.403 219.141L266.158 218.059C266.231 218.01 266.231 217.937 266.15 217.888L264.119 216.634C264.038 216.585 263.916 216.585 263.843 216.634L262.088 217.717C262.014 217.766 262.014 217.839 262.096 217.888L264.127 219.141C264.208 219.19 264.33 219.19 264.403 219.141ZM259.276 222.324L261.031 221.242C261.104 221.193 261.104 221.12 261.023 221.071L258.992 219.817C258.911 219.768 258.789 219.768 258.716 219.817L256.961 220.9C256.888 220.949 256.888 221.022 256.969 221.071L259 222.324C259.081 222.373 259.203 222.373 259.276 222.324ZM269.53 215.967L271.285 214.884C271.358 214.835 271.358 214.762 271.277 214.713L269.246 213.459C269.164 213.411 269.043 213.411 268.969 213.459L267.214 214.55C267.141 214.599 267.141 214.672 267.223 214.721L269.254 215.975C269.335 216.024 269.457 216.024 269.53 215.975V215.967ZM266.971 217.554L268.726 216.471C268.799 216.423 268.799 216.349 268.718 216.3L266.686 215.047C266.605 214.998 266.483 214.998 266.41 215.047L264.655 216.129C264.582 216.178 264.582 216.252 264.663 216.3L266.694 217.554C266.776 217.603 266.898 217.603 266.971 217.554ZM272.098 214.379L273.853 213.297C273.926 213.248 273.926 213.174 273.844 213.126L271.813 211.872C271.732 211.823 271.61 211.823 271.537 211.872L269.782 212.963C269.709 213.012 269.709 213.085 269.79 213.134L271.821 214.387C271.903 214.436 272.024 214.436 272.098 214.387V214.379ZM283.822 190.877C283.903 190.926 284.025 190.926 284.098 190.877L285.853 189.787C285.926 189.738 285.926 189.665 285.845 189.616L285.309 189.282C285.228 189.233 285.106 189.233 285.033 189.282L283.278 190.373C283.204 190.422 283.204 190.495 283.286 190.544L283.822 190.877ZM271.212 199.62C271.293 199.669 271.415 199.669 271.488 199.62L273.243 198.538C273.316 198.489 273.316 198.416 273.235 198.367L271.204 197.113C271.123 197.064 271.001 197.064 270.928 197.113L269.173 198.204C269.099 198.253 269.099 198.326 269.181 198.375L271.212 199.629V199.62ZM276.339 196.446C276.42 196.494 276.542 196.494 276.615 196.446L278.37 195.363C278.443 195.314 278.443 195.241 278.362 195.192L276.331 193.938C276.249 193.889 276.128 193.889 276.054 193.938L274.299 195.021C274.226 195.07 274.226 195.143 274.308 195.192L276.339 196.446ZM268.084 201.558C268.165 201.607 268.287 201.607 268.36 201.558L270.115 200.467C270.188 200.418 270.188 200.345 270.107 200.296L268.076 199.042C267.994 198.994 267.873 198.994 267.799 199.042L266.044 200.125C265.971 200.174 265.971 200.247 266.053 200.296L268.084 201.55V201.558ZM273.771 198.033C273.853 198.082 273.974 198.082 274.048 198.033L275.803 196.942C275.876 196.893 275.876 196.82 275.794 196.771L273.763 195.518C273.682 195.469 273.56 195.469 273.487 195.518L271.732 196.6C271.659 196.649 271.659 196.722 271.74 196.771L273.771 198.025V198.033ZM262.957 204.733C263.038 204.782 263.16 204.782 263.233 204.733L264.988 203.65C265.061 203.601 265.061 203.528 264.98 203.479L262.949 202.225C262.868 202.177 262.746 202.177 262.673 202.225L260.918 203.308C260.844 203.357 260.844 203.43 260.926 203.479L262.957 204.733ZM265.516 203.145C265.598 203.194 265.719 203.194 265.793 203.145L267.548 202.063C267.621 202.014 267.621 201.94 267.539 201.892L265.508 200.638C265.427 200.589 265.305 200.589 265.232 200.638L263.477 201.721C263.404 201.77 263.404 201.843 263.485 201.892L265.516 203.145ZM278.695 194.06C278.776 194.109 278.898 194.109 278.971 194.06L280.726 192.978C280.799 192.929 280.799 192.856 280.718 192.807L280.182 192.473C280.101 192.424 279.979 192.424 279.906 192.473L278.151 193.556C278.078 193.605 278.078 193.678 278.159 193.727L278.695 194.06ZM286.389 189.29C286.471 189.339 286.593 189.339 286.666 189.29L288.421 188.207C288.494 188.159 288.494 188.085 288.413 188.036L287.876 187.703C287.795 187.654 287.673 187.654 287.6 187.703L285.845 188.785C285.772 188.834 285.772 188.907 285.853 188.956L286.389 189.29ZM290.647 191.936C290.728 191.985 290.85 191.985 290.923 191.936L292.678 190.853C292.751 190.804 292.751 190.731 292.67 190.682L290.639 189.428C290.558 189.38 290.436 189.38 290.363 189.428L288.608 190.511C288.534 190.56 288.534 190.633 288.616 190.682L290.647 191.936ZM297.058 198.912L298.813 197.829C298.886 197.781 298.886 197.707 298.804 197.659L296.773 196.405C296.692 196.356 296.57 196.356 296.497 196.405L294.742 197.496C294.669 197.545 294.669 197.618 294.75 197.667L296.781 198.92C296.863 198.969 296.984 198.969 297.058 198.92V198.912ZM281.263 192.473C281.344 192.522 281.466 192.522 281.539 192.473L283.294 191.39C283.367 191.341 283.367 191.268 283.286 191.219L282.749 190.886C282.668 190.837 282.546 190.837 282.473 190.886L280.718 191.968C280.645 192.017 280.645 192.09 280.726 192.139L281.263 192.473ZM260.389 206.32C260.471 206.369 260.593 206.369 260.666 206.32L262.421 205.237C262.494 205.189 262.494 205.115 262.413 205.066L260.381 203.813C260.3 203.764 260.178 203.764 260.105 203.813L258.35 204.904C258.277 204.952 258.277 205.026 258.358 205.075L260.389 206.328V206.32Z" fill="#E1E1E1"/>
<path d="M270.813 223.424L290.013 211.53L301.827 218.849L282.627 230.742L270.813 223.424Z" fill="#1A2E35"/>
<path d="M232.253 152.876L289.453 117.432C290.574 116.74 291.484 117.31 291.484 118.694V166.243C291.484 166.886 291.062 167.676 290.542 168.001L231.879 204.349C231.359 204.675 230.937 204.406 230.937 203.763V155.31C230.937 154.415 231.522 153.324 232.245 152.876H232.253Z" fill="#F5F5F5"/>
<path d="M291.492 119.826V118.686C291.492 117.302 290.574 116.733 289.461 117.424L232.252 152.877C231.529 153.324 230.944 154.415 230.944 155.311V157.346L291.492 119.826Z" fill="#1A2E35"/>
<path d="M282.96 122.423C282.57 122.659 282.262 123.245 282.262 123.725C282.262 124.206 282.579 124.401 282.96 124.157C283.35 123.921 283.659 123.334 283.659 122.854C283.659 122.374 283.342 122.179 282.96 122.423Z" fill="#E1E1E1"/>
<path d="M285.74 120.705C285.35 120.941 285.041 121.527 285.041 122.007C285.041 122.488 285.358 122.683 285.74 122.439C286.13 122.203 286.439 121.617 286.439 121.136C286.439 120.656 286.122 120.461 285.74 120.705Z" fill="#E1E1E1"/>
<path d="M288.518 118.979C288.128 119.215 287.819 119.802 287.819 120.282C287.819 120.762 288.136 120.958 288.518 120.713C288.908 120.477 289.217 119.891 289.217 119.411C289.217 118.931 288.9 118.735 288.518 118.979Z" fill="#E1E1E1"/>
<path d="M230.944 157.346V166.496L291.492 128.976V119.826L230.944 157.346Z" fill="#6976DF"/>
<path opacity="0.1" d="M230.944 157.346V166.496L291.492 128.976V119.826L230.944 157.346Z" fill="black"/>
<path d="M234.91 161.726C234.642 161.799 234.439 161.807 234.284 161.766V157.281C234.284 157.183 234.3 157.102 234.333 157.037C234.365 156.972 234.422 156.915 234.504 156.858L234.812 156.662C234.894 156.613 234.95 156.597 234.991 156.622C235.032 156.646 235.048 156.703 235.048 156.801V158.274C235.154 158.095 235.292 157.916 235.462 157.753C235.633 157.59 235.82 157.444 236.015 157.322C236.478 157.037 236.827 156.972 237.079 157.134C237.331 157.289 237.453 157.655 237.453 158.217C237.453 158.877 237.307 159.471 237.014 160.016C236.722 160.562 236.291 161.009 235.722 161.359C235.446 161.53 235.178 161.652 234.91 161.726ZM236.429 159.902C236.592 159.577 236.673 159.186 236.673 158.73C236.673 158.347 236.608 158.103 236.478 158.005C236.348 157.908 236.137 157.948 235.836 158.136C235.625 158.266 235.446 158.445 235.284 158.665C235.121 158.893 235.048 159.129 235.048 159.373V160.912C235.121 160.928 235.21 160.912 235.332 160.871C235.454 160.83 235.568 160.773 235.69 160.7C236.031 160.488 236.275 160.228 236.437 159.902H236.429Z" fill="#FAFAFA"/>
<path d="M238.095 159.707C238.095 159.707 238.046 159.625 238.046 159.536V154.944C238.046 154.847 238.062 154.765 238.095 154.7C238.127 154.635 238.184 154.578 238.265 154.521L238.59 154.318C238.672 154.269 238.728 154.252 238.769 154.277C238.81 154.301 238.826 154.358 238.826 154.456V159.047C238.826 159.137 238.81 159.218 238.777 159.283C238.745 159.348 238.68 159.414 238.598 159.462L238.273 159.666C238.192 159.715 238.135 159.731 238.103 159.707H238.095Z" fill="#FAFAFA"/>
<path d="M239.85 158.282C239.565 158.111 239.419 157.737 239.419 157.134C239.419 156.532 239.565 155.978 239.85 155.457C240.134 154.936 240.548 154.505 241.076 154.179C241.605 153.854 242.011 153.772 242.303 153.935C242.596 154.098 242.734 154.48 242.734 155.075C242.734 155.669 242.588 156.231 242.303 156.752C242.011 157.273 241.605 157.704 241.076 158.03C240.548 158.355 240.142 158.437 239.85 158.266V158.282ZM241.735 156.613C241.881 156.312 241.962 155.962 241.962 155.563C241.962 155.164 241.889 154.92 241.735 154.806C241.58 154.692 241.361 154.733 241.076 154.912C240.792 155.091 240.573 155.327 240.418 155.628C240.264 155.929 240.191 156.271 240.191 156.662C240.191 157.053 240.264 157.313 240.418 157.427C240.573 157.541 240.792 157.509 241.076 157.338C241.369 157.159 241.588 156.923 241.735 156.621V156.613Z" fill="#FAFAFA"/>
<path d="M244.197 157.199C243.969 157.281 243.799 157.313 243.685 157.297C243.62 157.297 243.604 157.248 243.636 157.158L243.815 156.678C243.839 156.613 243.864 156.572 243.888 156.556C243.904 156.548 243.929 156.54 243.953 156.54C244.173 156.54 244.465 156.434 244.823 156.214C245.099 156.043 245.294 155.84 245.424 155.604C245.554 155.368 245.611 155.05 245.611 154.667C245.497 154.887 245.367 155.083 245.213 155.254C245.058 155.424 244.879 155.571 244.66 155.709C244.205 155.994 243.848 156.059 243.596 155.905C243.344 155.758 243.214 155.4 243.214 154.838C243.214 154.203 243.368 153.625 243.669 153.096C243.969 152.567 244.408 152.128 244.985 151.769C245.253 151.607 245.505 151.493 245.765 151.419C246.017 151.354 246.228 151.338 246.383 151.379V153.975C246.383 154.586 246.261 155.14 246.025 155.636C245.781 156.133 245.408 156.54 244.896 156.857C244.66 157.004 244.433 157.118 244.205 157.199H244.197ZM245.399 154.309C245.546 154.073 245.611 153.821 245.611 153.56V152.217C245.538 152.217 245.432 152.242 245.318 152.29C245.196 152.339 245.074 152.404 244.944 152.486C244.303 152.885 243.978 153.487 243.978 154.301C243.978 154.676 244.051 154.912 244.189 155.001C244.335 155.099 244.546 155.058 244.839 154.879C245.066 154.741 245.253 154.545 245.391 154.309H245.399Z" fill="#FAFAFA"/>
<path d="M241.279 164.143V196.306C241.279 196.518 241.385 196.632 241.507 196.543C241.637 196.461 241.742 196.217 241.742 196.005V163.842C241.742 163.63 241.637 163.516 241.507 163.598C241.377 163.679 241.279 163.923 241.279 164.135V164.143Z" fill="#6976DF"/>
<path d="M223.559 176.615L236.754 168.442C237.192 168.173 237.542 168.393 237.542 168.93V178.894C237.542 179.432 237.192 180.091 236.754 180.36L223.559 188.533C223.12 188.801 222.771 188.582 222.771 188.044V178.088C222.771 177.551 223.12 176.892 223.559 176.623V176.615Z" fill="#E1E1E1"/>
<path d="M237.534 168.93C237.534 168.393 237.185 168.173 236.746 168.442L223.551 176.615C223.112 176.884 222.763 177.543 222.763 178.08V178.927L237.534 169.777V168.93Z" fill="#6976DF"/>
<path d="M224.25 179.847L230.157 176.184V182.59L224.25 186.253V179.847Z" fill="#FAFAFA"/>
<path d="M224.25 185.317L226.468 181.092C226.566 180.905 226.753 180.88 226.891 181.043L227.663 181.955L228.995 178.65C229.076 178.454 229.231 178.438 229.352 178.609L230.157 179.838V182.582L224.25 186.245V185.317Z" fill="#6976DF"/>
<path d="M231.627 175.825C231.627 176.127 231.838 176.249 232.098 176.086L235.584 173.929C235.844 173.766 236.055 173.391 236.055 173.082C236.055 172.781 235.844 172.659 235.584 172.821L232.098 174.979C231.838 175.142 231.627 175.516 231.627 175.825Z" fill="#FAFAFA"/>
<path d="M231.627 178.455C231.627 178.756 231.838 178.879 232.098 178.716L235.584 176.558C235.844 176.396 236.055 176.021 236.055 175.712C236.055 175.411 235.844 175.289 235.584 175.451L232.098 177.609C231.838 177.771 231.627 178.146 231.627 178.455Z" fill="#FAFAFA"/>
<path d="M231.627 181.092C231.627 181.393 231.838 181.515 232.098 181.352L235.584 179.195C235.844 179.032 236.055 178.658 236.055 178.349C236.055 178.047 235.844 177.925 235.584 178.088L232.098 180.245C231.838 180.408 231.627 180.783 231.627 181.092Z" fill="#FAFAFA"/>
<path d="M223.559 192.041L236.754 183.868C237.192 183.599 237.542 183.819 237.542 184.356V194.32C237.542 194.857 237.192 195.517 236.754 195.785L223.559 203.958C223.12 204.227 222.771 204.007 222.771 203.47V193.506C222.771 192.969 223.12 192.309 223.559 192.041Z" fill="#E1E1E1"/>
<path d="M237.534 184.348C237.534 183.811 237.185 183.591 236.746 183.86L223.551 192.033C223.112 192.302 222.763 192.961 222.763 193.498V194.345L237.534 185.195V184.348Z" fill="#6976DF"/>
<path d="M224.25 195.264L230.157 191.609V198.008L224.25 201.671V195.264Z" fill="#FAFAFA"/>
<path d="M224.25 200.744L226.468 196.519C226.566 196.331 226.753 196.307 226.891 196.47L227.663 197.382L228.995 194.077C229.076 193.881 229.231 193.865 229.352 194.036L230.157 195.265V198.008L224.25 201.672V200.744Z" fill="#6976DF"/>
<path d="M231.627 191.243C231.627 191.545 231.838 191.667 232.098 191.504L235.584 189.347C235.844 189.184 236.055 188.809 236.055 188.5C236.055 188.199 235.844 188.077 235.584 188.239L232.098 190.397C231.838 190.56 231.627 190.934 231.627 191.243Z" fill="#FAFAFA"/>
<path d="M231.627 193.881C231.627 194.182 231.838 194.304 232.098 194.142L235.584 191.984C235.844 191.821 236.055 191.447 236.055 191.138C236.055 190.836 235.844 190.714 235.584 190.877L232.098 193.034C231.838 193.197 231.627 193.572 231.627 193.881Z" fill="#FAFAFA"/>
<path d="M231.627 196.51C231.627 196.811 231.838 196.933 232.098 196.77L235.584 194.613C235.844 194.45 236.055 194.076 236.055 193.767C236.055 193.465 235.844 193.343 235.584 193.506L232.098 195.663C231.838 195.826 231.627 196.201 231.627 196.51Z" fill="#FAFAFA"/>
<path d="M246.496 176.989L287.056 151.859C287.495 151.59 287.844 151.81 287.844 152.347V165.038C287.844 165.576 287.495 166.235 287.056 166.504L246.496 191.634C246.057 191.902 245.708 191.682 245.708 191.145V178.454C245.708 177.917 246.057 177.257 246.496 176.989Z" fill="#E1E1E1"/>
<path d="M287.844 152.347C287.844 151.81 287.495 151.59 287.056 151.859L246.496 176.989C246.057 177.257 245.708 177.917 245.708 178.454V179.301L287.844 153.194V152.347Z" fill="#6976DF"/>
<path d="M255.71 174.351L247.52 179.431C247.171 179.643 246.895 180.172 246.895 180.603V189.289C246.895 189.721 247.179 189.892 247.52 189.68L255.71 184.608C256.06 184.397 256.336 183.868 256.336 183.436V174.742C256.336 174.311 256.051 174.14 255.71 174.351Z" fill="#FAFAFA"/>
<path d="M249.778 181.987L246.886 188.597V189.281C246.886 189.712 247.17 189.883 247.511 189.672L255.701 184.6C256.051 184.388 256.327 183.859 256.327 183.428V180.424L254.775 177.29C254.588 176.907 254.304 176.923 254.149 177.322L251.712 183.477L250.526 181.889C250.274 181.555 249.933 181.596 249.762 181.987H249.778Z" fill="#6976DF"/>
<path d="M247.837 181.914C248.617 181.426 249.251 180.253 249.251 179.285C249.251 178.943 249.17 178.682 249.04 178.495L247.52 179.439C247.171 179.651 246.895 180.18 246.895 180.612V182.053C247.146 182.175 247.48 182.142 247.845 181.922L247.837 181.914Z" fill="#6976DF"/>
<path d="M260.048 172.438L285.374 156.751C285.723 156.54 286.008 156.686 286.008 157.077C286.008 157.468 285.723 157.972 285.382 158.184L260.056 173.871C259.707 174.083 259.431 173.936 259.431 173.545C259.431 173.154 259.715 172.65 260.056 172.438H260.048Z" fill="#FAFAFA"/>
<path d="M260.048 176.101L285.374 160.414C285.723 160.203 286.008 160.349 286.008 160.74C286.008 161.131 285.723 161.635 285.382 161.847L260.056 177.534C259.707 177.746 259.431 177.599 259.431 177.2C259.431 176.801 259.715 176.305 260.056 176.093L260.048 176.101Z" fill="#FAFAFA"/>
<path d="M260.048 179.756L285.374 164.07C285.723 163.858 286.008 164.005 286.008 164.395C286.008 164.786 285.723 165.291 285.382 165.502L260.056 181.189C259.707 181.401 259.431 181.254 259.431 180.855C259.431 180.457 259.715 179.96 260.056 179.748L260.048 179.756Z" fill="#FAFAFA"/>
<path d="M301.477 136.848L297.764 136.734C297.512 136.506 293.612 131.776 293.612 131.776C293.612 131.776 292.206 134.153 292.182 134.308C292.157 134.463 296.009 138.883 296.391 139.323C296.602 139.567 296.797 139.77 297.301 139.803C298.308 139.868 302.078 140.153 302.078 140.153L301.477 136.848Z" fill="#FF9090"/>
<path d="M306.767 141.431L301.03 140.975L301.477 136.848L307.392 136.986L306.767 141.431Z" fill="#6976DF"/>
<path opacity="0.2" d="M306.767 141.431L301.03 140.975L301.477 136.848L307.392 136.986L306.767 141.431Z" fill="black"/>
<path d="M253.881 155.009L294.441 129.879C294.872 129.611 295.229 129.83 295.229 130.368V143.059C295.229 143.596 294.88 144.256 294.441 144.524L253.881 169.654C253.442 169.923 253.093 169.703 253.093 169.166V156.475C253.093 155.937 253.442 155.278 253.881 155.009Z" fill="#E1E1E1"/>
<path d="M295.229 130.368C295.229 129.83 294.88 129.611 294.441 129.879L253.881 155.009C253.442 155.278 253.093 155.937 253.093 156.475V157.321L295.229 131.214V130.368Z" fill="#6976DF"/>
<path d="M263.095 152.38L254.905 157.459C254.556 157.671 254.279 158.2 254.279 158.632V167.318C254.279 167.749 254.564 167.92 254.905 167.708L263.095 162.637C263.444 162.425 263.729 161.896 263.729 161.465V152.77C263.729 152.339 263.444 152.168 263.095 152.38Z" fill="#FAFAFA"/>
<path d="M257.163 160.015L254.271 166.625V167.309C254.271 167.741 254.555 167.912 254.896 167.7L263.086 162.628C263.436 162.417 263.72 161.888 263.72 161.456V158.452L262.168 155.318C261.981 154.935 261.697 154.952 261.542 155.351L259.105 161.505L257.919 159.917C257.667 159.584 257.326 159.624 257.155 160.015H257.163Z" fill="#6976DF"/>
<path d="M255.222 159.935C256.002 159.446 256.636 158.274 256.636 157.305C256.636 156.963 256.554 156.703 256.424 156.516L254.905 157.46C254.556 157.672 254.279 158.201 254.279 158.632V160.073C254.531 160.195 254.864 160.163 255.23 159.943L255.222 159.935Z" fill="#6976DF"/>
<path d="M267.426 150.459L292.751 134.772C293.101 134.56 293.377 134.707 293.377 135.097C293.377 135.496 293.093 135.993 292.751 136.205L267.426 151.891C267.076 152.103 266.792 151.956 266.792 151.566C266.792 151.175 267.076 150.67 267.426 150.459Z" fill="#FAFAFA"/>
<path d="M267.426 154.122L292.751 138.435C293.101 138.223 293.377 138.37 293.377 138.76C293.377 139.159 293.093 139.656 292.751 139.868L267.426 155.554C267.076 155.766 266.792 155.62 266.792 155.221C266.792 154.822 267.076 154.325 267.426 154.114V154.122Z" fill="#FAFAFA"/>
<path d="M267.426 157.785L292.751 142.098C293.101 141.886 293.377 142.033 293.377 142.424C293.377 142.822 293.093 143.319 292.751 143.531L267.426 159.218C267.076 159.429 266.792 159.283 266.792 158.884C266.792 158.485 267.076 157.988 267.426 157.777V157.785Z" fill="#FAFAFA"/>
<path d="M314.079 185.072H311.934V188.426H314.079V185.072Z" fill="#FFAAA8"/>
<path d="M306.636 184.275L304.491 184.356L304.386 181.002L306.531 180.921L306.636 184.275Z" fill="#FFAAA8"/>
<path d="M313.94 152.323C313.94 154.521 314.208 168.751 314.208 168.751C314.257 169.386 314.81 170.55 314.688 172.984C314.525 176.289 314.257 185.463 314.257 185.463C314.257 185.463 313.25 186.538 311.828 185.463C311.828 185.463 309.886 173 309.496 169.728C309.163 166.87 308.594 159.112 308.594 159.112L306.603 168.246C306.603 168.246 306.953 170.395 307.034 171.909C307.107 173.424 306.668 182.175 306.668 182.175C306.668 182.175 305.58 182.981 304.336 182.272C304.336 182.272 302.614 169.484 302.386 168.116C302.167 166.748 303.898 152.331 303.898 152.331H313.94V152.323Z" fill="#375A64"/>
<path d="M310.707 137.092C310.707 137.092 310.723 137.092 310.74 137.092C312.633 137.596 313.941 139.444 313.941 141.536V152.322C312.438 154.081 307.189 154.895 303.898 152.322V141.089C303.898 139.298 304.825 137.14 307.392 136.978L310.707 137.083V137.092Z" fill="#6976DF"/>
<path d="M311.43 127.909C311.43 127.909 311.958 127.811 312.373 128.267C312.779 128.715 312.698 129.537 312.373 131.434L311.113 131.589L311.422 127.909H311.43Z" fill="#1A2E35"/>
<path d="M304.101 127.355C304.101 127.355 303.597 127.355 303.313 127.184C302.931 126.948 302.826 127.42 303.037 127.827C303.248 128.234 303.646 128.772 304.491 128.869C304.499 128.812 304.849 127.819 304.849 127.819L304.093 127.363L304.101 127.355Z" fill="#1A2E35"/>
<path d="M310.837 131.589C311.024 131.711 311.292 131.32 311.52 131.068C311.747 130.807 312.503 130.457 312.876 131.304C313.258 132.167 312.389 133.315 311.885 133.697C311.284 134.145 310.837 133.795 310.837 133.795L310.707 137.1C310.707 137.1 310.041 138.85 308.237 139.111C306.433 139.371 306.799 137.776 307.392 136.994V135.798C307.392 135.798 306.466 136.001 306.019 135.871C305.783 135.806 305.223 135.073 304.857 134.259C304.451 133.339 303.776 131.719 304.378 128.968C305.028 126.013 307.985 125.923 309.748 127.112C311.511 128.3 310.837 131.597 310.837 131.597V131.589Z" fill="#FFAAA8"/>
<path d="M310.837 131.923C310.934 131.923 311.283 131.288 311.519 131.06C311.844 130.742 311.43 127.901 311.43 127.901C311.43 127.901 311.755 126.818 311.121 126.11C310.487 125.394 309.252 125.516 308.35 125.483C307.416 125.451 306.408 125.386 305.133 124.791C303.857 124.197 303.76 124.124 303.597 124.726C303.435 125.329 303.378 126.713 304.142 127.632L304.775 127.885C304.775 127.885 305.117 128.21 306.311 128.365C307.505 128.52 309.366 128.333 309.618 128.3C309.967 128.251 310.04 128.609 310.227 129.594C310.39 130.457 310.528 131.923 310.845 131.931L310.837 131.923Z" fill="#1A2E35"/>
<path d="M311.43 128.129L312.559 127.478C312.397 127.128 312.015 126.998 311.706 127.177C311.398 127.356 311.276 127.779 311.43 128.129Z" fill="#1A2E35"/>
<path d="M307.392 135.789C307.392 135.789 309.066 135.431 309.651 135.097C310.041 134.877 310.366 134.486 310.455 134.242C310.455 134.242 310.349 134.771 309.992 135.252C309.561 135.838 307.384 136.269 307.384 136.269V135.789H307.392Z" fill="#FF9090"/>
<path d="M307.798 131.141C307.798 131.345 307.944 131.516 308.131 131.516C308.318 131.516 308.464 131.345 308.464 131.141C308.464 130.938 308.318 130.767 308.131 130.767C307.944 130.767 307.798 130.938 307.798 131.141Z" fill="#1A2E35"/>
<path d="M308.156 129.782L308.871 130.205C308.976 129.985 308.903 129.708 308.7 129.594C308.505 129.48 308.253 129.562 308.147 129.782H308.156Z" fill="#1A2E35"/>
<path d="M307.822 133.575L307.059 133.885C307.132 134.121 307.367 134.243 307.579 134.153C307.79 134.072 307.904 133.811 307.822 133.575Z" fill="#FF9090"/>
<path d="M304.808 130.083L305.458 129.546C305.328 129.342 305.068 129.302 304.889 129.456C304.71 129.603 304.67 129.888 304.8 130.091L304.808 130.083Z" fill="#1A2E35"/>
<path d="M305.011 131.036C305.011 131.239 305.157 131.41 305.344 131.41C305.531 131.41 305.677 131.239 305.677 131.036C305.677 130.832 305.531 130.661 305.344 130.661C305.157 130.661 305.011 130.832 305.011 131.036Z" fill="#1A2E35"/>
<path d="M306.718 130.693L306.604 132.859L305.556 132.476L306.718 130.693Z" fill="#FF9090"/>
<path d="M311.934 187.294V186.969C311.731 187.066 311.252 189.02 310.398 189.85C309.724 190.51 308.798 191.275 308.562 192.016C308.318 192.781 309.846 193.213 310.48 193.09C311.211 192.952 312.487 192.398 312.812 191.877C313.128 191.365 313.283 190.599 313.543 190.225C313.803 189.85 314.404 189.427 314.542 188.988C314.623 188.752 314.526 188.222 314.42 187.775C314.323 187.368 314.209 186.92 314.087 186.961C314.087 187.009 314.087 187.213 314.087 187.213C313.933 187.4 313.502 187.579 313.015 187.604C312.698 187.62 311.942 187.547 311.942 187.294H311.934Z" fill="#1A2E35"/>
<path d="M304.467 183.648C304.353 183.648 304.264 183.819 304.02 184.104C303.719 184.446 303.24 184.82 302.761 185.08C301.956 185.512 300.396 186.179 299.689 186.521C299.251 186.733 299.267 187.311 299.722 187.637C300.177 187.962 301.282 188.198 302.606 187.881C303.329 187.71 304.264 186.994 304.857 187.034C305.45 187.075 306.563 187.067 307.002 186.741C307.441 186.416 307.262 185.724 307.14 185.129C307.002 184.478 306.807 183.485 306.612 183.526V183.729C306.36 184.152 305.044 184.323 304.483 184.014V183.656L304.467 183.648Z" fill="#1A2E35"/>
<path d="M311.358 138.59L304.728 145.949C304.728 145.949 298.918 144.834 296.928 144.223C296.302 144.028 295.863 143.026 295.725 142.253C295.587 141.48 295.229 141.244 295.229 141.244C295.229 141.244 295.213 141.789 295.099 142.693C295.051 143.083 294.474 143.132 293.962 143.254C292.134 143.678 291.524 143.246 290.777 143.816C290.192 144.264 290.923 145.42 292.256 145.802C294.116 146.348 295.148 146.079 296.286 146.38C297.163 146.616 303.468 148.741 304.663 149.018C305.296 149.164 305.784 149.124 306.466 148.391C307.157 147.658 312.389 142.766 312.389 142.766L311.366 138.59H311.358Z" fill="#FFAAA8"/>
<path d="M311.642 138.329C310.911 138.134 306.482 143.808 306.482 143.808L308.928 146.006C308.928 146.006 312.089 143.784 312.649 142.888C313.21 141.993 313.844 138.916 311.642 138.321V138.329Z" fill="#6976DF"/>
<path d="M309.09 146.144C309.09 146.144 312.429 142.937 312.584 142.587C312.884 141.911 312.803 140.657 312.803 140.657C312.803 140.657 313.169 141.74 312.811 142.578C312.454 143.417 309.91 145.802 309.496 146.209L309.082 146.624L308.684 146.225L308.919 145.997L309.082 146.136L309.09 146.144Z" fill="#6976DF"/>
<path opacity="0.2" d="M309.09 146.144C309.09 146.144 312.429 142.937 312.584 142.587C312.884 141.911 312.803 140.657 312.803 140.657C312.803 140.657 313.169 141.74 312.811 142.578C312.454 143.417 309.91 145.802 309.496 146.209L309.082 146.624L308.684 146.225L308.919 145.997L309.082 146.136L309.09 146.144Z" fill="black"/>
<path d="M292.32 130.262C293.043 130.172 293.53 129.594 293.693 129.757C293.855 129.92 293.815 130.197 293.717 130.319C293.514 130.571 292.629 130.995 292.629 130.995C292.629 130.995 292.507 131.491 292.434 132.199C292.377 132.794 292.393 133.99 291.922 134.397C290.5 135.618 290.134 133.681 290.191 132.379C290.264 130.759 291.564 130.352 292.328 130.262H292.32Z" fill="#FF9090"/>
</g>
</g>
<defs>
<clipPath id="clip0_268_1813">
<rect width="350" height="240" fill="white"/>
</clipPath>
<clipPath id="clip1_268_1813">
<rect width="156" height="139" fill="white" transform="translate(181 116)"/>
</clipPath>
</defs>
</svg>
