<?xml version="1.0" encoding="UTF-8"?>
<svg id="Capa_2" data-name="Capa 2" xmlns="http://www.w3.org/2000/svg" xmlns:xlink="http://www.w3.org/1999/xlink" viewBox="0 0 398.43 175.12">
  <defs>
    <style>
      .cls-1 {
        fill: none;
      }

      .cls-2 {
        fill: #212121;
      }

      .cls-3 {
        fill: #fff;
      }

      .cls-4 {
        fill: url(#Degradado_sin_nombre_42);
      }
    </style>
    <linearGradient id="Degradado_sin_nombre_42" data-name="Degradado sin nombre 42" x1="48.8" y1="85.3" x2="338.48" y2="85.3" gradientUnits="userSpaceOnUse">
      <stop offset="0" stop-color="#efa6f5"/>
      <stop offset=".52" stop-color="#6976df"/>
      <stop offset=".86" stop-color="#b7c2fb"/>
    </linearGradient>
  </defs>
  <g id="Capa_1-2" data-name="Capa 1">
    <g>
      <rect class="cls-2" x="0" y="0" width="398.43" height="175.12" rx="25.58" ry="25.58"/>
      <g>
        <rect class="cls-1" x="26.89" y="26.23" width="342.52" height="120.53" rx="25.58" ry="25.58"/>
        <path class="cls-3" d="M56.89,15.99v10.23h-3.57v-10.23h3.57Z"/>
        <path class="cls-3" d="M72.73,26.22h-4.75l-5.92-7.33v7.33h-3.59v-10.23h4.79l5.86,7.36v-7.36h3.62v10.23Z"/>
        <path class="cls-3" d="M81.46,23.86h.19l4.05-7.88h3.87l-5.46,10.24h-5.22l-5.39-10.24h3.92l4.03,7.88Z"/>
        <path class="cls-3" d="M90.62,26.22v-10.23h11.3v2.19h-7.7v1.9h7.14v1.95h-7.14v1.97h7.67v2.21h-11.27Z"/>
        <path class="cls-3" d="M112.31,19.4c-.21-1.28-2.15-1.38-3.27-1.39-.91,0-2.62.14-2.59.99.08,1.86,9.48-.06,9.48,4.5,0,2.77-4.27,2.87-6.32,2.87-2.98,0-6.67-.58-6.92-3.78h3.55c.1,1.25,2.02,1.57,3.23,1.57.99,0,2.91-.05,2.83-.98-.14-1.63-9.52-.37-9.43-4.29.05-2.43,2.75-3.07,6.35-3.07,3.14,0,6.48.66,6.63,3.58h-3.55Z"/>
        <path class="cls-3" d="M121.46,26.22v-7.76h-4.74v-2.46h13.06v2.46h-4.74v7.76h-3.59Z"/>
        <path class="cls-3" d="M134.64,15.99v10.23h-3.57v-10.23h3.57Z"/>
        <path class="cls-3" d="M149.89,24.1c-1.26,1.46-3.2,2.11-5.49,2.22-4.43.21-8.36-1.47-8.36-5.22s3.79-5.33,8.47-5.33,7.48,1.57,7.81,4.02h-3.44c-.61-1.09-2.08-1.63-4.39-1.63-2.75,0-4.83.77-4.83,2.98,0,2.02,2.16,2.99,4.48,3.03,2.11.03,3.76-.46,4.72-1.46h-4.08v-1.95h7.76v5.47h-2.66v-2.13Z"/>
        <path class="cls-3" d="M163.51,24.2h-5.78l-.96,2.03h-3.76l5.15-10.23h5.09l4.96,10.23h-3.78l-.93-2.03ZM162.72,22.37l-2.08-4.5-2.13,4.5h4.21Z"/>
        <path class="cls-3" d="M179.79,22.71l3.84.02c-.94,2.56-4.51,3.63-7.96,3.63-4.47,0-8.26-1.54-8.26-5.27s3.79-5.25,8.26-5.25c4.1,0,7.3,1.3,8.05,3.97h-3.79c-.66-1.17-2.3-1.6-4.35-1.6-2.59,0-4.56.7-4.56,2.9s1.97,2.87,4.58,2.87c1.78,0,3.41-.3,4.19-1.26Z"/>
        <path class="cls-3" d="M188.58,15.99v10.23h-3.57v-10.23h3.57Z"/>
        <path class="cls-3" d="M198.14,15.81c4.53,0,8.29,1.46,8.29,5.3s-3.76,5.28-8.28,5.28-8.34-1.54-8.34-5.28,3.84-5.3,8.32-5.3ZM202.83,21.11c0-2.16-2.02-2.87-4.69-2.87s-4.72.7-4.72,2.87,2.06,2.83,4.74,2.83,4.67-.75,4.67-2.83ZM196.33,15.03l2.99-1.86h3.51l-3.84,1.86h-2.66Z"/>
        <path class="cls-3" d="M221.81,26.22h-4.75l-5.92-7.33v7.33h-3.59v-10.23h4.79l5.86,7.36v-7.36h3.62v10.23Z"/>
        <path class="cls-3" d="M228.32,26.23v-10.24h7.71c4.8,0,7.3,2.05,7.3,5.12s-2.61,5.12-7.41,5.12h-7.6ZM231.93,23.93h3.81c2.51,0,4.02-.93,4.02-2.82s-1.58-2.82-4.1-2.82h-3.73v5.63Z"/>
        <path class="cls-3" d="M248.29,15.99v10.23h-3.57v-10.23h3.57Z"/>
        <path class="cls-3" d="M259.04,19.4c-.21-1.28-2.15-1.38-3.27-1.39-.91,0-2.62.14-2.59.99.08,1.86,9.48-.06,9.48,4.5,0,2.77-4.27,2.87-6.32,2.87-2.98,0-6.67-.58-6.92-3.78h3.55c.1,1.25,2.02,1.57,3.23,1.57.99,0,2.91-.05,2.83-.98-.14-1.63-9.52-.37-9.43-4.29.05-2.43,2.75-3.07,6.35-3.07,3.14,0,6.48.66,6.63,3.58h-3.55Z"/>
        <path class="cls-3" d="M263.9,26.22v-10.23h11.3v2.19h-7.7v1.9h7.14v1.95h-7.14v1.97h7.67v2.21h-11.27Z"/>
        <path class="cls-3" d="M290.68,26.23h-4.75l-5.92-7.35v7.35h-3.59v-10.24h4.79l5.86,7.36v-7.36h3.62v10.24ZM279.57,15.14c.06-1.17.62-2.42,2.38-2.42,1.42,0,2.31.96,2.93.96.69,0,.88-.4.9-.77h1.74c-.08.96-.66,2.37-2.38,2.37-1.44,0-2.31-.94-2.93-.94-.7,0-.88.43-.9.8h-1.74Z"/>
        <path class="cls-3" d="M300.15,15.81c4.53,0,8.29,1.46,8.29,5.3s-3.76,5.28-8.28,5.28-8.34-1.54-8.34-5.28,3.84-5.3,8.32-5.3ZM304.84,21.11c0-2.16-2.02-2.87-4.69-2.87s-4.72.7-4.72,2.87,2.06,2.83,4.74,2.83,4.67-.75,4.67-2.83Z"/>
        <path class="cls-3" d="M314.58,26.23v-10.24h7.71c4.8,0,7.3,2.05,7.3,5.12s-2.61,5.12-7.41,5.12h-7.6ZM318.18,23.93h3.81c2.51,0,4.02-.93,4.02-2.82s-1.58-2.82-4.1-2.82h-3.73v5.63Z"/>
        <path class="cls-3" d="M330.98,26.22v-10.23h11.3v2.19h-7.7v1.9h7.14v1.95h-7.14v1.97h7.67v2.21h-11.27Z"/>
        <path class="cls-3" d="M353.41,20.71c.06-1.3-1.81-1.79-2.9-2.04-.89-.19-2.6-.4-2.74.43-.31,1.83,9.28,1.91,8.33,6.37-.58,2.71-4.78,1.91-6.78,1.49-2.91-.62-6.41-1.95-5.98-5.13l3.48.74c-.17,1.24,1.65,1.95,2.84,2.21.97.21,2.86.56,2.97-.37.2-1.63-9.24-2.34-8.33-6.16.55-2.37,3.33-2.43,6.85-1.68,3.07.65,6.2,1.99,5.74,4.88l-3.48-.74Z"/>
        <path class="cls-3" d="M364.03,32.81l-4.37-3.77-2.05.91-2.85-2.46,10.58-4.38,3.85,3.32-2.92,10.98-2.86-2.47.62-2.14ZM364.63,30.92l1.36-4.76-4.55,2.01,3.19,2.75Z"/>
        <path class="cls-3" d="M370.98,43.76c.39-.43.59-.75.18-1.96l-.73-2.08-3.34,1.16-1.18-3.4,9.67-3.37,2.42,6.95c.99,2.84.84,5.33-1.45,6.13-1.48.52-2.7-.41-3.48-2.26.18.99-.08,1.72-.64,2.31l-2.27,2.42-1.26-3.62,2.09-2.27ZM373.15,41.82c.57,1.63,1.24,2.35,2.13,2.02.8-.29.75-1.14.26-2.56l-1.04-2.98-2.3.8.95,2.72Z"/>
        <path class="cls-3" d="M372.13,57.98c.51-.27.8-.51.82-1.79v-2.21h-3.54v-3.6h10.24v7.36c0,3.01-.96,5.31-3.39,5.31-1.57,0-2.42-1.28-2.54-3.28-.16.99-.64,1.6-1.36,1.97l-2.95,1.54v-3.84l2.72-1.46ZM374.82,56.86c0,1.73.4,2.62,1.34,2.61.85-.02,1.09-.83,1.09-2.34v-3.15h-2.43v2.88Z"/>
        <path class="cls-3" d="M379.83,71.95c0,4.53-1.46,8.29-5.3,8.29s-5.28-3.76-5.28-8.28,1.54-8.34,5.28-8.34,5.3,3.84,5.3,8.32ZM374.53,76.64c2.16,0,2.87-2.02,2.87-4.69s-.7-4.72-2.87-4.72-2.83,2.07-2.83,4.74.75,4.67,2.83,4.67Z"/>
        <path class="cls-3" d="M369.41,81.5h10.24v3.6h-7.72v7.4h-2.53v-11Z"/>
        <path class="cls-3" d="M369.41,93.76h10.24v3.6h-7.72v7.4h-2.53v-11Z"/>
        <path class="cls-3" d="M379.83,113.23c0,4.53-1.46,8.29-5.3,8.29s-5.28-3.76-5.28-8.28,1.54-8.34,5.28-8.34,5.3,3.84,5.3,8.32ZM374.53,117.92c2.16,0,2.87-2.02,2.87-4.69s-.7-4.72-2.87-4.72-2.83,2.07-2.83,4.74.75,4.67,2.83,4.67Z"/>
        <path class="cls-3" d="M338.57,157v-10.23h3.57v10.23h-3.57Z"/>
        <path class="cls-3" d="M322.73,146.77h4.75l5.92,7.33v-7.33h3.59v10.23h-4.79l-5.86-7.36v7.36h-3.62v-10.23Z"/>
        <path class="cls-3" d="M314,149.13h-.19l-4.05,7.88h-3.87l5.46-10.24h5.22l5.39,10.24h-3.92l-4.03-7.88Z"/>
        <path class="cls-3" d="M304.83,146.77v10.23h-11.3v-2.19h7.7v-1.9h-7.14v-1.95h7.14v-1.97h-7.67v-2.21h11.27Z"/>
        <path class="cls-3" d="M283.17,153.59c.21,1.28,2.15,1.38,3.27,1.39.91,0,2.62-.14,2.59-.99-.08-1.86-9.48.06-9.48-4.5,0-2.77,4.27-2.87,6.32-2.87,2.98,0,6.67.58,6.92,3.78h-3.55c-.1-1.25-2.02-1.57-3.23-1.57-.99,0-2.91.05-2.83.98.14,1.63,9.52.37,9.43,4.29-.05,2.43-2.75,3.07-6.35,3.07-3.14,0-6.48-.66-6.63-3.58h3.55Z"/>
        <path class="cls-3" d="M274.01,146.77v7.76h4.74v2.46h-13.06v-2.46h4.74v-7.76h3.59Z"/>
        <path class="cls-3" d="M260.81,157v-10.23h3.57v10.23h-3.57Z"/>
        <path class="cls-3" d="M245.58,148.89c1.26-1.46,3.2-2.11,5.49-2.22,4.43-.21,8.36,1.47,8.36,5.22s-3.79,5.33-8.47,5.33-7.48-1.57-7.81-4.02h3.44c.61,1.09,2.08,1.63,4.39,1.63,2.75,0,4.83-.77,4.83-2.98,0-2.02-2.16-2.99-4.48-3.03-2.11-.03-3.76.46-4.72,1.46h4.08v1.95h-7.76v-5.47h2.66v2.13Z"/>
        <path class="cls-3" d="M231.97,148.79h5.78l.96-2.03h3.76l-5.15,10.23h-5.09l-4.96-10.23h3.78l.93,2.03ZM232.75,150.61l2.08,4.5,2.13-4.5h-4.21Z"/>
        <path class="cls-3" d="M215.67,150.28l-3.84-.02c.94-2.56,4.51-3.63,7.96-3.63,4.47,0,8.26,1.54,8.26,5.27s-3.79,5.25-8.26,5.25c-4.1,0-7.3-1.3-8.05-3.97h3.79c.66,1.17,2.3,1.6,4.35,1.6,2.59,0,4.56-.7,4.56-2.9s-1.97-2.87-4.58-2.87c-1.78,0-3.41.3-4.19,1.26Z"/>
        <path class="cls-3" d="M206.89,157v-10.23h3.57v10.23h-3.57Z"/>
        <path class="cls-3" d="M197.34,157.18c-4.53,0-8.29-1.46-8.29-5.3s3.76-5.28,8.28-5.28,8.34,1.54,8.34,5.28-3.84,5.3-8.32,5.3ZM192.65,151.88c0,2.16,2.02,2.87,4.69,2.87s4.72-.7,4.72-2.87-2.06-2.83-4.74-2.83-4.67.75-4.67,2.83ZM199.15,157.96l-2.99,1.86h-3.51l3.84-1.86h2.66Z"/>
        <path class="cls-3" d="M173.64,146.77h4.75l5.92,7.33v-7.33h3.59v10.23h-4.79l-5.86-7.36v7.36h-3.62v-10.23Z"/>
        <path class="cls-3" d="M167.12,146.76v10.24h-7.71c-4.8,0-7.3-2.05-7.3-5.12s2.61-5.12,7.41-5.12h7.6ZM163.52,149.06h-3.81c-2.51,0-4.02.93-4.02,2.82s1.58,2.82,4.1,2.82h3.73v-5.63Z"/>
        <path class="cls-3" d="M147.17,157v-10.23h3.57v10.23h-3.57Z"/>
        <path class="cls-3" d="M136.42,153.59c.21,1.28,2.15,1.38,3.27,1.39.91,0,2.62-.14,2.59-.99-.08-1.86-9.48.06-9.48-4.5,0-2.77,4.27-2.87,6.32-2.87,2.98,0,6.67.58,6.92,3.78h-3.55c-.1-1.25-2.02-1.57-3.23-1.57-.99,0-2.91.05-2.83.98.14,1.63,9.52.37,9.43,4.29-.05,2.43-2.75,3.07-6.35,3.07-3.14,0-6.48-.66-6.63-3.58h3.55Z"/>
        <path class="cls-3" d="M131.56,146.77v10.23h-11.3v-2.19h7.7v-1.9h-7.14v-1.95h7.14v-1.97h-7.67v-2.21h11.27Z"/>
        <path class="cls-3" d="M104.79,146.76h4.75l5.92,7.35v-7.35h3.59v10.24h-4.79l-5.86-7.36v7.36h-3.62v-10.24ZM115.9,157.85c-.06,1.17-.62,2.42-2.38,2.42-1.42,0-2.31-.96-2.93-.96-.69,0-.88.4-.9.77h-1.74c.08-.96.66-2.37,2.38-2.37,1.44,0,2.31.94,2.93.94.7,0,.88-.43.9-.8h1.74Z"/>
        <path class="cls-3" d="M95.31,157.18c-4.53,0-8.29-1.46-8.29-5.3s3.76-5.28,8.28-5.28,8.34,1.54,8.34,5.28-3.84,5.3-8.32,5.3ZM90.62,151.88c0,2.16,2.02,2.87,4.69,2.87s4.72-.7,4.72-2.87-2.06-2.83-4.74-2.83-4.67.75-4.67,2.83Z"/>
        <path class="cls-3" d="M80.86,146.76v10.24h-7.71c-4.8,0-7.3-2.05-7.3-5.12s2.61-5.12,7.41-5.12h7.6ZM77.26,149.06h-3.81c-2.51,0-4.02.93-4.02,2.82s1.58,2.82,4.1,2.82h3.73v-5.63Z"/>
        <path class="cls-3" d="M64.5,146.77v10.23h-11.3v-2.19h7.7v-1.9h-7.14v-1.95h7.14v-1.97h-7.67v-2.21h11.27Z"/>
        <path class="cls-3" d="M41.98,151.98c-.1,1.29,1.76,1.85,2.84,2.13.89.22,2.58.48,2.75-.35.36-1.82-9.22-2.19-8.14-6.62.66-2.69,4.83-1.77,6.82-1.28,2.89.71,6.35,2.14,5.82,5.31l-3.45-.84c.2-1.24-1.59-2-2.77-2.29-.96-.24-2.84-.64-2.98.28-.25,1.62,9.16,2.62,8.14,6.4-.62,2.35-3.4,2.33-6.9,1.48-3.05-.75-6.14-2.18-5.59-5.06l3.45.84Z"/>
        <path class="cls-3" d="M31.7,139.56l4.26,3.9,2.08-.85,2.78,2.54-10.71,4.07-3.76-3.44,3.24-10.9,2.79,2.55-.69,2.13ZM31.05,141.44l-1.5,4.72,4.61-1.88-3.11-2.84Z"/>
        <path class="cls-3" d="M25.09,128.41c-.41.41-.61.73-.24,1.95l.66,2.11,3.37-1.06,1.08,3.43-9.77,3.08-2.21-7.02c-.9-2.87-.68-5.35,1.64-6.08,1.5-.47,2.69.5,3.41,2.36-.15-.99.13-1.72.71-2.29l2.35-2.35,1.15,3.66-2.16,2.21ZM22.86,130.29c-.52-1.65-1.17-2.38-2.07-2.08-.8.27-.79,1.12-.34,2.55l.95,3.01,2.32-.73-.87-2.75Z"/>
        <path class="cls-3" d="M24.17,114.15c-.51.27-.8.51-.82,1.79v2.21h3.54v3.6h-10.24v-7.36c0-3.01.96-5.31,3.39-5.31,1.57,0,2.42,1.28,2.54,3.28.16-.99.64-1.6,1.36-1.97l2.95-1.54v3.84l-2.72,1.46ZM21.48,115.27c0-1.73-.4-2.62-1.34-2.61-.85.02-1.09.83-1.09,2.34v3.15h2.43v-2.88Z"/>
        <path class="cls-3" d="M16.47,100.19c0-4.53,1.46-8.29,5.3-8.29s5.28,3.76,5.28,8.28-1.54,8.34-5.28,8.34-5.3-3.84-5.3-8.32ZM21.77,95.5c-2.16,0-2.87,2.02-2.87,4.69s.7,4.72,2.87,4.72,2.83-2.07,2.83-4.74-.75-4.67-2.83-4.67Z"/>
        <path class="cls-3" d="M26.89,90.68h-10.24v-3.6h7.72v-7.4h2.53v11Z"/>
        <path class="cls-3" d="M26.89,78.4h-10.24v-3.6h7.72v-7.4h2.53v11Z"/>
        <path class="cls-3" d="M16.47,58.93c0-4.53,1.46-8.29,5.3-8.29s5.28,3.76,5.28,8.28-1.54,8.34-5.28,8.34-5.3-3.84-5.3-8.32ZM21.77,54.24c-2.16,0-2.87,2.02-2.87,4.69s.7,4.72,2.87,4.72,2.83-2.07,2.83-4.74-.75-4.67-2.83-4.67Z"/>
      </g>
      <g id="_10" data-name="10">
        <path class="cls-4" d="M303.99,50.81c-3.87,0-7.71.66-11.34,1.92-4.15-1.67-8.6-2.54-13.11-2.54-4.18,0-8.33.75-12.23,2.2-7.8-2.9-16.65-2.9-24.45,0-7.8-2.9-16.65-2.9-24.45,0-7.8-2.9-16.65-2.9-24.45,0-7.8-2.9-16.65-2.9-24.45,0-7.8-2.9-16.65-2.9-24.45,0-7.8-2.9-16.65-2.9-24.45,0-7.8-2.9-16.65-2.9-24.45,0-3.9-1.45-8.05-2.2-12.23-2.2-19.36,0-35.11,15.75-35.11,35.11s15.75,35.11,35.11,35.11c4.18,0,8.33-.75,12.23-2.2,7.8,2.9,16.65,2.9,24.45,0,7.8,2.9,16.65,2.9,24.45,0,7.8,2.9,16.65,2.9,24.45,0,7.8,2.9,16.65,2.9,24.45,0,7.8,2.9,16.65,2.9,24.45,0,7.8,2.9,16.65,2.9,24.45,0,7.8,2.9,16.65,2.9,24.45,0,3.9,1.45,8.05,2.2,12.23,2.2,4.51,0,8.96-.87,13.11-2.54,3.63,1.26,7.48,1.92,11.34,1.92,19.02,0,34.49-15.47,34.49-34.49s-15.47-34.49-34.49-34.49Z"/>
        <g id="_44" data-name="44">
          <path class="cls-2" d="M305.1,60.6c-4.24,0-8.23,1.07-11.72,2.95-3.8-2.28-8.24-3.59-12.98-3.59-4.48,0-8.69,1.17-12.35,3.23-3.66-2.05-7.87-3.23-12.35-3.23s-8.69,1.17-12.35,3.23c-3.66-2.05-7.87-3.23-12.35-3.23s-8.69,1.17-12.35,3.23c-3.66-2.05-7.87-3.23-12.35-3.23s-8.69,1.17-12.35,3.23c-3.66-2.05-7.87-3.23-12.35-3.23s-8.69,1.17-12.35,3.23c-3.66-2.05-7.87-3.23-12.35-3.23s-8.69,1.17-12.35,3.23c-3.66-2.05-7.87-3.23-12.35-3.23s-8.69,1.17-12.35,3.23c-3.66-2.05-7.87-3.23-12.35-3.23s-8.69,1.17-12.35,3.23c-3.66-2.05-7.87-3.23-12.35-3.23-13.97,0-25.33,11.36-25.33,25.33s11.36,25.33,25.33,25.33c4.48,0,8.69-1.17,12.35-3.23,3.66,2.05,7.87,3.23,12.35,3.23s8.69-1.17,12.35-3.23c3.66,2.05,7.87,3.23,12.35,3.23s8.69-1.17,12.35-3.23c3.66,2.05,7.87,3.23,12.35,3.23s8.69-1.17,12.35-3.23c3.66,2.05,7.87,3.23,12.35,3.23s8.69-1.17,12.35-3.23c3.66,2.05,7.87,3.23,12.35,3.23s8.69-1.17,12.35-3.23c3.66,2.05,7.87,3.23,12.35,3.23s8.69-1.17,12.35-3.23c3.66,2.05,7.87,3.23,12.35,3.23s8.69-1.17,12.35-3.23c3.66,2.05,7.87,3.23,12.35,3.23,4.74,0,9.18-1.31,12.98-3.59,3.49,1.88,7.48,2.95,11.72,2.95,13.64,0,24.7-11.06,24.7-24.7s-11.06-24.7-24.7-24.7ZM280.4,61.23c4.25,0,8.25,1.11,11.72,3.06-5.96,3.69-10.23,9.85-11.39,17.04-1.15-7.29-5.43-13.56-11.41-17.38,3.32-1.73,7.09-2.72,11.09-2.72ZM279.76,85.3c0,8.76-4.7,16.43-11.72,20.64-7.01-4.21-11.72-11.89-11.72-20.64s4.7-16.43,11.72-20.64c7.01,4.21,11.72,11.89,11.72,20.64ZM255.7,61.23c4,0,7.77.99,11.09,2.72-5.53,3.54-9.59,9.15-11.09,15.74-1.5-6.59-5.56-12.2-11.09-15.74,3.32-1.73,7.09-2.72,11.09-2.72ZM255.07,85.3c0,8.76-4.7,16.43-11.72,20.64-7.01-4.21-11.72-11.89-11.72-20.64s4.7-16.43,11.72-20.64c7.01,4.21,11.72,11.89,11.72,20.64ZM231,61.23c4,0,7.77.99,11.09,2.72-5.53,3.54-9.59,9.15-11.09,15.74-1.5-6.59-5.56-12.2-11.09-15.74,3.32-1.73,7.09-2.72,11.09-2.72ZM230.37,85.3c0,8.76-4.7,16.43-11.72,20.64-7.01-4.21-11.72-11.89-11.72-20.64s4.7-16.43,11.72-20.64c7.01,4.21,11.72,11.89,11.72,20.64ZM206.3,61.23c4,0,7.77.99,11.09,2.72-5.53,3.54-9.59,9.15-11.09,15.74-1.5-6.59-5.56-12.2-11.09-15.74,3.32-1.73,7.09-2.72,11.09-2.72ZM205.67,85.3c0,8.76-4.7,16.43-11.72,20.64-7.01-4.21-11.72-11.89-11.72-20.64s4.7-16.43,11.72-20.64c7.01,4.21,11.72,11.89,11.72,20.64ZM181.61,61.23c4,0,7.77.99,11.09,2.72-5.53,3.54-9.59,9.15-11.09,15.74-1.5-6.59-5.56-12.2-11.09-15.74,3.32-1.73,7.09-2.72,11.09-2.72ZM180.97,85.3c0,8.76-4.7,16.43-11.72,20.64-7.01-4.21-11.72-11.89-11.72-20.64s4.7-16.43,11.72-20.64c7.01,4.21,11.72,11.89,11.72,20.64ZM156.91,61.23c4,0,7.77.99,11.09,2.72-5.53,3.54-9.59,9.15-11.09,15.74-1.5-6.59-5.56-12.2-11.09-15.74,3.32-1.73,7.09-2.72,11.09-2.72ZM156.28,85.3c0,8.76-4.7,16.43-11.72,20.64-7.01-4.21-11.72-11.89-11.72-20.64s4.7-16.43,11.72-20.64c7.01,4.21,11.72,11.89,11.72,20.64ZM132.21,61.23c4,0,7.77.99,11.09,2.72-5.53,3.54-9.59,9.15-11.09,15.74-1.5-6.59-5.56-12.2-11.09-15.74,3.32-1.73,7.09-2.72,11.09-2.72ZM131.58,85.3c0,8.76-4.7,16.43-11.72,20.64-7.01-4.21-11.72-11.89-11.72-20.64s4.7-16.43,11.72-20.64c7.01,4.21,11.72,11.89,11.72,20.64ZM107.51,61.23c4,0,7.77.99,11.09,2.72-5.53,3.54-9.59,9.15-11.09,15.74-1.5-6.59-5.56-12.2-11.09-15.74,3.32-1.73,7.09-2.72,11.09-2.72ZM106.88,85.3c0,8.76-4.7,16.43-11.72,20.64-7.01-4.21-11.72-11.89-11.72-20.64s4.7-16.43,11.72-20.64c7.01,4.21,11.72,11.89,11.72,20.64ZM82.82,109.36c-13.27,0-24.06-10.8-24.06-24.06s10.8-24.06,24.06-24.06c4,0,7.77.99,11.09,2.72-7.04,4.5-11.72,12.39-11.72,21.35s4.68,16.84,11.72,21.35c-3.32,1.73-7.09,2.72-11.09,2.72ZM107.51,109.36c-4,0-7.77-.99-11.09-2.72,5.53-3.54,9.59-9.15,11.09-15.74,1.5,6.59,5.56,12.2,11.09,15.74-3.32,1.73-7.09,2.72-11.09,2.72ZM132.21,109.36c-4,0-7.77-.99-11.09-2.72,5.53-3.54,9.59-9.15,11.09-15.74,1.5,6.59,5.56,12.2,11.09,15.74-3.32,1.73-7.09,2.72-11.09,2.72ZM156.91,109.36c-4,0-7.77-.99-11.09-2.72,5.53-3.54,9.59-9.15,11.09-15.74,1.5,6.59,5.56,12.2,11.09,15.74-3.32,1.73-7.09,2.72-11.09,2.72ZM181.61,109.36c-4,0-7.77-.99-11.09-2.72,5.53-3.54,9.59-9.15,11.09-15.74,1.5,6.59,5.56,12.2,11.09,15.74-3.32,1.73-7.09,2.72-11.09,2.72ZM206.3,109.36c-4,0-7.77-.99-11.09-2.72,5.53-3.54,9.59-9.15,11.09-15.74,1.5,6.59,5.56,12.2,11.09,15.74-3.32,1.73-7.09,2.72-11.09,2.72ZM231,109.36c-4,0-7.77-.99-11.09-2.72,5.53-3.54,9.59-9.15,11.09-15.74,1.5,6.59,5.56,12.2,11.09,15.74-3.32,1.73-7.09,2.72-11.09,2.72ZM255.7,109.36c-4,0-7.77-.99-11.09-2.72,5.53-3.54,9.59-9.15,11.09-15.74,1.5,6.59,5.56,12.2,11.09,15.74-3.32,1.73-7.09,2.72-11.09,2.72ZM280.4,109.36c-4,0-7.77-.99-11.09-2.72,5.98-3.83,10.26-10.09,11.41-17.38,1.16,7.2,5.43,13.35,11.39,17.04-3.47,1.94-7.46,3.06-11.72,3.06Z"/>
        </g>
      </g>
      <g id="_56" data-name="56">
        <path class="cls-3" d="M365.27,124.68c0,13.23-4.41,17.64-17.64,17.64,13.23,0,17.64,4.41,17.64,17.64,0-13.23,4.41-17.64,17.64-17.64-13.23,0-17.64-4.41-17.64-17.64Z"/>
      </g>
      <g id="_56-2" data-name="56">
        <path class="cls-3" d="M26.89,8.59c0,13.23-4.41,17.64-17.64,17.64,13.23,0,17.64,4.41,17.64,17.64,0-13.23,4.41-17.64,17.64-17.64-13.23,0-17.64-4.41-17.64-17.64Z"/>
      </g>
    </g>
  </g>
</svg>