<svg width="350" height="240" viewBox="0 0 350 240" fill="none" xmlns="http://www.w3.org/2000/svg">
<g clip-path="url(#clip0_256_2304)">
<rect width="350" height="240" rx="25" fill="#131217"/>
<path d="M43.392 55.088C40.128 55.088 38.544 53.792 37.44 49.376H36.96L38.64 56.336V68H30.96V34.4H39.936C46.416 34.4 48.912 36.656 48.912 44.288V45.248C48.912 52.4 47.376 55.088 43.392 55.088ZM38.64 41.264V45.2C38.64 47.84 39.264 48.224 40.224 48.224C41.28 48.224 41.712 47.504 41.712 45.248V44.288C41.712 41.888 41.232 41.264 39.936 41.264H38.64ZM64.0999 61.136V68H50.1319V34.4H57.8119V61.136H64.0999ZM64.941 59.312V34.4H72.141V57.392C72.141 60.8 72.621 61.616 73.917 61.616C75.213 61.616 75.693 60.8 75.693 57.392V34.4H82.893V59.312C82.893 65.312 80.397 68.48 73.917 68.48C67.389 68.48 64.941 65.312 64.941 59.312ZM102.391 48.08L102.343 68H95.4788L96.5348 62.144H96.0547C95.1428 67.088 93.2228 68.48 90.2468 68.48C86.1188 68.48 84.4388 65.12 84.4388 58.688V43.088C84.4388 37.088 86.8867 33.92 93.4148 33.92C99.8948 33.92 102.343 37.088 102.343 43.088V46.592H95.1908V45.008C95.1908 41.6 94.7108 40.784 93.4148 40.784C92.1188 40.784 91.6388 41.6 91.6388 45.008V48.08H102.391ZM91.6388 54.32V56.768C91.6388 60.656 92.0228 61.616 93.2228 61.616C94.0388 61.616 94.7108 60.704 94.7108 56.528V54.32H91.6388ZM104.227 68V34.4H111.859V68H104.227ZM122.475 34.4L125.067 53.312H125.547L125.067 34.4H131.739V68H123.147L120.555 48.848H120.075L120.555 68H113.835V34.4H122.475ZM140.478 58.016C140.478 60.416 141.006 61.616 142.11 61.616C143.166 61.616 143.742 60.704 143.742 58.304V57.824C143.742 54.512 141.534 53.312 138.942 51.632C136.11 49.76 133.278 47.744 133.278 42.608V42.128C133.278 37.472 135.726 33.92 142.254 33.92C148.734 33.92 151.23 37.088 151.23 43.088V46.592H144.03V45.008C144.03 41.6 143.358 40.784 142.062 40.784C141.15 40.784 140.718 41.456 140.718 42.56V43.04C140.718 45.296 143.118 46.832 145.662 48.56C148.59 50.576 151.23 52.544 151.23 58.208V59.168C151.23 65.168 148.734 68.48 142.254 68.48C135.726 68.48 133.278 65.168 133.278 59.168V57.056C133.278 54.56 133.614 53.936 133.614 53.936H140.814C140.814 53.936 140.478 55.04 140.478 58.016ZM174.689 55.088C171.425 55.088 169.841 53.792 168.737 49.376H168.257L169.937 56.336V68H162.257V34.4H171.233C177.713 34.4 180.209 36.656 180.209 44.288V45.248C180.209 52.4 178.673 55.088 174.689 55.088ZM169.937 41.264V45.2C169.937 47.84 170.561 48.224 171.521 48.224C172.577 48.224 173.009 47.504 173.009 45.248V44.288C173.009 41.888 172.529 41.264 171.233 41.264H169.937ZM189.923 68L189.443 60.56H186.755L186.227 68H178.547L183.395 34.4H192.803L197.651 68H189.923ZM187.187 54.32H189.011L188.339 44.048H187.859L187.187 54.32ZM216.728 57.92V61.424C216.728 66.368 217.064 68 217.064 68H209.384C209.384 68 209.048 67.328 209.048 64.88V57.728C209.048 53.888 208.136 53.072 206.552 53.072H206.312V68H198.632V34.4H208.088C214.376 34.4 216.824 36.032 216.824 41.696C216.824 47.216 215.096 49.376 209.624 49.376V49.856C214.808 49.856 216.728 51.488 216.728 57.92ZM206.312 46.208H208.088C209.384 46.208 209.864 45.488 209.864 43.712C209.864 42.128 209.384 41.264 208.088 41.264H206.312V46.208ZM228.923 68L228.443 60.56H225.755L225.227 68H217.547L222.395 34.4H231.803L236.651 68H228.923ZM226.187 54.32H228.011L227.339 44.048H226.859L226.187 54.32Z" fill="#6976DF"/>
<path d="M45.648 116L43.92 97.328H43.392L41.616 116H32.64L30.24 82.4H38.4L38.88 101.696H39.36L40.8 82.4H46.512L47.952 101.696H48.432L48.912 82.4H57.024L54.624 116H45.648ZM66.7898 81.92C73.2698 81.92 75.7658 85.088 75.7658 91.088V107.312C75.7658 113.312 73.2698 116.48 66.7898 116.48C60.2617 116.48 57.8138 113.312 57.8138 107.312V91.088C57.8138 85.088 60.2617 81.92 66.7898 81.92ZM68.3258 105.392V93.008C68.3258 89.6 67.7978 88.784 66.7898 88.784C65.7338 88.784 65.2538 89.6 65.2538 93.008V105.392C65.2538 108.8 65.7338 109.616 66.7898 109.616C67.7978 109.616 68.3258 108.8 68.3258 105.392ZM95.556 105.92V109.424C95.556 114.368 95.892 116 95.892 116H88.212C88.212 116 87.876 115.328 87.876 112.88V105.728C87.876 101.888 86.964 101.072 85.38 101.072H85.14V116H77.46V82.4H86.916C93.204 82.4 95.652 84.032 95.652 89.696C95.652 95.216 93.924 97.376 88.452 97.376V97.856C93.636 97.856 95.556 99.488 95.556 105.92ZM85.14 94.208H86.916C88.212 94.208 88.692 93.488 88.692 91.712C88.692 90.128 88.212 89.264 86.916 89.264H85.14V94.208ZM115.287 91.568V106.688C115.287 113.6 113.895 116.48 109.767 116.48C106.887 116.48 104.775 115.088 103.815 110.624H103.335L104.199 116H97.335V82.4H106.311C112.791 82.4 115.287 85.088 115.287 91.568ZM108.087 104.768V93.968C108.087 90.08 107.607 89.264 106.311 89.264H105.015V104.528C105.015 108.704 105.639 109.616 106.503 109.616C107.655 109.616 108.087 108.656 108.087 104.768ZM129.408 103.088C126.144 103.088 124.56 101.792 123.456 97.376H122.976L124.656 104.336V116H116.976V82.4H125.952C132.432 82.4 134.928 84.656 134.928 92.288V93.248C134.928 100.4 133.392 103.088 129.408 103.088ZM124.656 89.264V93.2C124.656 95.84 125.28 96.224 126.24 96.224C127.296 96.224 127.728 95.504 127.728 93.248V92.288C127.728 89.888 127.248 89.264 125.952 89.264H124.656ZM154.244 105.92V109.424C154.244 114.368 154.58 116 154.58 116H146.9C146.9 116 146.564 115.328 146.564 112.88V105.728C146.564 101.888 145.652 101.072 144.068 101.072H143.828V116H136.148V82.4H145.604C151.892 82.4 154.34 84.032 154.34 89.696C154.34 95.216 152.612 97.376 147.14 97.376V97.856C152.324 97.856 154.244 99.488 154.244 105.92ZM143.828 94.208H145.604C146.9 94.208 147.38 93.488 147.38 91.712C147.38 90.128 146.9 89.264 145.604 89.264H143.828V94.208ZM169.991 82.4V89.264H163.703V95.744H169.271V101.984H163.703V109.136H169.991V116H156.023V82.4H169.991ZM178.353 106.016C178.353 108.416 178.881 109.616 179.985 109.616C181.041 109.616 181.617 108.704 181.617 106.304V105.824C181.617 102.512 179.409 101.312 176.817 99.632C173.985 97.76 171.153 95.744 171.153 90.608V90.128C171.153 85.472 173.601 81.92 180.129 81.92C186.609 81.92 189.105 85.088 189.105 91.088V94.592H181.905V93.008C181.905 89.6 181.233 88.784 179.937 88.784C179.025 88.784 178.593 89.456 178.593 90.56V91.04C178.593 93.296 180.993 94.832 183.537 96.56C186.465 98.576 189.105 100.544 189.105 106.208V107.168C189.105 113.168 186.609 116.48 180.129 116.48C173.601 116.48 171.153 113.168 171.153 107.168V105.056C171.153 102.56 171.489 101.936 171.489 101.936H178.689C178.689 101.936 178.353 103.04 178.353 106.016ZM197.291 106.016C197.291 108.416 197.819 109.616 198.923 109.616C199.979 109.616 200.555 108.704 200.555 106.304V105.824C200.555 102.512 198.347 101.312 195.755 99.632C192.923 97.76 190.091 95.744 190.091 90.608V90.128C190.091 85.472 192.539 81.92 199.067 81.92C205.547 81.92 208.043 85.088 208.043 91.088V94.592H200.843V93.008C200.843 89.6 200.171 88.784 198.875 88.784C197.963 88.784 197.531 89.456 197.531 90.56V91.04C197.531 93.296 199.931 94.832 202.475 96.56C205.403 98.576 208.043 100.544 208.043 106.208V107.168C208.043 113.168 205.547 116.48 199.067 116.48C192.539 116.48 190.091 113.168 190.091 107.168V105.056C190.091 102.56 190.427 101.936 190.427 101.936H197.627C197.627 101.936 197.291 103.04 197.291 106.016Z" fill="#EFA6F5"/>
<rect x="26" y="144" width="152" height="30" fill="#BBC5F7"/>
<path d="M37.525 166V148.5H41.5V166H37.525ZM51.0543 154.375L50.8043 156.225H51.0543C51.4293 153.4 52.6043 152.75 53.9543 152.75C56.1043 152.75 56.6293 154.425 56.6293 157.775V166H52.8793V158.775C52.8793 156.75 52.5793 156.325 52.2043 156.325C51.8293 156.325 51.4293 156.725 51.4293 158.9V166H47.6793V158.775C47.6793 156.75 47.3793 156.325 46.9793 156.325C46.6043 156.325 46.2043 156.725 46.2043 158.9V166H42.4543V153H46.0293L45.5793 156.225H45.8293C46.2043 153.4 47.3793 152.75 48.7293 152.75C49.9543 152.75 50.7043 153.275 51.0543 154.375ZM61.1695 170.5H57.4445V153H61.1695L60.7195 156.3H60.9695C61.3445 153.475 62.3195 152.75 63.8195 152.75C65.9695 152.75 66.9445 154.175 66.9445 157.775V161.225C66.9445 164.825 65.9695 166.25 63.8195 166.25C62.3195 166.25 61.3445 165.35 60.9695 162.775H60.7195L61.1695 166V170.5ZM63.1945 158.775C63.1945 156.75 63.0195 156.325 62.3945 156.325C61.9445 156.325 61.5945 156.725 61.5945 158.9V160.1C61.5945 162.275 61.9445 162.675 62.3945 162.675C63.0195 162.675 63.1945 162.25 63.1945 160.225V158.775ZM76.3502 159.775H72.7252V157.825C72.7252 156.675 72.5502 156.325 72.1002 156.325C71.6002 156.325 71.3752 156.725 71.3752 158.9V166H67.6252V153H71.2002L70.7502 156.225H71.0002C71.3752 153.65 72.1752 152.75 73.7502 152.75C75.7502 152.75 76.3502 154.4 76.3502 157.525V159.775ZM81.0775 162.925C81.6525 162.925 81.9275 162.55 81.9275 161.85C81.9275 161 81.7525 160.4 81.7525 160.4H85.1275C85.1275 160.4 85.3025 160.925 85.3025 161.8V162.175C85.3025 164.875 83.9025 166.25 81.1525 166.25C78.1275 166.25 76.7275 164.6 76.7275 161.475V157.525C76.7275 154.4 78.0025 152.75 81.0275 152.75C84.0525 152.75 85.3275 154.4 85.3275 157.525V159.775H80.1025V160.725C80.1025 162.5 80.4025 162.925 81.0775 162.925ZM81.0525 156.075C80.5025 156.075 80.1525 156.425 80.1025 158L81.9525 158.025C81.9525 156.45 81.6025 156.075 81.0525 156.075ZM85.859 162.2C85.859 161.025 86.034 160.15 86.034 160.15H89.134C89.134 160.15 88.984 160.85 88.984 161.725C88.984 162.4 89.259 162.925 89.984 162.925C90.534 162.925 90.934 162.625 90.934 161.875C90.959 160.9 90.259 160.45 88.984 159.75C87.609 158.975 85.859 158.275 85.859 156.225C85.859 154.3 87.034 152.75 89.859 152.75C92.684 152.75 94.059 154.125 94.059 157.525H90.934C90.934 156.45 90.609 156.075 90.034 156.075C89.509 156.075 89.284 156.35 89.284 156.675C89.284 157.325 90.084 157.55 91.184 158.15C92.959 159.1 94.059 159.975 94.059 162.175V162.425C94.059 164.95 92.584 166.25 90.159 166.25C87.534 166.25 85.859 165.1 85.859 162.2ZM103.174 160.95V161.475C103.174 164.6 101.999 166.25 98.9992 166.25C95.9742 166.25 94.5742 164.6 94.5742 161.475V157.525C94.5742 154.4 95.8492 152.75 98.8742 152.75C101.874 152.75 103.174 154.4 103.174 157.525V158.025H99.7992C99.7992 156.425 99.4242 156.075 98.8992 156.075C98.2992 156.075 97.9492 156.45 97.9492 158.275V160.725C97.9492 162.525 98.2742 162.925 98.8742 162.925C99.4742 162.925 99.7992 162.4 99.7992 161.425C99.7992 160.225 99.6242 159.4 99.6242 159.4H102.999C102.999 159.4 103.174 159.95 103.174 160.95ZM105.731 148.25C107.056 148.25 107.656 149.125 107.656 150.15V150.375C107.656 151.375 107.056 152.275 105.731 152.275C104.406 152.275 103.806 151.375 103.806 150.375V150.15C103.806 149.125 104.406 148.25 105.731 148.25ZM107.606 153V166H103.856V153H107.606ZM117.546 166H113.796V158.775C113.796 156.75 113.571 156.325 113.046 156.325C112.546 156.325 112.196 156.725 112.196 158.9V166H108.446V153H112.021L111.571 156.225H111.821C112.196 153.4 113.321 152.75 114.796 152.75C117.071 152.75 117.546 154.425 117.546 157.775V166ZM123.933 148.5H127.683V166H123.933L124.408 162.7H124.133C123.783 165.525 122.808 166.25 121.308 166.25C119.133 166.25 118.183 164.825 118.183 161.225V157.775C118.183 154.175 119.133 152.75 121.283 152.75C122.808 152.75 123.758 153.65 124.133 156.225H124.383L123.933 153V148.5ZM121.933 160.225C121.933 162.25 122.108 162.675 122.733 162.675C123.183 162.675 123.533 162.275 123.533 160.1V158.9C123.533 156.725 123.183 156.325 122.733 156.325C122.108 156.325 121.933 156.75 121.933 158.775V160.225ZM130.413 148.25C131.738 148.25 132.338 149.125 132.338 150.15V150.375C132.338 151.375 131.738 152.275 130.413 152.275C129.088 152.275 128.488 151.375 128.488 150.375V150.15C128.488 149.125 129.088 148.25 130.413 148.25ZM132.288 153V166H128.538V153H132.288ZM136.853 148.5V153L136.403 156.225H136.653C137.028 153.65 138.003 152.75 139.503 152.75C141.653 152.75 142.628 154.175 142.628 157.775V161.225C142.628 164.825 141.653 166.25 139.503 166.25C138.003 166.25 137.028 165.525 136.653 162.7H136.403L136.853 166H133.128V148.5H136.853ZM138.878 160.225V158.775C138.878 156.75 138.703 156.325 138.078 156.325C137.628 156.325 137.278 156.725 137.278 158.9V160.1C137.278 162.275 137.628 162.675 138.078 162.675C138.703 162.675 138.878 162.25 138.878 160.225ZM146.934 148.5V166H143.309V148.5H146.934ZM151.952 162.925C152.527 162.925 152.802 162.55 152.802 161.85C152.802 161 152.627 160.4 152.627 160.4H156.002C156.002 160.4 156.177 160.925 156.177 161.8V162.175C156.177 164.875 154.777 166.25 152.027 166.25C149.002 166.25 147.602 164.6 147.602 161.475V157.525C147.602 154.4 148.877 152.75 151.902 152.75C154.927 152.75 156.202 154.4 156.202 157.525V159.775H150.977V160.725C150.977 162.5 151.277 162.925 151.952 162.925ZM151.927 156.075C151.377 156.075 151.027 156.425 150.977 158L152.827 158.025C152.827 156.45 152.477 156.075 151.927 156.075ZM156.733 162.2C156.733 161.025 156.908 160.15 156.908 160.15H160.008C160.008 160.15 159.858 160.85 159.858 161.725C159.858 162.4 160.133 162.925 160.858 162.925C161.408 162.925 161.808 162.625 161.808 161.875C161.833 160.9 161.133 160.45 159.858 159.75C158.483 158.975 156.733 158.275 156.733 156.225C156.733 154.3 157.908 152.75 160.733 152.75C163.558 152.75 164.933 154.125 164.933 157.525H161.808C161.808 156.45 161.483 156.075 160.908 156.075C160.383 156.075 160.158 156.35 160.158 156.675C160.158 157.325 160.958 157.55 162.058 158.15C163.833 159.1 164.933 159.975 164.933 162.175V162.425C164.933 164.95 163.458 166.25 161.033 166.25C158.408 166.25 156.733 165.1 156.733 162.2Z" fill="#6976DF"/>
<g clip-path="url(#clip1_256_2304)">
<g opacity="0.4">
<path d="M255.081 226.959C290.471 226.959 319.161 197.534 319.161 161.236C319.161 124.939 290.471 95.5137 255.081 95.5137C219.69 95.5137 191 124.939 191 161.236C191 197.534 219.69 226.959 255.081 226.959Z" fill="#BBC5F7"/>
</g>
<path d="M316.536 119.305L207.684 119.629C202.564 119.644 198.426 123.813 198.442 128.941L198.642 196.691C198.657 201.818 202.82 205.963 207.94 205.948L316.791 205.624C321.911 205.609 326.049 201.44 326.034 196.312L325.833 128.562C325.818 123.435 321.655 119.29 316.536 119.305Z" fill="#1F2A24"/>
<path d="M325.839 130.427L198.812 130.805L198.999 194.176L326.027 193.798L325.839 130.427Z" fill="#1F2A24"/>
<path d="M273.297 203.849L246.498 203.93L248.684 214.269C249.008 215.85 248.522 217.512 247.308 218.526C245.932 219.702 244.312 221.445 244.312 223.432L270.139 223.351C273.418 223.351 276.049 220.512 276.049 217.026L273.297 203.849Z" fill="#1F2A24"/>
<path d="M260.91 202.47C262.542 202.47 263.865 201.145 263.865 199.511C263.865 197.876 262.542 196.551 260.91 196.551C259.278 196.551 257.955 197.876 257.955 199.511C257.955 201.145 259.278 202.47 260.91 202.47Z" fill="#1F2A24"/>
<path d="M211.24 127.382C212.291 127.382 213.143 126.528 213.143 125.476C213.143 124.423 212.291 123.57 211.24 123.57C210.19 123.57 209.338 124.423 209.338 125.476C209.338 126.528 210.19 127.382 211.24 127.382Z" fill="#1F2A24"/>
<path d="M218.608 127.382C219.658 127.382 220.51 126.528 220.51 125.476C220.51 124.423 219.658 123.57 218.608 123.57C217.557 123.57 216.705 124.423 216.705 125.476C216.705 126.528 217.557 127.382 218.608 127.382Z" fill="#1F2A24"/>
<path d="M225.935 127.382C226.986 127.382 227.837 126.528 227.837 125.476C227.837 124.423 226.986 123.57 225.935 123.57C224.884 123.57 224.032 124.423 224.032 125.476C224.032 126.528 224.884 127.382 225.935 127.382Z" fill="#1F2A24"/>
<path d="M320.94 116.535L212.088 116.858C206.969 116.873 202.831 121.043 202.846 126.17L203.047 193.92C203.062 199.048 207.224 203.192 212.344 203.177L321.196 202.854C326.315 202.838 330.453 198.669 330.438 193.541L330.238 125.792C330.222 120.664 326.06 116.519 320.94 116.535Z" fill="white"/>
<path d="M212.333 204.213C206.666 204.213 202.051 199.591 202.051 193.915L201.849 126.165C201.849 123.408 202.901 120.813 204.844 118.867C206.787 116.921 209.378 115.826 212.131 115.826L320.983 115.502C323.736 115.502 326.286 116.556 328.229 118.502C330.172 120.448 331.265 123.043 331.265 125.8L331.467 193.55C331.467 199.226 326.893 203.889 321.185 203.889L212.333 204.213ZM320.983 117.57L212.131 117.894C209.904 117.894 207.84 118.786 206.301 120.327C204.763 121.908 203.873 123.976 203.913 126.206L204.116 193.956C204.116 198.497 207.84 202.227 212.374 202.227L321.226 201.902C325.8 201.902 329.484 198.172 329.484 193.591L329.281 125.841C329.281 123.611 328.431 121.543 326.853 120.002C325.314 118.462 323.209 117.61 321.023 117.61L320.983 117.57Z" fill="#BBC5F7"/>
<path d="M330.243 127.697L203.216 128.074L203.404 191.445L330.431 191.068L330.243 127.697Z" fill="white"/>
<path d="M203.387 192.496C203.103 192.496 202.861 192.374 202.658 192.212C202.456 192.009 202.375 191.766 202.375 191.482L202.213 128.111C202.213 127.543 202.658 127.097 203.225 127.097L330.253 126.732C330.536 126.732 330.779 126.854 330.982 127.016C331.184 127.219 331.265 127.462 331.265 127.746L331.427 191.117C331.427 191.685 330.981 192.131 330.415 192.131L203.387 192.496ZM204.237 129.084L204.399 190.428L329.403 190.063L329.241 128.719L204.237 129.084Z" fill="#BBC5F7"/>
<path d="M277.709 203.849L250.911 203.93L253.097 214.269C253.42 215.85 252.935 217.512 251.72 218.526C250.344 219.702 248.725 221.445 248.725 223.432L274.551 223.351C277.83 223.351 280.461 220.512 280.461 217.026L277.709 203.849Z" fill="white"/>
<path d="M248.725 224.405C248.442 224.405 248.199 224.283 247.996 224.121C247.794 223.918 247.713 223.675 247.713 223.391C247.713 221.526 248.846 219.539 251.073 217.715C251.963 216.985 252.368 215.688 252.085 214.471L249.899 204.132C249.858 203.849 249.899 203.524 250.101 203.281C250.304 203.038 250.587 202.916 250.87 202.916L277.668 202.835C278.154 202.835 278.559 203.159 278.681 203.646L281.433 216.823C281.433 219.053 280.705 220.918 279.328 222.337C278.033 223.634 276.333 224.364 274.551 224.364L248.725 224.445V224.405ZM252.166 204.943L254.068 214.066C254.473 216.012 253.825 218.08 252.368 219.296C251.437 220.066 250.344 221.202 249.939 222.418L274.592 222.337C275.847 222.337 277.021 221.81 277.952 220.918C278.964 219.904 279.49 218.526 279.49 217.066L276.94 204.903L252.206 204.984L252.166 204.943Z" fill="#BBC5F7"/>
<path d="M258.603 214.634C258.036 214.634 257.591 214.188 257.591 213.62C257.591 213.052 258.036 212.606 258.603 212.606H272.204C272.771 212.606 273.216 213.012 273.216 213.58C273.216 214.147 272.771 214.593 272.204 214.593H258.603V214.634Z" fill="#BBC5F7"/>
<path d="M265.322 199.753C266.954 199.753 268.277 198.428 268.277 196.794C268.277 195.159 266.954 193.834 265.322 193.834C263.69 193.834 262.367 195.159 262.367 196.794C262.367 198.428 263.69 199.753 265.322 199.753Z" fill="#6976DF"/>
<path d="M215.653 124.665C216.703 124.665 217.555 123.812 217.555 122.759C217.555 121.707 216.703 120.854 215.653 120.854C214.602 120.854 213.75 121.707 213.75 122.759C213.75 123.812 214.602 124.665 215.653 124.665Z" fill="#6976DF"/>
<path d="M223.02 124.665C224.071 124.665 224.922 123.812 224.922 122.759C224.922 121.707 224.071 120.854 223.02 120.854C221.969 120.854 221.117 121.707 221.117 122.759C221.117 123.812 221.969 124.665 223.02 124.665Z" fill="#6976DF"/>
<path d="M230.347 124.665C231.398 124.665 232.25 123.812 232.25 122.759C232.25 121.707 231.398 120.854 230.347 120.854C229.296 120.854 228.444 121.707 228.444 122.759C228.444 123.812 229.296 124.665 230.347 124.665Z" fill="#6976DF"/>
<path d="M217.434 152.965C217.434 152.965 217.272 152.884 217.231 152.803C217.231 152.681 217.272 152.6 217.393 152.559L250.79 146.234L289.692 147.532C289.692 147.532 289.894 147.613 289.894 147.735C289.894 147.856 289.813 147.937 289.692 147.937L250.83 146.64L217.474 152.965H217.434Z" fill="#1F2A24"/>
<path d="M292.317 150.092L210.647 156.659C207.305 156.928 204.812 159.86 205.081 163.208L206.493 180.828C206.761 184.176 209.689 186.673 213.032 186.404L294.701 179.837C298.044 179.568 300.536 176.636 300.268 173.288L298.856 155.667C298.587 152.319 295.66 149.823 292.317 150.092Z" fill="#BCBDC1"/>
<path d="M302.686 169.304C302.848 171.291 302.038 173.116 300.702 174.291C299.731 175.183 298.516 175.751 297.14 175.873L215.491 182.441C212.131 182.684 209.176 180.17 208.933 176.846L207.516 159.249C207.233 155.884 209.742 152.965 213.102 152.681L294.752 146.113C298.071 145.87 301.026 148.383 301.309 151.708L302.159 162.696L302.686 169.304Z" fill="#FFFDFD"/>
<path d="M215.046 183.495C211.321 183.495 208.204 180.657 207.921 176.927L206.504 159.331C206.342 157.425 206.95 155.601 208.164 154.141C209.378 152.722 211.119 151.83 213.022 151.668L294.671 145.1C298.476 144.775 301.998 147.735 302.322 151.627L303.698 169.224C303.86 171.453 303.01 173.602 301.391 175.062C300.257 176.116 298.8 176.765 297.262 176.886L215.612 183.455C215.612 183.455 215.248 183.455 215.086 183.455L215.046 183.495ZM295.197 147.127C295.197 147.127 294.954 147.127 294.833 147.127L213.184 153.695C211.848 153.817 210.593 154.425 209.702 155.479C208.812 156.493 208.407 157.83 208.528 159.168L209.945 176.765C210.148 179.562 212.576 181.671 215.41 181.427L297.059 174.859C298.152 174.778 299.205 174.292 300.014 173.521C301.188 172.508 301.795 170.926 301.674 169.345L300.298 151.749C300.055 149.113 297.828 147.086 295.197 147.086V147.127Z" fill="#6976DF"/>
<path d="M243.665 159.574C243.139 159.574 242.694 159.168 242.653 158.601C242.653 158.033 243.058 157.547 243.625 157.547L293.335 154.83C293.335 154.83 293.335 154.83 293.375 154.83C293.902 154.83 294.347 155.236 294.387 155.803C294.387 156.371 293.983 156.857 293.416 156.857L243.706 159.574C243.706 159.574 243.706 159.574 243.665 159.574Z" fill="#6976DF"/>
<path d="M243.665 165.332C243.139 165.332 242.694 164.926 242.653 164.359C242.653 163.791 243.058 163.304 243.625 163.304L293.618 160.588C293.618 160.588 293.618 160.588 293.659 160.588C294.185 160.588 294.63 160.993 294.671 161.561C294.671 162.129 294.266 162.615 293.699 162.615L243.706 165.332C243.706 165.332 243.706 165.332 243.665 165.332Z" fill="#6976DF"/>
<path d="M243.665 171.047C243.139 171.047 242.694 170.642 242.653 170.074C242.653 169.507 243.058 169.02 243.625 169.02L293.902 166.304C294.59 166.304 294.954 166.709 294.954 167.277C294.954 167.844 294.549 168.331 293.983 168.331L243.706 171.047C243.706 171.047 243.706 171.047 243.665 171.047Z" fill="#6976DF"/>
<path d="M293.497 172.751L260.424 110.962L260.222 110.597L255 112.989L279.936 178.833L294.792 202.511H295.076L295.4 202.43H295.683L292.606 197.484L294.388 192.862L299.124 194.605L301.229 201.538H301.472L301.796 201.457H302.079L293.416 172.711L293.497 172.751ZM295.602 182.766L289.651 181.225L293.092 174.495L295.602 182.766ZM289.166 181.104L281.879 179.239L292.647 174.333L289.166 181.144V181.104ZM291.918 171.616L284.348 169.508L287.465 163.264L291.918 171.616ZM283.822 169.346L277.143 167.481L286.98 162.98L283.822 169.305V169.346ZM286.494 161.521L279.491 159.088L282.001 153.128L286.494 161.521ZM279.045 158.885L272.892 156.736L281.596 152.763L279.045 158.885ZM281.029 151.263L274.674 148.506L276.576 142.911L281.069 151.263H281.029ZM274.188 148.303L268.723 145.952L276.09 142.586L274.188 148.303ZM275.645 141.208L269.937 138.126L271.192 132.815L275.686 141.208H275.645ZM270.018 130.666L265.039 127.301L265.687 122.557L270.018 130.626V130.666ZM264.513 127.017L260.505 124.301L265.201 122.152L264.513 126.977V127.017ZM260.262 112.502L264.513 120.408L260.141 116.719L260.262 112.502ZM259.453 122.395L256.376 114.286L259.615 117.003L259.453 122.395ZM259.655 116.313L256.214 113.394L259.817 111.772L259.696 116.313H259.655ZM260.141 117.408L264.351 120.936L260.02 122.922L260.182 117.408H260.141ZM260.424 124.868L264.472 127.585L263.663 133.383L260.424 124.868ZM264.918 127.909L269.775 131.193L264.108 133.788L264.918 127.95V127.909ZM270.706 132.329L269.371 137.843L264.432 135.167L270.666 132.329H270.706ZM264.553 135.856L269.249 138.41L267.792 144.451L264.553 135.856ZM269.735 138.654L274.997 141.492L268.318 144.532L269.735 138.654ZM268.601 146.479L274.026 148.83L271.88 155.196L268.601 146.519V146.479ZM274.512 149.033L280.584 151.668L272.366 155.439L274.512 149.073V149.033ZM272.69 157.223L278.843 159.372L276.05 166.062L272.69 157.223ZM279.329 159.574L285.968 161.886L276.536 166.183L279.288 159.574H279.329ZM276.738 167.927L283.579 169.832L280.098 176.846L276.738 167.967V167.927ZM284.106 169.994L291.554 172.062L280.584 177.049L284.106 169.994ZM281.434 179.644L288.882 181.55L286.089 187.023L281.434 179.603V179.644ZM289.449 181.712L295.562 183.293L286.575 187.388L289.489 181.712H289.449ZM292.323 196.957L288.356 190.591L293.983 192.699L292.323 196.957ZM294.145 192.172L287.87 189.861L287.708 189.618L296.493 185.604L296.574 185.928L294.145 192.213V192.172ZM294.63 192.375L296.816 186.739L299.002 193.997L294.63 192.375Z" fill="#1F2A24"/>
<path d="M249.94 140.194C249.94 140.194 249.94 140.032 249.94 139.667C249.94 139.302 249.94 138.815 249.94 138.126C249.94 136.788 249.94 134.802 249.94 132.288C249.94 127.22 249.94 119.962 249.94 111.083L249.98 111.042C252.854 110.718 255.971 110.394 259.25 110.069C266.294 117.976 274.593 127.22 283.417 137.113C297.14 152.519 309.568 166.426 318.554 176.522C323.048 181.549 326.691 185.644 329.201 188.482C330.456 189.902 331.427 190.996 332.075 191.726C332.399 192.091 332.642 192.375 332.804 192.577C332.642 192.375 332.358 192.091 332.034 191.726C331.387 190.996 330.375 189.902 329.12 188.482C326.61 185.685 322.967 181.59 318.433 176.562C309.446 166.467 296.978 152.56 283.255 137.194C274.431 127.341 266.173 118.057 259.129 110.15H259.169C255.891 110.515 252.774 110.84 249.899 111.123H249.94C249.94 119.962 249.94 127.22 249.94 132.288C249.94 134.802 249.94 136.788 249.94 138.126C249.94 138.775 249.94 139.302 249.94 139.667C249.94 139.991 249.94 140.194 249.94 140.194Z" fill="#1F2A24"/>
<path d="M250.466 131.882H249.211C249.144 131.882 249.09 131.936 249.09 132.003V134.923C249.09 134.99 249.144 135.044 249.211 135.044H250.466C250.533 135.044 250.588 134.99 250.588 134.923V132.003C250.588 131.936 250.533 131.882 250.466 131.882Z" fill="#1F2A24"/>
<path d="M252.368 135.572H247.511C247.227 135.572 246.984 135.328 246.984 135.045C246.984 134.761 247.227 134.518 247.511 134.518H252.368C252.652 134.518 252.895 134.761 252.895 135.045C252.895 135.328 252.652 135.572 252.368 135.572Z" fill="#1F2A24"/>
<path d="M250.264 144.289V143.6L249.535 143.924C249.535 144.167 249.535 144.451 249.535 144.694C249.535 144.735 249.535 144.775 249.535 144.816C249.535 144.897 249.657 144.897 249.697 144.938C250.021 145.059 250.304 145.302 250.426 145.586C250.588 145.87 250.588 146.519 249.94 146.762C249.373 146.965 248.847 146.438 248.847 146.194C248.847 146.073 248.847 145.911 248.685 145.87C248.442 145.87 248.361 146.194 248.361 146.357C248.361 147.411 249.373 147.735 249.819 147.776C250.102 147.776 250.385 147.776 250.628 147.614C251.033 147.37 251.316 146.965 251.397 146.519C251.64 145.14 250.183 144.41 250.264 144.329V144.289Z" fill="#1F2A24"/>
<path d="M250.871 143.964L253.988 136.463C254.271 135.774 253.785 135.044 253.057 135.044H246.823C246.094 135.044 245.608 135.774 245.892 136.463L249.009 143.964C249.373 144.815 250.547 144.815 250.911 143.964H250.871Z" fill="#FFFDFD"/>
<path d="M249.94 145.099C249.292 145.099 248.766 144.734 248.523 144.167L245.406 136.666C245.203 136.179 245.244 135.652 245.527 135.247C245.811 134.801 246.296 134.558 246.823 134.558H253.057C253.583 134.558 254.028 134.801 254.312 135.247C254.595 135.693 254.635 136.22 254.473 136.706L251.356 144.207C251.114 144.775 250.587 145.14 249.94 145.14V145.099ZM246.823 135.531C246.823 135.531 246.499 135.612 246.377 135.774C246.296 135.936 246.256 136.098 246.337 136.26L249.454 143.761C249.575 144.045 249.859 144.086 249.94 144.086C250.021 144.086 250.304 144.086 250.425 143.761L253.542 136.26C253.542 136.26 253.583 135.936 253.502 135.774C253.421 135.612 253.259 135.531 253.057 135.531H246.823Z" fill="#6976DF"/>
<path d="M247.147 135.571L246.337 136.382V136.463L246.58 137.112L248.118 135.571H247.106H247.147Z" fill="#BBC5F7"/>
<path d="M250.142 135.571H249.13L246.903 137.801L247.187 138.49L250.142 135.571Z" fill="#BBC5F7"/>
<path d="M252.287 139.423L252.976 137.72L248.685 142.058L248.968 142.747L252.287 139.423Z" fill="#BBC5F7"/>
<path d="M251.559 141.126L249.252 143.437L249.333 143.64C249.333 143.64 249.535 143.924 249.697 144.005L250.831 142.869L251.559 141.167V141.126Z" fill="#BBC5F7"/>
<path d="M252.166 135.571H251.154L247.511 139.22L247.794 139.91L252.166 135.571Z" fill="#BBC5F7"/>
<path d="M253.583 136.139C253.583 136.139 253.542 135.937 253.461 135.856C253.38 135.734 253.259 135.653 253.097 135.612L248.077 140.64L248.361 141.329L253.542 136.139H253.583Z" fill="#BBC5F7"/>
<path d="M330.01 191.239H335.232C335.678 191.239 336.001 191.604 336.001 192.01V194.402H329.241V192.01C329.241 191.564 329.606 191.239 330.01 191.239Z" fill="#1F2A24"/>
<path d="M317.421 193.631H316.328V187.023C316.328 186.739 316.369 186.455 316.45 186.171L317.016 184.428C317.016 184.428 317.057 184.428 317.097 184.428L317.745 185.604L317.583 186.131C317.502 186.414 317.462 186.698 317.462 187.023V193.672L317.421 193.631Z" fill="#1F2A24"/>
<path d="M344.786 194.847C344.462 194.077 343.774 193.55 342.964 193.388H315.195V188.725C315.195 188.117 314.709 187.59 314.061 187.59H300.662C300.176 187.59 299.731 187.914 299.61 188.36L299.205 189.617H300.703C301.067 189.617 301.391 189.779 301.593 190.023C301.795 190.306 301.917 190.631 301.836 190.955L300.419 197.767C300.298 198.294 299.852 198.659 299.286 198.659H296.452C296.452 199.104 296.452 199.55 296.533 199.956L296.695 200.645L289.327 202.105C289.327 202.105 289.125 202.226 289.085 202.348L288.396 204.213C288.396 204.213 288.315 204.375 288.315 204.497C288.154 205.105 288.315 206.159 288.639 206.159H296.493L296.128 206.565L295.683 207.943H345.676C345.676 203.443 345.555 196.712 344.786 194.807V194.847ZM310.134 190.59L309.406 197.28C309.406 197.28 309.406 197.442 309.406 197.523C309.122 198.902 307.868 199.834 306.491 199.834H303.212C302.565 199.834 302.079 199.226 302.241 198.577L303.779 190.509C303.9 189.982 304.346 189.617 304.872 189.617H309.365C309.608 189.617 309.851 189.739 310.013 189.901C310.175 190.063 310.256 190.306 310.215 190.55L310.134 190.59Z" fill="#6976DF"/>
<path d="M322.4 211.268L301.107 211.552C301.107 211.552 300.743 211.146 300.743 210.984V208.592C300.743 208.592 300.865 208.349 300.986 208.349H322.4C322.4 208.349 322.643 208.47 322.643 208.592V210.984C322.643 210.984 322.522 211.227 322.4 211.227V211.268Z" fill="#1F2A24"/>
<path d="M310.134 190.59L309.405 197.28C309.405 197.28 309.405 197.442 309.405 197.523C309.122 198.902 307.867 199.834 306.491 199.834H303.212C302.564 199.834 302.078 199.226 302.24 198.578L303.779 190.509C303.9 189.982 304.345 189.617 304.872 189.617H309.365C309.608 189.617 309.851 189.739 310.013 189.901C310.175 190.063 310.256 190.306 310.215 190.55L310.134 190.59Z" fill="#EFA6F5"/>
<mask id="mask0_256_2304" style="mask-type:luminance" maskUnits="userSpaceOnUse" x="302" y="189" width="9" height="11">
<path d="M310.134 190.59L309.405 197.28C309.405 197.28 309.405 197.442 309.405 197.523C309.122 198.902 307.867 199.834 306.491 199.834H303.212C302.564 199.834 302.078 199.226 302.24 198.578L303.779 190.509C303.9 189.982 304.345 189.617 304.872 189.617H309.365C309.608 189.617 309.851 189.739 310.013 189.901C310.175 190.063 310.256 190.306 310.215 190.55L310.134 190.59Z" fill="white"/>
</mask>
<g mask="url(#mask0_256_2304)">
<path d="M299.569 188.361L296.573 197.686C296.33 198.416 296.29 199.227 296.452 199.997L297.747 205.957H315.194V188.685C315.194 188.077 314.708 187.55 314.061 187.55H300.662C300.176 187.55 299.731 187.874 299.609 188.32L299.569 188.361Z" fill="#EFA6F5"/>
</g>
<path d="M303.131 199.835C302.483 199.835 301.997 199.227 302.159 198.619L303.698 190.55C303.819 190.023 304.264 189.658 304.791 189.658H309.284C309.527 189.658 309.77 189.78 309.932 189.942C310.093 190.104 310.174 190.347 310.134 190.591L309.405 197.281C309.405 197.281 309.405 197.443 309.405 197.524C309.122 198.902 307.867 199.835 306.491 199.835H303.212H303.131Z" fill="#BBC5F7"/>
<path d="M296.371 198.74C296.371 198.416 296.452 198.091 296.573 197.767L299.164 189.658H300.662C301.026 189.658 301.35 189.82 301.553 190.064C301.755 190.347 301.876 190.672 301.795 190.996L300.379 197.808C300.257 198.335 299.812 198.7 299.245 198.7H296.371V198.74Z" fill="#BBC5F7"/>
<path d="M345.717 209.282H295.723C295.359 209.282 295.359 207.903 295.723 207.903H345.717C346.081 207.903 346.081 209.282 345.717 209.282Z" fill="#1F2A24"/>
<path d="M290.623 222.378C287.87 222.378 285.562 219.742 285.562 216.985C285.562 214.228 287.991 211.917 290.704 211.917L334.827 209.93C337.094 209.809 339.28 210.985 340.373 213.012C340.94 214.066 341.223 215.445 340.859 217.107C339.685 222.459 335.273 222.378 333.532 222.256C331.791 222.134 290.582 222.378 290.582 222.378H290.623Z" fill="#6976DF"/>
<path d="M290.622 221.08C292.903 221.08 294.751 219.228 294.751 216.944C294.751 214.66 292.903 212.809 290.622 212.809C288.342 212.809 286.493 214.66 286.493 216.944C286.493 219.228 288.342 221.08 290.622 221.08Z" fill="white"/>
<path d="M334.544 221.485C337.495 221.485 339.887 219.089 339.887 216.133C339.887 213.177 337.495 210.781 334.544 210.781C331.593 210.781 329.2 213.177 329.2 216.133C329.2 219.089 331.593 221.485 334.544 221.485Z" fill="white"/>
<path d="M335.152 210.944C335.152 210.944 335.152 210.944 335.03 210.944C334.949 210.944 334.828 210.944 334.706 210.944C334.382 210.944 333.978 211.025 333.411 211.066C332.277 211.188 330.658 211.309 328.634 211.471C324.586 211.796 319.04 212.201 312.847 212.444C306.694 212.728 301.107 212.809 297.059 212.85C295.035 212.85 293.416 212.85 292.283 212.85C291.716 212.85 291.271 212.85 290.987 212.85C290.825 212.85 290.744 212.85 290.663 212.85C290.582 212.85 290.542 212.85 290.542 212.85C290.542 212.85 290.542 212.85 290.663 212.85C290.744 212.85 290.866 212.85 290.987 212.85C291.311 212.85 291.716 212.85 292.283 212.85C293.416 212.85 295.076 212.85 297.059 212.809C301.107 212.769 306.694 212.647 312.847 212.363C319 212.08 324.586 211.715 328.634 211.431C330.658 211.269 332.277 211.147 333.411 211.066C333.978 211.025 334.423 210.985 334.706 210.944C334.868 210.944 334.949 210.944 335.03 210.944C335.111 210.944 335.152 210.944 335.152 210.944Z" fill="white"/>
<path d="M333.451 220.958C333.451 220.958 323.858 221.039 312.037 221.039C300.217 221.039 290.623 221.039 290.623 220.958C290.623 220.877 300.217 220.877 312.037 220.877C323.858 220.877 333.451 220.877 333.451 220.958Z" fill="white"/>
<path d="M342.559 195.862H336.001C336.001 195.862 335.799 195.78 335.799 195.659C335.799 195.537 335.88 195.456 336.001 195.456H342.559C342.559 195.456 342.761 195.537 342.761 195.659C342.761 195.78 342.681 195.862 342.559 195.862Z" fill="#FFFDFD"/>
<path d="M342.559 197.118H336.001C336.001 197.118 335.799 197.037 335.799 196.916C335.799 196.794 335.88 196.713 336.001 196.713H342.559C342.559 196.713 342.761 196.794 342.761 196.916C342.761 197.037 342.681 197.118 342.559 197.118Z" fill="#FFFDFD"/>
<path d="M342.559 198.415H336.001C336.001 198.415 335.799 198.334 335.799 198.212C335.799 198.091 335.88 198.01 336.001 198.01H342.559C342.559 198.01 342.761 198.091 342.761 198.212C342.761 198.334 342.681 198.415 342.559 198.415Z" fill="#FFFDFD"/>
<g opacity="0.4">
<path d="M236.985 160.871L237.836 173.034C237.997 175.183 236.378 177.048 234.233 177.17L222.129 178.021L220.591 158.155L232.816 157.303C234.961 157.141 236.824 158.763 236.945 160.912L236.985 160.871Z" fill="#BBC5F7"/>
</g>
<g opacity="0.4">
<path d="M222.17 178.021L218.324 178.305C216.179 178.467 214.317 176.845 214.195 174.696L213.345 162.533C213.183 160.384 214.802 158.519 216.948 158.398L220.672 158.154L222.21 178.021H222.17Z" fill="#BBC5F7"/>
</g>
<path d="M234.121 155.19L218.211 156.312C216.071 156.463 214.457 158.324 214.608 160.469L215.462 172.602C215.612 174.746 217.47 176.362 219.611 176.211L235.521 175.088C237.662 174.937 239.275 173.076 239.124 170.932L238.271 158.799C238.12 156.655 236.262 155.039 234.121 155.19Z" fill="white"/>
<path d="M219.336 177.21C218.162 177.21 217.029 176.805 216.138 175.994C215.167 175.143 214.559 173.967 214.478 172.629L213.628 160.465C213.547 159.168 213.952 157.911 214.802 156.898C215.652 155.884 216.826 155.316 218.162 155.235L234.111 154.1C235.407 154.019 236.662 154.424 237.674 155.276C238.686 156.127 239.252 157.303 239.333 158.641L240.184 170.804C240.265 172.102 239.86 173.359 239.01 174.372C238.16 175.345 236.986 175.954 235.65 176.035L219.7 177.17C219.7 177.17 219.458 177.17 219.336 177.17V177.21ZM234.435 156.168C234.435 156.168 234.314 156.168 234.233 156.168L218.284 157.303C217.514 157.344 216.826 157.708 216.341 158.276C215.855 158.844 215.612 159.574 215.652 160.344L216.502 172.507C216.543 173.278 216.907 173.967 217.474 174.453C218.041 174.94 218.81 175.224 219.538 175.143L235.488 174.007C236.257 173.967 236.945 173.602 237.431 173.034C237.917 172.467 238.16 171.737 238.119 170.967L237.269 158.803C237.228 158.033 236.864 157.344 236.297 156.857C235.771 156.411 235.123 156.168 234.435 156.168Z" fill="#1F2A24"/>
<path d="M233.788 160.749C234.638 160.749 235.327 160.06 235.327 159.209C235.327 158.358 234.638 157.668 233.788 157.668C232.939 157.668 232.25 158.358 232.25 159.209C232.25 160.06 232.939 160.749 233.788 160.749Z" fill="white"/>
<path d="M223.87 163.669L229.781 171.048C229.983 171.291 229.781 171.697 229.497 171.737L218.77 172.508C218.446 172.508 218.203 172.183 218.365 171.859L223.182 163.75C223.344 163.507 223.668 163.466 223.87 163.709V163.669Z" fill="#6976DF"/>
<path d="M234.435 171.372L226.258 171.94C225.975 171.94 225.691 171.818 225.529 171.575C225.367 171.332 225.327 171.007 225.489 170.764L229.092 163.385C229.334 162.858 230.185 162.817 230.508 163.304L235.083 170.115C235.245 170.359 235.285 170.683 235.123 170.926C235.002 171.169 234.718 171.372 234.435 171.372ZM227.553 170.237L232.897 169.872L229.901 165.412L227.553 170.237Z" fill="#BBC5F7"/>
<path d="M329.241 136.544L320.173 125.313C318.352 122.8 315.437 118.745 315.316 118.38C315.113 117.853 315.073 114.204 315.154 113.312C315.235 112.42 314.911 109.785 314.911 109.785L307.463 112.623L305.884 106.906L304.872 107.231C304.872 107.231 302.16 111.893 303.01 114.569C303.86 117.245 307.382 118.421 308.232 118.948C309.122 119.475 312.401 120.894 316.125 126.57L316.733 127.462L318.23 129.652L325.112 139.585C325.922 140.68 327.46 140.964 328.553 140.193C329.727 139.382 330.01 137.761 329.12 136.585L329.241 136.544Z" fill="#1F2A24"/>
<path d="M311.47 111.042L309.527 105.568L310.216 105.325C310.216 105.325 313.656 107.434 314.385 109.947L311.47 111.042Z" fill="#1F2A24"/>
<path d="M291.797 134.679L294.914 140.112L296.574 139.139C297.059 138.855 297.667 138.896 298.112 139.18C298.355 139.342 298.638 139.504 298.921 139.666C299.407 139.909 299.731 140.437 299.731 141.004V142.91H305.965V141.004C305.965 140.437 306.289 139.95 306.775 139.666C307.058 139.545 307.341 139.382 307.584 139.18C308.07 138.855 308.637 138.855 309.123 139.139L310.782 140.112L313.899 134.679L312.24 133.706C311.754 133.422 311.47 132.895 311.511 132.328C311.511 132.165 311.511 132.003 311.511 131.882C311.511 131.76 311.511 131.557 311.511 131.436C311.511 130.868 311.754 130.341 312.24 130.057L313.899 129.084L310.782 123.651L309.123 124.624C308.637 124.908 308.03 124.867 307.584 124.584C307.341 124.421 307.058 124.259 306.775 124.097C306.289 123.854 305.965 123.327 305.965 122.759V120.854H299.731V122.759C299.731 123.327 299.407 123.813 298.921 124.097C298.638 124.219 298.395 124.381 298.112 124.584C297.626 124.908 297.059 124.908 296.574 124.624L294.914 123.651L291.797 129.084L293.457 130.057C293.942 130.341 294.226 130.868 294.185 131.436C294.185 131.598 294.185 131.76 294.185 131.882C294.185 132.003 294.185 132.206 294.185 132.328C294.185 132.895 293.942 133.422 293.457 133.706L291.797 134.679ZM297.748 131.882C297.748 129.044 300.055 126.773 302.848 126.773C305.641 126.773 307.949 129.084 307.949 131.882C307.949 134.679 305.641 136.99 302.848 136.99C300.055 136.99 297.748 134.679 297.748 131.882Z" fill="#1F2A24"/>
<path d="M310.134 139.18L311.834 142.14L312.725 141.613C313.008 141.45 313.332 141.491 313.575 141.613C313.737 141.694 313.858 141.775 314.02 141.856C314.303 141.978 314.465 142.261 314.465 142.586V143.64H317.866V142.586C317.866 142.261 318.027 142.018 318.311 141.856C318.473 141.775 318.594 141.694 318.756 141.613C318.999 141.45 319.323 141.41 319.606 141.613L320.497 142.14L322.197 139.18L321.306 138.653C321.023 138.491 320.902 138.207 320.902 137.883C320.902 137.801 320.902 137.72 320.902 137.639C320.902 137.558 320.902 137.477 320.902 137.396C320.902 137.072 321.023 136.788 321.306 136.626L322.197 136.099L320.497 133.139L319.606 133.666C319.323 133.828 318.999 133.788 318.756 133.666C318.635 133.585 318.473 133.504 318.311 133.423C318.027 133.301 317.866 133.017 317.866 132.693V131.639H314.465V132.693C314.465 133.017 314.303 133.26 314.02 133.423C313.858 133.504 313.737 133.585 313.575 133.666C313.332 133.828 313.008 133.869 312.725 133.666L311.834 133.139L310.134 136.099L311.024 136.626C311.308 136.788 311.429 137.072 311.429 137.396C311.429 137.477 311.429 137.558 311.429 137.639C311.429 137.72 311.429 137.801 311.429 137.883C311.429 138.207 311.308 138.491 311.024 138.653L310.134 139.18ZM313.372 137.639C313.372 136.099 314.627 134.842 316.165 134.842C317.704 134.842 318.959 136.099 318.959 137.639C318.959 139.18 317.704 140.437 316.165 140.437C314.627 140.437 313.372 139.18 313.372 137.639Z" fill="#1F2A24"/>
<path d="M329.362 134.639L320.295 123.408C318.473 120.894 315.558 116.84 315.437 116.475C315.234 115.948 315.194 112.299 315.275 111.407C315.356 110.515 315.032 107.88 315.032 107.88L307.584 110.718L306.005 105.001L304.993 105.325C304.993 105.325 302.281 109.988 303.131 112.664C303.981 115.34 307.503 116.516 308.353 117.043C309.243 117.57 312.522 118.989 316.246 124.665L316.854 125.557L318.351 127.746L325.233 137.68C326.043 138.775 327.581 139.058 328.674 138.288C329.848 137.477 330.131 135.855 329.241 134.68L329.362 134.639Z" fill="#6976DF"/>
<path d="M311.632 109.137L309.688 103.663L310.377 103.42C310.377 103.42 313.817 105.528 314.546 108.042L311.632 109.137Z" fill="#6976DF"/>
<path d="M291.918 132.815L295.035 138.248L296.695 137.275C297.18 136.991 297.788 137.032 298.233 137.315C298.476 137.478 298.759 137.64 299.043 137.802C299.528 138.045 299.852 138.572 299.852 139.14V141.045H306.086V139.14C306.086 138.572 306.41 138.086 306.896 137.802C307.179 137.68 307.462 137.518 307.705 137.315C308.191 136.991 308.758 136.991 309.244 137.275L310.903 138.248L314.02 132.815L312.361 131.842C311.875 131.558 311.592 131.031 311.632 130.463C311.632 130.301 311.632 130.139 311.632 130.017C311.632 129.896 311.632 129.693 311.632 129.571C311.632 129.004 311.875 128.477 312.361 128.193L314.02 127.22L310.903 121.787L309.244 122.76C308.758 123.044 308.151 123.003 307.705 122.719C307.462 122.557 307.179 122.395 306.896 122.233C306.41 121.99 306.086 121.462 306.086 120.895V118.989H299.852V120.895C299.852 121.462 299.528 121.949 299.043 122.233C298.759 122.354 298.516 122.517 298.233 122.719C297.747 123.044 297.18 123.044 296.695 122.76L295.035 121.787L291.918 127.22L293.578 128.193C294.063 128.477 294.347 129.004 294.306 129.571C294.306 129.734 294.306 129.896 294.306 130.017C294.306 130.139 294.306 130.342 294.306 130.463C294.306 131.031 294.063 131.558 293.578 131.842L291.918 132.815ZM297.909 129.977C297.909 127.139 300.216 124.868 303.01 124.868C305.803 124.868 308.11 127.179 308.11 129.977C308.11 132.774 305.803 135.085 303.01 135.085C300.216 135.085 297.909 132.774 297.909 129.977Z" fill="#6976DF"/>
<path d="M310.256 137.275L311.956 140.234L312.847 139.707C313.13 139.545 313.454 139.586 313.697 139.707C313.859 139.788 313.98 139.87 314.142 139.951C314.425 140.072 314.587 140.356 314.587 140.68V141.735H317.988V140.68C317.988 140.356 318.15 140.113 318.433 139.951C318.595 139.87 318.716 139.788 318.878 139.707C319.121 139.545 319.445 139.505 319.728 139.707L320.619 140.234L322.319 137.275L321.428 136.748C321.145 136.585 321.024 136.302 321.024 135.977C321.024 135.896 321.024 135.815 321.024 135.734C321.024 135.653 321.024 135.572 321.024 135.491C321.024 135.166 321.145 134.883 321.428 134.72L322.319 134.193L320.619 131.234L319.728 131.761C319.445 131.923 319.121 131.882 318.878 131.761C318.757 131.68 318.595 131.598 318.433 131.517C318.15 131.396 317.988 131.112 317.988 130.788V129.733H314.587V130.788C314.587 131.112 314.425 131.355 314.142 131.517C313.98 131.598 313.859 131.68 313.697 131.761C313.454 131.923 313.13 131.963 312.847 131.761L311.956 131.234L310.256 134.193L311.146 134.72C311.43 134.883 311.551 135.166 311.551 135.491C311.551 135.572 311.551 135.653 311.551 135.734C311.551 135.815 311.551 135.896 311.551 135.977C311.551 136.302 311.43 136.585 311.146 136.748L310.256 137.275ZM313.535 135.734C313.535 134.193 314.79 132.936 316.328 132.936C317.866 132.936 319.121 134.193 319.121 135.734C319.121 137.275 317.866 138.532 316.328 138.532C314.79 138.532 313.535 137.275 313.535 135.734Z" fill="#6976DF"/>
<path d="M232.614 110.92H218.567C216.867 110.92 215.531 109.542 215.531 107.839V107.555C215.531 105.568 217.353 104.028 219.296 104.352C219.984 103.419 221.199 102.892 222.413 103.055C223.223 101.149 225.085 99.8516 227.271 99.8516C229.902 99.8516 232.088 101.798 232.452 104.311C234.233 104.311 235.691 105.771 235.691 107.555V107.839C235.691 109.542 234.314 110.92 232.655 110.92H232.614ZM218.77 106.379C218.082 106.379 217.555 106.947 217.555 107.596V107.879C217.555 108.447 218.001 108.934 218.567 108.934H232.614C233.181 108.934 233.626 108.488 233.626 107.879V107.596C233.626 106.744 232.695 106.095 231.885 106.501C231.562 106.663 231.157 106.623 230.873 106.42C230.59 106.217 230.428 105.852 230.428 105.487C230.428 105.366 230.428 105.285 230.428 105.163C230.428 103.379 228.971 101.919 227.19 101.919C225.611 101.919 224.275 103.055 223.992 104.595C223.951 104.92 223.708 105.203 223.425 105.325C223.142 105.447 222.777 105.447 222.494 105.285C221.806 104.879 220.956 105.244 220.713 105.933C220.632 106.217 220.389 106.46 220.146 106.541C219.863 106.663 219.579 106.623 219.296 106.541C219.134 106.46 218.932 106.42 218.729 106.42L218.77 106.379Z" fill="#6976DF"/>
<path d="M298.072 101.028H284.025C282.325 101.028 280.948 99.6491 280.948 97.9463V97.6624C280.948 95.6758 282.77 94.1351 284.713 94.4594C285.401 93.5269 286.616 92.9998 287.83 93.162C288.64 91.2564 290.542 89.959 292.688 89.959C295.319 89.959 297.505 91.9051 297.869 94.4189C299.65 94.4189 301.108 95.8785 301.108 97.6624V97.9463C301.108 99.6491 299.731 101.028 298.031 101.028H298.072ZM284.187 96.4867C283.499 96.4867 282.972 97.0137 282.972 97.703V97.9868C282.972 98.5544 283.458 99.041 284.025 99.041H298.072C298.638 99.041 299.124 98.595 299.124 97.9868V97.703C299.124 96.8516 298.152 96.2434 297.383 96.6083C297.06 96.7705 296.695 96.7299 296.371 96.5272C296.088 96.3245 295.926 95.9596 295.926 95.5947C295.926 95.473 295.926 95.392 295.926 95.2703C295.926 93.4864 294.469 92.0268 292.688 92.0268C291.109 92.0268 289.773 93.162 289.49 94.7027C289.449 95.0271 289.206 95.3109 288.923 95.4325C288.599 95.5541 288.275 95.5541 287.992 95.392C287.304 94.9865 286.454 95.3514 286.211 96.0407C286.13 96.3245 285.887 96.5272 285.644 96.6488C285.361 96.7705 285.077 96.7299 284.794 96.6083C284.632 96.5272 284.43 96.4867 284.227 96.4867H284.187Z" fill="#6976DF"/>
<path d="M239.334 96.6895H257.429V94.2973H239.334V96.6895Z" fill="#6B8EF2"/>
<path d="M321.388 161.926H339.482V159.534H321.388V161.926Z" fill="#6B8EF2"/>
<path d="M221.198 214.796H239.293V212.404H221.198V214.796Z" fill="#6B8EF2"/>
<path d="M278.357 105.325C278.357 106.338 279.086 107.312 280.098 107.514C281.11 107.717 282.162 107.19 282.567 106.257C282.769 105.852 282.85 105.365 283.296 105.163C283.619 105.001 284.024 105.041 284.348 105.244C284.631 105.447 284.834 105.771 284.996 106.055C285.198 106.379 285.401 106.744 285.724 106.987C286.332 107.514 287.141 107.474 287.748 106.987C287.991 106.784 288.234 106.501 288.396 106.217C288.477 106.095 288.598 105.933 288.679 105.811C288.801 105.649 288.841 105.568 288.963 105.447C289.044 105.325 289.165 105.203 289.287 105.122C289.287 105.122 289.327 105.082 289.368 105.041C289.408 105.041 289.327 105.041 289.368 105.041C289.449 105.001 289.489 104.96 289.57 104.919C289.57 104.919 289.61 104.919 289.651 104.919C289.691 104.919 289.732 104.919 289.732 104.919C289.651 104.919 289.732 104.919 289.813 104.919C289.813 104.919 289.894 104.919 289.934 104.919C289.853 104.919 289.934 104.919 289.975 104.919H290.056C290.056 104.919 290.056 104.919 290.096 104.919C290.096 104.919 290.177 104.919 290.218 104.96C290.218 104.96 290.299 105.001 290.258 104.96C290.218 104.919 290.299 104.96 290.299 105.001L290.38 105.082C290.501 105.203 290.542 105.244 290.622 105.406C290.825 105.69 290.946 106.014 291.149 106.298C291.513 106.906 292.08 107.555 292.889 107.474C293.416 107.433 293.861 107.068 294.144 106.622C294.468 106.136 294.549 105.528 294.509 104.96C294.509 104.636 294.428 104.352 294.387 104.027C294.387 103.825 294.104 103.703 293.942 103.784C293.739 103.825 293.659 104.027 293.699 104.23C293.78 104.757 293.861 105.325 293.699 105.852C293.578 106.217 293.335 106.582 292.93 106.703C292.768 106.744 292.647 106.703 292.525 106.703C292.525 106.703 292.485 106.703 292.444 106.663C292.404 106.622 292.404 106.663 292.363 106.622C292.404 106.622 292.363 106.622 292.323 106.622C292.08 106.42 291.958 106.217 291.796 105.933C291.473 105.365 291.189 104.717 290.582 104.352C289.975 103.987 289.246 104.149 288.76 104.555C288.518 104.757 288.315 105.041 288.113 105.284C288.032 105.406 287.91 105.528 287.829 105.69C287.789 105.771 287.748 105.811 287.708 105.893C287.667 105.974 287.627 106.014 287.586 106.055C287.505 106.176 287.384 106.298 287.263 106.42C287.263 106.42 287.222 106.46 287.182 106.501C287.182 106.501 287.101 106.582 287.141 106.541C287.182 106.501 287.101 106.541 287.101 106.541C287.101 106.541 287.02 106.541 287.02 106.582C287.02 106.582 286.979 106.582 286.939 106.622C286.939 106.622 286.898 106.622 286.858 106.622C286.858 106.622 286.858 106.622 286.817 106.622C286.898 106.622 286.777 106.622 286.817 106.622C286.655 106.622 286.574 106.622 286.413 106.582C286.453 106.582 286.413 106.582 286.372 106.582C286.372 106.582 286.291 106.582 286.291 106.501C286.291 106.501 286.291 106.501 286.251 106.501C286.251 106.501 286.17 106.42 286.129 106.42C286.008 106.298 285.927 106.176 285.846 106.055C285.643 105.73 285.441 105.365 285.158 105.082C284.591 104.392 283.619 104.149 282.81 104.636C282.324 104.919 282.122 105.365 281.919 105.852C281.757 106.257 281.514 106.541 281.11 106.744C280.34 107.109 279.49 106.744 279.167 105.974C279.086 105.771 279.045 105.609 279.045 105.406C279.045 104.919 278.316 104.919 278.316 105.406L278.357 105.325Z" fill="#6B8EF2"/>
<path d="M278.357 109.501C278.357 110.514 279.086 111.487 280.098 111.69C281.11 111.893 282.162 111.366 282.567 110.433C282.769 110.028 282.85 109.541 283.296 109.338C283.619 109.176 284.024 109.217 284.348 109.42C284.631 109.622 284.834 109.947 284.996 110.23C285.198 110.555 285.401 110.92 285.724 111.163C286.332 111.69 287.141 111.65 287.748 111.163C287.991 110.96 288.234 110.676 288.396 110.393C288.477 110.271 288.598 110.109 288.679 109.987C288.801 109.825 288.841 109.744 288.963 109.622C289.044 109.501 289.165 109.379 289.287 109.298C289.287 109.298 289.327 109.257 289.368 109.217C289.408 109.217 289.327 109.217 289.368 109.217C289.449 109.176 289.489 109.136 289.57 109.095C289.57 109.095 289.61 109.095 289.651 109.095C289.691 109.095 289.732 109.095 289.732 109.095C289.651 109.095 289.732 109.095 289.813 109.095C289.813 109.095 289.894 109.095 289.934 109.095C289.853 109.095 289.934 109.095 289.975 109.095H290.056C290.056 109.095 290.056 109.095 290.096 109.095C290.096 109.095 290.177 109.095 290.218 109.136C290.218 109.136 290.299 109.176 290.258 109.136C290.218 109.095 290.299 109.136 290.299 109.176L290.38 109.257C290.501 109.379 290.542 109.42 290.622 109.582C290.825 109.866 290.946 110.19 291.149 110.474C291.513 111.082 292.08 111.731 292.889 111.65C293.416 111.609 293.861 111.244 294.144 110.798C294.468 110.312 294.549 109.703 294.509 109.136C294.509 108.811 294.428 108.528 294.387 108.203C294.387 108.001 294.104 107.879 293.942 107.96C293.739 108.001 293.659 108.203 293.699 108.406C293.78 108.933 293.861 109.501 293.699 110.028C293.578 110.393 293.335 110.758 292.93 110.879C292.768 110.92 292.647 110.879 292.525 110.879C292.525 110.879 292.485 110.879 292.444 110.839C292.404 110.798 292.404 110.839 292.363 110.798C292.404 110.798 292.363 110.798 292.323 110.798C292.08 110.595 291.958 110.393 291.796 110.109C291.473 109.541 291.189 108.892 290.582 108.528C289.975 108.163 289.246 108.325 288.76 108.73C288.518 108.933 288.315 109.217 288.113 109.46C288.032 109.582 287.91 109.703 287.829 109.866C287.789 109.947 287.748 109.987 287.708 110.068C287.667 110.149 287.627 110.19 287.586 110.23C287.505 110.352 287.384 110.474 287.263 110.595C287.263 110.595 287.222 110.636 287.182 110.676C287.182 110.676 287.101 110.758 287.141 110.717C287.182 110.676 287.101 110.717 287.101 110.717C287.101 110.717 287.02 110.717 287.02 110.758C287.02 110.758 286.979 110.758 286.939 110.798C286.939 110.798 286.898 110.798 286.858 110.798C286.858 110.798 286.858 110.798 286.817 110.798C286.898 110.798 286.777 110.798 286.817 110.798C286.655 110.798 286.574 110.798 286.413 110.758C286.453 110.758 286.413 110.758 286.372 110.758C286.372 110.758 286.291 110.758 286.291 110.676C286.291 110.676 286.291 110.676 286.251 110.676C286.251 110.676 286.17 110.595 286.129 110.595C286.008 110.474 285.927 110.352 285.846 110.23C285.643 109.906 285.441 109.541 285.158 109.257C284.591 108.568 283.619 108.325 282.81 108.811C282.324 109.095 282.122 109.541 281.919 110.028C281.757 110.433 281.514 110.717 281.11 110.92C280.34 111.285 279.49 110.92 279.167 110.149C279.086 109.947 279.045 109.784 279.045 109.582C279.045 109.095 278.316 109.095 278.316 109.582L278.357 109.501Z" fill="#6B8EF2"/>
<path d="M217.757 218.364C217.757 219.378 218.486 220.351 219.498 220.553C220.51 220.756 221.562 220.229 221.967 219.296C222.17 218.891 222.251 218.404 222.696 218.202C223.02 218.04 223.425 218.08 223.748 218.283C224.032 218.486 224.234 218.81 224.396 219.094C224.598 219.418 224.801 219.783 225.125 220.026C225.732 220.553 226.542 220.513 227.149 220.026C227.392 219.824 227.635 219.54 227.796 219.256C227.877 219.134 227.999 218.972 228.08 218.85C228.201 218.688 228.242 218.607 228.363 218.486C228.444 218.364 228.566 218.242 228.687 218.161C228.687 218.161 228.728 218.121 228.768 218.08C228.808 218.08 228.728 218.08 228.768 218.08C228.849 218.04 228.889 217.999 228.97 217.958C228.97 217.958 229.011 217.958 229.051 217.958C229.092 217.958 229.132 217.958 229.132 217.958C229.051 217.958 229.132 217.958 229.213 217.958C229.213 217.958 229.294 217.958 229.335 217.958C229.254 217.958 229.335 217.958 229.375 217.958H229.456C229.456 217.958 229.456 217.958 229.497 217.958C229.497 217.958 229.578 217.958 229.618 217.999C229.618 217.999 229.699 218.04 229.659 217.999C229.618 217.958 229.699 217.999 229.699 218.04L229.78 218.121C229.901 218.242 229.942 218.283 230.023 218.445C230.225 218.729 230.347 219.053 230.549 219.337C230.913 219.945 231.48 220.594 232.29 220.513C232.816 220.472 233.261 220.107 233.545 219.661C233.869 219.175 233.949 218.567 233.909 217.999C233.909 217.675 233.828 217.391 233.788 217.067C233.788 216.864 233.504 216.742 233.342 216.823C233.14 216.864 233.059 217.067 233.099 217.269C233.18 217.796 233.261 218.364 233.099 218.891C232.978 219.256 232.735 219.621 232.33 219.742C232.168 219.783 232.047 219.742 231.925 219.742C231.925 219.742 231.885 219.742 231.845 219.702C231.804 219.661 231.804 219.702 231.764 219.661C231.804 219.661 231.764 219.661 231.723 219.661C231.48 219.459 231.359 219.256 231.197 218.972C230.873 218.404 230.59 217.756 229.982 217.391C229.375 217.026 228.647 217.188 228.161 217.594C227.918 217.796 227.715 218.08 227.513 218.323C227.432 218.445 227.311 218.567 227.23 218.729C227.189 218.81 227.149 218.85 227.108 218.932C227.068 219.013 227.027 219.053 226.987 219.094C226.906 219.215 226.784 219.337 226.663 219.459C226.663 219.459 226.623 219.499 226.582 219.54C226.582 219.54 226.501 219.621 226.542 219.58C226.582 219.54 226.501 219.58 226.501 219.58C226.501 219.58 226.42 219.58 226.42 219.621C226.42 219.621 226.38 219.621 226.339 219.661C226.339 219.661 226.299 219.661 226.258 219.661C226.258 219.661 226.258 219.661 226.218 219.661C226.299 219.661 226.177 219.661 226.218 219.661C226.056 219.661 225.975 219.661 225.813 219.621C225.853 219.621 225.813 219.621 225.772 219.621C225.772 219.621 225.691 219.621 225.691 219.54C225.691 219.54 225.691 219.54 225.651 219.54C225.651 219.54 225.57 219.459 225.53 219.459C225.408 219.337 225.327 219.215 225.246 219.094C225.044 218.769 224.841 218.404 224.558 218.121C223.991 217.431 223.02 217.188 222.21 217.675C221.724 217.958 221.522 218.404 221.32 218.891C221.158 219.296 220.915 219.58 220.51 219.783C219.741 220.148 218.891 219.783 218.567 219.013C218.486 218.81 218.445 218.648 218.445 218.445C218.445 217.958 217.717 217.958 217.717 218.445L217.757 218.364Z" fill="#6B8EF2"/>
<path d="M217.757 222.54C217.757 223.553 218.486 224.526 219.498 224.729C220.51 224.932 221.562 224.405 221.967 223.472C222.17 223.067 222.251 222.58 222.696 222.378C223.02 222.215 223.425 222.256 223.748 222.459C224.032 222.661 224.234 222.986 224.396 223.27C224.598 223.594 224.801 223.959 225.125 224.202C225.732 224.729 226.542 224.689 227.149 224.202C227.392 223.999 227.635 223.716 227.796 223.432C227.877 223.31 227.999 223.148 228.08 223.026C228.201 222.864 228.242 222.783 228.363 222.661C228.444 222.54 228.566 222.418 228.687 222.337C228.687 222.337 228.728 222.296 228.768 222.256C228.808 222.256 228.728 222.256 228.768 222.256C228.849 222.215 228.889 222.175 228.97 222.134C228.97 222.134 229.011 222.134 229.051 222.134C229.092 222.134 229.132 222.134 229.132 222.134C229.051 222.134 229.132 222.134 229.213 222.134C229.213 222.134 229.294 222.134 229.335 222.134C229.254 222.134 229.335 222.134 229.375 222.134H229.456C229.456 222.134 229.456 222.134 229.497 222.134C229.497 222.134 229.578 222.134 229.618 222.175C229.618 222.175 229.699 222.215 229.659 222.175C229.618 222.134 229.699 222.175 229.699 222.215L229.78 222.296C229.901 222.418 229.942 222.459 230.023 222.621C230.225 222.905 230.347 223.229 230.549 223.513C230.913 224.121 231.48 224.77 232.29 224.689C232.816 224.648 233.261 224.283 233.545 223.837C233.869 223.351 233.949 222.742 233.909 222.175C233.909 221.85 233.828 221.567 233.788 221.242C233.788 221.04 233.504 220.918 233.342 220.999C233.14 221.04 233.059 221.242 233.099 221.445C233.18 221.972 233.261 222.54 233.099 223.067C232.978 223.432 232.735 223.797 232.33 223.918C232.168 223.959 232.047 223.918 231.925 223.918C231.925 223.918 231.885 223.918 231.845 223.878C231.804 223.837 231.804 223.878 231.764 223.837C231.804 223.837 231.764 223.837 231.723 223.837C231.48 223.634 231.359 223.432 231.197 223.148C230.873 222.58 230.59 221.932 229.982 221.567C229.375 221.202 228.647 221.364 228.161 221.769C227.918 221.972 227.715 222.256 227.513 222.499C227.432 222.621 227.311 222.742 227.23 222.905C227.189 222.986 227.149 223.026 227.108 223.107C227.068 223.188 227.027 223.229 226.987 223.27C226.906 223.391 226.784 223.513 226.663 223.634C226.663 223.634 226.623 223.675 226.582 223.716C226.582 223.716 226.501 223.797 226.542 223.756C226.582 223.716 226.501 223.756 226.501 223.756C226.501 223.756 226.42 223.756 226.42 223.797C226.42 223.797 226.38 223.797 226.339 223.837C226.339 223.837 226.299 223.837 226.258 223.837C226.258 223.837 226.258 223.837 226.218 223.837C226.299 223.837 226.177 223.837 226.218 223.837C226.056 223.837 225.975 223.837 225.813 223.797C225.853 223.797 225.813 223.797 225.772 223.797C225.772 223.797 225.691 223.797 225.691 223.716C225.691 223.716 225.691 223.716 225.651 223.716C225.651 223.716 225.57 223.634 225.53 223.634C225.408 223.513 225.327 223.391 225.246 223.27C225.044 222.945 224.841 222.58 224.558 222.296C223.991 221.607 223.02 221.364 222.21 221.85C221.724 222.134 221.522 222.58 221.32 223.067C221.158 223.472 220.915 223.756 220.51 223.959C219.741 224.324 218.891 223.959 218.567 223.188C218.486 222.986 218.445 222.824 218.445 222.621C218.445 222.134 217.717 222.134 217.717 222.621L217.757 222.54Z" fill="#6B8EF2"/>
</g>
<g clip-path="url(#clip2_256_2304)">
<path d="M304.149 76.4439C322.479 71.5324 333.356 52.6913 328.445 34.3613C323.533 16.0313 304.692 5.15339 286.362 10.0649C268.032 14.9764 257.154 33.8174 262.066 52.1475C266.977 70.4775 285.818 81.3554 304.149 76.4439Z" fill="#131217"/>
<path d="M279.607 60.9092L275.906 64.6069L275.378 64.079L278.619 60.8409L276.615 58.8358L277.076 58.3761L279.607 60.9092Z" fill="#BBC5F7"/>
<path d="M275.746 57.6105L274.038 55.0848L274.578 54.7211L276.706 57.8675L272.373 60.7994L270.302 57.7397L270.842 57.376L272.492 59.815L275.747 57.6132L275.746 57.6105ZM273.86 58.969L272.352 56.7406L272.878 56.3832L274.387 58.6117L273.86 58.969Z" fill="#BBC5F7"/>
<path d="M273.758 52.8835L269.547 54.69L270.254 56.3383L269.657 56.5948L267.951 52.6163L268.548 52.3598L269.256 54.0082L273.468 52.2018L273.758 52.8835Z" fill="#BBC5F7"/>
<path d="M269.336 51.0287L267.775 51.079L268.166 50.8691C268.203 51.0081 268.194 51.1363 268.135 51.2543C268.076 51.3724 267.972 51.4529 267.827 51.4916C267.677 51.5318 267.546 51.5203 267.431 51.4517C267.316 51.3831 267.239 51.2811 267.2 51.1482C267.163 51.0092 267.176 50.883 267.245 50.7709C267.315 50.6588 267.419 50.5811 267.559 50.5438C267.602 50.5321 267.646 50.5204 267.694 50.5135C267.741 50.5065 267.795 50.5008 267.857 50.5018C267.919 50.5028 268.002 50.5069 268.1 50.5155L269.204 50.5791L269.332 51.0329L269.336 51.0287Z" fill="#BBC5F7"/>
<path d="M272.015 46.641C272.071 47.0351 272.066 47.422 271.998 47.7997C271.93 48.1774 271.813 48.4834 271.651 48.7195L271.033 48.5287C271.178 48.3058 271.284 48.0349 271.352 47.7127C271.421 47.3904 271.433 47.063 271.385 46.7338C271.343 46.4326 271.273 46.1941 271.175 46.0157C271.078 45.8373 270.963 45.7132 270.83 45.6436C270.697 45.5712 270.553 45.5483 270.401 45.5687C270.223 45.5929 270.09 45.6725 269.997 45.8055C269.907 45.9378 269.839 46.0991 269.8 46.2935C269.762 46.4879 269.731 46.7007 269.714 46.9303C269.697 47.16 269.671 47.3918 269.637 47.6258C269.604 47.8599 269.548 48.0765 269.47 48.2784C269.392 48.4775 269.277 48.6458 269.119 48.7875C268.96 48.9264 268.742 49.017 268.466 49.0559C268.199 49.0953 267.944 49.0585 267.699 48.9517C267.453 48.8422 267.242 48.6534 267.063 48.3798C266.885 48.1062 266.764 47.7413 266.698 47.2885C266.655 46.9872 266.65 46.6847 266.687 46.3767C266.725 46.0687 266.801 45.797 266.915 45.5588L267.542 45.7181C267.427 45.9624 267.353 46.2101 267.322 46.4667C267.292 46.7232 267.293 46.9683 267.326 47.1992C267.368 47.4887 267.44 47.7237 267.54 47.9014C267.64 48.0791 267.761 48.2017 267.895 48.2679C268.031 48.3368 268.177 48.359 268.329 48.3386C268.512 48.313 268.649 48.2326 268.74 48.1031C268.833 47.97 268.894 47.8074 268.933 47.613C268.971 47.4186 268.999 47.2066 269.019 46.9762C269.039 46.7459 269.065 46.514 269.096 46.2807C269.127 46.0474 269.183 45.8308 269.257 45.6297C269.335 45.4305 269.45 45.2594 269.606 45.1213C269.762 44.9831 269.975 44.8939 270.248 44.8558C270.51 44.8178 270.762 44.8554 271.008 44.9649C271.253 45.0744 271.463 45.2694 271.643 45.5484C271.823 45.8275 271.944 46.1924 272.011 46.6479L272.015 46.641Z" fill="#BBC5F7"/>
<path d="M272.051 39.5692C271.992 39.968 271.875 40.3267 271.694 40.6439C271.515 40.9605 271.285 41.2239 271.011 41.4345C270.735 41.6459 270.428 41.7983 270.087 41.8896C269.746 41.9809 269.383 41.9994 269 41.9415C268.616 41.8836 268.272 41.7654 267.973 41.5794C267.672 41.3942 267.423 41.1601 267.218 40.876C267.016 40.5912 266.872 40.2732 266.792 39.9178C266.711 39.5625 266.7 39.1827 266.758 38.7785C266.818 38.3681 266.94 38.0052 267.123 37.6845C267.305 37.3637 267.548 37.1029 267.849 36.9055L268.241 37.4315C268.003 37.6122 267.817 37.8227 267.684 38.0571C267.551 38.2914 267.464 38.5544 267.422 38.8461C267.378 39.1412 267.387 39.4252 267.45 39.6918C267.511 39.9619 267.618 40.199 267.768 40.4101C267.918 40.6212 268.108 40.7953 268.338 40.9325C268.567 41.0697 268.825 41.1584 269.111 41.2016C269.391 41.2434 269.662 41.2293 269.922 41.1653C270.182 41.0986 270.412 40.9873 270.621 40.829C270.827 40.6715 270.999 40.4735 271.134 40.2357C271.269 39.9979 271.359 39.7315 271.402 39.4364C271.442 39.1598 271.44 38.8887 271.389 38.6219C271.337 38.355 271.23 38.0974 271.059 37.851L271.684 37.5112C271.864 37.7992 271.983 38.1237 272.043 38.4815C272.104 38.8392 272.108 39.2033 272.054 39.5685L272.051 39.5692ZM271.482 38.2081L269.56 37.9255L269.665 37.2165L271.684 37.5112L271.485 38.2074L271.482 38.2081Z" fill="#BBC5F7"/>
<path d="M273.52 34.3403C273.367 34.7085 273.166 35.0254 272.912 35.2892C272.658 35.5529 272.371 35.7556 272.054 35.8931C271.735 36.0313 271.4 36.1033 271.049 36.1099C270.697 36.1165 270.342 36.0451 269.987 35.9005C269.633 35.7558 269.331 35.5562 269.085 35.3036C268.839 35.051 268.652 34.7652 268.521 34.4408C268.391 34.1192 268.331 33.7758 268.335 33.4095C268.34 33.0458 268.419 32.6769 268.571 32.3032C268.723 31.9351 268.922 31.6189 269.174 31.3586C269.422 31.099 269.707 30.897 270.026 30.7561C270.345 30.6152 270.682 30.5424 271.032 30.5393C271.384 30.5354 271.739 30.6068 272.098 30.7562C272.458 30.9021 272.76 31.1017 273.008 31.3509C273.256 31.6 273.444 31.8885 273.572 32.2136C273.7 32.5387 273.76 32.8821 273.755 33.243C273.749 33.6039 273.672 33.9694 273.519 34.3376L273.52 34.3403ZM272.906 34.0871C273.015 33.8209 273.072 33.5516 273.073 33.2853C273.075 33.0189 273.026 32.7692 272.927 32.5298C272.828 32.2932 272.683 32.0807 272.496 31.8942C272.309 31.7077 272.082 31.5582 271.816 31.4483C271.55 31.3385 271.284 31.284 271.018 31.2851C270.752 31.2861 270.503 31.3383 270.267 31.4367C270.03 31.5352 269.818 31.6798 269.633 31.8725C269.447 32.0626 269.298 32.2924 269.188 32.5585C269.077 32.8308 269.021 33.1001 269.019 33.3665C269.017 33.6328 269.065 33.886 269.164 34.1253C269.263 34.3647 269.405 34.5779 269.592 34.7644C269.78 34.9509 270.007 35.1005 270.276 35.2096C270.542 35.3195 270.808 35.3739 271.073 35.3728C271.339 35.3718 271.588 35.3197 271.826 35.2177C272.065 35.1158 272.278 34.9712 272.463 34.7785C272.648 34.5884 272.796 34.3559 272.908 34.0863L272.906 34.0871Z" fill="#BBC5F7"/>
<path d="M277.297 27.9544L273.526 24.3276L274.045 23.7883L277.347 26.9649L279.31 24.9225L279.778 25.3726L277.297 27.9544Z" fill="#BBC5F7"/>
<path d="M280.514 24.0329L283.005 22.2725L283.381 22.8029L280.281 24.9953L277.261 20.7233L280.278 18.5912L280.653 19.1217L278.248 20.821L280.517 24.0321L280.514 24.0329ZM279.116 22.1723L281.315 20.6188L281.681 21.1371L279.482 22.6905L279.116 22.1723Z" fill="#BBC5F7"/>
<path d="M285.198 21.9484L283.308 17.7738L281.674 18.5127L281.407 17.9208L285.349 16.134L285.616 16.7258L283.982 17.4647L285.872 21.6393L285.197 21.9457L285.198 21.9484Z" fill="#BBC5F7"/>
<path d="M286.963 17.4895L286.881 15.9278L287.098 16.3137C286.96 16.3564 286.83 16.3477 286.711 16.2887C286.593 16.2298 286.511 16.1292 286.468 15.9889C286.422 15.8404 286.433 15.7087 286.498 15.5919C286.564 15.4751 286.666 15.3981 286.798 15.3569C286.935 15.3142 287.062 15.3271 287.176 15.3957C287.29 15.4615 287.368 15.5664 287.411 15.7039C287.423 15.7475 287.434 15.7912 287.444 15.8382C287.454 15.8853 287.457 15.94 287.458 16.0009C287.457 16.0626 287.456 16.1448 287.451 16.2455L287.411 17.3518L286.96 17.4875L286.963 17.4895Z" fill="#BBC5F7"/>
<path d="M291.409 20.0796C291.014 20.1445 290.629 20.1455 290.25 20.0834C289.871 20.0213 289.561 19.9115 289.324 19.756L289.502 19.1354C289.727 19.2768 290.002 19.3755 290.325 19.4379C290.649 19.5002 290.975 19.5064 291.305 19.4501C291.604 19.402 291.841 19.3268 292.019 19.2266C292.194 19.1271 292.317 19.0093 292.386 18.874C292.455 18.7386 292.478 18.5951 292.452 18.4416C292.422 18.2654 292.342 18.1319 292.207 18.0424C292.075 17.9522 291.91 17.8913 291.713 17.8536C291.516 17.8185 291.305 17.7933 291.077 17.7814C290.849 17.7695 290.615 17.7474 290.381 17.7164C290.145 17.6862 289.927 17.6364 289.726 17.5618C289.526 17.4898 289.352 17.3757 289.21 17.2179C289.07 17.0628 288.976 16.8452 288.929 16.5715C288.884 16.3059 288.915 16.0494 289.018 15.8025C289.122 15.5557 289.31 15.3416 289.579 15.1584C289.848 14.9752 290.211 14.8459 290.665 14.7711C290.964 14.723 291.268 14.7117 291.577 14.7428C291.887 14.7739 292.16 14.8439 292.4 14.9549L292.253 15.5845C292.007 15.4722 291.755 15.4053 291.499 15.3774C291.244 15.3522 290.997 15.3571 290.767 15.3952C290.477 15.4439 290.246 15.5203 290.069 15.6233C289.895 15.7282 289.773 15.8487 289.707 15.9861C289.642 16.1234 289.622 16.2689 289.645 16.4205C289.677 16.6021 289.757 16.7383 289.892 16.8278C290.027 16.9173 290.19 16.9789 290.385 17.0112C290.581 17.0435 290.792 17.0687 291.021 17.0833C291.25 17.098 291.484 17.12 291.716 17.1483C291.952 17.1758 292.17 17.2256 292.37 17.2975C292.57 17.3695 292.742 17.4843 292.884 17.636C293.025 17.7911 293.12 18.0024 293.163 18.2714C293.206 18.5316 293.175 18.7854 293.069 19.033C292.963 19.2805 292.772 19.4953 292.497 19.68C292.222 19.8647 291.857 19.9947 291.406 20.0687L291.409 20.0796Z" fill="#BBC5F7"/>
<path d="M298.476 19.9767C298.077 19.926 297.717 19.8149 297.396 19.641C297.074 19.467 296.808 19.2462 296.592 18.974C296.375 18.7017 296.218 18.399 296.119 18.0604C296.022 17.7211 295.996 17.36 296.044 16.9731C296.093 16.5889 296.207 16.2426 296.386 15.9376C296.564 15.6327 296.794 15.3783 297.074 15.1689C297.354 14.9594 297.671 14.8131 298.024 14.7243C298.377 14.6355 298.756 14.6189 299.163 14.6675C299.574 14.7181 299.941 14.8331 300.266 15.009C300.591 15.185 300.853 15.4216 301.058 15.7201L300.541 16.1217C300.355 15.888 300.143 15.7053 299.904 15.5793C299.665 15.4505 299.404 15.3686 299.111 15.3331C298.814 15.2957 298.532 15.31 298.263 15.3761C297.995 15.4423 297.758 15.5524 297.551 15.7072C297.344 15.8619 297.174 16.0538 297.041 16.2881C296.907 16.5197 296.824 16.7785 296.788 17.066C296.752 17.3473 296.769 17.6175 296.841 17.8757C296.91 18.1347 297.027 18.3635 297.19 18.5682C297.353 18.7729 297.552 18.9386 297.792 19.0702C298.032 19.2017 298.3 19.2848 298.596 19.3223C298.874 19.3559 299.143 19.348 299.409 19.2942C299.676 19.2404 299.928 19.126 300.173 18.9493L300.525 19.565C300.241 19.7492 299.919 19.8765 299.56 19.9435C299.201 20.0104 298.842 20.0219 298.476 19.9767ZM299.826 19.3783L300.069 17.449L300.78 17.539L300.524 19.5623L299.826 19.3755L299.826 19.3783Z" fill="#BBC5F7"/>
<path d="M303.734 21.3411C303.362 21.1981 303.041 21.0009 302.772 20.7514C302.504 20.5019 302.294 20.222 302.151 19.904C302.005 19.5894 301.927 19.2539 301.914 18.9009C301.901 18.5478 301.964 18.1921 302.102 17.8365C302.241 17.4809 302.433 17.1751 302.681 16.9217C302.929 16.671 303.21 16.476 303.53 16.3405C303.851 16.205 304.192 16.137 304.556 16.1329C304.92 16.1289 305.29 16.202 305.668 16.3463C306.039 16.4893 306.358 16.6846 306.625 16.9286C306.892 17.1726 307.098 17.4533 307.245 17.7705C307.391 18.0878 307.471 18.4199 307.481 18.7737C307.491 19.1247 307.429 19.4831 307.286 19.8457C307.147 20.2074 306.955 20.516 306.71 20.7687C306.465 21.0213 306.181 21.2144 305.86 21.3498C305.537 21.4833 305.196 21.5513 304.834 21.5547C304.472 21.5553 304.105 21.4841 303.734 21.3411ZM303.977 20.7208C304.247 20.8238 304.515 20.8747 304.779 20.871C305.044 20.8672 305.296 20.8144 305.531 20.7104C305.766 20.6065 305.975 20.4599 306.158 20.2679C306.341 20.0786 306.486 19.8468 306.589 19.5767C306.692 19.3066 306.743 19.0387 306.734 18.7753C306.727 18.5111 306.672 18.2601 306.568 18.025C306.464 17.7898 306.315 17.5815 306.12 17.3999C305.925 17.2183 305.694 17.0757 305.426 16.9693C305.152 16.8616 304.881 16.8114 304.616 16.8152C304.351 16.819 304.099 16.8718 303.861 16.9737C303.622 17.0756 303.413 17.2222 303.228 17.415C303.045 17.6043 302.9 17.8361 302.797 18.1062C302.694 18.3763 302.643 18.6442 302.649 18.9083C302.656 19.1725 302.714 19.4228 302.819 19.6607C302.926 19.8978 303.076 20.1061 303.27 20.2877C303.465 20.4693 303.7 20.6139 303.974 20.7216L303.977 20.7208Z" fill="#BBC5F7"/>
<path d="M310.194 24.9955L313.747 21.1566L314.295 21.6643L311.184 25.0255L313.263 26.9492L312.821 27.427L310.191 24.9963L310.194 24.9955Z" fill="#BBC5F7"/>
<path d="M314.177 28.1357L315.987 30.5933L315.462 30.9793L313.211 27.9213L317.423 24.8202L319.614 27.7951L319.089 28.1811L317.343 25.8088L314.178 28.1385L314.177 28.1357ZM316.008 26.7042L317.603 28.8716L317.09 29.2486L315.496 27.0811L316.008 26.7042Z" fill="#BBC5F7"/>
<path d="M316.354 32.7823L320.489 30.8122L319.717 29.193L320.302 28.9134L322.164 32.8208L321.576 33.1012L320.803 31.482L316.668 33.4521L316.348 32.7838L316.354 32.7823Z" fill="#BBC5F7"/>
<path d="M320.843 34.4552L322.402 34.3413L322.019 34.5668C321.973 34.43 321.979 34.2998 322.035 34.1798C322.09 34.0597 322.188 33.9779 322.33 33.931C322.475 33.8834 322.609 33.8914 322.729 33.9558C322.845 34.021 322.927 34.1189 322.968 34.251C323.014 34.3878 323.004 34.5133 322.938 34.6301C322.873 34.7469 322.772 34.8267 322.634 34.8694C322.591 34.8811 322.547 34.8927 322.501 34.9052C322.454 34.9176 322.4 34.9205 322.339 34.9223C322.278 34.924 322.196 34.9226 322.095 34.9175L320.988 34.8984L320.842 34.4497L320.843 34.4552Z" fill="#BBC5F7"/>
<path d="M318.342 38.9501C318.269 38.5577 318.259 38.1717 318.315 37.7915C318.368 37.412 318.472 37.1008 318.627 36.8606L319.25 37.0268C319.115 37.2529 319.019 37.5298 318.961 37.8553C318.904 38.1801 318.907 38.5066 318.966 38.8356C319.023 39.1331 319.101 39.3721 319.203 39.5436C319.305 39.7179 319.425 39.8377 319.562 39.9032C319.697 39.9694 319.842 39.9888 319.995 39.9596C320.17 39.9272 320.302 39.8421 320.389 39.7078C320.476 39.5736 320.536 39.4055 320.566 39.2106C320.598 39.0149 320.617 38.8023 320.625 38.5722C320.634 38.342 320.65 38.1096 320.675 37.875C320.7 37.6405 320.746 37.4206 320.815 37.2182C320.883 37.0157 320.995 36.8427 321.148 36.6964C321.302 36.55 321.516 36.4547 321.788 36.4022C322.052 36.3518 322.311 36.379 322.559 36.4761C322.807 36.5733 323.026 36.7572 323.215 37.0251C323.403 37.2931 323.54 37.6509 323.623 38.1021C323.679 38.3996 323.694 38.7054 323.668 39.0132C323.643 39.3211 323.58 39.598 323.472 39.8401L322.84 39.7056C322.946 39.4581 323.01 39.2044 323.031 38.9473C323.053 38.6902 323.04 38.4453 322.999 38.2166C322.945 37.9272 322.866 37.6972 322.758 37.5244C322.651 37.3516 322.528 37.2325 322.389 37.1705C322.249 37.1085 322.104 37.089 321.954 37.1176C321.773 37.1514 321.637 37.2345 321.551 37.3715C321.465 37.5058 321.407 37.6731 321.378 37.868C321.348 38.063 321.326 38.2762 321.318 38.5064C321.307 38.7373 321.29 38.9697 321.268 39.2035C321.246 39.4374 321.2 39.6572 321.131 39.8597C321.063 40.0621 320.951 40.2351 320.803 40.38C320.652 40.5257 320.441 40.623 320.174 40.6713C319.915 40.7202 319.659 40.6923 319.411 40.5924C319.161 40.4898 318.942 40.3059 318.752 40.0325C318.562 39.7591 318.425 39.4013 318.342 38.9501Z" fill="#BBC5F7"/>
<path d="M318.582 46.0182C318.624 45.6184 318.731 45.2537 318.896 44.9319C319.064 44.6094 319.28 44.3353 319.548 44.1144C319.816 43.8936 320.116 43.7283 320.453 43.6234C320.791 43.5184 321.15 43.4864 321.538 43.5285C321.923 43.5685 322.271 43.677 322.58 43.8485C322.886 44.0206 323.148 44.2456 323.362 44.5213C323.576 44.797 323.73 45.1094 323.827 45.4603C323.921 45.812 323.949 46.1902 323.906 46.5962C323.862 47.0084 323.756 47.3785 323.587 47.7045C323.418 48.0332 323.185 48.3001 322.894 48.5097L322.482 48.0004C322.712 47.8103 322.89 47.593 323.013 47.3527C323.136 47.1124 323.213 46.8461 323.243 46.5546C323.275 46.257 323.255 45.9759 323.183 45.7087C323.112 45.4416 322.996 45.2066 322.837 45.0039C322.676 44.7985 322.481 44.6347 322.247 44.5045C322.011 44.3777 321.751 44.2985 321.465 44.267C321.182 44.2376 320.913 44.2599 320.656 44.3347C320.398 44.4096 320.171 44.5319 319.97 44.6995C319.77 44.8672 319.608 45.0712 319.48 45.313C319.352 45.5548 319.275 45.8238 319.244 46.1214C319.216 46.3978 319.23 46.6687 319.289 46.9333C319.348 47.198 319.468 47.4493 319.65 47.69L319.04 48.0548C318.848 47.7733 318.716 47.4551 318.641 47.0983C318.566 46.7415 318.548 46.381 318.587 46.014L318.582 46.0182ZM319.207 47.3558L321.14 47.5595L321.065 48.2721L319.035 48.0563L319.206 47.353L319.207 47.3558Z" fill="#BBC5F7"/>
<path d="M317.326 51.2964C317.462 50.921 317.653 50.598 317.895 50.3229C318.137 50.0477 318.416 49.8355 318.729 49.6844C319.042 49.5333 319.373 49.4477 319.726 49.426C320.077 49.405 320.434 49.4613 320.796 49.5921C321.156 49.7237 321.466 49.9095 321.721 50.1537C321.979 50.3945 322.176 50.6746 322.317 50.9933C322.46 51.3086 322.534 51.651 322.545 52.0165C322.555 52.3819 322.491 52.7527 322.352 53.1316C322.216 53.507 322.028 53.8292 321.788 54.1009C321.548 54.3726 321.272 54.584 320.96 54.7379C320.647 54.8917 320.314 54.9781 319.962 54.9963C319.611 55.0146 319.253 54.9555 318.887 54.8227C318.521 54.6899 318.212 54.5041 317.954 54.2633C317.697 54.0225 317.496 53.7432 317.355 53.4244C317.215 53.1057 317.14 52.7633 317.132 52.4033C317.122 52.0406 317.187 51.6725 317.324 51.2998L317.326 51.2964ZM317.951 51.5262C317.852 51.7983 317.807 52.0674 317.817 52.3336C317.827 52.5997 317.885 52.85 317.994 53.081C318.103 53.3146 318.255 53.5195 318.449 53.7011C318.643 53.88 318.876 54.0191 319.149 54.1186C319.421 54.2181 319.689 54.2601 319.952 54.2482C320.217 54.2355 320.464 54.1752 320.698 54.0659C320.931 53.9565 321.136 53.8052 321.314 53.6057C321.492 53.4089 321.63 53.1731 321.73 52.901C321.831 52.6255 321.875 52.3536 321.868 52.0867C321.858 51.8206 321.8 51.5703 321.692 51.3332C321.585 51.096 321.434 50.8911 321.239 50.7096C321.045 50.5307 320.812 50.3915 320.54 50.292C320.268 50.1926 319.999 50.1505 319.737 50.1625C319.471 50.1752 319.222 50.2362 318.989 50.3483C318.756 50.4604 318.548 50.6124 318.371 50.8119C318.193 51.0086 318.052 51.2479 317.953 51.5227L317.951 51.5262Z" fill="#BBC5F7"/>
<path d="M313.805 57.827L317.717 61.3021L317.221 61.8616L313.796 58.8199L311.916 60.9396L311.429 60.509L313.807 57.8324L313.805 57.827Z" fill="#BBC5F7"/>
<path d="M310.744 61.8752L308.325 63.7329L307.93 63.2165L310.942 60.9045L314.129 65.0532L311.199 67.3022L310.803 66.7858L313.139 64.9911L310.746 61.8718L310.744 61.8752ZM312.212 63.6792L310.077 65.3178L309.69 64.8136L311.825 63.175L312.212 63.6792Z" fill="#BBC5F7"/>
<path d="M306.14 64.1493L308.196 68.2444L309.801 67.4403L310.091 68.0229L306.223 69.9652L305.932 69.3827L307.537 68.5786L305.481 64.4835L306.143 64.1513L306.14 64.1493Z" fill="#BBC5F7"/>
<path d="M304.558 68.67L304.703 70.2265L304.47 69.8477C304.606 69.7995 304.736 69.8028 304.858 69.8549C304.98 69.9069 305.064 70.0041 305.114 70.1456C305.165 70.2927 305.159 70.4228 305.097 70.5416C305.036 70.6604 304.938 70.7422 304.807 70.7889C304.671 70.837 304.543 70.8276 304.427 70.7652C304.311 70.7028 304.228 70.6021 304.18 70.466C304.166 70.4231 304.154 70.3795 304.144 70.3324C304.132 70.2861 304.126 70.2321 304.124 70.1685C304.121 70.1048 304.12 70.0234 304.122 69.9234L304.118 68.8171L304.562 68.6631L304.558 68.67Z" fill="#BBC5F7"/>
<path d="M300.017 66.26C300.408 66.1789 300.795 66.1628 301.176 66.2098C301.556 66.2568 301.869 66.3542 302.113 66.5021L301.959 67.1277C301.728 66.9967 301.45 66.9076 301.124 66.8576C300.798 66.8076 300.473 66.8158 300.146 66.883C299.847 66.9455 299.612 67.0261 299.442 67.1331C299.269 67.2407 299.153 67.3625 299.09 67.4991C299.027 67.6357 299.011 67.7805 299.043 67.9326C299.078 68.1073 299.165 68.2386 299.302 68.3219C299.438 68.4052 299.605 68.4626 299.802 68.4887C299.999 68.5149 300.212 68.5339 300.443 68.5362C300.672 68.5392 300.906 68.5523 301.142 68.5709C301.379 68.5923 301.597 68.6331 301.801 68.6982C302.006 68.7632 302.181 68.8711 302.329 69.0213C302.478 69.1715 302.578 69.3841 302.634 69.6584C302.687 69.9218 302.668 70.1781 302.576 70.431C302.482 70.6811 302.305 70.9038 302.041 71.0972C301.777 71.2906 301.422 71.4356 300.973 71.5266C300.674 71.5892 300.372 71.6086 300.064 71.5919C299.756 71.5752 299.479 71.5148 299.233 71.4115L299.355 70.7768C299.604 70.8794 299.859 70.9367 300.115 70.953C300.373 70.9685 300.617 70.9527 300.845 70.9065C301.132 70.8468 301.361 70.7622 301.533 70.6518C301.705 70.5414 301.817 70.415 301.879 70.2756C301.939 70.137 301.955 69.9895 301.923 69.8401C301.887 69.66 301.799 69.5287 301.662 69.4426C301.526 69.3594 301.359 69.3047 301.162 69.2785C300.965 69.2524 300.753 69.2361 300.524 69.2304C300.295 69.2247 300.06 69.2115 299.825 69.1956C299.589 69.177 299.371 69.1361 299.166 69.0711C298.962 69.0061 298.788 68.9008 298.639 68.7507C298.492 68.6032 298.392 68.3933 298.334 68.1252C298.28 67.868 298.302 67.6109 298.398 67.3601C298.495 67.1093 298.677 66.8851 298.944 66.6909C299.213 66.4961 299.569 66.3539 300.02 66.2593L300.017 66.26Z" fill="#BBC5F7"/>
<path d="M292.956 66.6391C293.357 66.6748 293.723 66.7728 294.048 66.9309C294.375 67.0918 294.651 67.3042 294.879 67.5646C295.107 67.8278 295.277 68.1241 295.387 68.4598C295.498 68.7954 295.539 69.1555 295.505 69.5416C295.471 69.9276 295.372 70.2784 295.204 70.5893C295.036 70.9002 294.818 71.1661 294.546 71.385C294.275 71.6038 293.965 71.7658 293.615 71.8683C293.266 71.9707 292.889 72.0044 292.483 71.9702C292.07 71.9347 291.698 71.8355 291.368 71.6726C291.038 71.5097 290.764 71.2822 290.55 70.9949L291.051 70.5743C291.246 70.8024 291.465 70.9747 291.707 71.0939C291.949 71.213 292.217 71.2845 292.51 71.3083C292.809 71.3334 293.088 71.3082 293.354 71.2312C293.62 71.1541 293.85 71.0338 294.052 70.8716C294.254 70.7094 294.417 70.5081 294.541 70.2732C294.664 70.0356 294.737 69.7736 294.762 69.4863C294.786 69.2024 294.758 68.9352 294.678 68.6792C294.597 68.4231 294.47 68.2 294.3 68.0002C294.13 67.8031 293.921 67.643 293.678 67.5211C293.432 67.4 293.161 67.3265 292.865 67.3007C292.586 67.2759 292.314 67.2962 292.052 67.3636C291.789 67.4283 291.539 67.5537 291.302 67.7371L290.926 67.1334C291.204 66.9363 291.521 66.7988 291.875 66.7155C292.23 66.6322 292.592 66.6083 292.959 66.6384L292.956 66.6391ZM291.632 67.292L291.464 69.2275L290.749 69.1649L290.923 67.1314L291.629 67.29L291.632 67.292Z" fill="#BBC5F7"/>
<path d="M287.651 65.4858C288.028 65.6157 288.358 65.7991 288.638 66.0368C288.918 66.2744 289.134 66.5494 289.293 66.8576C289.452 67.1657 289.543 67.4976 289.571 67.8497C289.598 68.2019 289.55 68.5594 289.425 68.9202C289.3 69.2838 289.121 69.5949 288.884 69.857C288.647 70.1191 288.372 70.3216 288.058 70.47C287.744 70.6183 287.404 70.7007 287.04 70.7192C286.677 70.7376 286.302 70.6802 285.92 70.5491C285.543 70.4192 285.217 70.2377 284.941 70.0048C284.665 69.7719 284.449 69.4996 284.287 69.1894C284.128 68.8786 284.037 68.5494 284.01 68.1973C283.986 67.8471 284.035 67.4862 284.162 67.1192C284.289 66.7521 284.467 66.4356 284.703 66.1735C284.937 65.9121 285.212 65.7069 285.53 65.5605C285.847 65.4141 286.184 65.3325 286.546 65.3175C286.907 65.3025 287.276 65.3586 287.652 65.4885L287.651 65.4858ZM287.437 66.1158C287.164 66.0225 286.894 65.9839 286.628 65.9966C286.364 66.012 286.115 66.0758 285.882 66.1879C285.652 66.2992 285.448 66.456 285.271 66.6555C285.096 66.8542 284.96 67.0893 284.867 67.3627C284.774 67.636 284.734 67.9037 284.753 68.1677C284.771 68.4316 284.835 68.6805 284.949 68.9099C285.063 69.1394 285.219 69.3429 285.421 69.5168C285.622 69.6907 285.86 69.8257 286.134 69.919C286.41 70.0143 286.684 70.0549 286.949 70.0395C287.214 70.0241 287.463 69.9631 287.699 69.8502C287.932 69.7381 288.136 69.5841 288.313 69.3846C288.488 69.1859 288.624 68.9508 288.717 68.6774C288.81 68.4041 288.85 68.1364 288.832 67.8724C288.813 67.6085 288.747 67.3604 288.632 67.1282C288.517 66.896 288.358 66.6932 288.156 66.5193C287.955 66.3454 287.714 66.2111 287.437 66.1158Z" fill="#BBC5F7"/>
<path d="M304.149 76.4439C322.479 71.5324 333.356 52.6913 328.445 34.3613C323.533 16.0313 304.692 5.15339 286.362 10.0649C268.032 14.9764 257.154 33.8174 262.066 52.1475C266.977 70.4775 285.818 81.3554 304.149 76.4439Z" stroke="#BBC5F7"/>
<path d="M299.987 60.9154C309.741 58.3019 315.529 48.2763 312.916 38.5225C310.302 28.7688 300.277 22.9805 290.523 25.594C280.769 28.2075 274.981 38.2331 277.594 47.9869C280.208 57.7406 290.234 63.5289 299.987 60.9154Z" stroke="#BBC5F7"/>
<mask id="mask1_256_2304" style="mask-type:luminance" maskUnits="userSpaceOnUse" x="281" y="31" width="30" height="29">
<path d="M304.997 31.0606L281.096 37.4648L287.06 59.7248L310.961 53.3205L304.997 31.0606Z" fill="white"/>
</mask>
<g mask="url(#mask1_256_2304)">
<path d="M284.426 37.9663C285.403 39.072 286.628 39.9887 287.746 40.9455C288.745 41.7968 289.746 42.8144 290.93 43.3853C291.091 43.462 291.322 43.2891 291.199 43.1118C290.399 41.9702 289.16 41.1072 288.096 40.2118C287.035 39.3157 285.949 38.2946 284.741 37.5399C284.468 37.3706 284.22 37.7438 284.417 37.9658L284.424 37.9698L284.426 37.9663Z" fill="white"/>
<path d="M287.207 44.9206C288.55 41.7672 289.882 38.4941 290.731 35.1723C290.781 34.9777 290.49 34.8396 290.396 35.0342C288.892 38.1137 287.77 41.4619 286.75 44.7304C286.669 44.9947 287.093 45.182 287.204 44.9213L287.207 44.9206Z" fill="white"/>
<path d="M295.804 35.3349L295.484 35.0788L295.166 35.497C296.387 36.3651 297.671 37.1459 298.931 37.9538C300.053 38.6729 301.155 39.5376 302.409 39.9875C302.578 40.0477 302.691 39.8157 302.575 39.7006C301.634 38.7518 300.37 38.1117 299.245 37.4049C297.983 36.6093 296.731 35.7732 295.431 35.0434C295.134 34.8745 294.88 35.3224 295.165 35.5031L295.516 35.7218C295.746 35.8617 296.025 35.5154 295.808 35.3396L295.801 35.3357L295.804 35.3349Z" fill="white"/>
<path d="M298.387 42.173C299.211 39.2289 300.257 36.24 300.701 33.2078C300.739 32.9347 300.384 32.8338 300.288 33.0963C299.216 35.9665 298.697 39.089 298.008 42.0671C297.948 42.3139 298.323 42.4151 298.39 42.1723L298.387 42.173Z" fill="white"/>
<path d="M283.749 47.3482C286.506 52.8364 294.995 51.6721 299.824 50.2524C304.139 48.9851 309.566 44.3403 307.08 39.2966C306.905 38.9463 306.417 39.2085 306.476 39.5492C307.494 45.1351 303.517 48.5821 298.425 49.7652C293.658 50.8703 287.392 51.4974 284.086 47.1529C283.936 46.9561 283.633 47.1194 283.744 47.3496L283.749 47.3482Z" fill="white"/>
<path d="M299.323 50.1917C299.303 52.7129 300.697 56.5207 303.941 55.1578C307.187 53.7941 306.307 49.571 305.223 47.0328C305.077 46.695 304.578 46.9896 304.726 47.324C305.67 49.4524 306.592 52.6327 304.322 54.3017C302.941 55.3177 301.299 54.8633 300.435 53.4381C299.832 52.4514 299.75 51.2724 299.532 50.1649C299.509 50.0455 299.321 50.0754 299.323 50.1917Z" fill="white"/>
<path d="M302.154 49.1112C302.25 49.775 302.605 50.4133 302.873 51.0222C303.142 51.6311 303.359 52.3094 303.85 52.768C303.923 52.8332 304.058 52.794 304.055 52.6838C304.034 52.0378 303.695 51.4479 303.429 50.8705C303.129 50.2203 302.876 49.505 302.411 48.9603C302.3 48.8294 302.129 48.9746 302.148 49.1126L302.155 49.1166L302.154 49.1112Z" fill="white"/>
</g>
</g>
</g>
<defs>
<clipPath id="clip0_256_2304">
<rect width="350" height="240" fill="white"/>
</clipPath>
<clipPath id="clip1_256_2304">
<rect width="155" height="137" fill="white" transform="translate(191 90)"/>
</clipPath>
<clipPath id="clip2_256_2304">
<rect width="69" height="69" fill="white" transform="translate(253 18.8584) rotate(-15)"/>
</clipPath>
</defs>
</svg>
