<?xml version="1.0" encoding="UTF-8"?>
<svg id="Capa_2" data-name="Capa 2" xmlns="http://www.w3.org/2000/svg" viewBox="0 0 72.25 85.75">
  <defs>
    <style>
      .cls-1 {
        fill: #1a191e;
      }

      .cls-2 {
        fill: #fff;
      }
    </style>
  </defs>
  <g id="Capa_1-2" data-name="Capa 1">
    <g>
      <g>
        <path d="M34.11,70.48h30.95c2.87,0,4.62-5.42,3.31-9.65L53.41,3.25c-.25-.81-3.46-1.86-4.29-1.86h-16.38c-1.68,0-3.38.27-3.31,1.98l2.22,63.42c.09,2.25,1.05,3.69,2.47,3.69Z"/>
        <path class="cls-1" d="M45.5,79.16H8.79c-3.41,0-5.26-6.17-3.53-10.98L25.74,1.5c.33-.92,1.16-1.5,2.15-1.5h21.47c1.99,0,4.32.64,4.05,4.19l-4.82,70.77c-.2,2.56-1.39,4.2-3.08,4.2Z"/>
        <polygon class="cls-1" points="5.26 67.87 0 85.44 7.89 85.44 11.32 74.39 5.26 67.87"/>
        <polygon class="cls-1" points="49.12 67.1 47.9 85.75 40.71 85.75 41.74 74.7 49.12 67.1"/>
        <polygon points="67.42 57.21 72.25 74.62 65.62 74.62 62.74 65.34 67.42 57.21"/>
        <path d="M45.78,6.14h-14.73c-.76,0-1.37-.7-1.37-1.55h0c0-.85.62-1.55,1.37-1.55h14.73c.76,0,1.37.7,1.37,1.55h0c0,.85-.62,1.55-1.37,1.55Z"/>
      </g>
      <path class="cls-2" d="M45.64,46.95h-29.11c-.22,0-.4-.12-.48-.31-.07-.19-.02-.43.13-.62l18.65-23.22c.14-.18.36-.28.56-.28s.38.11.46.28l10.46,23.22c.08.19.05.42-.09.62-.14.19-.37.31-.59.31ZM17.84,45.74h26.92l-9.67-21.47-17.25,21.47Z"/>
      <path class="cls-2" d="M34.12,32.03c-2.64-.01-5.7,1.67-6.32,4.76-.22,1.12-.12,2.28.19,3.25.49,1.57,1.49,2.93,2.92,3.62.38.19.86.19,1.33,0,2.75-1.1,6.29-4.7,6.35-7.7.05-2.62-2.11-3.93-4.47-3.94ZM35.1,39.74c-1.43.85-3.04,1.1-1.54-.99.61-.92,1.83-2.05,2.74-1.47.7.66-.42,1.98-1.19,2.46ZM29.87,37.28c1.17-.58,1.88.55,2.06,1.47.55,2.08-.94,1.83-1.99.99-.56-.47-1.08-1.79-.07-2.46Z"/>
    </g>
  </g>
</svg>