<svg width="616" height="351" viewBox="0 0 616 351" fill="none" xmlns="http://www.w3.org/2000/svg">
<rect x="340.223" y="120.926" width="268" height="57" transform="rotate(-14.8539 340.223 120.926)" stroke="white" stroke-width="2"/>
<path d="M365.175 151.416L372.991 149.343L373.537 151.404L363.183 154.15L359.431 140.001L369.533 137.322L370.12 139.534L362.556 141.54L363.542 145.259L369.347 143.72L369.907 145.831L364.102 147.37L365.175 151.416ZM374.969 151.024L378.016 142.227L371.619 136.769L374.66 135.962L379.293 140.248L381.219 134.223L384.209 133.43L381.434 141.321L388.439 147.452L385.449 148.245L380.126 143.389L377.935 150.238L374.969 151.024ZM392.77 146.303L390.207 146.983L386.454 132.834L392.134 131.328C393.709 130.91 395.036 130.98 396.116 131.536C397.196 132.092 397.947 133.167 398.369 134.758C398.738 136.149 398.575 137.358 397.879 138.385C397.2 139.408 396.098 140.122 394.573 140.526L391.457 141.353L392.77 146.303ZM392.335 133.507L389.571 134.24L390.957 139.468L393.721 138.735C394.626 138.495 395.297 138.084 395.735 137.501C396.172 136.919 396.275 136.192 396.044 135.321C395.808 134.433 395.359 133.853 394.695 133.581C394.043 133.287 393.256 133.263 392.335 133.507ZM404.614 140.956L412.43 138.883L412.977 140.944L402.622 143.69L398.87 129.541L408.973 126.862L409.559 129.074L401.995 131.08L402.981 134.799L408.787 133.26L409.346 135.371L403.541 136.91L404.614 140.956ZM415.288 140.331L411.535 126.182L416.738 124.803C418.564 124.318 420.07 124.251 421.257 124.599C422.439 124.932 423.234 125.868 423.643 127.41C423.949 128.566 423.922 129.577 423.56 130.444C423.194 131.295 422.491 131.857 421.452 132.133C422.039 131.977 422.51 131.996 422.866 132.188C423.234 132.36 423.528 132.623 423.747 132.977C423.967 133.331 424.157 133.711 424.319 134.116C424.48 134.522 424.639 134.883 424.794 135.201C424.963 135.497 425.173 135.683 425.427 135.759C425.697 135.831 426.05 135.71 426.487 135.397L426.881 136.88C426.633 137.233 426.303 137.508 425.89 137.708C425.481 137.924 425.047 138.012 424.588 137.972C424.129 137.933 423.7 137.733 423.299 137.373C422.894 136.996 422.585 136.405 422.372 135.601C422.177 134.864 421.979 134.289 421.78 133.875C421.576 133.445 421.278 133.166 420.885 133.037C420.488 132.891 419.931 132.886 419.214 133.023C418.492 133.142 417.52 133.4 416.298 133.796L417.851 139.651L415.288 140.331ZM415.805 131.936L418.343 131.263C419.164 131.045 419.834 130.832 420.352 130.622C420.866 130.397 421.211 130.108 421.387 129.756C421.575 129.384 421.582 128.871 421.409 128.217C421.218 127.497 420.921 127.02 420.518 126.786C420.116 126.552 419.595 126.484 418.958 126.581C418.332 126.657 417.576 126.813 416.688 127.049L414.652 127.588L415.805 131.936ZM435.057 132.748L435.636 134.934L429.328 136.607L428.749 134.421L430.659 133.914L428.072 124.164L426.162 124.67L425.576 122.459L431.884 120.786L432.47 122.997L430.611 123.49L433.197 133.241L435.057 132.748ZM440.642 131.401L448.458 129.328L449.004 131.389L438.65 134.135L434.898 119.986L445.001 117.307L445.587 119.518L438.023 121.525L439.009 125.244L444.814 123.704L445.374 125.815L439.569 127.355L440.642 131.401ZM457.289 114.048L459.953 113.341L463.706 127.49L458.83 128.783L450.527 117.052L450.477 117.065L453.93 130.083L451.291 130.783L447.538 116.634L452.062 115.434L460.691 127.079L460.742 127.066L457.289 114.048ZM472.78 125.352C471.457 125.703 470.188 125.753 468.973 125.501C467.754 125.233 466.684 124.647 465.763 123.743C464.859 122.835 464.194 121.577 463.767 119.969C463.366 118.39 463.329 116.965 463.656 115.695C463.982 114.424 464.606 113.362 465.527 112.508C466.449 111.654 467.596 111.045 468.97 110.681C470.277 110.334 471.453 110.273 472.499 110.498C473.545 110.723 474.451 111.164 475.217 111.821C476 112.475 476.609 113.281 477.043 114.242L474.404 114.942C474.091 114.236 473.661 113.731 473.115 113.428C472.58 113.104 472.006 112.933 471.392 112.917C470.773 112.883 470.179 112.942 469.61 113.093C468.119 113.489 467.082 114.212 466.5 115.263C465.935 116.31 465.854 117.595 466.259 119.12C466.69 120.745 467.406 121.891 468.408 122.558C469.426 123.22 470.681 123.354 472.172 122.958C472.792 122.794 473.371 122.542 473.908 122.202C474.441 121.845 474.86 121.394 475.163 120.847C475.462 120.283 475.57 119.609 475.487 118.824L478.151 118.118C478.242 119.205 478.112 120.235 477.76 121.207C477.421 122.158 476.838 123.003 476.012 123.742C475.198 124.46 474.121 124.997 472.78 125.352ZM487.503 118.838L488.083 121.025L481.775 122.698L481.195 120.511L483.105 120.005L480.519 110.254L478.609 110.76L478.022 108.549L484.33 106.876L484.917 109.087L483.057 109.581L485.643 119.332L487.503 118.838ZM490.242 120.452L491.014 105.103L495.21 103.99L503.612 116.906L500.873 117.633L498.607 113.957L493.103 115.416L492.957 119.732L490.242 120.452ZM493.436 105.617L493.18 113.271L497.477 112.131L493.436 105.617ZM521.917 104.466C522.411 106.325 522.426 107.872 521.965 109.107C521.515 110.32 520.682 111.303 519.465 112.056C518.248 112.809 516.744 113.423 514.951 113.899L511.056 114.932L507.303 100.783L511.198 99.75C512.991 99.2746 514.62 99.1294 516.086 99.3145C517.547 99.4828 518.776 99.9908 519.772 100.839C520.785 101.682 521.5 102.891 521.917 104.466ZM513.034 112.148L515.12 111.595C516.226 111.301 517.147 110.922 517.885 110.458C518.618 109.976 519.107 109.318 519.351 108.482C519.596 107.646 519.536 106.541 519.171 105.167C518.74 103.542 517.935 102.465 516.754 101.935C515.586 101.384 514.172 101.328 512.514 101.768L510.428 102.321L513.034 112.148ZM531.949 107.05L532.529 109.237L526.221 110.91L525.641 108.723L527.551 108.217L524.965 98.466L523.055 98.9726L522.468 96.761L528.776 95.088L529.363 97.2996L527.503 97.7928L530.089 107.544L531.949 107.05ZM541.572 107.134C540.198 107.499 538.919 107.542 537.733 107.265C536.565 106.983 535.562 106.379 534.724 105.454C533.883 104.511 533.27 103.248 532.886 101.664C532.48 100.068 532.432 98.6374 532.742 97.3716C533.069 96.1014 533.693 95.0393 534.614 94.1853C535.535 93.3313 536.7 92.7177 538.107 92.3444C540.034 91.8334 541.636 91.8568 542.913 92.4146C544.191 92.9723 545.217 94.0004 545.991 95.4987L543.621 96.5037C543.09 95.5149 542.375 94.9154 541.477 94.7054C540.595 94.491 539.685 94.5082 538.747 94.757C537.138 95.1836 536.073 95.9324 535.55 97.0036C535.044 98.0703 534.976 99.3347 535.345 100.797C535.772 102.405 536.528 103.532 537.614 104.176C538.695 104.804 540.031 104.907 541.623 104.485C542.594 104.227 543.414 103.768 544.081 103.106C544.744 102.428 545.058 101.547 545.021 100.463L541.905 101.29L541.405 99.4048L546.934 97.9385L548.787 104.925L547.053 105.385L545.822 103.075L545.771 103.089C545.715 103.552 545.533 104.049 545.225 104.578C544.934 105.104 544.491 105.598 543.897 106.061C543.302 106.523 542.527 106.881 541.572 107.134ZM557.105 100.379L557.684 102.565L551.377 104.238L550.797 102.052L552.707 101.545L550.121 91.7943L548.211 92.3008L547.624 90.0893L553.932 88.4163L554.518 90.6279L552.659 91.1211L555.245 100.872L557.105 100.379ZM556.452 90.1151L555.865 87.9036L566.797 85.0042L567.384 87.2157L563.187 88.3288L566.353 100.266L563.79 100.946L560.624 89.0087L556.452 90.1151ZM570.593 99.1415L571.364 83.7929L575.561 82.6798L583.963 95.5956L581.224 96.3221L578.958 92.6462L573.454 94.1058L573.308 98.4216L570.593 99.1415ZM573.787 84.307L573.531 91.9605L577.828 90.8208L573.787 84.307ZM585.934 95.073L582.181 80.9241L584.744 80.2443L587.917 92.2067L594.904 90.3538L595.483 92.5402L585.934 95.073Z" fill="white"/>
<g clip-path="url(#clip0_229_80)">
<path d="M368.5 350.714C420.872 350.714 463.327 308.309 463.327 256C463.327 203.691 420.872 161.286 368.5 161.286C316.128 161.286 273.673 203.691 273.673 256C273.673 308.309 316.128 350.714 368.5 350.714Z" fill="#6976DF"/>
<path d="M273.673 256C273.673 243.557 276.124 231.246 280.888 219.753C285.651 208.261 292.641 197.818 301.441 189.029C310.249 180.232 320.704 173.257 332.202 168.5C343.716 163.734 356.05 161.286 368.5 161.286V256H273.673Z" fill="url(#paint0_linear_229_80)"/>
<path d="M463.327 256C463.327 268.435 460.876 280.754 456.105 292.247C451.342 303.739 444.351 314.182 435.551 322.979C426.744 331.776 416.289 338.75 404.782 343.508C393.276 348.266 380.95 350.722 368.492 350.722V256.008H463.32L463.327 256Z" fill="url(#paint1_linear_229_80)"/>
<path d="M368.5 161.286C380.95 161.286 393.284 163.734 404.79 168.492C416.296 173.25 426.751 180.232 435.559 189.021C444.366 197.818 451.349 208.261 456.113 219.746C460.876 231.23 463.335 243.55 463.335 255.992H368.508V161.286H368.5Z" fill="url(#paint2_linear_229_80)"/>
<path d="M368.5 350.714C356.043 350.714 343.717 348.266 332.21 343.5C320.704 338.735 310.249 331.761 301.449 322.971C292.641 314.174 285.659 303.732 280.895 292.239C276.132 280.746 273.681 268.435 273.681 255.992H368.508V350.706L368.5 350.714Z" fill="url(#paint3_linear_229_80)"/>
<path d="M368.5 312.784C399.898 312.784 425.351 287.361 425.351 256C425.351 224.639 399.898 199.216 368.5 199.216C337.102 199.216 311.648 224.639 311.648 256C311.648 287.361 337.102 312.784 368.5 312.784Z" stroke="white"/>
<path d="M292.1 239.788L292.997 236.529L304.434 239.657L306.367 232.598L309.027 233.324L306.197 243.642L292.1 239.781V239.788Z" fill="white"/>
<path d="M302.377 229.848C298.542 227.809 297.297 223.322 299.462 219.251C301.619 215.196 306.042 213.698 309.893 215.745C313.744 217.791 314.966 222.294 312.809 226.341C310.643 230.412 306.212 231.887 302.377 229.848ZM308.285 218.765C305.834 217.459 303.235 218.301 302.006 220.603C300.776 222.904 301.534 225.531 303.985 226.828C306.437 228.133 309.035 227.291 310.264 224.99C311.494 222.688 310.736 220.062 308.285 218.765Z" fill="white"/>
<path d="M315.778 198.058L322.428 212.516L320.193 215.003L305.099 209.937L307.542 207.218L318.283 210.879L313.528 200.56L315.77 198.058H315.778Z" fill="white"/>
<path d="M334.7 198.876L336.324 201.047L327.246 207.805L318.515 196.104L327.377 189.508L329.001 191.678L322.838 196.266L324.733 198.807L330.176 194.752L331.746 196.861L326.302 200.915L328.321 203.626L334.7 198.876Z" fill="white"/>
<path d="M348.202 190.574L349.856 195.47L346.647 196.552L344.977 191.616L336.61 184.534L340.013 183.383L345.789 188.28L347.413 180.888L350.56 179.822L348.194 190.566L348.202 190.574Z" fill="white"/>
<path d="M353.699 186.503C353.282 182.186 356.336 178.664 360.93 178.224C365.5 177.783 369.196 180.633 369.614 184.966C370.031 189.299 366.953 192.806 362.383 193.254C357.79 193.694 354.109 190.829 353.692 186.503H353.699ZM366.211 185.298C365.948 182.541 363.806 180.834 361.208 181.089C358.61 181.344 356.839 183.414 357.11 186.179C357.38 188.944 359.515 190.643 362.113 190.388C364.711 190.133 366.482 188.063 366.211 185.298Z" fill="white"/>
<path d="M372.915 186.117L374.199 178.046L377.54 178.579L376.279 186.526C375.846 189.268 376.859 190.589 378.877 190.906C380.919 191.23 382.272 190.288 382.713 187.546L383.973 179.598L387.275 180.124L385.992 188.195C385.319 192.435 382.512 194.397 378.406 193.748C374.3 193.099 372.243 190.365 372.915 186.117Z" fill="white"/>
<path d="M396.021 198.876L394.977 194.041L394.823 193.98L392.101 192.852L390.539 196.606L387.415 195.308L393.029 181.831L398.875 184.256C402.478 185.754 403.963 188.558 402.702 191.585C401.859 193.609 400.22 194.667 398.155 194.69L399.377 200.282L396.021 198.884V198.876ZM397.637 186.72L395.093 185.661L393.137 190.357L395.681 191.415C397.591 192.211 398.921 191.724 399.532 190.257C400.15 188.774 399.547 187.507 397.637 186.712V186.72Z" fill="white"/>
<path d="M405.486 202.476L408.007 201.263C408.37 202.738 409.376 204.399 410.721 205.526C412.26 206.816 413.312 206.824 413.884 206.137C415.639 204.044 407.922 200.02 411.417 195.872C413.018 193.972 415.879 193.678 419.065 196.351C420.472 197.533 421.632 199.077 422.119 200.599L419.668 201.889C419.127 200.429 418.292 199.239 417.302 198.405C415.763 197.115 414.688 197.193 414.1 197.896C412.368 199.958 420.07 203.997 416.621 208.098C415.052 209.967 412.159 210.261 408.958 207.581C407.18 206.09 405.834 204.059 405.486 202.46V202.476Z" fill="white"/>
<path d="M424.083 219.807L421.949 221.491L414.936 212.617L426.411 203.572L433.255 212.231L431.128 213.907L426.365 207.882L423.875 209.844L428.081 215.165L426.017 216.795L421.81 211.474L419.158 213.567L424.083 219.807Z" fill="white"/>
<path d="M435.946 216.641L437.484 219.653L426.914 225.028L430.239 231.555L427.78 232.806L422.916 223.268L435.946 216.641Z" fill="white"/>
<path d="M440.492 234.003L436.773 235.054L438.613 241.557L436 242.298L434.159 235.795L429.04 237.239L428.12 233.988L442.178 230.018L445.186 240.638L442.572 241.372L440.485 234.003H440.492Z" fill="white"/>
<path d="M444.9 272.204L444.003 275.463L432.566 272.335L430.633 279.395L427.973 278.669L430.803 268.35L444.9 272.212V272.204Z" fill="white"/>
<path d="M434.623 282.152C438.459 284.191 439.704 288.678 437.538 292.749C435.381 296.804 430.958 298.302 427.107 296.255C423.256 294.208 422.034 289.706 424.192 285.658C426.357 281.588 430.788 280.113 434.623 282.152ZM428.715 293.235C431.167 294.541 433.765 293.699 434.994 291.397C436.224 289.095 435.466 286.469 433.015 285.172C430.563 283.867 427.965 284.708 426.736 287.01C425.506 289.312 426.264 291.938 428.715 293.235Z" fill="white"/>
<path d="M421.222 313.935L414.572 299.476L416.807 296.989L431.901 302.056L429.458 304.774L418.717 301.113L423.472 311.432L421.23 313.935H421.222Z" fill="white"/>
<path d="M402.308 313.124L400.684 310.953L409.762 304.195L418.492 315.896L409.631 322.492L408.007 320.322L414.17 315.734L412.275 313.193L406.831 317.248L405.262 315.139L410.706 311.085L408.687 308.374L402.308 313.124Z" fill="white"/>
<path d="M388.799 321.419L387.144 316.522L390.353 315.441L392.023 320.376L400.39 327.458L396.988 328.609L391.211 323.713L389.587 331.104L386.44 332.17L388.806 321.426L388.799 321.419Z" fill="white"/>
<path d="M383.301 325.489C383.718 329.806 380.664 333.328 376.07 333.769C371.5 334.209 367.804 331.359 367.386 327.026C366.969 322.693 370.047 319.187 374.617 318.739C379.21 318.298 382.891 321.164 383.308 325.489H383.301ZM370.789 326.702C371.052 329.459 373.194 331.166 375.792 330.911C378.39 330.656 380.161 328.586 379.89 325.821C379.62 323.056 377.486 321.357 374.887 321.612C372.289 321.867 370.518 323.937 370.789 326.702Z" fill="white"/>
<path d="M364.085 325.875L362.801 333.946L359.46 333.413L360.721 325.466C361.154 322.724 360.141 321.403 358.123 321.087C356.081 320.762 354.728 321.704 354.287 324.446L353.027 332.394L349.725 331.869L351.008 323.798C351.681 319.557 354.488 317.595 358.594 318.244C362.7 318.893 364.757 321.627 364.085 325.875Z" fill="white"/>
<path d="M340.979 313.116L342.023 317.951L342.178 318.013L344.9 319.14L346.462 315.387L349.586 316.684L343.972 330.162L338.126 327.737C334.522 326.238 333.037 323.435 334.298 320.407C335.141 318.383 336.78 317.325 338.845 317.302L337.623 311.71L340.979 313.108V313.116ZM339.363 325.273L341.907 326.331L343.863 321.635L341.319 320.577C339.409 319.781 338.079 320.268 337.468 321.735C336.85 323.218 337.453 324.485 339.363 325.28V325.273Z" fill="white"/>
<path d="M331.514 309.517L328.993 310.729C328.63 309.254 327.625 307.593 326.279 306.466C324.74 305.176 323.689 305.168 323.116 305.856C321.361 307.949 329.078 311.973 325.583 316.12C323.982 318.02 321.121 318.314 317.935 315.641C316.528 314.46 315.368 312.915 314.881 311.393L317.332 310.104C317.873 311.563 318.709 312.753 319.698 313.587C321.237 314.877 322.312 314.8 322.9 314.097C324.632 312.035 316.93 307.995 320.379 303.894C321.949 302.025 324.841 301.731 328.042 304.411C329.821 305.902 331.166 307.933 331.514 309.532V309.517Z" fill="white"/>
<path d="M312.917 292.185L315.051 290.501L322.065 299.376L310.589 308.42L303.746 299.762L305.872 298.086L310.636 304.11L313.125 302.148L308.919 296.827L310.984 295.197L315.19 300.519L317.842 298.426L312.917 292.185Z" fill="white"/>
<path d="M301.055 295.352L299.516 292.339L310.087 286.964L306.761 280.437L309.221 279.186L314.084 288.725L301.055 295.352Z" fill="white"/>
<path d="M296.508 277.989L300.227 276.939L298.387 270.435L301.001 269.694L302.841 276.197L307.96 274.753L308.88 278.004L294.822 281.974L291.814 271.354L294.428 270.621L296.516 277.989H296.508Z" fill="white"/>
<path d="M362.708 248.222C360.218 242.136 354.271 236.946 347.482 236.691C341.335 236.459 334.924 240.46 333.926 246.817C332.651 254.973 339.78 262.109 344.977 267.377C351.766 274.266 359.885 281.689 368.608 286.037C369.095 286.276 369.722 285.604 369.234 285.226C358.184 276.691 344.605 268.829 337.391 256.324C333.138 248.948 335.28 240.174 344.134 238.159C352.153 236.336 358.316 242.267 362.36 248.377C362.476 248.547 362.801 248.439 362.708 248.23V248.222Z" fill="white"/>
<path d="M369.049 286.276C378.645 277.147 397.629 263.832 390.624 248.068C385.35 236.212 365.469 234.884 361.44 248.593C361.262 249.196 362.113 249.528 362.437 249.01C366.211 242.901 372.181 238.12 379.875 240.391C386.394 242.314 390.84 248.361 390.608 255.15C390.121 269.122 376.016 275.965 368.469 285.828C368.206 286.176 368.763 286.562 369.057 286.284L369.049 286.276Z" fill="white"/>
<path d="M335.798 279.642C338.079 278.669 340.097 276.715 342.077 275.224C344.057 273.733 346.168 272.119 348.209 270.559C348.673 270.204 348.209 269.416 347.745 269.771C345.804 271.262 343.863 272.752 341.938 274.259C339.873 275.873 337.283 277.41 335.666 279.472C335.589 279.565 335.682 279.688 335.79 279.634L335.798 279.642Z" fill="white"/>
<path d="M338.218 282.376C340.84 281.426 343.074 279.325 345.294 277.68C347.296 276.189 349.779 274.822 351.263 272.807C351.403 272.613 351.171 272.305 350.946 272.389C348.611 273.27 346.601 275.301 344.636 276.823C342.456 278.507 339.827 280.098 338.21 282.353C338.21 282.353 338.21 282.368 338.226 282.368L338.218 282.376Z" fill="white"/>
<path d="M332.612 275.054C334.986 279.256 337.716 283.689 340.755 287.443C341.025 287.783 341.528 287.35 341.334 286.995C339.046 282.747 336.007 278.53 333.053 274.714C332.852 274.459 332.465 274.784 332.612 275.054Z" fill="white"/>
<path d="M332.133 274.506C331.135 276.877 330.439 279.372 329.666 281.82C328.993 283.959 328.088 286.107 327.833 288.339C327.794 288.671 328.305 288.787 328.452 288.509C329.519 286.531 329.991 284.237 330.656 282.098C331.413 279.65 332.264 277.201 332.79 274.691C332.883 274.243 332.295 274.112 332.125 274.506H332.133Z" fill="white"/>
<path d="M328.49 288.926C332.496 288.686 337.027 288.315 340.901 287.257C341.443 287.111 341.342 286.269 340.77 286.276C336.749 286.323 332.295 287.219 328.382 288.091C327.918 288.192 328.011 288.949 328.498 288.926H328.49Z" fill="white"/>
<path d="M385.821 242.638C388.195 241.796 390.314 239.896 392.379 238.475C394.443 237.054 396.941 235.702 398.72 233.841C399.029 233.524 398.642 233.1 398.271 233.262C395.835 234.343 393.632 236.305 391.459 237.85C389.518 239.232 387.167 240.491 385.651 242.329C385.551 242.453 385.644 242.7 385.829 242.63L385.821 242.638Z" fill="white"/>
<path d="M389.1 246.176C391.196 244.546 393.33 242.993 395.395 241.317C396.918 240.082 398.952 238.854 400.088 237.224C401.009 235.903 400.792 232.513 398.495 233.339C398.225 233.439 398.132 233.818 398.41 233.972C399.037 234.328 399.075 236.428 398.797 237.023C398.65 237.332 398.109 237.656 397.854 237.88C396.802 238.8 395.712 239.672 394.645 240.576C392.634 242.283 390.724 244.09 388.752 245.836C388.52 246.044 388.853 246.353 389.092 246.176H389.1Z" fill="white"/>
<path d="M392.278 237.587C392.186 235.146 390.461 230.111 392.309 228.481C394.536 226.519 397.73 225.762 399.957 223.739C400.204 223.515 399.949 223.059 399.624 223.167C396.392 224.248 393.33 226.596 390.399 228.334C390.175 228.465 390.105 228.705 390.152 228.952C390.639 231.864 391.018 234.807 391.807 237.657C391.876 237.911 392.286 237.865 392.278 237.595V237.587Z" fill="white"/>
<path d="M398.217 233.54C398.766 231.949 399.238 230.342 399.671 228.72C400.042 227.33 400.684 225.855 400.529 224.418C400.506 224.171 400.22 224.086 400.073 224.295C399.253 225.461 399.091 227.091 398.751 228.465C398.349 230.095 397.985 231.74 397.699 233.393C397.637 233.733 398.101 233.864 398.217 233.532V233.54Z" fill="white"/>
<path d="M393.933 243.171C394.729 244.268 396.183 244.87 397.32 245.565C398.457 246.261 399.686 247.357 401.032 247.489C401.24 247.512 401.38 247.242 401.271 247.072C400.568 246.013 399.129 245.481 398.055 244.847C396.864 244.144 395.549 243.055 394.165 242.87C394.01 242.847 393.809 243.009 393.933 243.171Z" fill="white"/>
<path d="M401.395 246.917C402.818 246.206 404.171 245.365 405.525 244.523C406.599 243.851 407.875 243.287 408.656 242.267C408.881 241.974 408.509 241.626 408.216 241.696C406.878 241.997 405.625 243.117 404.488 243.866C403.29 244.662 402.091 245.465 400.97 246.369C400.645 246.631 401.063 247.087 401.395 246.917Z" fill="white"/>
<path d="M399.779 238.421C402.47 240.005 405.741 240.962 408.641 242.09C408.973 242.221 409.375 241.889 409.352 241.549L409.329 241.248C409.314 241.032 409.174 240.785 408.942 240.738L408.656 240.692C408.339 240.638 407.96 240.978 408.192 241.294L408.246 241.395L408.935 241.001C406.058 239.912 403.035 238.452 400.019 237.834C399.671 237.765 399.447 238.228 399.771 238.413L399.779 238.421Z" fill="white"/>
<path d="M440.871 252.718C441.73 252.972 442.418 253.799 442.441 254.702C442.464 255.691 441.637 256.278 440.717 256.317C439.874 256.348 439.131 255.838 439.039 254.973C438.946 254.108 439.464 253.413 440.129 252.949C440.431 252.733 440.237 252.324 439.889 252.37C438.652 252.548 438.033 253.992 438.204 255.143C438.389 256.456 439.603 257.251 440.887 257.128C442.093 257.012 443.083 256.031 443.067 254.795C443.052 253.559 442.155 252.478 440.925 252.416C440.74 252.409 440.717 252.679 440.887 252.733L440.871 252.718Z" fill="white"/>
<path d="M297.459 252.718C298.317 252.972 299.005 253.799 299.028 254.702C299.052 255.691 298.224 256.278 297.304 256.317C296.461 256.348 295.719 255.838 295.626 254.973C295.533 254.108 296.051 253.413 296.716 252.949C297.018 252.733 296.825 252.324 296.477 252.37C295.239 252.548 294.621 253.992 294.791 255.143C294.977 256.456 296.191 257.251 297.474 257.128C298.681 257.012 299.67 256.031 299.655 254.795C299.639 253.559 298.742 252.478 297.513 252.416C297.327 252.409 297.304 252.679 297.474 252.733L297.459 252.718Z" fill="white"/>
</g>
<g clip-path="url(#clip1_229_80)">
<path d="M97.3428 48.0945C106.738 38.3053 123.241 42.3495 127.045 55.3734L161.935 174.81C165.74 187.834 153.998 200.07 140.798 196.835L19.7422 167.168C6.54254 163.934 1.78805 147.656 11.1832 137.867L97.3428 48.0945Z" fill="#EFA6F5" stroke="white" stroke-miterlimit="10"/>
<path d="M96.8007 60.2661C104.816 51.9157 118.89 55.3648 122.131 66.4735L151.889 168.342C155.135 179.453 145.115 189.887 133.859 187.129L30.6086 161.826C19.3467 159.066 15.2926 145.182 23.3081 136.832L96.8007 60.2661Z" stroke="#7582E2" stroke-width="4" stroke-miterlimit="10"/>
<path d="M97.2359 96.1017C94.1157 93.294 89.0265 93.3778 85.3109 94.823C80.7629 96.5899 77.3711 100.497 75.1198 104.703C72.117 110.316 70.6717 116.676 68.9422 122.754C66.9257 129.84 64.3346 137.01 62.963 144.241C62.8727 144.718 63.5143 144.848 63.6802 144.416C67.6071 134.026 69.5095 122.807 72.84 112.21C74.523 106.866 76.9008 101.599 81.3261 97.9657C86.2191 93.9475 91.5669 93.7342 97.225 96.119C97.2376 96.122 97.247 96.111 97.2359 96.1017Z" fill="#7582E2"/>
<path d="M63.5737 144.497C63.7104 146.933 65.9084 148.822 68.3298 148.956C71.4348 149.132 79.3531 141.423 80.5249 147.174C80.6345 147.706 81.5418 147.569 81.4761 147.021C81.1919 144.615 78.9917 143.524 76.6913 144.011C75.0389 144.359 73.771 145.532 72.4042 146.428C68.9568 148.684 65.8634 148.325 63.9266 144.39C63.8361 144.215 63.5523 144.312 63.5674 144.495L63.5737 144.497Z" fill="#7582E2"/>
<path d="M81.2545 147.273C81.7498 150.695 84.3663 154.224 88.0346 154.577C91.7029 154.931 94.0439 151.665 95.4536 148.743C95.6976 148.237 94.9839 147.829 94.6848 148.315C93.1847 150.762 91.7761 153.598 88.4913 153.585C84.5467 153.569 83.1357 150.156 81.4835 147.209C81.428 147.109 81.2382 147.149 81.2545 147.273Z" fill="#7582E2"/>
<path d="M95.5262 148.527C98.1696 145.715 100.754 149.922 101.269 152.144C101.676 153.914 101.673 156.129 103 157.493C103.224 157.721 103.553 157.468 103.493 157.194C103.118 155.432 102.589 153.645 102.176 151.874C101.845 150.475 101.33 149.038 100.257 148.03C98.7445 146.608 96.4114 146.548 95.1477 148.248C94.9886 148.462 95.3402 148.715 95.5199 148.526L95.5262 148.527Z" fill="#7582E2"/>
<path d="M102.895 156.668C104.274 158.091 106.383 158.521 108.24 157.825C109.826 157.236 111.597 155.56 111.553 153.753C111.543 153.384 111.049 153.277 110.867 153.585C110.018 155.034 109.529 156.404 107.774 157.006C106.194 157.55 104.555 157.135 103.146 156.324C102.93 156.198 102.724 156.494 102.89 156.661L102.895 156.668Z" fill="#7582E2"/>
<path d="M93.8585 93.6902C100.022 95.5932 106.468 96.7205 111.639 100.876C116.81 105.031 118.545 110.687 118.708 116.989C119.037 129.933 115.877 143.127 110.766 154.951C110.516 155.535 111.378 156.019 111.634 155.436C117.169 142.838 121.111 127.813 119.602 113.941C118.157 100.65 106.095 94.7857 93.9986 93.1456C93.6434 93.0985 93.5108 93.5851 93.8648 93.6918L93.8585 93.6902Z" fill="#7582E2"/>
<path d="M92.1554 104.586C89.3561 105.803 87.8912 109.577 87.2285 112.362C86.3813 115.901 86.5823 119.843 88.2393 123.124C88.3694 123.382 88.7958 123.194 88.7032 122.919C86.4462 116.316 87.1065 109.73 92.1713 104.603C92.1728 104.597 92.1774 104.578 92.1617 104.587L92.1554 104.586Z" fill="#7582E2"/>
<path d="M88.4987 122.855C88.7178 123.295 88.9582 123.62 89.3963 123.874C89.7461 124.079 90.2513 124.276 90.6495 124.121C90.7608 124.075 90.8087 123.907 90.6779 123.842C90.3551 123.689 89.9922 123.674 89.6693 123.521C89.3103 123.353 88.913 123.07 88.6725 122.745C88.5981 122.64 88.4415 122.735 88.5003 122.849L88.4987 122.855Z" fill="#7582E2"/>
<path d="M90.8285 124.098C94.6254 122.593 96.5751 118.366 96.2217 114.446C96.1884 114.065 95.5915 114.079 95.6249 114.46C95.9867 118.508 93.9593 121.664 90.7666 123.97C90.7102 124.009 90.7423 124.124 90.8222 124.097L90.8285 124.098Z" fill="#7582E2"/>
<path d="M96.228 114.448C96.4353 111.398 97.9121 106.269 94.2525 104.547C92.2494 103.604 89.9165 105.095 90.6132 107.369C90.6467 107.477 90.8114 107.431 90.7857 107.318C90.6684 106.817 91.1155 105.782 91.467 105.409C92.2389 104.6 93.3143 104.783 94.1649 105.231C95.4896 105.922 96.0325 107.326 96.164 108.749C96.3372 110.655 95.8553 112.54 96.06 114.453C96.0731 114.563 96.2208 114.559 96.2343 114.449L96.228 114.448Z" fill="#7582E2"/>
<path d="M107.094 107.854C106.409 106.269 104.569 106.237 103.361 107.305C101.31 109.112 100.611 112.594 100.475 115.162C100.456 115.484 100.947 115.465 100.971 115.151C101.085 113.489 101.4 111.929 102.026 110.385C102.309 109.689 102.614 109.019 103.057 108.409C103.877 107.292 105.806 105.981 106.9 107.94C106.955 108.04 107.14 107.965 107.094 107.854Z" fill="#7582E2"/>
<path d="M100.531 115.096C100.075 117.5 99.2155 120.464 99.4796 122.924C99.6246 124.237 100.532 125.352 101.931 125.169C102.289 125.123 102.28 124.562 101.915 124.606C98.6687 124.981 100.618 116.974 100.784 115.125C100.799 114.982 100.558 114.957 100.531 115.096Z" fill="#7582E2"/>
<path d="M101.602 124.822C104.872 127.919 106.285 121.524 106.654 119.638C107.309 116.285 110.154 109.003 106.189 106.594C106.096 106.538 105.973 106.661 106.038 106.75C108.175 109.703 107.489 112.476 106.832 115.809C106.511 117.447 105.674 127.23 101.755 124.606C101.623 124.521 101.481 124.719 101.595 124.827L101.602 124.822Z" fill="#7582E2"/>
<path d="M83.1672 125.914C87.6797 133.681 97.4061 135.685 104.822 130.708C105.26 130.416 104.832 129.713 104.399 130.012C97.2758 134.802 88.2172 132.821 83.4177 125.762C83.3101 125.603 83.0674 125.75 83.1672 125.914Z" fill="#7582E2"/>
<path d="M88.1021 122.106C88.4463 122.443 88.7842 122.779 89.1362 123.111C89.4062 123.37 89.6703 123.708 90.0275 123.829C90.0778 123.841 90.1451 123.784 90.1181 123.731C89.9639 123.381 89.6124 123.155 89.3268 122.905C88.9639 122.59 88.5994 122.281 88.2302 121.964C88.1355 121.888 88.0105 122.017 88.0973 122.098L88.1021 122.106Z" fill="#7582E2"/>
<path d="M86.5155 119.355C87.7366 120.659 88.9319 122.149 90.3232 123.276C90.4179 123.352 90.5917 123.242 90.5047 123.134C89.393 121.71 87.9227 120.498 86.6218 119.247C86.546 119.176 86.4382 119.289 86.514 119.361L86.5155 119.355Z" fill="#7582E2"/>
<path d="M87.6662 119.231C88.8971 120.63 90.0663 122.228 91.4488 123.472C91.5577 123.571 91.7503 123.439 91.6569 123.303C90.5729 121.766 89.1238 120.413 87.8724 119.015C87.7476 118.871 87.5413 119.087 87.6662 119.231Z" fill="#7582E2"/>
<path d="M87.2843 116.761C88.7067 118.414 90.1212 120.072 91.5529 121.714C91.7094 121.892 91.9406 121.656 91.8517 121.474C91.7802 121.304 91.6992 121.144 91.5979 120.986C91.5566 120.909 91.428 120.944 91.4332 121.032C91.4357 121.212 91.4571 121.397 91.4863 121.578L91.8154 121.432C90.3821 119.796 88.9254 118.175 87.4764 116.549C87.3516 116.405 87.1532 116.616 87.2717 116.758L87.2843 116.761Z" fill="#7582E2"/>
<path d="M87.0098 114.724C88.7131 116.945 90.3036 119.518 92.3165 121.455C92.4633 121.591 92.687 121.413 92.5888 121.242C91.1923 118.83 89.062 116.665 87.3149 114.486C87.1773 114.313 86.8722 114.551 87.0082 114.73L87.0098 114.724Z" fill="#7582E2"/>
<path d="M88.0503 113.934C89.7684 116.259 91.5431 118.623 93.4599 120.79C93.6115 120.96 93.9151 120.729 93.7821 120.536C92.1048 118.182 90.1971 115.925 88.3148 113.726C88.1962 113.584 87.9474 113.783 88.0582 113.93L88.0503 113.934Z" fill="#7582E2"/>
<path d="M88.059 112.24C90.0642 114.807 91.9372 117.642 94.2051 119.981C94.3646 120.147 94.6384 119.928 94.5196 119.732C92.8026 116.996 90.5182 114.506 88.5272 111.962C88.3138 111.69 87.8455 111.968 88.0653 112.241L88.059 112.24Z" fill="#7582E2"/>
<path d="M88.7451 110.638C90.5762 112.963 92.2707 115.601 94.3755 117.68C94.5097 117.813 94.7397 117.637 94.6399 117.472C93.1126 114.969 90.9441 112.714 89.1194 110.417C88.9455 110.201 88.5775 110.423 88.7514 110.639L88.7451 110.638Z" fill="#7582E2"/>
<path d="M88.974 109.349C90.0161 110.676 91.0566 112.009 92.0987 113.336C93.008 114.497 93.8554 115.856 94.9898 116.806C95.0955 116.892 95.23 116.779 95.1713 116.664C94.4792 115.27 93.2854 114.073 92.3224 112.859C91.3595 111.644 90.3444 110.371 89.3498 109.122C89.1759 108.907 88.7953 109.126 88.974 109.349Z" fill="#7582E2"/>
<path d="M89.951 108.411C90.7125 109.549 91.5601 110.635 92.3921 111.731C93.118 112.687 93.7917 113.857 94.735 114.608C94.8186 114.675 94.9942 114.611 94.9386 114.484C94.4236 113.32 93.4224 112.316 92.6412 111.313C91.86 110.31 91.0376 109.23 90.1732 108.239C90.0689 108.12 89.8702 108.278 89.9573 108.413L89.951 108.411Z" fill="#7582E2"/>
<path d="M91.436 108.229C91.3971 108.007 91.3583 107.784 91.3194 107.562L90.9903 107.707C91.664 108.877 92.4223 110.002 93.1523 111.132C93.811 112.145 94.4059 113.256 95.2164 114.167C95.3413 114.31 95.521 114.122 95.4558 113.979C94.9377 112.827 94.1217 111.776 93.4329 110.722C92.7441 109.668 92.0551 108.561 91.302 107.524C91.177 107.354 90.9231 107.465 90.9728 107.67C91.0195 107.888 91.0647 108.112 91.1176 108.331C91.1643 108.549 91.4764 108.445 91.4407 108.237L91.436 108.229Z" fill="#7582E2"/>
<path d="M90.6923 106.284C91.477 107.354 92.2852 108.411 93.0871 109.466C93.7988 110.399 94.4655 111.434 95.3211 112.243C95.4285 112.349 95.5959 112.21 95.5276 112.08C94.8934 110.94 93.9424 109.922 93.1407 108.893C92.4085 107.962 91.6701 107.029 90.9223 106.107C90.8195 105.982 90.6036 106.155 90.6986 106.285L90.6923 106.284Z" fill="#7582E2"/>
<path d="M92.3862 105.441C92.9064 106.394 93.5049 107.299 94.0955 108.209C94.6228 109.024 95.0956 109.925 95.7638 110.627C95.8269 110.696 95.9663 110.617 95.9282 110.528C95.5466 109.636 94.9219 108.837 94.3868 108.027C93.7898 107.116 93.1992 106.206 92.5365 105.345C92.4654 105.254 92.3259 105.333 92.3799 105.439L92.3862 105.441Z" fill="#7582E2"/>
<path d="M92.8413 105.353C93.5827 106.246 94.2835 107.197 95.1203 108.001C95.1692 108.046 95.2521 107.98 95.2126 107.924C94.5384 106.973 93.6968 106.135 92.9226 105.266C92.8704 105.207 92.7955 105.295 92.8429 105.346L92.8413 105.353Z" fill="#7582E2"/>
<path d="M92.2173 106.211C93.2911 107.899 94.3292 109.677 95.6143 111.21C95.6554 111.26 95.7179 111.195 95.6957 111.15C94.7989 109.366 93.5902 107.712 92.4678 106.06C92.3602 105.9 92.1096 106.052 92.2173 106.211Z" fill="#7582E2"/>
<path d="M91.6512 104.549C92.4477 105.789 93.2085 107.093 94.1178 108.254C94.2 108.354 94.3613 108.267 94.29 108.15C93.5874 106.853 92.6905 105.642 91.8689 104.422C91.7755 104.286 91.5578 104.413 91.6496 104.555L91.6512 104.549Z" fill="#7582E2"/>
<path d="M100.042 122.643C100.63 123.266 101.207 124.013 101.893 124.534C101.955 124.582 102.056 124.521 102.009 124.442C101.518 123.723 100.8 123.115 100.194 122.487C100.093 122.382 99.9396 122.544 100.041 122.649L100.042 122.643Z" fill="#7582E2"/>
<path d="M99.8421 121.037C100.911 122.417 101.903 124.057 103.202 125.234C103.279 125.299 103.387 125.213 103.341 125.128C102.473 123.611 101.083 122.286 99.9657 120.94C99.9088 120.873 99.7852 120.969 99.8421 121.037Z" fill="#7582E2"/>
<path d="M100.281 120.825C100.938 121.571 101.604 122.313 102.261 123.06C102.918 123.807 103.521 124.64 104.278 125.251C104.379 125.329 104.537 125.228 104.46 125.11C103.959 124.321 103.235 123.658 102.612 122.96C101.904 122.174 101.204 121.384 100.497 120.598C100.361 120.445 100.145 120.672 100.275 120.823L100.281 120.825Z" fill="#7582E2"/>
<path d="M99.9155 118.18C101.403 120.002 102.813 122.197 104.596 123.739C104.684 123.814 104.815 123.713 104.754 123.611C103.537 121.583 101.616 119.814 100.067 118.024C99.9738 117.915 99.8285 118.072 99.9155 118.18Z" fill="#7582E2"/>
<path d="M100.81 118.286C101.461 119.111 102.114 119.93 102.766 120.755C103.336 121.474 103.864 122.342 104.585 122.911C104.697 122.998 104.838 122.886 104.776 122.758C104.385 121.93 103.652 121.218 103.08 120.506C102.427 119.687 101.768 118.867 101.113 118.054C100.98 117.888 100.683 118.122 100.816 118.287L100.81 118.286Z" fill="#7582E2"/>
<path d="M100.422 115.842C101.245 117.001 102.082 118.158 102.922 119.302C103.667 120.317 104.339 121.493 105.281 122.33C105.381 122.414 105.501 122.304 105.447 122.197C104.889 121.016 103.887 119.965 103.096 118.919C102.305 117.874 101.452 116.78 100.627 115.712C100.535 115.596 100.328 115.706 100.423 115.835L100.422 115.842Z" fill="#7582E2"/>
<path d="M100.643 115.237C101.415 116.198 102.186 117.159 102.958 118.12C103.73 119.081 104.418 120.162 105.343 120.934C105.453 121.028 105.61 120.906 105.54 120.783C104.995 119.77 104.113 118.902 103.383 118.018C102.549 117.015 101.715 116.006 100.881 115.002C100.742 114.835 100.523 115.074 100.65 115.239L100.643 115.237Z" fill="#7582E2"/>
<path d="M101.32 114.624C102.679 116.481 104.07 118.346 105.554 120.101C105.72 120.294 106.003 120.038 105.885 119.836C105.687 119.474 105.503 119.11 105.319 118.745C105.282 118.676 105.182 118.732 105.2 118.796C105.307 119.202 105.41 119.599 105.495 120.013L105.884 119.842C104.531 117.987 103.042 116.198 101.558 114.443C101.444 114.309 101.213 114.492 101.317 114.637L101.32 114.624Z" fill="#7582E2"/>
<path d="M102.246 114.059C101.954 113.642 101.66 113.237 101.425 112.78C101.354 112.636 101.141 112.77 101.214 112.908C101.864 114.172 102.752 115.341 103.542 116.526C104.256 117.586 104.906 118.744 105.761 119.692C105.882 119.822 106.051 119.65 105.984 119.514C105.37 118.239 104.434 117.078 103.639 115.911C102.919 114.85 102.239 113.732 101.403 112.761L101.233 112.939C101.601 113.289 101.903 113.689 102.213 114.084C102.229 114.102 102.26 114.083 102.244 114.065L102.246 114.059Z" fill="#7582E2"/>
<path d="M102.104 113.139C102.742 113.994 103.379 114.849 104.023 115.706C104.589 116.47 105.114 117.324 105.805 117.986C105.93 118.103 106.108 117.947 106.029 117.808C105.57 116.93 104.863 116.145 104.269 115.354C103.676 114.563 103.058 113.739 102.455 112.933C102.298 112.728 101.954 112.936 102.11 113.141L102.104 113.139Z" fill="#7582E2"/>
<path d="M102.389 111.625C103.535 113.67 104.96 115.802 106.457 117.613C106.596 117.781 106.851 117.557 106.748 117.379C105.578 115.348 104.086 113.272 102.578 111.479C102.485 111.369 102.33 111.511 102.395 111.627L102.389 111.625Z" fill="#7582E2"/>
<path d="M102.13 110.451C103.763 112.767 105.256 115.409 107.197 117.475C107.303 117.588 107.46 117.44 107.396 117.318C106.111 114.807 104.135 112.526 102.507 110.217C102.344 109.984 101.962 110.21 102.123 110.449L102.13 110.451Z" fill="#7582E2"/>
<path d="M103.003 110.425C104.325 112.133 105.561 113.973 107.024 115.57C107.108 115.663 107.258 115.54 107.19 115.437C106.025 113.634 104.557 111.977 103.246 110.278C103.135 110.131 102.892 110.278 103.003 110.425Z" fill="#7582E2"/>
<path d="M102.968 108.773C104.206 110.713 105.323 112.93 106.83 114.677C106.913 114.771 107.031 114.646 106.988 114.549C106.039 112.46 104.5 110.519 103.273 108.588C103.153 108.399 102.849 108.577 102.968 108.773Z" fill="#7582E2"/>
<path d="M103.112 108.183C104.233 109.761 105.26 111.584 106.588 112.994C106.7 113.108 106.865 112.955 106.796 112.825C105.9 111.122 104.525 109.574 103.402 108.007C103.278 107.831 102.989 108.006 103.112 108.183Z" fill="#7582E2"/>
<path d="M104.078 107.428C104.561 108.285 105.076 109.123 105.597 109.963C106.06 110.715 106.48 111.53 107.074 112.181C107.127 112.241 107.242 112.176 107.215 112.096C106.889 111.278 106.343 110.538 105.871 109.797C105.349 108.964 104.82 108.128 104.264 107.32C104.185 107.208 104.013 107.312 104.084 107.429L104.078 107.428Z" fill="#7582E2"/>
<path d="M103.754 106.623C104.844 108.328 105.825 110.258 107.14 111.805C107.201 111.88 107.298 111.784 107.263 111.709C106.41 109.883 105.065 108.189 103.974 106.49C103.882 106.348 103.663 106.481 103.754 106.623Z" fill="#7582E2"/>
<path d="M104.785 107.015C105.528 107.903 106.237 108.849 107.057 109.668C107.11 109.721 107.209 109.646 107.165 109.582C106.475 108.641 105.649 107.793 104.875 106.924C104.818 106.857 104.727 106.955 104.784 107.022L104.785 107.015Z" fill="#7582E2"/>
</g>
<g clip-path="url(#clip2_229_80)">
<path d="M308.532 31.4997C286.736 35.89 286.063 65.725 291.373 82.439C297.705 102.337 315.585 114.924 336.533 111.799C355.17 109.022 373.517 96.4037 380.243 78.3957C387.387 59.2656 378.969 37.4415 362.082 26.5302C341.654 13.3107 314.738 17.4878 297.117 33.4605C296.324 34.1817 297.487 35.2855 298.284 34.6152C313.304 21.9979 333.339 16.3355 352.194 23.4804C370.39 30.3739 383.028 48.7095 380.848 68.4193C376.712 105.764 320.069 127.814 297.859 93.0816C286.659 75.5731 284.491 39.9742 308.699 32.1531C309.109 32.0213 308.955 31.4131 308.532 31.4997Z" fill="white"/>
<path d="M313.454 85.8795C335.817 94.1813 359.669 77.9773 365.073 56.0381C365.347 54.9194 363.615 54.4468 363.33 55.5711C360.733 66.1059 354.356 75.403 344.938 80.9587C335.521 86.5144 324.558 87.0704 313.679 85.0394C313.132 84.9344 312.932 85.6812 313.454 85.8795Z" fill="white"/>
<path d="M314.242 54.9661C317.269 60.5964 321.22 65.7323 324.696 71.0908C325.179 71.8373 326.397 71.1213 325.889 70.4017C322.2 65.1276 318.893 59.5141 314.778 54.5512C314.52 54.2402 314.054 54.6406 314.232 54.9718L314.242 54.9661Z" fill="white"/>
<path d="M334.111 43.4814C336.884 49.1269 340.046 54.9685 343.677 60.1186C344.123 60.7551 345.066 60.224 344.722 59.5149C341.96 53.8637 338.363 48.2727 334.742 43.1169C334.469 42.7353 333.907 43.0599 334.111 43.4814Z" fill="white"/>
</g>
<g clip-path="url(#clip3_229_80)">
<path d="M519.076 264.57C558.56 264.57 590.569 232.654 590.569 193.285C590.569 153.915 558.56 122 519.076 122C479.591 122 447.583 153.915 447.583 193.285C447.583 232.654 479.591 264.57 519.076 264.57Z" fill="#6976DF"/>
<path d="M589.991 193.285C589.991 202.644 588.143 211.916 584.546 220.565C580.955 229.215 575.685 237.074 569.05 243.695C562.41 250.316 554.528 255.565 545.853 259.146C537.178 262.727 527.885 264.576 518.493 264.576V193.291H589.985L589.991 193.285Z" fill="url(#paint4_linear_229_80)"/>
<path d="M519.076 122C528.462 122 537.761 123.843 546.436 127.424C555.111 131.004 562.993 136.259 569.633 142.875C576.273 149.496 581.538 157.355 585.129 165.999C588.72 174.643 590.574 183.92 590.574 193.279H519.082V122H519.076Z" fill="url(#paint5_linear_229_80)"/>
<path d="M519.076 264.576C509.684 264.576 500.391 262.733 491.716 259.146C483.041 255.56 475.159 250.311 468.524 243.695C461.884 237.074 456.619 229.215 453.028 220.565C449.437 211.916 447.589 202.65 447.589 193.285H519.082V264.57L519.076 264.576Z" fill="url(#paint6_linear_229_80)"/>
<path d="M447.583 193.285C447.583 183.926 449.431 174.654 453.022 166.004C456.614 157.355 461.884 149.496 468.518 142.88C475.159 136.259 483.041 131.01 491.71 127.429C500.391 123.843 509.69 122 519.076 122V193.285H447.583Z" fill="url(#paint7_linear_229_80)"/>
<path d="M519 236.237C542.672 236.237 561.862 217.103 561.862 193.5C561.862 169.897 542.672 150.763 519 150.763C495.328 150.763 476.138 169.897 476.138 193.5C476.138 217.103 495.328 236.237 519 236.237Z" stroke="white"/>
<path d="M519 260.053C555.863 260.053 585.747 230.256 585.747 193.5C585.747 156.744 555.863 126.947 519 126.947C482.136 126.947 452.253 156.744 452.253 193.5C452.253 230.256 482.136 260.053 519 260.053Z" stroke="white"/>
<path d="M483.332 229.703H478.511V234.511H483.332V229.703Z" fill="white"/>
<path d="M572.583 204.806H567.762V209.614H572.583V204.806Z" fill="white"/>
<path d="M506.693 139.823H501.872V144.63H506.693V139.823Z" fill="white"/>
<path d="M464.694 216.409L474.436 211.27L475.625 213.52L471.631 215.624L473.975 220.036L477.969 217.932L479.158 220.182L469.416 225.32L468.227 223.071L472.069 221.048L469.725 216.636L465.883 218.665L464.694 216.415V216.409Z" fill="white"/>
<path d="M469.737 202.923L470.955 207.876L473.48 208.259L474.104 210.788L462.234 208.649L461.633 206.207L471.159 198.819L471.795 201.412L469.737 202.917V202.923ZM468.046 204.161L464.368 206.852L468.88 207.544L468.046 204.161Z" fill="white"/>
<path d="M460.164 188.396L471.253 192.994L471.288 195.505L460.339 200.412L460.298 197.662L468.116 194.203L460.199 190.925L460.164 188.396Z" fill="white"/>
<path d="M471.124 179.136L473.13 179.543L471.433 187.885L460.636 185.705L462.292 177.561L464.297 177.968L463.149 183.63L465.493 184.1L466.507 179.101L468.448 179.491L467.434 184.49L469.935 184.996L471.124 179.13V179.136Z" fill="white"/>
<path d="M468.489 167.725L471.054 169.097L473.468 164.615L475.269 165.58L472.856 170.062L476.389 171.957L475.182 174.201L465.475 169.004L469.416 161.685L471.218 162.65L468.483 167.725H468.489Z" fill="white"/>
<path d="M476.045 162.813L471.393 158.773L473.066 156.855L477.648 160.831C479.228 162.203 480.481 162.081 481.496 160.924C482.522 159.75 482.458 158.512 480.878 157.14L476.296 153.164L477.951 151.268L482.604 155.309C485.052 157.43 485.18 160.005 483.128 162.36C481.07 164.714 478.493 164.935 476.051 162.813H476.045Z" fill="white"/>
<path d="M489.699 142.439L495.977 151.466L494.258 152.658L485.927 150.298L489.739 155.779L487.67 157.209L481.391 148.182L483.122 146.984L491.442 149.356L487.629 143.874L489.699 142.444V142.439Z" fill="white"/>
<path d="M524.061 134.864V145.851H521.501V141.346H516.499V145.851H513.946V134.864H516.505V139.195H521.507V134.864H524.061Z" fill="white"/>
<path d="M533.645 145.601L528.678 144.368L527.162 146.415L524.626 145.787L532.053 136.312L534.496 136.916L536.618 148.763L534.018 148.118L533.639 145.601H533.645ZM533.33 143.531L532.654 139.032L529.937 142.694L533.33 143.537V143.531Z" fill="white"/>
<path d="M550.989 143.909L541.754 151.559L539.504 150.426L540.244 138.486L542.705 139.73L542.139 148.24L548.733 142.776L550.995 143.921L550.989 143.909Z" fill="white"/>
<path d="M554.085 157.913L552.79 159.488L546.191 154.094L553.175 145.595L559.617 150.862L558.323 152.437L553.846 148.775L552.33 150.617L556.288 153.855L555.029 155.384L551.071 152.146L549.456 154.111L554.096 157.907L554.085 157.913Z" fill="white"/>
<path d="M565.43 160.93L563.016 162.552L565.861 166.772L564.165 167.911L561.32 163.691L557.991 165.923L556.568 163.813L565.71 157.68L570.356 164.574L568.66 165.714L565.436 160.93H565.43Z" fill="white"/>
<path d="M566.269 169.893L572.024 167.667L572.945 170.039L567.284 172.23C565.331 172.986 564.853 174.148 565.412 175.584C565.978 177.032 567.109 177.555 569.056 176.799L574.717 174.608L575.626 176.95L569.872 179.177C566.852 180.345 564.503 179.27 563.372 176.352C562.241 173.439 563.238 171.062 566.264 169.893H566.269Z" fill="white"/>
<path d="M577.982 191.436L567.039 192.75L566.788 190.675L572.776 184.438L566.135 185.234L565.832 182.74L576.775 181.426L577.026 183.513L571.038 189.733L577.679 188.937L577.982 191.431V191.436Z" fill="white"/>
<path d="M565.657 229.512L556.405 223.547L557.787 221.408L561.582 223.856L564.299 219.664L560.503 217.217L561.891 215.078L571.143 221.042L569.761 223.181L566.112 220.833L563.395 225.03L567.045 227.378L565.663 229.517L565.657 229.512Z" fill="white"/>
<path d="M551.391 231.703L555.134 228.221L554.236 225.838L556.148 224.059L560.078 235.429L558.236 237.144L547.112 232.47L549.071 230.651L551.397 231.709L551.391 231.703ZM553.303 232.569L557.46 234.453L555.857 230.192L553.303 232.569Z" fill="white"/>
<path d="M543.41 247.142L541.976 235.255L544.15 233.988L553.811 241.085L551.432 242.469L544.57 237.377L545.602 245.864L543.416 247.137L543.41 247.142Z" fill="white"/>
<path d="M529.931 242.161L529.302 240.219L537.423 237.609L540.81 248.067L532.887 250.619L532.257 248.677L537.772 246.904L537.038 244.631L532.17 246.195L531.564 244.312L536.432 242.742L535.65 240.324L529.943 242.161H529.931Z" fill="white"/>
<path d="M521.233 250.026L521.18 247.125L516.079 247.212L516.044 245.172L521.145 245.085L521.075 241.085L523.629 241.039L523.821 252.02L515.49 252.165L515.455 250.125L521.233 250.026Z" fill="white"/>
<path d="M513.228 245.852L511.981 251.88L509.48 251.363L510.71 245.428C511.135 243.381 510.412 242.353 508.902 242.044C507.375 241.731 506.326 242.393 505.9 244.439L504.67 250.375L502.204 249.869L503.451 243.841C504.104 240.673 506.291 239.295 509.357 239.929C512.424 240.562 513.881 242.69 513.222 245.852H513.228Z" fill="white"/>
<path d="M488.719 243.974L493.541 234.092L495.424 235.005L497.435 243.405L500.362 237.406L502.63 238.504L497.808 248.386L495.913 247.468L493.914 239.08L490.987 245.079L488.725 243.98L488.719 243.974Z" fill="white"/>
<path d="M515.863 172.515C505.066 168.894 497.126 181.886 495.202 190.652C492.911 201.074 497.627 211.212 507.719 215.182C516.697 218.717 528.071 217.816 535.668 211.567C543.736 204.928 545.59 193.122 540.897 183.978C535.219 172.91 522.206 167.882 510.296 170.451C509.736 170.573 509.981 171.399 510.529 171.3C520.405 169.562 530.73 172.166 537.253 180.13C543.55 187.815 544.459 199.133 538.454 207.277C527.074 222.716 496.345 218.013 495.389 197.011C494.91 186.437 503.049 170.132 515.77 172.846C515.986 172.893 516.073 172.585 515.863 172.515Z" fill="white"/>
<path d="M504.128 197.807C511.928 207.195 526.631 206.149 534.659 197.807C535.09 197.36 534.408 196.68 533.977 197.127C530.135 201.115 524.935 203.597 519.338 203.65C513.566 203.702 508.722 201.156 504.437 197.499C504.221 197.313 503.941 197.592 504.122 197.813L504.128 197.807Z" fill="white"/>
<path d="M512.389 184.345C512.29 187.6 512.703 190.884 512.878 194.139C512.902 194.622 513.671 194.616 513.63 194.139C513.351 190.873 513.298 187.536 512.744 184.298C512.709 184.095 512.4 184.153 512.394 184.345H512.389Z" fill="white"/>
<path d="M524.136 184.339C523.92 187.513 523.745 190.971 524.119 194.134C524.165 194.523 524.696 194.535 524.737 194.134C525.046 190.965 524.795 187.513 524.509 184.339C524.486 184.1 524.154 184.1 524.136 184.339Z" fill="white"/>
</g>
<g clip-path="url(#clip4_229_80)">
<path d="M217.106 255.395C272.494 255.395 317.395 210.535 317.395 155.198C317.395 99.86 272.494 55 217.106 55C161.719 55 116.818 99.86 116.818 155.198C116.818 210.535 161.719 255.395 217.106 255.395Z" fill="#6976DF"/>
<path d="M316.585 155.198C316.585 168.353 313.993 181.385 308.947 193.543C303.909 205.701 296.516 216.748 287.209 226.054C277.894 235.361 266.838 242.739 254.669 247.772C242.5 252.805 229.464 255.404 216.289 255.404V155.206H316.577L316.585 155.198Z" fill="url(#paint8_linear_229_80)"/>
<path d="M217.106 55C230.273 55 243.317 57.5901 255.486 62.6233C267.656 67.6565 278.712 75.0428 288.027 84.3411C297.342 93.6476 304.727 104.694 309.765 116.844C314.802 129.002 317.403 142.035 317.403 155.19H217.115V55H217.106Z" fill="url(#paint9_linear_229_80)"/>
<path d="M217.106 255.404C203.931 255.404 190.895 252.813 178.726 247.772C166.557 242.731 155.5 235.353 146.194 226.054C136.879 216.748 129.494 205.701 124.456 193.543C119.418 181.385 116.826 168.361 116.826 155.198H217.114V255.395L217.106 255.404Z" fill="url(#paint10_linear_229_80)"/>
<path d="M116.81 155.296C116.81 142.141 119.402 129.109 124.44 116.95C129.478 104.792 136.871 93.7456 146.177 84.4473C155.492 75.1408 166.549 67.7627 178.71 62.7295C190.887 57.6881 203.931 55.098 217.106 55.098V155.296H116.81Z" fill="url(#paint11_linear_229_80)"/>
<path d="M217 215.571C250.206 215.571 277.126 188.676 277.126 155.5C277.126 122.324 250.206 95.4288 217 95.4288C183.793 95.4288 156.874 122.324 156.874 155.5C156.874 188.676 183.793 215.571 217 215.571Z" stroke="white"/>
<path d="M144.542 115.521L148.467 109.703C151.289 105.511 155.754 104.343 159.639 106.95C163.523 109.564 164.112 114.132 161.291 118.323L157.365 124.141L144.542 115.512V115.521ZM158.755 116.836C160.473 114.295 160.072 111.607 157.619 109.956C155.165 108.306 152.524 108.943 150.806 111.492L148.982 114.205L156.932 119.549L158.755 116.844V116.836Z" fill="white"/>
<path d="M161.503 104.792C158.485 101.336 158.943 96.4256 162.624 93.2145C166.287 90.0279 171.219 90.2077 174.253 93.6802C177.287 97.1528 176.796 102.063 173.132 105.258C169.452 108.461 164.521 108.249 161.503 104.792ZM171.53 96.0661C169.6 93.8518 166.713 93.7048 164.635 95.5187C162.558 97.3326 162.313 100.209 164.243 102.423C166.173 104.637 169.06 104.784 171.137 102.97C173.214 101.156 173.46 98.2804 171.53 96.0661Z" fill="white"/>
<path d="M179.839 81.9716L183.069 80.4355L189.718 94.3748L186.487 95.9109L179.839 81.9716Z" fill="white"/>
<path d="M191.918 80.1087L187.191 81.563L186.332 78.7768L199.213 74.814L200.071 77.5921L195.344 79.0465L199.033 91.0166L195.614 92.0706L191.926 80.1005L191.918 80.1087Z" fill="white"/>
<path d="M220.991 85.2971L213.811 85.248L212.42 88.549L208.757 88.5245L215.741 73.1227L219.274 73.1472L226.094 88.6389L222.34 88.6144L220.991 85.2971ZM219.887 82.5762L217.474 76.6443L214.988 82.5435L219.895 82.5762H219.887Z" fill="white"/>
<path d="M244.421 77.5349L240.553 92.4791L237.707 91.7438L232.588 80.7378L230.24 89.8155L226.822 88.933L230.69 73.9888L233.553 74.7323L238.648 85.7301L240.995 76.6524L244.413 77.5349H244.421Z" fill="white"/>
<path d="M252.264 92.2667L249.721 97.1119L246.556 95.4451L249.124 90.559L248.437 78.9893L251.798 80.7541L252.264 88.7451L259.109 84.5862L262.217 86.2204L252.264 92.2585V92.2667Z" fill="white"/>
<path d="M282.891 104.466L268.563 112.154L265.783 109.507L270.542 99.5958L260.778 104.743L258.013 102.112L265.006 87.4296L267.688 89.9871L262.716 100.25L272.849 94.9058L275.245 97.1937L270.24 107.546L280.405 102.112L282.883 104.474L282.891 104.466Z" fill="white"/>
<path d="M279.808 123.757L276.251 117.522L272.693 117.972L270.878 114.785L287.716 113.118L289.467 116.182L279.465 129.836L277.608 126.576L279.808 123.749V123.757ZM281.607 121.436L285.533 116.379L279.178 117.179L281.607 121.436Z" fill="white"/>
<path d="M286.612 135.326L281.395 136.985L280.315 133.578L285.574 131.911L293.228 123.209L294.382 126.829L289.09 132.843L296.884 134.697L297.947 138.039L286.612 135.343V135.326Z" fill="white"/>
<path d="M291.724 191.043L288.158 197.089C285.59 201.444 281.207 202.882 277.175 200.504C273.143 198.127 272.276 193.6 274.844 189.245L278.41 183.199L291.732 191.035L291.724 191.043ZM277.461 190.585C275.907 193.224 276.463 195.888 279.015 197.383C281.566 198.887 284.167 198.086 285.721 195.439L287.381 192.628L279.121 187.766L277.461 190.577V190.585Z" fill="white"/>
<path d="M275.441 202.776C278.663 206.044 278.5 210.979 275.016 214.395C271.556 217.802 266.617 217.916 263.378 214.632C260.14 211.347 260.336 206.412 263.804 203.013C267.279 199.597 272.219 199.508 275.441 202.776ZM265.963 212.091C268.024 214.182 270.91 214.158 272.881 212.221C274.852 210.285 274.918 207.401 272.857 205.309C270.796 203.217 267.909 203.242 265.938 205.178C263.967 207.115 263.902 209.999 265.963 212.091Z" fill="white"/>
<path d="M258.512 226.667L255.38 228.399L247.905 214.877L251.038 213.145L258.521 226.667H258.512Z" fill="white"/>
<path d="M246.564 229.249L251.193 227.509L252.215 230.238L239.596 234.969L238.574 232.248L243.203 230.516L238.803 218.782L242.156 217.524L246.556 229.257L246.564 229.249Z" fill="white"/>
<path d="M217.229 225.809L224.393 225.425L225.579 222.042L229.243 221.846L223.199 237.64L219.674 237.828L211.938 222.778L215.683 222.574L217.229 225.801V225.809ZM218.505 228.465L221.269 234.241L223.395 228.203L218.497 228.465H218.505Z" fill="white"/>
<path d="M194.314 234.969L197.266 219.812L200.153 220.376L205.927 231.047L207.718 221.846L211.185 222.525L208.233 237.673L205.33 237.109L199.581 226.438L197.79 235.639L194.322 234.96L194.314 234.969Z" fill="white"/>
<path d="M185.604 220.743L187.853 215.751L191.116 217.222L188.851 222.247L190.233 233.759L186.765 232.199L185.817 224.249L179.233 228.808L176.028 227.37L185.604 220.743Z" fill="white"/>
<path d="M154.29 210.407L168.127 201.869L171.063 204.345L166.909 214.525L176.346 208.798L179.266 211.257L173.173 226.332L170.336 223.938L174.686 213.398L164.889 219.338L162.362 217.197L166.729 206.559L156.907 212.597L154.29 210.391V210.407Z" fill="white"/>
<path d="M156.204 190.961L160.129 196.966L163.654 196.305L165.658 199.369L148.95 202.049L147.02 199.091L156.179 184.857L158.232 187.995L156.212 190.953L156.204 190.961ZM154.544 193.388L150.929 198.674L157.226 197.489L154.544 193.388Z" fill="white"/>
<path d="M148.721 179.824L153.832 177.855L155.116 181.189L149.964 183.174L142.841 192.325L141.475 188.788L146.398 182.472L138.506 181.091L137.247 177.814L148.721 179.824Z" fill="white"/>
<path d="M217 215.571C250.206 215.571 277.126 188.676 277.126 155.5C277.126 122.324 250.206 95.4288 217 95.4288C183.793 95.4288 156.874 122.324 156.874 155.5C156.874 188.676 183.793 215.571 217 215.571Z" stroke="white"/>
<path d="M217 249.047C268.711 249.047 310.631 207.164 310.631 155.5C310.631 103.836 268.711 61.9533 217 61.9533C165.289 61.9533 123.368 103.836 123.368 155.5C123.368 207.164 165.289 249.047 217 249.047Z" stroke="white"/>
<path d="M201.044 163.891C202.672 165.615 204.438 167.209 206.156 168.843C207.685 170.297 209.182 172.038 210.965 173.173C211.267 173.361 211.701 172.969 211.472 172.667C210.212 170.967 208.388 169.603 206.826 168.173C205.076 166.571 203.359 164.921 201.527 163.409C201.192 163.131 200.734 163.564 201.044 163.891Z" fill="white"/>
<path d="M202.288 163.091C211.619 142.067 229.938 126.208 252.15 120.17C252.788 119.998 252.518 119.018 251.88 119.181C229.48 125.072 210.548 141.463 201.658 162.821C201.511 163.18 202.132 163.442 202.288 163.091Z" fill="white"/>
<path d="M211.889 172.389C232.056 161.162 247.186 142.28 254.685 120.537C254.898 119.916 253.908 119.647 253.695 120.268C246.212 141.969 231.132 159.945 211.619 171.931C211.324 172.111 211.586 172.56 211.889 172.397V172.389Z" fill="white"/>
<path d="M235.573 126.265C237.126 128.202 239.097 129.868 240.88 131.592C242.663 133.316 244.462 135.106 246.327 136.789C246.678 137.099 247.382 136.805 247.185 136.291L246.973 135.719C246.867 135.433 246.417 135.375 246.335 135.719L246.196 136.291L247.055 136.062C243.603 132.557 239.972 128.626 235.998 125.709C235.654 125.456 235.344 125.979 235.573 126.257V126.265Z" fill="white"/>
<path d="M227.026 140.507C228.646 140.057 230.535 140.613 231.369 142.149C232.203 143.685 231.631 145.809 230.134 146.7C228.785 147.501 226.846 147.166 225.824 145.981C224.548 144.51 225.039 142.525 226.2 141.185C226.487 140.85 226.094 140.213 225.693 140.523C223.984 141.839 223.632 144.502 224.875 146.267C226.119 148.032 228.596 148.539 230.42 147.534C232.244 146.529 233.062 144.134 232.293 142.223C231.459 140.131 228.932 139.183 226.887 140.008C226.585 140.131 226.699 140.597 227.026 140.507Z" fill="white"/>
<path d="M217.368 168.246C221.081 171.801 223.199 175.902 221.882 181.164C220.803 185.478 217.9 188.101 215.536 191.655C215.405 191.86 215.667 192.129 215.871 191.99C222.635 187.431 227.501 172.013 217.507 168.001C217.368 167.944 217.27 168.148 217.368 168.246Z" fill="white"/>
<path d="M216.109 192.424C223.624 188.069 231.565 182.692 235.262 174.513C237.944 168.581 238.116 159.953 232.669 155.435C232.375 155.189 231.835 155.508 232.089 155.876C236.816 162.568 237.216 169.717 232.849 176.809C228.752 183.46 222.062 187.537 215.79 191.876C215.463 192.105 215.749 192.62 216.1 192.415L216.109 192.424Z" fill="white"/>
<path d="M181.262 163.042C187.044 156.047 195.516 153.702 203.89 157.494C204.52 157.78 205.068 156.881 204.438 156.554C196.154 152.256 185.8 154.691 180.91 162.772C180.779 162.984 181.098 163.238 181.262 163.042Z" fill="white"/>
<path d="M180.01 162.241C183.102 156.374 186.095 150.434 191.533 146.332C197.634 141.74 205.289 140.94 211.872 144.943C212.355 145.238 212.968 144.502 212.494 144.135C207.039 139.869 199.245 140.482 193.439 143.742C186.643 147.558 182.112 154.879 179.601 162.061C179.52 162.298 179.896 162.461 180.01 162.233V162.241Z" fill="white"/>
<path d="M201.854 164.978C199.621 165.403 197.471 166.563 195.369 167.437C193.496 168.214 191.484 168.851 189.767 169.938C189.481 170.117 189.66 170.575 190.004 170.493C191.975 170.011 193.831 169.014 195.696 168.214C197.781 167.315 200.112 166.579 201.977 165.272C202.124 165.174 202.034 164.954 201.854 164.986V164.978Z" fill="white"/>
<path d="M189.685 171.139C191.337 171.319 192.997 171.335 194.649 171.392C195.222 171.408 195.222 170.518 194.649 170.501C192.997 170.461 191.337 170.387 189.685 170.477C189.252 170.501 189.268 171.09 189.685 171.139Z" fill="white"/>
<path d="M193.406 171.302C190.519 176.515 187.06 181.818 184.901 187.374C184.77 187.709 185.269 187.872 185.457 187.611C188.818 182.749 191.28 176.891 193.962 171.629C194.15 171.261 193.61 170.943 193.414 171.31L193.406 171.302Z" fill="white"/>
<path d="M184.001 189.074C189.333 186.328 194.911 183.191 199.818 179.734C200.251 179.424 199.883 178.778 199.401 179.015C194.036 181.695 188.63 185.127 183.682 188.518C183.347 188.747 183.633 189.261 184.001 189.065V189.074Z" fill="white"/>
<path d="M199.499 179.922L199.483 181.753C199.483 182.3 199.393 182.88 199.564 183.403C199.662 183.722 200.104 183.722 200.202 183.403C200.366 182.88 200.284 182.292 200.284 181.753L200.268 179.922C200.268 179.432 199.507 179.432 199.499 179.922Z" fill="white"/>
<path d="M200.071 184.285C203.629 180.265 207.145 176.213 210.58 172.087C210.948 171.645 210.318 171.008 209.942 171.449C206.45 175.535 203.032 179.693 199.662 183.877C199.433 184.163 199.818 184.571 200.071 184.285Z" fill="white"/>
<path d="M225.579 143.914C226.217 144.388 226.855 144.862 227.492 145.336C228.049 145.752 228.605 146.283 229.267 146.52C229.382 146.561 229.504 146.414 229.431 146.308C229.03 145.769 228.392 145.401 227.852 145.001C227.173 144.502 226.495 144.004 225.816 143.497C225.571 143.317 225.342 143.726 225.579 143.898V143.914Z" fill="white"/>
<path d="M226.388 142.223C227.075 142.819 227.771 143.424 228.457 144.02C229.071 144.551 229.668 145.18 230.396 145.556C230.469 145.597 230.576 145.507 230.518 145.434C230.044 144.772 229.349 144.273 228.736 143.742C228.04 143.146 227.353 142.541 226.658 141.945C226.47 141.781 226.192 142.059 226.38 142.223H226.388Z" fill="white"/>
<path d="M252.354 119.965C252.354 119.965 252.42 120.006 252.452 120.023L252.395 119.925V119.965C252.395 120.047 252.436 120.121 252.501 120.162C252.689 120.276 253.262 120.554 253.36 120.202C253.409 120.031 253.262 119.925 253.131 119.876C252.959 119.81 252.796 119.761 252.616 119.745C252.534 119.737 252.469 119.794 252.42 119.859L252.403 119.876L252.526 119.827C252.526 119.827 252.444 119.818 252.411 119.81C252.321 119.794 252.248 119.916 252.346 119.974L252.354 119.965Z" fill="white"/>
<path d="M251.422 119.614C251.7 119.524 251.978 119.426 252.264 119.336C252.518 119.246 252.796 119.189 253.016 119.026C253.147 118.936 253.115 118.699 252.926 118.707C252.648 118.707 252.395 118.822 252.141 118.911C251.863 119.001 251.585 119.099 251.299 119.189C251.013 119.279 251.144 119.712 251.414 119.614H251.422Z" fill="white"/>
<path d="M251.675 119.336C252.109 119.246 252.559 119.189 252.976 119.067C253.213 119.001 253.18 118.585 252.918 118.617C252.46 118.674 252.002 118.789 251.553 118.879C251.25 118.936 251.381 119.402 251.684 119.336H251.675Z" fill="white"/>
<path d="M252.002 119.843C252.354 119.671 252.698 119.492 253.049 119.32C253.327 119.181 253.082 118.756 252.804 118.895C252.452 119.067 252.109 119.238 251.757 119.418C251.471 119.557 251.724 119.99 252.002 119.843Z" fill="white"/>
<path d="M137.214 149.568C140.461 149.813 143.797 145.622 143.781 142.607C143.781 141.953 142.939 141.928 142.718 142.46L142.562 142.835C142.464 143.072 142.742 143.293 142.963 143.236L143.38 143.121L142.718 142.46C142.268 144.028 141.892 145.376 140.747 146.618C139.676 147.77 138.359 148.228 137.075 149.037C136.821 149.192 136.936 149.552 137.222 149.576L137.214 149.568Z" fill="white"/>
<path d="M137.827 150.058C139.275 150.034 140.69 150.54 141.753 151.529C142.227 151.97 142.628 152.51 142.898 153.098C143.135 153.604 143.127 153.972 143.577 154.315C143.699 154.413 143.912 154.34 143.986 154.209C144.648 153.008 142.955 151.202 142.072 150.516C140.804 149.527 139.316 149.127 137.729 149.396C137.353 149.462 137.451 150.058 137.819 150.05L137.827 150.058Z" fill="white"/>
<path d="M144.198 153.474C145.098 152.567 145.973 151.652 146.807 150.679C147.379 150.001 148.533 149.143 148.443 148.187C148.426 148.016 148.295 147.82 148.091 147.836C147.061 147.934 146.431 149.217 145.826 149.968C145.032 150.949 144.296 151.962 143.577 152.992C143.315 153.367 143.887 153.784 144.198 153.474Z" fill="white"/>
<path d="M142.849 143.081C143.454 145.703 145.564 147.844 148.001 148.874C148.712 149.176 149.138 148.195 148.418 147.893C146.12 146.945 144.631 145.091 143.699 142.844C143.487 142.329 142.718 142.509 142.849 143.081Z" fill="white"/>
<path d="M284.004 166.359C287.25 166.604 290.587 162.412 290.571 159.397C290.571 158.744 289.728 158.719 289.507 159.25L289.352 159.626C289.254 159.863 289.532 160.084 289.753 160.027L290.17 159.912L289.507 159.25C289.058 160.819 288.681 162.167 287.536 163.409C286.465 164.561 285.148 165.019 283.864 165.828C283.611 165.983 283.725 166.343 284.012 166.367L284.004 166.359Z" fill="white"/>
<path d="M284.609 166.849C286.056 166.825 287.471 167.331 288.534 168.32C289.008 168.761 289.409 169.3 289.679 169.889C289.916 170.395 289.908 170.763 290.358 171.106C290.481 171.204 290.693 171.131 290.767 171C291.429 169.799 289.736 167.993 288.853 167.307C287.585 166.318 286.097 165.918 284.51 166.187C284.134 166.253 284.232 166.849 284.6 166.841L284.609 166.849Z" fill="white"/>
<path d="M290.988 170.265C291.887 169.358 292.762 168.442 293.597 167.47C294.169 166.792 295.322 165.934 295.232 164.978C295.216 164.807 295.085 164.61 294.881 164.627C293.85 164.725 293.22 166.008 292.615 166.759C291.822 167.74 291.086 168.753 290.366 169.782C290.104 170.158 290.677 170.575 290.988 170.265Z" fill="white"/>
<path d="M289.638 159.871C290.243 162.494 292.353 164.635 294.79 165.664C295.502 165.967 295.927 164.986 295.207 164.684C292.909 163.736 291.421 161.881 290.489 159.634C290.276 159.12 289.507 159.299 289.638 159.871Z" fill="white"/>
</g>
<defs>
<linearGradient id="paint0_linear_229_80" x1="321.083" y1="350.714" x2="321.083" y2="161.286" gradientUnits="userSpaceOnUse">
<stop offset="0.64" stop-color="#EEA3F5"/>
<stop offset="1" stop-color="#EB94F4"/>
</linearGradient>
<linearGradient id="paint1_linear_229_80" x1="415.918" y1="161.286" x2="415.918" y2="350.714" gradientUnits="userSpaceOnUse">
<stop offset="0.64" stop-color="#EEA3F5"/>
<stop offset="1" stop-color="#EB94F4"/>
</linearGradient>
<linearGradient id="paint2_linear_229_80" x1="273.673" y1="208.639" x2="463.327" y2="208.639" gradientUnits="userSpaceOnUse">
<stop offset="0.64" stop-color="#EF9CF4"/>
<stop offset="1" stop-color="#EA93F2"/>
</linearGradient>
<linearGradient id="paint3_linear_229_80" x1="463.327" y1="303.361" x2="273.673" y2="303.361" gradientUnits="userSpaceOnUse">
<stop offset="0.64" stop-color="#EC9DF5"/>
<stop offset="1" stop-color="#EC95F3"/>
</linearGradient>
<linearGradient id="paint4_linear_229_80" x1="554.242" y1="122" x2="554.242" y2="264.57" gradientUnits="userSpaceOnUse">
<stop offset="0.64" stop-color="#6976DF"/>
<stop offset="1" stop-color="#5A65DC"/>
</linearGradient>
<linearGradient id="paint5_linear_229_80" x1="447.583" y1="157.64" x2="590.574" y2="157.64" gradientUnits="userSpaceOnUse">
<stop offset="0.64" stop-color="#6976DF"/>
<stop offset="1" stop-color="#5A65DC"/>
</linearGradient>
<linearGradient id="paint6_linear_229_80" x1="590.574" y1="228.924" x2="447.583" y2="228.924" gradientUnits="userSpaceOnUse">
<stop offset="0.64" stop-color="#6976DF"/>
<stop offset="1" stop-color="#5A65DC"/>
</linearGradient>
<linearGradient id="paint7_linear_229_80" x1="483.332" y1="264.57" x2="483.332" y2="122" gradientUnits="userSpaceOnUse">
<stop offset="0.58" stop-color="#5A65DC"/>
<stop offset="0.77" stop-color="#6976DF"/>
<stop offset="0.83" stop-color="#6976DF"/>
</linearGradient>
<linearGradient id="paint8_linear_229_80" x1="266.437" y1="55" x2="266.437" y2="255.404" gradientUnits="userSpaceOnUse">
<stop offset="0.64" stop-color="#6976DF"/>
<stop offset="1" stop-color="#5A65DC"/>
</linearGradient>
<linearGradient id="paint9_linear_229_80" x1="116.818" y1="105.103" x2="317.403" y2="105.103" gradientUnits="userSpaceOnUse">
<stop offset="0.64" stop-color="#6976DF"/>
<stop offset="1" stop-color="#5A65DC"/>
</linearGradient>
<linearGradient id="paint10_linear_229_80" x1="317.403" y1="205.301" x2="116.818" y2="205.301" gradientUnits="userSpaceOnUse">
<stop offset="0.64" stop-color="#6976DF"/>
<stop offset="1" stop-color="#5A65DC"/>
</linearGradient>
<linearGradient id="paint11_linear_229_80" x1="166.958" y1="255.493" x2="166.958" y2="55.098" gradientUnits="userSpaceOnUse">
<stop offset="0.58" stop-color="#5A65DC"/>
<stop offset="0.77" stop-color="#6976DF"/>
<stop offset="0.83" stop-color="#6976DF"/>
</linearGradient>
<clipPath id="clip0_229_80">
<rect width="191" height="190" fill="white" transform="translate(273 161)"/>
</clipPath>
<clipPath id="clip1_229_80">
<rect width="160" height="159" fill="white" transform="translate(37.8452 19) rotate(13.7697)"/>
</clipPath>
<clipPath id="clip2_229_80">
<rect width="95.2613" height="92.8695" fill="white" transform="translate(270 47.6306) rotate(-30)"/>
</clipPath>
<clipPath id="clip3_229_80">
<rect width="144" height="143" fill="white" transform="translate(447 122)"/>
</clipPath>
<clipPath id="clip4_229_80">
<rect width="202" height="201" fill="white" transform="translate(116 55)"/>
</clipPath>
</defs>
</svg>
