<?xml version="1.0" encoding="UTF-8"?>
<svg id="Capa_2" data-name="Capa 2" xmlns="http://www.w3.org/2000/svg" viewBox="0 0 154.27 154.27">
  <defs>
    <style>
      .cls-1 {
        fill: #fff;
      }
    </style>
  </defs>
  <g id="Capa_1-2" data-name="Capa 1">
    <g>
      <path class="cls-1" d="M77.13,0C34.6,0,0,34.6,0,77.13s34.6,77.13,77.13,77.13,77.13-34.6,77.13-77.13S119.67,0,77.13,0ZM77.13,149.36c-39.83,0-72.23-32.4-72.23-72.23S37.31,4.91,77.13,4.91s72.23,32.4,72.23,72.23-32.4,72.23-72.23,72.23Z"/>
      <path class="cls-1" d="M91.02,59.88c4.83,0,8.75-3.97,8.75-8.86s-3.92-8.86-8.75-8.86-8.75,3.97-8.75,8.86,3.92,8.86,8.75,8.86Z"/>
      <path class="cls-1" d="M63.25,59.88c4.83,0,8.75-3.97,8.75-8.86s-3.92-8.86-8.75-8.86-8.75,3.97-8.75,8.86,3.92,8.86,8.75,8.86Z"/>
      <path class="cls-1" d="M78.39,89.07c-22.18,0-40.23-14.72-40.23-32.82h-4.91c0,20.8,20.25,37.73,45.13,37.73s45.14-16.92,45.14-37.73h-4.91c0,18.1-18.05,32.82-40.23,32.82Z"/>
    </g>
  </g>
</svg>