<svg xmlns="http://www.w3.org/2000/svg" xmlns:xlink="http://www.w3.org/1999/xlink" id="Capa_1" data-name="Capa 1" viewBox="0 0 247 246"><defs><style>      .cls-1 {        fill: url(#Degradado_sin_nombre_4);      }      .cls-1, .cls-2, .cls-3, .cls-4, .cls-5, .cls-6 {        stroke-width: 0px;      }      .cls-2 {        fill: url(#Degradado_sin_nombre_3);      }      .cls-3 {        fill: url(#Degradado_sin_nombre_2);      }      .cls-4 {        fill: url(#Degradado_sin_nombre);      }      .cls-7 {        fill: none;        stroke: #fff;        stroke-dasharray: 0 0 6 6;      }      .cls-5 {        fill: #fff;      }      .cls-6 {        fill: #6976df;      }    </style><linearGradient id="Degradado_sin_nombre" data-name="Degradado sin nombre" x1="183.95" y1="-269.27" x2="183.95" y2="-514.53" gradientTransform="translate(0 -269.27) scale(1 -1)" gradientUnits="userSpaceOnUse"><stop offset=".64" stop-color="#6976df"></stop><stop offset="1" stop-color="#5a65dc"></stop></linearGradient><linearGradient id="Degradado_sin_nombre_2" data-name="Degradado sin nombre 2" x1="1" y1="-330.58" x2="246.27" y2="-330.58" gradientTransform="translate(0 -269.27) scale(1 -1)" gradientUnits="userSpaceOnUse"><stop offset=".64" stop-color="#6976df"></stop><stop offset="1" stop-color="#5a65dc"></stop></linearGradient><linearGradient id="Degradado_sin_nombre_3" data-name="Degradado sin nombre 3" x1="246.27" y1="-453.21" x2="1" y2="-453.21" gradientTransform="translate(0 -269.27) scale(1 -1)" gradientUnits="userSpaceOnUse"><stop offset=".64" stop-color="#6976df"></stop><stop offset="1" stop-color="#5a65dc"></stop></linearGradient><linearGradient id="Degradado_sin_nombre_4" data-name="Degradado sin nombre 4" x1="62.31" y1="-514.65" x2="62.31" y2="-269.38" gradientTransform="translate(0 -269.27) scale(1 -1)" gradientUnits="userSpaceOnUse"><stop offset=".58" stop-color="#5a65dc"></stop><stop offset=".77" stop-color="#6976df"></stop><stop offset=".83" stop-color="#6976df"></stop></linearGradient></defs><circle class="cls-6" cx="123.63" cy="122.63" r="122.63"></circle><path class="cls-4" d="M245.27,122.63c0,16.1-3.17,32.05-9.34,46.93-6.16,14.88-15.2,28.4-26.58,39.79-11.39,11.39-24.91,20.42-39.79,26.58-14.88,6.16-30.82,9.34-46.93,9.34v-122.63h122.63Z"></path><path class="cls-3" d="M123.63,0c16.1,0,32.05,3.17,46.93,9.33,14.88,6.16,28.4,15.2,39.79,26.58,11.39,11.39,20.42,24.91,26.58,39.78,6.16,14.88,9.34,30.83,9.34,46.93h-122.63V0Z"></path><path class="cls-2" d="M123.63,245.27c-16.11,0-32.05-3.17-46.93-9.34-14.88-6.16-28.4-15.2-39.78-26.58-11.39-11.39-20.42-24.91-26.58-39.79-6.16-14.88-9.33-30.82-9.33-46.93h122.63v122.63Z"></path><path class="cls-1" d="M.99,122.75c0-16.1,3.17-32.05,9.33-46.93,6.16-14.88,15.2-28.4,26.58-39.78,11.39-11.39,24.91-20.42,39.78-26.58C91.57,3.29,107.52.12,123.63.12v122.63H.99Z"></path><g><path class="cls-5" d="M84.93,110.05c-.22,7.27.84,14.73,1.37,21.99s1.1,14.66,1.69,21.99c.08,1.05,1.73,1.05,1.64,0-.62-7.65-1.26-15.3-1.93-22.94-.61-6.99-.76-14.23-2.09-21.12-.08-.4-.67-.29-.68.09h0Z"></path><path class="cls-5" d="M88.62,152.74c11.19,2.58,23.81,2.01,35.25,1.92,12.4-.1,24.76-.9,37.1-2.15,1.09-.11,1.09-1.83,0-1.71-11.99,1.37-24.05,2.11-36.12,2.28-11.99.16-24.23-1.49-36.16-.78-.24.01-.32.38-.06.44h0Z"></path><path class="cls-5" d="M161.93,151.52c1.34-14.44,1.89-30.5-1.35-44.73-.17-.76-1.4-.6-1.36.18.32,7.42,1.5,14.79,1.78,22.23.28,7.43.19,14.88-.11,22.31-.03.68.98.66,1.04,0h0Z"></path><path class="cls-5" d="M86.17,109.98c12.48.18,25.15-1.59,37.65-2.03,5.95-.21,11.91-.35,17.87-.41,6.56-.07,13.34.51,19.86-.17.65-.07.96-1.16.17-1.27-12.25-1.66-25.56-.32-37.89.14s-25.55.37-37.79,2.72c-.59.11-.43,1.01.14,1.02h0Z"></path><path class="cls-5" d="M100.31,107.32c.47-3.48.1-7.07-.02-10.58s.01-7.16-.65-10.63c-.11-.56-.88-.36-.93.13-.39,3.7.09,7.59.28,11.31.16,3.25.11,6.58.82,9.77.05.24.46.26.5,0h0Z"></path><path class="cls-5" d="M99.05,86.47c1.97-.05,3.93-.15,5.89-.3.74-.06.73-1.22,0-1.14-2,.22-3.99.48-5.97.79-.37.06-.28.66.09.65h0Z"></path><path class="cls-5" d="M105.01,85.56c1.26-.8,2.8-1.82,2.81-3.49,0-1-.63-2.19-1.71-2.34-3.48-.48-2.97,5.45-1.97,7.2,1.65,2.88,5.51,3.67,8.3,1.95s3.9-6.55,1.2-8.81c-.24-.2-.55.04-.42.32.91,2.03,1.61,3.99.4,6.11-1.14,1.99-3.63,2.9-5.82,2.36s-3.55-2.38-3.78-4.5c-.05-.49-.05-.9.03-1.38.03-.31.1-.62.21-.92l2.79-.53c.37.4-.17,1.57-.41,1.92-.46.69-1.2,1.24-1.85,1.73-.22.17-.02.54.22.38h0Z"></path><path class="cls-5" d="M112.99,80.61c-2.25,2.23-1.87,6.34.49,8.35,2.22,1.89,5.74,2,7.94.04,2-1.79,3.2-5.95.86-8-.86-.75-2.06-.87-2.9-.02-1.11,1.13-.69,2.76-.19,4.05.17.45.87.28.74-.2-.14-.52-.34-1.1-.34-1.64l.22-1.28,2.63.97c.45.64.23,2.16.03,2.86-.58,2.09-2.25,3.69-4.43,3.94-2.03.23-4.24-.71-5.25-2.56-1.17-2.14-.67-4.3.47-6.3.1-.18-.13-.36-.28-.22h0Z"></path><path class="cls-5" d="M118.98,83.88c.65,4.06,4.79,6.66,8.72,5.19s5.2-6.36,3.05-9.88c-.15-.25-.51-.37-.78-.2-4.43,2.87-3.17,9.88,2.43,10.09.51.02.64-.81.12-.9-4.17-.77-5.86-5.73-1.98-8.21l-.78-.2c1.82,3.01.97,6.95-2.49,8.31-3.54,1.39-6.83-.8-7.74-4.35-.09-.37-.62-.21-.56.15h0Z"></path><path class="cls-5" d="M131.78,87.93c3.13.64,6.23-.86,7.31-3.97.52-1.49.49-6.58-2.41-5.29-1.18.52-1.6,2.43-1.85,3.52-.37,1.58-.42,3.31.4,4.76,1.22,2.14,4.66,3.04,5.76.34.11-.26-.28-.44-.45-.26-2.1,2.12-4.69.19-4.92-2.35-.07-.74.92-6.54,2.57-4.19,1,1.41-.33,4.2-1.32,5.24-1.3,1.35-3.2,1.92-5.03,1.75-.26-.03-.32.41-.06.46h0Z"></path><path class="cls-5" d="M140.7,88.25c2.85-1.73,3.73-5.55,3.13-8.64-.05-.28-.41-.46-.67-.38-3.24,1.05-5.09,4.94-2.85,7.86,1.72,2.24,6.23,2.05,6.55-1.23.03-.33-.44-.42-.59-.16-1.28,2.17-4.23,2.7-5.46.11-1.09-2.29.36-4.77,2.64-5.53l-.67-.38c.63,3.12-.64,5.55-2.48,7.95-.18.24.17.54.4.4h0Z"></path><path class="cls-5" d="M146.8,86.93c.35-.13.85-.12,1.21,0,.25.09.45.24.72.16.22-.06.43-.23.46-.46.05-.32-.04-.56-.3-.74-.38-.27-.88-.38-1.34-.33-.51.06-.84.27-1.18.63-.28.3,0,.9.43.74h0Z"></path><path class="cls-5" d="M148.64,86.53c-.59,6.56-1.04,13.6-.57,20.18.05.66.93.63,1,0,.78-6.54.66-13.59.38-20.18-.02-.53-.77-.52-.82,0h0Z"></path><path class="cls-5" d="M99.21,122.95c-2.71.62-3.92,4.28-2.93,6.67,1.1,2.66,4.64,4.01,7.2,2.61,2.42-1.33,3.48-4.73,2.01-7.12-1.26-2.05-4.94-3.47-6.86-1.52-.29.3.01.71.38.65,2.02-.33,4.16-.56,5.44,1.48,1.16,1.83.34,4.54-1.52,5.57-2.17,1.21-5.21-.13-5.89-2.49s.8-4.02,2.45-5.37c.24-.2-.02-.55-.28-.49h0Z"></path><path class="cls-5" d="M146.41,123.23c-2.63-.81-4.98,1.62-4.34,4.26.7,2.89,3.92,4.38,6.66,3.53s4.18-3.84,3.06-6.45c-1.06-2.47-4.5-3.47-6.55-1.6-.5.46.14,1.18.69.9,1.53-.78,3.58-.68,4.51.98s.11,3.94-1.57,4.8-3.76.36-4.94-1.04c-1.55-1.85-.5-5.32,2.31-4.77.39.08.56-.49.17-.61h0Z"></path><path class="cls-5" d="M109.15,136.21c9.84,1.28,22.36.28,31.82-2.85.54-.18.49-1.12-.14-1.05-5.28.59-10.45,1.86-15.74,2.45s-10.64.55-15.94,1.07c-.25.02-.24.35,0,.38h0Z"></path><path class="cls-5" d="M109.01,135.34c-1.99,1.03-1.88,4.43-.48,5.88.36.37.99-.11.72-.56-.48-.8-.83-1.54-.8-2.5s.49-1.69.85-2.52c.09-.2-.09-.41-.3-.3h0Z"></path><path class="cls-5" d="M108.82,141.02c9.33,2.64,22.41,1.9,31.4-1.8.54-.22.34-.97-.24-.88-5.47.88-10.72,2.33-16.3,2.64-4.98.28-9.83-.39-14.79-.5-.31,0-.37.45-.07.53h0Z"></path><path class="cls-5" d="M139.6,139.51c1.2-.65,1.86-1.71,2.03-3.07.13-1.04-.05-2.75-1.09-3.26-.34-.17-.66.11-.61.47.15.95.73,1.61.67,2.66s-.55,2.1-1.27,2.85c-.18.19.05.49.28.36h0Z"></path><path class="cls-5" d="M110.82,136.96c.03.74.1,1.48.19,2.22.08.62.04,1.4.51,1.84.09.09.25.07.32-.04.3-.52.09-1.15,0-1.72-.12-.8-.27-1.59-.47-2.38-.08-.31-.58-.25-.56.08h0Z"></path><path class="cls-5" d="M115.46,137.53c.04.65.09,1.29.13,1.94.04.53,0,1.09.27,1.57.13.23.44.15.52-.07.18-.51.04-1.1,0-1.63-.06-.6-.11-1.21-.17-1.81-.04-.47-.77-.48-.74,0h0Z"></path><path class="cls-5" d="M120.07,136.4c.15,1.27.09,2.87.62,4.05.08.19.43.15.45-.06.18-1.29-.32-2.79-.53-4.06-.05-.3-.58-.24-.54.07h0Z"></path><path class="cls-5" d="M125.8,136.1c.05.76.06,1.51.14,2.27.07.62.05,1.3.38,1.84.16.26.56.21.64-.08.18-.61-.01-1.26-.11-1.88-.12-.75-.3-1.48-.44-2.23-.07-.34-.63-.27-.61.08h0Z"></path><path class="cls-5" d="M130.74,134.99c.1.79.2,1.58.32,2.36s.12,1.63.56,2.27c.13.19.45.18.51-.07.19-.69-.04-1.4-.17-2.09-.16-.86-.35-1.71-.54-2.57-.08-.38-.73-.3-.68.09h0Z"></path><path class="cls-5" d="M134.97,134.78c.23.71.45,1.41.69,2.12.19.57.32,1.25.78,1.66.14.13.45.1.48-.13.09-.63-.21-1.18-.44-1.76-.28-.69-.56-1.38-.85-2.07-.16-.4-.8-.25-.66.18h0Z"></path><path class="cls-5" d="M137.87,134.11c.02.72.19,1.41.36,2.1s.26,1.43.65,2.04c.21.34.71.19.73-.2.04-.72-.24-1.42-.43-2.1s-.38-1.37-.71-2c-.14-.28-.6-.15-.59.16h0Z"></path><path class="cls-5" d="M162.14,139.93c1.01.1,2.03-.11,3.03-.26.88-.13,1.92-.1,2.57-.76.15-.15.15-.48-.07-.58-.86-.37-1.72,0-2.6.19-1.04.24-2.11.43-3.06.93-.25.13-.1.46.13.48h0Z"></path><path class="cls-5" d="M168.16,137.81c-.09-3.17-.18-6.34-.35-9.51-.15-2.73.04-5.63-.79-8.24-.09-.28-.56-.33-.62,0-.49,2.68.04,5.53.24,8.24.23,3.18.55,6.34.85,9.51.04.42.69.44.67,0h0Z"></path><path class="cls-5" d="M161.26,120.56c.76-.02,1.51-.08,2.26-.17.65-.08,1.32-.08,1.9-.38.36-.19.29-.8-.12-.88-.65-.13-1.29.05-1.94.16-.75.12-1.49.28-2.22.47-.44.12-.36.81.11.8h0Z"></path><path class="cls-5" d="M168.26,131.14c1.87-.23,3.69-.63,5.53-1.03s3.84-.53,5.43-1.47c.42-.25.21-.85-.24-.88-1.71-.12-3.47.59-5.12,1-1.92.48-3.83.95-5.7,1.6-.39.14-.36.83.1.77h0Z"></path><path class="cls-5" d="M182.39,125.52c-2.13.15-3.42,2.56-2.72,4.51.76,2.11,3.4,3.07,5.36,2.05,2.13-1.11,2.93-3.87,1.69-5.93-1.03-1.7-4.29-2.9-5.55-.77-.18.31.12.69.46.6.67-.18,1.24-.54,1.97-.51.88.04,1.65.54,2.11,1.28.89,1.44.37,3.4-1.09,4.25-1.29.75-3.08.24-3.79-1.07-.85-1.57.34-3.12,1.75-3.75.31-.14.16-.67-.18-.65h0Z"></path><path class="cls-5" d="M85.87,125.43c-1.15-.02-2.32.12-3.47.22-1.02.09-2.12.05-3.08.41-.35.13-.46.76,0,.83,1.1.17,2.23-.09,3.33-.22s2.23-.23,3.32-.47c.44-.1.33-.76-.1-.76h0Z"></path><path class="cls-5" d="M79.79,126.31c.13,6.14-.31,13.13,1.12,19.11.06.25.39.16.41-.06.75-6.09-.46-12.95-1-19.06-.03-.33-.53-.34-.52,0h0Z"></path><path class="cls-5" d="M81.13,145.47c1.06.04,2.12.08,3.18.07.94,0,1.96.11,2.85-.21.43-.15.49-.8,0-.93-.91-.24-1.92-.06-2.85.02-1.06.08-2.12.21-3.18.34-.44.05-.47.7,0,.71h0Z"></path><path class="cls-5" d="M69.64,136.05c3.68.14,8.05.59,11.63-.33.44-.11.49-.87,0-.95-3.68-.58-7.96.27-11.63.75-.33.04-.35.52,0,.53h0Z"></path><path class="cls-5" d="M69.88,135.61c-.5-2.21-3.19-3.57-5.21-2.38-1.9,1.12-2.22,4.1-.68,5.65,1.62,1.63,4.69,1.1,5.75-.91.55-1.05.44-2.33-.11-3.35-.49-.9-1.49-1.92-2.6-1.67-.24.05-.35.41-.15.57.59.49,1.29.7,1.75,1.37s.68,1.66.39,2.48c-.62,1.73-3.21,2.25-4.5.98s-.99-3.63.5-4.53c1.65-1,3.95.16,4.43,1.91.08.28.5.16.43-.12h0Z"></path><path class="cls-5" d="M154.21,110.62c0,.26-.01.44.06.69s.16.49.25.73c.16.43.3.84.7,1.09.18.11.4,0,.46-.19.14-.47-.05-.91-.22-1.34-.08-.21-.18-.42-.27-.63-.11-.26-.24-.38-.42-.58-.2-.22-.57-.04-.57.24h0Z"></path><path class="cls-5" d="M153.88,112.89c.51-.37,1.02-.74,1.53-1.11.39-.29.94-.6,1.08-1.08.05-.17-.09-.36-.27-.35-.51.02-.94.46-1.32.78-.49.4-.97.8-1.46,1.21-.31.26.1.8.43.56h0Z"></path><path class="cls-5" d="M155.74,147.95c.37.16.74.33,1.12.49s.64.31,1.04.27c.17-.02.35-.21.22-.38-.25-.33-.5-.43-.88-.59s-.8-.33-1.19-.5-.71.54-.3.72h0Z"></path><path class="cls-5" d="M156.5,149.45c.48-1.03,1.11-2.07,1.32-3.19.03-.17-.19-.36-.33-.19-.7.89-1.08,2.03-1.54,3.06-.16.37.38.7.55.32h0Z"></path><path class="cls-5" d="M91.54,147.85c.47.37.94.74,1.41,1.12.37.29.78.76,1.25.83.11.02.27-.08.21-.21-.19-.46-.69-.72-1.07-1.02-.47-.37-.95-.74-1.42-1.1-.27-.21-.66.17-.38.38h0Z"></path><path class="cls-5" d="M92.21,150.5c.47-.73,1.1-1.49,1.38-2.32.07-.2-.2-.34-.34-.2-.61.62-1,1.53-1.44,2.28-.15.26.24.49.4.24h0Z"></path><path class="cls-5" d="M87.4,111.2l1.48,1.05c.43.31.9.72,1.44.8.16.02.3-.12.22-.28-.25-.47-.79-.77-1.22-1.06l-1.58-1.1c-.36-.25-.7.34-.35.59h0Z"></path><path class="cls-5" d="M88.39,113.01c.38-.76.83-1.51,1.02-2.35.03-.14-.16-.28-.27-.16-.56.65-.89,1.45-1.26,2.21-.17.34.34.64.51.3h0Z"></path></g><g><path class="cls-5" d="M54.37,170.89l-3.6.32c.23-1.96-.23-4.43-1.34-6.4-1.27-2.26-2.54-2.75-3.55-2.18-3.08,1.74,4.43,10.12-1.69,13.57-2.8,1.58-6.4.63-9.04-4.05-1.17-2.07-1.87-4.47-1.76-6.54l3.56-.45c0,2.02.46,3.84,1.28,5.3,1.27,2.26,2.61,2.65,3.64,2.07,3.04-1.71-4.45-10.11,1.59-13.52,2.75-1.55,6.39-.59,9.04,4.12,1.47,2.61,2.18,5.69,1.87,7.78Z"></path><path class="cls-5" d="M42.73,138.01l-10.94,2.99,10.47,2.93.52,1.9-7.34,7.72,10.71-2.9,1.07,3.96-18.25,4.94-.95-3.49,9.49-9.9-13.16-3.66-.94-3.47,18.23-4.99,1.07,3.96Z"></path><path class="cls-5" d="M23.06,131.55l-.27-4.37,18.86-1.18.27,4.37-18.86,1.18Z"></path><path class="cls-5" d="M22.58,120.62l.36-4.36,15.29,1.27.78-9.45,3.55.29-1.15,13.81-18.84-1.56Z"></path><path class="cls-5" d="M43.62,91.78l3.37.97-4.04,14.07-18.16-5.22,3.94-13.73,3.37.97-2.74,9.55,3.94,1.13,2.42-8.44,3.27.94-2.42,8.44,4.2,1.21,2.84-9.89Z"></path><path class="cls-5" d="M56.89,71.58l-1.4-3.33c1.94-.37,4.15-1.56,5.7-3.22,1.77-1.9,1.86-3.25,1.01-4.05-2.59-2.41-8.31,7.28-13.44,2.49-2.35-2.19-2.53-5.91,1.13-9.84,1.62-1.74,3.69-3.13,5.7-3.65l1.51,3.25c-1.93.6-3.52,1.59-4.66,2.82-1.77,1.89-1.74,3.29-.87,4.1,2.55,2.38,8.29-7.3,13.36-2.56,2.31,2.16,2.5,5.91-1.19,9.86-2.04,2.19-4.76,3.79-6.85,4.13Z"></path><path class="cls-5" d="M84.69,50.54l-6.17-9.52.38,10.87-1.66,1.07-9.58-4.65,6.01,9.33-3.45,2.23-10.24-15.89,3.04-1.96,12.31,6.04-.51-13.65,3.02-1.95,10.28,15.86-3.45,2.23Z"></path><path class="cls-5" d="M84.84,29.82l4.08-1.6,6.88,17.6-4.07,1.6-6.88-17.6Z"></path><path class="cls-5" d="M95.12,26.02l4.26-.98,3.45,14.94,9.23-2.13.8,3.47-13.5,3.12-4.25-18.42Z"></path><path class="cls-5" d="M129.01,37.34l.09,3.51-14.63.38-.5-18.89,14.28-.37.09,3.51-9.93.26.11,4.1,8.77-.23.09,3.4-8.78.23.12,4.37,10.29-.27Z"></path><path class="cls-5" d="M152.25,43.84l2.75-2.34c.95,1.73,2.75,3.48,4.8,4.45,2.34,1.11,3.67.78,4.16-.27,1.51-3.2-9.47-5.7-6.47-12.04,1.37-2.91,4.86-4.22,9.72-1.92,2.15,1.02,4.1,2.57,5.22,4.32l-2.64,2.43c-1.16-1.65-2.59-2.87-4.1-3.58-2.34-1.11-3.66-.66-4.17.42-1.49,3.15,9.48,5.67,6.51,11.95-1.35,2.86-4.87,4.18-9.76,1.87-2.71-1.28-5.07-3.38-6.03-5.26Z"></path><path class="cls-5" d="M180.76,63.97l7.21-8.75-10.24,3.64-1.52-1.26,1.54-10.54-7.08,8.54-3.16-2.62,12.05-14.55,2.79,2.31-2.04,13.56,12.86-4.6,2.77,2.29-12.01,14.59-3.16-2.62Z"></path><path class="cls-5" d="M200.54,57.84l2.75,3.4-14.71,11.88-2.75-3.4,14.7-11.88Z"></path><path class="cls-5" d="M207.24,66.48l2.23,3.77-13.19,7.82,4.84,8.16-3.07,1.82-7.07-11.92,16.25-9.64Z"></path><path class="cls-5" d="M206.77,102.18l-3.31,1.16-4.83-13.82,17.84-6.24,4.71,13.48-3.31,1.16-3.28-9.38-3.88,1.35,2.9,8.29-3.21,1.12-2.9-8.29-4.13,1.44,3.4,9.71Z"></path><path class="cls-5" d="M207.61,126.33l3.07,1.91c-1.37,1.42-2.49,3.67-2.79,5.92-.35,2.57.37,3.73,1.52,3.88,3.5.47,2.57-10.74,9.53-9.8,3.18.43,5.49,3.36,4.77,8.68-.32,2.35-1.21,4.69-2.54,6.28l-3.11-1.78c1.22-1.61,1.95-3.33,2.17-4.99.35-2.57-.48-3.69-1.66-3.85-3.45-.47-2.54,10.75-9.42,9.82-3.13-.42-5.46-3.38-4.73-8.73.4-2.97,1.69-5.85,3.2-7.33Z"></path><path class="cls-5" d="M197.11,159.59l10.54,4.19-6.6-8.64.73-1.83,10.51-1.75-10.3-4.13,1.53-3.81,17.54,7.03-1.35,3.36-13.54,2.2,8.31,10.84-1.34,3.33-17.56-6.98,1.53-3.81Z"></path><path class="cls-5" d="M208.94,176.61l-2.41,3.65-15.79-10.4,2.41-3.65,15.78,10.4Z"></path><path class="cls-5" d="M202.75,185.61l-2.91,3.27-11.45-10.21-6.31,7.07-2.66-2.37,9.22-10.34,14.11,12.58Z"></path><path class="cls-5" d="M168.56,195.98l-2.11-2.81,11.7-8.79,11.35,15.11-11.42,8.58-2.11-2.81,7.95-5.97-2.46-3.28-7.02,5.27-2.04-2.72,7.02-5.27-2.63-3.5-8.23,6.18Z"></path><path class="cls-5" d="M145.83,204.14l-.89,3.5c-1.77-.87-4.25-1.25-6.49-.86-2.55.45-3.44,1.49-3.24,2.63.62,3.48,11.02-.82,12.24,6.09.56,3.16-1.53,6.25-6.82,7.18-2.34.41-4.83.28-6.75-.51l.75-3.5c1.9.68,3.77.84,5.42.55,2.55-.45,3.37-1.58,3.16-2.75-.61-3.43-11.01.85-12.22-5.98-.55-3.11,1.56-6.22,6.88-7.16,2.95-.52,6.09-.17,7.96.81Z"></path><path class="cls-5" d="M110.95,204.18l-.83,11.31,6.25-8.9,1.97.15,4.83,9.49.83-11.07,4.09.31-1.42,18.85-3.61-.27-6.17-12.25-7.83,11.19-3.58-.27,1.37-18.85,4.09.31Z"></path><path class="cls-5" d="M98.38,220.63l-4.21-1.18,5.09-18.2,4.21,1.18-5.09,18.2Z"></path><path class="cls-5" d="M87.86,217.47l-4-1.78,6.24-14.01-8.66-3.86,1.45-3.26,12.66,5.64-7.69,17.26Z"></path><path class="cls-5" d="M67.61,188.04l2.04-2.86,11.92,8.5-10.98,15.39-11.63-8.3,2.04-2.86,8.09,5.77,2.38-3.34-7.14-5.1,1.98-2.77,7.14,5.1,2.54-3.56-8.38-5.98Z"></path></g><circle class="cls-7" cx="123.5" cy="123" r="73.52"></circle><rect class="cls-5" x="140.21" y="30.26" width="6" height="6" rx="3" ry="3"></rect><rect class="cls-5" x="210.84" y="112.02" width="6" height="6" rx="3" ry="3"></rect><rect class="cls-5" x="157.63" y="204.94" width="6" height="6" rx="3" ry="3"></rect><rect class="cls-5" x="53.59" y="181.67" width="6" height="6" rx="3" ry="3"></rect><rect class="cls-5" x="40.21" y="73.43" width="6" height="6" rx="3" ry="3"></rect></svg>