<?xml version="1.0" encoding="UTF-8"?>
<svg id="Capa_2" data-name="Capa 2" xmlns="http://www.w3.org/2000/svg" viewBox="0 0 239.58 241.4">
  <defs>
    <style>
      .cls-1, .cls-2 {
        fill: none;
      }

      .cls-3 {
        fill: #231f20;
      }

      .cls-2 {
        stroke: #212121;
        stroke-miterlimit: 10;
      }
    </style>
  </defs>
  <g id="Capa_1-2" data-name="Capa 1">
    <g>
      <g>
        <circle class="cls-1" cx="118.63" cy="121.03" r="81.58"/>
        <path d="M40.33,88.75c.19-.47-.1-.89-1.17-1.33l-.21-.09c-1.47-.61-2.4.15-3.62.99-1.35.91-2.76,1.8-5.03.86l-.21-.09c-2.06-.85-3.19-2.59-1.99-5.48,1.19-2.87,3.04-3.39,5.7-2.3l1.55.64-1.32,3.19-.7-.29c-1.51-.62-1.99-.48-2.23.1-.17.4.05.72.54.92l.21.09c1,.41,2.12-.37,3.35-1.18,1.43-.93,2.78-1.74,5.29-.7l.42.18c2.66,1.1,3.67,2.81,2.48,5.68-1.19,2.89-3.11,3.37-5.76,2.27l-.93-.39c-1.1-.46-1.32-.72-1.32-.72l1.32-3.19s.43.35,1.74.9c1.06.44,1.69.42,1.89-.06Z"/>
        <path d="M44.94,76.91c2.53,1.36,3.36,3.03,2.05,5.46-1.32,2.45-3.26,2.87-5.79,1.51l-3.2-1.72c-2.53-1.36-3.31-3.11-2-5.56,1.31-2.43,3.21-2.76,5.74-1.41l.41.22-1.47,2.74c-1.3-.7-1.74-.54-1.97-.12-.26.49-.11.93,1.37,1.73l1.98,1.07c1.46.78,1.92.69,2.19.21.26-.49-.02-.98-.81-1.4-.97-.52-1.72-.74-1.72-.74l1.47-2.73s.52.1,1.33.53l.42.23Z"/>
        <path d="M46.61,71.58l-1.49-1c-.88-.59-1.24-.64-1.47-.29-.26.38-.07.76,1.59,1.87l5.42,3.64-1.92,2.86-9.92-6.67,1.83-2.73,2.23,2,.13-.19c-1.77-1.61-2.05-2.68-1.24-3.88,1.03-1.53,2.59-1.14,4.98.46l1.72,1.15-1.86,2.77Z"/>
        <path d="M52.38,60.8l2.8,2.32c2.21,1.83,2.55,3.81.79,5.94-1.77,2.14-3.76,2.17-5.98.33l-2.8-2.32c-2.21-1.83-2.56-3.79-.79-5.94,1.76-2.13,3.76-2.17,5.98-.33ZM50.93,63.63c-1.26-1.04-1.82-.97-2.17-.55-.35.42-.31.99.94,2.04l1.74,1.44c1.26,1.04,1.82.97,2.18.55.35-.42.31-.99-.94-2.03l-1.74-1.44Z"/>
        <path d="M60.96,63.2l-2.31,2.41-11.62-11.15,2.31-2.41,11.62,11.15Z"/>
        <path d="M63.81,60.48l-2.42,2.29-11.06-11.7,2.42-2.29,11.06,11.7Z"/>
        <path d="M71.96,48.87c1.68,2.33,1.6,4.26-.92,6.08-2.54,1.83-4.38,1.29-6.06-1.05l-4.55-6.3c-1.68-2.33-1.62-4.25.92-6.08,2.52-1.82,4.36-1.27,6.04,1.06l.98,1.36-2.89,2.09-.45-.62c-.96-1.32-1.33-1.53-1.76-1.22-.43.31-.37.75.59,2.07l3.47,4.81c.96,1.32,1.35,1.52,1.78,1.21.43-.31.37-.75-.59-2.07-1.39-1.92-1.96-2.44-1.96-2.44l2.89-2.08s.3.18.99,1.13l1.51,2.06Z"/>
        <path d="M77.77,47.16l-.22.13c.9,2.22.38,3.2-.8,3.88-1.36.78-2.64.24-3.81-1.79-1.18-2.06-.72-3.8,1.83-5.27l.36-.21-.11-.2c-.81-1.42-1.15-1.68-1.6-1.41-.48.28-.41.68.18,1.7l.23.4-2.79,1.6-.57-1c-1.2-2.09-.84-4.05,1.48-5.38,2.29-1.32,4.07-.85,5.62,1.84l3.88,6.76-2.69,1.54-.96-2.6ZM75.58,45.53c-.58.33-.67.78-.29,1.44.39.68.72.84,1.14.59.36-.21.49-.52-.12-1.6l-.37-.64-.36.21Z"/>
        <path d="M83.67,40.93l-.73-1.64c-.43-.97-.71-1.2-1.09-1.03-.42.19-.46.61.36,2.44l2.66,5.96-3.15,1.41-4.88-10.92,3-1.34.83,2.88.21-.09c-.65-2.3-.32-3.36,1.01-3.95,1.68-.75,2.8.41,3.97,3.04l.84,1.89-3.04,1.36Z"/>
        <path d="M92.37,39.69c-.25-.74-.57-1.21-.57-1.21l2.95-.98s.31.41.56,1.17l.11.33c.78,2.36-.04,3.96-2.44,4.76-2.64.88-4.34-.16-5.25-2.88l-1.15-3.45c-.91-2.73-.27-4.54,2.37-5.42,2.64-.88,4.23.19,5.14,2.92l.65,1.96-4.56,1.52.28.83c.52,1.55.9,1.83,1.49,1.64.5-.17.63-.58.43-1.19ZM89.65,36.86l1.62-.52c-.46-1.38-.87-1.6-1.35-1.44-.48.16-.68.57-.27,1.96Z"/>
        <path d="M97,42.26l-2.13-8.74-.67.16-.7-2.88.67-.16-.05-.2c-.68-2.79.19-4.09,3.14-4.81l1.12-.27.72,2.97-.45.11c-1.07.26-1.29.53-1.13,1.39l1.61-.39.7,2.88-1.61.39,2.13,8.74-3.35.82Z"/>
        <path d="M103.56,28.64l1.02,6.57c.29,1.84.55,2.2,1.03,2.12.45-.07.71-.48.41-2.46l-1-6.46,3.41-.53,1.84,11.82-3.27.51-.05-3-.23.04c.06,2.62-.87,3.37-2.21,3.58-2.05.32-2.72-1.14-3.19-4.18l-1.17-7.48,3.41-.53Z"/>
        <path d="M114.06,39.48l-3.32.26-1.25-16.04,3.32-.26,1.25,16.05Z"/>
        <path d="M117.98,39.35l-3.33.1-.47-16.09,3.33-.1.47,16.09Z"/>
        <path d="M120.48,39.36l-1.87-12.05,3.4.15.57,7.3h.23s.97-7.22.97-7.22l3.4.15-3.67,15.95-3.21-.15,1.17-4.09-.99-.04Z"/>
        <path d="M126.73,40.11l-.08-.12c-.55-.06-.9-.67-.79-1.7l.02-.18c.11-1.03.58-1.56,1.75-1.43,1.19.13,1.52.74,1.41,1.77l-.02.18c-.03.27-.11.57-.17.74l-1.36,3-1.81-.19,1.05-2.06Z"/>
        <path d="M137.08,25l3.58.76-3.34,15.75-3.58-.76,3.34-15.75Z"/>
        <path d="M144.53,31.06l1.6.45-.8,2.86-1.6-.44-1.17,4.21c-.34,1.22-.13,1.59.95,1.89l.44.12-.82,2.95-1.11-.31c-2.93-.82-3.53-2.08-2.75-4.85l1.36-4.88-.67-.19.8-2.86.66.19.93-3.32,3.1.86-.93,3.33Z"/>
        <path d="M148.48,31.41l-.05-.14c-.52-.18-.73-.86-.4-1.83l.06-.17c.33-.98.91-1.39,2.02-1.01,1.13.39,1.32,1.05.98,2.04l-.06.17c-.08.24-.23.53-.32.67l-1.99,2.63-1.72-.58,1.47-1.76Z"/>
        <path d="M148.8,39.32l2.63,1.1s-.38.54-.69,1.28c-.24.57-.19,1.12.42,1.37.47.2.91.08,1.18-.55.37-.82-.07-1.45-.9-2.5-.89-1.15-2.13-2.36-1.4-4.1.68-1.63,2.23-2.53,4.63-1.53,2.4,1,3.08,2.66,1.87,5.54l-2.65-1.11c.38-.91.24-1.35-.25-1.55-.44-.19-.73-.03-.85.24-.23.55.37,1.03,1.09,1.93,1.17,1.44,1.79,2.57,1.01,4.44l-.09.21c-.9,2.14-2.61,2.72-4.67,1.86-2.23-.93-3.24-2.5-2.21-4.96.42-1,.88-1.68.88-1.68Z"/>
        <path d="M162.76,48.75c.43.26.9.04,1.5-.95l.12-.2c.83-1.35.23-2.4-.41-3.73-.69-1.47-1.34-3.01-.06-5.11l.12-.2c1.17-1.9,3.06-2.74,5.72-1.11,2.65,1.62,2.88,3.54,1.37,5.99l-.88,1.43-2.94-1.8.4-.65c.85-1.39.78-1.9.25-2.22-.37-.23-.72-.06-.99.39l-.12.2c-.57.92.03,2.15.64,3.49.69,1.56,1.28,3.02-.14,5.34l-.24.39c-1.5,2.45-3.35,3.18-6,1.56-2.67-1.63-2.84-3.6-1.34-6.05l.53-.86c.62-1.02.92-1.19.92-1.19l2.94,1.8s-.41.37-1.16,1.58c-.6.98-.68,1.6-.23,1.88Z"/>
        <path d="M176.71,51.46l.18.14c1.91-1.8,3.12-1.58,4.09-.8,1.54,1.25.94,2.75-1.01,5.14l-4.77,5.87-2.68-2.18,4.2-5.16c1.17-1.45,1.21-1.92.94-2.14-.27-.22-.79-.17-2.05,1.39l-4.12,5.07-2.68-2.18,4.19-5.16c1.17-1.45,1.21-1.92.92-2.16-.27-.22-.79-.16-2.05,1.39l-4.12,5.07-2.68-2.18,7.55-9.28,2.55,2.08-2.19,2.04.18.14c1.91-1.8,3.12-1.58,4.09-.8.87.71,1.11,1.52.72,2.51l-1.25,1.18Z"/>
        <path d="M186.41,62.56l-2.64,2.5c-2.09,1.97-4.09,2.07-5.99.06-1.91-2.02-1.69-4,.4-5.98l2.64-2.5c2.09-1.98,4.08-2.08,5.99-.06,1.9,2,1.69,4-.4,5.98ZM183.77,60.77c1.19-1.12,1.19-1.69.81-2.09-.38-.4-.95-.43-2.13.69l-1.64,1.55c-1.19,1.12-1.19,1.69-.81,2.09.38.4.95.43,2.13-.69l1.64-1.55Z"/>
        <path d="M191.94,69.66l-2.88,2.22c-2.28,1.76-4.28,1.65-5.97-.54-1.7-2.2-1.28-4.15.99-5.91l2.88-2.22c2.28-1.76,4.27-1.66,5.97.54,1.69,2.19,1.28,4.15-.99,5.91ZM189.5,67.62c1.29-1,1.35-1.56,1.01-2-.34-.44-.9-.53-2.19.47l-1.78,1.38c-1.29,1-1.35,1.56-1.01,2,.34.44.9.53,2.19-.47l1.78-1.38Z"/>
        <path d="M197.84,71.18l.9,1.39-2.5,1.6-.9-1.39-3.68,2.36c-1.07.68-1.16,1.1-.55,2.05l.25.39-2.57,1.65-.62-.97c-1.64-2.56-1.25-3.9,1.17-5.46l4.26-2.73-.37-.58,2.5-1.6.37.58,2.9-1.86,1.74,2.71-2.9,1.86Z"/>
        <path d="M191.27,83.81l5.89-3.08c1.65-.86,1.9-1.23,1.68-1.65-.21-.41-.69-.52-2.46.4l-5.79,3.02-1.6-3.06,14.27-7.45,1.6,3.06-3.67,1.92-2.69.76.11.2c2.26-.79,3.27-.15,3.9,1.05.89,1.71-.2,2.96-2.93,4.38l-6.71,3.5-1.6-3.06Z"/>
        <path d="M197.35,152.03c-.19.47.12.89,1.19,1.31l.21.08c1.47.58,2.4-.19,3.6-1.04,1.33-.93,2.73-1.84,5.02-.93l.21.08c2.07.82,3.22,2.54,2.07,5.45-1.14,2.89-3,3.44-5.67,2.38l-1.56-.62,1.27-3.21.71.28c1.52.6,2,.45,2.23-.13.16-.41-.06-.72-.55-.91l-.21-.08c-1-.4-2.11.4-3.33,1.23-1.41.95-2.76,1.78-5.28.78l-.43-.17c-2.67-1.06-3.71-2.75-2.56-5.64,1.15-2.91,3.06-3.42,5.73-2.36l.94.37c1.11.44,1.33.7,1.33.7l-1.27,3.21s-.43-.34-1.76-.87c-1.07-.42-1.7-.4-1.89.09Z"/>
        <path d="M192.9,163.96c-2.55-1.32-3.4-2.98-2.13-5.43,1.28-2.47,3.22-2.91,5.77-1.59l3.23,1.67c2.55,1.33,3.36,3.07,2.08,5.54-1.27,2.45-3.17,2.81-5.72,1.49l-.41-.21,1.43-2.76c1.31.68,1.75.52,1.97.09.25-.49.1-.93-1.39-1.71l-2-1.04c-1.47-.76-1.93-.67-2.19-.18-.25.49.04.98.83,1.39.98.51,1.73.71,1.73.71l-1.43,2.76s-.52-.09-1.34-.51l-.43-.22Z"/>
        <path d="M191.31,169.32l1.5.98c.89.58,1.24.62,1.47.27.25-.39.06-.76-1.62-1.85l-5.47-3.57,1.88-2.89,10.02,6.53-1.8,2.76-2.26-1.97-.13.19c1.8,1.58,2.09,2.65,1.3,3.87-1.01,1.54-2.58,1.18-4.99-.39l-1.74-1.13,1.82-2.79Z"/>
        <path d="M185.72,180.15l-2.83-2.28c-2.24-1.8-2.61-3.77-.88-5.92,1.74-2.17,3.73-2.22,5.97-.42l2.83,2.27c2.24,1.8,2.62,3.75.88,5.93-1.73,2.15-3.73,2.22-5.97.42ZM187.12,177.29c1.27,1.02,1.84.94,2.18.51.35-.43.3-1-.97-2.02l-1.76-1.41c-1.27-1.02-1.84-.94-2.18-.51-.35.43-.3,1,.97,2.02l1.76,1.41Z"/>
        <path d="M177.08,177.9l2.27-2.44,11.77,10.98-2.27,2.44-11.78-10.98Z"/>
        <path d="M174.27,180.65l2.39-2.33,11.23,11.54-2.39,2.33-11.23-11.54Z"/>
        <path d="M166.31,192.38c-1.72-2.31-1.66-4.24.83-6.09,2.51-1.87,4.36-1.35,6.07.96l4.64,6.24c1.71,2.31,1.68,4.22-.83,6.09-2.49,1.85-4.34,1.33-6.05-.97l-1-1.35,2.86-2.13.45.61c.97,1.31,1.36,1.51,1.78,1.2s.36-.75-.62-2.06l-3.54-4.76c-.97-1.31-1.37-1.5-1.8-1.18-.42.32-.36.75.62,2.06,1.41,1.9,2,2.41,2,2.41l-2.86,2.13s-.3-.18-1-1.12l-1.54-2.03Z"/>
        <path d="M160.5,194.18l.22-.13c-.93-2.2-.42-3.2.75-3.89,1.35-.8,2.64-.28,3.84,1.74,1.21,2.04.77,3.79-1.76,5.29l-.36.21.12.2c.83,1.4,1.17,1.66,1.62,1.39.47-.28.39-.69-.2-1.7l-.23-.4,2.77-1.64.58.99c1.23,2.08.9,4.04-1.4,5.4-2.28,1.35-4.06.91-5.64-1.77l-3.97-6.71,2.67-1.58,1,2.59ZM162.7,195.78c.58-.34.66-.79.27-1.44-.4-.67-.73-.83-1.14-.58-.36.21-.49.53.14,1.6l.37.63.36-.21Z"/>
        <path d="M154.7,200.49l.76,1.63c.45.96.73,1.18,1.1,1.01.42-.19.45-.62-.39-2.43l-2.75-5.93,3.13-1.45,5.04,10.85-2.98,1.39-.87-2.87-.21.1c.69,2.29.37,3.36-.95,3.97-1.67.78-2.81-.37-4.02-2.98l-.87-1.88,3.02-1.41Z"/>
        <path d="M146.04,201.85c.26.74.59,1.21.59,1.21l-2.93,1.02s-.31-.4-.58-1.16l-.11-.33c-.82-2.35-.02-3.96,2.37-4.8,2.63-.92,4.34.09,5.29,2.81l1.2,3.43c.95,2.71.34,4.54-2.29,5.45s-4.24-.13-5.18-2.85l-.68-1.96,4.54-1.58-.29-.83c-.54-1.54-.93-1.82-1.51-1.62-.5.17-.62.58-.41,1.19ZM148.79,204.64l-1.62.54c.48,1.37.89,1.59,1.37,1.42.48-.17.68-.58.24-1.96Z"/>
        <path d="M141.32,199.36l2.24,8.71.67-.17.74,2.87-.67.17.05.2c.72,2.79-.13,4.1-3.07,4.85l-1.11.29-.76-2.96.45-.11c1.07-.28,1.29-.54,1.11-1.4l-1.6.41-.74-2.87,1.6-.41-2.24-8.71,3.34-.86Z"/>
        <path d="M134.99,213.06l-1.11-6.55c-.31-1.84-.58-2.19-1.06-2.11-.45.08-.71.49-.37,2.46l1.09,6.44-3.4.58-2-11.79,3.26-.55.09,2.99.23-.04c-.1-2.62.82-3.38,2.16-3.61,2.04-.35,2.73,1.1,3.25,4.14l1.27,7.46-3.4.58Z"/>
        <path d="M124.32,202.37l3.32-.3,1.47,16.03-3.32.31-1.48-16.03Z"/>
        <path d="M120.42,202.55l3.33-.14.7,16.08-3.33.14-.7-16.08Z"/>
        <path d="M117.9,202.58l2.05,12.03-3.4-.1-.67-7.29h-.23s-.87,7.24-.87,7.24l-3.4-.1,3.44-16,3.22.1-1.12,4.11.99.03Z"/>
        <path d="M111.64,201.92l.08.12c.55.05.91.66.81,1.69l-.02.18c-.09,1.03-.56,1.56-1.73,1.46-1.19-.11-1.53-.72-1.43-1.75l.02-.18c.03-.28.1-.57.16-.75l1.32-3.02,1.81.17-1.02,2.08Z"/>
        <path d="M101.52,217.18l-3.59-.71,3.12-15.8,3.59.71-3.12,15.8Z"/>
        <path d="M93.99,211.23l-1.6-.42.75-2.87,1.6.42,1.11-4.23c.32-1.22.11-1.59-.98-1.88l-.45-.12.78-2.96,1.11.29c2.94.77,3.56,2.03,2.83,4.81l-1.29,4.89.67.18-.75,2.87-.67-.18-.88,3.34-3.11-.82.88-3.33Z"/>
        <path d="M90.02,210.93l.05.14c.53.17.74.85.42,1.83l-.06.17c-.32.98-.89,1.4-2.01,1.04-1.14-.37-1.33-1.04-1.01-2.02l.06-.17c.08-.24.22-.53.31-.67l1.95-2.65,1.73.56-1.45,1.78Z"/>
        <path d="M89.59,203.03l-2.65-1.06s.37-.55.67-1.29c.23-.58.18-1.12-.44-1.37-.47-.19-.91-.07-1.17.57-.35.82.09,1.45.94,2.48.91,1.13,2.16,2.33,1.46,4.08-.66,1.64-2.19,2.56-4.61,1.6-2.41-.97-3.11-2.61-1.95-5.52l2.67,1.07c-.37.92-.22,1.35.27,1.55.45.18.74.02.85-.25.22-.55-.38-1.02-1.12-1.91-1.19-1.42-1.83-2.54-1.07-4.42l.09-.21c.87-2.16,2.57-2.76,4.64-1.93,2.24.9,3.28,2.46,2.28,4.93-.4,1-.85,1.69-.85,1.69Z"/>
        <path d="M75.5,193.8c-.43-.26-.89-.02-1.48.97l-.12.2c-.81,1.36-.19,2.4.46,3.72.71,1.46,1.38,2.99.13,5.1l-.12.2c-1.14,1.92-3.01,2.78-5.7,1.19-2.67-1.58-2.92-3.5-1.46-5.97l.86-1.44,2.97,1.76-.39.65c-.83,1.4-.75,1.9-.22,2.22.38.22.72.05.99-.4l.12-.2c.55-.93-.06-2.15-.69-3.48-.71-1.55-1.32-3,.06-5.33l.23-.4c1.47-2.47,3.3-3.23,5.97-1.64,2.69,1.6,2.89,3.56,1.42,6.03l-.52.87c-.61,1.03-.9,1.2-.9,1.2l-2.97-1.76s.41-.37,1.14-1.6c.59-.99.66-1.61.21-1.88Z"/>
        <path d="M61.51,191.28l-.18-.14c-1.88,1.82-3.1,1.62-4.08.85-1.55-1.23-.98-2.74.94-5.15l4.69-5.94,2.71,2.14-4.12,5.21c-1.15,1.46-1.18,1.94-.91,2.15.27.21.79.15,2.03-1.42l4.05-5.12,2.71,2.14-4.12,5.21c-1.16,1.46-1.18,1.94-.89,2.17.27.21.79.15,2.03-1.42l4.05-5.13,2.71,2.14-7.42,9.39-2.58-2.04,2.17-2.07-.18-.14c-1.88,1.83-3.1,1.62-4.08.85-.88-.7-1.13-1.5-.75-2.5l1.24-1.19Z"/>
        <path d="M51.66,180.34l2.61-2.54c2.06-2.01,4.06-2.13,5.99-.15,1.94,1.99,1.75,3.98-.31,5.98l-2.6,2.54c-2.06,2.01-4.05,2.14-5.99.15-1.93-1.98-1.75-3.98.31-5.98ZM54.32,182.08c-1.17,1.14-1.16,1.71-.78,2.1.38.4.95.42,2.12-.72l1.62-1.57c1.17-1.14,1.16-1.71.78-2.11-.38-.39-.95-.42-2.12.72l-1.62,1.57Z"/>
        <path d="M46.04,173.32l2.84-2.26c2.25-1.79,4.25-1.7,5.97.46,1.73,2.18,1.34,4.13-.91,5.92l-2.84,2.26c-2.25,1.79-4.24,1.72-5.97-.46-1.71-2.16-1.34-4.13.91-5.92ZM48.51,175.32c-1.28,1.01-1.33,1.58-.98,2.01.34.43.91.51,2.18-.5l1.76-1.4c1.28-1.01,1.33-1.58.98-2.01s-.91-.51-2.18.5l-1.76,1.4Z"/>
        <path d="M40.09,171.86l-.92-1.38,2.48-1.64.91,1.38,3.65-2.41c1.05-.7,1.14-1.11.52-2.05l-.25-.38,2.55-1.69.63.96c1.68,2.53,1.3,3.88-1.1,5.47l-4.22,2.79.38.58-2.47,1.64-.38-.58-2.88,1.91-1.78-2.69,2.88-1.91Z"/>
        <path d="M46.49,159.14l-5.85,3.16c-1.64.88-1.88,1.25-1.66,1.68.22.41.7.51,2.46-.44l5.75-3.11,1.64,3.04-14.17,7.66-1.64-3.04,3.64-1.97,2.68-.79-.11-.2c-2.25.82-3.27.2-3.91-1-.92-1.7.15-2.96,2.87-4.42l6.66-3.6,1.64,3.04Z"/>
      </g>
      <circle class="cls-2" cx="117.1" cy="121.25" r="69.32"/>
      <g id="_56" data-name="56">
        <path class="cls-3" d="M31.61,115.65c0,6.11-2.04,8.14-8.14,8.14,6.11,0,8.14,2.04,8.14,8.14,0-6.11,2.04-8.14,8.14-8.14-6.11,0-8.14-2.04-8.14-8.14Z"/>
      </g>
      <g id="_56-2" data-name="56">
        <path class="cls-3" d="M201.58,110.15c0,6.11-2.04,8.14-8.14,8.14,6.11,0,8.14,2.04,8.14,8.14,0-6.11,2.04-8.14,8.14-8.14-6.11,0-8.14-2.04-8.14-8.14Z"/>
      </g>
    </g>
  </g>
</svg>