<svg xmlns="http://www.w3.org/2000/svg" width="146" height="185" viewBox="0 0 146 185" fill="none"><g clip-path="url(#clip0_1149_51)"><path d="M104.236 48.6148C104.957 47.1198 105.533 45.8836 106.137 44.6474C107.578 41.5713 108.902 38.4376 110.458 35.419C111.322 33.7803 111.264 32.3141 110.544 30.7041C109.939 29.3529 109.479 27.973 108.902 26.6218C108.355 25.3568 108.384 24.1206 109.075 22.9131C109.219 22.6832 109.306 22.4244 109.45 22.1944C112.618 16.6171 115.815 11.0398 119.847 5.97997C120.251 5.49124 120.625 4.94501 121.115 4.54252C122.152 3.62255 123.534 3.93879 124.053 5.20375C124.254 5.69248 124.312 6.26746 124.398 6.78494C124.801 9.11361 125.205 11.471 125.637 13.9147C126.213 14.0584 126.731 14.2597 127.221 14.2597C128.776 14.2597 130.332 14.1447 131.887 14.0584C133.068 13.9722 134.277 13.7997 135.458 13.7997C136.582 13.7997 137.331 14.6622 137.273 15.8121C137.215 16.5309 137.071 17.2783 136.783 17.9396C135.286 21.4757 133.788 25.0406 132.146 28.5192C131.196 30.5029 129.928 32.3428 128.92 34.2978C128.114 35.8215 126.933 36.6264 125.234 36.8277C124.139 36.9427 123.045 37.0864 121.95 37.2014C121.172 37.2877 120.567 37.6327 120.193 38.3514C117.543 43.2675 114.865 48.1835 112.128 53.1859C112.56 53.6459 112.906 54.0483 113.309 54.3933C116.19 56.8083 119.185 59.1369 121.979 61.6381C133.701 72.2177 140.96 85.2985 143.898 100.794C148.362 124.57 140.384 148.891 123.505 165.336C112.56 176.002 99.5128 182.7 84.3339 184.454C59.7078 187.3 39.3444 178.877 23.5318 159.845C15.9855 150.76 11.5211 140.18 9.33214 128.595C8.69848 125.26 7.97842 121.954 7.40237 118.619C2.30432 88.6047 18.9522 56.837 50.2029 45.3949C67.3692 39.0989 84.4491 39.8176 101.183 47.2636C102.105 47.6661 102.998 48.0973 104.236 48.6435V48.6148ZM104.236 67.9916C102.854 70.1478 101.731 72.1027 100.867 74.1727C102.48 76.0126 104.092 77.6513 105.475 79.4625C114.26 91.1346 117.169 104.187 114.346 118.475C112.964 125.518 109.882 131.843 105.216 137.363C95.1349 149.179 79.4375 153.146 65.2378 147.396C57.1155 144.119 50.8366 138.628 46.1706 131.326C39.8628 121.436 37.4146 110.626 38.9699 98.9831C40.3237 89.0072 44.3848 80.325 51.8159 73.4252C58.4116 67.3017 66.2459 64.1105 75.2899 64.0243C81.2232 63.9668 86.7533 65.4617 91.9954 68.1354C92.8019 68.5379 93.5795 68.9403 94.53 69.4003C95.0485 68.3366 95.5093 67.4454 95.9125 66.5542C96.3446 65.5767 97.0358 64.6567 97.1222 63.363C96.287 62.9318 95.5381 62.4431 94.7028 62.0693C84.7372 57.527 75.5491 56.5495 65.4107 58.3894C59.5349 59.4532 54.1489 61.6668 49.1084 64.8005C45.6521 66.9567 42.5703 69.5441 39.7764 72.4765C36.9826 75.4376 34.6208 78.6863 32.6334 82.2224C30.6172 85.8448 29.1195 89.6684 27.9674 93.6645C26.7865 97.7469 26.3832 101.944 26.3256 106.113C26.1528 121.005 31.4237 133.798 42.1958 144.09C59.1605 160.276 84.8524 162.202 103.66 148.173C115.93 139.002 122.468 126.525 123.448 111.316C124.369 96.9707 119.876 84.4073 110.343 73.6264C108.586 71.6428 106.656 69.8028 104.265 68.0204L104.236 67.9916ZM87.5598 84.4073C87.2718 84.0911 87.1278 83.8611 86.8973 83.7173C80.9352 79.8362 73.6194 80.4112 68.2909 85.1835C65.7851 87.4547 63.9417 90.2146 62.876 93.377C59.5061 103.18 60.8887 112.351 66.966 120.775C68.867 123.42 71.344 125.461 74.3106 126.898C80.244 129.745 86.6381 128.767 91.4193 124.282C93.4643 122.385 95.0773 120.142 96.1141 117.555C99.9737 108.01 98.9656 98.8968 93.5507 90.2146C93.3779 89.9271 93.0611 89.6971 92.8019 89.4097C91.4481 91.0196 89.2015 95.0732 88.4239 97.3444C88.8559 98.1494 89.3744 98.8968 89.72 99.7306C91.6498 104.129 91.2753 108.355 88.3951 112.208C84.8812 116.922 78.4294 117.095 74.5123 112.725C70.7391 108.528 70.5663 101.599 74.1954 97.2581C75.2035 96.0507 76.442 95.1882 77.9109 94.527C79.5815 93.7795 81.3096 93.837 83.2106 93.7508C84.7083 90.6459 86.1773 87.541 87.5598 84.3786V84.4073ZM121.172 11.1548C120.827 11.3848 120.51 11.471 120.395 11.6435C117.831 15.7834 115.268 19.8945 112.791 24.0919C112.042 25.3568 112.445 26.5355 113.828 27.973C114.289 27.0243 114.721 26.133 115.153 25.2418C115.7 24.0919 116.218 22.9132 116.823 21.7632C117.082 21.3032 117.514 20.6132 117.889 20.5845C119.415 20.5845 120.481 19.1183 122.008 19.3195C122.44 19.377 122.901 19.5783 123.275 19.837C124.11 20.3832 124.974 20.9582 125.694 21.6482C127.365 23.1431 127.826 24.9256 126.587 26.7655C125.925 27.743 125.435 28.8354 124.859 29.8992C124.341 30.8479 123.851 31.8253 123.304 32.8316C124.629 33.4928 125.349 32.9753 125.925 31.9978C128.258 28.0305 130.476 24.0344 132.146 19.7508C132.348 19.262 132.463 18.7158 132.636 18.0833C132.117 18.0546 131.772 17.9396 131.426 17.9971C129.323 18.3133 127.221 18.0546 125.089 17.9683C122.555 17.8533 122.065 16.7321 121.806 14.7197C121.748 14.1734 121.72 13.6272 121.633 13.081C121.518 12.4773 121.345 11.8735 121.144 11.1548H121.172ZM23.0709 115.629C19.9027 115.974 13.2781 118.216 11.4923 119.452C11.9244 122.96 12.7308 125.835 13.8253 127.761C15.8991 127.243 23.0421 124.196 24.7703 123.104C24.223 120.717 23.6758 118.245 23.0709 115.629ZM64.0857 142.509C64.8058 142.049 65.2378 141.388 65.4971 140.583C66.6492 137.133 67.8589 133.683 69.0398 130.205C69.2414 129.63 69.2702 128.997 69.3854 128.365C68.3773 127.56 67.4556 126.812 66.4187 125.978C65.1514 128.163 63.2793 129.658 61.6375 131.326C60.687 132.303 59.679 133.252 58.8149 134.316C58.0084 135.293 57.3171 136.357 56.6259 137.334C58.6133 139.605 61.3783 141.503 64.1145 142.48L64.0857 142.509ZM72.5825 130.435C71.3152 135.322 69.5582 139.72 68.3197 144.407C70.9695 145.442 73.4754 146.045 76.1252 146.016C76.7877 143.717 77.4789 141.56 77.5077 139.26C77.5077 136.903 78.0262 134.546 77.9398 132.102C76.2116 131.556 74.5699 131.038 72.5825 130.435ZM95.5669 125.605C94.8468 126.266 94.098 126.927 93.3491 127.56C92.5138 128.25 91.6786 128.94 90.7281 129.716C91.1889 131.843 91.5633 133.884 92.1106 135.926C92.629 137.909 92.7442 140.037 93.7523 141.905C96.9782 140.295 99.8873 137.881 101.587 135.437C99.9449 131.613 97.3238 127.272 95.5957 125.633L95.5669 125.605ZM53.9472 135.006C55.9346 131.929 58.1812 129.515 60.543 127.186C61.8391 125.892 62.9624 124.512 63.7689 122.73C62.7608 121.724 62.3 120.286 61.2055 119.222C56.7411 121.925 52.8528 125.087 48.6476 128.163C50.1165 130.665 51.6718 132.878 53.9472 135.006ZM87.4158 131.297C85.342 131.728 83.5562 132.073 81.7705 132.447C81.6841 132.763 81.5401 133.022 81.5113 133.281C81.2808 137.104 81.0792 140.928 80.9064 144.752C80.9064 145.154 81.0504 145.585 81.1656 146.218C82.8362 145.901 84.3627 145.729 85.8604 145.327C87.3294 144.924 88.9135 144.78 89.9792 143.717C89.1151 139.548 88.2799 135.523 87.4158 131.297ZM18.8082 139.174C22.6389 137.737 25.836 135.523 29.0043 133.137C28.1114 131.239 27.2761 129.428 26.412 127.617C26.3544 127.473 26.1528 127.358 25.8936 127.128C22.3221 128.537 18.5489 129.63 15.0638 131.354C15.6975 133.827 16.9072 136.414 18.7794 139.174H18.8082ZM10.4842 106.027C10.1098 109.879 10.2826 112.696 11.0603 115.054C14.8622 113.961 18.6642 112.84 22.6677 111.69C22.2357 109.361 22.8405 107.119 22.1493 104.905C18.2033 105.279 14.4302 105.624 10.4842 105.998V106.027ZM44.0104 116.577C44.4136 119.74 45.7385 123.046 47.2075 124.8C47.6395 124.512 48.1291 124.225 48.5612 123.908C51.7007 121.522 54.8401 119.165 57.9508 116.779C59.4773 115.629 59.5925 115.169 58.8725 113.271C58.7861 113.041 58.5845 112.811 58.4116 112.553C53.6592 113.904 48.9068 115.226 44.0104 116.606V116.577ZM10.8587 101.973C14.891 102.059 18.7506 101.8 22.6965 101.111C22.9269 98.9543 23.7622 96.9994 23.3878 94.7282C19.6146 94.2395 15.9279 93.6358 12.0396 93.6933C11.2907 96.4244 10.6571 99.0406 10.8587 101.973ZM35.9457 143.314C33.123 145.039 28.9755 149.179 27.8522 151.335C30.0124 153.922 31.3373 155.101 33.123 155.964C37.1266 152.974 39.9204 150.386 41.1589 148.546C39.4308 146.793 37.6738 145.068 35.9457 143.314ZM109.219 122.816C106.541 120.516 103.574 118.964 100.463 117.296C99.5993 119.107 98.7928 120.717 98.0439 122.299C100.118 125.518 102.105 128.595 104.092 131.671C104.15 131.728 104.236 131.786 104.323 131.814C104.38 131.814 104.467 131.814 104.784 131.786C106.627 129.112 108.182 126.122 109.248 122.816H109.219ZM35.9457 158.321C38.0771 160.362 41.3029 162.403 43.6648 163.18C45.7385 161.081 48.734 156.366 49.31 154.21C47.6395 153.175 46.0842 151.91 44.5 151.105C41.5334 153.606 38.7395 155.935 35.9457 158.292V158.321ZM26.4984 86.0748C23.4166 83.9473 18.6066 81.9062 16.2159 81.6762C15.3807 82.8549 14.9198 84.2348 14.4302 85.6148C13.9405 86.9372 13.2493 88.2309 13.3069 89.7259C17.1376 90.2721 20.8243 90.8184 24.5687 91.3358C24.7703 90.9334 24.9719 90.6459 25.0871 90.3009C25.5768 88.9209 26.0088 87.541 26.5272 86.0748H26.4984ZM18.1169 77.5651C20.1331 78.83 26.9881 82.0499 28.2266 82.3086C29.3499 80.3825 30.4732 78.4275 31.6829 76.3001C28.8603 74.6614 26.1816 73.0802 23.503 71.5278C23.1862 71.3553 22.8693 71.2115 22.4661 71.0103C20.6515 72.9365 19.4994 75.2076 18.1169 77.5363V77.5651ZM48.59 83.1999C50.491 84.7811 57.5476 88.3172 60.543 89.1797C61.1191 88.2309 61.7239 87.2535 62.3288 86.2185C59.9958 83.6023 57.7492 81.1012 55.5026 78.6C55.1282 78.1975 54.7249 77.8238 54.2929 77.4788C54.0913 77.3063 53.8032 77.2776 53.4864 77.1338C51.499 78.8875 49.9149 80.9287 48.59 83.1999ZM42.3974 104.877C45.6809 104.503 48.6764 104.129 51.6719 103.813C52.6799 103.698 53.688 103.64 54.6673 103.554C55.6178 103.468 56.4243 103.008 57.0003 102.289C57.778 101.312 57.49 100.162 56.3379 99.903C52.4207 99.0118 48.4748 98.2069 44.5576 97.3731C44.1544 97.2869 43.6936 97.3731 43.1463 97.3731C42.5415 99.8743 42.1958 102.26 42.3974 104.905V104.877ZM56.4531 74.5752C58.9589 77.1626 61.2343 79.5487 63.5385 81.8774C63.9705 82.3086 64.5178 82.5961 65.065 82.9986C66.3035 81.7337 67.8877 81.0724 68.8382 79.6925C67.9741 78.0825 67.0812 76.5876 66.3035 75.0351C65.4971 73.4252 64.777 71.7865 63.9417 70.0328C61.1767 71.1828 58.7285 72.4765 56.4243 74.5464L56.4531 74.5752ZM44.0392 93.492C44.3848 93.6358 44.6152 93.7795 44.8745 93.837C48.734 94.5845 52.5935 95.3032 56.4531 95.9932C56.9715 96.0794 57.49 95.9932 58.066 95.9932C58.354 94.872 58.8725 94.0095 58.7285 92.9745C54.7537 90.8471 50.8366 88.7484 46.7754 86.5922C45.3641 88.7772 44.5864 91.0771 44.0104 93.492H44.0392ZM103.228 153.031C100.924 154.727 98.5048 155.532 96.3734 157.114C97.1222 159.471 97.8423 161.742 98.5912 163.985C98.7352 164.445 99.0808 164.876 99.3688 165.336C101.99 164.128 104.496 163.007 106.771 161.253C105.619 158.609 104.524 156.05 103.228 153.031ZM111.495 146.591C109.738 148.115 108.01 149.581 106.368 150.99C107.578 154.814 108.96 157.516 110.314 158.81C113.252 157.114 116.074 154.612 117.198 152.715C115.354 150.731 113.482 148.719 111.524 146.563L111.495 146.591ZM72.6401 78.1975C73.389 78.0538 74.1666 77.91 74.9731 77.7375C75.8372 77.5651 76.73 77.3926 77.5653 77.2201C77.5077 75.2651 76.442 69.9178 75.722 67.9629C73.0145 67.6466 70.3647 68.0491 67.8013 68.9403C68.2909 71.499 70.1343 74.9776 72.6689 78.2263L72.6401 78.1975ZM25.1447 148.316C27.7081 145.786 30.1564 143.343 32.5758 140.899C32.835 140.64 33.0366 140.353 33.3534 140.008C32.5758 138.743 31.8557 137.507 30.79 136.386C28.1114 138.657 25.0295 140.094 22.0341 141.647C21.5732 141.877 21.17 142.193 20.5939 142.567C21.8324 144.263 22.9845 145.815 24.1366 147.339C24.3959 147.684 24.7415 147.971 25.1447 148.345V148.316ZM74.4546 170.856C74.5699 169.073 74.7715 167.55 74.7715 165.997C74.7715 164.502 75.2035 162.95 74.6275 161.426C72.6977 161.253 70.9119 160.908 68.9246 161.052C67.9165 164.128 67.4268 167.233 66.5628 170.396C69.155 171.028 71.6032 170.884 74.4258 170.856H74.4546ZM102.22 106.889C103.948 107.32 105.446 107.723 106.944 108.039C108.442 108.327 109.853 109.045 111.408 108.959C111.725 106.602 111.408 103.094 110.717 101.024C108.384 100.507 104.121 100.564 101.903 101.226C101.99 102.979 102.105 104.79 102.22 106.918V106.889ZM130.562 134.574C128.258 132.562 125.896 130.952 122.958 129.745C122.008 131.929 120.712 133.769 119.963 136.041C122.353 137.708 124.629 139.318 126.99 140.985C128.488 139.002 129.439 136.932 130.533 134.603L130.562 134.574ZM33.7279 73.5689C35.024 72.189 36.1185 71.039 37.0978 69.6591C34.7936 66.9854 31.9421 65.203 29.4363 62.7881C28.5722 63.6793 27.7658 64.4267 27.0457 65.2317C26.3256 66.0367 25.4904 66.7267 25.0007 67.8766C27.5929 70.2053 30.8188 71.3553 33.6991 73.5689H33.7279ZM124.773 144.148C122.756 142.222 120.51 140.525 117.975 138.944C116.564 140.554 115.325 142.222 114.029 143.947C115.815 146.333 117.802 148.288 119.991 150.041C121.979 148.403 123.505 146.505 124.801 144.148H124.773ZM122.065 68.0204C119.617 69.8316 117.14 71.1828 115.153 73.3389C116.478 74.9201 117.284 76.7026 118.897 77.9675C121.432 76.6163 124.081 75.6964 126.53 74.1152C125.291 71.9015 123.937 69.9753 122.065 68.0204ZM95.3077 167.032C94.8756 163.956 93.6659 159.96 92.7154 158.379C90.9297 158.982 89.0575 159.299 87.2718 160.104C87.7038 163.122 88.0782 165.997 88.8559 168.958C89.864 168.699 90.7281 168.527 91.5921 168.239C92.8019 167.866 93.9828 167.435 95.3077 167.003V167.032ZM65.3531 160.477C63.6825 159.816 62.1848 159.471 60.5718 159.212C58.8149 162.202 57.8644 165.451 56.1362 168.354C59.3045 169.533 60.8311 169.821 63.02 169.706C63.7977 166.687 64.5466 163.697 65.3819 160.477H65.3531ZM78.6022 161.368C78.199 164.301 78.199 168.757 78.6022 170.511C81.1368 170.597 83.1242 170.281 85.0252 169.476C84.8236 168.067 84.6219 166.658 84.3915 165.221C84.1611 163.726 84.2763 162.145 83.3546 160.678C81.7705 160.966 80.2152 160.793 78.5734 161.311L78.6022 161.368ZM125.982 120.89C125.406 122.845 124.6 124.541 124.513 126.41C127.106 127.876 129.525 129.285 132.089 130.722C133.125 128.595 133.932 126.496 134.162 124.311C132.636 123.219 128.632 121.551 125.982 120.89ZM107.376 89.8409C104.64 90.4446 102.163 91.0196 99.7721 91.9683C99.5705 92.0546 99.4264 92.3421 99.196 92.572C99.9449 94.1532 100.291 95.8494 101.183 97.4594C104.064 96.9132 106.886 97.3156 109.767 96.8269C109.479 94.297 108.47 92.1983 107.347 89.8696L107.376 89.8409ZM105.216 86.4485C104.467 83.9473 102.047 80.7562 100.002 79.4912C99.0808 80.4112 98.0439 81.3312 97.151 82.3374C96.287 83.3436 95.2213 84.2923 95.0485 85.816C95.7973 86.8222 96.5174 87.8572 97.3239 88.9497C100.031 88.0872 102.624 87.2535 105.187 86.4198L105.216 86.4485ZM127.336 103.152C127.336 104.215 127.307 105.02 127.336 105.825C127.365 106.63 127.48 107.407 127.567 108.298C130.533 108.959 133.327 109.591 136.294 110.253C136.639 107.809 136.726 105.595 136.15 103.238C133.241 103.008 130.447 103.037 127.307 103.18L127.336 103.152ZM37.2994 56.3483C35.4848 57.642 33.7279 58.5907 32.547 60.2581C34.2751 62.2418 38.6243 66.1517 39.978 66.9279C40.5253 66.4967 41.1013 66.0367 41.6486 65.548C42.167 65.088 42.6855 64.5992 43.2615 64.053C41.4758 61.3219 39.3156 59.0794 37.2994 56.3483ZM47.2075 165.221C48.1291 165.623 49.022 166.055 49.9437 166.428C50.923 166.802 51.9599 167.118 52.9104 167.463C53.1696 166.515 53.256 165.681 53.6016 164.962C54.5233 163.093 55.589 161.282 56.5395 159.442C56.7699 159.011 56.8275 158.465 57.0003 157.919C55.6178 157.344 54.4657 156.596 53.0256 156.452C51.1534 159.097 49.3388 161.713 47.5243 164.33C47.3803 164.531 47.3515 164.847 47.2363 165.25L47.2075 165.221ZM97.9575 59.3669C100.262 57.3545 101.587 54.9683 102.451 52.0934C100.723 51.0872 99.0232 50.2535 97.2374 49.7072C95.0773 52.0647 93.5219 54.8533 93.0611 57.182C94.674 57.9007 96.3158 58.6482 97.9575 59.3669ZM62.7608 45.8549C60.5718 46.3149 58.5845 46.7173 56.6547 47.1486C56.4531 47.2061 56.3091 47.5223 56.0786 47.7811C57.6628 50.3685 59.5061 52.7546 61.3495 55.1696C62.9624 55.1121 64.4026 54.7958 66.0155 54.1633C65.1226 51.3172 63.9417 48.7585 62.7896 45.8261L62.7608 45.8549ZM136.092 114.45C133.961 113.358 130.159 112.294 127.48 112.064C127.106 113.731 126.76 115.399 126.76 117.267C129.611 118.159 132.175 119.539 135.199 120.114C135.746 118.159 136.15 116.319 136.092 114.45ZM79.6679 68.1929C80.1864 71.5853 81.0792 74.6039 82.0009 77.5651C82.6058 77.7663 83.1242 77.9963 83.6427 78.1113C84.1323 78.2263 84.6795 78.2838 85.2556 78.37C86.1773 75.6676 86.9837 73.0802 87.5886 70.2628C85.1692 69.1991 82.8074 68.3941 79.6679 68.1929ZM115.671 61.4081C113.54 62.7018 111.524 63.9093 109.536 65.203C109.104 65.4617 108.816 65.9217 108.586 66.1517C109.623 67.3016 110.515 68.3366 111.437 69.3141C111.812 69.7166 112.244 70.0616 112.762 70.5215C113.914 69.6016 115.095 68.7391 116.218 67.8191C117.313 66.9279 118.638 66.2667 119.559 64.9442C118.609 63.9955 117.802 63.1618 116.938 62.3281C116.564 61.9543 116.074 61.6668 115.671 61.3793V61.4081ZM87.4446 46.6311C85.9757 48.6723 84.91 52.2372 84.9964 54.6808C86.4077 55.1408 87.8478 55.687 89.432 55.7158C90.0656 54.4221 90.6705 53.1859 91.2753 52.0072C91.909 50.7997 92.5714 49.621 93.2339 48.356C91.2465 47.3498 89.3168 46.9186 87.4158 46.6311H87.4446ZM43.1751 112.984C43.7512 112.898 44.2984 112.869 44.788 112.725C48.1867 111.719 51.6142 110.684 54.9841 109.62C55.9058 109.333 56.3667 108.844 57.4612 107.177C57.0579 107.119 56.7123 107.033 56.3955 107.062C54.0337 107.234 51.6719 107.407 49.31 107.665C47.5819 107.838 45.8537 108.068 44.1544 108.355C43.5783 108.442 43.0311 108.786 42.4262 109.045C42.5703 110.454 42.5703 111.719 43.1175 112.984H43.1751ZM125.205 92.5433C126.875 92.0833 128.287 91.7383 129.669 91.3071C131.023 90.9046 132.549 90.9908 133.903 90.0421C133.442 88.6909 133.039 87.3972 132.578 86.1323C132.434 85.7298 132.175 85.356 131.829 84.7523C129.035 85.701 126.357 86.736 123.765 88.4322C124.225 89.7834 124.657 91.0483 125.176 92.572L125.205 92.5433ZM69.6446 53.7896C71.2576 53.8471 72.7553 53.9334 74.253 53.2721C73.7058 50.4835 73.4754 47.7523 72.6401 45.1074C70.6239 44.9062 68.7806 45.0787 66.7356 45.5674C67.7149 48.4135 68.6653 51.0584 69.6158 53.7896H69.6446ZM101.385 113.731C102.94 114.594 104.352 115.456 105.821 116.175C107.347 116.922 108.614 118.187 110.544 118.504C110.803 117.124 111.034 115.859 111.235 114.594C111.293 114.163 111.235 113.703 111.235 113.099C109.68 112.61 108.24 112.093 106.742 111.719C105.187 111.345 103.689 110.569 101.99 110.77C101.788 111.748 101.615 112.553 101.385 113.731ZM50.1741 59.7694C48.5036 56.8945 45.9401 53.8471 44.0104 52.3234C42.8871 52.8409 41.7062 53.3009 40.8133 54.2496C41.6774 56.147 45.1337 60.7756 46.5738 61.9256C47.6971 61.2644 48.8492 60.5744 50.1453 59.7981L50.1741 59.7694ZM135.775 99.2706C135.66 97.4019 135.545 95.7344 134.738 94.067C131.8 94.5845 128.891 94.7857 126.126 96.2519C126.357 97.3731 126.587 98.4081 126.846 99.5581C129.9 99.5868 132.78 99.5868 135.804 99.2706H135.775ZM76.442 45.4236C77.0469 48.2985 77.6229 51.0297 78.199 53.8759C79.2359 53.9333 80.0999 53.9908 81.0792 54.0483C81.7705 51.2597 82.4329 48.6723 83.0666 46.0849C80.8776 45.2511 79.4951 45.1074 76.442 45.4236ZM51.9311 48.701C50.491 49.3048 49.2524 49.8222 47.8123 50.426C48.9068 51.8347 49.8861 53.0421 50.8078 54.2783C51.7295 55.5145 52.5935 56.7508 53.5152 58.0445C54.9841 57.5557 56.3379 57.1245 57.7204 56.262C55.7906 53.7321 53.9761 51.3747 51.9311 48.7298V48.701ZM122.382 84.9823C125.205 83.6023 127.739 82.3949 130.389 81.1012C129.928 79.7787 129.467 78.6575 128.431 77.5938C127.077 78.14 125.723 78.6575 124.398 79.2612C123.102 79.865 121.633 80.1812 120.51 81.3599C121.115 82.5386 121.691 83.6598 122.353 84.9823H122.382ZM91.1025 71.9877C90.1808 74.8914 89.0863 77.3063 88.6831 79.9512C88.6831 80.0662 88.8847 80.1812 88.9999 80.325C90.152 79.175 91.5921 76.3576 92.6578 73.0227C92.2546 72.764 91.8226 72.4765 91.0737 71.9877H91.1025ZM108.01 61.9256C108.787 61.4368 109.565 60.9769 110.314 60.4594C111.091 59.9132 112.128 59.6832 112.676 58.6194C111.84 58.0445 111.12 57.527 110.314 56.952C109.162 58.4757 108.442 60.0281 108.01 61.9256Z" fill="#7582E2"></path><path d="M120.222 38.3802C120.596 37.6615 121.201 37.3165 121.979 37.2302C123.073 37.1152 124.168 36.9715 125.262 36.8565C126.933 36.6552 128.142 35.879 128.949 34.3266C129.957 32.3716 131.224 30.5605 132.175 28.548C133.817 25.0694 135.314 21.5045 136.812 17.9684C137.1 17.3071 137.244 16.5597 137.302 15.8409C137.388 14.7197 136.61 13.8573 135.487 13.8285C134.306 13.8285 133.096 14.001 131.916 14.0873C130.36 14.1735 128.805 14.2885 127.25 14.2885C126.731 14.2885 126.241 14.0585 125.665 13.9435C125.233 11.4998 124.83 9.14242 124.427 6.81375C124.34 6.26752 124.283 5.72129 124.081 5.23256C123.534 3.9676 122.18 3.65136 121.143 4.57133C120.654 5.00256 120.279 5.52005 119.876 6.00878C115.844 11.0399 112.647 16.6172 109.478 22.2232C109.334 22.4532 109.248 22.712 109.104 22.942C108.413 24.1494 108.384 25.3569 108.931 26.6506C109.507 28.0018 109.968 29.4105 110.573 30.7329C111.293 32.3429 111.351 33.7803 110.486 35.4478C108.931 38.4664 107.577 41.6001 106.166 44.6762C105.59 45.9124 104.985 47.1486 104.265 48.6436L112.186 53.2147C114.893 48.2124 117.572 43.2963 120.251 38.3802H120.222ZM112.791 24.0919C115.268 19.9233 117.831 15.7834 120.395 11.6436C120.51 11.4423 120.827 11.3561 121.172 11.1549C121.345 11.8448 121.547 12.4486 121.662 13.081C121.777 13.6273 121.777 14.1735 121.835 14.7197C122.094 16.7322 122.584 17.8246 125.118 17.9684C127.221 18.0834 129.323 18.3134 131.455 17.9971C131.8 17.9396 132.146 18.0546 132.664 18.0834C132.463 18.7159 132.348 19.2333 132.175 19.7508C130.475 24.0344 128.286 28.0593 125.953 31.9979C125.377 33.0041 124.657 33.4929 123.332 32.8316C123.851 31.8254 124.369 30.8767 124.888 29.8992C125.464 28.8355 125.953 27.743 126.616 26.7656C127.883 24.8969 127.394 23.1432 125.723 21.6483C124.974 20.987 124.139 20.412 123.304 19.8371C122.929 19.5783 122.468 19.3771 122.036 19.3196C120.51 19.1183 119.444 20.5558 117.918 20.5845C117.543 20.5845 117.111 21.2745 116.852 21.7632C116.247 22.8845 115.729 24.0919 115.181 25.2419C114.749 26.1331 114.317 27.0531 113.856 27.973C112.474 26.5643 112.071 25.3569 112.819 24.0919H112.791Z" fill="#5CB7FD"></path><path d="M0 86.7646C0.201618 85.6722 0.432038 84.321 0.748866 82.9698C2.59223 75.4088 5.90452 68.4803 9.93687 61.8967C12.1547 58.3031 14.6317 54.882 17.4831 51.7771C19.2977 49.8221 21.1987 47.9535 23.4741 46.5447C24.4821 45.9123 25.5766 45.4235 26.6999 45.021C27.6504 44.6761 28.6297 45.2223 28.9753 46.056C29.321 46.9185 29.0329 47.9534 28.0537 48.3847C22.4948 50.8284 18.9809 55.4282 15.6398 60.1718C10.6857 67.1866 6.7974 74.7188 4.6084 83.0848C4.32038 84.2347 4.11876 85.4134 3.85954 86.5634C3.77313 87.0234 3.71553 87.4834 3.57151 87.9146C3.28349 88.7483 2.44821 89.3233 1.69935 89.2371C0.892878 89.1508 0.201618 88.4608 0.0576051 87.5984C0.0576051 87.4259 0.0576051 87.2246 0 86.7934L0 86.7646Z" fill="#131217"></path><path d="M118.061 178.503C116.938 178.56 116.247 178.129 115.93 177.468C115.642 176.806 115.815 176.002 116.42 175.484C116.765 175.197 117.169 174.938 117.572 174.737C121.633 172.667 125.06 169.763 128.258 166.601C133.96 160.908 138.77 154.583 142.112 147.224C142.342 146.735 142.601 146.246 142.947 145.815C143.379 145.269 144.329 145.154 144.992 145.441C145.625 145.729 146.144 146.505 146 147.224C145.856 147.942 145.625 148.661 145.28 149.294C143.782 152.025 142.371 154.813 140.671 157.43C136.437 163.841 131.368 169.504 125.291 174.19C123.563 175.542 121.633 176.663 119.79 177.813C119.185 178.186 118.465 178.388 118.09 178.531L118.061 178.503Z" fill="#131217"></path><path d="M112.359 9.9759C110.947 9.9759 109.968 8.5672 110.458 7.41723C110.659 6.9285 110.976 6.43977 111.322 6.03728C112.733 4.34109 114.173 2.70239 115.642 1.03495C115.93 0.689962 116.305 0.373723 116.708 0.201228C117.313 -0.086262 117.975 -0.0287639 118.494 0.45997C118.983 0.891205 119.156 1.60993 118.839 2.21366C118.638 2.61615 118.378 3.01863 118.09 3.36362C116.564 5.31856 115.037 7.27349 113.482 9.17093C113.165 9.57341 112.618 9.77465 112.359 9.9759Z" fill="#131217"></path><path d="M133.528 41.3697C132.204 41.3122 131.368 40.0472 131.944 39.1847C132.895 37.7185 133.932 36.3386 134.969 34.9299C135.401 34.3549 136.15 34.2399 136.697 34.4986C137.388 34.8149 137.906 35.5911 137.676 36.2811C137.1 38.0348 136.294 39.7022 134.796 40.8522C134.393 41.1684 133.817 41.2547 133.528 41.3697Z" fill="#131217"></path></g><defs><clipPath id="clip0_1149_51"><rect width="146" height="185" fill="white"></rect></clipPath></defs></svg>