<?xml version="1.0" encoding="UTF-8"?>
<svg id="Capa_2" data-name="Capa 2" xmlns="http://www.w3.org/2000/svg" viewBox="0 0 199.83 202.24">
  <defs>
    <style>
      .cls-1, .cls-2 {
        fill: none;
      }

      .cls-3 {
        fill: #231f20;
      }

      .cls-2 {
        stroke: #212121;
        stroke-miterlimit: 10;
      }
    </style>
  </defs>
  <g id="Capa_1-2" data-name="Capa 1">
    <g>
      <g>
        <circle class="cls-1" cx="98.71" cy="101.12" r="81.58"/>
        <path d="M29.48,52.4c.29-.41.09-.89-.85-1.55l-.19-.13c-1.3-.92-2.38-.38-3.75.17-1.52.59-3.09,1.14-5.1-.28l-.19-.13c-1.82-1.29-2.54-3.23-.73-5.78,1.79-2.54,3.72-2.64,6.07-.98l1.37.97-1.99,2.82-.62-.44c-1.33-.94-1.84-.9-2.2-.4-.25.36-.11.71.32,1.02l.19.13c.88.62,2.15.11,3.53-.41,1.6-.59,3.1-1.08,5.31.49l.38.26c2.35,1.66,2.96,3.55,1.17,6.08-1.8,2.55-3.78,2.6-6.12.94l-.83-.58c-.98-.69-1.13-.99-1.13-.99l1.99-2.82s.34.44,1.5,1.26c.94.66,1.55.79,1.86.36Z"/>
        <path d="M36.59,41.87c2.17,1.89,2.6,3.7.79,5.78-1.83,2.1-3.82,2.08-5.98.19l-2.74-2.38c-2.17-1.89-2.54-3.77-.72-5.87,1.81-2.08,3.74-1.99,5.91-.1l.35.3-2.04,2.34c-1.11-.97-1.58-.92-1.9-.55-.36.42-.31.89.95,1.99l1.7,1.48c1.25,1.09,1.72,1.1,2.08.69s.19-.96-.48-1.55c-.83-.72-1.51-1.1-1.51-1.1l2.04-2.34s.49.21,1.18.81l.36.32Z"/>
        <path d="M39.39,37.04l-1.23-1.3c-.73-.77-1.06-.89-1.37-.61-.33.32-.23.73,1.14,2.18l4.48,4.75-2.51,2.37-8.2-8.7,2.39-2.26,1.73,2.44.17-.16c-1.37-1.96-1.41-3.07-.35-4.06,1.34-1.26,2.78-.54,4.75,1.55l1.42,1.51-2.42,2.29Z"/>
        <path d="M47.41,27.8l2.22,2.88c1.75,2.28,1.64,4.28-.54,5.96-2.2,1.7-4.15,1.28-5.91-1l-2.22-2.88c-1.75-2.28-1.66-4.27.54-5.96,2.19-1.68,4.15-1.28,5.91,1ZM45.37,30.25c-1-1.29-1.56-1.35-2-1.01s-.53.9.47,2.19l1.38,1.79c1,1.29,1.56,1.35,2,1.01.44-.34.53-.9-.47-2.19l-1.38-1.79Z"/>
        <path d="M55.25,32.04l-2.78,1.84-8.87-13.44,2.78-1.84,8.87,13.44Z"/>
        <path d="M58.63,30.02l-2.87,1.7-8.2-13.85,2.87-1.7,8.2,13.85Z"/>
        <path d="M69.14,20.49c1.12,2.65.62,4.51-2.24,5.73-2.88,1.22-4.55.29-5.68-2.36l-3.04-7.15c-1.13-2.65-.64-4.5,2.24-5.73,2.86-1.22,4.53-.28,5.66,2.37l.66,1.54-3.28,1.4-.3-.7c-.64-1.5-.96-1.79-1.45-1.58-.49.21-.52.65.11,2.15l2.32,5.46c.64,1.5.98,1.78,1.47,1.57.49-.21.52-.65-.12-2.15-.93-2.18-1.37-2.82-1.37-2.82l3.28-1.39s.25.24.71,1.32l1.02,2.34Z"/>
        <path d="M75.18,20.11l-.24.07c.39,2.36-.34,3.21-1.64,3.61-1.5.46-2.63-.35-3.32-2.59-.69-2.26.14-3.87,2.95-4.73l.4-.12-.07-.22c-.48-1.56-.75-1.89-1.25-1.73-.53.16-.55.58-.2,1.7l.13.44-3.08.94-.34-1.1c-.71-2.31.08-4.14,2.63-4.92,2.53-.78,4.16.07,5.07,3.04l2.29,7.45-2.97.91-.36-2.75ZM73.41,18.03c-.64.2-.82.61-.6,1.34.23.75.51.97.98.83.4-.12.6-.4.23-1.59l-.22-.7-.4.12Z"/>
        <path d="M82.32,15.34l-.35-1.76c-.21-1.04-.43-1.32-.83-1.24-.45.09-.58.49-.19,2.45l1.28,6.4-3.38.68-2.34-11.73,3.22-.64.17,2.99.23-.04c-.12-2.39.43-3.35,1.86-3.63,1.8-.36,2.64,1.02,3.21,3.84l.41,2.03-3.27.65Z"/>
        <path d="M91.04,16.05c-.08-.78-.29-1.31-.29-1.31l3.09-.3s.21.46.29,1.27l.03.34c.24,2.47-.91,3.86-3.43,4.11-2.77.27-4.2-1.11-4.48-3.97l-.36-3.62c-.28-2.86.74-4.49,3.51-4.76s4.09,1.12,4.37,3.98l.2,2.06-4.78.47.09.87c.16,1.62.47,1.99,1.09,1.93.53-.05.74-.42.68-1.06ZM89.02,12.69l1.7-.14c-.14-1.44-.5-1.75-1-1.7s-.79.4-.7,1.85Z"/>
        <path d="M95.03,19.58l-.14-8.99h-.69s-.05-2.96-.05-2.96h.69s0-.22,0-.22c-.05-2.87,1.09-3.95,4.12-4l1.15-.02.05,3.06h-.46c-1.1.03-1.38.24-1.41,1.11l1.66-.03.05,2.97-1.66.03.14,8.99-3.45.05Z"/>
        <path d="M104.43,7.74l-.45,6.63c-.13,1.86.05,2.26.54,2.3.46.03.8-.31.94-2.31l.45-6.52,3.44.24-.82,11.93-3.3-.23.62-2.93-.23-.02c-.52,2.57-1.6,3.1-2.95,3-2.07-.14-2.4-1.71-2.19-4.78l.52-7.55,3.44.24Z"/>
        <path d="M112.27,20.64l-3.3-.48,2.33-15.93,3.3.48-2.33,15.93Z"/>
        <path d="M116.13,21.38l-3.27-.64,3.1-15.8,3.27.64-3.1,15.8Z"/>
        <path d="M118.56,21.95l.84-12.17,3.28.9-1.06,7.24.22.06,2.54-6.84,3.28.9-7.1,14.74-3.1-.85,2.05-3.73-.95-.26Z"/>
        <path d="M124.5,24.06l-.05-.14c-.52-.18-.73-.86-.39-1.84l.06-.17c.33-.98.91-1.39,2.02-1.01,1.13.39,1.32,1.06.98,2.04l-.06.17c-.09.26-.23.53-.33.69l-1.99,2.62-1.72-.59,1.48-1.78Z"/>
        <path d="M137.92,11.61l3.32,1.53-6.74,14.62-3.32-1.53,6.74-14.62Z"/>
        <path d="M143.86,19.17l1.46.79-1.41,2.61-1.46-.79-2.08,3.85c-.6,1.11-.48,1.52.51,2.05l.41.22-1.45,2.69-1.01-.55c-2.67-1.44-2.98-2.81-1.61-5.34l2.4-4.45-.61-.33,1.41-2.61.61.33,1.64-3.04,2.83,1.53-1.64,3.04Z"/>
        <path d="M147.63,20.38l-.02-.15c-.47-.29-.52-1,.02-1.88l.1-.16c.54-.88,1.2-1.15,2.19-.54,1.02.63,1.05,1.32.51,2.2l-.1.16c-.13.22-.34.47-.46.58l-2.52,2.12-1.55-.95,1.83-1.39Z"/>
        <path d="M146.19,28.16l2.32,1.66s-.49.44-.95,1.1c-.36.51-.43,1.05.11,1.43.41.29.87.28,1.27-.28.54-.72.25-1.43-.33-2.63-.62-1.31-1.55-2.77-.46-4.31,1.03-1.44,2.74-1.97,4.85-.47,2.12,1.51,2.41,3.27.6,5.82l-2.34-1.67c.57-.81.53-1.26.1-1.57-.39-.28-.71-.19-.88.05-.35.49.13,1.08.63,2.12.82,1.66,1.18,2.9,0,4.55l-.13.19c-1.35,1.89-3.15,2.08-4.96.78-1.97-1.4-2.61-3.16-1.06-5.33.63-.88,1.23-1.44,1.23-1.44Z"/>
        <path d="M157.72,40.45c.36.35.87.23,1.67-.59l.16-.16c1.11-1.14.75-2.29.42-3.73-.35-1.59-.64-3.23,1.07-4.99l.16-.17c1.56-1.6,3.59-2,5.83.18,2.22,2.17,2.02,4.09.02,6.15l-1.17,1.2-2.47-2.41.53-.54c1.14-1.17,1.18-1.67.74-2.11-.31-.31-.69-.22-1.06.16l-.16.17c-.75.77-.44,2.1-.15,3.55.33,1.67.58,3.23-1.32,5.17l-.32.33c-2.01,2.06-3.97,2.36-6.2.2-2.24-2.18-1.97-4.14.03-6.2l.71-.73c.83-.86,1.16-.96,1.16-.96l2.47,2.41s-.48.27-1.48,1.29c-.8.82-1.02,1.41-.64,1.78Z"/>
        <path d="M170.72,46.17l.14.18c2.26-1.33,3.39-.85,4.16.13,1.22,1.56.31,2.89-2.12,4.79l-5.95,4.67-2.13-2.71,5.23-4.1c1.47-1.15,1.6-1.61,1.39-1.88s-.73-.33-2.3.9l-5.14,4.03-2.13-2.71,5.23-4.1c1.47-1.15,1.6-1.61,1.38-1.9-.21-.27-.73-.33-2.3.9l-5.14,4.03-2.13-2.71,9.41-7.38,2.03,2.59-2.59,1.5.14.18c2.26-1.33,3.4-.85,4.16.13.7.89.74,1.73.14,2.61l-1.48.87Z"/>
        <path d="M177.73,59.14l-3.13,1.85c-2.47,1.46-4.45,1.11-5.85-1.26-1.42-2.39-.77-4.28,1.71-5.74l3.13-1.85c2.47-1.46,4.44-1.13,5.85,1.26,1.41,2.38.77,4.28-1.71,5.74ZM175.56,56.82c1.41-.83,1.53-1.39,1.25-1.86-.28-.48-.83-.63-2.23.2l-1.94,1.15c-1.41.83-1.53,1.39-1.25,1.86.28.47.83.63,2.23-.2l1.94-1.15Z"/>
        <path d="M181.56,67.28l-3.3,1.53c-2.61,1.21-4.54.66-5.7-1.85-1.17-2.53-.33-4.33,2.27-5.54l3.3-1.53c2.61-1.21,4.53-.68,5.7,1.85,1.16,2.5.33,4.33-2.27,5.54ZM179.63,64.76c1.48-.69,1.66-1.23,1.43-1.73-.23-.5-.76-.71-2.24-.03l-2.04.95c-1.48.69-1.66,1.23-1.43,1.73.23.5.76.71,2.24.03l2.04-.95Z"/>
        <path d="M186.97,70.08l.57,1.56-2.79,1.01-.57-1.56-4.11,1.49c-1.19.43-1.37.81-.98,1.87l.16.43-2.88,1.04-.39-1.08c-1.04-2.85-.35-4.08,2.35-5.06l4.76-1.73-.24-.65,2.79-1.01.24.65,3.24-1.18,1.1,3.03-3.24,1.18Z"/>
        <path d="M177.78,80.94l6.42-1.7c1.8-.48,2.13-.78,2-1.24-.12-.44-.55-.66-2.49-.15l-6.31,1.67-.88-3.33,15.56-4.11.88,3.33-4,1.06-2.79.14.06.22c2.38-.27,3.22.58,3.57,1.89.49,1.87-.84,2.84-3.82,3.63l-7.31,1.93-.88-3.33Z"/>
        <path d="M168.63,148.81c-.29.42-.08.89.87,1.54l.19.13c1.31.9,2.38.35,3.75-.22,1.51-.61,3.07-1.19,5.1.2l.19.13c1.84,1.26,2.58,3.19.82,5.77-1.75,2.56-3.68,2.69-6.05,1.07l-1.39-.95,1.95-2.85.63.43c1.35.92,1.85.88,2.2.36.25-.36.1-.71-.34-1.01l-.19-.13c-.89-.61-2.15-.08-3.52.46-1.59.61-3.08,1.12-5.32-.41l-.38-.26c-2.37-1.62-3.01-3.51-1.25-6.07,1.77-2.58,3.74-2.65,6.11-1.03l.83.57c.99.67,1.14.98,1.14.98l-1.95,2.85s-.35-.43-1.52-1.24c-.95-.65-1.57-.76-1.87-.33Z"/>
        <path d="M161.66,159.47c-2.2-1.86-2.66-3.66-.88-5.77,1.8-2.12,3.79-2.13,5.98-.27l2.78,2.35c2.2,1.86,2.6,3.73.8,5.86-1.78,2.11-3.71,2.04-5.91.18l-.35-.3,2-2.37c1.12.95,1.59.89,1.9.53.36-.42.3-.89-.98-1.97l-1.72-1.45c-1.26-1.07-1.74-1.08-2.09-.66-.36.42-.18.96.5,1.54.84.71,1.53,1.08,1.53,1.08l-2,2.37s-.49-.2-1.19-.8l-.37-.31Z"/>
        <path d="M158.92,164.34l1.25,1.29c.74.76,1.08.88,1.37.59.33-.32.22-.73-1.17-2.17l-4.55-4.69,2.48-2.4,8.33,8.58-2.36,2.29-1.77-2.42-.17.16c1.4,1.94,1.45,3.05.41,4.06-1.32,1.28-2.77.58-4.78-1.49l-1.44-1.49,2.39-2.32Z"/>
        <path d="M151.07,173.67l-2.26-2.84c-1.79-2.25-1.71-4.25.45-5.97,2.18-1.73,4.13-1.34,5.92.91l2.26,2.84c1.79,2.25,1.73,4.24-.45,5.97-2.16,1.72-4.13,1.34-5.92-.91ZM153.08,171.2c1.02,1.28,1.58,1.33,2.02.98.43-.34.51-.91-.5-2.19l-1.4-1.76c-1.02-1.28-1.58-1.33-2.02-.98-.43.34-.51.91.5,2.19l1.4,1.76Z"/>
        <path d="M143.14,169.56l2.76-1.88,9.06,13.31-2.76,1.88-9.06-13.31Z"/>
        <path d="M139.8,171.63l2.84-1.74,8.41,13.74-2.84,1.74-8.41-13.74Z"/>
        <path d="M129.44,181.3c-1.16-2.63-.68-4.5,2.15-5.76,2.86-1.27,4.55-.35,5.71,2.28l3.15,7.11c1.16,2.63.71,4.49-2.15,5.76-2.84,1.26-4.53.34-5.69-2.29l-.68-1.54,3.26-1.44.31.69c.66,1.49.99,1.78,1.47,1.56.48-.21.51-.66-.15-2.15l-2.4-5.42c-.66-1.49-1.01-1.77-1.49-1.55-.48.21-.51.66.15,2.15.96,2.17,1.41,2.79,1.41,2.79l-3.26,1.44s-.26-.24-.73-1.31l-1.05-2.32Z"/>
        <path d="M123.38,181.78l.24-.08c-.42-2.35.29-3.21,1.59-3.63,1.49-.48,2.64.31,3.36,2.54.73,2.26-.08,3.87-2.89,4.77l-.39.13.07.22c.5,1.55.77,1.88,1.28,1.71.53-.17.54-.58.18-1.7l-.14-.44,3.07-.99.35,1.09c.74,2.3-.02,4.14-2.56,4.96-2.52.81-4.16-.01-5.11-2.97l-2.39-7.42,2.96-.95.4,2.75ZM125.17,183.83c.64-.2.81-.62.58-1.35-.24-.74-.53-.97-.99-.82-.39.13-.59.41-.21,1.59l.23.7.39-.13Z"/>
        <path d="M116.33,186.65l.38,1.75c.22,1.03.45,1.32.85,1.23.45-.1.57-.5.15-2.46l-1.37-6.39,3.37-.73,2.52,11.7-3.22.69-.22-2.99-.22.05c.16,2.39-.38,3.35-1.8,3.66-1.8.39-2.66-.98-3.26-3.79l-.44-2.02,3.26-.7Z"/>
        <path d="M107.58,186.06c.09.78.31,1.31.31,1.31l-3.09.35s-.21-.46-.3-1.26l-.04-.34c-.28-2.47.86-3.87,3.37-4.15,2.77-.31,4.22,1.05,4.54,3.91l.41,3.61c.32,2.86-.67,4.5-3.44,4.81-2.77.31-4.1-1.07-4.42-3.92l-.23-2.06,4.78-.54-.1-.87c-.18-1.62-.5-1.98-1.12-1.91-.53.06-.74.43-.67,1.07ZM109.65,189.39l-1.69.17c.16,1.44.52,1.75,1.02,1.69.5-.06.79-.41.67-1.86Z"/>
        <path d="M103.53,182.59l.26,8.99.69-.02.09,2.97-.69.02v.21c.09,2.88-1.03,3.97-4.06,4.05l-1.15.03-.09-3.06h.46c1.1-.04,1.37-.26,1.39-1.14l-1.66.05-.09-2.97,1.66-.05-.26-8.99,3.45-.1Z"/>
        <path d="M94.32,194.56l.36-6.64c.1-1.86-.08-2.26-.57-2.29-.46-.03-.8.32-.91,2.32l-.36,6.52-3.45-.19.65-11.94,3.31.18-.58,2.94h.23c.49-2.56,1.55-3.1,2.91-3.03,2.07.11,2.42,1.67,2.25,4.75l-.41,7.56-3.44-.19Z"/>
        <path d="M86.28,181.77l3.31.44-2.1,15.96-3.3-.44,2.1-15.96Z"/>
        <path d="M82.44,181.09l3.28.6-2.87,15.84-3.28-.6,2.87-15.84Z"/>
        <path d="M79.98,180.56l-.66,12.18-3.29-.85.95-7.26-.22-.06-2.45,6.87-3.29-.85,6.89-14.84,3.12.81-2,3.76.96.25Z"/>
        <path d="M74.04,178.54l.05.14c.52.17.74.85.42,1.83l-.06.18c-.32.98-.89,1.4-2.01,1.04-1.14-.37-1.33-1.04-1.01-2.02l.06-.17c.09-.26.22-.53.32-.69l1.95-2.65,1.73.56-1.46,1.8Z"/>
        <path d="M60.78,191.18l-3.34-1.48,6.54-14.72,3.34,1.48-6.54,14.72Z"/>
        <path d="M54.74,183.71l-1.47-.76,1.37-2.63,1.47.76,2.02-3.88c.58-1.12.46-1.53-.54-2.04l-.41-.21,1.41-2.71,1.02.53c2.69,1.4,3.02,2.77,1.69,5.32l-2.34,4.49.61.32-1.37,2.63-.61-.32-1.59,3.06-2.86-1.49,1.59-3.06Z"/>
        <path d="M50.94,182.54l.02.15c.47.28.54.99,0,1.88l-.09.16c-.53.89-1.18,1.17-2.19.57-1.03-.61-1.07-1.31-.54-2.2l.09-.16c.13-.22.33-.47.46-.58l2.49-2.16,1.56.93-1.81,1.41Z"/>
        <path d="M52.27,174.74l-2.35-1.62s.48-.45.94-1.11c.35-.51.42-1.05-.13-1.43-.42-.29-.88-.27-1.27.3-.53.73-.23,1.43.36,2.63.64,1.31,1.59,2.75.52,4.3-1.01,1.46-2.71,2.02-4.84.54-2.14-1.48-2.46-3.24-.68-5.81l2.37,1.63c-.56.81-.51,1.27-.08,1.57.4.28.71.18.88-.06.34-.49-.15-1.08-.67-2.11-.85-1.65-1.22-2.88-.07-4.55l.13-.19c1.32-1.91,3.12-2.12,4.95-.85,1.99,1.37,2.65,3.12,1.14,5.31-.62.89-1.21,1.46-1.21,1.46Z"/>
        <path d="M40.56,162.62c-.37-.35-.87-.22-1.66.61l-.16.17c-1.09,1.15-.72,2.3-.37,3.73.37,1.58.69,3.22-1,5l-.16.17c-1.53,1.62-3.55,2.05-5.83-.1-2.25-2.13-2.08-4.06-.1-6.14l1.15-1.22,2.5,2.37-.52.55c-1.12,1.19-1.16,1.69-.71,2.12.32.3.69.21,1.05-.17l.16-.17c.74-.79.41-2.11.1-3.55-.35-1.67-.62-3.22,1.24-5.19l.32-.33c1.98-2.09,3.94-2.42,6.19-.28,2.27,2.15,2.03,4.11.05,6.19l-.7.73c-.82.87-1.14.97-1.14.97l-2.5-2.37s.48-.27,1.46-1.31c.79-.83,1-1.43.62-1.79Z"/>
        <path d="M27.48,157.08l-.14-.18c-2.24,1.36-3.38.9-4.16-.07-1.24-1.54-.35-2.88,2.05-4.82l5.89-4.75,2.17,2.69-5.17,4.18c-1.45,1.17-1.58,1.63-1.36,1.9s.73.32,2.29-.93l5.08-4.1,2.17,2.68-5.17,4.18c-1.45,1.17-1.58,1.63-1.35,1.92.22.27.73.32,2.29-.93l5.08-4.1,2.17,2.68-9.31,7.51-2.07-2.56,2.57-1.54-.14-.18c-2.24,1.36-3.38.9-4.16-.07-.71-.88-.77-1.72-.18-2.6l1.47-.89Z"/>
        <path d="M20.29,144.23l3.1-1.9c2.45-1.5,4.43-1.18,5.87,1.18,1.45,2.37.83,4.27-1.62,5.77l-3.1,1.9c-2.45,1.5-4.42,1.19-5.87-1.18-1.44-2.35-.83-4.27,1.62-5.77ZM22.5,146.51c-1.39.85-1.51,1.41-1.22,1.88.29.47.84.62,2.23-.23l1.92-1.18c1.39-.85,1.51-1.41,1.22-1.88s-.84-.62-2.23.23l-1.92,1.18Z"/>
        <path d="M16.35,136.14l3.27-1.57c2.59-1.25,4.53-.72,5.72,1.76,1.21,2.51.4,4.33-2.19,5.57l-3.27,1.57c-2.59,1.25-4.52.74-5.72-1.76-1.2-2.49-.4-4.33,2.19-5.57ZM18.32,138.64c-1.47.71-1.64,1.25-1.41,1.75.24.5.77.7,2.24,0l2.03-.98c1.47-.71,1.64-1.25,1.41-1.75s-.77-.7-2.24,0l-2.03.98Z"/>
        <path d="M10.88,133.4l-.59-1.55,2.78-1.05.59,1.55,4.09-1.55c1.18-.45,1.36-.83.96-1.89l-.16-.43,2.86-1.08.41,1.08c1.08,2.84.41,4.08-2.28,5.09l-4.73,1.79.24.65-2.78,1.05-.24-.65-3.23,1.22-1.14-3.01,3.23-1.22Z"/>
        <path d="M19.93,122.41l-6.4,1.79c-1.79.5-2.12.81-1.99,1.27.12.44.57.65,2.49.12l6.29-1.76.93,3.32-15.51,4.34-.93-3.32,3.99-1.12,2.79-.18-.06-.22c-2.38.31-3.23-.53-3.6-1.84-.52-1.86.8-2.85,3.77-3.68l7.29-2.04.93,3.32Z"/>
      </g>
      <circle class="cls-2" cx="98.76" cy="101.11" r="71.83"/>
      <g id="_56" data-name="56">
        <path class="cls-3" d="M14.19,76.06c-.76,6.06-3.04,7.82-9.09,7.06,6.06.76,7.82,3.04,7.06,9.09.76-6.06,3.04-7.82,9.09-7.06-6.06-.76-7.82-3.04-7.06-9.09Z"/>
      </g>
      <g id="_56-2" data-name="56">
        <path class="cls-3" d="M185.6,103.92c-.76,6.06-3.04,7.82-9.09,7.06,6.06.76,7.82,3.04,7.06,9.09.76-6.06,3.04-7.82,9.09-7.06-6.06-.76-7.82-3.04-7.06-9.09Z"/>
      </g>
    </g>
  </g>
</svg>