<svg xmlns="http://www.w3.org/2000/svg" id="Capa_1" data-name="Capa 1" viewBox="0 0 247 246"><defs><style>      .cls-1 {        fill: #efa6f5;        stroke: #fff;      }      .cls-1, .cls-2 {        stroke-miterlimit: 10;      }      .cls-2 {        fill: none;        stroke: #7582e2;        stroke-width: 4px;      }      .cls-3 {        fill: #7582e2;        stroke-width: 0px;      }    </style></defs><path class="cls-1" d="M99.9,21.81c10.49-18.17,36.72-18.17,47.21,0l96.2,166.63c10.49,18.17-2.62,40.88-23.6,40.88H27.3c-20.98,0-34.09-22.71-23.6-40.88L99.9,21.81Z"></path><path class="cls-2" d="M103.56,40.3c8.95-15.5,31.32-15.5,40.26,0l82.05,142.12c8.95,15.5-2.24,34.87-20.13,34.87H41.63c-17.9,0-29.08-19.37-20.13-34.87L103.56,40.3Z"></path><g><path class="cls-3" d="M117.38,93.99c-5.71-3.07-13.31-1.07-18.35,2.47-6.17,4.33-9.82,11.45-11.65,18.6-2.44,9.54-2.28,19.63-2.64,29.4-.42,11.39-1.67,23.12-1.07,34.49.04.77,1.08.73,1.17,0,2.07-17.05.81-34.62,1.9-51.77.55-8.65,2.18-17.44,7.48-24.53,5.86-7.84,13.8-10.13,23.16-8.63.02,0,.03-.02.01-.03h0Z"></path><path class="cls-3" d="M84.69,179.11c1.1,3.62,5.08,5.65,8.77,4.97,4.72-.87,13.76-15.36,17.62-7.18.37.77,1.7.22,1.4-.59-1.31-3.52-5.02-4.35-8.29-2.77-2.35,1.13-3.82,3.36-5.54,5.21-4.33,4.65-9.11,5.26-13.45.06-.2-.23-.59.02-.5.29h0Z"></path><path class="cls-3" d="M112.22,176.77c2.01,4.96,7.21,9.32,12.85,8.49s7.95-6.59,8.99-11.51c.18-.87-1.06-1.22-1.34-.37-1.35,4.23-2.42,9-7.34,10.19-5.9,1.42-9.3-3.18-12.84-6.99-.12-.13-.39,0-.32.18h0Z"></path><path class="cls-3" d="M134.08,173.4c2.92-5.19,8.35.19,9.93,3.33,1.26,2.5,2.06,5.87,4.58,7.39.43.26.82-.24.63-.63-1.16-2.51-2.65-5.02-3.92-7.51-1.01-1.98-2.31-3.96-4.29-5.08-2.8-1.59-6.31-.8-7.59,2.22-.16.38.46.63.66.28h0Z"></path><path class="cls-3" d="M148.12,182.92c2.6,1.63,5.9,1.52,8.45-.22,2.14-1.46,4.24-4.67,3.46-7.35-.16-.55-.92-.53-1.09,0-.79,2.48-.96,4.7-3.39,6.27-2.16,1.39-4.78,1.39-7.18.69-.37-.11-.57.41-.26.6h0Z"></path><path class="cls-3" d="M111.43,91.61c9.95.66,19.99-.08,29.29,4.26s13.95,12.19,16.51,21.6c5.25,19.33,5.36,40.32,2.04,59.97-.17.98,1.33,1.41,1.51.42,3.67-20.97,4.06-45-3.3-65.3-7.02-19.37-27.32-23.93-46.05-21.81-.55.06-.57.84,0,.87h0Z"></path><path class="cls-3" d="M112.88,108.61c-3.75,2.86-4.56,9.07-4.53,13.5.03,5.63,1.78,11.48,5.47,15.8.29.34.86-.1.62-.48-5.81-9.09-7.24-19.23-1.53-28.8,0-.01,0-.04-.02-.02h0Z"></path><path class="cls-3" d="M114.11,137.41c.49.58.97.98,1.72,1.2.6.18,1.43.29,1.97-.09.15-.11.16-.38-.06-.43-.54-.11-1.09,0-1.63-.11-.6-.12-1.3-.4-1.78-.8-.15-.13-.35.07-.22.22h0Z"></path><path class="cls-3" d="M118.06,138.42c5.14-3.66,6.51-10.73,4.54-16.49-.19-.56-1.08-.32-.89.24,2.03,5.95.15,11.44-3.79,16.08-.07.08.02.24.13.17h0Z"></path><path class="cls-3" d="M122.61,121.93c-.81-4.66-.48-12.91-6.6-14.15-3.35-.68-6.3,2.42-4.42,5.58.09.15.32.02.24-.14-.36-.71-.07-2.43.32-3.12.86-1.5,2.54-1.62,3.98-1.26,2.24.55,3.57,2.46,4.29,4.55.96,2.8.93,5.81,1.94,8.61.06.16.28.1.26-.07h0Z"></path><path class="cls-3" d="M136.48,108.02c-1.61-2.13-4.38-1.5-5.8.55-2.41,3.47-2.18,8.96-1.44,12.87.09.49.82.28.74-.2-.44-2.54-.54-5-.17-7.55.17-1.15.38-2.27.82-3.35.82-1.98,3.23-4.66,5.59-2.12.12.13.37-.05.26-.2h0Z"></path><path class="cls-3" d="M129.3,121.32c.2,3.78,0,8.55,1.3,12.15.7,1.92,2.47,3.26,4.5,2.47.52-.2.3-1.04-.23-.84-4.73,1.76-4.75-10.99-5.18-13.83-.03-.22-.4-.17-.39.05h0Z"></path><path class="cls-3" d="M134.48,135.54c6.04,3.45,5.81-6.68,5.67-9.65-.25-5.28,1.34-17.27-5.49-19.43-.16-.05-.3.18-.17.29,4.29,3.65,4.28,8.07,4.52,13.32.12,2.58,2.46,17.59-4.38,15.09-.23-.08-.37.27-.16.39h0Z"></path><path class="cls-3" d="M107.24,143.97c9.62,10.01,24.94,9.46,34.24-.76.56-.61-.35-1.53-.91-.91-8.91,9.82-23.23,10.19-33.01,1.35-.22-.2-.53.11-.32.32h0Z"></path><path class="cls-3" d="M113.24,136.43c.64.38,1.27.76,1.92,1.13.5.29,1.02.7,1.6.75.08,0,.16-.11.1-.18-.36-.47-.97-.68-1.49-.95-.66-.34-1.32-.67-1.99-1.01-.17-.08-.31.16-.15.25h0Z"></path><path class="cls-3" d="M109.85,132.88c2.31,1.51,4.65,3.31,7.15,4.49.17.08.39-.15.22-.28-2.19-1.73-4.84-3.01-7.25-4.41-.14-.08-.26.13-.12.21h0Z"></path><path class="cls-3" d="M111.53,132.27c2.36,1.65,4.7,3.62,7.23,4.98.2.11.44-.16.25-.33-2.19-1.91-4.86-3.41-7.25-5.05-.24-.17-.47.23-.23.4h0Z"></path><path class="cls-3" d="M110.05,128.7c2.74,1.96,5.47,3.93,8.22,5.87.3.21.56-.23.36-.47-.17-.23-.35-.44-.56-.64-.09-.1-.27,0-.23.13.07.27.17.54.28.8l.44-.34c-2.75-1.93-5.53-3.83-8.3-5.74-.24-.17-.46.22-.23.39h0Z"></path><path class="cls-3" d="M108.89,125.74c3.37,2.71,6.7,5.99,10.43,8.16.27.15.54-.2.33-.42-2.98-3.11-6.97-5.58-10.39-8.21-.27-.21-.64.26-.37.48h0Z"></path><path class="cls-3" d="M110.16,124.17c3.43,2.86,6.96,5.76,10.63,8.31.29.2.66-.26.39-.5-3.38-2.92-7.07-5.61-10.7-8.22-.23-.17-.53.22-.31.4h0Z"></path><path class="cls-3" d="M109.55,121.62c3.95,3.12,7.8,6.69,12.06,9.37.3.19.63-.24.38-.49-3.58-3.48-7.92-6.38-11.84-9.47-.42-.33-1.02.26-.59.59h0Z"></path><path class="cls-3" d="M109.99,118.96c3.6,2.82,7.11,6.16,11.03,8.51.25.15.53-.2.32-.41-3.21-3.2-7.29-5.79-10.87-8.57-.34-.26-.81.21-.47.47h0Z"></path><path class="cls-3" d="M109.86,116.94c2.05,1.61,4.1,3.23,6.15,4.84,1.79,1.41,3.56,3.14,5.61,4.15.19.09.35-.13.22-.28-1.55-1.84-3.78-3.2-5.67-4.67s-3.88-3.01-5.83-4.52c-.34-.26-.83.21-.48.48h0Z"></path><path class="cls-3" d="M110.98,115.17c1.56,1.43,3.23,2.75,4.88,4.09,1.44,1.17,2.88,2.68,4.57,3.46.15.07.39-.09.26-.26-1.2-1.56-3.07-2.7-4.61-3.92s-3.17-2.54-4.83-3.71c-.2-.14-.44.17-.26.34h0Z"></path><path class="cls-3" d="M113.14,114.35c-.14-.32-.28-.64-.42-.96l-.44.34c1.44,1.51,2.99,2.92,4.5,4.35,1.36,1.28,2.66,2.73,4.21,3.8.24.17.44-.18.29-.37-1.2-1.54-2.81-2.82-4.23-4.15s-2.86-2.74-4.37-4.02c-.25-.21-.59.05-.44.34.15.31.3.63.46.94.15.31.58.04.45-.26h0Z"></path><path class="cls-3" d="M111.31,111.7c1.57,1.32,3.17,2.61,4.76,3.9,1.41,1.14,2.79,2.45,4.37,3.35.2.12.4-.15.25-.32-1.37-1.48-3.17-2.66-4.75-3.91-1.44-1.13-2.89-2.26-4.35-3.37-.2-.15-.46.19-.27.35h0Z"></path><path class="cls-3" d="M113.54,109.81c1.13,1.24,2.36,2.38,3.58,3.53,1.09,1.03,2.13,2.21,3.39,3.02.12.08.3-.09.21-.21-.9-1.2-2.13-2.17-3.23-3.19-1.23-1.15-2.45-2.3-3.76-3.35-.14-.11-.32.06-.2.2h0Z"></path><path class="cls-3" d="M114.19,109.51c1.44,1.07,2.84,2.24,4.39,3.14.09.05.19-.08.11-.15-1.36-1.18-2.93-2.13-4.41-3.15-.1-.07-.18.09-.09.15h0Z"></path><path class="cls-3" d="M113.57,111.03c2.23,2.14,4.44,4.43,6.93,6.26.08.06.15-.06.1-.12-2-2.35-4.42-4.39-6.71-6.46-.22-.2-.54.12-.32.32h0Z"></path><path class="cls-3" d="M112.11,108.74c1.65,1.57,3.27,3.25,5.06,4.66.16.12.37-.07.22-.22-1.53-1.69-3.32-3.18-5-4.71-.19-.17-.47.1-.28.28h0Z"></path><path class="cls-3" d="M131.34,132.84c1.11.72,2.25,1.63,3.47,2.16.11.05.24-.08.14-.18-1-.9-2.3-1.55-3.44-2.27-.19-.12-.36.18-.17.3h0Z"></path><path class="cls-3" d="M130.45,130.5c2.11,1.68,4.2,3.78,6.58,5.07.14.07.27-.1.17-.21-1.86-1.96-4.43-3.44-6.6-5.05-.11-.08-.26.11-.15.19h0Z"></path><path class="cls-3" d="M131.03,130.02c1.26.88,2.53,1.75,3.79,2.63s2.47,1.91,3.83,2.55c.18.08.38-.13.22-.28-1.04-1-2.37-1.73-3.56-2.55-1.35-.92-2.69-1.85-4.04-2.77-.26-.18-.5.24-.25.42h0Z"></path><path class="cls-3" d="M129.51,126.18c2.9,2.19,5.82,4.97,9.06,6.63.16.08.32-.12.19-.25-2.57-2.6-6.1-4.55-9.08-6.67-.18-.13-.34.16-.17.29h0Z"></path><path class="cls-3" d="M130.89,126.01c1.28,1,2.56,1.99,3.84,2.99,1.12.87,2.23,1.98,3.52,2.57.2.09.37-.13.23-.3-.89-1.1-2.25-1.9-3.37-2.76-1.28-.99-2.57-1.98-3.85-2.96-.26-.2-.62.26-.36.46h0Z"></path><path class="cls-3" d="M129.41,122.48c1.66,1.44,3.34,2.87,5.02,4.28,1.49,1.25,2.93,2.77,4.65,3.68.18.09.32-.12.2-.26-1.27-1.57-3.16-2.78-4.73-4.06s-3.25-2.61-4.88-3.91c-.18-.14-.45.1-.26.26h0Z"></path><path class="cls-3" d="M129.52,121.49c1.51,1.16,3.02,2.32,4.53,3.48s2.94,2.53,4.61,3.35c.2.1.39-.14.24-.3-1.19-1.32-2.83-2.3-4.25-3.36-1.62-1.2-3.24-2.41-4.86-3.61-.27-.2-.51.24-.26.44h0Z"></path><path class="cls-3" d="M130.31,120.32c2.72,2.29,5.49,4.58,8.36,6.67.32.23.65-.26.4-.52-.43-.47-.84-.95-1.25-1.43-.08-.09-.21.03-.16.12.31.57.61,1.13.89,1.72l.52-.4c-2.71-2.29-5.6-4.43-8.47-6.52-.22-.16-.5.2-.29.38h0Z"></path><path class="cls-3" d="M131.49,119.13c-.59-.52-1.18-1.02-1.7-1.62-.16-.19-.43.09-.27.27,1.44,1.66,3.2,3.09,4.82,4.58,1.46,1.33,2.86,2.83,4.49,3.94.23.15.42-.17.27-.35-1.39-1.69-3.22-3.09-4.84-4.55-1.47-1.33-2.9-2.76-4.51-3.91l-.19.33c.68.39,1.28.88,1.89,1.36.03.02.07-.02.04-.04h0Z"></path><path class="cls-3" d="M130.94,117.8c1.27,1.05,2.54,2.1,3.82,3.15,1.13.94,2.23,2.03,3.51,2.77.23.13.44-.17.27-.35-1.01-1.15-2.36-2.07-3.54-3.04s-2.41-1.98-3.61-2.97c-.31-.25-.75.19-.44.44h0Z"></path><path class="cls-3" d="M130.81,115.42c2.47,2.65,5.39,5.33,8.3,7.5.27.2.57-.23.35-.46-2.5-2.62-5.5-5.19-8.42-7.33-.18-.13-.36.14-.22.29h0Z"></path><path class="cls-3" d="M129.99,113.75c3.3,2.88,6.51,6.3,10.18,8.69.2.13.38-.15.24-.31-2.85-3.3-6.65-6-9.94-8.87-.33-.29-.82.19-.49.49h0Z"></path><path class="cls-3" d="M131.29,113.39c2.61,2.08,5.14,4.39,7.92,6.25.16.11.34-.13.2-.26-2.41-2.28-5.22-4.23-7.81-6.3-.22-.18-.53.13-.31.31h0Z"></path><path class="cls-3" d="M130.63,110.92c2.57,2.46,5.06,5.38,7.96,7.45.16.11.29-.12.19-.25-2.19-2.79-5.21-5.14-7.76-7.59-.25-.24-.64.14-.39.39h0Z"></path><path class="cls-3" d="M130.63,109.98c2.26,1.96,4.47,4.32,6.98,5.95.21.13.4-.16.25-.33-1.97-2.23-4.6-4.05-6.86-5.99-.25-.22-.62.15-.37.37h0Z"></path><path class="cls-3" d="M131.8,108.49c1.04,1.11,2.12,2.18,3.21,3.25.97.96,1.9,2.03,3.03,2.79.1.07.25-.07.18-.18-.79-1.11-1.88-2.02-2.86-2.96-1.09-1.06-2.19-2.12-3.32-3.13-.16-.14-.38.08-.23.23h0Z"></path><path class="cls-3" d="M131.02,107.4c2.26,2.16,4.44,4.7,6.98,6.54.12.09.23-.09.15-.19-1.95-2.43-4.59-4.48-6.85-6.63-.19-.18-.47.1-.28.28h0Z"></path><path class="cls-3" d="M132.71,107.61c1.44,1.06,2.85,2.22,4.38,3.15.1.06.22-.09.13-.17-1.38-1.16-2.93-2.13-4.41-3.15-.11-.08-.21.1-.1.18h0Z"></path></g></svg>